<?xml version="1.0" encoding="utf-8"?>
<!-- Generator: Adobe Illustrator 22.0.0, SVG Export Plug-In . SVG Version: 6.00 Build 0)  -->
<svg version="1.1" id="Layer_1" xmlns="http://www.w3.org/2000/svg" xmlns:xlink="http://www.w3.org/1999/xlink" x="0px" y="0px"
	 viewBox="0 0 1850 346.5" overflow="visible" style="enable-background:new 0 0 1850 346.5;" xml:space="preserve">
<style type="text/css">
	.st0{fill:#E8945A;}
	.st1{fill:#1A1F35;}
	.st2{fill:#3B3B3B;}
	.st3{fill:#FFFFFF;}
	.st4{fill:url(#SVGID_1_);}
	.st5{fill:none;stroke:#000000;stroke-width:27;stroke-linejoin:round;stroke-miterlimit:10;}
	.st6{fill:#0E1228;}
	.st7{fill:#D1D1D1;}
	.st8{fill:none;stroke:#E81F1F;stroke-width:9;stroke-miterlimit:10;}
	.st9{font-family:'Roboto-Bold';}
	.st10{font-size:289.3875px;}
	.st11{letter-spacing:-14;}
</style>
<g>
	<g>
		<path class="st0" d="M177.3,228.2L72.1,280.5c-29.3-27-47.7-65.7-47.7-108.7c0-42.9,18.3-81.6,47.5-108.6l101.9,43L79.5,169
			L177.3,228.2z"/>
		<path class="st0" d="M252.6,231.3l-146.4,72.7c-8-4-15.5-8.6-22.6-13.9l122.2-60.8l-100.7-60.9l97.5-65L83.8,53.3
			c7.4-5.5,15.3-10.4,23.7-14.4L250.1,99l-102.9,68.5L252.6,231.3z"/>
		<path class="st0" d="M319.8,171.8c0,81.6-66.1,147.7-147.7,147.7c-17.2,0-33.7-2.9-49.1-8.4l158.2-78.6L172.9,167L279,96.3
			L125.5,31.5c14.6-4.8,30.3-7.5,46.5-7.5C253.7,24,319.8,90.2,319.8,171.8z"/>
		<g>
			<g>
				<g>
					<g>
						<path class="st0" d="M172.1-0.4c-28,0-54.5,6.7-77.9,18.6c-5.2,2.6-10.2,5.5-15,8.6c-7.4,4.7-14.3,9.9-20.8,15.7
							c-3.7,3.3-7.4,6.8-10.8,10.4C18.1,83.8-0.1,125.7-0.1,171.8c0,46.7,18.7,89.2,49,120.2c3.4,3.5,7,6.9,10.7,10.1
							c6.4,5.5,13.1,10.6,20.3,15.1c4.6,3,9.5,5.7,14.4,8.2c23.4,11.9,49.8,18.6,77.7,18.6c94.9,0,172.1-77.2,172.1-172.1
							C344.2,76.8,267-0.4,172.1-0.4z M172.1,330.2c-22,0-42.9-4.5-62-12.7c-5.3-2.3-10.5-4.8-15.5-7.6c-7.6-4.3-14.7-9.1-21.5-14.5
							c-3.9-3.1-7.6-6.4-11.2-9.8c-29.7-28.8-48.3-69.2-48.3-113.8c0-44.2,18.2-84.3,47.6-113c3.6-3.6,7.4-6.9,11.4-10.1
							c6.9-5.6,14.4-10.7,22.2-15.1c5.3-3,10.8-5.6,16.4-8c18.7-7.8,39.3-12.1,60.8-12.1c87.3,0,158.4,71.1,158.4,158.4
							C330.5,259.1,259.4,330.2,172.1,330.2z"/>
					</g>
				</g>
			</g>
		</g>
	</g>
	<text transform="matrix(1 0 0 1 383.2936 288.1818)" class="st3 st9 st10 st11">MIRADEX</text>
</g>
</svg>
