<?xml version="1.0" encoding="utf-8"?>
<!-- Generator: Adobe Illustrator 22.0.0, SVG Export Plug-In . SVG Version: 6.00 Build 0)  -->
<svg version="1.1" id="Layer_1" xmlns="http://www.w3.org/2000/svg" xmlns:xlink="http://www.w3.org/1999/xlink" x="0px" y="0px"
	 viewBox="0 0 1117.7 1118.3" style="enable-background:new 0 0 1117.7 1118.3;" xml:space="preserve">
<style type="text/css">
	.st0{fill:#E8945A;}
</style>
<g>
	<path class="st0" d="M576,742.3L234.4,912.1c-95.1-87.7-154.9-213.3-154.9-353c0-139.3,59.4-265,154.2-352.6l330.9,139.6
		L258.5,550.1L576,742.3z"/>
	<path class="st0" d="M820.6,752.4L345.2,988.4c-26-13-50.3-27.9-73.4-45.1l396.8-197.4l-327-197.8l316.6-211.1L272.4,174.4
		c24-17.9,49.7-33.8,77-46.8l463,195.2L478.3,545.2L820.6,752.4z"/>
	<path class="st0" d="M1038.8,559.2c0,265-214.6,479.6-479.6,479.6c-55.9,0-109.4-9.4-159.4-27.3l513.7-255.2L561.8,543.6L906.3,314
		L407.8,103.6c47.4-15.6,98.4-24.4,151-24.4C824.1,79.2,1038.8,294.2,1038.8,559.2z"/>
	<g>
		<g>
			<g>
				<g>
					<path class="st0" d="M559.2,0c-90.9,0-177,21.8-253,60.4c-16.9,8.4-33.1,17.9-48.7,27.9c-24,15.3-46.4,32.1-67.5,51
						c-12,10.7-24,22.1-35.1,33.8C59.1,273.4,0,409.5,0,559.2c0,151.6,60.7,289.6,159.1,390.3c11,11.4,22.7,22.4,34.7,32.8
						c20.8,17.9,42.5,34.4,65.9,49c14.9,9.7,30.8,18.5,46.8,26.6c76,38.6,161.7,60.4,252.3,60.4c308.2,0,558.8-250.7,558.8-558.8
						C1118,250.7,867.3,0,559.2,0z M559.2,1073.5c-71.4,0-139.3-14.6-201.3-41.2c-17.2-7.5-34.1-15.6-50.3-24.7
						c-24.7-14-47.7-29.5-69.8-47.1c-12.7-10.1-24.7-20.8-36.4-31.8C104.9,835.2,44.5,704,44.5,559.2
						c0-143.5,59.1-273.7,154.6-366.9c11.7-11.7,24-22.4,37-32.8c22.4-18.2,46.8-34.7,72.1-49c17.2-9.7,35.1-18.2,53.3-26
						C422.1,59.1,489,45.1,558.8,45.1c283.5,0,514.3,230.9,514.3,514.3C1073.5,842.6,842.6,1073.5,559.2,1073.5z"/>
				</g>
			</g>
		</g>
	</g>
</g>
</svg>
