<svg width="24" height="24" viewBox="0 0 24 24" fill="none" xmlns="http://www.w3.org/2000/svg"><path d="M21.9999 12.0017C22.0068 17.4733 17.5722 22 12.0016 22 6.43112 22 1.99653 17.4699 1.99994 11.9949 2.00335 6.51987 6.43112 2 12.0051 2c5.5739 0 10.0051 4.53352 9.9948 10.0017Z" fill="#FE9B00"/><path d="M19.6872 13.2434c-.0171-.0341-.0034-.0614-.0034-.0887.058-.5935-.3207-1.1188-.8938-1.2416-.3752-.0785-.7095.0272-.9961.2728-.3479.2968-.6788.6141-1.0063.9347-.3991.3923-.7902.7914-1.1734 1.1974-.2695.2865-.5833.5082-.9586.6379-1.0575.3615-2.2139-.2047-2.6164-1.1871-.0477-.1194-.0443-.1433.0512-.2252.2217-.1944.4469-.3855.6686-.5799.0068-.0068.0136-.0102.0205-.017.0272-.0171.0477-.058.0818-.041.0341.0171.0137.0546.0171.0819.0134.2637.1186.5145.2974.7088.1788.1944.4199.3201.6816.3555.5424.075 1.0848-.2559 1.2485-.7744.1944-.614-.1296-1.2246-.7573-1.4258-.382-.1229-.73-.041-1.0336.2114-.249.2047-.4878.4196-.73.6345-.1603.1433-.3206.29-.4844.4298-.0625.0537-.1046.1271-.1194.2081-.1296.6584-.498 1.1496-1.0813 1.4737-.3653.2037-.7851.2883-1.20078.2422-.4521-.0387-.87944-.223-1.21781-.5254-.23923-.2098-.42613-.4726-.5458-.7675-.00715-.0142-.01287-.029-.01705-.0443-.012-.025-.01482-.0534-.00796-.0802.00686-.0268.02297-.0504.04548-.0665.07846-.0648.15351-.1296.23196-.1944.16033-.1399.32066-.2798.4844-.4162.02729-.0239.05458-.0648.08869-.0512.03411.0137.02047.0614.02388.0955.00789.2575.10141.5049.26576.7033.16434.1983.39012.3361.64162.3917.28438.0606.58111.0103.82971-.1406.2485-.1509.4301-.391.5075-.6712.2047-.7539-.3923-1.4976-1.17006-1.46-.23702.007-.46452.0948-.64472.249-.22173.1842-.44005.3752-.65495.5662-.22173.1945-.44005.3923-.66178.5868-.02973.0242-.05349.055-.06946.0899-.01597.0349-.02371.073-.02264.1113v1.4805c0 .1399-.02047.1603-.16033.1569-.13143 0-.26132-.0284-.38081-.0831-.11949-.0548-.22579-.1346-.31167-.2341-.06822-.0785-.08187-.0785-.17397-.0273-.33771.1876-.69589.2899-1.08136.2763-.7914-.0273-1.39519-.3855-1.80453-1.0643-.19272-.3199-.29198-.6874-.28655-1.0609.00037-.4902.17304-.9648.48781-1.3406.32065-.3923.73-.6481 1.23145-.73.6686-.1058 1.28262.0171 1.79771.4844.16367.1492.306.3202.423.5083.01677.0377.04555.0689.08186.0887.02502-.0161.04542-.0383.05918-.0647.01376-.0263.02041-.0558.01928-.0854-.00341-.3378 0-.6755 0-1.0166 0-.76751-.00113-1.5339-.00341-2.29915 0-.15009.01706-.16714.17056-.16714.22636.00027.44469.08389.61332.2349.16863.15101.27574.35883.30089.58379.00681.05431.01022.109.01023.16374v1.79086c.00341.0819.02047.0921.09552.0546.2193-.1161.45704-.1935.70271-.2285.61062-.0853 1.15642.0682 1.64082.4502.1621.1303.3036.2845.4196.4571.0068.0122.0148.0236.0238.0341.0239.0342.0444.0717.0887.0785.0239.0034.0921-.0853.0955-.1228.0058-.0464.0081-.0931.0069-.1399V9.20796c0-.49463.307-.86645.7948-.95855.0536-.01259.1086-.01833.1637-.01706.0717.00341.1024.0307.1194.09892.0113.05381.0159.10881.0137.16374v2.52089c.0068.0443.0204.058.0648.0409.058-.0238.116-.0511.1739-.075.8187-.3275 1.7364-.1296 2.3299.5048.1992.2146.3545.4661.4571.7403l.0205.0614c.0341.0887.0443.0921.116.0273l.9619-.8494c.2696-.2458.597-.4195.9518-.5049.4978-.1166 1.0209-.0501 1.4738.1873.4528.2374.8051.6298.9925 1.1056.0196.0389.0255.0832.0169.1259-.0087.0427-.0315.0813-.0647.1094-.2354.232-.4639.4674-.6993.7028-.02.0218-.0444.0393-.0716.0511Z" fill="#191C31"/><path d="M18.7627 14.1677c-.0008.013-.0046.0256-.0111.0368-.0065.0113-.0156.0209-.0264.028-.249.2491-.498.4981-.7436.7505-.0201.0235-.0472.0399-.0773.0467-.0302.0067-.0617.0035-.0899-.0092-.5867-.2183-1.0017-.6151-1.2451-1.1905-.0375-.0853-.0307-.1126.0376-.1705.2422-.2115.4878-.423.73-.6311.0153-.0172.0355-.0291.0579-.0341.0239.0238.0171.0545.0205.0818.0123.1605.0527.3175.1194.464.1603.3343.4332.5253.7846.6106.0749.0171.1518.0239.2285.0204.0683-.0068.1399-.0034.2149-.0034Z" fill="#191C31"/><path d="M6.87466 12.8989c.01706.6072-.50144 1.1359-1.13252 1.1428-.30151.0015-.59136-.1164-.80615-.328-.21479-.2116-.33704-.4997-.34002-.8012-.01023-.6208.47757-1.153 1.14617-1.1666.61743-.0137 1.13594.4912 1.13252 1.153Z" fill="#FF9C00"/></svg>