<svg width="24" height="24" viewBox="0 0 24 24" fill="none" xmlns="http://www.w3.org/2000/svg"><path d="M15.4013 15.9736c-.9169-.2687-1.868-.4024-2.8234-.3969-1.5669-.0022-3.11047.3788-4.49634 1.1099l.89252-1.5191.79665-1.3502 2.15097-3.6619 2.0254 3.3756-3.3392-5.57385-3.58629 6.11935-3.59034 6.2112h2.59655c1.62393-1.4403 3.71257-2.2471 5.88308-2.2725 2.3791-.0094 4.5314.8561 6.0761 2.2671l-2.5857-4.3087Z" fill="url(#paint0_linear_8_83)"/><path d="M10.6754 3.51038 6.33702 10.8598 2 18.2147l.71564.9911.71563 1.0802 3.59033-6.2112 3.5863-6.11668 3.3284 5.56978c-.475-.0629-.9536-.0936-1.4327-.0918-.9249.0024-1.8454.1287-2.73693.3754l-.79665 1.3502-.89252 1.5191c1.38587-.7311 2.9295-1.1121 4.4964-1.1099.9554-.0055 1.9065.1283 2.8233.3969l2.5804 4.3114h2.7451L10.6754 3.51038Z" fill="url(#paint1_linear_8_83)"/><path d="M10.6754 3.50945 20.7267 20.285 22 18.1381 13.199 3.5l-2.5236.00945Z" fill="url(#paint2_linear_8_83)"/><defs><linearGradient id="paint0_linear_8_83" x1="7.43884" y1="9.59907" x2="11.5166" y2="22.9328" gradientUnits="userSpaceOnUse"><stop offset=".39" stop-color="#FF9373"/><stop offset=".51" stop-color="#FE8F73"/><stop offset=".62" stop-color="#FB8373"/><stop offset=".73" stop-color="#F77073"/><stop offset=".83" stop-color="#F15472"/><stop offset=".94" stop-color="#E93172"/><stop offset="1" stop-color="#E41A72"/></linearGradient><linearGradient id="paint1_linear_8_83" x1="20.7267" y1="11.8982" x2="3.61896" y2="11.8982" gradientUnits="userSpaceOnUse"><stop offset=".09" stop-color="#FF9373"/><stop offset=".15" stop-color="#FD8A73"/><stop offset=".55" stop-color="#F04E72"/><stop offset=".85" stop-color="#E72872"/><stop offset="1" stop-color="#E41A72"/></linearGradient><linearGradient id="paint2_linear_8_83" x1="20.7767" y1="11.8932" x2="13.8917" y2="11.8932" gradientUnits="userSpaceOnUse"><stop stop-color="#FF9373"/><stop offset="1" stop-color="#E41A72"/></linearGradient></defs></svg>