<svg width="24" height="24" viewBox="0 0 24 24" fill="none" xmlns="http://www.w3.org/2000/svg"><path d="M12 22c5.5228 0 10-4.4772 10-10 0-5.52285-4.4772-10-10-10C6.47715 2 2 6.47715 2 12c0 5.5228 4.47715 10 10 10Z" fill="#767DFF"/><path fill-rule="evenodd" clip-rule="evenodd" d="M10.6062 6.0625h2.7875c.0966-.00005.1915.02563.2749.07441.0833.04877.1522.11887.1995.20309l4.3163 7.6994c.0454.0811.0693.1726.0693.2656s-.0239.1845-.0693.2656l-1.3813 2.4638c-.0471.0842-.1159.1544-.1991.2033-.0833.0488-.1781.0747-.2746.0748H7.67062c-.09666 0-.19156-.0258-.27494-.0747-.08338-.0489-.15222-.1191-.19944-.2034l-1.38062-2.4638c-.04544-.0811-.0693-.1726-.0693-.2656s.02386-.1845.0693-.2656L10.1319 6.34c.0473-.08422.1161-.15432.1995-.20309.0834-.04878.1783-.07446.2748-.07441ZM12 9.12563 9.09187 14.305h5.81623L12 9.12563Z" fill="#fff"/></svg>