<svg width="24" height="24" viewBox="0 0 24 24" fill="none" xmlns="http://www.w3.org/2000/svg"><path d="M20.275 6.55692c.3742.21605.6048.61532.6048 1.04748v8.7912c0 .4321-.2306.8314-.6046 1.0475l-7.6091 4.3948c-.3741.2161-.8351.2161-1.2093 0l-7.60902-4.3948c-.37406-.2161-.60462-.6154-.60462-1.0475V7.60438c0-.43211.23056-.83137.60461-1.04744l7.60703-4.39485c.3742-.21612.8352-.21612 1.2093-.00001l7.6109 4.39484Zm-.1318.22854-7.611-4.39485c-.2925-.16897-.653-.16897-.9455 0L3.97968 6.78546c-.29247.16894-.47274.48111-.47274.81894v8.7912c0 .3378.18027.65.47273.8189l7.60903 4.3949c.2925.169.653.169.9456 0l7.609-4.3949c.2924-.1689.4727-.4811.4727-.8189V7.60444c0-.33788-.1803-.65005-.4728-.81898Z" fill="url(#paint0_linear_9_289)"/><path d="m19.4184 7.13545-6.8249-3.94152c-.3296-.19038-.7357-.19038-1.0653 0L4.7038 7.13545c-.32892.19011-.53176.54106-.53237.92108V15.942c0 .3806.20295.7323.53237.9227l6.8249 3.9415c.3296.1904.7357.1904 1.0653 0l6.825-3.9419c.3294-.1904.5324-.5421.5324-.9227V8.05653c-.0008-.38014-.2038-.73112-.533-.92108Z" fill="url(#paint1_linear_9_289)"/><path d="M7.1356 7.56978c.16411-.1631.32768-.32637.49071-.4898.1641.16363.32784.32743.4912.4914-.16303.16363-.32643.3271-.4902.4904-.16403-.16363-.32794-.32763-.49171-.492Zm1.47793.0006c.16303-.16363.32643-.3271.4902-.4904.16357.1631.32677.32637.4896.4898-.16303.16363-.32643.3271-.4902.4904-.1635-.1631-.3267-.32637-.4896-.4898Zm5.91637-.0016c.1631-.16364.3263-.3269.4896-.4898.1641.16363.3279.32743.4912.4914-.163.16363-.3262.3271-.4896.4904-.1635-.16424-.3273-.32824-.4912-.492Zm1.4747.0031c.1636-.16417.3277-.32833.4923-.4925.1636.1631.327.32656.4902.4904l-.4923.4925c-.1635-.16343-.3269-.3269-.4902-.4904Zm-8.12973.73695c.16356-.1631.32697-.32636.4902-.4898.16357.1631.32677.32637.4896.4898-.16303.16363-.32643.3271-.4902.4904-.16357-.16317-.32677-.32663-.4896-.4904Zm1.48212.001c.1625-.16203.3243-.32452.4854-.48749.16141.1631.32321.32566.48541.48769-.162.1615-.3238.32319-.48541.48509-.16197-.16163-.32376-.32339-.4854-.48529Zm4.43901-.0032c.162-.1626.3244-.3246.486-.4883.1619.16297.3243.32593.487.4889-.1627.16203-.3251.32433-.487.48689-.161-.1634-.324-.3249-.486-.48749Zm1.4726.0011c.163-.16363.3262-.3269.4896-.4898.1636.1631.327.32657.4902.4904-.163.16363-.3262.3271-.4896.4904-.163-.1643-.3272-.3274-.4902-.491Zm-8.133.74055.49171-.4919c.16357.16364.32677.3271.4896.4904-.16356.16417-.3273.32797-.4912.4914-.1635-.16316-.32687-.32646-.49011-.4899Zm1.47743-.0005c.16356-.16309.32713-.32636.4907-.48979.16357.1631.32677.32636.4896.48979-.16303.16364-.32643.3271-.4902.4904-.1635-.16316-.32687-.32663-.4901-.4904Zm1.47957-.0027c.1614-.16203.323-.32389.4848-.48559.1631.1631.3259.3262.4885.4893-.1614.16149-.323.32302-.4848.48458-.1631-.16256-.3259-.32533-.4885-.48829Zm2.9663 0c.1614-.16203.3229-.32389.4844-.48559.1625.16203.3247.32426.4865.48669-.1625.161-.3235.32359-.486.48459-.1605-.1626-.3235-.32359-.4849-.48569Zm1.471.0016c.1636-.16417.3273-.32797.4912-.4914.1636.1631.327.32657.4902.4904-.1635.16417-.3273.32813-.4912.4919-.163-.1641-.3271-.3272-.4902-.4909Zm1.4771 0c.1631-.16363.3263-.3269.4896-.48979.1636.16309.327.32656.4902.49039-.163.16364-.3262.3271-.4896.4904-.1628-.1642-.3268-.3273-.4902-.491Zm-4.4381.05019.4844-.48458c.1702.15779.3371.31878.4997.48458-.1631.16524-.3296.32657-.4997.48399-.1615-.1615-.323-.32282-.4844-.48399Zm-3.69243.69037c.16303-.16203.32623-.32426.4896-.48669.16143.16256.32307.32462.4849.48619-.16197.16256-.32397.32496-.486.48716-.16297-.162-.3258-.32423-.4885-.48666Zm2.95523-.00311c.1614-.16209.3229-.32299.4844-.48509.1614.1615.3227.32303.4838.48459-.1609.1615-.3229.32297-.4838.48457-.1614-.1612-.3229-.32257-.4844-.48407Zm1.489 0c.1603-.1626.3229-.32249.4833-.48509.1657.15889.324.3241.4875.48509-.1625.161-.3239.32407-.4865.48557-.1609-.1626-.323-.32347-.4843-.48557Zm2.9553.0005c.1609-.16259.3224-.32409.4833-.48669.1636.16203.3266.32426.4891.48669-.1636.16203-.3268.32427-.4896.48667-.1604-.1631-.3226-.32407-.4828-.48667Zm-6.66087.73847c.16143-.162.32343-.3239.486-.4856.16196.1631.32446.326.4875.4888-.16144.162-.32307.3237-.4849.4851-.16303-.1625-.3259-.3252-.4886-.4883Zm2.95477-.0011c.1609-.1615.322-.3227.4833-.4835.1699.1573.3364.3186.4997.484-.1625.1658-.3289.3269-.4991.4835-.1615-.1615-.3228-.3228-.4839-.484Zm2.9674.0011c.1609-.1615.322-.3225.4833-.483.1615.1615.3231.3225.4849.483-.162.1603-.3234.322-.4849.4825-.1604-.1616-.3223-.3215-.4833-.4825Zm-5.18291.7389c.16143-.162.32306-.3235.4849-.4845.16091.1609.32181.3221.48281.4834-.1609.1615-.32218.3232-.48382.4851-.16096-.1615-.32226-.3228-.48389-.484Zm4.44271 0c.1614-.1615.323-.323.4849-.4845.1614.1609.3225.3224.4833.4845-.1609.1615-.322.3231-.4833.4846-.161-.1621-.3235-.323-.4849-.4846ZM8.61643 12c.16143-.162.32306-.3236.4849-.4846.16089.1615.32199.323.48329.4846-.1609.1615-.32199.323-.48329.4846-.16217-.1616-.3238-.3231-.4849-.4846Zm1.47617 0c.1614-.1615.3228-.3228.4843-.484.1609.1615.3219.3228.483.484-.1602.1615-.3211.3228-.4828.484-.1616-.1615-.3231-.3228-.4845-.484Zm2.9657 0c.1614-.1626.3245-.3236.486-.4862.162.1615.3235.3246.4854.4862-.162.1615-.3238.3235-.4854.4862-.161-.1626-.3245-.3236-.486-.4862Zm1.4352 0c.1656-.1557.3134-.3325.4912-.4751.153.1642.3228.3125.4781.4751-.1552.1615-.3224.3106-.4765.4735-.181-.1378-.3255-.3188-.4928-.4735Zm-5.13911.7379.48379-.4839c.16144.1621.32282.3229.48382.485-.1609.1615-.3218.3227-.48281.4835-.16144-.1615-.32303-.3231-.4848-.4846Zm4.44321 0c.1609-.1615.3234-.3225.4844-.4845.1614.1614.3227.323.4838.4845-.1621.161-.3214.3246-.4849.4835-.161-.1615-.3224-.322-.4833-.4835Zm-5.18247.739c.1625-.1631.32537-.3259.4886-.4883.16197.1615.3236.3232.4849.4851-.1625.1631-.325.326-.4875.4888-.16257-.1615-.32457-.3234-.486-.4856Zm2.95267.0011c.1619-.162.3239-.3239.486-.4856.1715.1573.3386.3188.5012.4846-.163.167-.3303.3294-.5018.4872-.162-.1621-.3238-.3242-.4854-.4862Zm2.9695-.0006c.161-.1615.3229-.322.4833-.483.162.161.3238.3218.4854.4825-.1614.161-.3232.3219-.4854.483-.1609-.1611-.322-.3219-.4833-.4825Zm-6.66133.7353c.16303-.162.32607-.3242.4891-.4867.16197.1621.32397.3245.486.4872-.16203.1615-.3237.3238-.485.4867-.16353-.1621-.32657-.3256-.4901-.4872Zm2.95313.0031c.1625-.1625.3248-.3247.487-.4866.1625.162.325.3242.4875.4866-.162.1626-.3241.3252-.4865.4877-.163-.162-.3257-.3246-.488-.4877Zm1.4884 0c.1626-.1631.3261-.3251.4881-.4882.1626.162.3251.3251.4881.4866-.163.1631-.3259.3264-.4886.4898-.1625-.1625-.3251-.3252-.4876-.4882Zm2.958-.0005c.1602-.1626.3229-.3245.4833-.4876.163.1625.3264.3251.4902.4876-.163.1626-.3262.325-.4896.4872-.161-.1626-.3232-.3246-.4839-.4872Zm-3.7098.6878c.1625-.162.325-.3244.4875-.4872.172.1578.3393.3206.5039.4867-.1641.1673-.3319.3304-.5033.4893-.1631-.1631-.3258-.326-.4881-.4888Zm-4.4301.0491.49021-.4904c.1641.1636.32784.3274.4912.4914-.16303.1636-.32623.3271-.4896.4904-.1641-.1641-.32804-.3279-.49181-.4914Zm1.47743-.0005c.16356-.1631.32697-.3264.4902-.4898.16357.1631.32697.3266.4902.4904-.16303.1636-.32623.3269-.4896.4898-.16363-.1631-.32724-.3266-.4908-.4904Zm1.47627.0026c.1642-.1631.3277-.3273.4918-.4904.1625.1626.3252.3251.4881.4877-.1636.1647-.3272.3289-.4908.4925-.163-.163-.326-.3263-.4891-.4898Zm2.9659.0006c.163-.1636.3272-.3262.4891-.4898.163.1631.3262.3259.4896.4883-.1636.1636-.327.3273-.4902.4909-.163-.1632-.3258-.3263-.4885-.4894Zm1.4747-.0016c.1631-.1636.3272-.3273.4902-.4909.1636.1642.3273.3281.4912.4919l-.4902.4904c-.1639-.1636-.3276-.3274-.4912-.4914Zm1.4771 0c.1631-.1636.3272-.3273.4902-.4909.1631.1636.3263.3271.4896.4904-.163.1636-.3264.3271-.4902.4904-.1633-.1632-.3265-.3265-.4896-.4899Zm-8.13263.7373c.16356-.1631.32696-.3263.4902-.4898.16357.1631.32697.3266.4902.4904-.16303.1637-.32623.3269-.4896.4898-.16363-.1631-.32724-.3265-.4908-.4904Zm1.47842.0005c.1625-.1636.32553-.3267.4891-.4892.16361.1625.32681.3256.48961.4892-.163.1631-.3261.3273-.48911.4904-.16353-.1631-.32657-.3272-.4896-.4904Zm4.43901.0011c.163-.1636.3266-.3272.4907-.4909.1635.1642.3273.3279.4912.4909-.1641.1637-.3279.3276-.4912.4919-.1641-.1635-.3277-.3275-.4907-.4919Zm1.4768 0c.163-.1636.3272-.3273.4902-.4909.163.1637.3262.3271.4896.4904-.163.1637-.3264.3271-.4902.4904-.1635-.1633-.3267-.3266-.4896-.4899Zm-8.13139.7359c.16303-.1636.32643-.3271.4902-.4904l.4902.4904-.4902.4904c-.16357-.1628-.32697-.3262-.4902-.4904Zm1.47582.0015c.16356-.1631.32697-.3264.4902-.4898.16357.1631.32697.3266.4902.4904-.16303.1636-.32623.3269-.4896.4898-.16363-.1631-.32724-.3266-.4908-.4904Zm5.91687.0016c.1636-.1642.3273-.3281.4912-.4919.1631.1636.3263.3271.4896.4904-.1635.1642-.3273.328-.4912.4914-.1635-.1631-.3267-.3264-.4896-.4899Zm1.4747-.0031c.1631-.1636.3265-.3271.4902-.4904l.4923.4925c-.163.1636-.3264.3271-.4902.4904-.1646-.1638-.3287-.328-.4923-.4925Z" fill="#fff"/><defs><linearGradient id="paint0_linear_9_289" x1="5.2222" y1="6.93335" x2="19.8754" y2="15.3748" gradientUnits="userSpaceOnUse"><stop stop-color="#0071BC"/><stop offset="1" stop-color="#662D91"/></linearGradient><linearGradient id="paint1_linear_9_289" x1="6.05454" y1="7.57936" x2="19.0246" y2="15.0304" gradientUnits="userSpaceOnUse"><stop stop-color="#0071BC"/><stop offset="1" stop-color="#662D91"/></linearGradient></defs></svg>