<svg width="24" height="24" viewBox="0 0 24 24" fill="none" xmlns="http://www.w3.org/2000/svg"><path d="M17.4299 15.8401c2.112 0 3.8241-1.7214 3.8241-3.8448 0-2.12343-1.7121-3.8448-3.8241-3.8448-2.1119 0-3.824 1.72137-3.824 3.8448 0 2.1234 1.7121 3.8448 3.824 3.8448ZM12.5978 6.70783c1.0184 0 1.8439-.83003 1.8439-1.85391C14.4417 3.83003 13.6162 3 12.5978 3c-1.0183 0-1.8439.83003-1.8439 1.85392 0 1.02388.8256 1.85391 1.8439 1.85391ZM12.5978 21.001c1.0184 0 1.8439-.8301 1.8439-1.8539 0-1.0239-.8255-1.8539-1.8439-1.8539-1.0183 0-1.8439.83-1.8439 1.8539 0 1.0238.8256 1.8539 1.8439 1.8539ZM11.7529 14.7725c.109.0366.2271.0548.3452.0548.6358 0 1.1536-.5205 1.1536-1.1598s-.5178-1.1599-1.1536-1.1599c-.4088 0-.763.2101-.9719.5297v.0092c-.0364.0456-.0636.1004-.0818.1552-1.27165 2.2558-3.82406.7489-3.82406.7489-.41784-.2466-.89925-.3927-1.42608-.3927-1.53508 0-2.7795 1.2512-2.7795 2.7946 0 1.5434 1.24442 2.7945 2.7795 2.7945 1.07183 0 2.00741-.6118 2.46157-1.5068v-.0092c.08175-.1552.14534-.3196.19984-.4931 1.32616-3.0594 3.29723-2.3654 3.29723-2.3654Zm-.654-4.1005c.0545.1005.1272.2009.2089.2831.4542.4566 1.1809.4566 1.6259 0 .4542-.4566.4542-1.18723 0-1.63472-.2906-.29225-.6903-.39271-1.0536-.31051h-.0091c-.0545.00913-.1181.0274-.1726.05479-2.48882.69408-3.23365-2.19182-3.23365-2.19182-.11808-.47489-.36333-.92239-.72667-1.28769-1.08999-1.09591-2.84307-1.09591-3.92398-.00913-1.08092 1.08677-1.09 2.85849 0 3.94527.76299.76711 1.84391.99541 2.80674.68491h.00908c.1635-.0548.327-.1278.4905-.21001 3.07928-1.22377 3.97848.67581 3.97848.67581Z" fill="#000"/></svg>