<svg width="24" height="24" viewBox="0 0 24 24" fill="none" xmlns="http://www.w3.org/2000/svg"><path d="M11.6111 5.37539 5.67024 17.9443h9.86266c.1398-.0001.2765.0415.3932.1195.1167.078.2083.1891.2634.3194l.0104.0243c.0365.0863.0528.18.0476.2737-.0053.0938-.0319.185-.0777.2665-.0823.1455-.2009.2663-.3439.3504-.1429.084-.3052.1283-.4705.1284H4.87382c-.16168 0-.31972-.0486-.45422-.1397l-.05531-.0371c-.16435-.1117-.28346-.2797-.33544-.4734-.05197-.1936-.03331-.3998.05256-.5806L11.0912 3.55878c.0733-.15277.1776-.28809.306-.39709.1217-.103.2748-.16011.4333-.16166.1585-.00154.3126.05258.4362.1532.0555.04436.1005.10083.1315.16523l7.1101 14.73804c.0964.2003.1164.4296.0563.644-.033.118-.103.2218-.1995.2956-.0965.0738-.2142.1136-.335.1133h-.0814c-.1625 0-.3216-.0469-.4587-.1352-.1372-.0884-.2467-.2145-.3158-.3637L12.0423 5.37758c-.019-.04168-.0493-.07702-.0873-.10186-.0381-.02484-.0823-.03816-.1276-.03839-.0452-.00023-.0896.01264-.1279.03709-.0383.02445-.0689.05948-.0883.10097h-.0001Z" fill="#F4AE95"/></svg>