<svg width="24" height="24" viewBox="0 0 24 24" fill="none" xmlns="http://www.w3.org/2000/svg"><path d="M12.976 6.1092s.0204-.07508.0819-.07508c.0614 0 .2252-.03413.273 0 .0478.03413.0273.13652-.0273.13652s-.3549-.01366-.3276-.06144Zm1.6791-.2116c.1771.0881.3623.15897.5529.2116.0196.00337.0398.00203.0588-.0039.0189-.00594.0363-.0163.0505-.03023.0546-.06143.1296-.17747.0546-.2116-.1093-.05461-.2867-.17748-.5666-.10239-.2799.07508-.1911.12287-.1502.13652Zm-8.77812 4.314s-.16382.0068-.13651-.1843c.0273-.19114.24573-.42322.37542-.51196.1297-.08873.19795-.15699.19795-.29351s.19796-.24574.24574-.31399c.04778-.06826.22525-.157.19795-.04096-.0273.11604-.09556.16382-.09556.31399s.0273.25256.10239.09557c.07508-.157.53924-.88738 1.01023-1.26963.47099-.38225 1.09898-.80546 1.18089-.81911.08191-.01365.12969.04096.12969.12969 0 .08874-.22525.17748-.33447.27304-.10921.09556-1.4471 1.15358-1.82935 1.96587-.07829.1089-.16749.20954-.26621.30034-.12969.10922-.15017.26626-.32764.44366-.17748.1775-.17065.3618-.25939.3891-.08874.0273-.20478-.0819-.13652-.314.06826-.2321.27987-.37541.43004-.54606.15017-.17065.20477-.32082.16382-.32082-.04096 0-.25939.04778-.32082.21843-.06143.17065-.06143.24573-.13652.31395-.08874.082-.14334.1775-.19113.1707Zm3.30376-3.12629c-.01619.00755-.03027.01897-.04099.03326-.01071.01429-.01774.031-.02045.04865-.00205.02141.00272.04292.01366.06144.04095.0546.13651.01365.20477-.04779.14962-.10779.30453-.20803.46417-.30034 0 0-.44369.10922-.62116.20478Z" fill="#000"/><path d="M6.30051 10.9966s-.06143.0956-.15017 0 .0273-.2935.17748-.43c.15017-.1365.5802-.81914.69624-1.01026.29676-.42403.64788-.80728 1.04437-1.13993.45051-.36178 1.25597-1.01024 1.66553-1.24232.40954-.23208.96924-.53925 1.56314-.65529.5939-.11604 1.8157-.02048 3.3106.90785.0189.04255.0201.09086.0035.13435-.0166.0435-.0498.07863-.0923.09773 0 0-1.529-.95563-2.8532-.90785-1.3242.04778-2.40273.92833-3.36519 1.77474-.96246.84642-.85324.94198-.97611 1.09215-.12287.15017-.51194.68943-.5802.78503-.06826.0955-.28669.4778-.44369.5938Zm8.68939-4.34811c-1.6382-.63481-2.6894-.47782-2.9966-.40956-.0094.00249-.0179.00787-.0242.01538-.0062.00752-.01.0168-.0107.02656-.0008.00976.0015.01951.0066.0279.005.00839.0125.01499.0215.0189.0866.02612.1759.04216.2662.04778.355.03413.6758.10922.9079.10239.2321-.00682.8259.06144 1.1809.19795.3549.13652.5051.19113.5051.19113.027-.00051.0534-.00842.0763-.02286.0228-.01444.0413-.03486.0534-.05905.0682-.08874.0136-.13652.0136-.13652Z" fill="#000"/><path d="M14.8193 7.01017s.0614.21843-.1434.23209c-.2048.01365-1.0375-.49147-1.3583-.5256-.3209-.03413-.1024-.23891.314-.12287.4163.11604 1.1877.41638 1.1877.41638Zm-1.1195-1.03754c-.0091.00326-.0171.00928-.0227.01722-.0056.00795-.0086.01743-.0086.02715s.003.0192.0086.02715c.0056.00794.0136.01396.0227.01722.1155.05161.237.08831.3618.10921.1911.01366.7099.17748.9556.30717.157.08191.2389-.20478.1365-.23891-.1843-.06826-.6484-.24573-.7918-.27986-.1297-.03413-.471-.05461-.6621.01365ZM10.867 7.24908c2.2048-.30034 3.3516.77816 3.4949.75085.1434-.0273.1024-.1843.1024-.1843-.5529-.46416-1.9044-1.01023-3.1604-.85324-1.256.157-1.93173.98294-2.18429 1.13311-.25256.15017-.45734.47098-.65529.66211-.19795.19113-.48464.25256-.56655.32082-.08191.06826-1.2355 1.77477-1.38567 1.95907-.15017.1843-.19112.3549-.06143.4232.12969.0682.2116-.1502.2116-.1502s.60751-.9966.74403-1.1536c.13652-.15697.5802-.84639.66894-.9556.08874-.10922.19113-.08874.157 0-.03413.08873-.7372 1.1058-.8669 1.2628-.12969.157-.69624.9351-.73037 1.215-.03413.2799.17065.3277.32764-.0409.157-.3686.39591-.8874.49147-.9898.09556-.1024.44369-.4915.53242-.66895.08874-.17747.47782-.88737.78499-1.22866.30974-.32777.65033-.62493 1.01706-.88738.18134-.12748.37315-.23937.57335-.33447.1024-.04778.2799-.25256.5051-.27986Z" fill="#000"/><path d="M8.4437 9.4676s.53242-.80546 1.09897-1.19454c.56653-.38907.89423-.66211 1.07163-.73037.1775-.06826.785-.38225 2.1639-.06826 1.3788.31399 1.5426.7645 1.4812.85324-.0614.08874-.2799-.04778-.5939-.21843-.314-.17065-.9078-.43686-1.3856-.42321-.4778.01366-1.4198.3413-1.4813.39591-.0614.0546-.0682-.10922.0956-.14335.1638-.03413.2662-.16382.3686-.17747.1024-.01365.2526-.04778.2526-.12969s-.3413-.06826-.512 0c-.1706.06826-.8327.44368-.9556.51194-.12288.06826-.2867.11604-.314.21843-.02731.10239-.23208.3413-.33447.3959-.10239.05461-.61434.45734-.66895.5529-.02353.05432-.06449.09925-.11641.12768-.05192.02843-.11184.03875-.17027.02932Z" fill="#000"/><path d="M9.50163 8.83276s.06826.10239.35495-.11604c.28672-.21843.32082-.26621.34812-.26621.0273 0-.0478-.10922-.1024-.06144-.0546.04778-.59384.34812-.60067.44369Zm.79177-.17748s-.0819-.02047.0751-.13651c.157-.11605 1.1877-.73038 1.9318-.68942.744.04095 1.6041.47781 1.7542.6075.1502.1297.041.38908 0 .37543-.0409-.01365-.9693-.71672-1.6109-.7372-.6416-.02048-1.2901.22526-1.5563.3959-.2662.17065-.3618.23208-.5939.1843Z" fill="#000"/><path d="M11.1262 8.61432c-.0077-.0021-.0146-.00634-.02-.01223-.0054-.00588-.009-.01316-.0105-.02101-.0014-.00785-.0006-.01594.0024-.02335.003-.0074.008-.01381.0144-.01849.219-.14755.4653-.24956.7245-.29999.2591-.05042.5258-.04822.7841.00648.9215.19795 1.3037.63481 1.3242.73719.0205.10239-.0137.3413-.1502.29352-.1365-.04778-.5802-.72355-1.2969-.78498-.6894-.06144-.8464.24573-1.372.12286Z" fill="#000"/><path d="m12.0751 8.77823-.0819-.0273c-.0137-.00683-.0068-.02048 0-.02048.116-.0273.5051-.10239.86.0273.2524.10423.4803.26.669.45734.0033.00323.0054.00745.0059.01201.0006.00455-.0004.00917-.0027.01311-.0024.00394-.006.00697-.0103.0086-.0043.00163-.009.00178-.0134.00041l-1.4266-.47099ZM7.10581 12.2595s-.04095.1297-.15699.0341c-.11604-.0956-.04096-.2457 0-.355.04095-.1092.35495-.7508.43003-.8259.07509-.0751.35495-.4096.35495-.4846 0-.0751.07508.2116-.21161.6484-.27303.4369-.16382.5529-.41638.983Zm.24574.43s-.04096.0887-.11604 0c-.07509-.0887-.00683-.3003.08191-.512.08873-.2116.2116-.6894.27303-.7849.06144-.0956.06826.116.06826.1774 0 .0615.02048.3959-.09556.6826-.05489.1527-.12582.2992-.2116.4369Zm.35495.4164s-.08192.1365-.18431-.0273c-.0348-.0552-.05328-.1191-.05328-.1843 0-.0653.01848-.1292.05328-.1843.03413-.0615.08192-.2594.10922-.2935.0273-.0342.06143.0477.07509.1501.01365.1024.07508.2185.07508.2662 0 .0478-.01365.2048-.07508.2731Zm.19795.1638c-.01254-.039-.03095-.0758-.05461-.1092-.02048-.0137-.08874.0751-.09556.1433-.00683.0683.06826.0956.07508.157.00683.0615.06144-.0136.07509-.0819.00828-.0359.00828-.0733 0-.1092Zm.2116-2.0478c.06795-.383.2324-.7425.47782-1.0444.3959-.46411.5802-.5392.5802-.5392s.05461-.01365.0273.09556c-.0273.10922-.23208.36174-.26621.43684-.03413.0751-.27986.3208-.27986.3618 0 .041.10922.0068.12287.0273.01365.0205.06143.0478 0 .1911-.06144.1434-.30034.6485-.30717.7577-.00683.1092-.36177.9283-.3959.9283-.03413 0-.10922-.0068-.10239-.2594.00682-.2525.38225-1.2013.48464-1.3583.10239-.157.10921-.157.06826-.1502-.04096.0068-.29352.2799-.32765.471-.03413.1911-.08191.0819-.08191.0819Zm.95563-.0614s-.09556.2252-.29351.2116c-.19796-.0137.10239-.512.15017-.7236s.41638-1.02385.49146-1.09211c.07509-.06826.27987-.15017.314-.08191.03413.06826-.10922.16382-.1843.31399-.07509.15017-.30717.57333-.32765.72353-.02047.1502-.15017.6485-.15017.6485Z" fill="#000"/><path d="M8.8806 11.6383c.00643-.0166.00939-.0342.0087-.052-.00068-.0177-.00499-.0351-.01267-.0511-.00768-.016-.01856-.0302-.03196-.0419-.01341-.0116-.02906-.0203-.04598-.0257-.12969-.0546-.13652-.0136-.19795.0888-.06143.1024-.45734 1.058-.45734 1.2013 0 .1434.04096.4096.08874.4505.04778.041.09556-.0341.09556-.1365.01622-.1258.06836-.2443.15017-.3413.04072-.0565.06905-.121.08317-.1892.01411-.0682.01368-.1386-.00126-.2067-.0273-.1638.23209-.43.23209-.43.0011.1915-.00801.3829-.02731.5734-.0273.1706-.20478.3071-.24573.3822-.04096.0751-.06143.3686-.09556.4574-.03393.1081-.04096.2229-.02048.3344.02048.0888.07508.3072.10921.1502.03413-.157.157-.6212.19113-.6143.03413.0068.0273.5119.00683.6143-.02048.1024-.04779.6007-.04779.6621 0 .0615-.1843.3413-.21843.4437-.03413.1024-.2389.4778-.2389.4983 0 .0205.20477 0 .33447-.1024.04911-.0427.08898-.095.11715-.1537s.04405-.1225.04667-.1876c0-.0819-.01365-.2799.03413-.3959.04778-.116.17065-.3891.19112-.4983.0171-.2796.0171-.56 0-.8396-.01365-.157.02048-.8191.06826-.9556.04779-.1365.05461-.2048.08874-.2048s.01365.4164 0 .5461c-.01365.1297-.04778.5529-.04778.6143-.05838.5219.02412 1.0499.23891 1.529 0 0 .03413.1502.19795.0478.16382-.1024-.07509-.5597-.11604-.6894-.04096-.1297-.17748-.8055-.12969-.901.04778-.0956.32081.942.32764 1.0443.00683.1024.04096.4232.09556.4301.05461.0068.27987-.1297.27987-.157-.00028-.0728-.02162-.1439-.06144-.2048-.06143-.1024-.38907-.942-.45051-1.6382-.06143-.6963.04778-1.884.10239-2.0069.05461-.1228.30717-.6825.3686-.77128.06144-.08874.23886-.45734.27306-.47099.0341-.01365.0682-.01365.0682.0273-.0417.14166-.0918.2807-.1501.41639-.041.11608-.25942.46418-.30037.58018-.12477.3688-.20274.7518-.23209 1.14-.06143.6143.08192 1.6518.12287 1.8566.04096.2048.30034.901.44369.9625.1433.0614.2662-.1229.2457-.157-.0204-.0342-.3208-.5802-.38905-.8055-.06826-.2253-.19112-.7645-.17065-.8874.02048-.1228.17748 1.0239.7167 1.6246 0 0 .0683.041.1912-.0409.1228-.082.116-.1502 0-.2799-.1161-.1297-.512-.8942-.5666-1.0922-.0546-.1979-.29351-.8532-.30717-.8737-.02614-.2321-.01694-.4669.02731-.6962.06143-.2867.15016-.6894.15696-.7987.0069-.1092.1843-.3549.2253-.4095.0409-.05462.1365-.31401.1843-.49831.0478-.1843.1433-.30717.0614-.32082-.0819-.01365-.3822.03413-.4368.09556-.0546.06144-.27307.19113-.73724 1.24917 0 0-.12969.2457-.12969.3891-.00007.1856-.05727.3667-.16382.5187-.0389.072-.08709.1386-.14335.198Z" fill="#000"/><path d="M8.9896 14.4436c-.01614-.0027-.03267-.0022-.04862.0015-.01595.0036-.03102.0104-.04434.0199-.01332.0096-.02463.0216-.03328.0355-.00865.0139-.01446.0294-.01711.0455-.01391.1269-.01847.2547-.01365.3823-.00683.0682-.08874.2389-.06826.2525.02048.0137.17747-.0273.25256-.116.08429-.092.13483-.21.14334-.3345 0-.116-.04095-.2867-.17064-.2867Zm1.9659-5.0921s.1024-.12286.0751-.15017c-.0274-.0273-.1775-.11604-.2321-.04778-.1395.19703-.2499.41313-.3277.64164-.0546.20478-.3549.78501-.3822.90781-.0677.372-.0723.7528-.0137 1.1263.0819.587.5939 1.7816.8191 2.0341.2253.2526.4437 0 .4437 0l-.1706-.1979s-.4232-.7645-.4778-.8533c-.0547-.0887-.3482-.7576-.3277-.9761.0205-.2184.0683-.5187-.0068-.8054-.0751-.2867.2662-.9898.3208-1.09217.0546-.08873.2799-.58703.2799-.58703Z" fill="#000"/><path d="M10.7715 10.8533c.0049-.1093.0256-.2174.0614-.3208.0478-.1365.1024-.3618 0-.4164-.1024-.0546-.2799-.0136-.2799.3686 0 .3823-.0887.8191 0 1.3925.0888.5734.5188 1.5836 1.0922 2.1024.5734.5188.471.3413.7508.5938.2799.2526 1.6997.5188 2.0956.471.3959-.0477.4983-.2389.5188-.3071.0204-.0683-.0342-.1843-.0888-.1297-.0546.0546-.3481.3208-1.3106.1092-.9624-.2116-1.215-.4505-1.2696-.4983-.0546-.0478-.5938-.6007-.6553-.6553-.0614-.0546-.6826-.901-.6826-1.0239 0-.1228.8055 1.413 1.8772 1.8225 1.0716.4096 1.4675.3413 1.6723.2731.2048-.0683.4164-.1297.4164-.2048s-.0068-.2184-.0751-.2184c-.0682 0-.471.2389-.6621.2184-.1911-.0205-.471-.1433-.7304-.1433-.2594 0-.8054-.3209-.9419-.4506-.1366-.1296-.8601-.4982-1.5564-1.9931-.0068.0068-.2662-.7645-.232-.9898Z" fill="#000"/><path d="M12.6554 14.8465s-.2867-.1912-.3413-.1843c-.0546.0068-.0478.1024-.041.2047.0068.1024.0478.2117.116.2253.0683.0137.2526-.0273.2936 0 .3293.166.6897.2613 1.058.2799.5529.0204.6621.0409.8191.0273.157-.0137.4232-.1092.4437-.1707.0205-.0614.0068-.2525-.0478-.2525s-.116.273-1.1604.1501c-1.0307-.1365-1.1399-.2798-1.1399-.2798Z" fill="#000"/><path d="M12.792 15.2696s-.2116-.1501-.2731-.0887c-.0614.0614-.0751.2457.1365.2935.2116.0478.6895.1843.7987.2048.214.0399.4308.0628.6484.0682.2321 0 .4642-.1092.5598-.1092.0955 0 .3822 0 .3959-.0614.0015-.072-.0101-.1437-.0342-.2116-.0068-.0273-.0887-.0205-.1433.0068-.1761.0697-.3592.12-.5461.1502-.3133.0184-.6278-.0045-.9351-.0683-.2063-.0481-.4093-.1097-.6075-.1843Z" fill="#000"/><path d="M14.8463 15.8635s-.4368.3003-1.6519.1092c-1.215-.1911-.901-.6689-.8737-.6485.0273.0205.1297.1639.2048.1912.0751.0273.9829.3276 1.2355.3344.2526.0069.5802-.0068.7235-.0546.1434-.0477.3345-.1706.4096-.0682.0751.0887-.0478.1365-.0478.1365Z" fill="#000"/><path d="M12.4779 15.8772s-.1092-.0751-.1092 0c.0053.0538.0244.1053.0555.1495.0311.0443.0731.0798.1219.103.0954.048.2004.0737.3072.0751.1291.0103.2547.0475.3686.1092.1024.0478.4642.1911 1.0921.0751.628-.116.785-.2662.8123-.3072.0205-.062.0205-.129 0-.1911-.0136-.0683-.0614-.0956-.116-.0409-.0546.0546-.4232.3822-1.3242.3208-.9011-.0615-1.2082-.2935-1.2082-.2935Z" fill="#000"/><path d="M13.092 16.3686s-.0751-.1092-.2799-.0546c-.2048.0546.5256.4437.5666.4779.0409.0341.0887.0546.2662.0341.1774-.0205.6826-.0478.86-.0887.1775-.041.5325-.1434.6417-.2799.1092-.1365.0682-.2253-.0342-.2116-.1023.0136-.7303.4027-1.3583.3481-.628-.0546-.6621-.2253-.6621-.2253Z" fill="#000"/><path d="M13.9657 16.9216s-.3071.0068-.2935.0682c.0265.0539.0688.0985.1212.1277.0525.0293.1126.0419.1723.0362.1366-.0273.9011-.1502 1.0581-.2321.157-.0819.2867-.1024.2867-.198 0-.0955-.0273-.2047-.0956-.1843-.0683.0205-.7304.4437-1.2492.3823Zm.6076.273s-.3345.1092-.3345.1434c0 .0341.1365.1911.2457.1843.1092-.0069.3481-.1639.471-.2048.1229-.041.4164-.0819.43-.1638.0106-.0849-.0061-.171-.0477-.2458-.0226-.0102-.047-.0155-.0717-.0155s-.0492.0053-.0717.0155c-.0478.0273-.5119.2799-.6211.2867Zm.3208.5188c-.0372.0181-.0781.0275-.1195.0275-.0414 0-.0822-.0094-.1194-.0275-.1297-.0614-.0819-.1365.0273-.1911.1092-.0546.314-.1297.3891-.1639.075-.0341.2798-.1092.3139-.0819.036.0376.0598.0852.0683.1366 0 .0341-.5597.3003-.5597.3003Zm.1843.3072s-.2048-.1093-.2048-.1366c.0136-.0275.0338-.0513.0588-.0692.025-.0178.0541-.0292.0845-.0331.0615 0 .4779-.1707.4779-.1707s.1092.1024.1092.2048-.4437.2184-.5256.2048Zm.5256.2252c-.0587.0111-.1189.0111-.1775 0-.0614-.0205-.1433-.1092-.1706-.1092-.0274 0 .0614-.0546.1296-.0614.0683-.0069.1843-.0478.2253-.0546.041-.0069.0956.0477.0956.116s-.1024.1092-.1024.1092Zm-4.1229-8.82591c.0436-.04106.0826-.08685.116-.13652 0-.02048-.2116-.15017-.3139-.1297-.1024.02048-.4506.70307-.3413 1.65183.1092.9489.3549 1.925 1.6928 2.9762.2575.2065.5573.354.8782.4318.3208.0779.6549.0842.9784.0187 0 0 .0956-.0888-.0409-.0956-.1365-.0068-.8533-.1365-1.0922-.2457-.2389-.1092-.7576-.6075-.8395-.6417-.082-.0341-.6963-.6689-.7099-.744-.0137-.0751-.2526-.5051-.3072-.7099-.0546-.2048-.1911-1.0648-.2321-1.2287-.041-.1638-.0819-.43-.0683-.5256.0137-.09552.1639-.4846.2799-.62111Z" fill="#000"/><path d="M11.9522 9.5222s.1228-.03413.1297-.07509c.0068-.04095-.0137-.13652-.1775-.16382-.1638-.0273-.3208.08874-.4301.38225-.1092.29352-.0614.91466.082 1.29696.1433.3822.0614.6894.3276 1.2013.2662.512.2594.512.3618.5939.1024.0819.5938.5597.6689.6348.0751.0751.512.3618.5939.3618.0819 0 .1228-.1365.116-.2048-.0068-.0683-.0136-.1024-.1297-.1092-.116-.0068-.2798-.198-.2798-.198s-.6212-.587-.669-.6143c-.0478-.0273-.5529-.6007-.5529-.6689 0-.0683.0068-.1639.0478-.1093.041.0547.3345.4779.5256.6553.1911.1775.7986.6895.942.7509.1433.0614.2116.0682.2252-.0478.0137-.116.0819-.1706.1434-.1365.0614.0341.5187.3003.6621.2798.1433-.0204.3549-.232.4232-.2184.0683.0137-.1229.2253-.1843.2594-.0614.0341.0478.1092.0683.1229.0378.0205.081.0289.1237.024.0428-.0049.083-.0228.1152-.0513.1092-.0956.1228-.2253.0477-.3959-.075-.1707-.0955-.4574-.116-.512-.0205-.0546-.0478-.1365-.1024 0s-.157.4164-.5119.4301c-.4212.0343-.8412-.0791-1.1877-.3209-.4369-.2867-.9625-.6826-1.3721-1.8498-.4095-1.16723.1093-1.3174.1093-1.3174Z" fill="#000"/><path d="M14.8602 12.0069c-.0181-.0086-.0384-.0112-.058-.0076-.0196.0037-.0376.0136-.0512.0281-.0205.0341-.0478-.1229-.0069-.273.041-.1502.0069-.3755-.0409-.3618-.0478.0136-.4164.6007-.826.3754-.4095-.2252-.9215-.8669-1.0648-1.1536-.1434-.2867-.3208-.6143-.2935-.80542 0 0 .0204-.15017.0273-.19113.0068-.04096-.0819-.20478-.1912-.16382-.1092.04095-.3754.19112-.4095.30034-.0341.10921-.1434.2116-.0888.52563.0547.314.2185.7167.2799.901.0614.1843.2526.6007.4574.785.2047.1843.6075.546.7849.628.1775.0819.5529.3617 1.0376.2525.4846-.1092.4914-.5938.4914-.6416-.0045-.0682-.0207-.1352-.0477-.198Zm-2.1297-.1433c-.0205-.0273-.2594-.3959-.2867-.4164.1296.0963.2507.2036.3618.3208.1365.157.2593.3413.2593.3959 0 0-.314-.273-.3344-.3003Zm1.4334.5734c-.3822-.0137-.5256-.1843-.628-.2458-.1024-.0614-.3686-.4027-.5938-.6348-.2253-.2321-.4028-.43-.4778-.5734-.0751-.1433-.2731-.8464-.2936-.9283-.0204-.0819.1093-.15016.1093-.1092.0031.0734.0122.1465.0273.2184-.0137.3413.3959.942.4505 1.058.0546.1161.5256.628.942.9079.4163.2799.6894.1297.7576.1024.0683-.0273.1434-.0273.1639 0 .0204.0273-.0751.2184-.4574.2048Z" fill="#000"/><path d="M14.6553 11.0649c-.0614 0-.198.1638-.2184.0683-.0205-.0956.0955-.3004.0955-.4915s-.0409-.5529-.1297-.73039c-.0887-.17747-.1774-.33447-.3344-.2389-.157.09556-.0751.17065-.0069.25938.0683.08871.239.28671.239.51881 0 .232-.0342.5324-.1229.5529-.0888.0204-.3004-.0478-.4915-.198-.2041-.1529-.3938-.3243-.5665-.5119-.0615-.0888-.1843-.2935-.1502-.32768.0341-.03413.0887-.04778.1433.04778.0546.0956.3209.3754.3891.4437.1141.114.2349.2212.3618.3208.0819.0546.1843.1502.2594.0273.0751-.1229.0887-.4164.0273-.5256-.0615-.1092-.1638-.30033-.198-.34811-.0341-.04778-.0887-.12969-.2047-.08191-.1161.04778-.1093.14335-.0683.17752.0409.0341.2252.1638.2389.2525.0137.0888.0546.2457-.0137.1707-.0682-.0751-.2457-.3209-.2935-.3482-.0477-.0273-.3754-.23204-.3754-.23204s-.3959-.16382-.4232-.20478c-.0273-.04095-.1092-.04778-.0478.1843.0614.23212.1024.51192.2731.72352.0956.1107.1656.2413.2047.3823.0342.1024.3755.6075.8123.7167.4369.1092.5939-.3959.6144-.4369.0204-.0409.0477-.1706-.0137-.1706Zm-.4164.3072c-.0136.1024-.2048-.0069-.2867 0-.0819.0068-.2321-.1297-.3276-.2389-.0956-.1093-.1707-.2253-.1434-.239.0273-.0136.1502.1366.2731.2048.1228.0683.2867.1638.3959.1502.1092-.0137.0887.1229.0887.1229Zm.9352 2.157s-.0888.1023-.0888.1433c0 .041.0478.0614.0478.1024 0 .0409.0341.0614.0819.0273.0478-.0341.0478-.0751.041-.1297-.0068-.0546.0068-.1638-.0819-.1433Zm.0887.3617s-.0887.0546-.0887.1229c-.0035.0568-.0035.1138 0 .1706.004.0113.0114.021.0212.0279s.0214.0106.0334.0106c.0119 0 .0236-.0037.0334-.0106.0097-.0069.0171-.0166.0212-.0279.0273-.0546.0614-.0887.0341-.1569-.0273-.0547 0-.1843-.0546-.1366Zm.0683.6621s-.1229.0888-.1161.041c.0069-.0478.0137-.2526.0546-.2594.041-.0068.041-.0887.1092.0341.0683.1229.0205.1434-.0477.1843Zm.1024.157s.0341-.1296-.0615-.0477c-.0955.0819-.1228.0546-.116.1092.0068.0546.0273.1502.0819.1365.0409-.0137.1365.0068.0956-.198Zm.0546.2731s-.157.0751-.1434.1638c.0137.0887.0888.1775.1229.1775.0341 0 .0887-.0956.0682-.1707-.0204-.0751.0069-.2047-.0477-.1706Z" fill="#000"/><path d="M11.9998 3.41296c-1.6984 0-3.35858.50362-4.7707 1.44718-1.41213.94355-2.51275 2.28466-3.16268 3.85373-.64993 1.56903-.81999 3.29563-.48865 4.96133.33133 1.6657 1.14916 3.1958 2.35008 4.3967 1.20092 1.2009 2.73098 2.0188 4.39665 2.3501 1.6658.3313 3.3923.1613 4.9614-.4886 1.5691-.65 2.9102-1.7506 3.8537-3.1627.9436-1.4122 1.4472-3.0724 1.4472-4.7707.0003-1.1278-.2216-2.2445-.6531-3.28645-.4314-1.04194-1.0639-1.98867-1.8614-2.78611-.7974-.79743-1.7441-1.42993-2.7861-1.86138-1.0419-.43144-2.1587-.65336-3.2864-.6531Zm0 16.60064c-1.5856.0007-3.13585-.4688-4.45462-1.3492-1.31877-.8804-2.34687-2.132-2.95429-3.5967-.60741-1.4646-.76687-3.0765-.45819-4.6318.30868-1.55532 1.07162-2.98415 2.19235-4.10583C7.44578 5.20839 8.87396 4.44423 10.429 4.13423c1.555-.31 3.167-.15192 4.6322.45424 1.4652.60617 2.7177 1.6332 3.5992 2.95123.8815 1.31802 1.3524 2.8678 1.353 4.4535.0008 1.0529-.2058 2.0956-.6082 3.0686-.4023.973-.9925 1.8572-1.7367 2.6021-.7442.7448-1.6279 1.3357-2.6006 1.7389-.9726.4032-2.0152.6107-3.0681.6108Z" fill="#000"/><path d="M12 2c-1.9778 0-3.91121.58649-5.5557 1.6853-1.64449 1.09882-2.92622 2.6606-3.68309 4.48786-.75688 1.82724-.95491 3.83794-.56906 5.77774.38585 1.9398 1.33826 3.7216 2.73679 5.1202 1.39852 1.3985 3.18035 2.3509 5.12016 2.7367 1.9398.3859 3.9505.1879 5.7777-.569 1.8273-.7569 3.3891-2.0386 4.4879-3.6831C21.4135 15.9112 22 13.9778 22 12c-.0002-2.65211-1.0538-5.19555-2.9291-7.07087C17.1955 3.05381 14.6521 2.00018 12 2Zm0 19.0648c-1.7929 0-3.54545-.5316-5.03616-1.5277-1.4907-.996-2.65257-2.4118-3.33866-4.0681-.6861-1.6564-.86561-3.4791-.51584-5.2375.34977-1.75838 1.21311-3.37358 2.48085-4.64132C6.85793 4.32244 8.47313 3.4591 10.2315 3.10933c1.7584-.34977 3.5811-.17025 5.2375.51584 1.6563.6861 3.0721 1.84796 4.0681 3.33867.9961 1.4907 1.5277 3.24326 1.5277 5.03616-.001 2.4038-.9564 4.7089-2.6562 6.4086-1.6997 1.6998-4.0048 2.6552-6.4086 2.6562Z" fill="#151515"/></svg>