<svg width="24" height="24" viewBox="0 0 24 24" fill="none" xmlns="http://www.w3.org/2000/svg"><g clip-path="url(#clip0_13_321)" fill="#1C1C1C"><path d="M12.2925 21.1481c.4455 0 .8811-.1321 1.2515-.3796.3705-.2475.6592-.5994.8297-1.011.1705-.4116.2151-.8646.1282-1.3016-.0869-.4369-.3014-.8383-.6165-1.1534-.315-.315-.7164-.5296-1.1534-.6165-.437-.0869-.89-.0423-1.3016.1282-.4116.1705-.7635.4592-1.011.8297-.2475.3704-.3796.806-.3796 1.2515 0 .5975.2373 1.1705.6598 1.5929.4224.4225.9954.6598 1.5929.6598Z"/><path d="M14.7367 2H9.83701L3 20.8666h4.13938L12.2925 6.66032l5.1418 14.20628h4.1507L14.7367 2Z"/></g><defs><clipPath id="clip0_13_321"><path fill="#fff" d="M3 2h18.585v19.1481H3z"/></clipPath></defs></svg>