<svg width="24" height="24" viewBox="0 0 24 24" fill="none" xmlns="http://www.w3.org/2000/svg"><g clip-path="url(#clip0_139_419)"><path d="M17.0432 16.9583 12 21.9813l-2.50166-2.4917c2.69766-.1588 5.30236-1.0324 7.54486-2.5313Zm4.7807-5.1587-.6179-.6122L12 2.01495 2.7907 11.1874 2 11.975l.28571.2448c.32226.268.65449.5228.99668.7611 3.6412 2.5545 8.15611 3.3255 12.32561 2.3096 1.701-.4103 3.3156-1.1151 4.7741-2.0813.3621-.2382.7142-.4963 1.0598-.7677.1893-.1522.3754-.3077.5581-.4665l-.1761-.1754Zm-7.3953 2.3063c-2.7475-1.6809-5.91033-2.5644-9.13292-2.5512 4.19934-1.82323 9.35212-2.0714 14.07642.6353-1.505.953-3.1861 1.6049-4.9435 1.9159Z" fill="#2B71FF"/></g><defs><clipPath id="clip0_139_419"><path fill="#fff" d="M2 2h20v20H2z"/></clipPath></defs></svg>