<svg width="24" height="24" viewBox="0 0 24 24" fill="none" xmlns="http://www.w3.org/2000/svg"><path d="M12.0337 22.0001c-.487 0-.974-.134-1.4001-.3775l-6.22133-3.5915C3.53569 17.5198 3 16.5945 3 15.584V8.40087c0-.99833.53569-1.93578 1.4001-2.43495l6.2335-3.59155c.8644-.49916 1.9358-.49916 2.8123 0l6.2213 3.59155c.8644.49917 1.4001 1.43662 1.4001 2.43495v7.19523c0 .9984-.5357 1.9358-1.4001 2.435l-6.2213 3.5915c-.4383.2435-.9131.3775-1.4122.3775Zm0-19.02916c-.3166 0-.6331.08522-.9131.24349L4.88709 6.81815c-.57222.32872-.91311.93746-.91311 1.58272v7.19523c0 .6575.35307 1.254.91311 1.5828l6.22131 3.6037c.5722.3287 1.2662.3287 1.8384 0l6.2213-3.5916c.56-.3287.9131-.9252.9131-1.5827V8.40087c0-.65744-.3531-1.26617-.9131-1.58272l-6.2092-3.60372c-.28-.15827-.5965-.24349-.9252-.24349Zm0 15.76626c-.2679 0-.5236-.073-.7549-.2069l-4.52898-2.6054c-.46264-.2679-.75483-.767-.75483-1.3149V9.38702c0-.53568.28002-1.03485.75483-1.31487l4.52898-2.60539c.4748-.26785 1.0471-.26785 1.5097 0l4.5168 2.60539c.4627.26785.7549.76701.7549 1.31487V14.61c0 .5357-.2922 1.047-.7549 1.3149l-4.529 2.6054c-.2191.1339-.4748.2069-.7426.2069Zm0-12.74693c-.134 0-.2679.03653-.3896.10957l-4.52903 2.6054c-.2435.1461-.3896.40177-.3896.68178V14.61c0 .28.1461.5357.3896.6818l4.52903 2.6054c.2435.1461.5357.1461.7792 0l4.5168-2.6054c.2435-.1461.3896-.4018.3896-.6818V9.38702c0-.28001-.1461-.53568-.3896-.68178l-4.5168-2.6054c-.1096-.07304-.2435-.10957-.3896-.10957Zm0 9.43543c-.134 0-.2679-.0365-.3896-.0974l-2.28888-1.3392c-.2435-.1339-.38959-.4018-.38959-.6696v-2.6541c0-.28.14609-.5357.38959-.66964l2.28888-1.32704c.2435-.13393.5357-.13393.7792 0l2.2888 1.32704c.2435.13394.3896.38964.3896.66964v2.6541c0 .28-.1461.5357-.3896.6696l-2.2888 1.327c-.1218.0731-.2557.1096-.3896.1096Zm0-6.36739c-.0487 0-.0974.01217-.1461.03652L9.59871 10.4219c-.08522.0487-.14609.1461-.14609.2435v2.6541c0 .0974.06087.1948.14609.2556l2.28889 1.3271c.0852.0487.1948.0487.2922 0l2.2888-1.3271c.0852-.0487.1461-.1582.1461-.2556v-2.6541c0-.0974-.0609-.1948-.1461-.2435l-2.2888-1.32707c-.0487-.02435-.0974-.03652-.1461-.03652Z" fill="url(#paint0_linear_117_824)"/><defs><linearGradient id="paint0_linear_117_824" x1="3" y1="11.9958" x2="21.0722" y2="11.9958" gradientUnits="userSpaceOnUse"><stop stop-color="#E168FD"/><stop offset="1" stop-color="#7B00FC"/></linearGradient></defs></svg>