<svg width="24" height="24" viewBox="0 0 24 24" fill="none" xmlns="http://www.w3.org/2000/svg"><path fill-rule="evenodd" clip-rule="evenodd" d="M11.662 4.02969c-.3577.08979-.5405.26339-.7239.68746-.0649.14998-.3038.65451-.5311 1.12117l-.4132.84847.00119.19799c.00195.32411.21531.76297.54671 1.12445.1616.17634.5243.42887.752.52362.7369.30664 1.6881-.01383 2.2055-.74304.2728-.38447.3969-.73995.3754-1.07502-.012-.18624-.0366-.2488-.3739-.94803-.1986-.41176-.4066-.86318-.4623-1.00317-.0863-.21696-.1287-.28192-.287-.43997-.1667-.16641-.2075-.19172-.3979-.24699-.2899-.08419-.4892-.09771-.6915-.04694Zm2.265 4.13587c-.2312.32225-.4161.59865-.4109.61421.0084.02537 1.7066.83589 1.8399.87822.0518.01641.0526.01225.0148-.0769-.0817-.19263-.9931-2.00329-1.0079-2.00239-.0085.00051-.2046.26458-.4359.58686Zm-4.83114.39426c-.4241.89884-.46703.99884-.42783.99616.05586-.00385 1.68847-.75079 1.69657-.77618.0087-.02772-.7945-1.06713-.83661-1.0826-.0118-.00432-.20624.38385-.43213.86262Zm2.11314.75981c-.7197.11183-1.50826.41287-2.27752.86947l-.26868.1594 3.104.0005c1.7178.0003 3.104-.0104 3.104-.0239 0-.0373-.3927-.3298-.6515-.48533-.4439-.26676-1.0849-.46507-1.7302-.53521-.3699-.04019-.9699-.03315-1.2801.01507Zm-.5665 1.65167-2.51713.0145-.11675.0624c-.17369.0929-.33351.2931-.44254.5544l-.0967.2316 2.03908.0142c1.12144.0078 2.05504.0244 2.07444.037.028.0181.0353.8622.0353 4.0639 0 2.6117.0099 4.0471.0278 4.0582.0153.0095.1338.0246.2634.0338.2678.0189.3331-.0032.4173-.1413.0537-.0881.055-.1791.0551-4.0709l.0001-3.9807.9828-.004c.5405-.0022 1.4581-.0117 2.039-.0212l1.0561-.0172-.1678-.2556c-.1835-.2794-.337-.4276-.5552-.5364l-.1419-.0707-1.2176.0068c-.6697.0037-2.3504.0133-3.7348.0212Zm-3.22425 1.5538c-.221.0376-.29929.1177-.49186.5034-.25925.5192-.37085 1.0136-.3706 1.642.00009.2289.01924.5427.04254.6973.13409.8897.53316 1.854 1.05497 2.5493.50501.6729 1.27718 1.281 2.04013 1.6067.34097.1456 1.17947.4508 1.32827.4834l.0919.0202-.0175-3.5875c-.0097-1.9731-.0241-3.6413-.0322-3.7069-.0102-.0836-.0365-.1367-.0875-.1768-.0715-.0563-.1053-.0573-1.75897-.0538-.92732.0019-1.73696.0122-1.79918.0227Zm5.90485.0269c-.2232.0136-.3005.0291-.3394.068-.0443.0444-.0522.1264-.0654.6788-.0203.8503-.0175 6.7425.0032 6.7633.0275.0274 1.2335-.4266 1.5673-.59 1.2002-.5873 2.1409-1.6339 2.5944-2.8864.2493-.6884.3308-1.0885.3518-1.7252.018-.5487-.0163-.8174-.1633-1.2791-.0926-.2912-.282-.6998-.396-.8547-.1396-.1896-.078-.1829-1.7505-.1878-.8322-.0025-1.6432.0034-1.8021.0131Zm4.5497 2.4568c-.1127.5255-.2948 1.5359-.2795 1.5512.0231.0231 1.0099-.2491 1.0104-.2786.0005-.0322-.6719-1.4069-.6881-1.4069-.0077 0-.027.0604-.0428.1343Zm-11.99381.2122c-.02888.0661-.16885.3673-.31111.6693-.14223.302-.24863.5588-.23641.5706.01222.0118.20674.0715.4323.1327.58937.1599.56564.1554.56564.1056 0-.0237-.07636-.3866-.16969-.8065-.09333-.4199-.1697-.7698-.1697-.7776 0-.0079-.01317-.0143-.0293-.0143-.01609 0-.05288.0541-.08173.1202Zm12.40151 1.7917c-.7457.1652-1.3362.7129-1.5126 1.4028-.0819.3202-.0956.5444-.0491.8004.0597.3289.1472.5371.2871.6831l.1209.1263 1.2312-.0088 1.2311-.0087.122-.0857c.067-.0472.1598-.1471.2061-.222.0722-.1167.0841-.1634.0827-.3244-.0022-.2465-.0422-.3468-.5475-1.3759-.2796-.5694-.4462-.8761-.5062-.9325-.0785-.0737-.1128-.0848-.2795-.091-.1045-.0039-.2783.0125-.3862.0364Zm-13.22379.1442c-.08866.0456-.13756.1279-.46898.7888-.50905 1.0151-.581 1.1919-.58689 1.442-.00418.1779.00484.2156.08115.3394.05789.0939.13578.1692.23915.2312l.15329.0919 1.03356-.0017c.56845-.0009 1.09634-.012 1.17307-.0245.30772-.0506.48245-.4067.47971-.9778-.00122-.2579-.01429-.3498-.07631-.5374-.22504-.6805-.74008-1.1458-1.46674-1.3251-.31238-.077-.45056-.0836-.56101-.0268Zm2.70356 1.868c-.01539.0492-.10929.6058-.14555.8626l-.01894.1344H9.1986l-.59317-.4413c-.83823-.6236-.82638-.6158-.84516-.5557Zm7.71853.3914c-.3267.2423-.6351.4682-.6855.5019-.0504.0338-.0916.0677-.0918.0755-.0001.0078.3657.0141.8128.0141.525 0 .812-.01.8101-.0282-.0086-.0865-.2257-1.0038-.2375-1.0038-.0078-.0001-.2814.1982-.6081.4405Z" fill="#000"/></svg>