<svg width="24" height="24" viewBox="0 0 24 24" fill="none" xmlns="http://www.w3.org/2000/svg"><path fill-rule="evenodd" clip-rule="evenodd" d="M13.0643 3.18152c1.6029.37037 2.8143 1.0276 3.9868 2.16311.7552.73137 1.2535 1.41014 1.6851 2.29542.4817.98813.7118 1.79885.83 2.92425l.0389.372-1.4749-.0159-1.475-.0159-.0421-.2077c-.1488-.73416-.2572-1.13563-.3916-1.45104-.9032-2.11955-2.9762-3.41193-5.2599-3.27927-2.2766.13218-4.25975 1.76235-4.85204 3.98838-.16709.62793-.18317 1.93503-.03134 2.54213.53686 2.1459 2.34094 3.8039 4.42188 4.0638l.3384.0422v2.9673l-.3264-.0192c-.79617-.0468-1.95043-.3674-2.8236-.7841-1.579-.7536-3.05633-2.2131-3.86444-3.8177-.26063-.5176-.57408-1.4667-.7116-2.1546-.16198-.8102-.14673-2.3525.03122-3.15922.35915-1.62785 1.04297-2.91418 2.17795-4.09664 1.31191-1.36681 3.03425-2.23986 4.92337-2.4955.7038-.09526 2.1064-.02653 2.8193.13818Zm5.1194 9.29128 1.3503.0046v2.9084h-2.9677v-1.4443c0-.7944.0152-1.4595.0337-1.478.0186-.0186.0786-.0251.1335-.0145.0549.0107.7075.0214 1.4502.0238Zm-2.8639 5.6433v1.4838h-2.9677v-2.9677h2.9677v1.4839Zm4.2142 0v1.4838h-2.9677v-1.4442c0-.7944.0178-1.4622.0396-1.4839.0217-.0218.6894-.0396 1.4838-.0396h1.4443v1.4839Z" fill="#000"/></svg>