<svg width="24" height="24" viewBox="0 0 24 24" fill="none" xmlns="http://www.w3.org/2000/svg"><path d="M16.6796 11.5653c0 .7786-.6336 1.4114-1.4128 1.4114-.7794 0-1.4093-.6328-1.4093-1.4114 0-.7785.6334-1.4112 1.4091-1.4112.1855-.0003.3692.036.5407.1068.1714.0708.3272.1747.4585.3058.1312.1311.2353.2867.3063.4581.0711.1713.1076.355.1075.5405Z" fill="#000"/><path d="M21.3416 5.56801c-.1955.31283-2.8327 4.45819-3.089 4.85269-.0569.0923-.1175.1813-.1709.2701-.0356.0569-.0747.1137-.1103.1708-.274-1.063-1.1637-1.88065-2.2669-2.05486.0498-.07821 1.598-2.52412 1.9893-3.14625.0427-.07116.0855-.12436.1815-.12436 1.1389.00353 2.274.00353 3.4129.00353.0106.00704.0213.01761.0534.02835Z" fill="#3467FE"/><path d="M22 17.5804c-.5694.6755-1.2101 1.1519-2.0249 1.3439-1.121.263-2.185.1422-3.1424-.5476-.694-.5013-1.1176-1.2052-1.4271-1.9872-.0105-.0249-.0215-.0497-.032-.0818-.0036-.007-.0036-.014-.0071-.0213-.1234-.3308-.2409-.6639-.3523-.999-.1104-.3342-.2171-.6896-.2883-.9917.1779.0354.3593.0532.548.0532.8292 0 1.5729-.3625 2.082-.935l.007-.007c.1885.4657.3844 1.1944.5695 1.7596v.0035c.0498.1565.0995.2988.1494.4196.2064.5119.4236 1.0167.8363 1.3972l.0854.0747c.5374.4442 1.1816.5615 1.8543.583.3628.0176.7258-.0321 1.1422-.0641Z" fill="#0217FF"/><path d="M12.9072 13.0514c-.662.9243-1.3773 1.8023-2.2206 2.5809-.71183.6577-1.46977 1.2443-2.38096 1.5997-.34876.1351-.70809.2098-1.08538.2061-1.06038.0037-1.82219-.6611-2.04995-1.7702-.19921-.9847-.09952-1.9587.17791-2.9081.51257-1.7597 1.41301-3.3168 2.60866-4.69952.54094-.62583 1.16378-1.16253 1.97526-1.42217.57286-.18142 1.14946-.23462 1.71176.05337.4307.22036.7331.57951.9716.98816.3417.58303.555 1.21239.7366 1.85583.5169-.48995 1.2025-.76234 1.9147-.76075.1494 0 .2917.01056.4342.03205.0105-.01426.0711-.11026.1673-.26315-.1282-.29152-.235-.5582-.356-.81765-.3808-.80691-.8969-1.50373-1.6443-2.00855-.8824-.5936-1.8683-.7856-2.9252-.69682-1.34885.11379-2.6051.50482-3.75108 1.21238C5.36618 7.35977 3.93186 8.86719 2.92837 10.762c-.64415 1.2122-1.01457 2.5028-.91118 3.8927.13176 1.7917 1.03572 3.0751 2.64442 3.8572 1.25273.6113 2.58366.6647 3.93256.4977 1.12097-.1386 2.17803-.5048 3.15293-1.07 1.1818-.6826 2.2065-1.5749 3.1639-2.5455.032-.0355.0533-.0852.0997-.1067-.1103-.3341-.217-.6896-.2884-.9917-.3712-.073-.7237-.2211-1.0357-.435-.3121-.2139-.5772-.4893-.7792-.8093" fill="#0219FA"/></svg>