<svg width="24" height="24" viewBox="0 0 24 24" fill="none" xmlns="http://www.w3.org/2000/svg"><path fill-rule="evenodd" clip-rule="evenodd" d="M9.21028 4.52086 4.13872 13.8013c-.31698.6179-.07223 1.3763.54567 1.6932.0963.0482.20062.0883.30494.1084 1.76542.4173 5.13577-.6179 7.88417.4173 2.7485 1.0351 4.0204 3.1536 5.6855 4.2771.3731.2688.8185.4132 1.2759.4173h.008c.0963 0 .1846-.0041.2729-.0161.4253-.0521.8265-.2287 1.1515-.5055.1846-.1605.341-.3531.4654-.5658.4093-.67.4253-1.5046.0401-2.1867L14.7112 4.52888c-.8306-1.51665-2.7364-2.07437-4.2531-1.24382-.52961.28086-.96294.71018-1.24782 1.2358Z" fill="url(#paint0_linear_8_84)"/><path fill-rule="evenodd" clip-rule="evenodd" d="M5.76361 17.4084c-.58178-.9549-1.8256-1.2599-2.78455-.6781-.95493.5818-1.25986 1.8256-.67808 2.7846.57778.9509 1.81758 1.2558 2.77251.6821.95895-.5738 1.27191-1.8216.69413-2.7806 0 0-.00401-.004-.00401-.008Z" fill="url(#paint1_linear_8_84)"/><path fill-rule="evenodd" clip-rule="evenodd" d="M6.05666 18.4838c-.01605 1.1195-.93487 2.0142-2.0543 1.9982-1.12345-.0161-2.0182-.9349-2.00215-2.0543.00803-.5257.21667-1.0232.5858-1.3963-.52561.9389-.21265 1.7012.16451 1.9861.58178.4453 2.0222.353 3.30614-.5337Z" fill="url(#paint2_linear_8_84)"/><path fill-rule="evenodd" clip-rule="evenodd" d="M5.57917 13.9298c-.43333.1163-.8827-.1445-.99906-.5778-.02006-.0682-.02809-.1404-.02809-.2087 0-.1043.02006-.2046.05617-.3009l-.52561.959c-.31697.6179-.07222 1.3762.54969 1.6932.09629.0481.1966.0842.30493.1083 1.76542.4173 5.1358-.6179 7.8842.4173 3.8318 1.4404 4.8389 4.9391 7.2503 4.6823 1.2117-.1564 2.0663-1.2638 1.9098-2.4715-.0361-.2769-.1244-.5457-.2568-.7905l-3.2259-5.878c-1.3722-2.51171-4.9752-1.97005-7.186-.991-2.21081.979-4.69444 3.0453-5.73363 3.3583Z" fill="url(#paint3_linear_8_84)"/><path fill-rule="evenodd" clip-rule="evenodd" d="m4.37935 13.2598-.29691.5416c-.31697.6179-.07222 1.3763.54568 1.6932.09629.0482.20061.0883.30493.1084 1.76542.4173 5.13575-.6179 7.88425.4173 2.5518.9589 3.8317 2.8567 5.3323 4.0243.2167.2006.5016.309.7985.309.6379 0 1.1555-.5176 1.1555-1.1556 0-.4253-.3089-.8747-.5136-1.2438-4.3092-7.7839-8.8832-4.9913-14.07516-3.262-.08426.0281-.17654.0401-.26481.0361-.54969-.004-.99105-.4494-.99105-.9951.00402-.1645.04414-.329.12037-.4734Z" fill="url(#paint4_linear_8_84)"/><defs><linearGradient id="paint0_linear_8_84" x1="7.707" y1="8.80598" x2="16.6858" y2="12.5677" gradientUnits="userSpaceOnUse"><stop stop-color="#5F6DED"/><stop offset="1" stop-color="#49B9D9"/></linearGradient><linearGradient id="paint1_linear_8_84" x1="2.83495" y1="18.6911" x2="5.67611" y2="18.145" gradientUnits="userSpaceOnUse"><stop stop-color="#5F6EED"/><stop offset="1" stop-color="#45C8D4"/></linearGradient><linearGradient id="paint2_linear_8_84" x1="2.79849" y1="18.9066" x2="5.38291" y2="18.2895" gradientUnits="userSpaceOnUse"><stop stop-color="#578BE5"/><stop offset="1" stop-color="#43CED3"/></linearGradient><linearGradient id="paint3_linear_8_84" x1="6.14044" y1="12.0355" x2="21.1874" y2="16.2214" gradientUnits="userSpaceOnUse"><stop stop-color="#5788E6"/><stop offset="1" stop-color="#3FDDCF"/></linearGradient><linearGradient id="paint4_linear_8_84" x1="18.3536" y1="17.1833" x2="5.73357" y2="13.4826" gradientUnits="userSpaceOnUse"><stop stop-color="#4452CF"/><stop offset="1" stop-color="#0BD3B9"/></linearGradient></defs></svg>