<svg width="24" height="24" viewBox="0 0 24 24" fill="none" xmlns="http://www.w3.org/2000/svg"><path d="M4.25231 20c-.01112-.2223-.01482-.4445-.00371-.6668.07409-.0222.14818-.0371.22598-.0482.22227-.037.44455-.0926.65941-.1556.05928-.0185.11855-.0407.17782-.0629.28525-.1112.53716-.2964.7298-.5335.13336-.1667.24821-.3482.34823-.5372.14077-.2593.26302-.5297.37416-.8039.22227-.5556.44455-1.1076.66312-1.6633.75573-1.9116 1.51146-3.8231 2.26719-5.73467.71499-1.81894 1.41889-3.63788 2.10789-5.46793.0148-.03704.0296-.07409.0445-.11114.2556-.07038.5038-.14447.7631-.21486.0148.03705.0296.07039.0407.10373.2927.815.5854 1.63.8743 2.44871.9966 2.78213 1.9931 5.56056 3.0155 8.33156.2816.7557.5631 1.5152.8484 2.2709.1111.3075.2445.6113.3964.9002.0667.126.137.2445.2148.3631.2371.3704.6039.6334 1.0299.7446.2297.0592.4594.1074.6965.137l.1667.026c.0222.0741.0111.1444.0111.2148v.226c.0037.0741 0 .1445-.0037.2186-.0223.0037-.0408.0074-.063.0111h-5.8606c-.0074-.0111-.0111-.0259-.0148-.0408v-.6001c0-.0074.0037-.0185.0074-.0259.0481-.0148.0963-.0223.1482-.0297.2408-.0333.4778-.0778.7149-.1407.0926-.026.189-.0593.2779-.0964.0444-.0185.0889-.0407.1333-.0666.2334-.1297.326-.3334.3038-.5928-.0111-.1185-.0296-.2334-.063-.3482-.0481-.1778-.1111-.3519-.1704-.5223-1.2151-3.3897-2.4153-6.7831-3.6045-10.18388-.0111-.03704-.0185-.07779-.0556-.11113-.0111.00741-.0296.01481-.037.02222-.0111.01853-.0185.03705-.0223.05557-.5816 1.67076-1.2002 3.33042-1.81519 4.98632-.45566 1.2262-.91132 2.4561-1.33364 3.6935-.17041.4964-.33341.9965-.49271 1.4966-.06297.1927-.10743.389-.13706.5853-.02223.1334-.02594.2668-.01112.4038.01852.1741.11114.3334.25562.4372.09261.0667.19634.1185.30747.1556.17412.0629.35194.1074.53346.137.20005.0371.40009.0667.60385.0963.01481.0038.02593.0038.04445.0075.0037.0148.00741.0296.01111.0444v.5816c0 .0111-.0037.0223-.00741.0334-.01852.0037-.03704.0074-.05556.0074h-.0778L4.25231 20Z" fill="#000"/></svg>