<svg width="24" height="24" viewBox="0 0 24 24" fill="none" xmlns="http://www.w3.org/2000/svg"><rect x="2" y="2" width="20" height="20" rx="10" fill="#1E1E1E"/><path opacity=".4" d="M17.6891 14.0884c.3466.5946.3481 1.3292.004 1.9252-.3441.596-.9811.962-1.6692.9592-.6882-.0028-1.3221-.374-1.6614-.9728l-4.026-6.97277c-.52789-.91862-.2112-2.09128.7074-2.6192.9187-.52793 2.0913-.21122 2.6192.7074l4.026 6.97297Z" fill="#4BDB4B"/><path opacity=".8" d="M9.63818 16c-.53139.9113-1.6988 1.2228-2.61349.6972-.9147-.5255-1.23359-1.6909-.71391-2.609l4.02562-6.97258c.3377-.60181.9726-.97587 1.6627-.97961.6901-.00373 1.3291.36344 1.6733.96157.3442.59812.3407 1.33503-.0092 1.92984L9.63818 16Z" fill="#4BDB4B"/><path d="M13.6519 7.0962c-.0222-.0378-.0462-.074-.0706-.1098-.0118-.0172-.023-.0348-.0354-.0516-.0238-.0326-.0494-.0634-.075-.094-.0156-.0188-.0306-.038-.047-.0562-.0232-.0256-.0476-.0494-.0718-.0736s-.0424-.0428-.0648-.0632c-.0224-.0204-.0436-.0368-.0656-.055-.0276-.0228-.055-.0458-.0842-.0672-.02-.0148-.041-.0282-.0616-.042-.0324-.022-.065-.0438-.1-.064-.0072-.0042-.0136-.0092-.02-.0134-.0152-.0088-.0312-.0154-.0468-.0238-.0324-.0174-.065-.0344-.098-.0498-.0278-.0132-.0562-.025-.0848-.0366s-.0558-.0226-.084-.0326c-.0332-.01174-.0666-.02254-.1-.0324-.0248-.0074-.0494-.0144-.0744-.02-.0358-.009-.072-.0168-.1082-.0238-.0246-.0046-.0494-.009-.074-.0128-.0354-.0052-.0708-.0094-.1066-.0128-.0275-.00267-.0549-.00467-.0822-.006-.0322-.0016-.0644-.0024-.0966-.0024-.0318 0-.0634 0-.0952.0024-.0278.0014-.0558.0034-.0838.006-.035.0034-.0702.0074-.105.0128-.0252.0038-.0504.0082-.0754.013-.036.0068-.0717.0146-.107.0234-.0254.0064-.0506.0136-.0758.021-.0334.00986-.0667.02053-.1.032-.0288.0102-.0574.0216-.0858.0332s-.0556.023-.0828.0358c-.0338.0158-.0672.0332-.1.051-.015.0082-.0304.0146-.0452.0232-.007.004-.0132.0088-.02.0128-.0352.02-.069.0432-.1022.0658-.02.0132-.04.026-.0586.04-.0306.0226-.06.0466-.0888.0708-.02.0168-.04.033-.06.0508-.0246.0222-.0476.0458-.0708.069-.0232.0232-.0456.0438-.0656.0666-.02.0228-.0362.0428-.0542.0644-.0228.0278-.046.0556-.0674.0848-.0152.02-.0288.0418-.043.0628-.0216.0318-.043.064-.0628.0976-.35296.59477-.35815 1.33352-.0136 1.9332l1.6634 2.8812 1.6632-2.8812c.3437-.59836.3392-1.33537-.012-1.9294Z" fill="#4BDB4B"/></svg>