<svg width="24" height="24" viewBox="0 0 24 24" fill="none" xmlns="http://www.w3.org/2000/svg"><path d="M12.0601 3.34982c1.7809 0 3.4982.66785 4.7385 1.90813 1.2721 1.24028 1.9717 2.86219 1.9717 4.61131V20.6502H5.34982V9.86926c0-1.74912.69965-3.37103 1.97174-4.61131 1.24028-1.24028 2.92584-1.90813 4.73854-1.90813Zm0-.34982c-1.8764 0-3.65727.69965-4.99296 2.00353C5.73145 6.30742 5 8.02473 5 9.86926V21h14.1201V9.86926c0-1.84453-.7314-3.56184-2.0671-4.83392C15.7173 3.69965 13.9364 3 12.0601 3Z" fill="#070001"/><path d="m16.2147 5.89871-.318-.31802c-1.0495-.92226-2.3852-1.39929-3.8163-1.39929-1.5583 0-3.05299.60424-4.13426 1.71731C6.83306 7.01179 6.22882 8.47468 6.22882 10.033v9.7314H17.932v-9.6996c0-1.59012-.636-3.05301-1.7173-4.16609ZM14.402 19.1602c-.5407.1908-1.1449.2862-1.7492.2862H8.42317v-1.9399c-.09541-.0954-.19082-.2226-.25442-.318-.73145-.9541-1.11307-2.1308-1.11307-3.3393V10.192c0-1.4311.54063-2.76679 1.4947-3.81626.1272 0 .28622 0 .44523.0318.98586.09541 2.32159.44523 3.46639 1.24029 1.0177.69964 2.258 1.97173 2.258 4.03887v7.3781c-.0954.0318-.1908.0636-.318.0954Z" fill="#070001"/><path d="M12.4939 7.64782c-1.1449-.76325-2.4806-1.14488-3.46648-1.24029-.15901 0-.31802-.0318-.44523-.0318-.95406 1.04947-1.4947 2.38516-1.4947 3.81627v3.6572c0 1.2085.38163 2.3852 1.11308 3.3393.0954.0954.15901.2226.25442.318v1.9399h4.22971c.6042 0 1.1766-.0954 1.7491-.2862.1272-.0318.2226-.0636.3498-.1272v-7.3781c-.0318-2.06715-1.2721-3.30744-2.2897-4.00708ZM8.77301 19.0966v-1.2403c.57243.5406 1.24029.9859 1.97169 1.2403H8.77301Zm5.62899-.2862c-.5407.1908-1.1449.2862-1.7491.2862-1.3993 0-2.70322-.5407-3.72088-1.5583l-.19082-.1908c-.1272-.1272-.25441-.2863-.34982-.4453-.66784-.8904-1.01767-1.9717-1.01767-3.0848V10.192c0-1.2721.47703-2.51238 1.30389-3.46644 2.2261.0954 5.6926 1.6219 5.6926 4.92934v7.1555h.0318Z" fill="#070001"/><path d="M10.7235 14.843c-.0955 0-.1909-.0954-.1909-.1908v-3.2438c0-.8587.6997-1.5583 1.5583-1.5583.8587 0 1.5583.6996 1.5583 1.5583 0 .0954-.0954.1908-.1908.1908s-.1908-.0954-.1908-.1908c0-.636-.5406-1.1767-1.1767-1.1767-.636 0-1.1766.5407-1.1766 1.1767v3.2438c0 .0954-.0954.1908-.1908.1908Z" fill="#070001"/><path d="M12.6634 12.3306c-.0954 0-.1908-.0954-.1908-.1908 0-.2226-.1591-.3816-.3817-.3816s-.3816.159-.3816.3816c0 .0954-.0954.1908-.1908.1908s-.1908-.0954-.1908-.1908c0-.4453.3498-.7951.795-.7951.4453 0 .7951.3498.7951.7951-.0636.0954-.159.1908-.2544.1908ZM10.7234 14.8431c-.5724 0-1.04943-.4771-1.04943-1.0495 0-.0954.0954-.1908.19081-.1908.0954 0 .19082.0954.19082.1908 0 .3498.2862.636.636.636.3499 0 .6361-.2862.6361-.636 0-.0954.0954-.1908.1908-.1908s.1908.0954.1908.1908c.0318.5724-.4134 1.0495-.9859 1.0495ZM9.61038 12.6487c-.0636 0-.0954-.0318-.1272-.0636l-.85866-.8586v.7314c0 .0954-.09541.1908-.19082.1908-.0954 0-.22261-.0954-.22261-.2226v-1.1767c0-.0954.0636-.159.12721-.1908.0954-.0318.15901-.0318.22261.0318l.85866.8587v-.5089c0-.0954.09541-.1908.19081-.1908.09541 0 .19082.0954.19082.1908v.9859c0 .0954-.06361.159-.12721.1908 0 .0318-.0318.0318-.06361.0318ZM10.6917 11.631c-.0954 0-.1908-.0954-.1908-.1908 0-.0318 0-.8269-.54068-.8269-.0954 0-.19081-.0954-.19081-.1908s.09541-.1908.19081-.1908c.73148 0 .92228.795.92228 1.2085 0 .0954-.0954.1908-.1908.1908Z" fill="#070001"/></svg>