<svg width="24" height="24" viewBox="0 0 24 24" fill="none" xmlns="http://www.w3.org/2000/svg"><rect x="2" y="2" width="20" height="20" rx="10" fill="url(#paint0_linear_8_63)"/><path d="m10.6994 13.0708 1.3302-4.04803 1.3548 4.04803h-2.685Zm5.639 2.5598-1.1003-3.0217h.6569c.1257-.001.246-.0516.3348-.1408.0887-.0891.1388-.2096.1393-.3354 0-.0593-.0116-.118-.0343-.1728-.0227-.0548-.056-.1046-.0979-.1465-.042-.042-.0917-.0752-.1465-.0979-.0548-.0227-.1136-.0344-.1729-.0344h-1.0263l-.1643-.4701h1.1681c.1231 0 .2413-.048.3295-.1339.0882-.0859.1394-.2028.1426-.3259.0003-.0624-.0118-.1241-.0355-.1818-.0238-.0577-.0587-.11-.1028-.1541-.0441-.0441-.0965-.079-.1541-.1028-.0577-.0237-.1194-.0358-.1818-.0355h-1.517l-.8211-2.25803c-.1227-.32262-.3254-.60871-.5891-.83137-.2606-.21428-.5908-.32532-.9279-.31202-.3379-.01074-.6686.09996-.9319.31202-.2639.22296-.4672.50891-.5912.83137l-.86012 2.27853H8.14581c-.12051 0-.23611.0478-.32152.1328-.0854.085-.13365.2004-.13419.3209 0 .1252.04974.2453.13828.3338.08854.0886.20863.1383.33385.1383h1.14544l-.17654.4578H8.10475c-.12086 0-.23677.048-.32223.1335-.08547.0854-.13348.2013-.13348.3222 0 .1238.04903.2425.13636.3302.08733.0877.20584.1373.32962.1378h.65893L7.6552 15.6306c-.06876.1706-.10698.3519-.1129.5358.01166.2578.12363.5009.31202.6774.2073.1795.47296.2773.7472.275.23035.0127.45805-.0543.64491-.1896.18687-.1353.32155-.3307.38147-.5535l.4331-1.2911h3.9844l.4332 1.3219c.0678.2153.2056.4018.3916.5298.186.1279.4094.19.6347.1764.1725.0034.3428-.0398.4927-.1252.13-.0966.2455-.2113.3428-.3408.0848-.1457.1281-.3118.1252-.4803-.0272-.1792-.0697-.3557-.1272-.5276v-.0082Z" fill="#FEFEFE"/><defs><linearGradient id="paint0_linear_8_63" x1="6.16547" y1="5.68097" x2="19.7335" y2="20.3761" gradientUnits="userSpaceOnUse"><stop stop-color="#FC8F55"/><stop offset=".44" stop-color="#FE7A6A"/><stop offset="1" stop-color="#FE687C"/></linearGradient></defs></svg>