<svg width="24" height="24" viewBox="0 0 24 24" fill="none" xmlns="http://www.w3.org/2000/svg"><path d="M12.2453 21.4906c5.106 0 9.2453-4.1393 9.2453-9.2453C21.4906 7.13925 17.3513 3 12.2453 3 7.13925 3 3 7.13925 3 12.2453c0 5.106 4.13925 9.2453 9.2453 9.2453Z" stroke="#222326" stroke-width="2"/><path d="M13.717 15.4843c-.0629-.0629-.0629-.1887-.1258-.3145 0-.1258-.0629-.2516-.0629-.3773-.1258.1257-.2516.1886-.3774.3144-.1257.1258-.3144.1887-.4402.2516-.1887.0629-.3145.1258-.566.1887-.1887.0629-.4403.0629-.629.0629-.3773 0-.6918-.0629-1.0063-.1887-.3144-.1258-.566-.2516-.81758-.4403-.25157-.1886-.37735-.4402-.50314-.6918S9 13.7233 9 13.4088c0-.7547.31447-1.3836.8805-1.761.566-.4403 1.4465-.6289 2.5786-.6289h1.0692v-.4403c0-.3773-.1258-.62891-.3145-.81759-.2515-.18868-.566-.31447-1.0063-.31447-.3773 0-.6289.06289-.8176.25157-.1886.18868-.2515.37739-.2515.62889H9.25157c0-.3144.0629-.62889.18868-.88046.12579-.25157.31447-.50314.62895-.75472.2516-.18868.566-.37735.9434-.50314C11.3899 8.06289 11.8302 8 12.3333 8c.4403 0 .8176.06289 1.195.18868.3774.12579.6918.25157 1.0063.50314.2516.18868.5031.50315.6289.81761.1258.31447.2516.69187.2516 1.13207v3.1447c0 .3773 0 .6918.0629.9434.0629.2515.1258.5031.1887.6289v.1258H13.717Zm-1.8239-1.3208c.1887 0 .3773 0 .5031-.0629.1887-.0629.3145-.1258.4403-.1886.1258-.0629.2515-.1258.3144-.2516l.2516-.2516v-1.2579h-.9434c-.3144 0-.566 0-.7547.0629-.1887.0629-.3774.1258-.5031.2516-.1258.1258-.2516.1887-.3145.3774-.0629.1258-.0629.3144-.0629.4402 0 .2516.0629.4403.2516.629.1887.1886.5031.2515.8176.2515Z" fill="#222326"/></svg>