<svg width="24" height="24" viewBox="0 0 24 24" fill="none" xmlns="http://www.w3.org/2000/svg"><path d="m20.9288 15.78-1.9064-3.2444c-.0669-.1338-.2342-.1672-.3345-.0669l-1.2375.8028c-.1004.0669-.1338.2341-.0669.3344l1.1037 1.8396c.0335.0669 0 .1338-.0334.1673l-6.4218 4.1474c-.0335.0334-.1004.0334-.1338 0l-6.35494-4.1474c-.0669-.0335-.0669-.1004-.03345-.1673l1.10375-1.8396c.06689-.1003.03344-.2675-.0669-.3344l-1.23753-.8028c-.13379-.0669-.26758-.0334-.33447.0669L3.06819 15.78c-.13379.2341-.0669.5351.16723.6689l8.52898 5.5522c.1672.1003.3679.1003.5351 0l8.529-5.5522c.1672-.1672.2341-.4682.1003-.6689Z" fill="#000"/><path d="m6.2462 10.7296 1.23753.8028c.13379.0669.26758.0334.33447-.0669l4.0136-6.8232c.0335-.06689.1673-.06689.2007 0l4.0136 6.8232c.0669.1338.2342.1672.3345.0669l1.2375-.8028c.1004-.0669.1338-.2341.0669-.3344l-4.716-8.16107C12.8687 2.06689 12.7349 2 12.5342 2H11.397c-.1672 0-.3345.10034-.4348.23413L6.1793 10.3952c-.06689.1003-.03344.2675.0669.3344Z" fill="#2AE7A8"/></svg>