<svg width="24" height="24" viewBox="0 0 24 24" fill="none" xmlns="http://www.w3.org/2000/svg"><circle cx="12.0263" cy="11.8454" r="8.48532" fill="#fff"/><path fill-rule="evenodd" clip-rule="evenodd" d="M12.0001 22c5.5228 0 10-4.4772 10-10 0-5.52284-4.4772-10-10-10C6.47724 2 2.00009 6.47716 2.00009 12c0 5.5228 4.47715 10 10.00001 10Zm-3.02156-5.4696H6.63263c-.5562 0-.83431 0-1.00086-.1077-.18-.1164-.29357-.3117-.3056-.5256-.01116-.1979.12658-.4392.40207-.9218l.00013-.0002 5.13623-8.99813c.2795-.48977.4193-.73465.5972-.82581.1921-.09848.42-.09865.6122-.00043.178.09088.3181.33558.5984.82491L13.857 8.0439v.00006c.2038.35579.3057.53372.3505.72142.0488.20436.0489.41725.0003.62161-.0446.18776-.1464.36581-.3499.72181l-3.0714 5.3731c-.2065.3612-.3097.5418-.4512.6768-.154.147-.34066.2553-.54474.316-.18751.0557-.39567.0557-.81202.0557Zm8.36946 0h-2.7198c-.5612 0-.8419 0-1.009-.1086-.1805-.1174-.2937-.3142-.3044-.5291-.0099-.1989.1314-.4412.4138-.9258l1.3577-2.3293c.2789-.4784.4184-.7177.5949-.8073.1908-.0968.4165-.097.6074-.0004.1768.0893.3165.3283.5961.8063v.0002l1.3622 2.3292c.2835.4849.4253.7274.4156.9264-.0105.2151-.1236.4121-.3042.5297-.1671.1087-.4482.1087-1.0103.1087Z" fill="#000"/></svg>