<svg width="24" height="24" viewBox="0 0 24 24" fill="none" xmlns="http://www.w3.org/2000/svg"><path fill-rule="evenodd" clip-rule="evenodd" d="M9.32751 4.047c-.13088.06544-.13088.26176-.06544.39264s.26177.13088.39265.13088l.85078-.58897c.1308-.13088.1308-.26176.0654-.45808-.0654-.13089-.2618-.13089-.3927-.06545l-.85069.58898Zm7.78749 7.9185c0-.1309-.1964-.2618-.3272-.1963-.1964 0-.2618.1963-.1964.3272l.2618.9816c0 .1309.1963.2617.3272.1963.1309 0 .2618-.1963.1963-.3272l-.2617-.9816Z" fill="#fff"/><path fill-rule="evenodd" clip-rule="evenodd" d="M13.6467 7.90797c-.9816-.19632-2.0286-.06544-2.9448.52353 1.3088-.45809 2.8139-.13088 3.861.91618 1.4397 1.50512 1.4397 3.92642 0 5.36622-.1963.1963-.3926.3272-.589.458.5236-.1963 1.0471-.458 1.4397-.9161 1.0471-1.0471 1.3089-2.5522.9162-3.8611-1.1125-.3926-2.0941-1.30879-2.6831-2.48673Z" fill="#FFAE54"/><path d="M19.8636 16.4154C17.5077 20.8 12.0107 22.436 7.69155 20.0147 3.30699 17.6588 1.7364 12.0963 4.09228 7.71177 5.66287 4.83235 8.54228 3.13088 11.618 3c.3927 0 .7199.19632.9162.58897.1963.39265.3272.91618.2618 1.43971v.58897c0 .91617.2617 1.83235.6544 2.61765-1.8978-.71986-4.05738.06544-5.039 1.8978-1.1125 2.0287-.32721 4.5154 1.636 5.6279 1.9633 1.1125 4.5155.3272 5.5625-1.636.589-1.1125.6544-2.4213.1964-3.5338.7852.3926 1.636.589 2.5522.589.5235 0 .9816-.0655 1.5051-.1964.2618-.0654.589-.0654.7853.0655.1963.1309.3272.2617.3272.4581.0654 1.636-.3272 3.3375-1.1125 4.908Z" fill="url(#paint0_radial_139_412)" stroke="#AC562A" stroke-width="1.42789"/><path fill-rule="evenodd" clip-rule="evenodd" d="M9.06583 7.84265c.52353.26176 1.24337.39265 2.15957.13088.7198-.13088 1.5051-.06544 2.225.26177-.3927-.7853-.6544-1.70148-.6544-2.61765 0-.32721 0-.65441.0654-.91618.0655-.39265 0-.85073-.1963-1.17794S12.207 3 11.8798 3c-1.1125 0-2.29044.26176-3.40294.71985-.39264.19633-.65441.58897-.78529 1.1125s-.06544 1.1125.19632 1.70147c.19633.52353.65442.98162 1.17794 1.30883Zm8.44197 6.80585.3272-.1309c.2343.5857-.0031 1.1189-.1963 1.5528-.0227.0509-.0448.1005-.0654.1487v.0654c-.0273.0547-.0546.1064-.0808.156-.099.1878-.181.3431-.181.4985-.0654.3272-.0654.6544 0 .8507.0655.1963.2618.3926.5235.4581.1964.0654.5236 0 .9162-.2618 1.5706-1.8323 2.2905-4.1882 2.1596-6.4132 0-.1963-.1309-.3927-.3272-.5235-.1963-.1309-.5236-.1309-.7853-.0655-.4581.1309-.9816.1963-1.4397.1963-.9162 0-1.7669-.1963-2.5522-.6544.4581 1.1125.3926 2.3559-.1309 3.4684-.0459.1377-.124.2433-.2118.3618-.0373.0504-.0764.1031-.1154.1617.2617-.0654.5235-.1963.9162-.4581.458-.3272 1.047 0 1.2433.589Zm0 0c.1731.4615-.0099.8722-.1902 1.2768-.0242.0544-.0483.1086-.0716.1629-.123.246-.246.4921-.3147.7381l.5765-2.1778Zm-.589 2.225.0125-.0472c-.0044.0157-.0086.0314-.0125.0472Z" fill="#AC562A"/><path d="m11.2254 7.97353-.1277-.70243-.0346.00629-.0338.00967.1961.68647Zm-2.15957-.13088-.37838.60542.02876.01798.03034.01517.31928-.63857Zm4.38457.39265-.2954.64995 1.8358.83448-.9018-1.80372-.6386.31929Zm-.589-3.53383.6926.17316.007-.02766.0047-.02813-.7043-.11737Zm-.1963-1.17794.6122-.36732-.6122.36732Zm-4.18824.19632-.27183-.66017-.02412.00994-.02333.01166.31928.63857Zm-.58897 2.81397.66849-.25068-.00745-.01988-.00863-.0194-.65241.28996ZM17.835 14.5176l.6629-.2651-.2651-.6629-.6629.2652.2651.6628Zm-.3272.1309-.6773.2258.2395.7183.703-.2812-.2652-.6629Zm.1309 1.4219.6522.2904-.6522-.2904Zm-.0654.1487-.6562-.2812-.0578.1347v.1465h.714Zm0 .0654.6385.3193.0754-.1507v-.1686h-.7139Zm-.0808.156.6287.3384.0028-.0053-.6315-.3331Zm0 0-.6286-.3385-.0028.0054.6314.3331Zm-.181.4985.7001.14.0139-.0693v-.0707h-.714Zm.5235 1.3088.2258-.6773-.026-.0087-.0266-.0066-.1732.6926Zm.9162-.2618.396.5941.082-.0547.0641-.0748-.5421-.4646Zm2.1596-6.4132h-.714v.021l.0013.0209.7127-.0419Zm-.3272-.5235.396-.5941-.396.5941Zm-.7853-.0655-.1732-.6926-.0115.0029-.0115.0032.1962.6865Zm-3.9919-.4581.3597-.61667-1.8238-1.06391.8039 1.95248.6602-.2719Zm-.1309 3.4684-.646-.304-.018.0382-.0133.04.6773.2258Zm-.2118.3618-.5738-.4248.5738.4248Zm-.1154.1617-.5941-.396-1.0243 1.5366 1.7915-.4479-.1731-.6927Zm.9162-.4581.396.5941.0096-.0064.0093-.0067-.4149-.581Zm1.0531 1.8658.6522.2906-.6522-.2906Zm.1902-1.2768.6685-.2507-.7859-2.0958-.5728 2.1638.6902.1827Zm-.2618 1.4397-.6562-.2813-.0034.008-.0033.0081.6629.2652Zm0 0 .6386.3193.0133-.0266.011-.0276-.6629-.2651Zm-.3272.7853-.6926-.1732 1.3828.3559-.6902-.1827Zm-5.8895-9.58644c-.7465.21326-1.28225.09798-1.64418-.08298l-.63857 1.27714c.68513.34256 1.58905.48905 2.67495.17878l-.3922-1.37294Zm2.7165.29828c-.8656-.39348-1.8004-.46838-2.6481-.31424l.2554 1.40486c.592-.10763 1.2278-.05164 1.8019.20929l.5908-1.29991ZM12.082 5.61765c0 1.04739.2976 2.0725.7298 2.93693l1.2772-.63857c-.3531-.70616-.5791-1.5134-.5791-2.29836H12.082Zm.0868-1.08934c-.0912.36493-.0868.78978-.0868 1.08934h1.4279c0-.35486.0045-.58442.0441-.74302l-1.3852-.34632Zm-.1159-.63746c.0945.1575.1469.43784.1043.69325l1.4085.23474c.0883-.52988.0097-1.16572-.2884-1.66263l-1.2244.73464Zm-.1731-.17691c.0113 0 .0187.00067.0373.01344.0257.01768.0754.06284.1358.16347l1.2244-.73464c-.2726-.45437-.7317-.87015-1.3975-.87015v1.42788Zm-3.1311.66608c1.041-.42865 2.1266-.66608 3.1311-.66608V2.28606c-1.2205 0-2.49077.2861-3.67477.77362l.54367 1.32034Zm-.3645.62549c.09895-.39582.2649-.57356.41195-.64709l-.63857-1.27714c-.63824.31912-.99583.92667-1.15864 1.57792l1.38526.34631Zm.1561 1.23835c-.20861-.46938-.24198-.89484-.1561-1.23835L6.99894 4.6592c-.17589.70355-.07837 1.45603.23654 2.16458l1.30482-.57992Zm.90392.99336c-.44758-.27974-.76632-.63003-.88784-.95408l-1.33697.50137c.27113.72301.86856 1.28889 1.46804 1.66356l.75677-1.21085Zm8.12568 6.61758-.3272.1308.5303 1.3258.3272-.1309-.5303-1.3257Zm.721 2.506c.1768-.3972.5682-1.2055.207-2.1083l-1.3257.5303c.1073.2684.0238.5265-.1857.9972l1.3044.5808Zm-.0614.1395c.0183-.0427.0383-.0876.0614-.1395l-1.3044-.5808c-.0223.05-.0465.1043-.0694.1579l1.3124.5624Zm.0577-.2158v-.0654h-1.4279v.0654h1.4279Zm-.1632.4891c.0257-.0487.0565-.1071.0878-.1698l-1.2771-.6385c-.0233.0466-.0471.0917-.0736.142l1.2629.6663Zm-.0029.0054v-.0001l-1.2572-.6769 1.2572.677Zm-.0956.16c0 .0478-.0127.0652.0018.0293.0067-.0169.0173-.0403.0342-.0743.0172-.0346.0369-.0719.0625-.1204l-1.2629-.6662c-.0716.1356-.2635.4622-.2635.8316h1.4279Zm-.0367.6249c.0005.0015-.0124-.0455-.0124-.1505 0-.0969.011-.2136.0352-.3344l-1.4002-.2801c-.0764.382-.099.8511.0228 1.2166l1.3546-.4516Zm.0194-.0087c-.0043-.0011-.0091-.0029-.0143-.0058-.0054-.0029-.0102-.0064-.014-.0099-.0039-.0035-.0049-.0054-.0037-.0036.0007.001.0023.0036.0044.0079.0022.0043.0052.0109.0082.0201l-1.3546.4516c.1458.4373.5389.8027 1.0277.9249l.3463-1.3852Zm.347-.1632c-.1457.0971-.2539.1405-.3174.1572-.0711.0187-.0521-.0038.023.0213l-.4515 1.3546c.514.1713 1.0851-.0431 1.5379-.345l-.792-1.1881Zm1.8429-5.7773c.1205 2.0484-.5438 4.2206-1.9889 5.9067l1.0841.9292c1.696-1.9786 2.4715-4.5181 2.3302-6.9197l-1.4254.0838Zm-.0106.0286c.0244.0162.0325.0288.031.0265-.0015-.0023-.0217-.0352-.0217-.097h1.4279c0-.5106-.3225-.9025-.6451-1.1176l-.7921 1.1881Zm-.2161.0331c.0683-.017.1429-.0243.2021-.0208.0284.0017.0445.0053.0497.0067.0056.0016-.0096-.0016-.0356-.019l.792-1.1881c-.2419-.1612-.5123-.2127-.7222-.225-.2188-.0129-.4388.0126-.6323.061l.3463 1.3852Zm-1.6128.2177c.5179 0 1.108-.073 1.6358-.2238l-.3923-1.373c-.3883.111-.8453.1689-1.2435.1689v1.4279Zm-2.912-.7517c.9102.5309 1.8888.7517 2.912.7517v-1.4279c-.8092 0-1.532-.1719-2.1925-.55717l-.7195 1.23337Zm.8749 3.1557c.6012-1.2776.6861-2.7302.145-4.0442l-1.3203.5437c.3751.911.3291 1.9451-.1167 2.8925l1.292.608Zm-.284.4826c.0788-.1064.228-.299.3153-.5608l-1.3546-.4516c-.0012.0036-.0048.0137-.0196.0375-.0181.0292-.0415.0615-.0887.1253l1.1476.8496Zm-.0952.133c.0279-.0419.0568-.0812.0952-.133l-1.1476-.8496c-.0362.0489-.0854.1152-.1357.1905l1.1881.7921Zm-.0739-1.4482c-.3676.2451-.5491.3235-.6933.3595l.3463 1.3853c.3794-.0949.7214-.2783 1.1391-.5567l-.7921-1.1881Zm2.3167.9572c-.1508-.4524-.4637-.8419-.8815-1.0508-.4368-.2184-.9849-.2285-1.4541.1067l.8299 1.1619c.0059-.0042-.0026.0024-.0194.0033-.0135.0006-.0123-.0034.005.0052.0403.0202.12.0888.1655.2253l1.3546-.4516Zm-.2153 1.7932c.1607-.3607.4973-1.0427.2065-1.8181l-1.337.5013c.0554.1477.0261.2871-.1738.7357l1.3043.5811Zm-.0676.1535c.021-.0488.043-.0984.0676-.1535l-1.3043-.5811c-.0239.0536-.0501.1124-.0757.1721l1.3124.5625Zm.0067-.0161-1.3258-.5303 1.3258.5303Zm-.2899.665c.0468-.1679.1356-.3509.2656-.6108l-1.2772-.6386c-.116.2322-.2733.5412-.3638.8655l1.3754.3839Zm-.8014-2.5525-.5765 2.1778 1.3804.3654.5765-2.1778-1.3804-.3654Zm.7914 2.5904.0125-.0472-1.3804-.3654-.0125.0472 1.3804.3654Zm-1.3654-.4218c-.006.0217-.0119.0437-.0174.0659l1.3852.3463c.0023-.0092.0048-.0186.0076-.0283l-1.3754-.3839Z" fill="#AC562A"/><ellipse cx="5.13942" cy="10.0021" rx=".458088" ry=".458089" fill="#AC562A"/><ellipse cx="11.9452" cy="18.1823" rx=".45809" ry=".458092" fill="#AC562A"/><circle cx="9.06587" cy="18.575" r=".785293" fill="#AC562A"/><defs><radialGradient id="paint0_radial_139_412" cx="0" cy="0" r="1" gradientUnits="userSpaceOnUse" gradientTransform="matrix(0 9 -9 0 11.9689 12.0831)"><stop offset=".3335" stop-color="#F7B450"/><stop offset=".6477" stop-color="#FFC977"/><stop offset="1" stop-color="#F90"/></radialGradient></defs></svg>