<svg width="24" height="24" viewBox="0 0 24 24" fill="none" xmlns="http://www.w3.org/2000/svg"><path fill-rule="evenodd" clip-rule="evenodd" d="m12.7313 8.49172 2.7466 1.80528-1.9124 1.3343-1.5559-1.0154-6.88177 4.5219 6.88177 4.5204 6.8828-4.5204-2.1718-1.4266 1.9693-1.3051 2.4929 1.6246c.6081.3963.7798 1.2105.3835 1.8186-.0989.1517-.2281.2814-.3795.3809l-8.4556 5.554c-.438.2877-1.0051.2877-1.4431 0l-8.44533-5.548c-.60661-.3985-.77532-1.2133-.37682-1.82.09856-.15.2268-.2782.37682-.3768l8.44513-5.54785c.4381-.2878 1.0053-.28774 1.4434.00017Zm.017-6.27591 8.4454 5.54802c.6066.39851.7753 1.21332.3768 1.81993-.0986.15002-.2268.27827-.3768.37682l-8.4452 5.54792c-.4381.2878-1.0053.2877-1.4433-.0002L8.55855 13.703l1.91235-1.3343 1.5559 1.0154 6.8818-4.52189-6.8818-4.52042-6.88274 4.52042 2.17177 1.42659-1.96926 1.3051-2.49296-1.62464c-.60807-.39627-.77977-1.21046-.38349-1.81853.09891-.15177.22812-.28144.37952-.3809l8.45566-5.55406c.438-.28771 1.005-.28769 1.443.00004Z" fill="#22E6AA"/></svg>