<svg width="24" height="24" viewBox="0 0 24 24" fill="none" xmlns="http://www.w3.org/2000/svg"><path d="M12 22c5.5228 0 10-4.4772 10-10 0-5.52285-4.4772-10-10-10C6.47715 2 2 6.47715 2 12c0 5.5228 4.47715 10 10 10Z" fill="#000"/><path d="M11.9999 21.123c5.0385 0 9.123-4.0845 9.123-9.123 0-5.03849-4.0845-9.12299-9.123-9.12299-5.03848 0-9.12298 4.0845-9.12298 9.12299 0 5.0385 4.0845 9.123 9.12298 9.123Z" fill="#000" stroke="#fff" stroke-width=".833333"/><path fill-rule="evenodd" clip-rule="evenodd" d="M11.9531 14.0371h3.349L11.954 8.23589v.00068-3.51629l6.5617 11.18362h-6.5626v-1.8668Z" fill="#0B76FF"/><path fill-rule="evenodd" clip-rule="evenodd" d="m11.9527 14.0371.0004 1.8668H5.38993L11.9518 4.72028l.0004 3.51629-.0004-.00068-3.34808 5.80121h3.34898Z" fill="#24C1FF"/><path fill-rule="evenodd" clip-rule="evenodd" d="M11.9533 9.6759v3.6796l-2.07622.0038 2.07622-3.6834Z" fill="#39FFF2"/><path fill-rule="evenodd" clip-rule="evenodd" d="m11.9531 9.6759 2.0758 3.6834-2.0758-.0038V9.6759Z" fill="#00E2C2"/><path fill-rule="evenodd" clip-rule="evenodd" d="m3.84971 8.5376 8.10349 3.3486v.4685l-8.10349-2.009V8.5376Z" fill="url(#paint0_linear_27_21453)"/><path fill-rule="evenodd" clip-rule="evenodd" d="m20.0561 7.13324-8.103 4.75276v.1285l8.103-3.34313V7.13324Z" fill="url(#paint1_linear_27_21453)"/><path fill-rule="evenodd" clip-rule="evenodd" d="m20.0497 11.752-8.0966.6022v-.1332l8.0966-2.0094v1.5404Z" fill="url(#paint2_linear_27_21453)"/><path fill-rule="evenodd" clip-rule="evenodd" d="m20.0561 8.73596-8.103 3.28634v.1987l8.103-2.0762V8.73596Z" fill="url(#paint3_linear_27_21453)"/><defs><linearGradient id="paint0_linear_27_21453" x1="3.84971" y1="10.4461" x2="9.51596" y2="10.4461" gradientUnits="userSpaceOnUse"><stop stop-color="#fff" stop-opacity="0"/><stop offset="1" stop-color="#fff"/></linearGradient><linearGradient id="paint1_linear_27_21453" x1="19.7996" y1="8.67465" x2="14.5734" y2="9.10657" gradientUnits="userSpaceOnUse"><stop stop-color="#FD76FD" stop-opacity="0"/><stop offset="1" stop-color="#FF51FF"/></linearGradient><linearGradient id="paint2_linear_27_21453" x1="19.7217" y1="11.1636" x2="15.599" y2="11.1636" gradientUnits="userSpaceOnUse"><stop stop-color="#5300FF" stop-opacity="0"/><stop offset="1" stop-color="#9D6EFF"/></linearGradient><linearGradient id="paint3_linear_27_21453" x1="19.8103" y1="9.96997" x2="15.8254" y2="11.1809" gradientUnits="userSpaceOnUse"><stop stop-color="#AE60D6" stop-opacity="0"/><stop offset="1" stop-color="#AB38E6"/></linearGradient></defs></svg>