<svg width="24" height="24" viewBox="0 0 24 24" fill="none" xmlns="http://www.w3.org/2000/svg"><path fill-rule="evenodd" clip-rule="evenodd" d="M18.962 18.3502c-.0543-.0604-.1479-.0644-.2073-.008l-.002.003c-.0594.0564-.0604.15-.0021.2074L22 21.7536l-3.038-3.4034ZM17.7362 13.3344l-.003.003c-.0594.0564-.0594.15-.0021.2073l3.3883 3.3329-3.1759-3.5352c-.0543-.0604-.1479-.0644-.2073-.008Z" fill="#000"/><path fill-rule="evenodd" clip-rule="evenodd" d="m14.9661 12.669-2.1022-2.0541c-.0317 1.084-.2022 3.3225-.6354 4.3695-.0068.0162-.0163.0328-.024.0491.3061.195.9501.5718 1.2063.5718.3199-.0009.9578-.3544 1.1885-.576.2003-.1939.4125-.5826.6177-.9586.1655-.3032.3367-.6169.5147-.8575.1066-.1438.2053-.2492.3018-.3224.2001-.1504.5302-.2714.8796-.3996.4676-.1714.9976-.3658 1.1589-.6296.1616-.2638.0665-1.1784.0016-1.6134-.4417.0481-2.2344.1814-3.5264-.64812-.615-.39525-1.5211-1.25927-1.94-1.67106.1503.88367.2488 1.79713.2583 2.41088l2.1006 2.3291Z" fill="#FECD0F"/><path fill-rule="evenodd" clip-rule="evenodd" d="m14.8291 18.7941-.0021.0021c-.0593.0563-.0603.1509-.0019.2073l3.2614 3.2161-3.05-3.4174c-.0544-.0604-.148-.0644-.2074-.0081ZM15.4562 15.8881c-.0362 0-.0714.0131-.0996.0402-.0594.0564-.0604.151-.001.2084l2.291 2.2075-2.0816-2.4058c-.0283-.0332-.0685-.0503-.1088-.0503Z" fill="#000"/><path fill-rule="evenodd" clip-rule="evenodd" d="M12.1757 18.2174v.2577l.4893-.3749c.0445-.034.1042-.0421.1561-.0209.052.0213.0876.0674.0955.123.016.2544.0771.9402.1737 1.1472.091.1946.4208.5787.9287 1.0813.0144.0143.0301.0116.038.0086.0083-.0029.0225-.0109.0246-.0312.023-.1173.0417-.2577.0353-.294-.117-.6472-1.0997-2.29-1.2955-2.6127-.0125-.0205-.0303-.037-.0525-.0487l-.8208-.4318v.3244l.2276.1824v.6896Z" fill="#FECD0F"/><path fill-rule="evenodd" clip-rule="evenodd" d="M10.7392 19.7907h-.001c-.0594.0563-.0604.1509-.0021.2083l2.3807 2.3212-2.1693-2.5185c-.0543-.0625-.1489-.0675-.2083-.011Z" fill="#000"/><mask id="mask0_27_21417" style="mask-type:alpha" maskUnits="userSpaceOnUse" x="3" y="1" width="10" height="18"><path d="m10.9242 11.3388.2262.2603-.1842.0252c-.2984.0407-.7645.1433-.8659.2436-.13739.1361-.27138.7376-.32354 1.0848l-.00393.0261-.01623.0209c-.08962.1148-.39905.4903-.61968.4996-.00374.0002-.00755.0002-.01135.0002-.13919 0-.29891-.1063-.48639-.3215-.17868-.0112-.60321-.0673-.7526-.3434-.08658-.16.07156-.5164.1511-.6759-.00266-.0207-.00418-.0415-.00418-.0625.00348-.214.22374-.624.42485-.7251.14444-.0732.36039-.05.58913-.0255.20238.0216.43164.0462.51904-.0194.13133-.0979.19414-.6881.19528-1.0562l.00082-.2683.49368.5683c.0934-.2319.1953-.5296.1853-.64327-.0144-.15731-.27-.58464-.4279-.8168l.1665-.11327c.0449.06598.4381.65119.462.91213.0178.20351-.1665.66151-.2383.83101l.3842.4423c.1871-.27.5053-.7687.517-.9769.0148-.27359-.3127-.96902-.5975-1.48159-.0162-.03029-.0254-.04601-.0259-.04709l.1734-.10211s.0109.01845.0293.05305c.1506.2709.6431 1.19095.6217 1.58884-.0168.2972-.4336.9123-.5819 1.1225ZM7.34295 7.86846c-.08157.15408-.17519.305-.301.43689-.01914.01915-.03924.0393-.06041.05736.09064-.01806.19731-.01001.28389.08456.09058.0997.07346.46909-.04329.53551-.17011.09463-.64725-.27882-.77408-.3815-.10065.02517-.2013.04532-.30398.06041-.05641.00805-.10674-.03321-.11174-.08956-.00406-.05337.03625-.0997.08955-.10471.13393-.01109.26881-.03118.39861-.06142.08056-.01907.16011-.04126.23357-.07244.07346-.02922.13887-.06744.20333-.12081.12682-.10268.23457-.23654.33218-.37642.09666-.14097.18419-.28998.25968-.44596-.05635.1641-.12582.32312-.20631.47809Zm-2.79033-.63515c-.57475 0-1.0408-.46605-1.0408-1.03978 0-.57475.46605-1.04086 1.0408-1.04086.10065 0 .19832.01514.29092.04227-.03625-.13082-.05635-.26874-.05635-.41065 0-.87176.70564-1.57733 1.57733-1.57733.87068 0 1.57631.70557 1.57631 1.57733 0 .87068-.70563 1.57631-1.57631 1.57631-.28186 0-.54559-.07447-.77408-.20333.00101.01211.00202.02415.00202.03626 0 .57373-.46604 1.03978-1.03984 1.03978Zm8.11218 3.28549h.1007l-.0725-.0704.0725-.0694-.1007.001c-.0065-.67466-.1287-1.74576-.3114-2.72862-.0729-.39829-.1511-.75089-.2264-1.02001-.5762-2.06499-2.1236-3.68579-4.35679-4.56383-.67274-.26411-2.21419-.26519-2.76073.08379-2.64082 1.684-1.90882 4.37318-1.66828 5.25691.23502.86479.94014 2.0011 2.15378 2.35782l.79602.07536-.67737.05882c.01471.06484.00292.14276-.02167.21946l.37794.0167-.40963.0681c-.03429.0799-.07473.1493-.10015.1838-.08113.1091-.22044.2297-.3678.3573-.18045.1563-.38499.3335-.44862.4685-.02098.0445-.0419.0957-.06383.1565-.1293.3661-.2013.9191-.20244 1.5563-.00197.7943.10711 1.6128.27793 2.0855.19858.5506 1.1616 1.4004 1.6892 1.6828.13411.0715.3306.1328.58381.1823l-.01959.1001.00159-.0016.01926-.0975c.54072.1068 1.22898.1362 1.64008.119.36825-.0155 1.47389-.3285 1.82329-.4297l-.2513-.6144.1863-.0762.8829 2.1581.7634.0715v-.4823l-.6969-.5589-.3225-1.5067.1967-.0423.1156.5397c.2242-.292.5633-.7486.7194-1.0347.0215-.0388.0407-.0781.0559-.1145.3971-.9597.5892-3.1228.6214-4.3425l.0009-.0458Z" fill="#fff"/></mask><g mask="url(#mask0_27_21417)"><path fill-rule="evenodd" clip-rule="evenodd" d="m10.9242 11.3388.2262.2603-.1842.0252c-.2984.0407-.7645.1433-.8659.2436-.13739.1361-.27138.7376-.32354 1.0848l-.00393.0261-.01623.0209c-.08962.1148-.39905.4903-.61968.4996-.00374.0002-.00755.0002-.01135.0002-.13919 0-.29891-.1063-.48639-.3215-.17868-.0112-.60321-.0673-.7526-.3434-.08658-.16.07156-.5164.1511-.6759-.00266-.0207-.00418-.0415-.00418-.0625.00348-.214.22374-.624.42485-.7251.14444-.0732.36039-.05.58913-.0255.20238.0216.43164.0462.51904-.0194.13133-.0979.19414-.6881.19528-1.0562l.00082-.2683.49368.5683c.0934-.2319.1953-.5296.1853-.64327-.0144-.15731-.27-.58464-.4279-.8168l.1665-.11327c.0449.06598.4381.65119.462.91213.0178.20351-.1665.66151-.2383.83101l.3842.4423c.1871-.27.5053-.7687.517-.9769.0148-.27359-.3127-.96902-.5975-1.48159-.0162-.03029-.0254-.04601-.0259-.04709l.1734-.10211s.0109.01845.0293.05305c.1506.2709.6431 1.19095.6217 1.58884-.0168.2972-.4336.9123-.5819 1.1225ZM7.34295 7.86846c-.08157.15408-.17519.305-.301.43689-.01914.01915-.03924.0393-.06041.05736.09064-.01806.19731-.01001.28389.08456.09058.0997.07346.46909-.04329.53551-.17011.09463-.64725-.27882-.77408-.3815-.10065.02517-.2013.04532-.30398.06041-.05641.00805-.10674-.03321-.11174-.08956-.00406-.05337.03625-.0997.08955-.10471.13393-.01109.26881-.03118.39861-.06142.08056-.01907.16011-.04126.23357-.07244.07346-.02922.13887-.06744.20333-.12081.12682-.10268.23457-.23654.33218-.37642.09666-.14097.18419-.28998.25968-.44596-.05635.1641-.12582.32312-.20631.47809Zm-2.79033-.63515c-.57475 0-1.0408-.46605-1.0408-1.03978 0-.57475.46605-1.04086 1.0408-1.04086.10065 0 .19832.01514.29092.04227-.03625-.13082-.05635-.26874-.05635-.41065 0-.87176.70564-1.57733 1.57733-1.57733.87068 0 1.57631.70557 1.57631 1.57733 0 .87068-.70563 1.57631-1.57631 1.57631-.28186 0-.54559-.07447-.77408-.20333.00101.01211.00202.02415.00202.03626 0 .57373-.46604 1.03978-1.03984 1.03978Zm8.11218 3.28549h.1007l-.0725-.0704.0725-.0694-.1007.001c-.0065-.67466-.1287-1.74576-.3114-2.72862-.0729-.39829-.1511-.75089-.2264-1.02001-.5762-2.06499-2.1236-3.68579-4.35679-4.56383-.67274-.26411-2.21419-.26519-2.76073.08379-2.64082 1.684-1.90882 4.37318-1.66828 5.25691.23502.86479.94014 2.0011 2.15378 2.35782l.79602.07536-.67737.05882c.01471.06484.00292.14276-.02167.21946l.37794.0167-.40963.0681c-.03429.0799-.07473.1493-.10015.1838-.08113.1091-.22044.2297-.3678.3573-.18045.1563-.38499.3335-.44862.4685-.02098.0445-.0419.0957-.06383.1565-.1293.3661-.2013.9191-.20244 1.5563-.00197.7943.10711 1.6128.27793 2.0855.19858.5506 1.1616 1.4004 1.6892 1.6828.13411.0715.3306.1328.58381.1823l-.01959.1001.00159-.0016.01926-.0975c.54072.1068 1.22898.1362 1.64008.119.36825-.0155 1.47389-.3285 1.82329-.4297l-.2513-.6144.1863-.0762.8829 2.1581.7634.0715v-.4823l-.6969-.5589-.3225-1.5067.1967-.0423.1156.5397c.2242-.292.5633-.7486.7194-1.0347.0215-.0388.0407-.0781.0559-.1145.3971-.9597.5892-3.1228.6214-4.3425l.0009-.0458Z" fill="url(#paint0_linear_27_21417)"/></g><mask id="mask1_27_21417" style="mask-type:alpha" maskUnits="userSpaceOnUse" x="6" y="16" width="2" height="3"><path d="M6.44445 16.9573c.09691.3704.27375.9678.41826 1.1528.14166.1804.67774.493.99674.6657v-1.1509c-.17601.0089-.49032.0127-.62019-.0566-.13576-.0735-.31621-.367-.39449-.5026-.15262-.0315-.2868-.0677-.40032-.1084Z" fill="#fff"/></mask><g mask="url(#mask1_27_21417)"><path fill-rule="evenodd" clip-rule="evenodd" d="M6.44445 16.9573c.09691.3704.27375.9678.41826 1.1528.14166.1804.67774.493.99674.6657v-1.1509c-.17601.0089-.49032.0127-.62019-.0566-.13576-.0735-.31621-.367-.39449-.5026-.15262-.0315-.2868-.0677-.40032-.1084Z" fill="#356C00"/></g><path fill-rule="evenodd" clip-rule="evenodd" d="M9.68706 11.4875c-.1506.1128-.39848.0862-.66101.0582-.1011-.0108-.20986-.0224-.30202-.0224-.07244 0-.13462.0072-.175.0277-.12385.0622-.31165.3892-.31418.5469 0 .0215.00272.0447.00824.0672l.00044.0021c.05438.2464.35114.6327.44862.7595.01895.0248.04272.0552.07023.0866.22576.2689.33649.284.36616.2849.08341-.0035.29738-.2069.45324-.402.02789-.1768.16163-.958.377-1.1714.13942-.1379.54842-.2278.79892-.2716l-.80279-.9229c-.01851.322-.07808.8158-.26785.9572ZM8.46885 17.6184h-.4083v.9646l1.33108 1.3189-.92278-2.2835ZM8.06427 12.7398c.06287.1119.23149.1781.40938.212-.1193-.1544-.24951-.3376-.3373-.5103-.05571.1396-.08747.2616-.07208.2983Z" fill="#FECD0F"/><path fill-rule="evenodd" clip-rule="evenodd" d="M5.00571 4.78424c0-.41776.3372-.75495.75495-.75495.41674 0 .75494.33719.75494.75495 0 .41667-.3382.75494-.75494.75494-.41775 0-.75495-.33827-.75495-.75494Zm-.58787 1.9457c-.29593 0-.53652-.24054-.53652-.53647 0-.29694.24059-.53754.53652-.53754.29695 0 .53755.2406.53755.53754 0 .29593-.2406.53647-.53755.53647Zm1.94679-.36939c.87068 0 1.57631-.70563 1.57631-1.57631 0-.87176-.70563-1.57733-1.57631-1.57733-.8717 0-1.57733.70557-1.57733 1.57733 0 .14191.02009.27983.05635.41065-.09261-.02713-.19028-.04228-.29093-.04228-.57475 0-1.0408.46611-1.0408 1.04086 0 .57374.46605 1.03979 1.0408 1.03979.5738 0 1.03985-.46605 1.03985-1.03979 0-.0121-.00102-.02415-.00203-.03625.22849.12885.49223.20333.77409.20333Z" fill="#fff"/><path fill-rule="evenodd" clip-rule="evenodd" d="M6.9574 8.2127c-.06446.05337-.12987.09159-.20333.12081-.07346.03118-.153.05337-.23356.07244-.12981.03024-.26468.05033-.39861.06142-.05331.00501-.09362.05134-.08956.10471.00501.05635.05533.09761.11174.08956.10268-.01509.20333-.03524.30398-.06041.03924-.01001.07752-.02009.1158-.03118.0855-.02618.17107-.05635.25467-.09666.05939-.02814.11371-.06744.16302-.11073.02117-.01806.04126-.03822.0604-.05736.12582-.1319.21943-.28281.301-.43689.0805-.15497.14997-.31399.20631-.47809-.07549.15598-.16302.30499-.25967.44596-.09761.13988-.20536.27374-.33219.37642Z" fill="#000"/><path fill-rule="evenodd" clip-rule="evenodd" d="M6.56398 8.57016c-.03828.01109-.07657.02117-.1158.03119.12683.10268.60397.47612.77409.38149.11675-.06642.13386-.43581.04329-.53551-.08658-.09457-.19326-.10262-.28389-.08455-.04931.04329-.10363.08258-.16302.11073-.0836.04031-.16917.07048-.25467.09665Z" fill="#CA1117"/><path fill-rule="evenodd" clip-rule="evenodd" d="M6.51548 4.7843c0-.41775-.33821-.75494-.75494-.75494-.41776 0-.75495.33719-.75495.75494 0 .41668.33719.75495.75495.75495.41673 0 .75494-.33827.75494-.75495ZM4.41786 5.65601c-.29593 0-.53653.24059-.53653.53754 0 .29593.2406.53646.53653.53646.29695 0 .53754-.24053.53754-.53646 0-.29695-.24059-.53754-.53754-.53754Z" fill="#000"/><path fill-rule="evenodd" clip-rule="evenodd" d="M3.48521 11.1168c-.07923.0044-.13108.0306-.15827.0804-.0848.155.06098.5216.22564.8129l.00672.0118c.00368.0068.00672.0127.00989.017.01211.0193.01686.0288.01686.0288l-.09.0451c-.00051-.0008-.00381-.0073-.01002-.0174-.00285-.0034-.00849-.0132-.01489-.0248l-.00526-.0095c-.16296-.2644-.39652-.5393-.55891-.5163-.10851.0149-.1743.169-.21043.2955-.01235.0435.05844.1398.1101.2099.0443.0603.08614.1172.10268.1672.01762.0518.02231.1254.02725.2034.00583.0923.01243.197.04222.2412.06363.0917.23933.2708.35766.2708h.00222c.03663-.0004.11231-.0893.15763-.1689l.13247-.2328-.03898.2651c-.0161.1095-.00767.229.01743.2457.13779.0935.41255-.0252.56898-.1132 0-.0007-.00006-.0016-.00006-.0023.00107-.6283.07092-1.1797.19604-1.5659-.09432-.0464-.33035-.1602-.42473-.186-.11092-.0309-.34594-.0632-.46224-.0577Z" fill="#FECD0F"/><path fill-rule="evenodd" clip-rule="evenodd" d="M11.9866 15.0216c-.156.2861-.4952.7427-.7194 1.0347l-.1155-.5397-.1968.0423.3225 1.5067.6969.5589v.4823l-.7634-.0716-.8829-2.158-.1863.0762.2514.6144c-.3495.1012-1.4551.4142-1.82335.4297-.4111.0172-1.09937-.0122-1.64008-.119l-.01927.0974-.00158.0017.01958-.1002c-.25321-.0494-.44969-.1107-.58381-.1822-.52759-.2824-1.49062-1.1322-1.68919-1.6828-.17082-.4727-.2799-1.2912-.27793-2.0856.00114-.6371.07314-1.1901.20244-1.5562.02193-.0608.04284-.112.06382-.1565.06364-.135.26817-.3122.44862-.4685.14737-.1276.28668-.2483.36781-.3573.02541-.0345.06585-.1039.10014-.1838l.40964-.0681-.37795-.0167c.0246-.0767.03638-.15464.02168-.21948l.67736-.05882-.79601-.07536c-1.21364-.35671-1.91877-1.49302-2.15379-2.35781-.24053-.88374-.97253-3.57291 1.66828-5.25691.54655-.34898 2.088-.3479 2.76074-.08379 2.23315.87803 3.78055 2.49884 4.35685 4.56383.0752.26912.1534.62171.2264 1.02.1826.98287.3048 2.05396.3114 2.72864l.1006-.0011-.0725.0695.0725.0704h-.1006l-.001.0458c-.0322 1.2197-.2242 3.3828-.6213 4.3425-.0153.0364-.0345.0757-.056.1145Zm-.0385 1.9994.8208.4318c.0222.0117.04.0282.0525.0487.1958.3227 1.1785 1.9656 1.2955 2.6127.0064.0364-.0123.1767-.0353.294-.0021.0204-.0162.0283-.0246.0313-.0079.0029-.0236.0056-.038-.0087-.5079-.5026-.8377-.8867-.9287-1.0813-.0966-.207-.1577-.8928-.1737-1.1472-.0078-.0556-.0435-.1017-.0955-.1229-.0518-.0213-.1116-.0132-.1561.0208l-.4893.3749v-.9473l-.2276-.1824v-.3244Zm-4.70893.5473c.12987.0693.44418.0654.62019.0566v1.1509c-.319-.1728-.85509-.4854-.99675-.6657-.14451-.185-.32134-.7824-.41825-1.1529.11351.0408.24769.077.40032.1085.07827.1356.25872.429.39449.5026Zm-3.06301-4.642c0 .0008.00007.0016.00007.0023-.15643.0881-.43119.2068-.56898.1132-.0251-.0167-.03353-.1361-.01743-.2456l.03898-.2651-.13247.2328c-.04532.0795-.121.1685-.15763.1688h-.00222c-.11834 0-.29403-.179-.35767-.2707-.02979-.0442-.03638-.149-.04221-.2413-.00494-.078-.00963-.1515-.02725-.2034-.01655-.0499-.05838-.1069-.10268-.1671-.05166-.0702-.12246-.1664-.1101-.21.03613-.1265.10192-.2805.21043-.2955.16239-.023.39595.2519.55891.5164l.00526.0095c.0064.0116.01204.0214.01489.0248.00621.01.00951.0165.01002.0174l.09-.0451s-.00476-.0096-.01686-.0288c-.00317-.0043-.00621-.0102-.00989-.017l-.00672-.0119c-.16466-.2913-.31044-.6578-.22564-.8129.02719-.0497.07904-.0759.15827-.0804.1163-.0054.35132.0269.46224.0578.09438.0258.33041.1396.42473.1859-.12512.3863-.19497.9377-.19605 1.5659ZM14.5472 9.60005c1.292.82955 3.0847.69615 3.5263.64805.065.435.16 1.3497-.0016 1.6134-.1612.2639-.6912.4583-1.1589.6297-.3494.1281-.6795.2492-.8795.3996-.0965.0732-.1953.1786-.3019.3223-.178.2406-.3491.5543-.5147.8576-.2052.376-.4173.7647-.6176.9586-.2308.2216-.8686.5751-1.1886.5759-.2561 0-.9001-.3767-1.2062-.5717.0076-.0163.0171-.033.0239-.0491.4332-1.047.6037-3.2856.6354-4.3695l2.1022 2.0541-2.1005-2.3291c-.0095-.61379-.1081-1.52725-.2583-2.41092.4189.41179 1.325 1.27582 1.94 1.67107ZM8.06066 17.6185h.40831l.92278 2.2835-1.33109-1.3189v-.9646Zm5.35044-1.8119c.3828-.0011 1.0693-.3842 1.3279-.6323.2226-.2154.4325-.6.6547-1.0072.1622-.2973.33-.6048.4997-.8342.0949-.1281.1806-.2202.2614-.2815.176-.1322.4925-.2483.8276-.3712.5228-.1917 1.0635-.39 1.2612-.7135.2452-.4.038-1.7.0135-1.8469l-.0161-.0969-.0973.0138c-.0209.003-2.0994.2855-3.4877-.60601-.7324-.47061-1.9368-1.67215-2.1103-1.84664-.0724-.39113-.15-.73897-.2248-1.00689-.5936-2.12722-2.1836-3.79525-4.47713-4.69699-.64948-.25498-2.29361-.31291-2.94258.10148-2.76567 1.7636-2.00439 4.56046-1.75422 5.47944.2475.91048.99129 2.10593 2.27345 2.49193.00665.05378-.05236.22078-.12201.31548-.06782.0911-.19896.2046-.33789.325-.20504.1776-.41699.3612-.49888.5348-.01883.0399-.03752.0858-.0566.1361-.10319-.0506-.33117-.1597-.43068-.187-.11865-.0329-.36572-.0677-.49445-.0611-.11542.0064-.19661.051-.24123.1326-.06566.1199-.036.301.02649.4809-.11624-.1177-.24662-.2028-.37192-.1848-.13025.018-.229.1417-.29346.3677-.02592.091.05121.1958.12581.2971.03772.0513.0767.1042.08829.1396.01344.0396.01788.1097.02225.1775.00691.1104.01414.2244.05958.2919.04684.0675.26132.3194.44456.3146.05052-.0006.10002-.0368.14134-.08.0045.0702.02206.1405.06934.1719.05363.0365.11751.0508.18527.0508.15357 0 .32623-.0739.4407-.1336.00836.779.11941 1.5687.28908 2.0382.2122.5883 1.17016 1.4468 1.74345 1.7691.05134.2094.28072 1.1106.49463 1.3845.2245.2858 1.1097.7467 1.20984.7983l.14673.0756v-.2417l1.26555 1.254c.03492.0349.08031.0529.12613.0529.03404 0 .06839-.0099.099-.0302.07207-.0477.0997-.137.06725-.2171l-1.01392-2.509h-.54401v-.0081l-.10851.0085c-.20567.0161-.53349.0185-.61759-.0264-.04786-.0259-.13697-.1426-.22412-.2773.41033.0629.86656.0896 1.22156.0896.08931 0 .17221-.0017.24624-.0048.40292-.017 1.56026-.3468 1.89156-.4434l.6009 1.4692.9036.0846v.2607c0 .0594.0333.1125.0867.1387.0534.0263.1159.0196.1628-.0165l.4986-.382c.018.2444.0746.8871.1855 1.1249.1293.2765.5987.772.9691 1.1387.0456.0455.1054.0697.167.0697.0267 0 .0538-.0047.0802-.014.0876-.031.148-.1077.1563-.1908.0122-.0612.0507-.2682.0346-.3596-.1202-.6654-1.0419-2.2209-1.3219-2.6821-.0315-.0514-.0765-.0936-.1305-.122l-.8698-.4576c-.0529-.0269-.1149-.0247-.1656.0064-.0504.0309-.0805.0846-.0805.1436v.2168l-.2875-.2306-.1369-.6394c.2254-.2886.5857-.7644.787-1.1022.2596.165.9676.5949 1.3017.5949Z" fill="#000"/><path fill-rule="evenodd" clip-rule="evenodd" d="M9.95888 11.7247c-.21537.2134-.34911.9946-.377 1.1714-.15585.1952-.36983.3986-.45324.402-.02967-.0009-.14039-.016-.36616-.2849-.02751-.0314-.05128-.0618-.07023-.0865-.09748-.1269-.39424-.5132-.44862-.7595l-.00044-.0022c-.00551-.0224-.00824-.0456-.00824-.0672.00253-.1577.19034-.4847.31418-.5469.04038-.0205.10256-.0276.175-.0276.09216 0 .20092.0116.30202.0223.26253.028.51041.0546.66101-.0582.18977-.1414.24934-.6352.26785-.9572l.80279.923c-.2505.0437-.6595.1336-.79892.2715Zm-1.89468 1.015c-.01483-.0367.01578-.1587.06947-.2982.08461.1727.21011.3558.32508.5102-.17145-.0338-.33396-.1001-.39455-.212Zm2.7911-4.16536-.1735.10211c.0006.00108.0098.0168.0259.04709.2849.51257.6123 1.208.5975 1.48166-.0117.2082-.3298.7069-.517.9769l-.3842-.4424c.0719-.1695.2561-.6275.2383-.83098-.0239-.26094-.4171-.84615-.4619-.91213l-.1665.11327c.1578.23216.4135.65949.4279.8168.0099.11374-.092.41144-.1853.64324l-.49373-.5683-.00082.2683c-.00114.3682-.06395.9584-.19528 1.0562-.0874.0656-.31666.041-.51904.0194-.22874-.0244-.44468-.0477-.58913.0256-.20111.101-.42137.511-.42485.7251 0 .0209.00152.0417.00418.0625-.07954.1594-.23768.5158-.1511.6759.14939.2761.57392.3322.7526.3434.18748.2152.3472.3214.48639.3214.0038 0 .00761 0 .01135-.0001.22063-.0094.53006-.3848.61968-.4997l.01623-.0208.00393-.0262c.05216-.3472.18615-.9487.32349-1.0848.1015-.1003.5675-.2028.866-.2436l.1841-.0251-.2261-.2604c.1483-.2102.565-.8253.5819-1.1224.0213-.39796-.4711-1.31801-.6217-1.58891-.0185-.0346-.0293-.05305-.0293-.05305Z" fill="#000"/><defs><linearGradient id="paint0_linear_27_21417" x1="6.83902" y1="1.87848" x2="12.1985" y2="15.8372" gradientUnits="userSpaceOnUse"><stop stop-color="#B8E27F"/><stop offset="1" stop-color="#2A6700"/></linearGradient></defs></svg>