<svg width="24" height="24" viewBox="0 0 24 24" fill="none" xmlns="http://www.w3.org/2000/svg"><path d="M22.0803 12c0-5.52285-4.4771-10-10-10-5.52283 0-9.99998 4.47715-9.99998 10 0 5.5228 4.47715 10 9.99998 10 5.5229 0 10-4.4772 10-10Z" fill="#000"/><path d="M13.5803 7.336c-.368-.212-.796-.336-1.252-.336H9.83226c.69204 0 1.24804.56 1.24804 1.248V12h1.248c.456 0 .884-.124 1.248-.336.276-.16.516-.368.712-.616.336-.428.54-.964.54-1.548 0-.924-.5-1.732-1.248-2.164Z" fill="#D85111"/><path d="M14.2923 11.048c-.196.248-.436.456-.712.616-.368.212-.796.336-1.248.336h-1.252V8.248c0-.688-.56-1.248-1.248-1.248-.692 0-1.25199.56-1.25199 1.248V17h4.37199c.216 0 .424-.02.624-.064 1.428-.288 2.5-1.552 2.5-3.064.004-1.244-.728-2.32-1.784-2.824Z" fill="#fff"/></svg>