<svg width="24" height="24" viewBox="0 0 24 24" fill="none" xmlns="http://www.w3.org/2000/svg"><path fill-rule="evenodd" clip-rule="evenodd" d="M8.11687 10.4039 12.001 6.51981l3.8874 3.88749 2.2599-2.25995L12.001 2 5.85696 8.14402l2.25991 2.25988ZM2 12.0007l2.25932-2.25932 2.25931 2.25932L4.25932 14.26 2 12.0007Zm10.001 5.4825-3.88416-3.8841-2.26323 2.2566.00333.0033 6.14406 6.144 6.1473-6.1473-2.2599-2.2599-3.8874 3.8874Zm5.4804-5.4809 2.2593-2.25933L22 12.0023l-2.2593 2.2593-2.2593-2.2593ZM12.001 9.70831l2.2932 2.29319-2.2932 2.2965-2.29321-2.2932v-.0066l.40271-.4027.1964-.1931 1.6941-1.69409Z" fill="#F3BA2F"/></svg>