<svg width="24" height="24" viewBox="0 0 24 24" fill="none" xmlns="http://www.w3.org/2000/svg"><path d="M13.8598 18.6092v2.2414L11.9058 22l-1.8966-1.1494v-2.2414l1.8966 1.1494 1.954-1.1494ZM3.40004 10.8506 5.29659 12v3.8506l3.27586 1.954v2.2414L3.40004 17v-6.1494Zm17.01146 0V17l-5.2299 3.046v-2.2414l3.2759-1.954V12l1.954-1.1494Zm-5.2299-3.046 1.9541 1.14942v2.24138l-3.2759 1.954v3.9081l-1.8965 1.1494-1.8966-1.1494v-3.9081l-3.3908-1.954V8.95402L8.62992 7.8046l3.27588 1.95402 3.2758-1.95402Zm-8.5057 5 1.89655 1.1494v2.2414L6.6759 15.046v-2.2414Zm10.4598 0v2.2414l-1.8966 1.1494V13.954l1.8966-1.1494ZM5.29659 5.85057 7.25061 7 5.29659 8.14943v2.24137L3.40004 9.24138V7l1.89655-1.14943Zm13.21841 0L20.469 7v2.24138l-1.954 1.14942V8.14943L16.6184 7l1.8966-1.14943Zm-6.6092 0L13.8598 7l-1.954 1.14943L10.0092 7l1.8966-1.14943Zm0-3.85057 5.2299 3.04598-1.8966 1.14942-3.2758-1.95402L8.62992 6.1954 6.73337 5.04598 11.9058 2Z" fill="#F3BA2F"/></svg>