<svg width="24" height="24" viewBox="0 0 24 24" fill="none" xmlns="http://www.w3.org/2000/svg"><path d="M12.0682 9.97717c-.6833 0-1.3512.20263-1.9192.58223-.56815.3796-1.01092.9191-1.27239 1.5503-.26147.6313-.32988 1.3259-.19658 1.996.13329.6701.4623 1.2856.94543 1.7688.48314.4831 1.09864.8121 1.76874.9454.6702.1333 1.3648.0649 1.996-.1966s1.1708-.7042 1.5503-1.2723c.3796-.5681.5822-1.236.5822-1.9193.0003-.4537-.0888-.9031-.2623-1.3223-.1735-.4193-.428-.8002-.7488-1.1211-.3209-.3208-.7018-.5753-1.1211-.7488-.4192-.1735-.8686-.26263-1.3223-.26233Z" fill="#2EAA8F"/><path d="M12.0682 4.86364c-1.19-.00474-2.36748.24314-3.45456.72727v2.93182c1.09904-.77425 2.42616-1.15713 3.76876-1.08726 1.3425.06986 2.6228.58842 3.6355 1.47257 1.0128.88415 1.6994 2.08266 1.9498 3.40356.2504 1.3208.0501 2.6875-.5687 3.881-.6188 1.1935-1.6204 2.1446-2.8443 2.7011-1.2238.5564-2.599.6858-3.9051.3676-1.3062-.3182-2.46771-1.0658-3.29842-2.1228-.83071-1.057-1.28251-2.3623-1.283-3.7067V2H3.5v11.4318c0 1.6946.50252 3.3512 1.444 4.7602.94148 1.4091 2.27965 2.5073 3.84528 3.1558 1.56562.6485 3.28842.8182 4.95052.4876 1.662-.3306 3.1887-1.1467 4.387-2.345 1.1983-1.1982 2.0143-2.7249 2.3449-4.387.3306-1.6621.161-3.3849-.4876-4.9505-.6485-1.56561-1.7467-2.90378-3.1557-3.84526-1.409-.94149-3.0656-1.444-4.7602-1.444Z" fill="#003F6B"/></svg>