<svg width="24" height="24" viewBox="0 0 24 24" fill="none" xmlns="http://www.w3.org/2000/svg"><path d="M12 22c5.5228 0 10-4.4772 10-10 0-5.52285-4.4772-10-10-10C6.47715 2 2 6.47715 2 12c0 5.5228 4.47715 10 10 10Z" fill="#272D63"/><path d="m14.6344 6.5-.4375 1.77625c1.3525.4725 2.3481 1.18125 2.1537 2.49375-.0562.3987-.1937.7981-.4775 1.1-.2431.2606-.6231.3988-.9475.505-.3889.1316-.7957.203-1.2062.2119-.275 0-.5425-.0082-.8175-.0325-.445-.0332-.8988-.0738-1.3357-.1713-.1375-.0325-.2675-.0568-.3887-.09l-.5913 2.3875-.3481 1.3038-.43748 1.785-1.07625-.2688.44563-1.8012c-.25125-.065-.51063-.1381-.76938-.2038L7 15.1456l.53437-1.2312s.79375.2125.785.1962c.30813.0732.4375-.1306.49375-.2606l.6075-2.445.28313-1.1325.32435-1.30375c.0156-.22813-.06498-.52125-.50248-.6275.01625-.00813-.785-.19562-.785-.19562l.28313-1.15688 1.48125.375c.2275.05625.4537.10563.6887.1625L11.6312 5.75l1.0763.26875-.4288 1.74375c.2832.06563.575.13062.8582.20375l.4206-1.73562L14.6344 6.5Zm-.0888 6.4375c.2994-.0494.6638-.1713.9225-.2775.0081-.0081.025-.0081.0325-.0162.5588.4968.8256 1.3037.4613 2.3387-.575 1.6788-1.9588 1.8169-3.7888 1.4669l-.445 1.8006-1.0687-.2688.4125-1.7193.0162-.0569.3244-1.3206c.955.2125 2.2425.3506 2.485-.6438.13-.5294-.1213-.9125-.5263-1.1894l.4213-.025c.3-.0156.4531-.0399.7531-.0893v.0006Zm-.3162-2.1844c.3162-1.27935-1.6438-1.55622-2.25-1.71872l-.535 2.16692c.6075.155 2.4856.7743 2.785-.4482Z" fill="#FEFEFE"/></svg>