<svg width="24" height="24" viewBox="0 0 24 24" fill="none" xmlns="http://www.w3.org/2000/svg"><circle cx="12" cy="12" r="10" fill="#F7931A"/><path fill-rule="evenodd" clip-rule="evenodd" d="M13.7194 11.9722c.6055-.1468 1.0635-.5584 1.1898-1.4054.1743-1.15696-.6776-1.77371-1.845-2.18154l.3877-1.56793-.9254-.23215-.3777 1.52652c-.2427-.06149-.4922-.11921-.7405-.17568l.3802-1.53719-.9247-.23214-.3877 1.5673c-.2016-.0458-.3995-.0916-.59113-.13991l.00125-.00439-1.27567-.32125-.25202 1.01894s.68637.15874.67143.16815c.37524.09474.44182.34948.42937.55213l-.44181 1.78624c.03281.0083.06504.0188.09645.0314l-.09832-.0245-.61854 2.5022c-.04667.1173-.16366.2936-.42626.229.00933.0132-.67206-.1694-.67206-.1694l-.46547 1.093 1.20411.303c.13569.0342.26955.0694.40213.1041l.00031.0001c.08621.0227.17188.0451.25717.0671l-.39203 1.5862.92346.2321.3883-1.5686c.24488.067.49053.1312.73673.1927l-.38639 1.5622.92469.2322.3921-1.5824c1.578.2981 2.7666.1675 3.2744-1.305.4088-1.1858-.0106-1.866-.8389-2.3071Zm4.1905 3.725.3391-1.3696 1.3584.3419.2259-.9135-1.3584-.3413.3385-1.3697-.9054-.2277-.3391 1.3696-1.3585-.3413-.2259.9129 1.3585.3413-.3385 1.3703.9054.2271Zm-5.1332-2.0654c.2747-1.1111-1.3232-1.4718-2.1047-1.6483-.0879-.0198-.1654-.0373-.2288-.0533l-.51839 2.1c.05196.013.11289.0292.18109.0474.7552.2013 2.4038.6406 2.6721-.4464l-.0013.0006Zm-1.4336-4.525c.6516.14493 1.9862.44181 1.7367 1.4531-.245.9892-1.6205.6178-2.2487.4481-.0563-.0152-.1066-.0288-.1496-.0396l.4711-1.90551c.0527.01325.1173.02762.1905.04391Z" fill="#fff"/></svg>