<svg width="24" height="24" viewBox="0 0 24 24" fill="none" xmlns="http://www.w3.org/2000/svg"><path d="M12 22c5.5228 0 10-4.4772 10-10 0-5.52285-4.4772-10-10-10C6.47715 2 2 6.47715 2 12c0 5.5228 4.47715 10 10 10Z" fill="#4BCF51"/><path d="M6.80265 9.05325c.34457-.09068.67352-.20843 1.01809-.29912.34457-.09068.67352-.20843 1.01809-.29912.09681-.01981.10825-.0625.08844-.15931-.15737-.52258-.29912-1.01809-.45649-1.54067-.01981-.09681-.00838-.1395.08844-.15931.31751-.07506.59233-.16156.89421-.26368.09681-.01981.11244.00725.11663.077.14174.49551.29911 1.01809.44084 1.5136.0156.02707.0313.05413.0355.12388.2477-.07087.5225-.15737.7703-.22825.0271-.01562.0229-.08537.0343-.12806-.1219-.3987-.2282-.77033-.3231-1.18465l-.1063-.37164c-.0313-.05413-.0198-.09681.0499-.101.3175-.07506.6194-.17718.964-.26787.027-.01562.0427.01144.0697-.00419.122.3987.2283.77034.3346 1.14197.051.15094.1021.30188.1261.46845.0198.09681.0625.10825.1593.08844l1.1275-.10967c.3644.00613.7329.08201 1.0786.24326.478.26533.755.68272.8968 1.17823.0907.34457.1387.6777.0472 1.01921-.0687.25615-.2227.48935-.3923.69555-.0271.0156-.0385.0583-.0926.0896.1551.0187.2946.0103.4497.029.4654.0561.8538.2288 1.1808.5451.226.2665.3864.6069.4771.9514.1105.4414.1627.8443.091 1.2826-.0946.5237-.3641.9319-.7658 1.2361-.5215.4093-1.094.6676-1.6822.899-.0968.0198-.1353.0781-.1155.1749.1418.4955.2992 1.0181.4409 1.5136.0354.1239.0511.1509-.1155.1749-.2748.0865-.5923.1616-.8671.2481-.0969.0198-.1125-.0073-.1167-.077-.1573-.5226-.3147-1.0452-.4294-1.5563-.0312-.0541-.0198-.0968-.0896-.0926-.2477.0708-.4955.1417-.7703.2282.0865.2748.1459.5653.2324.8401.0865.2748.146.5653.2325.8401.0042.0697.0198.0968-.077.1166-.3175.0751-.6194.1772-.9213.2793-.0968.0198-.1124-.0072-.1166-.077-.1574-.5226-.3148-1.0451-.4295-1.5563-.0156-.027-.0041-.0697-.0354-.1239-.7162.197-1.43241.394-2.17567.6067-.00838-.1395-.02819-.2364-.03656-.3759-.03238-.306-.06475-.6121-.10856-.8755-.01981-.0968.00725-.1124.08844-.1593.2207-.0552.46845-.1261.67352-.2084.24773-.0709.34763-.2729.26533-.478-.44506-1.5833-.89011-3.1667-1.37785-4.7615-.07087-.24773-.34681-.41318-.63726-.35374-.29044.05944-.56526.14593-.81302.21684-.05413.0312-.09681.0198-.101-.05-.09069-.34454-.197-.71618-.28768-1.06075-.06138.14369-.06138.14369-.04994.101ZM12.0423 14.941c.027-.0156.0697-.0042.0697-.0042.4955-.1417 1.0337-.272 1.5094-.5106.3404-.1604.6381-.3323.8733-.6124.4204-.4593.2463-1.2609-.3014-1.522-.2603-.1384-.5549-.1487-.8495-.159-.6434.0106-1.2743.2305-1.878.4347-.0968.0198-.0812.0469-.0614.1437.1021.3019.1616.5923.2637.8942.1105.4414.248.8672.3742 1.3356Zm.6795-4.0729c.0541-.0313.1738-.1365.2665-.226.4517-.4052.3786-1.15682-.1577-1.46064-.2759-.16545-.6133-.1872-.9193-.15483-.4727.05637-.8984.19393-1.3669.32005-.0968.01981-.1082.0625-.0884.15932.1928.6464.37 1.2658.5357 1.9279.0042.0698.0469.0812.1166.077.1239-.0354.2207-.0552.3446-.0907.4372-.1802.8359-.3021 1.2689-.5521Z" fill="#fff"/></svg>