<svg width="24" height="24" viewBox="0 0 24 24" fill="none" xmlns="http://www.w3.org/2000/svg"><path d="M6.80489 4.02191c.55086.15023 1.10172.25039 1.65259.40063.55086.15023 1.10172.25039 1.65262.40062.1502.05008.2003 0 .2503-.15023.2004-.85133.4007-1.65259.601-2.50392.0501-.15023.1001-.20031.2504-.15023.5008.15023.9515.25039 1.4522.35055.1503.05008.1503.10015.1002.20031-.2003.80125-.4006 1.65258-.6009 2.45383 0 .05008 0 .10016-.0501.20032.4006.10015.8513.20031 1.2519.30047.0501 0 .1002-.10016.1503-.15024.1502-.65102.3004-1.25195.5008-1.90297.05-.20031.1001-.40063.1502-.60094 0-.10016.0501-.15024.1502-.10016.5008.15024 1.0016.25039 1.5525.40063.05 0 .05.05008.1001.05008-.1502.65101-.3005 1.25195-.4507 1.85289-.0501.25039-.1001.50078-.2003.75118-.0501.15023 0 .20031.1502.25039.5509.25039 1.1018.50078 1.6526.75117.5008.30047.9515.7011 1.302 1.20188.4507.75117.5008 1.55243.3005 2.35363-.1502.5509-.3505 1.0517-.7512 1.4523-.3004.3005-.7011.5008-1.1017.651-.0501 0-.1001.0501-.2003.0501.2003.1502.4006.2504.6009.4006.601.4507 1.0016 1.0016 1.2019 1.7027.1002.5509.0501 1.1518-.1001 1.7027-.2003.7011-.4507 1.302-.9014 1.8529-.5509.651-1.252 1.0015-2.0532 1.1017-1.0517.1502-2.0533.0501-3.0548-.1002-.1503-.0501-.2504 0-.3005.1503-.2003.8012-.4006 1.6525-.6009 2.4538-.0501.2003-.0501.2504-.3005.1502-.4507-.1001-.9515-.2504-1.40219-.3505-.15023-.0501-.15024-.1002-.10016-.2003.20032-.8514.40065-1.7027.65105-2.504 0-.1001.05-.1502-.0501-.2003-.40063-.1001-.80126-.2003-1.25196-.3004-.10016.4507-.2504.9014-.35055 1.3521-.10016.4507-.25039.9014-.35055 1.3521-.05008.1001-.05008.1502-.20031.1001-.50078-.1502-1.00157-.2503-1.50235-.3505-.15023-.0501-.15023-.1002-.10016-.2003.20032-.8513.40063-1.7027.65102-2.5039 0-.0501.05008-.1002.05008-.2003-1.1518-.3005-2.3036-.601-3.50548-.9014.10016-.2004.15024-.3506.25039-.5509.20032-.4507.40063-.9014.55086-1.302.05008-.1503.10016-.1503.2504-.1503.35054.1002.75117.2003 1.10172.2504.40062.1002.70109-.1001.75117-.4507.65102-2.554 1.30204-5.10797 1.90297-7.71204.10016-.40063-.15023-.85133-.60094-1.00156-.4507-.15024-.9014-.2504-1.30203-.35055-.10016 0-.15023-.05008-.10016-.15024.15024-.55086.30047-1.1518.45071-1.70266-.20031.15024-.20031.15024-.15024.10016ZM9.35888 16.3912c.05008 0 .10016.0501.10016.0501.80126.2003 1.65256.4507 2.50396.5008.6009.0501 1.1518.0501 1.7026-.1502.9515-.3005 1.3521-1.5525.8013-2.3537-.2504-.4006-.6511-.651-1.0517-.9014-.9014-.5008-1.953-.7011-2.9546-.9014-.1502-.0501-.1502 0-.2003.1502-.1002.5008-.2504.9515-.35056 1.4523-.20031.7011-.35054 1.4022-.55086 2.1533Zm4.20662-5.1079c.1001 0 .3505-.0501.5508-.1002.9515-.2003 1.4523-1.30204.9515-2.15337-.2504-.4507-.7011-.75117-1.1518-.95148-.7011-.30047-1.4022-.45071-2.1534-.65102-.1502-.05008-.2003 0-.2504.15023-.2503 1.05165-.5007 2.05321-.8012 3.10484-.0501.1002 0 .1503.1002.2003.2003.0501.3505.1002.5508.1503.7512.1001 1.4022.2504 2.2035.2504Z" fill="#F5B300"></path></svg>