<svg width="24" height="24" viewBox="0 0 24 24" fill="none" xmlns="http://www.w3.org/2000/svg"><path d="m18.3079 6.19726-.5491.54915c1.3103 1.43297 2.037 3.30439 2.037 5.24619 0 1.9418-.7267 3.8132-2.037 5.2462l.5491.5492c1.4573-1.5807 2.2663-3.6519 2.2663-5.8018s-.809-4.22108-2.2663-5.80175v.01281ZM6.75935 6.24484c1.43297-1.31035 3.30445-2.03702 5.24625-2.03702 1.9417 0 3.8132.72667 5.2462 2.03702l.5491-.54914c-1.5807-1.45726-3.6518-2.26632-5.8018-2.26632-2.14986 0-4.22104.80906-5.80171 2.26632l.56196.54914ZM6.24506 17.2443c-1.30881-1.4326-2.03451-3.303-2.03451-5.2434 0-1.9405.7257-3.81085 2.03451-5.2435l-.54915-.54915C4.23865 7.78892 3.4296 9.8601 3.4296 12.01s.80905 4.2211 2.26631 5.8018l.54915-.5675ZM17.2442 17.7515c-1.433 1.3103-3.3045 2.037-5.2463 2.037-1.9417 0-3.81318-.7267-5.24615-2.037l-.54915.5491c1.58067 1.4573 3.65185 2.2663 5.8018 2.2663 2.1499 0 4.221-.809 5.8017-2.2663l-.5619-.5491Z" fill="#5A5564"/><path d="M15.4672 10.1677c-.1099-1.14593-1.0983-1.53034-2.3485-1.64749V6.94232h-.9666v1.5486h-.7724v-1.5486h-.9592v1.58887H8.46004v1.03423s.71389-.01281.70291 0c.12872-.01416.25791.0222.36035.10142.10244.07922.17013.19511.1888.32326v4.3493c-.00275.0452-.01454.0893-.03466.1299-.02012.0406-.04817.0767-.08249.1062-.03368.0301-.0731.0531-.11588.0675-.04278.0145-.08804.0202-.13307.0167.01281.011-.70291 0-.70291 0l-.18305 1.155h1.94216v1.6145h.9665v-1.5907h.7725v1.5834h.9683v-1.5962c1.6328-.0988 2.7714-.5015 2.9141-2.03.1154-1.2301-.4631-1.7792-1.3875-2.0007.562-.2764.9098-.789.8311-1.6273Zm-1.3546 3.4376c0 1.2008-2.0575 1.0635-2.7128 1.0635v-2.1307c.6553.0019 2.7128-.1867 2.7128 1.0672Zm-.4485-3.002c0 1.0983-1.717.9647-2.2625.9647V9.63132c.5455 0 2.2625-.17207 2.2625.97198Z" fill="#F09242"/><path d="M11.9982 22c-1.9777-.0004-3.91085-.5871-5.55506-1.6861-1.64421-1.0989-2.92565-2.6607-3.6823-4.4879s-.95453-3.8377-.56862-5.7773c.38591-1.93969 1.33828-3.72135 2.73669-5.11976 1.39842-1.39842 3.18008-2.35079 5.11969-2.7367 1.9397-.38591 3.9502-.18803 5.7774.56862s3.389 2.03809 4.4879 3.6823C21.4129 8.08737 21.9996 10.0205 22 11.9982c.0002 1.3135-.2583 2.6142-.7609 3.8278-.5025 1.2136-1.2392 2.3163-2.168 3.2451-.9289.9288-2.0315 1.6655-3.2451 2.1681-1.2136.5025-2.5143.761-3.8278.7608Zm0-19.2202c-1.8221.00144-3.60278.54302-5.11709 1.55626C5.3668 5.3493 4.18686 6.78874 3.49044 8.47242c-.69643 1.68368-.87808 3.53608-.522 5.32298.35608 1.7869 1.23391 3.4281 2.52254 4.7162 1.28862 1.2881 2.9302 2.1653 4.71722 2.5207 1.7871.3553 3.6393.1729 5.3227-.5241 1.6835-.6971 3.1224-1.8776 4.1351-3.3924 1.0126-1.5147 1.5535-3.2956 1.5542-5.1176.0005-1.211-.2378-2.41028-.7011-3.52916-.4633-1.11888-1.1426-2.13546-1.9991-2.99161s-1.8734-1.53508-2.9924-1.99796c-1.1191-.46288-2.3184-.70064-3.5294-.69967Z" fill="#282138"/></svg>