<svg width="24" height="24" viewBox="0 0 24 24" fill="none" xmlns="http://www.w3.org/2000/svg"><path d="M12 22c5.5228 0 10-4.4772 10-10 0-5.52285-4.4772-10-10-10C6.47715 2 2 6.47715 2 12c0 5.5228 4.47715 10 10 10Z" fill="#FB2EA3"/><path d="M16.1451 10.7625c-.1419.9594-.6738 1.4238-1.3794 1.5863.9688.5043 1.4625 1.2787.9925 2.62-.5831 1.6662-1.9681 1.8062-3.81 1.4581l-.4481 1.7919-1.08-.2694.4412-1.7675c-.2879-.0715-.575-.1461-.8612-.2238l-.44252 1.7763-1.07938-.2688.4475-1.7956c-.2525-.0644-.50875-.1331-.77062-.1987l-1.40563-.35.53625-1.2376s.79625.2125.785.1963c.30625.0756.44188-.1238.49563-.2563l.70625-2.8324.11437.0281c-.03667-.0144-.07426-.0263-.1125-.0357l.50375-2.02183c.01313-.23-.06562-.51874-.50312-.62874.01687-.01125-.785-.19501-.785-.19501l.2875-1.15374 1.49002.37187-.0013.00625c.2238.055.455.10812.69.16187L11.3995 5.75l1.08.26875-.4338 1.74c.2894.06625.5813.1325.865.20375l.4313-1.72812 1.08.26874-.4425 1.77501c1.3643.47 2.3618 1.17437 2.1656 2.48437Zm-2.4688 3.4613c.35-1.3988-1.9987-1.7607-2.7312-1.9438l-.5931 2.3781c.7325.1819 2.9912.9075 3.325-.4343h-.0007Zm.3344-3.4807c.3175-1.2731-1.6462-1.55622-2.2562-1.70872l-.5375 2.15692c.6093.1525 2.4893.7725 2.7937-.4482Zm3.1437 4.7681c-.0523-.007-.1056-.0036-.1566.0101-.0511.0136-.0989.0372-.1408.0693-.0813.0697-.1364.1649-.1563.27-.0128.0585-.017.1185-.0125.1781.0054.068.0272.1337.0638.1913.0375.0625.0975.1212.1787.1762.0813.0544.1938.0982.3375.1313.0775.0188.1575.0275.2394.0269.0825 0 .1587-.0132.2287-.0394.0741-.0261.14-.071.1915-.1303.0515-.0593.0867-.1309.1023-.2078.0147-.0549.0184-.1121.0109-.1685-.0075-.0563-.0261-.1106-.0547-.1597-.0575-.0962-.1518-.1699-.2837-.2212l.0962-.4163c.2375.0957.4038.2325.5.4094.0963.1775.1163.3882.06.6319-.0284.1352-.0849.2629-.1656.375-.0725.0989-.1655.181-.2726.2407-.1071.0598-.2258.0958-.348.1056-.1345.0121-.27.0022-.4013-.0294-.135-.0302-.2646-.0807-.3843-.15-.1104-.0633-.2068-.1483-.2832-.25-.0743-.1011-.1251-.2174-.1487-.3406-.0252-.1414-.0199-.2865.0156-.4257.0239-.1056.0624-.2074.1144-.3025.0506-.0925.1125-.1706.1869-.2344.0737-.0637.1587-.11.255-.1387.0968-.0294.2043-.035.3237-.0181l-.0963.4168Zm1.6826-1.3206c-.0295.139-.0867.2706-.1682.3869-.0768.1063-.1687.19-.275.2519-.1099.0624-.2317.1012-.3575.1137-.1396.014-.2805.0043-.4169-.0287-.1358-.03-.2655-.0829-.3837-.1563-.1075-.0664-.1999-.1545-.2712-.2587-.0701-.1047-.117-.2232-.1375-.3475-.0221-.1401-.0157-.2831.0187-.4206.0295-.139.0866-.2706.1681-.3869.0775-.1063.1688-.1907.2756-.2519.11-.0624.2318-.1012.3576-.1137.1312-.0144.2687-.005.4125.0281.137.0299.268.0828.3875.1562.1125.0713.2025.1575.2712.2594.0688.1019.1144.2175.1375.3469.0221.1402.0158.2835-.0187.4212Zm-1.64-1.7487.0906-.3906.365.0843.0019-.0075c-.051-.0262-.0963-.0623-.1332-.1062-.0848-.0986-.141-.2186-.1625-.3469-.0104-.0648-.0083-.131.0063-.195.0113-.0527.0272-.1044.0475-.1544l.4018.0925c-.0117.0287-.0227.0577-.0331.0869-.0105.0288-.0192.0583-.0262.0881-.0173.0686-.0188.1402-.0046.2095.0143.0692.0441.1344.0871.1905.0487.0629.1089.116.1775.1563.0744.0456.1637.0806.2687.105l.8988.2075-.0963.4162-1.8893-.4362Zm1.425-1.3688c.0724.0175.1456.0232.2187.0188.0694-.0044.1374-.0222.2-.0525.0621-.0304.1166-.0744.1594-.1288.0483-.0636.0816-.1373.0975-.2156.029-.1027.0253-.212-.0106-.3125-.0406-.0925-.1096-.1698-.1969-.2206l.0906-.3944c.1356.06162.2514.15959.3347.283.0833.1235.1308.2676.1372.4164.0062.1-.0025.2012-.0256.3037-.0344.1488-.0894.275-.1644.3781-.0721.1013-.1658.1852-.2743.2458-.1086.0605-.2292.0961-.3532.1042-.2738.0219-.5475-.0428-.7825-.1849-.1075-.0672-.2012-.1542-.2763-.2563-.0731-.1008-.1244-.2158-.1506-.3375-.0281-.1238-.025-.2563.0069-.3981.0298-.1396.0936-.2697.1856-.37878.0862-.10111.1935-.18217.3144-.23749.1236-.05472.2567-.08446.3919-.08751.1412-.00499.28.0175.4174.06688l-.3206 1.3887.0007-.0006Zm-.1138 3.0419c.0206-.0801.0206-.1641.0001-.2442-.0205-.08-.061-.1537-.1176-.2139-.0547-.0596-.1194-.1092-.1912-.1463-.1492-.0784-.316-.1172-.4844-.1125-.0808.0016-.1607.0179-.2356.0481-.077.0297-.1452.0783-.1984.1414-.0532.063-.0897.1384-.106.2193-.0208.0798-.0212.1635-.0011.2435.0201.0799.06.1535.1161.214.0519.0587.1156.1069.1912.1462.1493.0782.316.1169.4844.1125.081-.002.161-.0183.2363-.0481.0772-.0294.1457-.0778.1993-.1407.0535-.0629.0903-.1384.1069-.2193Zm.0638-4.0769c-.0663-.0103-.1336-.011-.2-.0018-.0633.007-.1245.0265-.1801.0573-.0557.0308-.1047.0722-.1443.122-.041.0554-.0704.1185-.0865.1855-.0161.067-.0186.1366-.0073.2045.0125.0656.0357.125.0707.1782.0771.1117.1917.1922.3231.2268l.2244-.9725Z" fill="#fff"/></svg>