<svg width="24" height="24" viewBox="0 0 24 24" fill="none" xmlns="http://www.w3.org/2000/svg"><path d="M3.68229 18.45c.82902.8877 5.38781 5.1413 12.54271.2045 5.1749-4.0683 5.0451-12.88822 4.5484-15.55323-.1731.38795-6.177 13.67633-17.09111 15.34873ZM20.7734 3.09952c-.064-.02621-6.7205-.94193-13.30078 3.33782-4.08629 2.65627-4.62801 6.54636-4.44109 9.14496C12.5974 14.4953 20.5553 3.40534 20.7734 3.09952Z" fill="#97C554"/><path d="M20.7734 3.09952c-.064-.02621-6.7205-.94193-13.30078 3.33782-4.08629 2.65627-4.62801 6.54636-4.44109 9.14496C12.5974 14.4953 20.5553 3.40534 20.7734 3.09952Z" fill="#709B30"/></svg>