<svg width="24" height="24" viewBox="0 0 24 24" fill="none" xmlns="http://www.w3.org/2000/svg"><path d="m19.4357 10.4737-3.021 1.0358-1.4674 1.7263-.6042 2.1579H6.14314l-.94948 3.5389h9.14944c2.4169 0 5.0926-1.8126 5.9558-4.3158.6042-1.7263.1726-3.1936-.8632-4.1431Z" fill="url(#paint0_linear_96_1456)"/><path d="M8.99156 15.3937c-2.33052 0-2.41683-1.7264-2.15789-2.6758.25895-.9495 0 0 .43158-1.7263.25895-.8632.86316-1.81267 1.72631-2.50319.08632-.08632.25895-.17263.34526-.25895h.08632c.77686-.43157 1.63996-.77684 2.58946-.77684h4.4021l.3453-1.03578 2.5894 2.15789-3.7979 2.15787.3453-1.12209h-4.1431c-1.4674 0-1.89898 1.03579-2.07161 1.46739-.08632.6905-.25895 2.1579 1.55371 2.1579h4.661c2.4168 0 5.0926-1.8127 5.9558-4.31581C22.7157 6.2442 21.2484 4 18.5726 4H9.7684c-.94947 0-1.89894.25895-2.58947.77684h-.08631c-.08632.08632-.25895.17263-.34526.25895-.86316.69052-1.46737 1.55368-1.72631 2.50315L2 18.9326h3.79789l.94947-3.5389h2.58946-.43157" fill="#F37320"/><defs><linearGradient id="paint0_linear_96_1456" x1="21.2146" y1="13.2348" x2="10.1464" y2="17.3007" gradientUnits="userSpaceOnUse"><stop offset=".3633" stop-color="#D63026"/><stop offset="1" stop-color="#F37320"/></linearGradient></defs></svg>