<svg width="24" height="24" viewBox="0 0 24 24" fill="none" xmlns="http://www.w3.org/2000/svg"><path d="M5.34935 6.76318h2.81949L5.9766 12.1774s-1.146-.0189-1.49641-1.03c-.09815-.3002-.1064-.623-.02369-.928l.89285-3.45622Z" fill="#D53127"/><path d="m16.2844 6.87907-3.5851-.06296.8068-2.68695c.0743-.24597.0906-.50608.0476-.75955-.0431-.25346-.1443-.49324-.2955-.70015-.1512-.20692-.3483-.37523-.5755-.49147-.2272-.11625-.4782-.1772-.7329-.17799H8.67769L4.93667 15.567s-1.34053 5.8019 3.74102 6.327c0 0 8.03321 1.6583 10.61081-8.1427 0 0 1.3605-5.9279-3.0041-6.87223Zm-2.4503 6.72873s-.1434 2.5031-2.0139 2.9425c-.2762.0701-.5681.0398-.8243-.0856-.2931-.1511-.5961-.4646-.5886-1.1219.0049-.19.0351-.3784.0898-.5603l.6908-2.6051h1.8855s.8542.2808.7607 1.4304Z" fill="#F47320"/><path d="M19.4607 11.019c-.3429-3.98255-3.1761-4.13994-3.1761-4.13994l-3.5852-.06296-1.54 5.3928h1.8805c.3454.0189.9751.5943.7706 1.6129" fill="url(#paint0_linear_9_14715)"/><defs><linearGradient id="paint0_linear_9_14715" x1="18.8023" y1="16.3463" x2="13.0752" y2="7.64234" gradientUnits="userSpaceOnUse"><stop offset=".41" stop-color="#F47320"/><stop offset=".5" stop-color="#F16D21"/><stop offset=".62" stop-color="#E95C22"/><stop offset=".75" stop-color="#DC4125"/><stop offset=".81" stop-color="#D53127"/></linearGradient></defs></svg>