<svg width="24" height="24" viewBox="0 0 24 24" fill="none" xmlns="http://www.w3.org/2000/svg"><path d="M18.0772 11.6933c.8434-1.0668 1.3012-2.3875 1.299-3.74738C19.3762 4.60072 16.6659 2 13.3221 2H5.97046v.75658h7.18864c2.9551 0 5.3509 2.28827 5.3509 5.24343.0018 1.14886-.3677 2.26759-1.0534 3.18929l.6206.504Z" fill="#55A49F"/><path d="M17.2573 11.0668c.8046-.8179 1.2548-1.91959 1.2534-3.06687 0-1.16117-.4612-2.27479-1.2822-3.09592-.821-.82114-1.9346-1.28254-3.0957-1.28273H7.91638v.75729h6.37792c.4687-.00028.9328.09179 1.3658.27093.4331.17915.8266.44187 1.158.77315.3315.33128.5945.72462.7739 1.15756.1794.43294.2717.89699.2717 1.36563.0006.52035-.1129 1.0345-.3325 1.50622-.2196.47173-.54.88954-.9386 1.22404l.6647.3907Z" fill="#4A8C89"/><path d="M16.058 10.4962c1.0228-.447 1.8057-1.42066 1.8057-2.5502 0-1.55232-1.4747-2.81069-3.027-2.81069H9.42957v.43203h5.35163c1.2811 0 2.5402 1.04129 2.5402 2.32456 0 1.03986-.8242 1.92171-1.8199 2.2171l.5565.3872Z" fill="#5AABA5"/><path d="M3.8082 21.2434h1.18932V22H3.8082v-.7566Z" fill="#4A8C8A"/><path d="M4.99753 19.7297h4.75659v.5402H4.99753v-.5402Z" fill="#5AABA6"/><path d="M4.99753 16.3788h5.08117v.4328H4.99753v-.4328Z" fill="#4B8F8E"/><path d="M11.0517 16.3788h3.2434v.4328h-3.2434v-.4328Z" fill="#7CC6C7"/><path d="M5.97046 14.8649H7.7v.4327H5.97046v-.4327Z" fill="#5AB5B4"/><path d="M8.673 14.8649h5.6214v.4327H8.673v-.4327Z" fill="#428989"/><path d="M10.5107 8.05426h3.6755V8.487h-3.6755v-.43274Z" fill="#549391"/><path d="M6.18686 5.13531h2.0541v.43275h-2.0541v-.43275Z" fill="#306563"/><path d="M6.72705 6.75653h7.56725v.43274H6.72705v-.43274Z" fill="#64B9B9"/><path d="M4.78116 8.05426h4.6484V8.487h-4.6484v-.43274Z" fill="#7FD6D5"/><path d="M6.07867 21.1353v.7566h8.21563c3.3452 0 6.0541-2.6022 6.0541-5.946 0-1.6056-.6378-3.1455-1.7732-4.2808-1.1353-1.1354-2.6752-1.77325-4.2809-1.77325H8.99754v.64915h5.13526c1.4192.0001 2.7802.5641 3.7837 1.5677 1.0034 1.0036 1.5672 2.3647 1.5672 3.7839 0 2.9558-2.3958 5.2434-5.3509 5.2434l-8.05413-.0007Z" fill="#55A49F"/><path d="M7.37546 11.5132v.7573h7.89184c.4685-.0001.9325.0921 1.3653.2713.4329.1792.8263.442 1.1576.7733.3313.3312.5941.7245.7735 1.1573.1793.4329.2716.8968.2716 1.3653 0 .9463-.3759 1.8539-1.0451 2.523-.6691.6691-1.5766 1.045-2.5229 1.045h-4.6484v.8648h4.484c.575 0 1.1443-.1133 1.6755-.3333.5312-.2201 1.0139-.5426 1.4204-.9492.4065-.4066.729-.8893.949-1.4206.2199-.5312.3331-1.1006.333-1.6756 0-1.1611-.4612-2.2748-1.2822-3.0959-.821-.8211-1.9346-1.2825-3.0957-1.2827H7.37546Z" fill="#4A8C89"/><path d="M9.64593 13.1353v.432h6.10817c1.2812 0 2.5402 1.0413 2.5402 2.3245 0 1.2812-1.2562 2.3246-2.5402 2.3246H3.70001v.5402H15.8082c1.5523 0 3.0271-1.2583 3.0271-2.8107 0-1.5523-1.4748-2.8106-3.0271-2.8106H9.64593Z" fill="#5AABA5"/></svg>