<svg width="24" height="24" viewBox="0 0 24 24" fill="none" xmlns="http://www.w3.org/2000/svg"><path d="m14.6301 5.88556-.3366.08415v1.22015c0 .63111-.4207 1.17808-1.0098 1.38845L9.87573 9.63017v1.85123l4.45987-1.3884c1.0519-.33661 1.683-1.22017 1.683-2.44032v-.84149c.042-.54696-.6311-1.17808-1.3885-.92563ZM7.51957 5.3386l6.31113-1.97749c.6732-.21037 1.2202-.21038 1.5568-.1683l-.7995-.58904c-.3786-.25245-1.4726-.88356-2.861-.46282L5.79453 4.07637 7.51957 5.3386Z" fill="#0E0E0E"/><path d="M17.1125 10.8082s1.0939-1.00974 1.0939-3.19761v-.92563c0-1.43052-1.6409-3.74461-4.2915-2.90312L7.72994 5.75933V17.3297l1.76712-.5469v-2.8611l5.63794-1.7671c1.0519-.3366 1.9354.5049 1.9354 1.4305v1.136c0 1.136-1.0098 2.7769-2.6086 3.2818l-8.66727 2.6928L7.51957 22l7.78373-2.4403c1.6409-.5049 3.4501-1.9354 3.4501-4.9227v-1.136c.0421-1.8513-1.6409-2.6928-1.6409-2.6928Zm-2.6086-.2945-5.00684 1.5988V7.06363l5.00684-1.59882c1.0519-.3366 1.9775.50489 1.9775 1.38845v.84148c0 1.38845-.7994 2.44026-1.9775 2.81896Z" fill="#0E0E0E"/><path d="M16.6076 14.6791v-1.0939c0-.6311-.6311-1.2202-1.3464-1.0098l-.3786.1262v1.5568c0 .7573-.5049 1.4305-1.2202 1.6829l-6.39528 1.9775V5.67521L5.5 4.37091V20.3171l8.7935-2.7769c1.3885-.4208 2.3141-1.8092 2.3141-2.8611Z" fill="#0E0E0E"/></svg>