<svg width="24" height="24" viewBox="0 0 24 24" fill="none" xmlns="http://www.w3.org/2000/svg"><path d="M17.816 15.3962V5.43396l2.9057 1.66038v9.96226l-5.3585 3.0566-2.9057-1.6604 5.3585-3.0566ZM3.25 10.9434l2.90566-1.66038v6.07548l8.75474 4.9811L12.0047 22 3.25 17.0189v-6.0755ZM12.0047 2l5.3585 3.01887v3.32075l-5.3585-3.01887L3.25 10.3396V7.01887L12.0047 2Zm-3.283 5.92453 1.9623-1.13208v4.18865c.2264-.1509.6792-.5283 1.3962-.5283.9434 0 1.7358.3019 2.3773.9812.6793.6415.9812 1.4339.9812 2.3396 0 .9056-.3396 1.6981-.9812 2.3396-.6792.6415-1.4339.9811-2.3773.9811s-1.7359-.2641-2.37737-.9434c-.67924-.6415-.98113-1.4339-.98113-2.3396V7.92453Zm2.3774 6.86797c.2641.2641.6037.415.9811.415.3773 0 .717-.1509.9811-.415.2642-.2642.4151-.6038.4151-.9812 0-.3773-.1509-.717-.4151-.9811-.2641-.2642-.6038-.4151-.9811-.4151-.3774 0-.717.1509-.9811.4151-.2642.2641-.4151.6038-.4151.9811.0377.3774.1509.6793.4151.9812Z" fill="url(#paint0_linear_96_1440)"/><defs><linearGradient id="paint0_linear_96_1440" x1="11.9883" y1="2.01532" x2="11.9883" y2="21.9848" gradientUnits="userSpaceOnUse"><stop stop-color="#FEE276"/><stop offset="1" stop-color="#F0B734"/></linearGradient></defs></svg>