<svg width="24" height="24" viewBox="0 0 24 24" fill="none" xmlns="http://www.w3.org/2000/svg"><path fill-rule="evenodd" clip-rule="evenodd" d="M13.1937 10.8485c-.3486-.0551-.7066-.0358-1.0583-.039-.5224 0-1.0448.0068-1.5645-.0031-.0062.9453-.0062 1.8905 0 2.8356.6273-.0067 1.2518-.0032 1.8777-.0032.332 0 .6721.0126.9902-.1066.2145-.0768.4061-.2067.5568-.3777.1507-.171.2555-.3774.3047-.5999.0739-.3741.0354-.7836-.1792-1.1062-.2034-.3226-.5596-.526-.9274-.5999Z" fill="#149F49"/><path fill-rule="evenodd" clip-rule="evenodd" d="M12 2C6.47715 2 2 6.47715 2 12c0 5.5228 4.47715 10 10 10 5.5228 0 10-4.4772 10-10 0-5.52285-4.4772-10-10-10ZM7.83333 13.7518c.53226.0094 1.04167-.3293 1.2612-.81.10207-.2253.14642-.4724.12904-.7191.0224-.4776-.20968-.9646-.61604-1.2258-.22402-.1613-.5-.2241-.77106-.242-.00314-.3777 0-.7518-.00314-1.12587.39024.01613.77061-.16442 1.03047-.45161.25121-.28248.38011-.65307.35842-1.03047-.0448-.45788-.31362-.90009-.72894-1.10976-.20027-.11604-.42921-.15816-.65815-.16757-.00672-.41308 0-.82258-.00314-1.23252 1.77733-.00314 3.55461-.00628 5.33511 0 .7066.0448 1.423.2939 1.9485.78091.3538.33142.5913.76802.6774 1.24507.0775.57079.026 1.19355-.3194 1.67429-.2191.34184-.5547.59005-.9127.77733.5547.2128 1.0516.603 1.3289 1.1353.3808.7294.371 1.6519-.0385 2.3647-.281.5-.7518.8772-1.2774 1.0968-.5255.2195-1.1097.2966-1.6774.2903H7.83378c-.00134-.418.00179-.8342-.00134-1.25h.00089Zm8.33337 4.6093c-1.1322.013-2.2675.0036-3.4051.0067-1.642-.0031-3.28355.0063-4.92558-.0067-.00986-.4449-.00986-.8934 0-1.3418 1.71595-.013 3.43238 0 5.15238-.0032 1.0582.0032 2.1196-.0098 3.1774.0032.0085.4484.0085.8969-.0014 1.3418h.0023Z" fill="#149F49"/><path fill-rule="evenodd" clip-rule="evenodd" d="M12.2679 9.5806c.2804-.00627.5645.02599.8351-.06138.4453-.12589.8454-.49686.9162-.96774.0645-.38709-.0094-.81586-.2805-1.1129-.2871-.31944-.7325-.47401-1.155-.45788h-2.0192c.0031.86783.0031 1.73207 0 2.59856l1.7034.00134Z" fill="#149F49"/><path d="M12.8967 15c.5677.0063 1.1515-.0645 1.6775-.2903.5259-.2258.9964-.5968 1.2773-1.0968.4095-.7128.4193-1.6353.0385-2.3647-.2773-.5322-.7742-.9224-1.3288-1.1353.3584-.18724.6935-.43545.9126-.77729.3454-.48074.397-1.1035.3194-1.67429-.0861-.47705-.3236-.91365-.6774-1.24507-.5264-.48701-1.2433-.73566-1.9485-.78091-1.7804-.00628-3.55775-.00314-5.33509 0 .00314.40994-.00358.81944.00314 1.23252.22894.00941.45789.05153.65816.16757.41577.20967.68369.65188.72894 1.10976.02169.3774-.10721.74799-.35842 1.03047-.26165.28719-.64203.46774-1.03047.45161.00314.37413 0 .74823.00313 1.12593.27106.0192.54839.0806.77106.2419.40637.2612.63844.7482.61604 1.2258.01738.2467-.02696.4938-.12903.7191-.21953.4807-.72894.8194-1.2612.81.00314.4158 0 .832 0 1.2482L12.8967 15ZM14.3 12.5547c-.0492.2225-.1541.4289-.3048.5999-.1506.171-.3422.3009-.5568.3777-.3159.1192-.6582.1066-.9901.1066-.6273 0-1.2518-.0036-1.8777.0032-.0063-.9454-.0063-1.8906 0-2.8356.5197.0098 1.0421.0031 1.5645.0031.3517.0032.7097-.0161 1.0582.039.3679.0739.7227.2773.9257.5999.2164.3226.2549.7321.181 1.1062Zm-3.7357-5.57393h2.0193c.4225-.01613.8678.13844 1.155.45788.271.29705.345.72581.2804 1.11291-.0707.47087-.4708.84184-.9162.96774-.2688.08736-.5546.05511-.8351.06138h-1.7025c.0022-.86783.0022-1.73208-.0009-2.59991Z" fill="#fff"/><path d="M12.9871 17.0162c-1.7191.0031-3.43548-.0099-5.15233.0031-.00985.4481-.00985.8961 0 1.3419 1.64203.013 3.28363.0036 4.92563.0067 1.1358-.0031 2.2711.0063 3.405-.0067.0099-.4449.0099-.8934 0-1.3419-1.0587-.013-2.1201 0-3.1783-.0031Z" fill="#73C692"/></svg>