<svg width="24" height="24" viewBox="0 0 24 24" fill="none" xmlns="http://www.w3.org/2000/svg"><path d="M12 22c5.5228 0 10-4.4772 10-10 0-5.52285-4.4772-10-10-10C6.47715 2 2 6.47715 2 12c0 5.5228 4.47715 10 10 10Z" fill="#000"/><path d="M19.3393 10.4621c-.0988-.48014-.245-.9493-.4362-1.40064-.1885-.44455-.4192-.87004-.6888-1.27062-.2673-.39576-.5723-.76477-.9106-1.10188-.3373-.33835-.7065-.64331-1.1025-.91062-.4012-.26827-.8263-.49883-1.27-.68875-.9176-.38915-1.904-.5897-2.9006-.5897-.9967 0-1.9831.20055-2.90067.5897-.88722.37422-1.69306.91768-2.3725 1.6-.33829.33691-.64325.7057-.91063 1.10125-.26829.40138-.49886.82674-.68875 1.27062-.38915.91753-.58969 1.90394-.58969 2.90064 0 .9966.20054 1.9831.58969 2.9006.18375.4438.42125.8644.68875 1.27.26737.396.57232.7652.91063 1.1025.3373.3384.70652.6433 1.1025.9106.3975.2675.82625.4975 1.27.6888.91757.3891 1.90397.5897 2.90067.5897.9966 0 1.983-.2006 2.9006-.5897.4437-.1838.8644-.4213 1.27-.6888.396-.2673.7652-.5722 1.1025-.9106.3383-.3373.6433-.7065.9106-1.1025.2675-.3975.4975-.8262.6888-1.27.5887-1.3886.7409-2.9235.4362-4.4006Zm-7.3019 8.0281c-3.60435 0-6.51997-2.9237-6.51997-6.5206 0-3.59689 2.92375-6.52064 6.51997-6.52064 3.5969 0 6.5207 2.92375 6.5207 6.52064 0 3.5969-2.9232 6.5206-6.5207 6.5206Z" fill="#fff"/><path d="M12.1531 17.9246h.1762c.0307 0 .0607 0 .0913-.0082h.0081c.0306 0 .0531 0 .0838-.0075h.0231c.0231 0 .0462 0 .0687-.0075h.0232c.0231 0 .0462-.0075.0768-.0075h.015c.0307 0 .0613-.0081.0919-.0081.0306 0 .0538-.0075.0844-.015h.015c.0231 0 .0462-.0075.0687-.0075h.0157c.0306-.0081.0537-.0081.0843-.0156.0607-.0075.1219-.0231.1757-.0381h.0156c.0225-.0075.0531-.0075.0762-.0157h.0075c.0613-.015.115-.0306.1763-.0456-.5733.0182-1.1465-.0358-1.7063-.1606-.8425-.1838-1.6456-.5125-2.32685-1.0794-.53707-.447-.96809-1.0077-1.26188-1.6416-.29379-.634-.44301-1.3253-.43687-2.024.00551-1.0424.37641-2.0498 1.04813-2.8469.8725-1.03312 2.11247-1.57687 3.38247-1.6075h.1763V7.3708h-.1988c-.3863.00708-.771.05315-1.1481.1375-.3795.08581-.7488.21151-1.10187.375-.36.16875-.69688.375-1.01063.6125-.32421.24646-.61943.52889-.88.84188-.24533.28967-.45826.60529-.635.94122-.17484.3239-.316.6648-.42125 1.0175-.10324.3473-.17232.7037-.20625 1.0644l-.02312.3363v.1987c.0075.3906.05375.7731.1375 1.1481.08437.3832.21437.75.375 1.1025.19187.4207.53625 1.0407 1.04875 1.5075 1.04644.825 2.34067 1.2727 3.67317 1.2707h.1381Z" fill="#fff"/><path d="M13.8211 16.9443c-.3775-.0134-.7535-.0544-1.125-.1225-1.5762-.2831-2.93124-1.2475-3.42811-2.7012-.605-1.7681.32125-3.6813 2.08121-4.26252.3354-.1124.6869-.1694 1.0407-.16875.4518 0 .9031.09188 1.3168.26l.4282-.91062c-.1288-.05162-.2588-.09997-.39-.145-.4385-.13762-.8955-.20739-1.355-.20688-.4605.00086-.9178.07578-1.3544.22188-.5573.1838-1.07053.48085-1.50751.8725-.21075.18773-.40289.39539-.57375.61999-.16891.2221-.31506.4606-.43625.7119-.24678.5052-.39243 1.0539-.42875 1.615-.03812.5812.03813 1.1625.22938 1.7137.19486.5671.50803 1.0863.91875 1.5232.375.4056.81123.7118 1.33873.995.5513.2906 1.2325.4437 1.9438.5437.4593.0606 1.0718.0763 1.4312.0763.3138-.115.4438-.1688.6125-.2375.1456-.0688.2906-.1375.4363-.2219.1456-.0844.1687-.1.4131-.26.0218-.0136.0423-.029.0612-.0463-.8418.1457-1.0562.1375-1.6531.13Z" fill="#fff"/><path d="M15.7043 15.8038c-.2375.015-.5744.0375-.9569.0375-.6812 0-1.5156-.0607-2.2269-.2982-1.1025-.3668-2.1431-1.3081-2.1431-2.4718-.0002-.2755.0538-.5483.1591-.8028.1053-.2545.2598-.4857.4545-.6805.1948-.1948.426-.3492.6806-.4545.2545-.1053.5273-.1594.8027-.1591.7881 0 1.4694.4362 1.8294 1.0712l.9106-.4512c-.1428-.2688-.3262-.514-.5438-.7269-.2882-.2888-.6306-.5179-1.0075-.6742-.377-.1563-.781-.23674-1.189-.23674-.4081 0-.8121.08044-1.189.23674s-.7193.3854-1.0076.6742c-.28866.2883-.51768.6306-.67393 1.0075-.15625.3768-.23668.7808-.23668 1.1888.00204.4275.09359.8499.26875 1.24.16.3518.38246.6812.66566.9875.4975.535 1.1781.9637 1.9056 1.2087.6962.2294 1.7219.3138 2.7169.245.275-.0231.4818-.0462.8337-.1225.3396-.268.6478-.5734.9188-.9106-.2375.0231-.6738.0687-.9719.0919Z" fill="#fff"/></svg>