<svg width="24" height="24" viewBox="0 0 24 24" fill="none" xmlns="http://www.w3.org/2000/svg"><path d="M20.7834 9.06641c1.6221 1.62209 1.6221 4.24499 0 5.84989l-5.8498 5.8671c-1.6222 1.6221-4.2451 1.6221-5.84992 0l-5.86711-5.8498c-1.62209-1.6222-1.62209-4.2451 0-5.84993l5.84984-5.8671c1.62209-1.62209 4.24499-1.62209 5.86719 0l5.8498 5.84984Zm-4.3831 4.40039c.811-.8111.811-2.1225 0-2.9336l-2.9335-2.93355c-.8111-.81105-2.1225-.81105-2.9336 0L7.59964 10.5332c-.81103.8111-.81103 2.1225 0 2.9336l2.93356 2.9335c.8111.811 2.1225.811 2.9336 0l2.9335-2.9335Z" fill="#004BEF"/></svg>