<svg width="24" height="24" viewBox="0 0 24 24" fill="none" xmlns="http://www.w3.org/2000/svg"><path d="M12.1205 16.7681c.8032 0 1.6064-.2391 2.4097-.6376 2.249-1.2754 3.0522-4.2247 1.767-6.45657-1.2851-2.23188-4.257-3.02898-6.506-1.75362-1.1245.63768-1.84739 1.67391-2.249 2.86959-.32128 1.1956-.16064 2.471.48193 3.5869.80321 1.5942 2.40967 2.3913 4.09637 2.3913Zm-3.13251-5.5c.24096-.7971.72289-1.51446 1.52611-1.91301.4819-.31884 1.0442-.39855 1.6064-.39855 1.1245 0 2.1687.55797 2.8113 1.59416.8835 1.5145.3212 3.5073-1.2049 4.3841-1.5261.8768-3.5341.3188-4.41763-1.1957-.4016-.7971-.56225-1.6739-.32128-2.471ZM17.4217 8.95649c.6426 1.03623 1.6064 1.83331 2.8113 2.15221.4016.0797.8032.1594 1.2048.1594.2409 0 .4016 0 .6425-.0797-.0803-.4783-.1606-.9565-.2409-1.51452-.4016.07971-.8032 0-1.2048-.07971-.8032-.23913-1.4458-.71739-1.9277-1.43478-.4017-.71739-.5623-1.51449-.3213-2.31159.0803-.39856.3213-.7174.5622-1.03624-.4016-.31884-.7229-.63768-1.2048-.95652-.4016.47826-.6426 1.03623-.8032 1.5942-.3213 1.27537-.1607 2.47102.4819 3.50725ZM20.233 13.0217c-1.2049.3189-2.1687 1.0362-2.8113 2.1522-.6426 1.0362-.8032 2.3116-.4819 3.5072.1606.6377.4819 1.116.8032 1.5942.4016-.3188.8032-.6376 1.2048-.9565-.2409-.3188-.4016-.6377-.5622-1.0362-.241-.7971-.0804-1.5942.3213-2.3116.4016-.7174 1.1245-1.1957 1.9277-1.4348.4016-.0797.8032-.1594 1.2048-.0797.0803-.4783.1606-.9565.2409-1.5145-.6425-.1594-1.2048-.0797-1.8473.0797ZM12.0402 19.7174c1.2851 0 2.4096.7971 2.8915 1.913.482-.1594.9639-.3188 1.4458-.558-.7229-1.6739-2.3293-2.8695-4.257-2.8695-1.9277 0-3.61447 1.1956-4.25704 2.8695.48193.2392.96386.3986 1.44579.558.4016-1.1159 1.44575-1.913 2.73095-1.913ZM12.0402 5.92754c1.9277 0 3.6144-1.19566 4.257-2.86957-.4819-.23913-.8835-.39855-1.4458-.55797-.4819 1.11594-1.6064 1.91304-2.8916 1.91304-1.2851 0-2.40959-.7971-2.89152-1.91304-.48193.15942-.96385.31884-1.44578.55797.88353 1.67391 2.49 2.86957 4.4177 2.86957ZM6.73896 15.1739c-.64257-1.0362-1.60643-1.8333-2.81125-2.1522-.64257-.1594-1.20482-.1594-1.84739-.0797.08032.4783.16064.9565.24097 1.5145h.4016c.24097 0 .56225 0 .80322.0797.80321.2391 1.44578.7174 1.92771 1.4348.64257 1.1159.48192 2.471-.24097 3.4275.40161.3189.72289.6377 1.20482.9566 1.04418-1.5145 1.28514-3.587.32129-5.1812ZM3.92771 11.1087c1.20482-.3189 2.16868-1.0363 2.81125-2.15221.64257-1.03623.80321-2.31159.48192-3.50725-.16064-.63768-.48192-1.11594-.80321-1.5942-.48193.31884-.88353.63768-1.20482.95652.24097.31884.40161.63768.56225 1.03624.24096.7971.08032 1.5942-.32128 2.31159-.40161.71739-1.1245 1.19565-1.92771 1.43478-.40161.07971-.80322.15942-1.20482.07971-.08033.47822-.16065.95652-.24097 1.51452.24097 0 .40161.0797.64257.0797.40161 0 .80322 0 1.20482-.1594Z" fill="#000"/></svg>