<svg width="24" height="24" viewBox="0 0 24 24" fill="none" xmlns="http://www.w3.org/2000/svg"><path fill-rule="evenodd" clip-rule="evenodd" d="m20.681 8.46918-.629-1.67463.4369-.962c.0562-.12383.0291-.26917-.068-.36527L19.232 4.28781c-.5199-.51541-1.2956-.6926-1.9944-.45492l-.3323.11299L15.1688 2H8.78391L7.06968 3.96944l-.32321-.11154c-.70511-.2433-1.49017-.06421-2.01351.45932L3.52305 5.51879c-.07764.07693-.09889.19243-.05382.29106l.45653.99847-.6258 1.67381.40509 1.50908 1.84491 6.87849c.2124.7931.70191 1.4876 1.38279 1.9632 0 0 2.23999 1.5491 4.45035 2.956.1944.1238.3977.2143.6159.211.2181.0029.4214-.0872.6153-.2116 2.4827-1.5956 4.4469-2.9617 4.4469-2.9617.6802-.4764 1.1688-1.1717 1.3804-1.9651l1.8362-6.88112.4032-1.5112Z" fill="url(#paint0_linear_8_87)"/><path fill-rule="evenodd" clip-rule="evenodd" d="m18.718 8.80128-.0288.08966-.0458.16078c-.1222.14929-.3799.4358-.5728.63704L16.297 11.5372c-.1929.201-.3018.4531-.1917.7071l.2392.578c.1099.2538.1208.6738.0153.9557-.1071.2869-.2915.5405-.5332.7338l-.1851.1479c-.2183.1745-.605.2204-.8595.1017l-.8169-.3799c-.2543-.1182-.6338-.3662-.8434-.5509l-.7728-.6811c-.1508-.133-.1593-.3616-.019-.5046l1.8822-1.245c.2334-.1543.357-.4397.2243-.6831l-.6692-1.19362c-.1326-.24356-.1857-.56696-.118-.719.068-.152.3389-.35637.6025-.45418l2.1848-.79574c.2635-.09778.2494-.19872-.031-.22458l-1.3961-.10176c-.2807-.02587-.4864.01418-.7577.08839l-1.0566.25629c-.2713.07426-.3287.35723-.2778.6283l.4359 2.3172c.0511.2713.0761.5445.0556.6072-.0204.0628-.2619.1639-.5367.225l-.3613.0803c-.2748.0611-.725.0638-1.0003.0065l-.4372-.0913c-.2756-.0576-.5177-.156-.5384-.2186-.0204-.0628.0043-.3363.0552-.6074l.4331-2.31764c.0509-.27129-.0069-.55385-.2782-.62788l-1.05705-.25503c-.27132-.07402-.47718-.11322-.75766-.08739l-1.39605.10303c-.28048.02605-.29433.12699-.03089.22439l2.18609.79343c.26344.09759.53476.30155.60266.45355.0682.15182.0154.47525-.1169.71881l-.66787 1.19403c-.13228.2436-.00849.529.22514.6831l1.88383 1.2431c.1406.1428.1323.3716-.0183.5046l-.7722.6821c-.2091.185-.5884.4331-.84266.552l-.81629.381c-.25428.1186-.64125.0734-.85953-.1007l-.18506-.1477c-.24214-.1931-.42701-.4464-.54306-.7561-.0971-.2592-.08687-.6788.02259-.933l.23876-.578c.10969-.2542.00037-.5063-.19279-.7071L5.87212 9.69606c-.19295-.2008-.45106-.48712-.57332-.636l-.04619-.16101-.02877-.08966c-.00276-.10321.03494-.43226.07775-.52133.0428-.08861.20679-.34844.36456-.57696l.37993-.55073c.15781-.22856.43062-.59205.60611-.80784l.55687-.68397c.17549-.21565.32522-.39121.34777-.38976.00108-.00145.2283.04005.50495.09197l.84353.15866c.27665.05196.58181.10909.67828.12681.09629.01794.39441-.03711.66251-.12219l.6068-.1925c.2679-.08527.6746-.19745.9035-.24959l.2121.00313.2122-.00335c.2289.05173.6357.1635.9038.24836l.6071.19186c.2682.08486.5663.1395.6626.12156.0828-.01541.3193-.06015.5597-.10563l.1183-.0224.8434-.1593c.2766-.05237.5038-.09405.52-.09283.0075-.00122.1572.17371.3331.38954l.5577.68334c.176.21542.449.57849.6072.80702l.3805.55009c.1581.22834.4049.64397.4202.73843.0158.09446.0262.25625.0237.3595Zm-6.6344 5.51592c.0247 0 .2581.0861.5183.1918l.2416.098c.2602.1055.6789.294.9299.419l.7126.3544c.2511.1248.2692.3583.04.5189l-.6077.4258c-.2292.1606-.5895.4391-.8005.6197-.0579.0495-.1257.1074-.198.1692-.1919.1641-.4157.3553-.5685.486-.2104.18-.5514.1808-.7577.0023-.2066-.1787-.5484-.4713-.7599-.65-.2113-.1789-.5724-.4554-.8026-.6143l-.60569-.4191c-.23024-.1594-.21382-.3939.03599-.5213l.7164-.3654c.2498-.1276.667-.3186.9272-.4241l.2415-.0985c.2601-.1057.4933-.1924.5182-.1924H12.0836Z" fill="url(#paint1_linear_8_87)"/><defs><linearGradient id="paint0_linear_8_87" x1="3.29996" y1="22.1411" x2="20.681" y2="22.1411" gradientUnits="userSpaceOnUse"><stop stop-color="#F50"/><stop offset=".409877" stop-color="#F50"/><stop offset=".49434" stop-color="#FF4530"/><stop offset=".572365" stop-color="#FF2000"/><stop offset="1" stop-color="#FF2000"/></linearGradient><linearGradient id="paint1_linear_8_87" x1="11.971" y1="20.6922" x2="18.2821" y2="20.6922" gradientUnits="userSpaceOnUse"><stop stop-color="#fff"/><stop offset="1" stop-color="#F4F4F4"/></linearGradient></defs></svg>