<svg width="24" height="24" viewBox="0 0 24 24" fill="none" xmlns="http://www.w3.org/2000/svg"><g clip-path="url(#clip0_139_413)"><circle cx="12" cy="12" r="10" fill="#EDF0F4"/><path fill-rule="evenodd" clip-rule="evenodd" d="m13.3813 11.1392-3.1746-3.17459-1.76976.47367 2.25146-2.27162 2.6929 4.97254Zm-2.7626 1.7216 3.1746 3.1746 1.7684-.4737-2.2501 2.2716-2.6929-4.9725Zm-2.65409.9325 2.03549-4.31517-3.11559 3.11697-.71785.7165 2.27161 2.2501-.47366-1.7684Zm4.89619-.412 3.1759-3.1759-.475-1.76847 2.2716 2.25147-4.9725 2.6929Z" fill="#040000" opacity=".8"/><path fill-rule="evenodd" clip-rule="evenodd" d="m11.405 6.88451 3.1156 3.11425-1.1392 1.14044-2.6929-4.97254.7165.71785Zm1.9066 10.94879-3.83214-3.8334 1.13924-1.1391 2.6929 4.9725Zm-2.1724-7.2146-1.1391-1.14057-2.03547 4.31517 3.17457-3.1746Zm6.6941.0697-3.8334 3.8321-1.1391-1.1392 4.9725-2.6929Z" fill="#323333" opacity=".8"/><path fill-rule="evenodd" clip-rule="evenodd" d="m13.3115 6.16666 3.5665.95533-2.5212.99295-1.0453-1.94828ZM6.16666 10.6884l.95666-3.56641.99161 2.51988-1.94827 1.04653Zm11.66664 2.6232-.9553 3.5664-.9929-2.5212 1.9482-1.0452ZM7.12329 16.8767l3.56511.9566-1.04522-1.9495-2.51989.9929Z" fill="#555" opacity=".8"/><path fill-rule="evenodd" clip-rule="evenodd" d="M10.6884 6.16666 8.4369 8.43828l-.322 1.20359-.99161-2.51988 3.56511-.95533Zm2.6231 11.66664 2.2502-2.2716.3234-1.2049.9929 2.5212-3.5665.9553Zm-4.87323-2.2716-2.27161-2.2501.95666 3.5651 2.51989-.9929-1.20494-.3221Zm9.39503-4.8733-2.2716-2.25146-1.2049-.322 2.5212-.99295.9553 3.56641Z" fill="#323333" opacity=".8"/><path fill-rule="evenodd" clip-rule="evenodd" d="m12.8608 6.61886.4508-.4522 1.0452 1.94828-1.496-1.49608ZM6.16666 10.6884l1.94827-1.04652-1.49607 1.49732-.4522-.4508Zm11.66664 2.6232-1.9482 1.0452 1.496-1.496.4522.4508Zm-7.1449 4.5217.4508-.4522-1.496-1.4973 1.0452 1.9495Z" fill="#040000" opacity=".8"/></g><defs><clipPath id="clip0_139_413"><path fill="#fff" d="M2 2h20v20H2z"/></clipPath></defs></svg>