<svg width="24" height="24" viewBox="0 0 24 24" fill="none" xmlns="http://www.w3.org/2000/svg"><path d="M7.13075 11.9247c-.02219.3865.10994.7659.36735 1.055.25741.289.61904.4641 1.00545.4867h.07963c.28457-.0004.56283-.084.80043-.2406.23759-.1566.42413-.3794.53658-.6408.11241-.2615.14591-.5501.09621-.8303-.0497-.2802-.18035-.5397-.37583-.7465-.19548-.2068-.44724-.3519-.72421-.4173-.27697-.0654-.56701-.0482-.83435.0494-.26733.0975-.50025.2712-.67.4996-.16975.2284-.26891.5015-.28524.7856l.00398-.0008ZM1.69689 11.5553c-.09291-.0052-.18526.0172-.26541.0645-.08014.0473-.14447.1172-.18485.2011-.04039.0838-.05502.1777-.04205.2699.01297.0921.05296.1783.11493.2477.06196.0694.14311.1189.23318.1422.09008.0234.18505.0194.27291-.0112.08785-.0307.16465-.0867.22068-.1609.05604-.0743.0888-.1636.09414-.2564.00365-.0618-.00493-.1237-.02527-.1822-.02033-.0584-.05202-.1123-.09323-.1585-.04122-.0461-.09115-.0837-.14693-.1105-.05578-.0268-.1163-.0424-.1781-.0457ZM7.03838 3.46738c.08274-.04249.15106-.1085.19637-.18974.0453-.08124.06556-.17406.05822-.26678-.00734-.09272-.04194-.18121-.09946-.25431-.05751-.0731-.13536-.12755-.22376-.1565-.08839-.02895-.18337-.0311-.27299-.00618-.08961.02491-.16985.07578-.23062.1462-.06077.07042-.09934.15725-.11087.24954-.01153.0923.0045.18594.04608.26915.02795.05569.06664.1053.11385.14597.04721.04067.10201.07159.16122.09098.05922.0194.12169.02688.18381.02202.06213-.00487.12267-.02198.17815-.05035ZM8.51708 6.04576c.12851-.06482.2349-.16628.30575-.29156.07084-.12529.10295-.26876.09226-.41228-.01068-.14353-.06368-.28067-.1523-.39408-.08861-.11341-.20886-.198-.34554-.24308-.13668-.04508-.28366-.04862-.42235-.01017-.1387.03844-.26288.11714-.35686.22615-.09397.10901-.15351.24343-.1711.38628-.01758.14284.00758.2877.0723.41624.04301.08541.10242.16151.17485.22394.07242.06243.15644.10999.24725.13993.09081.02995.18663.04172.28199.03462.09536-.0071.18838-.03292.27375-.07599ZM3.54109 7.81909c.09911.06518.21533.0995.33396.0986.11862-.00089.23431-.03695.33244-.10361.09812-.06666.17427-.16093.2188-.27088.04453-.10995.05545-.23064.03137-.3468-.02408-.11616-.08207-.22256-.16664-.30575-.08457-.08319-.19191-.13942-.30845-.16159-.11654-.02216-.23703-.00926-.34623.03707-.10921.04634-.20221.12402-.26725.22323-.08711.13287-.11792.29488-.08567.45045.03224.15557.12492.29199.25767.37928ZM4.42735 11.2901c-.14368-.0081-.28655.0266-.41053.0996-.12398.0731-.22352.1813-.28603.3109-.06251.1297-.08519.2749-.06517.4174.02003.1425.08185.2759.17766.3833s.22131.184.36063.22c.13932.0361.28621.0301.42209-.0173.13589-.0474.25468-.134.34136-.2489.08667-.1149.13734-.2529.1456-.3966.01087-.1928-.05523-.382-.18379-.5261-.12855-.144-.30904-.2312-.50182-.2423ZM3.62072 16.1833c-.10583.0535-.19341.1371-.2517.2404-.05829.1032-.08465.2214-.07576.3397.00888.1182.05263.2312.12569.3245.07307.0934.17218.163.28481.2001.11263.0371.23371.0399.34795.0081.11424-.0317.2165-.0966.29386-.1865.07736-.0898.12634-.2006.14076-.3183.01441-.1177-.00639-.237-.05977-.3428-.03548-.0704-.08447-.1331-.14417-.1845-.05971-.0514-.12896-.0905-.2038-.1151-.07484-.0247-.1538-.0343-.23236-.0284-.07857.0059-.1552.0273-.22551.0628ZM6.44992 9.78592c.14173.09288.30781.14165.47726.14015.16944-.00151.33463-.05322.47469-.1486.14005-.09539.24868-.23016.31214-.38728.06346-.15711.07891-.32952.0444-.49542-.03452-.16589-.11745-.31783-.23831-.4366-.12086-.11877-.27423-.19903-.4407-.23064-.16648-.03161-.33859-.01314-.49457.05306-.15598.0662-.28883.17716-.38176.31886-.06181.09408-.10446.19942-.12551.31-.02105.11059-.02009.22423.00284.33444s.06737.21481.13078.30782c.06341.09301.14454.1726.23874.23421ZM15.4257 5.98843c.1206.07871.2619.11988.406.1183.1441-.00157.2844-.04583.4034-.12716.1189-.08134.211-.1961.2647-.32979.0537-.1337.0666-.28031.037-.42131-.0296-.141-.1004-.27006-.2033-.37086s-.2334-.16883-.375-.19547c-.1416-.02664-.2879-.01071-.4205.04578-.1325.0565-.2453.15102-.3241.27161-.0525.08011-.0887.16979-.1064.26389-.0178.09411-.0168.1908.0029.28453.0196.09372.0576.18264.1117.26166.0541.07902.1233.14658.2036.19882ZM16.9195 3.41801c.078.05113.1694.07797.2627.07713.0932-.00083.1841-.02932.2612-.08184.0771-.05252.1368-.12672.1717-.21321.0349-.08649.0433-.18138.0243-.27268-.0191-.09129-.0648-.17487-.1314-.24018-.0665-.06531-.151-.1094-.2426-.12669-.0917-.0173-.1864-.00702-.2722.02952-.0858.03655-.1588.09773-.2099.17579-.0683.10457-.0923.23198-.0668.35426.0255.12228.0985.22942.203.2979ZM15.5403 10.5376c-.1911-.011-.3825.0158-.5632.0788-.1808.063-.3473.161-.4902.2883-.2886.2572-.4632.6186-.4854 1.0045-.0222.386.1099.7649.3671 1.0535.2572.2886.6186.4632 1.0045.4853h.0844c.2812-.0001.5563-.0816.7922-.2345.2359-.153.4225-.371.5373-.6276.1148-.2566.1529-.541.1097-.8188-.0431-.2778-.1658-.5372-.353-.7469-.1269-.143-.2809-.2594-.4532-.3422-.1722-.0829-.3593-.1306-.5502-.1404ZM8.99565 9.68479c.12098.24168.30701.44481.53717.58641.23016.1417.49528.2163.76558.2155.2491 0 .4942-.0638.7117-.1854.2175-.1215.4002-.2968.5307-.50909.1305-.21226.2044-.45443.2147-.70339.0102-.24895-.0434-.49639-.156-.7187-.1218-.24058-.3082-.44249-.5383-.58313-.2301-.14064-.4948-.21444-.7644-.21315-.2484.00042-.49259.0643-.70938.18558-.21678.12128-.39898.29593-.52932.50739-.13034.21146-.20449.45272-.21542.70088-.01093.24816.04173.495.15297.7171ZM20.4224 7.8175c.1058-.05341.1934-.137.2518-.2402.0583-.1032.0848-.22138.076-.33961-.0088-.11822-.0525-.23119-.1254-.32461-.073-.09343-.1721-.16312-.2846-.20028-.1126-.03715-.2337-.0401-.3479-.00847-.1143.03163-.2166.09642-.2941.18618-.0774.08976-.1265.20047-.141.31813-.0146.11765.0061.23698.0593.3429.0717.14206.1968.24987.3479.29974.1511.04987.3158.03772.458-.03378ZM16.7268 8.28174c-.1513.07622-.2767.19562-.3602.34308-.0835.14746-.1214.31637-.1089.48537.0125.169.0749.33049.1792.46406.1043.13357.2458.23322.4067.28634.1609.05312.334.05733.4973.01209.1633-.04523.3096-.13788.4202-.26622.1107-.12834.1808-.28661.2015-.4548.0207-.16819-.0089-.33875-.0852-.4901-.0505-.10056-.1204-.19017-.2056-.26371-.0852-.07353-.184-.12954-.2909-.16482-.1069-.03528-.2197-.04914-.3319-.04078-.1122.00836-.2217.03877-.3222.08949ZM11.9666 3.19824c.1184.00674.2362-.02179.3384-.08198.1022-.06019.1842-.14934.2358-.25618.0515-.10683.0702-.22655.0537-.344-.0166-.11746-.0676-.22737-.1466-.31584-.079-.08848-.1824-.15153-.2973-.18119-.1148-.02966-.2359-.02459-.3478.01456-.112.03915-.2098.11063-.2812.2054-.0713.09476-.1129.20855-.1196.32698-.0089.15869.0456.31443.1514.43298.1059.11856.2545.19023.4132.19927ZM11.9602 6.97184c.1692.00949.3373-.03139.4833-.11745.1459-.08606.263-.21345.3366-.36607.0735-.15261.1001-.3236.0765-.49136-.0236-.16776-.0964-.32475-.2092-.45113-.1128-.12639-.2606-.2165-.4246-.25893-.164-.04244-.3369-.03531-.4968.0205-.16.0558-.2998.15777-.4018.29302-.1021.13525-.1617.29771-.1714.46684-.0128.22701.065.44983.2164.61946s.364.27218.591.28512ZM7.31788 15.7183c.15133-.0763.27663-.1958.36006-.3433s.12124-.3165.10865-.4855c-.01259-.169-.07503-.3305-.1794-.464s-.246-.2331-.40697-.2861c-.16096-.053-.33404-.0571-.49733-.0118-.1633.0454-.30948.1381-.42005.2666-.11057.1284-.18058.2867-.20115.455-.02058.1682.00919.3387.08555.49.10236.2028.28107.3567.49684.4278.21577.0711.45094.0535.6538-.0487ZM12.5136 8.22201c-.1777.27119-.2598.5939-.2335.91705.0263.32315.1597.62829.379.86714.2192.2388.5119.3977.8316.4515.3198.0538.6483-.0006.9336-.1545.2854-.154.5113-.39866.6419-.69541.1306-.29674.1586-.62858.0794-.94298-.0792-.31441-.261-.59343-.5166-.7929-.2556-.19948-.5704-.30801-.8946-.30843-.2422-.00016-.4806.05995-.6937.17491-.2131.11497-.3942.28117-.5271.48362ZM15.0474 14.316c-.1167-.2315-.2931-.4277-.511-.5683-.2178-.1406-.4693-.2205-.7283-.2315-.2591-.0109-.5164.0474-.7454.169-.2289.1216-.4213.3022-.5573.523-.1359.2208-.2105.4738-.216.733-.0055.2593.0583.5153.1848.7416.1264.2264.311.4149.5346.5461.2236.1313.4782.2004.7375.2004.2281-.0015.4527-.056.6561-.1592.3441-.1742.6052-.4776.7261-.8439.1209-.3662.0917-.7654-.0811-1.1102ZM17.594 14.2141c-.1417-.093-.3078-.1419-.4772-.1405-.1695.0013-.3347.0529-.4748.1482-.1402.0953-.2489.23-.3125.3871-.0635.1571-.0791.3295-.0447.4954.0344.1659.1173.3179.2381.4368.1208.1188.2741.1992.4405.2309.1665.0317.3386.0133.4947-.0528.156-.0661.2889-.177.3819-.3187.1243-.19.1682-.4216.1221-.644-.0461-.2224-.1785-.4174-.3681-.5424ZM20.3842 12.0251c.0081-.1437-.0266-.2866-.0997-.4106-.0731-.1239-.1812-.2235-.3109-.286-.1296-.0625-.2748-.0852-.4174-.0652-.1425.0201-.2759.0819-.3832.1777-.1074.0958-.184.2213-.2201.3606-.036.1394-.03.2862.0174.4221.0474.1359.134.2547.2489.3414s.2529.1373.3965.1456c.1928.0109.382-.0552.5261-.1838s.2313-.309.2424-.5018ZM22.4004 11.5067c-.0931-.0054-.1857.017-.2661.0643-.0804.0472-.1449.1173-.1855.2012-.0405.0839-.0553.178-.0424.2704.0129.0923.0529.1788.1149.2484.0621.0696.1433.1192.2336.1426.0902.0234.1854.0196.2735-.0111.088-.0307.165-.0868.2211-.1612.0562-.0744.089-.1638.0944-.2569.0069-.1248-.0358-.2472-.119-.3405-.0831-.0933-.1998-.1498-.3245-.1572ZM20.502 16.1809c-.0992-.065-.2154-.0991-.334-.098-.1185.0011-.2341.0373-.3321.1041-.098.0667-.174.161-.2184.271-.0444.1099-.0552.2305-.0311.3466.0242.1161.0822.2224.1668.3055.0845.0832.1919.1393.3083.1615.1165.0221.237.0092.3461-.0371.1092-.0463.2022-.1239.2672-.2231.0432-.0658.073-.1396.0877-.217.0147-.0774.0141-.1569-.002-.234-.016-.0772-.0471-.1504-.0915-.2155-.0443-.0651-.1011-.1208-.167-.164ZM7.12438 20.582c-.07794-.0512-.1693-.078-.26252-.0773-.09322.0008-.18412.0292-.26121.0816-.07708.0524-.13689.1265-.17186.213-.03498.0864-.04354.1812-.02462.2725.01893.0913.06449.1749.13094.2403.06644.0654.15078.1096.24236.1271.09157.0174.18627.0073.27211-.029.08584-.0364.15898-.0973.21017-.1753.034-.0517.05747-.1097.06907-.1705.0116-.0608.0111-.1233-.00147-.184-.01258-.0606-.03697-.1182-.0718-.1694-.03482-.0512-.0794-.095-.13117-.129ZM17.0047 20.5326c-.0833.042-.1522.1077-.1981.1889-.0459.0811-.0667.1741-.0598.267.0069.093.0412.1819.0986.2553.0575.0735.1354.1283.2239.1575.0886.0292.1838.0314.2737.0065.0898-.0249.1702-.076.2311-.1466.0608-.0707.0994-.1578.1107-.2503.0113-.0926-.005-.1864-.047-.2697-.0278-.0553-.0663-.1046-.1132-.145-.0469-.0405-.1013-.0713-.1601-.0907-.0588-.0193-.1208-.0269-.1826-.0223-.0617.0047-.1219.0215-.1772.0494ZM11.5294 15.7756c.1778-.2712.2599-.594.2336-.9172-.0264-.3231-.1598-.6283-.3791-.8671-.2193-.2389-.5121-.3977-.8318-.4514-.3198-.0538-.64837.0007-.93371.1547-.28534.154-.51115.3988-.64169.6957-.13054.2968-.15835.6287-.07903.9431.07932.3144.26124.5934.51696.7927.25572.1994.57064.3078.89487.308.2422.0008.4807-.059.6938-.174.2131-.115.394-.2816.5261-.4845ZM8.61742 18.0124c-.12044-.0788-.26153-.1201-.40543-.1188-.14391.0014-.28418.0454-.40308.1265s-.21109.1956-.26492.3291c-.05382.1335-.06687.2799-.03749.4208.02938.1409.09986.2699.20255.3707.10269.1009.23296.169.37436.1958.1414.0268.28757.0111.42004-.0452.13246-.0562.24528-.1505.32419-.2708.10569-.1616.14291-.3586.1035-.5476-.03942-.189-.15226-.3547-.31372-.4605ZM12.0152 20.8018c-.1184-.0068-.2361.0217-.3383.0819-.1022.0602-.1842.1493-.2358.2561-.0515.1068-.0702.2264-.0538.3439.0165.1174.0674.2273.1463.3158.079.0885.1823.1516.2971.1813.1148.0298.2358.0248.3478-.0142.112-.039.2098-.1104.2813-.2051.0714-.0946.1131-.2083.1199-.3267.0046-.0786-.0065-.1574-.0324-.2318s-.0662-.1429-.1187-.2017c-.0524-.0588-.1159-.1067-.1868-.1409-.071-.0342-.148-.0542-.2266-.0586ZM12.0215 17.0289c-.1692-.0102-.3378.0299-.4842.1155-.1465.0856-.2642.2127-.3383.3652-.0742.1526-.1014.3237-.0782.4917.0232.168.0957.3254.2084.4521.1127.1268.2605.2173.4246.26.1642.0427.3373.0357.4975-.02.1601-.0558.3002-.1579.4023-.2933.1021-.1354.1618-.298.1714-.4674.0131-.2263-.0642-.4486-.2148-.618-.1507-.1694-.3623-.2722-.5887-.2858ZM15.526 17.9542c-.1286.0653-.2349.1672-.3055.2929s-.1024.2695-.0912.4133c.0111.1437.0647.2809.1538.3942.0892.1133.21.1976.3471.2422.1371.0446.2843.0476.4231.0085.1388-.0391.2628-.1185.3565-.2282.0936-.1096.1526-.2446.1695-.3878.0169-.1432-.0091-.2881-.0747-.4165-.0432-.0853-.1029-.1612-.1755-.2233-.0726-.0622-.1568-.1094-.2477-.139-.0909-.0296-.1868-.0409-.2821-.0334-.0953.0075-.1881.0337-.2733.0771Z" fill="#0033AD"/></svg>