<svg width="24" height="24" viewBox="0 0 24 24" fill="none" xmlns="http://www.w3.org/2000/svg"><path d="M22.0803 12c0-5.52285-4.4771-10-10-10-5.52283 0-9.99998 4.47715-9.99998 10 0 5.5228 4.47715 10 9.99998 10 5.5229 0 10-4.4772 10-10Z" fill="#FF0012"/><mask id="mask0_96_1460" style="mask-type:alpha" maskUnits="userSpaceOnUse" x="6" y="5" width="12" height="14"><path d="M6.08031 5.5H17.0803v13H6.08031v-13Z" fill="#fff"/></mask><g mask="url(#mask0_96_1460)"><path fill-rule="evenodd" clip-rule="evenodd" d="M16.4451 15.5534c-.3051 0-.5597.2215-.6209.5168l-2.3984-.1192c.007-.0463.0118-.0934.0118-.1418 0-.0874-.0127-.1716-.035-.2516l.8708-.5163c.1165.1462.2933.2396.4913.2396.3508 0 .6351-.2928.6351-.6539 0-.3612-.2843-.654-.6351-.654s-.6352.2928-.6352.654c0 .1062.0251.2062.0688.2949l-.8452.5011c-.1413-.3091-.4455-.5235-.7992-.5235-.4881 0-.8838.4073-.8838.9097 0 .1075.019.2101.0522.3058l-1.5656.3943c-.0118-.2282-.1044-.4342-.25002-.5874l.28242-.403c.0635.022.1314.0345.2022.0345.3508 0 .6352-.2928.6352-.6539 0-.3612-.2844-.654-.6352-.654s-.63517.2928-.63517.654c0 .2367.1226.4434.30567.5582l-.2599.3708c-.14717-.1128-.32897-.1803-.52657-.1803-.03928 0-.07765.0035-.11556.0087l-.2705-1.5867c.39538-.0905.69123-.4531.69123-.8875 0-.5024-.39565-.9098-.88371-.9098-.14763 0-.28649.0378-.40881.1037l-.68119-1.3663c.14539-.0757.26735-.1913.35286-.3331l.56434.1535c-.00429.0309-.00731.0621-.00731.0942 0 .3611.28439.6539.63519.6539.3508 0 .63518-.2928.63518-.6539 0-.3612-.28438-.654-.63518-.654-.27142 0-.50241.1756-.59335.4222l-.53346-.1451c.04348-.1076.06774-.2256.06774-.3494 0-.0746-.00969-.1467-.02613-.21607l1.56928-.74286c.16207.2055.40915.33713.68635.33713.488 0 .8837-.40734.8837-.9098 0-.17747-.0501-.34253-.1355-.48252l1.0058-1.00992c.1196.07929.2587.12951.4085.14146v.44518c-.3183.03546-.5661.31281-.5661.64989 0 .36115.2844.65393.6352.65393s.6351-.29278.6351-.65393c0-.33708-.2478-.61443-.5661-.64989v-.44518c.1291-.0103.2506-.04863.3582-.11l1.1011 1.29456c-.1128.15278-.1805.34272-.1805.54939 0 .50247.3956.9098.8837.9098.4881 0 .8837-.40733.8837-.9098 0-.10806-.0192-.21128-.0528-.3074l.3429-.19878c.1165.14249.2908.2332.4859.2332.3508 0 .6352-.29273.6352-.65388s-.2844-.65393-.6352-.65393-.6352.29278-.6352.65393c0 .1091.0264.21175.0723.30218l-.3223.18674c-.1503-.28117-.4407-.47185-.7745-.47185-.2372 0-.4521.09673-.6108.25332L13.097 7.12646c.1065-.08563.193-.19577.2523-.32231l.9438.16172c.0634.29226.3164.51078.6194.51078.3508 0 .6352-.29277.6352-.65393 0-.3611-.2844-.65388-.6352-.65388-.3496 0-.6331.29085-.635.65031l-.8768-.15029c.0237-.08216.0369-.16896.0369-.25902 0-.50246-.3957-.90984-.8837-.90984-.4881 0-.8838.40738-.8838.90984 0 .2695.1145.51084.2954.67745l-.9781.98202c-.1477-.17418-.3585-.28958-.5961-.30853v-.68464c.3183-.03541.5661-.31276.5661-.64989 0-.36115-.2843-.65388-.6351-.65388-.35085 0-.63519.29273-.63519.65388 0 .33713.24784.61448.56609.64989v.68464c-.45569.0364-.81466.42774-.81466.90622 0 .16534.04353.31996.11844.45356l-1.53297.72574c-.05577-.13656-.14293-.25615-.25223-.34921l.60024-1.10801c.05153.01387.10533.02201.16106.02201.3508 0 .63519-.29273.63519-.65393 0-.36111-.28439-.65389-.63519-.65389-.3508 0-.63519.29278-.63519.65389 0 .25295.13973.4719.34377.58066l-.58394 1.07791c-.13164-.08013-.28466-.12692-.44864-.12692-.48806 0-.88371.40734-.88371.90979 0 .5025.39565.9098.88371.9098.0941 0 .18463-.0155.26973-.0435l.692 1.388c-.17133.1311-.29557.3237-.33983.5468l-.50035-.1523c.01261-.0514.02005-.1049.02005-.1603 0-.3612-.28438-.6539-.63518-.6539-.35076 0-.63519.2927-.63519.6539 0 .3611.28443.6539.63519.6539.24798 0 .46225-.1467.56685-.3601l.53269.1622c-.00055.0132-.00197.0262-.00197.0396 0 .3209.16179.6024.40552.7644l-.34198.4618c-.11186-.1014-.25826-.1634-.419-.1634-.3508 0-.63514.2928-.63514.654 0 .3611.28434.6539.63514.6539.3508 0 .63519-.2928.63519-.6539 0-.1436-.0455-.2759-.12169-.3838l.37049-.5003c.10876.0493.22875.0771.35519.0771.01877 0 .03713-.0017.05563-.0028l.27214 1.5962c-.36582.1114-.6329.4594-.6329.8721 0 .5024.39561.9098.88367.9098.28544 0 .53849-.1399.70005-.3561l1.27932.5865c-.0106.0476-.0169.0969-.0169.1479 0 .3612.2844.6539.6352.6539s.6352-.2927.6352-.6539c0-.3611-.2844-.6539-.6352-.6539-.2524 0-.4698.1519-.5722.3715l-1.2483-.5723c.0536-.1015.0886-.2148.1012-.335l1.6255-.4094c.1503.2813.4408.4721.7747.4721.2066 0 .3962-.0736.5467-.1959l.6084.5404c-.0365.0824-.0573.1737-.0573.2702 0 .3612.2844.654.6352.654s.6351-.2928.6351-.654c0-.3611-.2843-.6539-.6351-.6539-.2068 0-.3901.1022-.506.2598l-.5786-.5139c.0853-.095.1514-.2083.1913-.3341l2.4166.1201c.0023.359.2856.6494.6349.6494.3508 0 .6352-.2928.6352-.6539 0-.3612-.2844-.6539-.6352-.6539Z" fill="#fff"/></g></svg>