<svg width="24" height="24" viewBox="0 0 24 24" fill="none" xmlns="http://www.w3.org/2000/svg"><path d="M9.89282 19.8947c3.16418 0 5.72918-2.592 5.72918-5.7895 0-3.1974-2.565-5.78943-5.72918-5.78943-3.16416 0-5.72916 2.59203-5.72916 5.78943 0 3.1975 2.565 5.7895 5.72916 5.7895Zm0 2.1053c-4.31458 0-7.8125-3.5348-7.8125-7.8948 0-4.35995 3.49792-7.89469 7.8125-7.89469 4.31458 0 7.81248 3.53474 7.81248 7.89469 0 4.36-3.4979 7.8948-7.81248 7.8948Z" fill="#FBCC5C"/><path d="M14.0595 15.6842c3.1642 0 5.7292-2.592 5.7292-5.78946 0-3.19748-2.565-5.78948-5.7292-5.78948-3.1642 0-5.72918 2.592-5.72918 5.78948 0 3.19746 2.56498 5.78946 5.72918 5.78946Zm0 2.1053c-4.31459 0-7.81251-3.5348-7.81251-7.89476C6.24699 5.53474 9.74491 2 14.0595 2c4.3146 0 7.8125 3.53474 7.8125 7.89474 0 4.35996-3.4979 7.89476-7.8125 7.89476Z" fill="#35D07F"/><path d="M14.3157 17.7852c.5415-.6629.9296-1.4397 1.1359-2.2736.8252-.2085 1.5939-.6006 2.25-1.1476-.0299.9655-.2357 1.9172-.6071 2.8074-.881.3754-1.8229.5835-2.7785.6138h-.0003ZM8.50096 8.48798c-.8252.20847-1.59391.60054-2.25 1.14758.02991-.96553.23571-1.91723.60708-2.80736.881-.37533 1.82292-.5833 2.77854-.61348-.54129.66288-.92927 1.43953-1.13562 2.27326Z" fill="#5EA33B"/></svg>