<svg width="24" height="24" viewBox="0 0 24 24" fill="none" xmlns="http://www.w3.org/2000/svg"><g clip-path="url(#clip0_117_826)" fill="#262761"><path d="M17.0087 10.2843c.268 0 .4852-.2173.4852-.48531s-.2172-.48527-.4852-.48527-.4853.21726-.4853.48527c0 .26801.2173.48531.4853.48531Z"/><path d="M12.0173 2C6.4714 2 2 6.4714 2 12.0173c0 5.546 4.4714 10.0174 10.0173 10.0174 5.546 0 10.0174-4.4714 10.0174-10.0174C22.0347 6.4714 17.5286 2 12.0173 2Zm4.5408 14.1768c-1.1786 1.3171-2.877 2.045-4.6101 2.045-1.7678 0-3.4662-.7625-4.64471-2.0797-1.21317-1.3518-1.7331-3.0502-1.55979-4.8527.31196-2.87692 2.59965-5.16462 5.4766-5.51124.2426-.03466.4853-.03466.7279-.03466 1.3865 0 2.7036.45061 3.8128 1.31716.0694.03466.104.13865.104.20797 0 .10399-.0346.17331-.104.24263l-.6585.58926c-.0694.06932-.1734.10399-.2773.10399-.0694 0-.1734-.03467-.208-.06933-.7972-.55459-1.7331-.83189-2.669-.83189-1.3518 0-2.63431.58926-3.50086 1.59446-.90121 1.0052-1.31716 2.32235-1.14385 3.67415.24264 2.1491 1.97574 3.8822 4.12481 4.1248.1733.0347.3466.0347.5546.0347 1.2478 0 2.4263-.4853 3.3275-1.3865.0693-.0693.1733-.104.2773-.104.0693 0 .1387.0347.208.0693l.7279.4853c.0693.0347.104.104.1386.208-.0346.0346-.0693.104-.1039.1733Zm.4506-4.8527c-.8319 0-1.5252-.6933-1.5252-1.52514 0-.83189.6933-1.52513 1.5252-1.52513.8319 0 1.5251.69324 1.5251 1.52513 0 .83184-.6932 1.52514-1.5251 1.52514Z"/></g><defs><clipPath id="clip0_117_826"><path fill="#fff" d="M2 2h20v20H2z"/></clipPath></defs></svg>