<svg width="24" height="24" viewBox="0 0 24 24" fill="none" xmlns="http://www.w3.org/2000/svg"><path d="M22.0803 12c0-5.52285-4.4771-10-10-10-5.52282 0-9.99998 4.47715-9.99998 10 0 5.5228 4.47716 10 9.99998 10 5.5229 0 10-4.4772 10-10Z" fill="#000"/><path d="M6.80256 15.3343c-.3863-.8148-.60208-1.7237-.60208-2.6823 0-3.50454 2.8837-6.34547 6.44092-6.34547 1.9807 0 3.7526.88087 4.9341 2.26661l.7048-.58267c-1.3502-1.58372-3.3752-2.59045-5.6389-2.59045-4.06539 0-7.36105 3.24681-7.36105 7.25198 0 1.0955.24659 2.1343.6881 3.0655l.83411-.3832Z" fill="#fff"/><path d="M12.6876 17.3699c-2.3684 0-4.28843-1.9788-4.28843-4.4197s1.92003-4.41971 4.28843-4.41971c1.3188 0 2.4983.61371 3.2849 1.57891l.6918-.59825c-.9522-1.16839-2.3803-1.91111-3.9767-1.91111-2.86707 0-5.19126 2.39533-5.19126 5.35016 0 2.9548 2.32419 5.3501 5.19126 5.3501v-.9304Z" fill="#fff"/><path d="M14.4548 14.2856c-.3839.4367-.9595.7144-1.6032.7144-1.1558 0-2.0928-.8954-2.0928-1.9999 0-1.1046.937-2 2.0928-2 .6437 0 1.2193.2777 1.6032.7144l.8016-.6427c-.5759-.6552-1.4393-1.0717-2.4048-1.0717-1.7337 0-3.13923 1.3431-3.13923 3 0 1.6568 1.40553 3 3.13923 3 .8848 0 1.6837-.3501 2.2543-.9128l-.6511-.8017Z" fill="#fff"/></svg>