<svg width="24" height="24" viewBox="0 0 24 24" fill="none" xmlns="http://www.w3.org/2000/svg"><path fill-rule="evenodd" clip-rule="evenodd" d="M6.92171 17.885c1.0278.6108 2.20358.9339 3.40219.9349 1.3101-.002 2.5904-.3884 3.6791-1.1104 1.0886-.7219 1.9371-1.747 2.4384-2.9459h-1.9068c-.556.9188-1.4008 1.6317-2.4048 2.0294-1.004.3977-2.112.4584-3.15414.1726-1.04214-.2858-1.96097-.9021-2.61571-1.7547-.65474-.8526-1.00927-1.8943-1.00927-2.9656 0-1.0713.35453-2.113 1.00927-2.9656.65474-.85257 1.57357-1.46896 2.61571-1.75473 1.04214-.28576 2.15014-.22513 3.15414.1726 1.004.39772 1.8488 1.11062 2.4048 2.02945h1.9074c.2265.54068.3789 1.10898.4532 1.68978h-3.4606c-.2056-.748-.6783-1.3966-1.3302-1.8253-.6519-.4287-1.4388-.60836-2.21433-.50562-.77558.10275-1.48708.48094-2.00241 1.06432-.51532.5833-.79936 1.3322-.79936 2.1073 0 .7752.28404 1.5241.79936 2.1074.51533.5834 1.22683.9615 2.00241 1.0643.77553.1027 1.56243-.0769 2.21433-.5056.6519-.4287 1.1246-1.0773 1.3302-1.8253l3.4606-.0122c-.0754.5763-.2276 1.1402-.4529 1.6768h1.8038c-.606 1.8718-1.8672 3.4674-3.556 4.4992-1.6889 1.0319-3.6943 1.4319-5.6546 1.128-1.9603-.3038-3.74652-1.2916-5.03654-2.7852C2.70893 16.1114 2 14.2104 2 12.2446c0-1.9657.70893-3.86675 1.99896-5.3603C5.28898 5.39075 7.0752 4.40298 9.0355 4.09912c1.9603-.30387 3.9657.09617 5.6546 1.12798 1.6888 1.0318 2.95 2.62746 3.556 4.49925h-1.8044c-.4621-1.09558-1.2156-2.04643-2.1802-2.75123-.9645-.70482-2.104-1.13718-3.297-1.25104-1.19295-.11386-2.39476.09506-3.47739.6045-1.0826.50944-2.00543 1.30031-2.67015 2.28834-.66471.98804-1.04642 2.13618-1.10444 3.32218-.05803 1.1861.2098 2.3654.77495 3.4125s1.40644 1.9227 2.43424 2.5334Zm11.67079-6.4682c.0412.2775.0412.555.0412.8407 0 .2817-.0164.5633-.0412.8408h1.6974c-.0476.5677-.1441 1.1302-.2884 1.6816h-1.755c.1731-.5471.2877-1.1107.3419-1.6816h-1.6932c.0714-.5583.0714-1.1232 0-1.6815h1.6973Zm0 0c-.0543-.5739-.1703-1.1404-.346-1.68978h1.7509c.1468.55378.2446 1.11918.2925 1.68978h-1.6974Zm1.7019-.0001h1.6726c.0207.2735.033.5469.033.8163 0 .2993-.0123.585-.0371.8571h-1.6726c.0412-.2816.0412-.5878.0412-.8571 0-.2694-.0165-.5428-.0371-.8163Zm-8.6513.8245c0 .7259-.5939 1.3142-1.3265 1.3142-.73266 0-1.32664-.5883-1.32664-1.3142 0-.7258.59398-1.3143 1.32664-1.3143.7326 0 1.3265.5885 1.3265 1.3143Z" fill="#7A8AA0"/></svg>