<svg width="24" height="24" viewBox="0 0 24 24" fill="none" xmlns="http://www.w3.org/2000/svg"><g clip-path="url(#clip0_9_14708)"><path d="M3.22631 8.1355c-.01575.03984-.03058.07968-.0454.12045l.02131-.01019.02409-.11026Z" fill="#000"/><path d="M12.2778 17.6666H12.8995l-.3122-.5401-.3095.5364v.0037ZM11.8478 19.4697c-.2001 0-.3984-.0112-.5939-.0306l-1.3527 2.3422c.6383.1457 1.291.2191 1.9457.2187h3.5514l-1.4612-2.5303h-2.0893Z" fill="#19A6F2"/><path d="m18.1767 15.3011-5.5897 1.829.3122.5402h3.2614l-.0176-.0167 2.5341-2.3525h-.5004ZM13.9378 19.4696l1.4611 2.5303h1.9717l.9404-2.5303h-4.3732ZM18.8837 17.6702h.0927l.05-.1344-.1427.1344Z" fill="#18C1F3"/><path d="M11.4131 15.0974c-1.1063-.4633-1.89658-1.6585-1.89658-3.0576 0-.0722 0-.1445.00648-.2149l-.94784-1.6437-.60873 5.1459-.01575.1353.15288.0547 4.47974 1.6131-1.1702-2.0328Z" fill="#17B8F3"/><path d="M8.10732 15.5172c.48768.6497 1.11611 1.1806 1.83818 1.5529.7221.3723 1.5191.5763 2.3312.5967l.3104-.5365-4.47978-1.6131ZM8.15662 18.267l.2168 3.0167c.49302.2122 1.00444.3787 1.52784.4976L11.254 19.439c-1.1179-.1102-2.18657-.5146-3.09738-1.172Z" fill="#18C2F2"/><path d="M18.1767 15.3011h-5.7519c-.3475-.0002-.6914-.0695-1.0118-.2038l1.1739 2.0328 5.5898-1.829ZM9.52323 11.8212c.02233-.402.1132-.7971.26869-1.1684l-1.21653-.4716.94784 1.64ZM11.2935 12.0501c.0044.3349.1409.6546.3799.8894.2389.2348.561.3657.8959.3642h4.0138l-5.0691-1.9754c-.1457.2123-.2227.4643-.2205.7218Z" fill="#18F2F2"/><path d="M9.79192 10.6557c.08866-.2124.19888-.4151.32888-.605l-1.54541.1306 1.21653.4744ZM18.0536 10.7733h-5.4953c-.2059.0016-.4085.0531-.5903.1498-.1818.0968-.3375.2362-.4539.4061l5.0691 1.9745h2.7972l-1.3268-2.5304Z" fill="#18D1F4"/><path d="M17.3707 21.9999h4.0647v-2.5303h-3.1242l-.9405 2.5303ZM19.0294 17.5361l-.0501.1343h2.4562v-1.2971l-.4901-.6208-1.916 1.7836Z" fill="#19DEF3"/><path d="M21.4354 16.3768v-1.0757l-.4902.455.4902.6207Z" fill="#19A7F3"/><path d="M2.55367 13.0728c.06659.6678.1969 1.3278.38914 1.9708l1.11831-1.9874-1.50745.0166Z" fill="#19D1F3"/><path d="m5.25105 13.7909-1.18966-.7347-1.11832 1.9874c.27882.9335.68906 1.8226 1.21838 2.6406l2.1968-1.287c-.52483-.794-.90006-1.6773-1.1072-2.6063Z" fill="#02C1E9"/><path d="m3.20217 8.24579-.02131.01019c-.45233 1.19637-.68309 2.46512-.681 3.74412 0 .1121 0 .2233.00556.3345l1.55564.7217-.85889-4.81051Z" fill="#18A8F2"/><path d="M2.50551 12.3345c.00741.2483.02409.4947.04818.7412l1.50746-.0167-1.55564-.7245Z" fill="#18F2F2"/><path d="m4.06113 13.0563 1.18966.7347c-.13271-.5877-.19952-1.1884-.1992-1.7909.00058-.2916.01666-.5829.04818-.8728L3.20224 8.24579l.85889 4.81051Z" fill="#18C2F3"/><path d="M7.42523 9.76703c-.30923.71727-.46695 1.49077-.46327 2.27187-.00818 1.1728.34226 2.3201 1.00436 3.2882l.60873-5.1459-1.14982-.41417ZM5.09976 11.1273c.07228-.6927.23487-1.37302.48365-2.02355l-2.38117-.85796 1.89752 2.88151Z" fill="#18E9F3"/><path d="M6.35789 16.3974 4.1611 17.6843c1.01714 1.59 2.48292 2.8427 4.21199 3.5996l-.21681-3.0168c-.70767-.5092-1.31701-1.1428-1.79839-1.8697Z" fill="#19E0F3"/><path d="m18.6125 8.7756-.3002-.25943-.2687.25943h.5689ZM19.3756 13.3037h.6078l-.2001-2.5304h-1.7298l1.3221 2.5304Z" fill="#19DFF3"/><path d="m20.0271 13.3037 1.4667-1.1767-1.4037-1.3537h-.3067l.2001 2.5304h.0436ZM21.3708 8.77568V7.00323l-1.6808.32058 1.6808 1.45187Z" fill="#18C3F3"/><path d="M17.8805 4.53034 16.4212 2H15.314l-.2974 2.53034h2.8639ZM18.819 6.56775l.4781.41416-.2381-.41416h-.24Z" fill="#19E0F4"/><path d="m18.0433 8.77563.2687-.25943-2.2515-1.9457h-.5994l1.4574 2.20791 1.1248-.00278Z" fill="#18F3E8"/><path d="M21.3706 4.53034V4.005L18.0999 2h-1.6788l1.4592 2.53034h3.4903ZM21.3704 7.00322v-.43547h-2.3117l.2381.41416.3928.3391 1.6808-.31779Z" fill="#19F3E7"/><path d="M21.3704 2h-3.2706l3.2706 2.005V2Z" fill="#18CAF2"/><path d="M9.39692 7.44244c-.87307.56237-1.55933 1.3715-1.97164 2.32466l1.14981.4142.82183-2.73886ZM3.20224 8.24564l2.38117.85796c.82368-2.14398 2.53313-3.7793 4.62149-4.35467l.1909-.63467-7.19356 4.13138Z" fill="#18A7F3"/><path d="M13.6453 6.56779h-1.2202c-1.0725-.00665-2.1241.29711-3.02788.87465l-.82183 2.73876 5.06991-3.61341ZM10.2049 4.75259c.4536-.12433.9199-.19645 1.3898-.21495l-1.2045-.41972-.1909.63467h.0056Z" fill="#18C9F3"/><path d="M10.0503 2.1853c-.75569.1585-1.48737.41517-2.17644.76346l2.52204 1.16928-.3456-1.93274Z" fill="#18F3E6"/><path d="M10.3958 4.11807 7.87379 2.94879C5.79003 4.0004 4.12321 5.85438 3.22633 8.13549l-.02409.11025 7.19356-4.12767Z" fill="#009FDC"/><path d="M11.5955 4.53776c.0834 0 .1677-.00742.252-.00742h2.0634L11.7919 2c-.5853.0032-1.1689.06528-1.7419.18531l.3456 1.9318 1.2045.41972-.0046.00093Z" fill="#17E6F2"/><path d="M15.0166 4.53034 15.314 2h-3.5208l2.119 2.52942 1.1044.00092Z" fill="#18CFF2"/><path d="M10.1208 10.0506c.5328-.77461 1.3667-1.27494 2.3043-1.27494h4.4937l-1.4575-2.20791h-1.8159L8.57539 10.1812l1.54541-.1306Z" fill="#17E7F2"/></g><defs><clipPath id="clip0_9_14708"><path fill="#fff" d="M2.5 2h18.9929v20H2.5z"/></clipPath></defs></svg>