<svg width="24" height="24" viewBox="0 0 24 24" fill="none" xmlns="http://www.w3.org/2000/svg"><circle cx="12" cy="12" r="10" fill="#2F2B32"/><path d="M16.2521 7.09468C15.5222 6.3649 14.6383 6 13.614 6H8l1.56733 1.88061H13.614c.5045 0 .9401.18245 1.305.54734.3786.36489.5615.81399.5615 1.31925 0 .5193-.1965.9544-.5615 1.3192-.3649.3649-.8005.5473-1.305.5473H8v5.6138h1.86651v-3.7331H13.614c1.0243 0 1.9082-.3649 2.6381-1.0947.7436-.7298 1.0949-1.628 1.0949-2.6525 0-1.02453-.3649-1.90869-1.0949-2.65252Z" fill="#10D078"/></svg>