<svg width="24" height="24" viewBox="0 0 24 24" fill="none" xmlns="http://www.w3.org/2000/svg"><path opacity=".35" d="M17.3688 22.0007c-.6096.0002-1.2132-.1198-1.7764-.3529-.5632-.2332-1.075-.575-1.5061-1.006L3.36241 9.91793c-.64983-.64796-1.09271-1.47422-1.27253-2.37411-.17983-.89988-.08852-1.83289.26238-2.68083.35089-.84794.94557-1.57265 1.7087-2.08232C4.82409 2.271 5.72132 1.9993 6.639 2h10.7298c.6087 0 1.2115.1199 1.7739.35285.5624.23296 1.0734.5744 1.5038 1.00485.4305.43044.7719.94145 1.0049 1.50385.2329.5624.3528 1.16517.3528 1.77391V17.3653c-.0015 1.2289-.4904 2.407-1.3594 3.276-.8689.869-2.0471 1.3579-3.276 1.3594Z" fill="#32EF8F"/><path d="M6.63899 22.0007c-.91642-.0021-1.81171-.2755-2.57301-.7856-.76131-.5101-1.35456-1.2342-1.70497-2.081-.35042-.8468-.44231-1.7784-.26411-2.6773.17821-.8989.61855-1.725 1.2655-2.374L14.0863 3.35885c.8698-.86978 2.0495-1.35842 3.2795-1.35842 1.2301 0 2.4098.48864 3.2796 1.35842.8698.86979 1.3584 2.04947 1.3584 3.27953s-.4886 2.40974-1.3584 3.27953L9.92146 20.6418c-.43071.4315-.94241.7736-1.5057 1.0068-.5633.2332-1.16711.3529-1.77677.3521Z" fill="#32EF8F"/></svg>