<svg width="24" height="24" viewBox="0 0 24 24" fill="none" xmlns="http://www.w3.org/2000/svg"><path d="M11.9982 12.8919c.506 0 .9163-.4088.9163-.913 0-.5043-.4103-.9131-.9163-.9131-.5061 0-.9164.4088-.9164.9131 0 .5042.4103.913.9164.913ZM19.3048 12.8919c.5061 0 .9164-.4088.9164-.913 0-.5043-.4103-.9131-.9164-.9131s-.9163.4088-.9163.9131c0 .5042.4102.913.9163.913ZM19.3048 20.1846c.5061 0 .9164-.4089.9164-.9131 0-.5043-.4103-.9131-.9164-.9131s-.9163.4088-.9163.9131c0 .5042.4102.9131.9163.9131Z" fill="#F8BF1E"/><path d="M21.9935 4.51808c-.0965-1.33357-1.1696-2.41485-2.5079-2.51096-.8561-.06008-1.6277.26431-2.1703.81696-.4099.4205-.9646.6728-1.5554.6728h-.217c-.6028 0-1.1695-.2523-1.5915-.68481-.4944-.5046-1.1816-.80495-1.9412-.80495s-1.4469.31237-1.9412.80495c-.42199.43251-.98866.68481-1.59152.68481H8.2725c-.59077 0-1.15747-.22827-1.56741-.64877-.08439-.0841-.16881-.1682-.2532-.24028-1.02484-.82898-2.53198-.80496-3.52066.07208-1.19365 1.04524-1.24187 2.8714-.13263 3.97669.01206.01201.02412.02403.03618.03604.43405.40849.66313.98519.66313 1.57388v.20424c0 .60071-.25319 1.16537-.68725 1.58584-.5064.4926-.80782 1.1774-.80782 1.9343 0 .7569.31348 1.4417.80782 1.9343.43406.4205.68725.9852.68725 1.5859v.2763c0 .5887-.25319 1.1413-.67519 1.5498-.53051.5167-.85605 1.2495-.81988 2.0545.06028 1.4176 1.21776 2.559 2.62844 2.6071.81989.024 1.55536-.3004 2.07381-.841.40994-.4205.96455-.6849 1.55536-.6849h.22908c.59081 0 1.14542.2523 1.55537.6849.5426.5646 1.3263.889 2.1823.8289 1.3383-.0961 2.4235-1.1774 2.52-2.523.1085-1.5978-1.1455-2.9194-2.7249-2.9194-.7476 0-1.4348.3003-1.9292.7929-.42198.4205-.98865.6728-1.57946.6728h-.25319c-.59081 0-1.16953-.2282-1.59153-.6608-.01206-.012-.01206-.012-.02411-.024-.43406-.4205-.68725-.9851-.68725-1.5859v-.2402c0-.6007.25319-1.1654.68725-1.5859.50639-.4926.80783-1.1774.80783-1.9343 0-.7569-.3135-1.4417-.80783-1.9343-.43406-.42049-.68725-.98515-.68725-1.58586v-.21625c0-.60071.25319-1.1654.67519-1.58589.01206-.01199.01206-.01199.02411-.02401.01206-.01201.01206-.01201.02411-.02403.422-.4205.98867-.6728 1.59153-.6728h.21703c.60287 0 1.16953.2523 1.59157.68482.4943.50458 1.1816.80494 1.9412.80494.7595 0 1.4468-.31238 1.9411-.80494.422-.43252.9887-.68482 1.5916-.68482h.1929c.6028 0 1.1695.2523 1.5915.68482.4943.50458 1.1816.80494 1.9412.80494 1.5674.01202 2.8213-1.30955 2.7129-2.90744Z" fill="#F8BF1E"/></svg>