<svg width="24" height="24" viewBox="0 0 24 24" fill="none" xmlns="http://www.w3.org/2000/svg"><path fill-rule="evenodd" clip-rule="evenodd" d="M12 2c5.5049 0 10 4.46254 10 10 0 5.5049-4.4625 10-10 10-5.53746 0-10-4.4951-10-10C2 6.46254 6.46254 2 12 2Z" fill="#FDFF7F"/><path d="M12 4.14984c4.3322 0 7.8502 3.51792 7.8502 7.85016 0 4.3323-3.518 7.8502-7.8502 7.8502-2.18241 0-4.13681-.8795-5.57003-2.3127-1.43323-1.4333-2.31271-3.3877-2.31271-5.5701 0-2.18238.87948-4.13678 2.31271-5.57C7.86319 5.02932 9.81759 4.14984 12 4.14984Zm2.9316 5.53746c.456 0 .8469.3583.8469.8469 0 .456-.3583.8469-.8469.8469-.456 0-.8469-.3583-.8469-.8469 0-.456.3909-.8469.8469-.8469Zm-7.49186 1.2052 1.3355-1.14005.26059-.22802.26059.22802 1.33548 1.14005-.5537.6515-1.07494-.8795-1.07492.8795-.4886-.6515Zm7.91526 2.899c0 .9121-.3908 1.759-.9772 2.3779-.6188.6189-1.4332.9772-2.3778.9772-.9121 0-1.759-.3909-2.37785-.9772-.61889-.6189-.9772-1.4332-.9772-2.3779h.84691c0 .6841.29316 1.303.71664 1.759.456.456 1.0749.7166 1.7589.7166.6841 0 1.303-.2932 1.759-.7166.456-.456.7166-1.0749.7166-1.759h.912ZM19.1335 12c0-3.94136-3.1921-7.13355-7.1335-7.13355-1.987 0-3.74593.81434-5.04886 2.08469C5.64821 8.25408 4.86645 10.0456 4.86645 12c0 1.9544.81433 3.7459 2.08469 5.0489C8.25407 18.3518 10.0456 19.1336 12 19.1336c3.9414 0 7.1335-3.1922 7.1335-7.1336Z" fill="#1F1F1F"/></svg>