<svg width="24" height="24" viewBox="0 0 24 24" fill="none" xmlns="http://www.w3.org/2000/svg"><g clip-path="url(#clip0_96_1465)"><path d="M2 6.26733c-.05217-1.55474 1.15301-2.85791 2.69361-2.91154.43338-.0148.86421.07202 1.25803.25352.39382.18151.7397.45265 1.00997.79175-.65427.26766-2.57514 1.28221-3.50682 4.24152-.4275-.23594-.78635-.57892-1.04138-.99531C2.15837 7.23088 2.01592 6.75536 2 6.26733Zm1.98425 2.28409h5.25998c-.21872-1.37498-.97032-2.60844-2.092-3.4332-.12042-.08873-.22377-.15747-.30373-.2072-1.26732.93067-2.25691 2.18927-2.8623 3.6404h-.00195Zm10.82325 0h5.1029c-.586-1.40409-1.5319-2.62882-2.7423-3.55069-.0761.04875-.1711.11213-.2789.19159-1.1012.8091-1.8468 2.01277-2.0808 3.3591h-.0009ZM8.1624 12.7608c.79987-1.0213 1.20629-2.2959 1.14521-3.59168h-5.5525c-.45141 1.38108-.54847 2.85358-.28228 4.28198 2.03837-.0307 2.84182-1.3651 2.84182-1.3651l.54214.6289c-.89803 1.1506-2.26166 1.4446-3.2065 1.4963.06501.235.1409.4657.22768.6923 2.1154-.0741 3.45611-1.0819 4.2854-2.1427H8.1624Zm1.8819-2.3753c-.2399 1.3705-.75083 2.3889-1.38316 3.149.35493.4456 1.36506 1.407 3.47656 1.3714 0 0 1.6576.1497 3.2372-1.2993-.6298-.7586-1.1379-1.776-1.3816-3.147 0 0-.6767-4.05673 2.3621-6.00735-1.1599-.69208-2.4669-1.10019-3.8145-1.19104v3.26646h-.9853V3.25c-1.3635.0595-2.69299.44395-3.87781 1.12132 3.04611 1.95013 2.36651 6.01418 2.36651 6.01418Zm9.6009-6.98485c-.4811-.08143-.975-.03659-1.4336.13014s-.866.44963-1.1825.82103c2.4782 1.35875 3.1943 3.4215 3.4566 4.2815.3861-.19736.7207-.48234.9769-.83214.2563-.34979.4271-.7547.4989-1.18234.255-1.52012-.782-2.96126-2.3163-3.21819ZM17.23 12.5589l.585-.623s.726 1.2422 2.6405 1.329c.0757-.4639.1137-.9331.1136-1.4031.0007-.9147-.1442-1.8236-.4295-2.69268h-5.4028c-.0804 1.32038.3256 2.62438 1.1413 3.66578.8064 1.0321 2.0964 2.0144 4.1138 2.1329.1198-.3097.2213-.6262.3042-.9477-.9351-.0673-2.2076-.3779-3.0661-1.4612Zm-5.7017 4.0743v-.6152c-1.1164-.1083-2.34014-.6031-3.57067-1.7766-1.34119 1.1257-2.93494 1.4075-3.72132 1.4767 1.01886 2.0323 2.79717 3.5815 4.9499 4.3122.55511-.2403 1.05209-.5971 1.45719-1.0462.5746-.6478.8898-1.485.8849-2.3509Zm-.9672 3.7379c.9795.1581 1.9789.1475 2.9549-.0312-.6246-.6721-1.1261-1.4489-1.4816-2.2948-.3501.8562-.8489 1.6437-1.4733 2.326Zm1.9862-4.3551v.6338c-.0054.8314.2963 1.6356.8473 2.2582.4116.4589.9186.8222 1.4855 1.0643 2.0579-.7469 3.7561-2.2465 4.752-4.1962-.8093-.0916-2.2227-.3939-3.4498-1.3777-.5109.4295-1.878 1.4411-3.635 1.6176Z" fill="url(#paint0_linear_96_1465)"/></g><defs><linearGradient id="paint0_linear_96_1465" x1="6.23372" y1="5.06362" x2="21.6417" y2="17.815" gradientUnits="userSpaceOnUse"><stop stop-color="#EA3570"/><stop offset=".88" stop-color="#138FC9"/></linearGradient><clipPath id="clip0_96_1465"><path fill="#fff" d="M2 3.25h20v17.2323H2z"/></clipPath></defs></svg>