<svg width="24" height="24" viewBox="0 0 24 24" fill="none" xmlns="http://www.w3.org/2000/svg"><path d="M22 12c0-5.52285-4.4772-10-10-10C6.47715 2 2 6.47715 2 12c0 5.5228 4.47715 10 10 10 5.5228 0 10-4.4772 10-10Z" fill="#0052FF"/><path d="M12.0029 15.5156c-1.9424 0-3.51569-1.5732-3.51569-3.5156 0-1.9424 1.57329-3.51562 3.51569-3.51562 1.7402 0 3.1845 1.26855 3.4628 2.92972h3.542c-.2988-3.60941-3.3193-6.44535-7.0048-6.44535-3.8819 0-7.03131 3.14941-7.03131 7.03125 0 3.8818 3.14941 7.0312 7.03131 7.0312 3.6855 0 6.706-2.8359 7.0048-6.4453h-3.5449c-.2783 1.6612-1.7197 2.9297-3.4599 2.9297Z" fill="#fff"/></svg>