<svg width="24" height="24" viewBox="0 0 24 24" fill="none" xmlns="http://www.w3.org/2000/svg"><path d="M21.9986 11.9559c.0087 1.9775-.5692 3.9133-1.6606 5.5624-1.0914 1.6491-2.6474 2.9376-4.4711 3.7024-1.8237.7648-3.8332.9716-5.7745.5944-1.94127-.3773-3.72706-1.3218-5.13155-2.714-1.40448-1.3922-2.36457-3.1697-2.75887-5.1076-.39429-1.9378-.20508-3.9491.54372-5.77947.7488-1.83035 2.02354-3.39754 3.66304-4.50339 1.63949-1.10586 3.57009-1.70071 5.54766-1.70932 2.6517-.01156 5.1994 1.03071 7.0827 2.89754 1.8833 1.86682 2.9478 4.40529 2.9595 7.05704Z" fill="#8DC63F"/><path d="M21.2488 11.9595c.0083 1.829-.526 3.6193-1.5352 5.1446-1.0092 1.5254-2.4481 2.7172-4.1347 3.4247-1.6866.7076-3.5451.8991-5.3406.5504-1.79539-.3487-3.44709-1.222-4.74619-2.5095-1.2991-1.2874-2.18725-2.9312-2.55214-4.7234-.36488-1.7922-.1901-3.6524.50222-5.3453.69233-1.69289 1.87111-3.14246 3.38729-4.1654 1.51617-1.02293 3.30162-1.5733 5.13062-1.58148 2.4524-.01079 4.8086.95294 6.5505 2.67922 1.7419 1.72629 2.7269 4.07376 2.7382 6.52616Z" fill="#F9E988"/><path d="M12.1702 3.35334c.5878-.10434 1.1895-.10434 1.7773 0 .5935.09398 1.1673.2862 1.6976.56877.5275.28982.9832.68325 1.4368 1.05204.4536.3688.905.74629 1.3346 1.15928.4386.40655.8214.86947 1.1383 1.37664.3263.50315.5937 1.04212.797 1.60632.3862 1.13461.5202 2.35691.3275 3.52271h-.0573c-.1934-1.1556-.4557-2.2569-.8694-3.30462-.1942-.52758-.4227-1.0419-.684-1.53967-.2726-.49784-.5731-.97994-.8999-1.44402-.3323-.46916-.7397-.8804-1.2056-1.21724-.4695-.33474-1.0093-.55138-1.5317-.75715s-1.0405-.41879-1.5853-.57529c-.5449-.1565-1.0984-.27388-1.6766-.38763l.0007-.06014Z" fill="#fff"/><path d="M16.6906 8.69543c-.6709-.19418-1.3665-.46951-2.0708-.74773-.0405-.17679-.197-.39706-.5137-.66586-.46-.39923-1.3244-.38908-2.0714-.21229-.8246-.19418-1.639-.26302-2.42075-.07246C3.21983 8.75846 6.84546 13.0558 4.49793 17.3755c.33401.7086 3.93429 4.8429 9.14377 3.7336 0 0-1.7817-4.2814 2.2389-6.3362 3.2611-1.673 5.6174-4.7682.81-6.07747Z" fill="#8BC53F"/><path d="M17.4804 11.5073c.0004.0767-.0219.1518-.0641.2158-.0423.0639-.1025.114-.1732.1437-.0707.0297-.1486.0379-.2238.0233-.0753-.0145-.1446-.051-.1991-.105-.0545-.0539-.0918-.1227-.1072-.1978-.0154-.0751-.0081-.1531.0208-.2241.0289-.071.0783-.1318.1418-.1748.0635-.0429.1383-.0661.215-.0665.1027-.0004.2014.04.2745.1122.0731.0722.1145.1705.1153.2732Z" fill="#fff"/><path d="M12.0347 7.06664c.4659.03333 2.1504.57964 2.5852.87816-.3623-1.0506-1.5817-1.19044-2.5852-.87816Z" fill="#009345"/><path d="M12.4781 9.72349c.0002.35371-.1046.69951-.301.99361-.1964.2942-.4756.5235-.8024.659-.3267.1354-.6863.1709-1.0332.102-.3469-.0689-.6656-.2391-.91575-.4892-.25015-.25-.42053-.5687-.48959-.9156-.06906-.34686-.03369-.70644.10164-1.03322.13532-.32679.36451-.60611.65859-.80263.29409-.19652.63981-.30141.99351-.30141.2348-.0001.4673.04606.6843.13585.2169.08978.4141.22143.5801.38742.1661.16599.2978.36307.3877.57998.0899.21691.1361.44941.1361.6842Z" fill="#fff"/><path d="M11.9478 9.73944c0 .24877-.0738.49196-.212.69876-.1382.2069-.3347.3681-.5645.4633s-.4827.1201-.7267.0716-.46815-.1683-.64406-.3443c-.17591-.1759-.2957-.4-.34424-.64397-.04853-.24399-.02362-.4969.07158-.72673.0952-.22984.25642-.42628.46327-.56449.20685-.13821.45005-.21198.69885-.21198.3335 0 .6535.13252.8894.3684.2358.23589.3684.55582.3684.88941Z" fill="#58595B"/><path d="M18.9287 12.2957c-1.4491 1.0209-3.0967 1.7954-5.4341 1.7954-1.094 0-1.3158-1.1592-2.0389-.5926-.3731.2941-1.68888.952-2.73295.902-1.04407-.05-2.73661-.6622-3.20829-2.8909-.18694 2.2287-.28258 3.8705-1.11943 5.7522 1.66646 2.6685 5.63987 4.7269 9.24667 3.8401-.3876-2.7062 1.9773-5.3566 3.3097-6.713.5072-.5137 1.4709-1.352 1.9773-2.0946v.0014Z" fill="#8BC53F"/><path d="M18.8723 12.3624c-.45.4101-.9854.7136-1.5303.9817-.5515.2619-1.1264.4712-1.7172.6253-.5912.1529-1.2078.2681-1.8323.2116-.6246-.0565-1.2629-.2688-1.6766-.7369l.0195-.0224c.5072.3289 1.0926.4448 1.6752.4615.5904.0179 1.181-.0307 1.7606-.1449.5855-.1226 1.1582-.2997 1.7107-.5289.5528-.2283 1.0998-.4927 1.5708-.8695l.0196.0225Z" fill="#58595B"/></svg>