<svg width="24" height="24" viewBox="0 0 24 24" fill="none" xmlns="http://www.w3.org/2000/svg"><path d="m19.3428 12 2.3343-3.19903c-.7585-2.24656-2.2907-4.15049-4.323-5.37198-2.0324-1.2215-4.4326-1.68108-6.7724-1.29672-2.33984.38436-4.46694 1.58764-6.00171 3.3951C3.04521 7.33483 2.20264 9.62885 2.20264 12c0 2.3712.84257 4.6652 2.37735 6.4727 1.53477 1.8074 3.66187 3.0107 6.00171 3.3951 2.3398.3843 4.74-.0753 6.7724-1.2968 2.0323-1.2215 3.5645-3.1254 4.323-5.3719L19.3428 12Zm-2 2.9524c-1.0228 1.66-3.0476 2.8571-5.1428 2.8571-.9981-.0006-1.9792-.2584-2.84866-.7485-.86949-.49-1.59806-1.1958-2.11547-2.0493-.51741-.8535-.80621-1.8259-.83854-2.8235-.03234-.9975.19288-1.9866.65392-2.8718.46105-.88521 1.14239-1.63672 1.97831-2.18205.83593-.54534 1.79824-.86612 2.79424-.93141.9959-.06529 1.9919.12711 2.8918.55864.9.43154 1.6736 1.08766 2.2463 1.9051L19.2476 12l-1.9048 2.9524Z" fill="url(#paint0_linear_9_14707)"/><defs><linearGradient id="paint0_linear_9_14707" x1="9.94666" y1="2.44859" x2="14.36" y2="21.3533" gradientUnits="userSpaceOnUse"><stop stop-color="#01AEFF"/><stop offset="1" stop-color="#0157FF"/></linearGradient></defs></svg>