<svg width="24" height="24" viewBox="0 0 24 24" fill="none" xmlns="http://www.w3.org/2000/svg"><path fill-rule="evenodd" clip-rule="evenodd" d="M19.1337 13.9512c-.3488.2205-.7596.2478-1.0717.0717-.3966-.2239-.6147-.7483-.6147-1.4775v-2.182c0-1.05364-.4166-1.8034-1.1132-2.00584-1.1804-.3439-2.0682 1.10049-2.4019 1.64294l-2.082 3.3756V9.25024c-.0234-.94926-.3317-1.51707-.917-1.68829-.3873-.11317-.96686-.0678-1.52979.79366L4.73902 15.8454c-.62445-1.1855-.94997-2.5055-.94829-3.8454 0-4.51171 3.61561-8.18195 8.05947-8.18195 4.4439 0 8.0591 3.67024 8.0591 8.18195 0 .0078.0019.0146.0024.022 0 .0078-.0015.0146-.001.0224.042.8736-.2409 1.5683-.777 1.9068ZM21.7 12.0005v-.0229l-.0005-.0225C21.6746 6.46049 17.2663 2 11.8498 2 6.41902 2 2 6.48585 2 12c0 5.5137 4.41902 10 9.8502 10 2.4922 0 4.8708-.9473 6.6966-2.6668.363-.3415.3844-.9166.0478-1.2844-.0792-.0874-.175-.1581-.2819-.2079-.1069-.0498-.2227-.0779-.3405-.0824-.1178-.0045-.2354.0145-.3458.0559-.1104.0415-.2114.1046-.2971.1856-1.48 1.4015-3.4408 2.1823-5.4791 2.182-2.37947 0-4.52044-1.0532-5.99703-2.7235l4.20633-6.7541v3.1136c0 1.4957.58 1.9791 1.0664 2.1205.4868.1415 1.2307.0449 2.0117-1.2234l2.3136-3.7507c.0742-.121.1425-.2254.2049-.3156v1.8966c0 1.398.56 2.5161 1.5361 3.0668.88.4966 1.9863.4517 2.8878-.1171 1.0927-.6902 1.6815-1.9619 1.62-3.4946Z" fill="#17181B"/></svg>