<svg width="24" height="24" viewBox="0 0 24 24" fill="none" xmlns="http://www.w3.org/2000/svg"><path d="M12 22c5.5229 0 10-4.4771 10-10S17.5229 2 12 2 2 6.4772 2 12s4.4772 10 10 10Z" fill="#070A0E"/><path fill-rule="evenodd" clip-rule="evenodd" d="M7.77641 15.3532c-.14709-.0899-.26866-.216-.35306-.3663-.08441-.1503-.12884-.3198-.12904-.4922v-1.9536c.00016-.0738.01976-.1462.05684-.2101.03708-.0638.09032-.1167.15435-.1534.06404-.0367.13662-.0559.21042-.0556.07381.0003.14624.02.20999.0572L12.3351 14.75c.1268.0739.2319.1798.305.307.0732.1272.1117.2713.1118.418v2.0244c.0002.0896-.0235.1776-.0687.255-.0452.0773-.1102.1412-.1884.1851-.0781.0438-.1665.066-.2561.0642-.0896-.0018-.177-.0274-.2534-.0743l-4.20889-2.5762Zm6.57249-3.7095c.1267.074.2319.1798.305.307.073.1273.1115.2714.1116.4181v4.1075c.0001.0595-.0157.118-.0457.1694-.0301.0514-.0733.0938-.1252.1229l-.9654.5435c-.0123.0068-.0253.0122-.0388.0161v-2.2807c0-.1452-.0377-.288-.1093-.4144s-.1747-.2321-.2993-.3068L9.30981 12.01V9.43513c.00016-.07381.01976-.14627.05684-.21009.03708-.06382.09031-.11674.15435-.15343.06404-.03669.13662-.05586.21042-.05558.07381.00028.14624.02001.20999.0572l4.40749 2.57047Zm1.93-3.03377c.1272.07381.2328.17978.3062.30727.0733.1275.1118.27204.1117.41913v5.99997c-.0003.0605-.0169.1198-.0481.1717-.0311.0518-.0756.0943-.1289.123l-.9146.494v-4.1768c-.0001-.1449-.0376-.2874-.109-.4135-.0713-.1262-.1741-.2317-.2983-.3065l-3.9581-2.37387v-2.4423c.0002-.074.0195-.14668.0561-.211.0561-.09622.148-.16627.2556-.1948.1077-.02853.2222-.01321.3186.0426l4.4088 2.5611Z" fill="#00D395"/></svg>