<svg width="24" height="24" viewBox="0 0 24 24" fill="none" xmlns="http://www.w3.org/2000/svg"><circle cx="12" cy="12" r="8" fill="#fff"/><path d="M12.0001 2c-1.9778 0-3.91125.58649-5.55574 1.6853-1.64449 1.09882-2.92621 2.6606-3.68309 4.48786-.75688 1.82724-.95491 3.83794-.56906 5.77774.38585 1.9398 1.33826 3.7216 2.73679 5.1202 1.39852 1.3985 3.18035 2.3509 5.1202 2.7367 1.9398.3859 3.9504.1879 5.7777-.569 1.8273-.7569 3.389-2.0386 4.4879-3.6831 1.0988-1.6445 1.6853-3.5779 1.6853-5.5557 0-2.65217-1.0536-5.19571-2.929-7.07107C17.1958 3.05357 14.6522 2 12.0001 2Zm6.147 12.951c-.4267.8814-1.0384 1.6606-1.7934 2.2843-.7549.6238-1.6355 1.0775-2.5816 1.3304-.9461.2528-1.9356.2988-2.9011.1347-.96548-.164-1.88428-.5341-2.69382-1.0852-.80955-.5511-1.49083-1.2702-1.99745-2.1083-.50662-.8381-.82668-1.7755-.93838-2.7485-.11171-.9729-.01243-1.9585.29106-2.88956.30349-.9311.80407-1.78587 1.46765-2.5061.04902-.05882.13726.00981.10785.07843-.48368.86901-.73366 1.84863-.72549 2.84313 0 2.8039 1.90196 5.0784 4.23528 5.0784 1.4706 0 2.7745-.9019 3.5294-2.2745.0076-.0132.0196-.0234.0339-.0288.0144-.0054.0301-.0056.0446-.0006l3.8823 1.8137c.0392 0 .0588.0393.0392.0785Zm-.0294-5.85296-3.951 1.84316c-.0157.0073-.0335.0083-.0499.0028-.0165-.0054-.0301-.017-.0383-.0322-.1742-.3381-.4283-.6284-.7403-.8458-.312-.21741-.6724-.35526-1.0498-.40156-.3774-.04631-.7605.00033-1.1157.13585-.3553.13553-.6721.35581-.9228.64171-.25073.2859-.42776.6288-.51571.9987-.08795.37-.08415.7558.01107 1.124.09522.3681.27894.7074.53524.9883.2563.2809.5774.495.9352.6235.0197.0098.0099.0196-.0098.0196h-.0686c-2.07841 0-3.77449-2.0196-3.77449-4.51963v-.15686c.06863-2.36275 2-4.2549 4.36279-4.34314.0882 0 .1764-.0098.2745-.0098 1.2804.00052 2.5349.36117 3.6202 1.04075 1.0852.67957 1.9574 1.65068 2.517 2.80238.0294.02941.0098.06863-.0196.08824Z" fill="url(#paint0_linear_8_89)"/><defs><linearGradient id="paint0_linear_8_89" x1="20.8491" y1="20.9382" x2="1.73144" y2="1.62745" gradientUnits="userSpaceOnUse"><stop stop-color="#3DEDD6"/><stop offset="1" stop-color="#2C55DD"/></linearGradient></defs></svg>