<svg width="24" height="24" viewBox="0 0 24 24" fill="none" xmlns="http://www.w3.org/2000/svg"><g clip-path="url(#clip0_17_55)" fill="#000"><path d="M11.1385 21.8c-.0154 0-.0308.0154-.0308.0307 0 .0154.0154.0308.0308.0308.0153 0 .0307-.0154.0307-.0308.0154-.0307 0-.0307-.0307-.0307Zm-.9231-.3385c-.0308 0-.0616.0308-.0616.0616 0 .0307.0308.0615.0616.0615s.0615-.0308.0615-.0615c0-.0308-.0307-.0616-.0615-.0616Zm-.90771-.4154c-.06154 0-.10769.0462-.10769.1077 0 .0616.04615.1077.10769.1077s.10769-.0461.10769-.1077c0-.0615-.04615-.1077-.10769-.1077Zm-.84616-.5077c-.07692 0-.13846.0616-.13846.1385 0 .0769.06154.1385.13846.1385.07693 0 .13847-.0616.13847-.1385-.01539-.0769-.07693-.1385-.13847-.1385Zm-.8-.6c-.0923 0-.16923.077-.16923.1693 0 .0923.07693.1692.16923.1692.09231 0 .16924-.0769.16924-.1692 0-.1077-.07693-.1693-.16924-.1693Zm-.73846-.6923c-.10769 0-.2.0923-.2.2 0 .1077.09231.2.2.2.1077 0 .2-.0923.2-.2 0-.1077-.0923-.2-.2-.2Zm-.66153-.7538c-.12308 0-.23077.1077-.23077.2307 0 .1231.10769.2308.23077.2308.12307 0 .23076-.1077.23076-.2308 0-.123-.10769-.2307-.23076-.2307Zm-.58462-.8154c-.15385 0-.27692.1231-.27692.2769 0 .1539.12307.2769.27692.2769s.27692-.123.27692-.2769c0-.1538-.12307-.2769-.27692-.2769Zm-.16923-.5846c0-.1693-.13846-.3077-.30769-.3077-.16923 0-.3077.1384-.3077.3077 0 .1692.13847.3077.3077.3077.16923-.0154.30769-.1539.30769-.3077Zm-.32308-.9231c0-.1846-.15384-.3385-.33846-.3385-.18461 0-.33846.1539-.33846.3385 0 .1846.15385.3385.33846.3385.18462 0 .33846-.1385.33846-.3385Zm-.2-.9385c0-.2-.16923-.3692-.36923-.3692s-.36923.1692-.36923.3692c0 .2.16923.3693.36923.3693s.36923-.1693.36923-.3693Zm-.07692-.9846c0-.2307-.18462-.4-.4-.4-.21539 0-.4.1846-.4.4 0 .2154.18461.4.4.4.21538.0154.4-.1692.4-.4Zm-.4-.5384c.24615 0 .43077-.2.43077-.4462 0-.2461-.2-.4308-.43077-.4308-.24616 0-.44615.2-.44615.4308.01538.2462.21538.4462.44615.4462Zm-.32308-1.4c0 .2615.21539.4769.47693.4769.26153 0 .47692-.2154.47692-.4769 0-.2616-.21539-.477-.47692-.477-.26154 0-.47693.2154-.47693.477Zm14.18459 7.2307c-.0154 0-.0307.0154-.0307.0308s.0153.0308.0307.0308c.0154 0 .0308-.0154.0308-.0308-.0154-.0154-.0154-.0308-.0308-.0308Zm-.8769.4308c-.0308 0-.0615.0308-.0615.0615 0 .0308.0307.0616.0615.0616.0308 0 .0615-.0308.0615-.0616 0-.0461-.0307-.0615-.0615-.0615Zm-.9077.3231c-.0461 0-.0923.0461-.0923.0923 0 .0461.0462.0923.0923.0923.0462 0 .0923-.0462.0923-.0923 0-.0462-.0461-.0923-.0923-.0923Zm-.9385.2308c-.0615 0-.123.0461-.123.123 0 .0616.0461.1231.123.1231.0616 0 .1231-.0615.1231-.1231-.0154-.0615-.0615-.123-.1231-.123Zm-.9692.1384c-.0769 0-.1538.0616-.1538.1539 0 .0769.0615.1538.1538.1538.0769 0 .1539-.0615.1539-.1538s-.077-.1539-.1539-.1539Zm-.9846.0308c-.0923 0-.1846.0769-.1846.1846 0 .0923.0769.1846.1846.1846.0923 0 .1846-.0769.1846-.1846 0-.1077-.0769-.1846-.1846-.1846Zm-.9692-.0769c-.1077 0-.2154.0923-.2154.2153 0 .1077.0923.2154.2154.2154.1077 0 .2154-.0923.2154-.2154-.0154-.123-.1077-.2153-.2154-.2153Zm-.9693-.1693c-.1384 0-.2307.1077-.2307.2308 0 .1385.1077.2461.2307.2461.1385 0 .2462-.1076.2462-.2461-.0154-.1231-.1231-.2308-.2462-.2308Zm-.9384-.2923c-.1539 0-.2616.1231-.2616.2616 0 .1538.1231.2615.2616.2615.1538 0 .2615-.1231.2615-.2615 0-.1539-.1231-.2616-.2615-.2616Zm-.90771-.4308c-.16923 0-.29231.1385-.29231.2924 0 .1692.13846.2923.29231.2923.16921 0 .29231-.1385.29231-.2923.0154-.1539-.1231-.2924-.29231-.2924ZM9.4 19.5231c0-.1847-.15385-.3231-.32308-.3231-.18462 0-.32308.1384-.32308.3231 0 .1846.15385.323.32308.323s.32308-.1384.32308-.323Zm-1.09231-.9693c-.2 0-.35385.1539-.35385.3539 0 .2.15385.3538.35385.3538s.35384-.1538.35384-.3538-.15384-.3539-.35384-.3539Zm-.67693-.7384c-.21538 0-.38461.1692-.38461.3846s.16923.3846.38461.3846c.21539 0 .38462-.1692.38462-.3846s-.16923-.3846-.38462-.3846Zm-.58461.0153c.23077 0 .41538-.1846.41538-.4153 0-.2308-.18461-.4154-.41538-.4154-.23077 0-.41538.1846-.41538.4154 0 .2307.18461.4153.41538.4153Zm-.03077-1.2615c0-.2462-.2-.4461-.44615-.4461-.24616 0-.44616.1999-.44616.4461s.2.4462.44616.4462c.24615 0 .44615-.2.44615-.4462Zm14.86152-3.7231c-.0154 0-.0308.0154-.0308.0308s.0154.0308.0308.0308.0308-.0154.0308-.0308c-.0154-.0308-.0308-.0308-.0308-.0308Zm-.2923.9077c-.0308 0-.0461.0308-.0461.0462 0 .0307.0307.0461.0461.0461.0308 0 .0462-.0307.0462-.0461 0-.0308-.0308-.0462-.0462-.0462Zm-.4.8616c-.0461 0-.0769.0307-.0769.0769 0 .0461.0308.0769.0769.0769.0462 0 .0769-.0308.0769-.0769.0154-.0308-.0307-.0769-.0769-.0769Zm-.4769.8307c-.0616 0-.1077.0462-.1077.1077 0 .0616.0461.1077.1077.1077.0615 0 .1077-.0461.1077-.1077 0-.0615-.0462-.1077-.1077-.1077Zm-.5692.7693c-.077 0-.1385.0615-.1385.1384s.0615.1385.1385.1385c.0769 0 .1384-.0616.1384-.1385 0-.0769-.0615-.1384-.1384-.1384Zm-.6462.7076c-.0923 0-.1538.077-.1538.1539 0 .0923.0769.1538.1538.1538.0923 0 .1538-.0769.1538-.1538.0154-.0769-.0615-.1539-.1538-.1539Zm-.7231.6462c-.1077 0-.1846.0769-.1846.1846 0 .1077.0769.1846.1846.1846.1077 0 .1846-.0769.1846-.1846 0-.1077-.0769-.1846-.1846-.1846Zm-.7846.5385c-.1231 0-.2154.0923-.2154.2153 0 .1231.0923.2154.2154.2154.1231 0 .2154-.0923.2154-.2154 0-.1076-.0923-.2153-.2154-.2153Zm-.8615.4615c-.1385 0-.2462.1077-.2462.2462 0 .1384.1077.2461.2462.2461.1384 0 .2461-.1077.2461-.2461 0-.1385-.1077-.2462-.2461-.2462Zm-.9077.3231c-.1539 0-.2616.1231-.2616.2615 0 .1539.1231.2616.2616.2616.1538 0 .2615-.1231.2615-.2616 0-.1384-.1077-.2615-.2615-.2615Zm-.9539.2154c-.1692 0-.2923.1384-.2923.2923 0 .1692.1385.2923.2923.2923.1693 0 .2923-.1385.2923-.2923 0-.1539-.123-.2923-.2923-.2923Zm-.9692.0769c-.1846 0-.3231.1385-.3231.3231 0 .1692.1385.323.3231.323s.3231-.1384.3231-.323c0-.1693-.1385-.3231-.3231-.3231Zm-.6308.3077c0-.1846-.1538-.3539-.3538-.3539-.1846 0-.3385.1539-.3385.3539 0 .1846.1539.3538.3385.3538.2 0 .3538-.1538.3538-.3538Zm-.9384-.1385c0-.2-.1693-.3692-.3693-.3692s-.3692.1692-.3692.3692c0 .2.1692.3692.3692.3692.2 0 .3693-.1692.3693-.3692Zm-.9231-.2769c0-.2154-.1846-.4-.4-.4-.2154 0-.4.1846-.4.4 0 .2154.1846.4.4.4.2308 0 .4-.1846.4-.4Zm-.8615-.3846c0-.2308-.1847-.4308-.4308-.4308-.2308 0-.4308.1846-.4308.4308 0 .2307.1846.4308.4308.4308.2308-.0154.4308-.2001.4308-.4308Zm8.6769-13.0154c.0154 0 .0307-.01539.0307-.03077 0-.01539-.0153-.03077-.0307-.03077-.0154 0-.0308.01538-.0308.03077 0 .01538.0154.03077.0308.03077Zm.4461.8923c.0308 0 .0462-.03077.0462-.04615 0-.03077-.0308-.04615-.0462-.04615-.0307 0-.0461.03077-.0461.04615 0 .01538.0154.04615.0461.04615Zm.3693.93847c.0461 0 .0769-.03077.0769-.07693 0-.04615-.0308-.07692-.0769-.07692-.0462 0-.077.03077-.077.07692 0 .03077.0308.07693.077.07693Zm.2615.96923c.0615 0 .1077-.04616.1077-.1077 0-.06153-.0462-.10769-.1077-.10769-.0615 0-.1077.04616-.1077.10769 0 .06154.0462.1077.1077.1077Zm.0308.86153c0 .07693.0615.13847.1384.13847.077 0 .1385-.06154.1385-.13847 0-.07692-.0615-.13846-.1385-.13846-.0769 0-.1384.06154-.1384.13846Zm.1846.81537c-.0923 0-.1539.0769-.1539.1539 0 .0923.077.1538.1539.1538.0923 0 .1538-.0769.1538-.1538.0154-.0923-.0615-.1539-.1538-.1539Zm-.0308.9539c-.1077 0-.1846.0769-.1846.1846 0 .1077.0769.1846.1846.1846.1077 0 .1846-.0769.1846-.1846 0-.1077-.0923-.1846-.1846-.1846Zm-.1538.9384c-.1231 0-.2154.0923-.2154.2154 0 .1231.0923.2154.2154.2154.123 0 .2154-.0923.2154-.2154 0-.1231-.0924-.2154-.2154-.2154ZM20.6923 13.2c0-.1385-.1077-.2462-.2462-.2462-.1384 0-.2461.1077-.2461.2462 0 .1384.1077.2461.2461.2461.1385 0 .2462-.1077.2462-.2461Zm-.6308.6307c-.1538 0-.2615.1231-.2615.2616 0 .1538.1231.2615.2615.2615.1539 0 .2616-.1231.2616-.2615.0154-.1385-.1077-.2616-.2616-.2616Zm-.4923.8154c-.1692 0-.2923.1385-.2923.2923 0 .1693.1385.2923.2923.2923.1693 0 .2923-.1384.2923-.2923 0-.1692-.1384-.2923-.2923-.2923Zm-.6154.7385c-.1692 0-.323.1385-.323.3231s.1384.323.323.323c.1847 0 .3231-.1384.3231-.323 0-.1846-.1538-.3231-.3231-.3231Zm-.7077.6461c-.1846 0-.3538.1539-.3538.3539 0 .1846.1538.3538.3538.3538.1847 0 .3539-.1538.3539-.3538s-.1539-.3539-.3539-.3539Zm-.7846.5539c-.2 0-.3692.1692-.3692.3692 0 .2.1692.3692.3692.3692.2 0 .3693-.1692.3693-.3692 0-.2-.1693-.3692-.3693-.3692Zm-.8615.4461c-.2154 0-.4.1847-.4.4 0 .2154.1846.4.4.4.2154 0 .4-.1846.4-.4 0-.2153-.1692-.4-.4-.4Zm-.9077.3385c-.2308 0-.4308.1846-.4308.4308 0 .2307.1846.4307.4308.4307.2308 0 .4308-.1846.4308-.4307 0-.2308-.2-.4308-.4308-.4308Zm-2.7846-15.2c.0154 0 .0308-.01538.0308-.03076 0-.01539-.0154-.03077-.0308-.03077s-.0308.01538-.0308.03077c0 .01538.0154.03076.0308.03076Zm.9384.3077c.0308 0 .0462-.03077.0462-.04616 0-.03077-.0308-.04615-.0462-.04615-.0307 0-.0615.03077-.0615.04615 0 .03077.0308.04616.0615.04616Zm.8924.41538c.0461 0 .0769-.03077.0769-.07692 0-.04616-.0308-.07692-.0769-.07692-.0462 0-.077.03076-.077.07692 0 .04615.0308.07692.077.07692Zm.8615.50769c.0615 0 .1077-.04615.1077-.10769s-.0462-.10769-.1077-.10769c-.0615 0-.1077.04615-.1077.10769s.0462.10769.1077.10769Zm.8.6c.0769 0 .1385-.06153.1385-.13846 0-.07692-.0616-.13846-.1385-.13846-.0769 0-.1385.06154-.1385.13846 0 .07693.0616.13846.1385.13846Zm.7231.67693c.0923 0 .1538-.07693.1538-.15385 0-.09231-.0769-.15385-.1538-.15385-.0923 0-.1539.07693-.1539.15385 0 .07692.077.15385.1539.15385Zm.6615.73846c.1077 0 .1846-.07693.1846-.18462 0-.10769-.0769-.18461-.1846-.18461-.1077 0-.1846.07692-.1846.18461s.0923.18462.1846.18462Zm.5846.81538c.1231 0 .2154-.09231.2154-.21538 0-.12308-.0923-.21539-.2154-.21539-.1231 0-.2154.09231-.2154.21539 0 .12307.0923.21538.2154.21538Zm.4769.89231c.1385 0 .2462-.10769.2462-.24615 0-.13847-.1077-.24616-.2462-.24616-.1384 0-.2461.10769-.2461.24616 0 .13846.1077.24615.2461.24615Zm.0924.66154c0 .15384.123.26154.2615.26154.1538 0 .2615-.12308.2615-.26154 0-.15385-.123-.26154-.2615-.26154s-.2615.12308-.2615.26154Zm.2153.95384c0 .16924.1385.29231.2923.29231.1539 0 .2924-.13846.2924-.29231 0-.16923-.1385-.2923-.2924-.2923-.1692 0-.2923.13846-.2923.2923Zm.077.96924c0 .18461.1384.32303.323.32303.1847 0 .3231-.13842.3231-.32303 0-.18462-.1384-.32308-.3231-.32308-.1692.01538-.323.15384-.323.32308Zm.6461.98463c0-.1846-.1538-.3539-.3538-.3539-.1846 0-.3539.1539-.3539.3539 0 .1846.1539.3538.3539.3538.2 0 .3538-.1538.3538-.3538Zm-.1077.9692c0-.2-.1692-.3692-.3692-.3692-.2 0-.3692.1692-.3692.3692 0 .2.1692.3692.3692.3692.2 0 .3692-.1692.3692-.3692Zm-.2461.9385c0-.2154-.1846-.4-.4-.4-.2154 0-.4.1846-.4.4 0 .2154.1846.4.4.4.2154 0 .4-.1693.4-.4Zm-.8.4769c-.2308 0-.4308.1846-.4308.4308 0 .2307.1846.4307.4308.4307.2307 0 .4307-.1846.4307-.4307 0-.2462-.1846-.4308-.4307-.4308ZM5.6923 4.43074c.01539 0 .03077-.01538.03077-.03077 0-.01538-.01538-.03077-.03077-.03077-.01538 0-.03076.01539-.03076.03077 0 .01539.01538.03077.03076.03077Zm.86154-.43077c.03077 0 .06154-.03077.06154-.04615 0-.03077-.03077-.04615-.06154-.04615s-.04615.03077-.04615.04615c0 .01538.01538.04615.04615.04615Zm.90769-.33846c.04616 0 .07693-.03077.07693-.07692 0-.04615-.03077-.07692-.07693-.07692-.04615 0-.07692.03077-.07692.07692 0 .04615.03077.07692.07692.07692Zm.95385-.23077c.06154 0 .10769-.04615.10769-.10769s-.04615-.10769-.10769-.10769-.10769.04615-.10769.10769c0 .04615.04615.10769.10769.10769Zm.95385-.13846c.07692 0 .13846-.06154.13846-.13846s-.06154-.13846-.13846-.13846c-.07693 0-.13846.06154-.13846.13846.01538.07692.07692.13846.13846.13846Zm.98457-.04615c.0923 0 .1539-.07693.1539-.15385 0-.09231-.0769-.15384-.1539-.15384-.0923 0-.1538.07692-.1538.15384-.0154.09231.0615.15385.1538.15385Zm.9847.07692c.1076 0 .1846-.07692.1846-.18461 0-.1077-.077-.18462-.1846-.18462-.1077 0-.1847.07692-.1847.18462-.0153.10769.077.18461.1847.18461Zm.9538.16923c.1231 0 .2154-.09231.2154-.21538 0-.12308-.0923-.21539-.2154-.21539-.1231 0-.2154.09231-.2154.21539.0154.12307.1077.21538.2154.21538Zm.9538.29231c.1385 0 .2462-.10769.2462-.24615 0-.13847-.1077-.24616-.2462-.24616-.1384 0-.2461.10769-.2461.24616 0 .13846.1077.24615.2461.24615Zm.8924.41538c.1538 0 .2615-.12307.2615-.26153 0-.15385-.1231-.26154-.2615-.26154-.1539 0-.2616.12307-.2616.26154 0 .15384.1231.26153.2616.26153Zm.5538.24616c0 .16923.1385.2923.2923.2923.1692 0 .2923-.13846.2923-.2923 0-.16923-.1384-.29231-.2923-.29231-.1692 0-.2923.12308-.2923.29231Zm1.0462.92307c.1692 0 .323-.13846.323-.32307 0-.16923-.1384-.32308-.323-.32308-.1847 0-.3231.13846-.3231.32308.0154.18461.1538.32307.3231.32307Zm.6923.73847c.1846 0 .3538-.15385.3538-.35385 0-.18462-.1538-.35385-.3538-.35385-.1846 0-.3539.15385-.3539.35385s.1539.35385.3539.35385ZM17 6.1692c-.2 0-.3692.16923-.3692.36923s.1692.36924.3692.36924c.2 0 .3692-.16924.3692-.36924.0154-.2-.1538-.36923-.3692-.36923Zm.0769 1.23077c0 .21539.1846.4.4.4.2154 0 .4-.18461.4-.4 0-.21538-.1846-.4-.4-.4-.2154 0-.4.18462-.4.4Zm.3385.9077c0 .23076.1846.43076.4307.43076.2308 0 .4308-.18461.4308-.43076 0-.23077-.1846-.43077-.4308-.43077-.2461.01538-.4307.2-.4307.43077Zm.6615.50769c-.2461 0-.4461.2-.4461.46154 0 .24615.2.44615.4461.44615.2462 0 .4462-.2.4462-.44615 0-.26154-.2-.46154-.4462-.46154ZM2.18461 11.0461c-.03077 0-.04615.0154-.04615.0462 0 .0307.03077.0461.04615.0461.03077 0 .04616-.0154.04616-.0461 0-.0154-.01539-.0462-.04616-.0462Zm.29231-.9846c-.06154 0-.10769.0462-.10769.1077 0 .0615.04615.1077.10769.1077s.10769-.0462.10769-.1077c-.01538-.0615-.06154-.1077-.10769-.1077Zm.53846-.79999c0-.07692-.06154-.15384-.15384-.15384-.07693 0-.15385.06153-.15385.15384 0 .07692.06154.15385.15385.15385.07692 0 .15384-.06154.15384-.15385Zm.32308-.64615c.10769 0 .2-.09231.2-.2 0-.10769-.09231-.2-.2-.2-.10769 0-.2.09231-.2.2 0 .10769.09231.2.2.2Zm.56923-.75385c.13846 0 .24615-.10769.24615-.24615 0-.13846-.10769-.24616-.24615-.24616-.13846 0-.24615.1077-.24615.24616 0 .13846.10769.24615.24615.24615Zm.64615-.67692c.16923 0 .3077-.13846.3077-.30769 0-.16923-.13847-.3077-.3077-.3077-.16923 0-.30769.13847-.30769.3077.01539.16923.13846.30769.30769.30769Zm.72308-.61539c.2 0 .35385-.15384.35385-.35384 0-.2-.15385-.35385-.35385-.35385s-.35385.15385-.35385.35385.15385.35384.35385.35384Zm.78461-.52307c.23077 0 .4-.18462.4-.4 0-.21539-.18461-.4-.4-.4-.21538 0-.39999.18461-.39999.4 0 .21538.18461.4.39999.4Zm.86154-.44616c.24616 0 .44616-.2.44616-.44615 0-.24615-.2-.44615-.44616-.44615-.24615 0-.44615.2-.44615.44615-.01539.24615.18461.44615.44615.44615Z"/><path d="M7.83076 5.29228c.24616 0 .46154-.18461.49231-.43076.09231.13846.26154.23076.44615.23076.21539 0 .4-.12307.49231-.2923.10769.13846.29231.24615.47692.24615.18462 0 .33845-.07692.44615-.2.1231.16923.3077.27692.5385.27692.1384 0 .2615-.04615.3692-.12307.0308.04615.0462.07692.0769.10769-.1692.01538-.3077.09231-.4307.2-.1231-.10769-.2924-.18462-.477-.18462-.2307 0-.43074.1077-.5692.29231-.10769-.09231-.24615-.13846-.4-.13846-.26154 0-.49231.15385-.6.38461-.07692-.07692-.2-.12307-.33846-.12307-.29231 0-.53846.2-.6.47692-.09231-.06154-.2-.09231-.30769-.09231-.32308 0-.58462.26154-.58462.58462-.07692-.04616-.16923-.07692-.27692-.07692-.30769 0-.53846.24615-.53846.53846 0 .04615.01538.10769.01538.15384-.07692-.04615-.16923-.07692-.26154-.07692-.27692 0-.50769.23077-.50769.50769 0 .27693.23077.5077.50769.5077.27693 0 .50769-.23077.50769-.5077 0-.04615 0-.09231-.01538-.12307.09231.06153.18462.0923.29231.0923.29231 0 .53846-.23077.53846-.52307.09231.06154.2.0923.30769.0923h.03077c-.12308.1077-.2.26154-.21538.44616-.04616 0-.07693-.01539-.12308-.01539-.35385 0-.64615.29231-.64615.64616v.07692h-.07693c-.33846 0-.6.27692-.6.6 0 .06154.01539.13846.03077.2h-.03077c-.32307 0-.56923.26154-.56923.56923 0 .10769.03077.21539.09231.29231h-.01539c-.2923 0-.53846.24613-.53846.53843 0 .1539.06154.2923.16923.4h-.01538c-.27692 0-.50769.2308-.50769.5077 0 .2769.23077.5077.50769.5077.27692 0 .50769-.2308.50769-.5077 0-.1384-.06154-.2615-.15384-.3538h.03076c.15385 0 .29231-.0616.4-.1693v.0154c0 .1385.04616.2616.12308.3693-.23077.0769-.4.3077-.4.5538 0 .1846.07692.3385.21539.4462-.2.0923-.32308.2923-.32308.5077 0 .2153.12308.4.30769.5076-.16923.0924-.29231.2616-.29231.477 0 .2615.18462.4615.41539.523-.16923.077-.27692.2462-.27692.4462 0 .2769.23076.5077.50769.5077.03077 0 .06154 0 .09231-.0154-.2.0615-.33847.2462-.33847.4462 0 .2615.21539.4769.47693.4769s.47692-.2154.47692-.4769c0-.2616-.21538-.477-.47692-.477-.03077 0-.06154 0-.09231.0154.2-.0615.35385-.2615.35385-.4769v-.0308c.07692.0923.18461.1539.2923.1693-.07692.0923-.13846.2307-.13846.3692 0 .3077.24616.5538.55385.5538h.01538c-.06154.0923-.10769.2-.10769.3077 0 .2923.24615.5385.53846.5385.06154 0 .10769-.0154.15385-.0154-.04616.0769-.07693.1692-.07693.2769 0 .277.23077.5077.5077.5077.12307 0 .23077-.0461.30769-.1077-.07692.077-.12308.2-.12308.3077 0 .2616.21539.4769.47692.4769.26154 0 .47693-.2153.47693-.4769 0-.1231-.04616-.2461-.13846-.3231.06154 0 .12307-.0153.18461-.0307 0 .2307.12308.4307.32308.5231-.03077 0-.06154-.0154-.09231-.0154-.24615 0-.44615.2-.44615.4461 0 .2462.2.4616.44615.4616.24615 0 .46154-.2.46154-.4616 0-.1692-.09231-.3231-.24615-.4.04615.0154.0923.0154.13846.0154.10769 0 .21539-.0308.30769-.0923.0308.2923.2615.5077.5538.5077.1539 0 .3077-.0615.4-.1692.0462.2615.2616.4461.5231.4461.2 0 .3846-.1077.4769-.2769.0462.2308.2462.4.4924.4.2615 0 .4769-.2.5076-.4462.0154.2462.2154.4462.477.4462.2615 0 .4769-.2154.4769-.4769 0-.2616-.2154-.477-.4615-.477.0461-.0461.0769-.0923.1076-.1538.1077.1077.2616.1846.4154.1846.0616 0 .1231-.0154.1846-.0308-.123.077-.2.2154-.2.3693 0 .2461.2.4615.4616.4615.2461 0 .4461-.2.4461-.4615 0-.2462-.2-.4462-.4461-.4462-.0462 0-.0923.0154-.1231.0154.1385-.0769.2308-.2154.2615-.3692.0924.0769.2308.1384.3539.1384.3077 0 .5692-.2461.5692-.5538v-.0154c.0923.0615.2.1077.3077.1077.2923 0 .5385-.2462.5385-.5385 0-.0615 0-.1077-.0308-.1538.0769.0461.1692.0923.2769.0923.277 0 .5077-.2308.5077-.5077 0-.1231-.0461-.2308-.1077-.3077.077.0769.1846.1231.3077.1231.2616 0 .4769-.2154.4769-.4769 0-.2616-.2153-.477-.4769-.477-.1231 0-.2461.0462-.3384.1385 0-.0615-.0154-.1231-.0308-.1846.2308 0 .4308-.1231.5231-.3231 0 .0308-.0154.0616-.0154.0923 0 .2462.2.4462.4615.4462.2462 0 .4616-.2.4616-.4462 0-.2461-.2-.4461-.4616-.4461-.1692 0-.3231.0923-.4.2461.0154-.0461.0154-.0923.0154-.1384 0-.1077-.0308-.2154-.0923-.3077.2923-.0154.5077-.2616.5077-.5539 0-.1538-.0615-.3077-.1692-.4.2615-.0461.4461-.2615.4461-.5231 0-.2-.1077-.3846-.2769-.4769.2308-.0461.4-.2461.4-.4923 0-.2615-.2-.4769-.4615-.5077.2461-.0154.4461-.2307.4461-.4769 0-.2615-.2154-.47692-.4769-.47692-.2616 0-.4769.21542-.4769.47692 0 .2462.1846.4462.4307.4769-.2615.0154-.4769.2308-.4769.5077 0 .1846.1077.3539.2615.4462-.2461.0461-.4461.2615-.4461.523 0 .1539.0615.277.1538.3693-.2769.0307-.4923.2769-.4923.5538 0 .1077.0308.2.077.2769-.3077.0154-.5539.277-.5539.5847 0 .0615.0154.123.0308.1692h-.0308c-.3385 0-.6154.2769-.6154.6154v.0461c-.0307 0-.0615-.0154-.0923-.0154-.3231 0-.5846.2462-.6308.5539-.0615-.0154-.1076-.0308-.1692-.0308-.2615 0-.4923.1539-.6.3846-.1384-.1077-.3077-.1538-.4769-.123-.2.0307-.3539.1692-.4308.3384-.1231-.1384-.3077-.2154-.5077-.1846-.2.0308-.3538.1385-.4307.3077-.1077-.1385-.277-.2154-.4616-.2154-.1692 0-.3231.0769-.4307.1846-.0616-.1538-.2-.2769-.3693-.323-.1846-.0616-.3692-.0154-.5077.0769-.0461-.1693-.1538-.3231-.323-.4-.1693-.0769-.3385-.0769-.4924 0 0-.1693-.07688-.3231-.21534-.4462-.13846-.1077-.30769-.1384-.46154-.1231.04616-.1692 0-.3384-.10769-.4923-.10769-.1538-.29231-.2307-.46154-.2307.06154-.1539.06154-.3385-.01538-.5077-.07693-.1539-.21539-.2462-.36923-.2923.0923-.1231.13846-.2923.10769-.4462-.03077-.1846-.13846-.3384-.29231-.4154.13846-.1077.23077-.2769.23077-.4769 0-.1692-.07692-.3231-.2-.4308.15385-.0769.26154-.2153.30769-.3846.04616-.1692 0-.3384-.09231-.4769.15385-.0308.29231-.1385.38462-.2769.09231-.1539.10769-.3385.04615-.49233.16924.01538.33847-.06154.46154-.2.12308-.13846.16923-.30769.13846-.47692.15385.04615.33847.01538.47693-.09231.15389-.10769.23079-.26154.24619-.43077.1538.07692.3384.09231.5077.01538.1538-.06153.2769-.2.323-.33846.1231.10769.277.16923.4462.15385.1846-.01539.3538-.12308.4461-.27692.0923.13846.2616.23076.4308.24615.1692.01538.3385-.04615.4462-.16923.0615.15384.1846.27692.3692.33846.1692.06154.3692.03077.5077-.06154.0308.16923.1384.32308.2923.41539.1385.07692.2769.0923.4154.06153.0154.01539.0307.04616.0461.06154 0 .12308.0616.24616.1539.35385l.0154.01538c.2923.3077 1 1.07695.8615 2.09235-.0308.2615.1077.3846.2923.1846 1.1077-1.1846.9385-2.66156.9077-2.83079 0-.10769-.0308-.21539-.0769-.32308.0154-.06154.0154-.12308.0154-.18462 0-.30769-.1539-.58461-.3693-.75384.0154-.06154.0154-.10769.0154-.16923 0-.38462-.2308-.70769-.5692-.84616-.0154-.43076-.3231-.76923-.7385-.84615-.0769-.38461-.4-.67692-.8154-.67692h-.0461c-.1077-.30769-.4-.53846-.7385-.53846-.0615 0-.1384.01538-.2.03076-.1231-.26153-.3692-.43076-.6769-.43076-.1231 0-.2308.03076-.3231.07692-.1231-.2-.3384-.33846-.6-.33846-.1692 0-.3077.06154-.4307.15384-.1231-.16923-.3077-.27692-.5231-.27692-.2 0-.3846.09231-.5077.24615-.10771-.13846-.27694-.23076-.47694-.23076-.24615 0-.46154.13846-.55384.35384-.1077-.12308-.24616-.2-.43077-.2-.29231 0-.52308.21539-.55385.49231-.09231-.12308-.23077-.2-.4-.2-.27692 0-.50769.23077-.50769.50769.13846.24615.36923.47692.64615.47692ZM4.44615 18.2769c-.01539 0-.03077.0154-.03077.0462 0 .0153.01538.0461.03077.0461.01538 0 .04615-.0154.04615-.0461-.01538-.0308-.03077-.0462-.04615-.0462Zm-.46154-.9077c-.04616 0-.07693.0308-.07693.0769 0 .0462.03077.077.07693.077.04615 0 .07692-.0308.07692-.077 0-.0307-.03077-.0769-.07692-.0769Zm-.35385-.9385c-.06154 0-.12308.0462-.12308.1231 0 .0616.04616.1231.12308.1231.06154 0 .12308-.0462.12308-.1231-.01539-.0769-.06154-.1231-.12308-.1231Zm-.27692-.9846c-.09231 0-.15385.077-.15385.1539 0 .0923.06154.1538.15385.1538.09231 0 .15384-.0615.15384-.1538.01539-.0923-.06153-.1539-.15384-.1539Zm.03077-.8154c0-.1076-.09231-.2-.2-.2-.10769 0-.2.0924-.2.2 0 .1077.09231.2.2.2.12307 0 .2-.0923.2-.2Zm-.01539-.9692c0-.1231-.10769-.2308-.23077-.2308-.12307 0-.23077.1077-.23077.2308s.1077.2308.23077.2308c.12308 0 .23077-.1077.23077-.2308Zm-.46154-.9846c0 .1538.12308.2769.27693.2769.15384 0 .27692-.1231.27692-.2769S3.33845 12.4 3.18461 12.4c-.15385 0-.27693.1231-.27693.2769Zm.41539-.6615c.16923 0 .30769-.1385.30769-.3077 0-.1693-.13846-.3077-.30769-.3077-.16923 0-.30769.1384-.30769.3077 0 .1692.13846.3077.30769.3077Zm.27692-1.6c-.2 0-.35384.1538-.35384.3538s.15384.3539.35384.3539c.2 0 .35385-.1539.35385-.3539-.01539-.2-.16923-.3538-.35385-.3538Zm.38462-.1539c.21538 0 .38461-.1692.38461-.3846 0-.21538-.16923-.38462-.38461-.38462-.21539 0-.38462.16924-.38462.38462 0 .2.16923.3846.38462.3846Z"/><path d="M4.49229 9.46153c.23077 0 .43077-.18462.43077-.43077 0-.23077-.18461-.43077-.43077-.43077-.23077 0-.43077.18461-.43077.43077 0 .23077.18462.43077.43077.43077Zm1.07693-1.2c0-.26154-.21539-.46154-.46154-.46154-.26154 0-.46154.21538-.46154.46154 0 .26153.21538.46153.46154.46153.24615.01539.46154-.2.46154-.46153Z"/></g><defs><clipPath id="clip0_17_55"><path fill="#fff" d="M2 2h20v20H2z"/></clipPath></defs></svg>