<svg width="24" height="24" viewBox="0 0 24 24" fill="none" xmlns="http://www.w3.org/2000/svg"><g clip-path="url(#clip0_111_763)"><path d="M14.5378 6.50977h-1.2882v1.89275h1.2882V6.50977ZM10.8406 3H9.55234v1.89276h1.28826V3Z" fill="#1682FE"/><path d="M7.14332 4.80499H5.85507v1.89276h1.28825V4.80499Z" fill="#60D8A4"/><path d="M5.30113 12H4v5.4025h1.30113V12Z" fill="#F4BB3B"/><path d="M5.30113 6.59747H4V12h1.30113V6.59747Z" fill="#60D8A4"/><path d="M16.38 8.31476h-1.2882v1.89274H16.38V8.31476Z" fill="#1682FE"/><path d="M16.38 13.7925h-1.2882v1.8927H16.38v-1.8927ZM14.5378 15.5975h-1.2882v1.8927h1.2882v-1.8927ZM10.8406 19.1072H9.55234V21h1.28826v-1.8928Z" fill="#FF5A5A"/><path d="M7.14332 17.3022H5.85507v1.8928h1.28825v-1.8928Z" fill="#F4BB3B"/><path d="M20 10.195V6.59749h-1.8551V4.80501h-3.6972V3h-3.6973v1.80501H7.05313v1.80502H5.19806V17.4025h1.85507v1.805h3.69727v1.805h3.6973v-1.805h3.6972v-1.805H20v-3.61h-3.6973v1.805h-1.855v1.805h-3.6973v-1.805H8.9082V8.40251h1.8551V6.59749h3.6972v1.80502h1.8551v1.80499H20v-.0125Z" fill="#3A3A3A"/></g><defs><clipPath id="clip0_111_763"><path fill="#fff" d="M4 3h16v18H4z"/></clipPath></defs></svg>