<svg width="24" height="24" viewBox="0 0 24 24" fill="none" xmlns="http://www.w3.org/2000/svg"><path d="M22.0003 12c0-.9205-.7462-1.6667-1.6667-1.6667-.9205 0-1.6667.7462-1.6667 1.6667h-.0003.0003c0 .0138-.0002.0276-.0003.0414v.0148h-.0001c-.0302 3.656-3.0031 6.6105-6.6664 6.6105-3.68177 0-6.66674-2.9848-6.66674-6.6667 0-3.68193 2.98497-6.66667 6.66674-6.66667.7578 0 1.4859.12674 2.1646.35969.6754.21284 1.1651.84411 1.1651 1.58983 0 .92046-.7462 1.66667-1.6666 1.66667-.1945 0-.3811-.03324-.5546-.09445h-.0001c-.3468-.12207-.7198-.18841-1.1084-.18841-1.8409 0-3.33331 1.49244-3.33331 3.33334 0 1.8409 1.49241 3.3333 3.33331 3.3333 1.8411 0 3.3334-1.4924 3.3334-3.3333h.0001c0-2.76149 2.2386-5.0001 5.0001-5.0001.1127 0 .2243.00411.3351.01144-1.1756-2.03836-3.0494-3.62329-5.2949-4.42784C14.3199 2.20573 13.1841 2 12.0001 2 6.47735 2 2 6.47717 2 12c0 5.5228 4.47735 10 10.0001 10 5.5193 0 9.9939-4.4711 10.0001-9.9887 0-.0038.0001-.0075.0001-.0113Z" fill="#46B549"/></svg>