<svg width="24" height="24" viewBox="0 0 24 24" fill="none" xmlns="http://www.w3.org/2000/svg"><path fill-rule="evenodd" clip-rule="evenodd" d="M18.3286 19.7434c-3.9282 3.2181-9.73299 2.994-13.39927-.6723-3.90553-3.9055-3.90553-10.23689 0-14.14187C8.59561 1.2624 14.4004 1.03829 18.3286 4.25635l-1.1643 1.16431c-3.2818-2.58298-8.05133-2.36103-11.07822.66532-3.26559 3.26613-3.26559 8.56172 0 11.82782 3.02689 3.0263 7.79642 3.2483 11.07822.6659l1.1643 1.1637Zm-6.3281-1.0736c3.709 0 6.7159-2.9858 6.7159-6.6694 0-3.68359-3.0069-6.66943-6.7159-6.66943-3.70948 0-6.71638 2.98584-6.71638 6.66943 0 3.6836 3.0069 6.6694 6.71638 6.6694ZM19.744 5.67179c3.008 3.67223 3.008 8.98451 0 12.65621l-1.1643-1.1643c2.3783-3.022 2.3783-7.30503 0-10.3276l1.1643-1.16431Z" fill="#00B74F"/></svg>