<svg width="24" height="24" viewBox="0 0 24 24" fill="none" xmlns="http://www.w3.org/2000/svg"><path d="M12 22c5.5228 0 10-4.4772 10-10 0-5.52285-4.4772-10-10-10C6.47715 2 2 6.47715 2 12c0 5.5228 4.47715 10 10 10Z" fill="#000"/><path d="M11.9355 4.7488c-.0912-.20625.2388-.3525.33-.15625 2.145 3.695 4.29 7.39185 6.435 11.09245-.1143 0-.2243-.0375-.3343-.055l-5.725-1.1412c-.1875-.0094-.2288-.3125-.0457-.3575l2.2463-.6188c.0268-.0067.0517-.0194.073-.0369.0214-.0175.0386-.0396.0504-.0645.0118-.025.018-.0523.018-.0799.0001-.0276-.006-.0549-.0177-.0799l-3.03-8.5075v.005Z" fill="#fff"/><path d="M11.6062 4.76837c.0207.03.0388.0625.0544.09625.6788 1.925 1.375 3.85 2.0488 5.77498.06.16-.165.2931-.275.1738-.5775-.605-1.1275-1.22815-1.6957-1.83315-.0918-.0825-.2249-.0275-.2843.05937L5.55125 15.9746c-.06875.0731-.12812.1831-.24312.1969-.0825 0-.1375-.0644-.18313-.1281v-.1063c2.16313-3.7212 4.32375-7.44373 6.4812-11.16873Z" fill="#fff"/><path d="M9.80008 11.3723c.11-.0319.25622.0456.22002.1788-.2294.7975-.4719 1.5906-.71065 2.3831-.03625.1012.055.1925.15125.1975 3.0894.6187 6.1788 1.26 9.2675 1.8787.06.0094.1013.055.1469.0919v.1281l-.0875.0919H5.67508c1.375-1.65 2.74562-3.3094 4.125-4.95Z" fill="#fff"/></svg>