<svg width="24" height="24" viewBox="0 0 24 24" fill="none" xmlns="http://www.w3.org/2000/svg"><path d="M12 22c5.5228 0 10-4.4772 10-10 0-5.52285-4.4772-10-10-10C6.47715 2 2 6.47715 2 12c0 5.5228 4.47715 10 10 10Z" fill="#2E3148"/><path d="M12.0001 17.8025c3.2046 0 5.8024-2.5979 5.8024-5.8025 0-3.20463-2.5978-5.80249-5.8024-5.80249-3.20466 0-5.80251 2.59786-5.80251 5.80249 0 3.2046 2.59785 5.8025 5.80251 5.8025Z" fill="#1B1E36"/><path d="M12.0206 3.27576c-1.0794 0-1.9547 3.9152-1.9547 8.74484 0 4.8297.8753 8.7449 1.9547 8.7449 1.0795 0 1.9547-3.9152 1.9547-8.7449 0-4.82964-.8752-8.74484-1.9547-8.74484Zm.135 16.99624c-.1235.1646-.2469.0411-.2469.0411-.4971-.576-.7457-1.6461-.7457-1.6461-.8695-2.7983-.6625-8.80652-.6625-8.80652.4086-4.76992 1.152-5.89672 1.4049-6.14688.0259-.02553.0599-.04114.0961-.04406.0362-.00293.0722.00701.1018.02806.3671.26008.6749 1.34776.6749 1.34776.9091 3.37448.8267 6.54324.8267 6.54324.0824 2.7572-.4555 5.8436-.4555 5.8436-.414 2.3456-.9938 2.8398-.9938 2.8398Z" fill="#6F7390"/><path d="M19.6058 7.66871c-.5374-.93664-4.3687.25263-8.56 2.65599-4.19124 2.4034-7.14773 5.1111-6.61069 6.0474.53704.9362 4.36873-.2527 8.55999-2.656 4.1913-2.4034 7.1478-5.11115 6.6107-6.04739ZM4.93095 16.2436c-.20576-.0259-.15928-.1951-.15928-.1951.2524-.7176 1.05561-1.4658 1.05561-1.4658 1.99544-2.1469 7.31032-4.95719 7.31032-4.95719 4.3403-2.01936 5.6885-1.93416 6.0305-1.84.0351.00979.0656.0317.0861.06183.0205.03014.0297.06656.0259.10281-.0411.448-.8334 1.256-.8334 1.256-2.4729 2.46875-5.2626 3.97445-5.2626 3.97445-2.3507 1.444-5.29546 2.5127-5.29546 2.5127-2.24072.8075-2.95761.5503-2.95761.5503h-.00008Z" fill="#6F7390"/><path d="M19.5867 16.4033c.5416-.9341-2.4074-3.6543-6.584-6.0757-4.17653-2.42143-8.00732-3.62542-8.54844-2.68967-.54111.93576 2.40744 3.65427 6.58634 6.07577 4.179 2.4214 8.005 3.6255 8.5461 2.6896ZM4.81314 7.99889c-.08-.18968.08888-.23536.08888-.23536.74768-.1412 1.79792.18056 1.79792.18056 2.85718.65064 7.95196 3.84201 7.95196 3.84201 3.9226 2.7448 4.5242 3.9539 4.6144 4.2971.0092.0352.0056.0725-.0101.1053-.0156.0328-.0424.0591-.0755.0741-.4091.1873-1.5046-.0918-1.5046-.0918-3.3765-.9053-6.0769-2.5641-6.0769-2.5641-2.42631-1.3086-4.8255-3.3222-4.8255-3.3222-1.82304-1.53497-1.96-2.28353-1.96-2.28353l-.00056-.00208Z" fill="#6F7390"/><path d="M12.0001 13.029c.5681 0 1.0288-.4606 1.0288-1.0288 0-.5682-.4607-1.0288-1.0288-1.0288-.5682 0-1.0288.4606-1.0288 1.0288 0 .5682.4606 1.0288 1.0288 1.0288ZM16.2181 8.66657c.3296 0 .5968-.27637.5968-.61728 0-.34092-.2672-.61728-.5968-.61728-.3295 0-.5967.27636-.5967.61728 0 .34091.2672.61728.5967.61728ZM6.42383 10.7655c.32956 0 .59672-.2764.59672-.6173 0-.34089-.26716-.61726-.59672-.61726s-.59672.27637-.59672.61726c0 .3409.26716.6173.59672.6173ZM10.7859 18.3375c.3296 0 .5968-.2764.5968-.6173s-.2672-.6172-.5968-.6172c-.3295 0-.5967.2763-.5967.6172s.2672.6173.5967.6173Z" fill="#B7B9C8"/></svg>