<svg width="24" height="24" viewBox="0 0 24 24" fill="none" xmlns="http://www.w3.org/2000/svg"><path d="M3.99139 10.2048c-.28983 0-.41864.1269-.41864.3806v6.5371c0 .2855.12881.3807.41864.3807 3.18972.0317 7.08711-2.7606 10.30901-4.9502V5c-3.1889 2.15788-7.18369 5.2365-10.30901 5.2048Z" fill="url(#paint0_linear_125_714)"/><path d="M20.7754 13.1557c.2898 0 .4186-.1268.4186-.3806V6.23793c0-.2855-.1288-.38067-.4186-.38067-3.2219-.03172-7.0871 2.76062-10.309 4.95024v7.5214c3.1897-2.1579 7.1845-5.2366 10.309-5.1732Z" fill="url(#paint1_linear_125_714)"/><path d="M14.3004 12.553V8.23718c-1.3212.82478-2.6415 1.71381-3.866 2.53862v4.3158c1.3533-.8248 2.6422-1.7138 3.866-2.5386Z" fill="#194AAD"/><defs><linearGradient id="paint0_linear_125_714" x1="9.91789" y1="16.573" x2="8.09384" y2="6.0788" gradientUnits="userSpaceOnUse"><stop offset=".1" stop-color="#194AAD"/><stop offset=".5" stop-color="#248FCB"/><stop offset=".8" stop-color="#2BBFDF"/></linearGradient><linearGradient id="paint1_linear_125_714" x1="17.0212" y1="5.16648" x2="14.6091" y2="19.0519" gradientUnits="userSpaceOnUse"><stop offset=".1" stop-color="#194AAD"/><stop offset=".5" stop-color="#248FCB"/><stop offset=".8" stop-color="#2BBFDF"/></linearGradient></defs></svg>