<svg width="24" height="24" viewBox="0 0 24 24" fill="none" xmlns="http://www.w3.org/2000/svg"><path d="M22.3217 12c0-5.52285-4.4771-10-10-10-5.52283 0-9.99998 4.47715-9.99998 10 0 5.5228 4.47715 10 9.99998 10 5.5229 0 10-4.4772 10-10Z" fill="#010427"/><path d="M12.6853 8.76705V6.18182c-3.31524 0-5.99995 2.71436-5.99995 5.90898C6.68535 15.2855 9.3702 18 12.6853 18v-2.5852c-1.7695 0-3.37495-1.108-3.37495-3.3239 0-2.21589 1.60545-3.32385 3.37495-3.32385Z" fill="#fff"/><path d="M16.3243 9.00827c-.193 0-.3841-.03762-.5625-.11071-.1783-.0731-.3403-.18024-.4768-.31531-.1365-.13507-.2448-.29542-.3187-.4719-.0738-.17646-.1118-.36561-.1118-.55662 0-.19102.038-.38016.1118-.55663.0739-.17648.1822-.33682.3187-.47189.1365-.13507.2985-.24221.4768-.31531.1784-.07309.3695-.11072.5625-.11072.3899 0 .7637.15325 1.0394.42603.2756.27278.4305.64275.4305 1.02852 0 .38577-.1549.75573-.4305 1.02852-.2757.27277-.6495.42602-1.0394.42602Z" fill="#00DCD7"/><path d="M16.3243 18.0827c-.3898 0-.7637-.1533-1.0393-.4261-.2757-.2727-.4305-.6427-.4305-1.0285 0-.3857.1548-.7557.4305-1.0285.2756-.2728.6495-.426 1.0393-.426.3899 0 .7637.1532 1.0394.426.2756.2728.4305.6428.4305 1.0285 0 .3858-.1549.7558-.4305 1.0285-.2757.2728-.6495.4261-1.0394.4261Z" fill="#FF318B"/><path d="M12.8057 15.3141V8.8678c1.7998 0 3.297 1.4325 3.2563 3.2229.0407 1.7909-1.4563 3.2234-3.2563 3.2234Z" fill="#fff"/></svg>