<svg width="24" height="24" viewBox="0 0 24 24" fill="none" xmlns="http://www.w3.org/2000/svg"><circle cx="12" cy="12" r="7" fill="#fff"/><path fill-rule="evenodd" clip-rule="evenodd" d="M12 2.00836c-5.52951 0-10 4.50209-10 10.04184C2 17.59 6.47049 22.092 12 22.092c5.5287 0 10-4.4903 10-10.0418 0-5.53975-4.4834-10.04184-10-10.04184Zm.8044 10.51544 3.5052 3.5197c.0673.0663.1196.1472.1532.2369.0336.0897.0476.186.041.282-.0066.0959-.0335.1892-.079.2731-.0454.0839-.1082.1563-.1839.2122-1.1224.8867-2.4959 1.3655-3.9078 1.3623-3.73488 0-6.72437-3.2552-6.28702-7.087.32175-2.94309 2.70089-5.30962 5.64272-5.59832 1.6376-.17183 3.2772.30676 4.5869 1.33891.0716.05696.1304.12937.1723.21222.0419.08284.0659.17414.0703.26753.0043.0934-.011.18667-.0449.27333-.0339.08666-.0857.16463-.1517.22851l-3.5173 3.53142c-.0627.0606-.1126.134-.1468.2154-.0342.0815-.0518.1694-.0518.2582 0 .0888.0176.1767.0518.2582.0342.0814.0841.1548.1468.2154Z" fill="#69E2DC"/></svg>