<svg width="24" height="24" viewBox="0 0 24 24" fill="none" xmlns="http://www.w3.org/2000/svg"><path d="M11.9623 2 3.30005 7v10l8.66225 5 8.6622-5V7l-8.6622-5Z" fill="url(#paint0_linear_9_14724)"/><path d="M11.9623 2 3.30005 7v10l8.66225 5V2Z" fill="url(#paint1_linear_9_14724)"/><path d="M15.3394 6.32019H8.54119l-.78947 3.46493h8.42098l-.8333-3.46493ZM9.74732 14.5439v-2.3026l-2.01753-1.272-2.28069 1.6886 3.11402 5.4167h1.24999l1.46929-1.3816v-.6798l-1.53508-1.4693Z" fill="#fff"/><path d="M14.1552 10.3114H9.76929l.72371 1.9298-.2193 2.171h3.3771l-.2193-2.171.7237-1.9298Z" fill="#fff"/><path d="m16.1728 10.9473-1.9956 1.2939v2.3026l-1.5131 1.4693v.6798l1.4693 1.3597h1.228l3.0922-5.3948-2.2808-1.7105Z" fill="#fff"/><defs><linearGradient id="paint0_linear_9_14724" x1="11.9546" y1="2" x2="11.9546" y2="21.9877" gradientUnits="userSpaceOnUse"><stop stop-color="#25376C"/><stop offset="1" stop-color="#1F1F49"/></linearGradient><linearGradient id="paint1_linear_9_14724" x1="7.62788" y1="21.9877" x2="7.62788" y2="2" gradientUnits="userSpaceOnUse"><stop stop-color="#25376C"/><stop offset="1" stop-color="#1F1F49"/></linearGradient></defs></svg>