<svg width="24" height="24" viewBox="0 0 24 24" fill="none" xmlns="http://www.w3.org/2000/svg"><path d="m7.2462 3.20001 1.2186 3.01608C6.52 7.40738 5.2222 9.55217 5.2222 12c0 3.7432 3.0345 6.7777 6.7778 6.7777.4961.0003.9907-.0537 1.475-.161l1.2186 3.0162c-.877.2443-1.7832.3678-2.6936.367-5.5228 0-10-4.4772-10-9.9999 0-3.80222 2.1219-7.1087 5.2462-8.79999Z" fill="#FE4040"/><path d="M12 15.5556c-1.9637 0-3.5556-1.5919-3.5556-3.5556S10.0363 8.4444 12 8.4444c1.3837 0 2.5829.79 3.17 1.9445h3.4147c-.723-2.9655-3.397-5.1667-6.5851-5.1667-.4961-.00029-.9907.0537-1.475.161L9.3064 2.367C10.1834 2.1227 11.0896 1.99923 12 2c5.5228 0 10.0001 4.4772 10.0001 10 0 3.8021-2.122 7.1087-5.2463 8.8l-1.2186-3.0161c1.5038-.9211 2.6207-2.4123 3.05-4.1728H15.17c-.2976.5849-.7513 1.0762-1.3107 1.4193-.5595.3432-1.203.525-1.8593.5252Z" fill="#00C46B"/></svg>