<svg width="24" height="24" viewBox="0 0 24 24" fill="none" xmlns="http://www.w3.org/2000/svg"><path d="M14.6997 3.69995H7.41954l-.60377 3.37326L13.387 7.081c3.237 0 4.1913 1.17636 4.164 3.124-.0156.9971-.4479 2.6877-.6349 3.2369-.4986 1.4607-1.523 3.124-5.3637 3.1201l-6.3882-.0039-.60376 3.3771H11.825c2.5631 0 3.6499-.2999 4.8067-.8296 2.5592-1.1881 4.0822-3.7122 4.6938-7.0076.9076-4.90793-.222-8.39805-6.6258-8.39805Z" fill="#008DE4"/><path d="M4.27608 10.1232c-1.90865 0-2.18132 1.2425-2.3605 1.9943-.23761.9816-.31551 1.3828-.31551 1.3828h7.45545c1.90868 0 2.18128-1.2425 2.36048-1.9943.2376-.9816.3155-1.3828.3155-1.3828H4.27608Z" fill="#008DE4"/></svg>