<svg width="24" height="24" viewBox="0 0 24 24" fill="none" xmlns="http://www.w3.org/2000/svg"><path d="M12 22c5.5228 0 10-4.4772 10-10 0-5.52285-4.4772-10-10-10C6.47715 2 2 6.47715 2 12c0 5.5228 4.47715 10 10 10Z" fill="url(#paint0_linear_13_505)"/><path fill-rule="evenodd" clip-rule="evenodd" d="M9.08493 8.5V16h6.24997L9.08493 8.5Z" fill="url(#paint1_linear_13_505)"/><path fill-rule="evenodd" clip-rule="evenodd" d="M2.8353 16h6.25V8.5l-6.25 7.5Z" fill="#fff"/><path fill-rule="evenodd" clip-rule="evenodd" d="M4 18c.57.755 1.245 1.43 2 2h12c.755-.57 1.43-1.245 2-2H4Z" fill="#FC9965"/><path fill-rule="evenodd" clip-rule="evenodd" d="M6 20c1.67 1.255 3.75 2 6 2s4.33-.745 6-2H6Z" fill="#FF2D55"/><path fill-rule="evenodd" clip-rule="evenodd" d="M15.4151 12.5V18h4.585l-4.585-5.5Z" fill="url(#paint2_linear_13_505)"/><path fill-rule="evenodd" clip-rule="evenodd" d="M15.4153 16h-12.58c.31.715.705 1.385 1.165 2h11.42v-2h-.005Z" fill="#FFBC5B"/><path fill-rule="evenodd" clip-rule="evenodd" d="M10.8349 18h4.58v-5.5l-4.58 5.5Z" fill="#fff"/><path d="M15.4151 11c1.3807 0 2.5-1.11929 2.5-2.5s-1.1193-2.5-2.5-2.5-2.5 1.11929-2.5 2.5 1.1193 2.5 2.5 2.5ZM9.08493 7c.69036 0 1.24997-.55964 1.24997-1.25S9.77529 4.5 9.08493 4.5s-1.25.55964-1.25 1.25S8.39457 7 9.08493 7Z" fill="#FFC95B"/><defs><linearGradient id="paint0_linear_13_505" x1="19.071" y1="4.929" x2="4.929" y2="19.071" gradientUnits="userSpaceOnUse"><stop stop-color="#FF2D55"/><stop offset="1" stop-color="#FFBC5B"/></linearGradient><linearGradient id="paint1_linear_13_505" x1="12.2078" y1="8.5" x2="12.2078" y2="16" gradientUnits="userSpaceOnUse"><stop stop-color="#A524B3"/><stop offset="1" stop-color="#FF2D55"/></linearGradient><linearGradient id="paint2_linear_13_505" x1="17.706" y1="12.5" x2="17.706" y2="18" gradientUnits="userSpaceOnUse"><stop stop-color="#A524B3"/><stop offset="1" stop-color="#FF2D55"/></linearGradient></defs></svg>