<svg width="24" height="24" viewBox="0 0 24 24" fill="none" xmlns="http://www.w3.org/2000/svg"><g clip-path="url(#clip0_113_578)"><path d="M10.7914 13.5712h4.9318c1.8323 0 3.3333-1.4815 3.3333-3.3333 0-1.85189-1.4815-3.31388-3.3138-3.31388h-1.579l-3.3723-2.92398h4.9318c3.4502-.01949 6.2573 2.76803 6.2573 6.21836.0195 2.5536-1.54 4.8538-3.9182 5.8089l3.8987 3.3724h-4.4445l-6.7251-5.8285Z" fill="url(#paint0_linear_113_578)"/><path d="M13.2085 9.84795H8.27669c-1.83236 0-3.33333 1.48145-3.33333 3.33335 0 1.8518 1.48148 3.3333 3.33333 3.3333h1.57895l3.35286 2.924H8.27669c-3.45029 0-6.25731-2.7875-6.2768-6.2183-.01949-2.5731 1.53996-4.87332 3.91813-5.82849L2.01938 4h4.46394l6.72518 5.84795Z" fill="#4971FA"/><path d="M13.2085 9.84795H8.27669c-1.83236 0-3.33333 1.48145-3.33333 3.33335 0 1.8518 1.48148 3.3333 3.33333 3.3333h1.57895l3.35286 2.924H8.27669c-3.45029 0-6.25731-2.7875-6.2768-6.2183-.01949-2.5731 1.53996-4.87332 3.91813-5.82849L2.01938 4h4.46394l6.72518 5.84795Z" fill="url(#paint1_linear_113_578)"/></g><defs><linearGradient id="paint0_linear_113_578" x1="10.8009" y1="11.7008" x2="21.9763" y2="11.7008" gradientUnits="userSpaceOnUse"><stop stop-color="#62D0C9"/><stop offset="1" stop-color="#7DE2AC"/></linearGradient><linearGradient id="paint1_linear_113_578" x1="2.03482" y1="11.7097" x2="13.2103" y2="11.7097" gradientUnits="userSpaceOnUse"><stop stop-color="#3268FB"/><stop offset="1" stop-color="#4795FA"/></linearGradient><clipPath id="clip0_113_578"><path fill="#fff" d="M2 4h20v15.4191H2z"/></clipPath></defs></svg>