<svg width="24" height="24" viewBox="0 0 24 24" fill="none" xmlns="http://www.w3.org/2000/svg"><g clip-path="url(#clip0_135_314)"><path d="M9.80296 17.1041c-.48774-.0032-.98188-.0353-1.46323-.0897-.54548-.0705-1.01398-.1635-1.45037-.282-.48133-.1378-.92735-.3076-1.33486-.5031-.43319-.2243-.80541-.4678-1.12309-.737l.8375-.6504c.35297.1987.68027.3493 1.00114.4582.34976.1185.72198.2115 1.09741.2756.40109.0608.78614.0993 1.16157.1121.08667.0032.18613.0032.28237.0032.29844 0 .59688-.0128.8921-.0352.4363-.0385.8246-.0866 1.1744-.1474.3882-.0737.783-.1603 1.1616-.2596.8599-.2243 1.5915-.4614 2.2397-.7241 1.4793-.6056 2.7114-1.3522 3.6581-2.227l.3529-.3429c.0417-.0448.0835-.0897.1252-.1346.0673-.0737.1379-.1441.1957-.2146.1733-.2019.308-.423.4075-.6537.2022-.4646.2343-.9453.0931-1.36181-.0706-.21469-.1829-.40694-.337-.57677-.1604-.18264-.3722-.35888-.6128-.50948-.4781-.30761-1.091-.53191-1.7777-.65687-.1829-.03205-.3337-.05448-.4941-.06729l-.5841-.04486-.6418-.01282c-.0994 0-.1957.0032-.2951.00641-.0803.0032-.1605.00641-.2407.00641-.7509.03524-1.5338.13778-2.3007.3012-.722.1506-1.4632.38131-2.20765.6793-.70914.28198-1.37661.61843-1.99268 1.00935-1.18725.72733-2.69943 1.39383-3.47276 2.58583.4717-1.3522.787-2.60506 2.09619-3.62722 1.37339-1.0542 3.03554-1.85527 4.81-2.3263.9402-.25634 1.9092-.42616 2.8687-.49986.0962-.00641.1732-.00962.2502-.01603.1669-.01281.3337-.02243.5038-.02563l.7477-.0032.7348.03845c.2374.01281.4942.04165.8118.08651 1.107.17304 2.1275.53191 2.9617 1.03819.446.27236.8311.58958 1.1456.93885.3273.36208.5679.76582.7123 1.19519.2631.79786.2054 1.64695-.1668 2.46085-.1797.3877-.4236.7562-.722 1.0959-.0963.1057-.1894.2051-.2856.3012-.0449.0448-.0898.0897-.1348.1378-.1123.1089-.215.2018-.3176.2948l-.1444.1281c-1.2482 1.0767-2.8494 1.9611-4.64 2.5698-.9145.3109-1.8225.548-2.6986.7082-.4652.0865-.9241.1538-1.4022.2083-.507.0512-.9979.0769-1.46965.0801h-.01279v.0096Z" fill="#1E3862"/><path d="M4.89347 15.2009c.35297.1987.72198.3749 1.11346.5095.39467.1345.80219.2371 1.21933.3076.42035.0641.8439.1089 1.27068.1249.42677.0097.85354 0 1.27392-.032.42354-.0353.84074-.0865 1.25464-.157.4075-.0769.8214-.1666 1.2257-.2723.8055-.2083 1.5916-.455 2.3328-.7563 1.4793-.6056 2.8046-1.3874 3.8378-2.3391l.3722-.3653c.1123-.1249.2406-.2531.3433-.3717.199-.2339.3562-.4902.4717-.753.2311-.5287.2792-1.0958.1027-1.60531-.0866-.25634-.2246-.49666-.4171-.71455-.1926-.2211-.4461-.42937-.7284-.60561-.5648-.36208-1.2772-.61522-2.028-.7498-.1893-.03204-.3754-.06088-.5776-.0769l-.6096-.04807-.6162-.01281c-.2053-.00321-.4107.00961-.6193.01281-.8246.03846-1.6525.1474-2.4579.32043-.8086.16983-1.5884.41656-2.33276.71455-.74446.2948-1.45038.65368-2.09858 1.06062-1.3156.80424-2.34241 1.86484-3.1029 3.03444.43639-1.2561 1.32523-2.45447 2.57666-3.42857 1.25783-.96448 2.82052-1.74633 4.57258-2.21094.8728-.23712 1.7872-.40374 2.7242-.47423.2343-.01282.4685-.03525.7059-.04166l.7092-.0032.7123.03524c.2407.01282.491.04486.7317.08011.9722.1506 1.906.46782 2.6889.94526.3915.24032.7381.51909 1.0236.83951.292.32364.5039.68572.629 1.05421.2438.7466.1636 1.51567-.1541 2.21417-.1604.3493-.3818.6825-.6578.9933-.1347.1506-.2727.282-.4075.4262-.1412.1378-.292.2691-.4396.4005-1.2129 1.0478-2.7467 1.8745-4.4185 2.4417-.8375.2851-1.7007.5191-2.5895.6793-.4428.0833-.8888.1473-1.3477.2018-.4588.0481-.9177.0737-1.37974.0737-.4621-.0032-.92097-.032-1.37661-.0833-.45242-.0577-.90167-.141-1.32844-.2595-.42676-.1218-.83429-.2756-1.21292-.4583-.3626-.1858-.69952-.4037-.99152-.6504Z" fill="#0052FF"/><path d="M12.5177 14.7876c-.1091-.0033-.2631-.0097-.3754-.0417l-.0514-.016-.0481-.0257c-.1187-.0641-.2086-.1634-.2695-.298l-.0257-.0545-.0096-.0608c-.0129-.077-.0193-.2468-.0225-.3781v-.0161l.0193-1.711 1.2129.0031c.3818.0033.6739.0449.892.1282l.0097.0032c.2406.0962.4331.2436.5679.439l.0032.0064c.1348.1987.199.4358.1957.7018-.0031.2979-.093.5671-.2663.7946l-.0064.0096-.0064.0064c-.1829.2212-.4043.3654-.6578.4294-.1925.0545-.43.0802-.7284.0802h-.4332Z" fill="#1E3862"/><path d="M14.1415 13.4642c-.0032.2019-.0577.3717-.17.5159-.1188.141-.2535.2339-.4172.2756-.154.0449-.3594.0641-.6065.0641l-.4203-.0032c-.138-.0032-.2214-.016-.2567-.0257-.0321-.016-.0514-.0416-.0706-.0801-.0032-.0256-.0128-.1345-.0161-.3076l.0129-1.2432.7444.0031c.3273.0033.568.0353.7252.0962.1604.0641.2728.1538.353.2692.0866.1249.1251.2659.1219.4357ZM11.7251 12.2851l.0225-2.34235 1.1102.0032c.4364.00641.7156.03845.9049.10255.2407.0833.43.2179.5583.4037.1316.1827.199.4037.199.6601v.0064c-.0032.2371-.0738.455-.2054.6473l-.0096.0128-.0096.0128c-.1412.1795-.337.3108-.5776.3941l-.0129.0033c-.2053.064-.4812.0961-.8374.0961h-1.1424Z" fill="#1E3862"/><path d="M14.0519 11.1124c-.0032.1473-.045.2755-.122.3877-.0834.1057-.2021.189-.3626.2435-.1604.0513-.4011.0769-.7284.0737l-.6353-.0032.0129-1.4003.6353.0032c.369.0064.6257.0321.7637.0769.1443.0513.2535.125.3272.2307.0771.109.1092.2372.1092.3878ZM12.5177 14.7876c-.1091-.0033-.2631-.0097-.3754-.0417l-.0514-.016-.0481-.0257c-.1187-.0641-.2086-.1634-.2695-.298l-.0257-.0545-.0096-.0608c-.0129-.077-.0193-.2468-.0225-.3781v-.0161l.0193-1.711 1.2129.0031c.3818.0033.6739.0449.892.1282l.0097.0032c.2406.0962.4331.2436.5679.439l.0032.0064c.1348.1987.199.4358.1957.7018-.0031.2979-.093.5671-.2663.7946l-.0064.0096-.0064.0064c-.1829.2212-.4043.3654-.6578.4294-.1925.0545-.43.0802-.7284.0802h-.4332Z" fill="#1E3862"/><path d="M14.026 13.0316c.0834.1218.1187.2628.1155.4326-.0032.2019-.0577.3717-.17.5159-.1188.141-.2535.2339-.4172.2756-.154.0449-.3594.0641-.6065.0641l-.4203-.0032c-.138-.0032-.2214-.016-.2567-.0257-.0321-.016-.0514-.0416-.0706-.0801-.0032-.0256-.0128-.1345-.0161-.3076l.0129-1.2432.7444.0031c.3273.0033.568.0353.7252.0962.1637.0673.2792.1538.3594.2723ZM11.7251 12.2851l.0225-2.34235 1.1102.0032c.4364.00641.7156.03845.9049.10255.2407.0833.43.2179.5583.4037.1316.1827.199.4037.199.6601v.0064c-.0032.2371-.0738.455-.2054.6473l-.0096.0128-.0096.0128c-.1412.1795-.337.3108-.5776.3941l-.0129.0033c-.2053.064-.4812.0961-.8374.0961h-1.1424Z" fill="#1E3862"/><path d="M13.9396 10.7279c.0802.1057.1123.237.1123.3845-.0032.1473-.045.2755-.122.3877-.0834.1057-.2021.189-.3626.2435-.1604.0513-.4011.0769-.7284.0737l-.6353-.0032.0129-1.4003.6353.0032c.369.0064.6257.0321.7637.0769.1443.0513.2503.125.3241.234Z" fill="#1E3862"/><path d="M12.8645 19.3824c-3.40773 0-6.31169-2.432-6.90853-5.7868-.67706-3.80994 1.87392-7.4596 5.68923-8.1357.4075-.0737.8246-.10895 1.2353-.10895 3.4046 0 6.3118 2.43525 6.9086 5.79335.6771 3.8066-1.8739 7.4531-5.686 8.1292-.4107.0705-.8247.1089-1.2386.1089Z" fill="#1E3862"/><path d="M8.49382 16.5531c1.01403-.1154 2.03438-.1859 3.04838-.3109.154-.0192.3112-.0416.4717-.0673l-.4621-.0032.0064-.9452-1.4824-.0161.0064-.7914.2246-.0032c.1541.0064.2567-.0064.3113-.032.0545-.0257.093-.0641.109-.1122.0257-.0449.0386-.1538.0386-.3172l.032-3.2043c.0033-.1698-.0128-.2755-.032-.3268-.0193-.0449-.0578-.0833-.1123-.1122-.0546-.0288-.1573-.0448-.3081-.0416l-.2246-.0064.0064-.79149 1.4857.01602.0128-.94525.9723.0064-.0128.94526.6289.00321.0064-.94526.9755.01282-.0128 1.01254c.1475.02884.2791.06088.385.11215.2824.11856.5038.28518.6578.5063.1476.2211.2246.4614.2214.7209-.0032.1923-.0449.3685-.1283.5416-.0835.1666-.199.3172-.3562.4518-.154.1249-.3594.2339-.6065.3172.2663.0737.4749.1442.6161.2339.2022.1154.3658.2787.4845.487.1187.2083.1765.439.1733.6953 0 .3045-.0963.5832-.2824.8364-.1829.2563-.4492.4518-.7829.5832-.1283.0448-.2695.0865-.4332.1153l-.0032.5415c.7829-.1954 1.5627-.3909 2.3296-.6537.7925-.2723 1.4824-.5831 2.2397-.9196.1829-.0801.3626-.1602.5455-.2435.2054-.8491.2407-1.7527.077-2.6659-.6289-3.5728-4.0302-5.94395-7.592-5.31271-3.56497.63124-5.93947 4.02776-5.30735 7.58771.22141 1.2465.78616 2.3487 1.57555 3.2267.14436-.1026.32086-.1666.49732-.1858Z" fill="#0052FF"/><path d="M16.5642 16.7165c-.8375.2724-1.691.4646-2.5445.6825-1.4504.3653-2.9232.4999-4.4025.6472 1.2867.7338 2.8269 1.0414 4.4025.7627 1.7969-.3173 3.289-1.3394 4.2484-2.7301-.5583.2339-1.1263.4518-1.7039.6377Z" fill="#006AF2"/><path d="m12.5306 15.2329-.0064.8459c.2085-.0416.4171-.0865.6257-.1345l.0032-.7082c-.0225 0-.0449.0032-.0706 0l-.5519-.0032Z" fill="#0892D0"/><path d="M12.5177 14.7876c-.1091-.0033-.2631-.0097-.3754-.0417l-.0514-.016-.0481-.0257c-.1187-.0641-.2086-.1634-.2695-.298l-.0257-.0545-.0096-.0608c-.0129-.077-.0193-.2468-.0225-.3781v-.0161l.0193-1.711 1.2129.0031c.3818.0033.6739.0449.892.1282l.0097.0032c.2406.0962.4331.2436.5679.439l.0032.0064c.1348.1987.199.4358.1957.7018-.0031.2979-.093.5671-.2663.7946l-.0064.0096-.0064.0064c-.1829.2212-.4043.3654-.6578.4294-.1925.0545-.43.0802-.7284.0802h-.4332Z" fill="#1E3862"/><path d="M14.026 13.0316c.0834.1218.1187.2628.1155.4326-.0032.2019-.0577.3717-.17.5159-.1188.141-.2535.2339-.4172.2756-.154.0449-.3594.0641-.6065.0641l-.4203-.0032c-.138-.0032-.2214-.016-.2567-.0257-.0321-.016-.0514-.0416-.0706-.0801-.0032-.0256-.0128-.1345-.0161-.3076l.0129-1.2432.7444.0031c.3273.0033.568.0353.7252.0962.1637.0673.2792.1538.3594.2723Z" fill="#0892D0"/><path d="m11.7251 12.2851.0225-2.34235 1.1102.0032c.4364.00641.7156.03845.9049.10255.2407.0833.43.2179.5583.4037.1316.1827.199.4037.199.6601v.0064c-.0032.2371-.0738.455-.2054.6473l-.0096.0128-.0096.0128c-.1412.1795-.337.3108-.5776.3941l-.0129.0033c-.2053.064-.4812.0961-.8374.0961h-1.1424Z" fill="#1E3862"/><path d="M14.0519 11.1124c-.0032.1473-.045.2755-.122.3877-.0834.1057-.2021.189-.3626.2435-.1604.0513-.4011.0769-.7284.0737l-.6353-.0032.0129-1.4003.6353.0032c.369.0064.6257.0321.7637.0769.1443.0513.2535.125.3272.2307.0771.109.1092.2372.1092.3878Z" fill="#0892D0"/><path d="M9.10995 18.1904c-1.03323-.0481-2.00228-.189-2.89112-.4166-.90809-.2243-1.50945-.4892-2.3277-.9346-1.31731-1.0524-1.24622-1.4403-1.75641-2.017.64496.4582 1.5313.6859 2.19552.9646.70593.2948 1.65114.4778 2.4373.6317.738.1409 1.52418.2243 2.34241.2403.80543.016 1.64615-.0257 2.50295-.1314.7797-.0865 1.5787-.2371 2.3841-.4454.7155-.1795 1.4471-.423 2.2493-.7498 1.367-.564 2.6473-1.3554 3.8057-2.3519l1.014.5062c-.8825 1.2177-2.1916 2.2751-3.7832 3.0537-.722.3653-1.5499.6825-2.5222.9709-.8631.2467-1.7904.4358-2.7659.5575-.8857.0994-1.7616.141-2.61518.1218-.09307.0032-.17973.0032-.26957 0Z" fill="#1E3862"/><path d="M20.5174 13.3262c-.8311 1.1471-2.0761 2.1565-3.5842 2.8935-.7477.3781-1.5659.6793-2.413.9292-.8504.2435-1.7392.4166-2.6408.5319-.9082.1025-1.8259.1442-2.74999.109-.92091-.0417-1.84187-.1667-2.71787-.391-.8792-.2178-1.70066-.5447-2.44189-.9452-.72519-.4134-1.36374-.9004-1.85148-1.4547.64497.4581 1.34128.8619 2.09856 1.1791.75727.3172 1.56589.5575 2.39376.7177 1.66537.3205 3.41101.3237 5.10201.1187.8471-.0962 1.6814-.2564 2.4868-.4647.8118-.2019 1.5883-.4742 2.3424-.7786 1.505-.612 2.827-1.4548 3.9757-2.4449Z" fill="#006AF2"/><path d="m11.2534 15.3387.2792.1185 2.0825-.4966 1.9638-.7755.7637-.7754.016-.2499s.2727-4.81285-.6738-5.34476c-.9466-.5319-2.4836-.76261-2.4836-.76261L9.62334 8.92692l-.53587 2.02188-.15403 1.2401v1.1375s-.09623.4005 0 .4902c.09629.0865.21183.7018.21183.7018l.11871.5864.14758.1281 1.84184.1058Z" fill="#0052FF"/><path d="M21.8009 9.11592c-.1444-.42937-.3851-.8299-.7124-1.19519-.1476-.16342-.3112-.32043-.491-.47102-.016.03203-.032.06728-.0481.09932-.1058.33005-.292.61523-.5519.85555-.3144.31401-.7284.54793-1.168.67609.1251.15702.2214.33005.2856.5191.1444.41653.1123.90043-.0931 1.36183-.0994.2307-.2374.4486-.4075.6537-.0577.0705-.1283.1409-.1957.2146-.0418.0449-.0835.0898-.1251.1346l-.3531.3429c-.9465.8715-2.1787 1.6213-3.658 2.227-.6481.2659-1.383.503-2.2397.7241-.3787.0994-.7733.1859-1.1616.2596-.353.0608-.738.1089-1.17442.1473-.29521.0225-.59682.0353-.89204.0353-.09946 0-.19575 0-.28237-.0032-.37543-.016-.76048-.0513-1.16159-.1122-.37864-.0641-.74765-.157-1.09741-.2755-.32409-.1122-.65139-.2628-1.00115-.4582l-.83749.6504c.31767.266.68989.5127 1.12308.737.40752.1955.85354.3653 1.33486.5031.4364.1217.90809.2115 1.45035.2819.48134.0546.97548.0866 1.46323.0898h.00962c.47173-.0032.96263-.0288 1.46963-.0801.4781-.0545.937-.1218 1.4023-.2083.876-.1602 1.784-.3973 2.6986-.7081 1.7905-.6089 3.3917-1.4933 4.6399-2.5699l.1444-.1281c.1026-.093.2086-.1859.3176-.2948.045-.0481.0899-.0929.1348-.1378.0963-.0962.1926-.1955.2856-.3012.3016-.3397.5455-.7082.722-1.0959.3754-.8267.4332-1.67581.1701-2.47368Z" fill="#1E3862"/><path d="M21.204 9.22178c-.1251-.37169-.3369-.73057-.6289-1.0542-.276-.30761-.6064-.57677-.9786-.80747-.2054.3749-.4364.72736-.6868 1.0574.1444.11536.276.23391.3851.36209.1926.21468.3305.45821.4171.71455.1765.50945.1284 1.07985-.1026 1.60535-.1123.2627-.2728.5191-.4717.753-.1027.1217-.231.2499-.3434.3717l-.3722.3653c-1.0332.9517-2.3617 1.7367-3.8377 2.3391-.7412.3012-1.5274.5479-2.3328.7562-.4043.1057-.8183.1954-1.2257.2723-.4108.0737-.8311.1218-1.25472.1571-.42355.032-.8471.0448-1.27388.032-.42677-.016-.84715-.0609-1.27068-.125-.41715-.0705-.82467-.1762-1.21935-.3076-.39468-.1345-.76049-.3108-1.11346-.5094.292.2435.62893.4646.99794.6536.37864.1827.78616.3332 1.21293.4582.42999.1186.87601.1987 1.32843.2596.45565.0513.91452.0801 1.37661.0833.46208-.0032.92088-.0289 1.37978-.0737.4588-.0513.9048-.1186 1.3477-.2019.8888-.1602 1.752-.3973 2.5895-.6793 1.6718-.5671 3.2056-1.397 4.4185-2.4417.1476-.1345.2984-.2659.4396-.4004.1348-.1411.2728-.2724.4075-.4262.276-.3108.4942-.6441.6578-.9934.3209-.7049.3979-1.47392.154-2.22052Z" fill="#0052FF"/><path d="M9.61102 15.6952c.33694.0071.67028-.0035 1.00368-.0354.0719-.0116.1423-.0246.2131-.0383.0657-.0126.1132-.0703.1132-.1372v-3.6975c0-.0771-.0625-.1396-.1397-.1396H9.65145c-.07715 0-.13973.0625-.13973.1396v3.8055c0 .0564.04322.0967.0993.1029ZM13.0052 15.0153c.0501-.0227.0987-.044.1468-.0657.0491-.0221.0802-.0713.0802-.1252V9.61238c0-.07717-.0626-.13972-.1398-.13972h-1.1498c-.0772 0-.1398.06255-.1398.13972v5.60712c0 .0918.0871.1587.1755.1338.3501-.0985.6924-.2104 1.0269-.338ZM14.261 14.4734c.1873-.0728.3814-.1354.5756-.1977.0087-.0028.0171-.0064.0251-.0109.0602-.0336.123-.0703.1795-.1101.1217-.0811.2505-.1479.3864-.2025.0549-.0221.0925-.0744.0925-.1336V7.77064c0-.07716-.0626-.13972-.1398-.13972h-1.1499c-.0771 0-.1396.06256-.1396.13972v6.58696c0 .0886.0872.1468.1702.1158Z" fill="#fff"/></g><defs><clipPath id="clip0_135_314"><path fill="#fff" d="M2 5h20v14.5161H2z"/></clipPath></defs></svg>