<svg width="24" height="24" viewBox="0 0 24 24" fill="none" xmlns="http://www.w3.org/2000/svg"><path d="M11.9998 22C17.5228 22 22 17.5228 22 11.9998c0-5.52294-4.4772-10.00017-10.0002-10.00017-5.52292 0-10.00015 4.47723-10.00015 10.00017C1.99965 17.5228 6.47688 22 11.9998 22Z" fill="#06C"/><path d="M6.39609 9.40294h7.06161s2.4374-.02278.7517 3.12076c0 0-1.2301 2.4602-4.2825 2.4146l1.6447-4.2005c.0198-.0498.0273-.1037.0219-.157-.0055-.0533-.0238-.1046-.0533-.1493-.0295-.0447-.0695-.0817-.1163-.1077-.0469-.026-.0994-.0402-.153-.0416l-2.16406-.0364-2.73353 6.6516s.91117.0911 1.41232.0455l-.27335.6834h1.28931c.03576.0003.07072-.0105.10008-.0309.02937-.0204.0517-.0494.06394-.083l.23235-.615.5467-.0456-.31891.7745h1.25745c.0462.0003.0915-.0134.1298-.0395.0382-.026.0676-.0631.0843-.1063l.3508-.902s3.8269-.6379 5.5582-3.7359c0 0 2.3235-3.59912-.41-4.87477-.5328-.24428-1.1025-.39824-1.6857-.45559l.3189-.78816c.0097-.02339.0135-.04879.0111-.07399-.0024-.02519-.011-.04941-.0249-.07054-.014-.02113-.0329-.03852-.0551-.05065-.0222-.01214-.047-.01864-.0723-.01895h-1.18l-.3645.95673h-.5011l.2824-.7426c.0087-.02378.0116-.04928.0085-.0744-.0031-.02513-.0122-.04914-.0264-.07007-.0143-.02092-.0333-.03815-.0555-.05027-.0223-.01211-.0471-.01876-.0724-.01939h-1.1845l-.3645.95673H7.74918c-.09893-.00033-.1961.0262-.28114.07674-.08505.05055-.15479.12323-.20178.21029l-.87017 1.64923Z" fill="#fff"/></svg>