<svg width="24" height="24" viewBox="0 0 24 24" fill="none" xmlns="http://www.w3.org/2000/svg"><path fill-rule="evenodd" clip-rule="evenodd" d="M21 10.1873c-.011.749-.0873 1.4955-.2281 2.2313-.987 5.1318-3.9321 7.6977-8.8351 7.6977H8.82741l.00857-.0369.74964-3.5383h2.14188c2.6569 0 4.2661-1.5108 4.8277-4.5322.0396-.1933.0722-.3882.0974-.5858l4.2623-2.45987c.0565.40558.0849.81457.0851 1.22407Zm-1.5609-4.45235L15.617 7.94158c-.6582-.38769-1.4159-.57299-2.1788-.53279H7.27083l.01874-.08888.7293-3.41837h6.39923c.8185-.00996 1.6344.09329 2.4246.30681.9088.24362 1.7428.70913 2.4272 1.35472.0579.05729.1136.11351.1692.17188Z" fill="#303136"/><path fill-rule="evenodd" clip-rule="evenodd" d="m13.3445 10.4524-.5665 3.534h-2.6473L8.83597 20.08l-.00857.0369H3l2.18789-2.9525 1.43556-6.712h6.72105Z" fill="#00D0C4"/></svg>