<svg width="24" height="24" viewBox="0 0 24 24" fill="none" xmlns="http://www.w3.org/2000/svg"><path d="M7 3.00713 7.83834 2l3.76406 4.52928L15.3609 2l.8383 1.00713-7.52815 9.06417 2.93135 3.5278 2.9314-3.5278-2.2224-2.67254.8383-1.00713 2.6332 3.17327c.0168.0225.0337.0394.045.0619l.3713.4501-3.7641 4.5293 3.7641 4.5293-.8383 1.0071L7 12.0769l.15191-.1856c.01126-.0169.01688-.0282.02814-.045l3.57845-4.30989L7 3.00713ZM7.00563 21.1355l3.14517-3.7866.8383 1.0072-3.15076 3.7866-.83271-1.0072Z" fill="#000"/></svg>