<svg width="24" height="24" viewBox="0 0 24 24" fill="none" xmlns="http://www.w3.org/2000/svg"><path d="M18.9556 5.27349C17.6518 4.67718 16.2672 4.24257 14.8218 4c-.1819.31332-.384.73781-.5256 1.07135-1.5372-.22236-3.0634-.22236-4.57947 0-.1415-.33354-.35376-.75803-.52559-1.07135-1.4554.24257-2.84007.67718-4.13479 1.27349-2.61773 3.8609-3.32523 7.63081-2.97148 11.35021 1.73842 1.2634 3.41621 2.0316 5.06468 2.537.40428-.5459.76814-1.1321 1.08146-1.7486-.59632-.2224-1.16232-.4953-1.7081-.8187.1415-.101.28301-.2122.4144-.3234 3.29489 1.506 6.86369 1.506 10.11819 0 .1415.1112.2729.2224.4144.3234-.5458.3234-1.1118.5963-1.7081.8187.3133.6165.6772 1.2027 1.0814 1.7486 1.6475-.5054 3.3354-1.2736 5.0647-2.537.4346-4.3056-.6883-8.04516-2.9523-11.35021ZM8.68582 14.3294c-.9905 0-1.79907-.8995-1.79907-2.0011 0-1.1017.78835-2.0013 1.79907-2.0013 1.00059 0 1.81928.8996 1.79898 2.0013 0 1.1016-.79839 2.0011-1.79898 2.0011Zm6.64138 0c-.9905 0-1.8001-.8995-1.8001-2.0011 0-1.1017.7894-2.0013 1.8001-2.0013 1.0006 0 1.8193.8996 1.799 2.0013 0 1.1016-.7883 2.0011-1.799 2.0011Z" fill="#434EE3"/></svg>