<svg width="24" height="24" viewBox="0 0 24 24" fill="none" xmlns="http://www.w3.org/2000/svg"><path d="M12 22c5.5228 0 10-4.4772 10-10 0-5.52285-4.4772-10-10-10C6.47715 2 2 6.47715 2 12c0 5.5228 4.47715 10 10 10Z" fill="#786DBC"/><path d="m11.9569 8.73189-1.0182-1.02063c-.1371-.13111-.2164-.31131-.2207-.50096-.0042-.18965.0671-.3732.1982-.51029.1311-.13708.3113-.21646.501-.22068.1896-.00422.3732.06707.5103.19818l.0237.02375 2.2725 2.2725c.2794.27938.2794.73125 0 1.01063l-2.275 2.27251c-.135.1288-.315.1996-.5015.1974-.1865-.0021-.3648-.0772-.4967-.2091-.132-.132-.207-.3102-.2092-.4968-.0022-.1865.0686-.3665.1974-.5015l1.0669-1.0669c-.7188-.1269-1.4592-.0297-2.12093.2784-.66171.308-1.21272.812-1.57836 1.4438-.36564.6317-.52823 1.3605-.46574 2.0877.06249.7273.34705 1.4177.8151 1.9778.46806.56 1.09698.9627 1.80153 1.1533.7046.1907 1.4507.1601 2.1373-.0876.6866-.2476 1.2805-.7004 1.7012-1.2968.4206-.5965.6477-1.3079.6505-2.0378V5.83876c0-.18946.0753-.37116.2093-.50513.1339-.13398.3156-.20924.5051-.20924s.3712.07526.5051.20924c.134.13397.2093.31567.2093.50513v7.95564c-.02 1.0093-.3449 1.9889-.9322 2.8099-.5873.8211-1.4093 1.4452-2.358 1.7902-.9487.345-1.9796.3948-2.9571.1428s-1.85584-.794-2.51947-1.5547c-.66362-.7607-1.08146-1.7044-1.19854-2.7071-.11708-1.0027.07208-2.0173.5426-2.9104.47051-.8931 1.20035-1.62289 2.0935-2.09333.89315-.47045 1.90781-.65953 2.91041-.54238l.0007.0025Z" fill="#fff"/></svg>