<svg width="24" height="24" viewBox="0 0 24 24" fill="none" xmlns="http://www.w3.org/2000/svg"><path d="M12 22c5.5228 0 10-4.4772 10-10 0-5.52285-4.4772-10-10-10C6.47715 2 2 6.47715 2 12c0 5.5228 4.47715 10 10 10Z" fill="#988430"/><path d="M12 21.6797c5.3459 0 9.6797-4.3338 9.6797-9.6797 0-5.34595-4.3338-9.67969-9.6797-9.67969-5.34595 0-9.67969 4.33374-9.67969 9.67969 0 5.3459 4.33374 9.6797 9.67969 9.6797Z" fill="#7A6A2A"/><path d="M12 21.4757c5.2333 0 9.4758-4.2424 9.4758-9.4757 0-5.23334-4.2425-9.47577-9.4758-9.47577-5.23328 0-9.47571 4.24243-9.47571 9.47577 0 5.2333 4.24243 9.4757 9.47571 9.4757Z" fill="#BA9F33"/><path fill-rule="evenodd" clip-rule="evenodd" d="M6.3722 10.9321c-.05665-.0518-.11649-.1036-.17153-.1553-.05504-.0518-.11157-.1036-.16821-.1553l-.16832-.16c-.02752-.0276-.05664-.0518-.08416-.0794-.02752-.0242-.05984-.0517-.08736-.076-.22336-.212-.448-.42394-.66827-.636.22816.20875.45152.416.67968.6278l.07926.0794c.02752.0274.05664.0517.08416.0793l.16821.1553c.05664.0517.11168.1035.16832.16.05664.0564.11168.1083.16832.16l-.0001.0002Zm-2.96438-.032s.81227.084 1.20875.1407c.36725.0518 1.51616.2281 1.51616.2281l-2.72491-.3688Zm0 0c.22816.0194.45632.0436.68448.0679.11648.0113.22816.0242.33984.0355l.17141.0196c.05664.008.11168.0161.16832.0242l.67968.1084.33974.0566c.11168.0194.22336.0405.33984.0599-.11168-.0113-.22816-.0275-.33984-.0437l-.33974-.0485-.67968-.1003c-.05664-.0081-.11168-.0195-.16832-.0275l-.17152-.0197c-.11168-.0114-.22816-.0276-.33984-.0406-.22816-.0274-.45632-.0566-.68448-.0921l.00011.0003Zm2.64405.5805s-.8673.2201-1.16021.3043c-.288.0792-1.16021.3446-1.16021.3446l2.32032-.6488.0001-.0001Z" fill="#CFB66C"/><path fill-rule="evenodd" clip-rule="evenodd" d="M6.05185 11.4805c-.19253.0567-.384.1117-.57931.1636l-.5793.1553c-.19254.0566-.384.1117-.576.1683l-.288.0793c-.09547.0275-.19254.0517-.2912.0793.09536-.032.19253-.0647.288-.0923l.288-.0921c.19253-.06.384-.1166.576-.1765.19573-.0485.38837-.1003.5841-.1473.18603-.0469.38187-.0937.57771-.1375v-.0001Zm-2.19893 1.183c.09536-.0356 1.19573-.5485 1.45141-.6683.128-.0599.50005-.192.50005-.192l-1.95146.8603Z" fill="#CFB66C"/><path fill-rule="evenodd" clip-rule="evenodd" d="M3.85289 12.6635c.08405-.032.16341-.0712.24427-.1084l.23946-.1117.48064-.2313c.16-.0761.31552-.16.48054-.2315.08416-.0355.16832-.0646.25237-.0922l.128-.0404c.04363-.0113.08416-.0243.128-.0356-.16.076-.32843.1408-.48864.2151-.16.0794-.32363.1441-.48875.2153l-.48864.2151c-.16405.0665-.32405.1376-.48736.2056h.00011Zm.10667.448s.99669-.5841 1.33973-.7719c.17963-.1002.76053-.3883.76053-.3883l-2.10026 1.1602Z" fill="#CFB66C"/><path fill-rule="evenodd" clip-rule="evenodd" d="M3.95959 13.1117c.16822-.1036.33974-.2088.51125-.3156l.256-.1554c.08736-.0517.17152-.1002.26059-.152.08736-.0518.17152-.1036.26048-.1521.04235-.0261.08672-.0489.13269-.0679l.13589-.068c.17963-.0873.35925-.1764.54859-.2525-.17152.1085-.34795.2008-.52427.2961-.08736.0486-.17642.0923-.26378.1408-.08736.0486-.17152.1004-.26059.1474-.08736.0517-.17152.1002-.26048.1472l-.26378.144-.53237.288h-.00022Zm2.09215-1.0325s-.61973.4758-.82037.6279c-.20063.1521-.79124.5793-.79124.5793l1.61161-1.2072Z" fill="#CFB66C"/><path fill-rule="evenodd" clip-rule="evenodd" d="m9.60838 15.9158-.31712-.6003.18443-.7508 1.31551-.5081-.5599-1.1488.2767-1.1602.5195-1.0389 1.6052-.2524 1.1795-1.12457 2.5471.19253.4999 2.72334-.9628 3.4288-.5485 1.7751-2.2233.0842-1.0324-.7152-1.2087-.505-1.27512-.3997Z" fill="#E2CC85"/><path fill-rule="evenodd" clip-rule="evenodd" d="M13.5081 15.8964s-.3075.1408-.832.1084c-.1518-.2039-1.2148-.2993-1.2148-.2993s-.1327-.0405-.3674.0566c-.2361.096-.4595.0842-.6683.1359-.2087.0517-.4159-.22-.57595-.2767-.16-.0598-.37215-.2038-.37215-.2038l-.448-.0438-.89962-.3802-1.42922-1.4239-.38837.608-.11979.7524.43211.8916 1.1634 1.0599 2.26859.576 1.3446-.3962 1.6845-.712.4224-.453v.0001Z" fill="#F1D789"/><path fill-rule="evenodd" clip-rule="evenodd" d="m5.44823 10.8641.288-.87209.34315-.5632 1.10508-.09226-.33173.96765-.92386 1.6441.38348 1.4676-.67959.3397-.20885-.3203-.16822-.7346-.01131-.8253.20385-1.0113Z" fill="#F4ECB4"/><path fill-rule="evenodd" clip-rule="evenodd" d="m6.68769 15.8366-.21195-.2961s-.05664-.1408-.02421-.2638c.032-.1246.02741-.1327.0113-.1796-.0161-.047-.1521-.2088-.144-.348.008-.1408-.0113-.1877.09216-.2993.10838-.1084.07606-.2961.07606-.2961l.1408.0874.032-.0486s.05173.0405.05173.1036c.01131-.0874-.03563-.4919.07115-.5841.10677-.0922.2961.432.2961.432l-.11648-.7605-.29941-.7799-.53237-.712-.032-.7848v-.068s-.24438.3755-.31232.672c-.04854.2039.06794.4514.04373.7443-.01952.2913-.04373.2686.02741.384.07115.1155.24438.3528.17643.5243-.05984.1473-.26379.0437-.26379.0437s-.04042.1197-.09546.1635c-.01942-.0712-.04043-.1165-.07926-.16-.0033.0275-.0113.0647-.0113.0647s-.03563-.1117-.07126-.2525c-.04842-.1876-.10026-.4352-.1472-.5679-.01941.0761-.06794.3074-.06794.3074l.02752.3561.13269.4886.128.32.12459.3916.10826.263.08736.2007.07606.4515.36725.3883.19584.0874.14229-.0728.00022-.0001Z" fill="#F3E19D"/><path fill-rule="evenodd" clip-rule="evenodd" d="M5.64072 10.1521s-.26379.448-.33973.8996c-.07595.4517-.14401.9289-.09601 1.5437.04854.6199.14081 1 .21526 1.2719.128.4515.45952 1.0794.45952 1.0794l.01131-.0243c-.05572-.1057-.1002-.2169-.13269-.3318-.04374-.1715-.05995-.3753-.10038-.4676-.03563-.0922-.09547-.1715-.12459-.2848-.02752-.1084-.032-.2799-.11648-.4077-.03562-.0518-.07936-.1877-.09226-.3236-.01622-.204.0081-.4321-.01131-.6197-.03563-.3124-.05984-.5243-.02752-.6878.03232-.1636.20075-.6278.30432-.9967.06795-.2363.02741-.4353.152-.6409.12459-.20382.20075-.38345.22816-.50803.032-.11328-.33003.49833-.33003.49833h.00043Z" fill="#F2E8B0"/><path fill-rule="evenodd" clip-rule="evenodd" d="M6.89169 9.97247s-.13589.04053-.20064.11173c-.06475.0679-.09227.1245-.17963.2394-.08736.1149-.09227.2088-.16352.3528-.07115.1408-.22817.3527-.24758.4287-.01942.0761-.05174.432-.09216.6004-.03563.1683.04042.3754.04042.3754l.09217-.0195s0 .1198.09226.2007c.09217.0793.10838-.2686.10838-.2686l.34464-1.1634.51937-.3528.05664-.2848-.37056-.22003h.00021Z" fill="#F5EEC0"/><path fill-rule="evenodd" clip-rule="evenodd" d="M7.14403 10.5001s-.24437.0161-.36405.1035c-.04853.0356-.06795.0647-.11968.1084-.09546.0793-.19264.1521-.23946.256-.05184.1035-.10848.2605-.14731.5566-.01621.1246-.01621.2395-.02752.3398-.01621.1359-.04042.2443-.02752.32.01622.1553.17643.2363.192.4126l.33173-.1682.31231-1.2315.66346-.416-.37546-.4206-.19893.1386.00043.0008Z" fill="#E6DB9D"/><path fill-rule="evenodd" clip-rule="evenodd" d="M5.39391 18.7924c.00138-.0121.00277-.0243.00416-.0368.04842-.416.05664-.7313.09216-.9287.05173-.2799.08736-.384.07925-.4888-.01131-.1682-.02421-.2912-.008-.4207.02421-.1715.19253-.3753.18773-.5161-.0033-.1117-.05994-.1844-.10848-.2524-.04853-.0679-.08736-.1246-.08736-.1246s.33174-.2281.32854-1.1473c.00677.0019.01329.0046.01941.0081l.16342.4643.11168.1359.4288.7994.55179.5357.81548.5485.51136.5564.05173 1.4839-.66827.8673-.10944.1982c-.86948-.4365-1.66679-1.0039-2.36407-1.6824l.00011.0001Z" fill="#E5CB7A"/><path fill-rule="evenodd" clip-rule="evenodd" d="M7.4353 20.212s.01131-.1845.16342-.3043c.02432.0405.04042.0794.03562.1084.02752-.0484.22005-.3591.65536-.4401.43531-.0792.54048-.3964.54048-.3964l.92384-.8398 1.05668-.9724 1.2848-.4516.6004-.1473s.0113.0438-.0113.1408c.1115-.008.3591-.0646.6164-.1553.1036-.0404.2007-.0566.2525-.0032.076.0712.0873.2395.0921.3398.1246-.0276.2686-.1472.384-.1359.1846.0194.348.2362.5357.2362.2476 0 .3592-.1521.5324-.2719.1036-.0711.2524-.16.3365-.22.2007-.1473 2.3236-.7962 2.3236-.7962l.7444.0486.1197.7993-.064 2.0896c-.0078.0076-.0157.0155-.0237.0231l-3.3844 1.7675-4.6911.7192c-1.05089-.1717-2.06497-.5205-2.99908-1.0316l-.024-.1067-.00032.0002Z" fill="#D8C173"/><path fill-rule="evenodd" clip-rule="evenodd" d="M5.67847 19.0583c.06666-.1394.12661-.256.13717-.2977.00832.084.02357.2684.05429.4645-.06449-.0548-.12832-.1105-.19146-.1669v.0001Z" fill="#F1D789"/><path fill-rule="evenodd" clip-rule="evenodd" d="m9.10524 21.0248.60672-.1688.05174.0163s.02752.0162.02752.0711c.07605-.0436.1408-.0356.18773-.0646.02425.0517.04845.2232.15535.2442.1115.0243.2313-.0485.3527-.1407.1197-.0954.256-.2152.3592-.2638.0378.0696.0713.1415.1003.2152.1359-.1084.3722-.5485.7087-.5405.0973-.2299.2598-.4262.4674-.5647.3124-.2119.5081-.2281.7525-.2087.097-.1261.2166-.2331.3527-.3156.0405.0163.1521.0842.2913.0195.1408-.0647.2993-.3156.5081-.3479.1125-.0155.2269.0085.3236.068 0 0 .608-.6037 1.0275-.8043-.0162-.0485-.0485-.2314.4434-.636.0275.0244.0081.0923.0275.096.008 0 .128-.0517.2799-.1683.1877-.1407.4126-.288.5485-.3284.256-.0761.5275.0792.5275.0792.0231-.0162.0489-.0282.0761-.0356.0646-.0113.1116-.0194.1472-.032-.0032.0842.0437.2282 0 .3528.0506.0285.1043.0512.16.0679-.0274.0599-.0874.212-.1876.2848.084.0404.0953.0874.2151.128-.0485.068-.128.1846-.1634.256-.0356.0761-.1635.3916-.2202.5113-.0598.1198-.1407.3398-.1796.384-.0389.0441-.1796.2313-.288.3235.096-.0356.4887-.1553.6554-.2006-.0496.0727-.3011.4457-.5428.8044-1.1572.6937-2.4491 1.1327-3.7894 1.2879s-2.6982.0229-3.98341-.388l.00075-.0016Z" fill="#E0CD81"/><path fill-rule="evenodd" clip-rule="evenodd" d="M7.18393 10.4563s-.14069 0-.16822.0194c-.02752.0194.14081.06.19254.0794.05174.0194.16342.1084.19254.1796.02752.068 1.01134.4643 1.01134.4643l.6958-.0356.2399-.3314-.45633-.3997.32001-.94335-.42391.06795-1.01944.608-.51137.1958-.07286.0956Z" fill="#DFC57C"/><path fill-rule="evenodd" clip-rule="evenodd" d="M8.71197 10.7686c.01006.0163.02423.0297.04108.0387.01685.0091.03579.0136.05492.0131.144 0 .27659.0356.33163.1083.09227.1166.34795.4888.34795.4888l.61165.22.0394-.7202-.66823-.4643-.76053.2799v.0356h.00171l.00042.0001Z" fill="#E5CC7C"/><path fill-rule="evenodd" clip-rule="evenodd" d="M8.59197 11.0356s.11157.0081.25237-.0437c.1408-.0519.37216-.1634.47254-.1197.14069.0598.11157.2476.26378.416.09216.1036.26048.1004.35595.212.09549.1117.42389.0599.42389.0599l.1246.672-.49996.6408-.16352.7961h-.67605l-.6176-.245-.30422-.736.15211-.7443.21611-.9081Z" fill="#D2C281"/><path fill-rule="evenodd" clip-rule="evenodd" d="M9.89979 11.0679c.01676.0052.03419.0079.05173.0081-.01941.0162-.05995.0518-.04373.144.01621.0923.06794.2088.02432.2799.03482.0381.0608.0834.07609.1327.0275.0794.0356.1521.2151.1635-.0259.016-.0498.035-.0711.0567 0 0 .1245.1083.1877.2086.0646-.0028.2362-.0561.2362-.0561l.0356.0243.076-.032s-.0711-.0275-.0194-.2006c.0486-.1521.0923-.144.096-.1553.0038-.0113.0356-.1715.0356-.2363.0243-.084.0437-.3397.0437-.3397l-.0518-.5647-.2912-.1764-.2368-.2286-.2233.4207-.14711.1467-.01131.364.01771.0405Z" fill="#E2C270"/><path fill-rule="evenodd" clip-rule="evenodd" d="M10.6003 10.5955s.0518.1472.0713.2605c.0069-.022.0107-.0449.0113-.068 0 0 .0404.2234.0484.3157.0162-.0033.032-.0081.0357.008.0036.0161.0405.1958.032.2961.0673-.1112.1606-.2044.2717-.2718.0648-.0405.1408-.0842.2202-.0875.1246-.0032.2151.0794.3641.0794.3591 0 .6844-.2638.9239-.3447.1763-.0599.3284-.1035.4352-.2007.0518-.0436.1441-.1407.2282-.2848.1116-.192.2281-.35915.3447-.38016-.0527.00969-.1064.01348-.16.0113 0 0 .0356-.03562.096-.08416.0604-.04853.1327-.10837.2362-.10837.1845 0 .2767.02741.3802.02741.1036-.0032.1634-.02741.1634-.02741s.1085.07605.3528.07605c.2444.0032.4078.02422.5357.03563.1279.01141.5566-.03563.6795-.032.0802.00309.159.02236.2315.05664l-.3965-1.152-1.4242-1.2448-.8479.60032-1.3043 1.30421-1.2621.46763-.2638.29611v.4514h-.0032Z" fill="#CCB360"/><path fill-rule="evenodd" clip-rule="evenodd" d="M13.4321 9.93524s.0356-.03552.0954-.08406c.0597-.04853.1328-.10848.2362-.10848.1845 0 .2767.02752.3803.02752.1036-.0032.1634-.02752.1634-.02752s.1086.07595.3528.07595c.2443.0032.4078.02421.5357.03552.1279.01131.5566-.03552.6795-.032.0802.00302.1589.02229.2314.05664l-.1796-.51947-.2087-.39637-.5955-.65216-.7201-.42389c-.0032-.0032-.2476-.06795-.2476-.06795l-.6473.39157-.5873 1.51947-.0113.31999.3802.1796c.0955-.16.2007-.28796.2994-.30418-.0891.00971-.157.00971-.157.00971l.0001.00011Z" fill="#D5B457"/><path fill-rule="evenodd" clip-rule="evenodd" d="M13.4239 10.0437c-.0566.0032-.1034-.0081-.1164-.04849-.0486-.13589-.0874-.1553-.128-.1553-.0407 0-.0955.08736-.128.09536-.0326.008-.0712-.10027-.0712-.10027l-.0356-.01621s-.2087.13589-.3559.29611c-.1472.1602-.3884.4321-.4968.4805-.1083.0485-.4806.0648-.6079.0923-.1274.0275-.2686.1198-.288.1408-.0194.021.0567.0436.068.0646.0113.0194-.1247.0113-.136.032-.008.0162.032.1084.0519.1553.0347-.0172.0728-.0266.1115-.0275.1246-.0032.2153.0794.3641.0794.3592 0 .6844-.2638.9239-.3448.1764-.0598.3285-.1035.4353-.2006.0517-.0436.144-.1408.2281-.2848.0615-.0987.1214-.1909.1814-.2589l-.0004.0005Z" fill="#D2B257"/><path fill-rule="evenodd" clip-rule="evenodd" d="M8.27196 18.0519s-.032-.1198-.32854-.4288c-.08416-.0874-.13589-.16-.19253-.212-.1408-.1328-.22336-.1683-.32363-.2443-.22006-.1635-.45953-.1635-.64395-.3641-.18443-.2006-.39937-.584-.5487-.9758-.1472-.3916-.18773-.5162-.18773-.5275 0-.0113.04053-.0873.09226-.076.05174.0113.05174.1115.06475.1359.02577.0397.05501.077.08736.1115.07605.0875.18443.192.23947.348-.01131-.1327-.05664-.2799-.05664-.2799s.2848.1796.52747.3673c.24437.1877.34464.2524.416.3721.07136.1197.23947.4353.32.5276.08054.0923 1.18401.4401 1.18401.4401l.52491.3914.26059.5712-.20395.32-.39157.0842-.63595-.2848-.20363-.2762v.0001Z" fill="#D2B159"/><path fill-rule="evenodd" clip-rule="evenodd" d="M6.85913 16.0842s.13269.2119.45632.4126c.2913.1764.75242.3366 1.16351.4321.23616.0566.47242.1002.68437.1036.57119.008.96437-.1554 1.45147-.2088.2638-.0275.5874-.0485.924-.128.432-.1036.6877-.2202 1.0356-.384.2524-.1165.4838-.2038.6715-.3155.2637-.1553.4563-.3284.6796-.3802-.0275.0761-.0566.212-.2767.3528.1165-.0033.2767-.0113.2767-.0113s-.1553.0921-.4288.2993c-.1683.128-.3915.3446-.6197.4886-.1473.0923-.3075.16-.4127.2153-.256.1408-.3592.2119-.5274.384.0598-.0032.0647 0 .0647 0s-.2121.0275-.364.1083c-.032 0-.0875-.0113-.1846.0163-.076.0242-.1764.0793-.2799.1083-.1473.0438-.1957.0243-.1957.0243l.0242.0486s-.192-.0033-.256.0032c.0113.0032.0081.0081.0081.0081-.0112.0019-.0221.0057-.032.0113-.0308.0199-.0647.0347-.1002.0436-.0195.0032-.0357.0032-.06.0081.0081.0194.0713.128.1004.192-.0242.0162-.3884.2913-.3884.2913.0113.0178.0205.0368.0275.0567.0113.0355.0162.0873.0275.1115.0275.0486.0437.0567.0437.0567s-.0437.0081-.1198.0275c-.0647.0162-.144.0436-.25601.0598-.03436.0045-.06893.0072-.10357.0082.01621.0356.08736.1715-.04374.3284-.13109.1569-.17152.1797-.21194.28-.02035-.0154-.04202-.029-.06475-.0406-.04363-.0194-.10357-.0484-.12458-.0873-.01225.0519-.02848.1027-.04854.1521-.04042.1084-.10026.2152-.11157.2961-.04373-.0485-.12459-.144-.23626-.1246-.11168.0194-.20064.1715-.22006.2153 0-.0276-.01941-.0486-.02421-.0162-.00331.0356-.06475.4076-.40778.7086-.0032-.076-.0032-.2443-.01131-.2993-.032.032-.07115.0793-.30421.1797-.22816.1002-.192.2006-.192.2006s-.01941-.16.10357-.3285c.12459-.1682.20064-.2476.20064-.2605-.00201-.0131-.00762-.0255-.01621-.0356-.01622-.0162-.04853-.0357-.04853-.0486.01941-.008.21194-.1002.20063-.2913-.0113-.1714-.08405-.2605-.13589-.3235-.008-.0081.07616-.0679.06475-.0874-.00811-.0113-.11157-.0874-.12459-.128.00306-.0241.00849-.048.01621-.0711.01131-.0356.01942-.0599.01622-.0842-.00811-.0404-.05184-.1521-.06475-.1634.01131.0032.09216 0 .09216 0s-.06464-.1035-.07605-.1521c-.01141-.0485-.03563-.1764-.04853-.2006.02752.0032.09546.008.09546 0 .00331-.0243-.05984-.0648-.032-.096.01941.0032.05664.0194.09216.0647-.01941-.0518-.05173-.1521-.11978-.1925.032-.0113.14079-.0405.23626.0161s.128.1359.128.1359.05664.0437.1441.1085c.10027.0792.22806.192.432.2718.04373.0243.15531.0243.23627.0081.03525-.0084.06904-.0221.10026-.0405.01128-.0066.02322-.012.03563-.0162-.01739-.0349-.0374-.0684-.05984-.1003.02752 0 .05984.0033.05984.0033s.01941-.0438-.06795-.128c.01942-.0195.04374-.032.04374-.0648-.02752-.0032-.07606-.0436-.08736-.0598.0161-.0113.04042-.0486.06794-.0599-.02432-.0194-.08416-.1003-.11168-.1083.02629-.0098.05173-.0217.07606-.0357 0 0-.1359-.0356-.17963-.0647-.04373-.032-.10837-.0874-.1472-.1036-.04053-.0162-.11168-.0242-.1408-.0566.02742.0081.07115 0 .10358 0 .02421 0 .03562.0032.04362.0032-.0032-.0113-.0032-.0357.05995-.0437.03037-.0045.05985-.0138.08736-.0275 0 0-.05995-.0032-.128-.0679-.06805-.0648-.12459-.1165-.16341-.1246-.04043-.0081-.11648.0275-.16342.0242-.06474-.008-.09226-.0404-.09226-.0404s-.21515.0194-.69248-.2718c-.41269-.2525-.59231-.4757-.59231-.4757-.03862-.0141-.07596-.0314-.11157-.0519-.15531-.0808-.37056-.2492-.36406-.4693l-.00085.0016Z" fill="#C2A44D"/><path fill-rule="evenodd" clip-rule="evenodd" d="M12.8122 6.37212c.0375.01216.0707.0346.096.06475.0761.08736.1246.25237-.0485.4288.068.02421.096.032.1553.02421-.0598.07126-.1957.22336-.2038.35606-.0081.10837.0598.1408.0598.1408s-.1036.11968-.1084.32c.049-.05516.1025-.10605.16-.15211.1198-.09547.2848-.20384.3965-.27179-.0015.02848.0023.05699.0113.08406 0 0 .2087-.17152.384-.09536.0793.03562.0437.1472.0437.1472s.1084-.04043.1845.03562c.0761.07606.1836.27222.2387.34827.0242.03563.0874.10357.152.20875.0883.14724.1621.30275.2202.46432.0032-.08416.0242-.21515.2638-.1327.2395.08416.5112.26059.7394.608.2282.34742.2847.73963.3996.88896.1165.144.2363.38344.2444.48384.0081.1004-.0357.4239.2038 1.2993.068-.2718.1715-.8754.1715-.8754l.0567-.5324.0647-1.64723-1.7201-1.42901-1.3447-.97579-.8754.08416.0549.12459.0001.0001Z" fill="#CAA13E"/><path fill-rule="evenodd" clip-rule="evenodd" d="M16.0082 8.82356s-.0243-.16-.4288-.432c-.4046-.26859-.7201-.26859-1.0113-.49675-.2234-.17962-.4563-.59232-.608-.72821-.1473-.13429-.1715-.52267-.1715-.52267l.4967-.416.7388-1.06784.6245-.68768.2993.416.416.48864.2314.98059.0842 1.43531-.672 1.03072.0007-.00011Z" fill="#B59544"/><path fill-rule="evenodd" clip-rule="evenodd" d="M16.5082 10.544c.0122-.2177-.0146-.4358-.0794-.64394-.1066-.33174-.3397-.92075-.448-1.14134-.0437-.24437-.0113-.26378.0357-.2913.0469-.02752.2233-.128.32-.48053.0966-.35254.3964-.36406.3964-.36406l.1845-.13589.28.70059.2442.63274.0761.48384.0566.41259-.1327.8722-.6552.5922-.2783-.6371h.0001Z" fill="#C89D3A"/><path fill-rule="evenodd" clip-rule="evenodd" d="M7.36414 20.2655v-.0179c.01361-.0085.02563-.0194.03552-.032.0113-.0162.01952-.0356.02752-.0404.01621-.0081.09226-.032.13269-.0244.04043.0077.14731.0518.20395.0486.11648-.0032.25237-.0923.46762-.0518.32363.0599.39968.2799.58742.4045.128.0875.26048.0486.27989.0486h.04363c.0081 0 .06794-.068.10037-.0647.06475.0032.07115.0567.11157.0599.09547.0113.28-.0486.37227-.0243.02736.0086.05224.0237.07252.0439.02028.0203.03536.0452.04396.0725.01941.0599.0032.1359-.04373.1797-.10027.0921-.19574.1796-.21515.256.02469.0188.0484.0389.07104.0601-.80062-.204-1.57093-.5124-2.29109-.9173v-.001Z" fill="#CEB052"/><path fill-rule="evenodd" clip-rule="evenodd" d="M15.9805 17.0324s.2523-.3365.3398-.5032c.0874-.1719-.2767-2.3479-.2767-2.3479l.7314-2.3963-.0195-.78s.0356-.7201.1198-1.03241c.1004.17961.4127.39651.4806.51131.032-.2201.1407-.68443.1246-1.17958.0598.09216.2038 1.01938.2038 1.01938l.144.6246.1878.6634.2087.7007.1246.4839.0712.1164.0599.2039.0566.2201.1635.5162.096.4239.076.7686c.0165.0589.0285.119.0356.1797.0032.0841-.0113.1327-.0113.1473 0 .0146.0275.1844.0162.3123-.0162.128-.0162.2282-.1165.32-.1004.0918-.1635.6407-.1635.6407l-.1796-.1196s.0356-.1636-.0485-.3124c-.0842-.1488-.2476-.1796-.3399-.1553-.0921.0194-.2765.0485-.3365.1003-.0566.0517-.1957.2119-.3236.2848-.16.096-.4207.1036-.5598.1359-.1408.032-.2961.128-.4596.2395-.1282.083-.2636.1544-.4045.2133l-.0006.0005Z" fill="#CCA847"/><path fill-rule="evenodd" clip-rule="evenodd" d="M15.9805 20.568s.0106.0069.0312.0182c1.1496-.5386 2.1797-1.302 3.0294-2.2453-.0093-.3275-.0214-.6631-.0346-.7875-.0274-.2638-.008-.5324-.0161-.6877s-.0955-.7881-.1359-.9515c-.0437-.1634-.128-.2443-.1408-.2443-.0113.0033-.0794.3075-.0794.384 0 .0764-.0162.2605-.0162.3075-.0113-.0033-.0161-.032-.0161-.0438-.0162.0405-.0356.1117-.0437.1198-.0081.0081.0113-.0679 0-.0841-.0113-.0162-.032-.0081-.0275-.0486.0019-.0239.0057-.0477.0113-.0711 0 0-.0486.0711-.0841.2524-.0356.1796-.0356.1845-.0485.2006-.0113.0195-.0761.0842-.0794.1085-.0032.0436.06.0873.0648.1116.0032.0405-.0567.2281-.0761.32-.0194.0918-.0113.2717-.032.364-.0162.0842-.032.1327-.0873.1682.0404.0081.0792.0194.0792.0194s.0566.2395-.0874.4435c-.0517.0711-.0646.1035-.1196.1683-.1085.1197-.1927.256-.2008.3446-.0056-.0261-.0094-.0527-.0113-.0793 0 0-.1682.1958-.2395.3075-.0921.144-.22.1359-.256.1715-.0359.0356-.0437.1003-.032.1521-.032.008-.0921.0194-.1326.144-.0195.0646-.068.128-.144.1715-.0761.0435-.1684.0567-.2153.068.0404.0113.0566.0113.0761.0242-.0243.0404-.1359.1036-.2605.1845-.1246.0761-.1846.1876-.2153.2605-.032.0679-.0792.1117-.1553.1198.032.0194.0794.0646.1036.0792-.0356.0081-.096.0081-.2039.1004-.1132.0939-.1521.1214-.2039.1295l-.0005-.0001Z" fill="#C39D3C"/><path fill-rule="evenodd" clip-rule="evenodd" d="M13.729 21.3179c.062-.0434.1291-.079.1998-.1059.2524-.1003.5194-.1197.6246-.152.1003-.032.1796-.0762.3042-.1004-.0033.0284-.0061.055-.0091.0802-.3673.1155-.7413.2083-1.12.2781h.0005Z" fill="#D2BA6B"/><path fill-rule="evenodd" clip-rule="evenodd" d="M18.3838 14.6797s-.0517.2799-.144.4563c-.0922.1764-.192.4207-.192.4207.0006-.0551.0072-.1099.0195-.1635-.1165.0679-.3997.2314-.48.3042-.0761.0679-.204.1877-.2363.2444.076-.2233.1553-.4239.1683-.5162-.1165.0842-.6603.5324-.9433.8285l-.882.7136c-.1017.0549-.2065.1039-.3139.147-.152.0646-.3316.1196-.4643.1715.0356-.0955.0922-.1798.1715-.2606.0842-.0793.3365-.3528.3754-.48.0356-.1327.0437-.212-.0032-.3236-.0438.0113-.144.0162-.212.0356-.0679.0194-.1408.0922-.1408.0922s.0518-.2962.1634-.576c-.0841.0032-.2281.0274-.2281.0274s.2006-.3366.544-.5711c-.1052.0224-.2081.0543-.3074.0953-.2007.0842-.4207.2088-.5841.2767.0921-.128.7394-1.0517 1.1245-1.9126.384-.8592.5275-1.0793.6117-1.5404.0436-.2281.032-.5653.0436-.8673.0113-.2994.0485-.568.0243-.7476.1003.1246.4757.4757.4887 1.2606.0113.7847-.3592 1.8447-.7525 2.4158.096.0275.3448.0599.6004-.384.2555-.444.2524-.5679.3447-.7525.0113.0923.008.1246.008.1246s.3723-.4514.5486-1.0194c.0356.2444.1408.4596-.0243.9078-.1472.4045-.3398.5033-.3398.5033s.0955-.0162.2362-.1004c.0243.0599.0195.128.0599.1521.0405.0241.0955.0648.1036.1036.0436-.0647.1116-.1473.1327-.2087-.0162.128-.0275.6876.032.9724.1247-.0113.2525-.0194.3398-.2443-.0598.2201-.0598.3527-.0194.5404.0664-.0452.1262-.1261.1262-.1261l.0004.0003Z" fill="#C0993A"/><path fill-rule="evenodd" clip-rule="evenodd" d="M14.1796 5.76056s-.1246.05174-.3365.05174c-.1845 0-.1327-.07115-.4207-.07115-.4434 0-1.992.256-2.2639.25237-.1764-.0032.5955.07606.5955.07606l1.9726.02752.3964-.032.1473-.29974-.0907-.0048Z" fill="#A88F33"/><path fill-rule="evenodd" clip-rule="evenodd" d="M9.06483 9.61652s-.25248.19253-.35925.33984c-.10678.14734-.16342.24424-.2848.36404.02849.0011.05696-.0027.08416-.0113 0 0 0 .032-.01942.0404.01678-.0018.03376.0001.04971.0056.01594.0055.03045.0146.04245.0264-.03562.0194-.13269.1166-.05664.2315.05664.0874.17643.0954.17643.0954s-.02752.0793.08736.0712c.24757-.0113.52427-.1198.65205-.0923.128.032.20075.0438.29131.2008.096.1553.17963.1796.17963.1796s.05664-.1441.04373-.3592c.04644-.116.07215-.2392.07605-.3641l-.08416-.61972-.36725-.46443-.47573.26379-.03563.09216v.00032Z" fill="#E3C571"/><path fill-rule="evenodd" clip-rule="evenodd" d="M9.51611 9.52428s.03563.08416.18454.09216c-.01622.03563-.01622.04054-.01131.06795.0032.02752.008.06795.008.06795.01639-.00793.03121-.01878.04373-.032.00811.03562-.0081.09216 0 .13269.005.02465.01314.04856.02422.07115.00236-.00554.00506-.01092.0081-.01611.0032-.00811.032.08736.11168.16003-.00007-.0112.00269-.0222.008-.032.00122.0203.00793.0398.01942.0566-.00597-.0028-.01141-.0067-.01611-.0113 0 0 .008.256.05173.3884.00731-.0086.01381-.0178.01942-.0275 0-.008-.0032.0712-.01131.128-.01131.0566-.0032.1359-.0032.1359.02917-.023.06128-.0421.09538-.0567.0485-.0195.128-.0793.1764-.212.0281-.0752.0498-.1526.0648-.2314.0156.0301.0264.0625.032.096.0033.0404.0793.0194.0793.0194l.0162-.1764.096-.3997.0874-.24757.4207-.65525.7601-.58539.6635.15211.5597-.76054-.9643-.5793-.9127.09546-.8282 1.1472-.6634 1.04054-.11979.17152v.0001Z" fill="#D8B65B"/><path fill-rule="evenodd" clip-rule="evenodd" d="M14.296 7.86411s-.0566.0113-.22.096c-.1634.08469-.2767.11157-.3399.23616-.0631.12459-.0679.22336-.0679.22336s.1117-.04853.1764-.06475c.068-.0161.144-.0113.1359.01622-.0078.01887-.0186.03634-.032.05173 0 0 .128-.0032.1246.05995-.0034.06314-.0242.13269-.0484.16341-.0243.032-.1246.07936-.1359.11659-.0275.07605.0113.07925-.0033.14069-.0113.05995-.0647.17643-.2395.38027-.1796.20395-.256.34795-.256.34795s-.0874-.16341-.1327-.30421c-.032.0161-.2038.11157-.2038.11157l-.3981-1.38668.008-.09226s.0356-.04363.0437-.12459c-.0598-.01941-.0679-.03563-.1473-.11158-.0794-.07594-.144-.16832-.2766-.23146-.0194-.03563-.0437-.08406-.1408-.10358-.097-.01952-.1553-.03552-.1553-.03552s.0517-.01952.0761-.05995c-.06.00811-.1084.02752-.2395.02432-.1327-.0033-.1473-.0081-.2201.0032-.0727.01131-.16.04374-.1925-.06794-.0356-.02752-.1117-.0032-.1764.09216-.0648.09536-.0874.17152-.212.20875-.0087.05491-.028.10764-.0566.1553-.0356.05995-.0923.11979-.1683.20875-.1198.1408-.1004.37217-.2913.54859-.1926.17632.032-.48875.032-.48875l.3074-.736.8754-.85601 1.3593-.09216.1327.70401.6634.22816.4191.63915.0002-.00085Z" fill="#D3AE4D"/><path fill-rule="evenodd" clip-rule="evenodd" d="m14.5113 8.01938-.5712-.82356-.3997-.30752s-.2847-.52415-.3042-.54036c-.0162-.01131-.2848-.04043-.4563-.05174l.032.07926c.0375.01216.0707.03459.096.06474.0761.08736.1246.25237-.0485.4288.0679.02421.096.032.1553.02421-.0598.07125-.1957.22336-.2038.35605-.0081.10837.0598.14069.0598.14069s-.1036.11979-.1084.32c.0489-.05516.1025-.10605.16-.15211.1198-.096.2848-.20394.3965-.27189-.0015.02851.0023.05706.0113.08416 0 0 .2086-.17152.384-.09546.0792.03562.0436.1473.0436.1473s.1085-.04043.1845.03563c.0761.07605.1845.27178.2395.34794.0242.03563.0874.10357.152.20864.0883.14727.1621.30281.2202.46442.0032-.06475.0162-.15531.128-.15531l-.17-.30421-.0006.00032Z" fill="#CAA13E"/><path fill-rule="evenodd" clip-rule="evenodd" d="M5.94827 10.3593s-.04043-.1004 0-.2961c.04042-.19576.10357-.28803.12458-.57603.02101-.288.20875-.64725.20875-.64725l.51935-.23616.36736.10027.10838.49194-.46443.256s-.02421.10838-.1553.19574c-.1311.08736-.31232.1553-.35595.24437-.02608.05454-.04511.11222-.05664.17152 0 0-.13269-.0275-.21195.0598-.08415.0891-.08095.1684-.08415.2363v-.0004Z" fill="#F4EFC8"/><path fill-rule="evenodd" clip-rule="evenodd" d="M6.99672 10.2282s-.04373.0275-.07605.096c-.032-.0518-.10848-.35928-.11168-.63597-.0032-.27669-.01973-.34527.04427-.44063s.31498-.19584.27936-.36757c-.03563-.16342-.18454-.23136-.36736-.18443-.128.032-.22326.30421-.35595.4401-.10037.10358-.22005.08736-.25237.144-.04374.07606-.00331.15211-.01622.20064-.0033.01621-.04373.10357-.11658.20875-.1472.21194-.39638.51131-.4288.77991.0113-.1521.0033-.1553.04373-.3236l-.02432-.0404.16-.52429.10357-.43199.23147-.72341.40768-.73941.39648-.44341.41259.02752.04853.61973.23627 1.16351.49674.61162-.79616.53583-.31552.0275h.00032Z" fill="#EBCC73"/><path fill-rule="evenodd" clip-rule="evenodd" d="M7.24428 10.4481s-.06795.0162-.09227.0033c-.02432-.0129-.04842-.0276-.04042-.0438s.05173-.0436.05173-.0566c.0009-.0118-.00282-.0234-.01037-.0325-.00755-.009-.01833-.0148-.03006-.016-.03722-.0048-.04853.0194-.04853.0194s-.03563-.0274-.06464-.032c.01717-.0021.03444-.0032.05173-.0033-.04471-.0203-.09215-.0339-.1408-.0405.04043-.0242.11979-.0954.17152-.0954.05174 0 .08416-.008.07606-.0356-.00811-.0275-.04854-.0679-.09216-.0841.0161-.0194.02752-.04856-.01131-.12802-.04053-.07926-.02432-.1327-.01131-.15201.01131-.02432.05174-.06795.07115-.09547.01941-.02752.03563-.06475.06795-.08416.01621-.01131.06794-.032.11978-.05173.05664-.01942.10358-.04374.1359-.01942.03562.02422.01941.05664.01941.05664s.11168-.04053.21195.01131c.10037.04843.34474.07926.34474.07926l.08758.17643-.57931.49677-.23947.1198-.04853.008-.00032-.0003Z" fill="#E5C66B"/><path fill-rule="evenodd" clip-rule="evenodd" d="M8.04851 9.63593s-.17963.11978-.22006.16341c.02422.00331.06464.01952.04843.04373-.01941.02422-.13589.10838-.20064.18773-.06795.0793-.13269.1796-.15531.2282-.02421.0436-.20874.1715-.27178.1876.13269 0 .39968-.1634.49994-.1634-.0032.0485.02752.1036.08416.1084.05664.0048.22006.0356.44011-.1003.22005-.1327.14731-.2315.23947-.29612.17642-.11659.24757-.22016.34464-.2848.09706-.06464.1473-.07936.1473-.07936s.0032-.04853.032-.04363c.00789.00091.01537.00395.02165.0088.00628.00485.01111.01132.01398.01872 0 0 .16832-.11978.384-.1521-.00503-.00225-.00906-.00628-.01131-.01131 0 0 .01611-.00811.01942-.01621 0 0 .0113-.01622.01941-.00811.00811.00811.01941.06795.03563.09227.03562-.01622.10357-.16832.10357-.16832l.16352-.46763v-.4272l-.128.02432-.96.40768-.58261.60363-.06795.144h.00043Z" fill="#E6BD62"/><path fill-rule="evenodd" clip-rule="evenodd" d="M10.8123 7.54051c.0519-.0126.1017-.0328.1477-.05994-.0194.05184-.0194.10848-.1035.23147-.0842.12298-.0874.1408-.1554.26858-.0679.1327-.076.32364-.1408.40769.0291-.0141.0602-.02336.0922-.02741 0 0-.0646.05664-.0922.11648-.0275.05984-.076.18443-.1957.26059-.1197.07616-.2719.12458-.43529.30421-.16352.17632-.33174.39969-.416.48001.04373-.07606.10357-.22816.11978-.32843.01622-.10027-.0033-.22016.02422-.35275s.02752-.22817.16-.45963c.13248-.23147.35929-1.03564.35929-1.03564l.4886-.15531.1473.34955-.0002.00053Z" fill="#B6933F"/><path fill-rule="evenodd" clip-rule="evenodd" d="M10.4595 7.24434s-.1472.21194-.1876.39968c-.0404.18773-.0033.17152-.0275.26378-.0145.05626-.0145.11527 0 .17152.051-.08212.1208-.15094.2036-.20074.1392-.08406.2525-.144.32-.21515.068-.07605.1246-.20064.2718-.29611-.0599-.0081-.144-.03562-.16-.032.0599-.06794.2395-.17152.4207-.2961.1796-.128.1683-.17963.4596-.30742-.0955.01622-.1408-.0081-.2202 0 .032-.06794.144-.10037.256-.21194.112-.11158-.0711-.2767-.0711-.2767l-.8533.51616-.4126.48544.0006-.00042Z" fill="#C49937"/><path fill-rule="evenodd" clip-rule="evenodd" d="m8.14404 6.85923.01942-.15531.24437-.39157.25568-.68768v-.94016l-.01941-.54368.04042-.35605.03072-.11318.03243-.04373.20864.10837.28811.39158.02752.75573-.28 1.19253-.79936.87222-.04854-.08907Z" fill="#DFC068"/><path fill-rule="evenodd" clip-rule="evenodd" d="M8.77995 3.58409s-.128.00331-.15531.53568c-.0273.53237-.04053.81227-.05994 1.07605-.01942.26379-.06464.4239-.08736.57931-.02272.15541-.03563.36725-.10838.49675-.032.05984-.10037.24757-.26058.38837-.17963.15531-.448.26379-.48864.27189-.07125.01611-.4321.05174-.5793.1327-.05173.02752-.1408.05984-.23946.1521-.19584.17632-.45632.49184-.64405.87211-.288.568-.576 2.17155-.576 2.17155l.06475-.1084s.00811-.144.1521-.39648c.1408-.25238.10038-.53558.29611-1.01942.07605-.18442.17152-.42389.288-.62784.18453-.33173.40778-.61653.63274-.77184.36725-.25237.77183-.30741.77183-.30741l.4353-.288s.07606-.1472.17643-.31552c.14069-.23616.32-.49995.35914-.88341.05995-.568-.08416-.94016-.07605-1.2767.00811-.33653.01131-.5841.07936-.64405.06805-.05995.01941-.03723.01941-.03723l-.0001-.00021Z" fill="#A88F33"/><path fill-rule="evenodd" clip-rule="evenodd" d="M8.78 6.12463s.192-.47254.2799-.89163c.01621-.08416.04853-.16821.05664-.23616.04043-.39648.05173-.55989 0-.77675-.04043-.16-.19574-.30421-.2767-.416-.07926-.11658-.11648-.16-.10027-.18453.01621-.02453.07926-.06464.1407-.05984.06531.0019.12955.01707.18882.04457.05926.02751.11232.06678.15593.11543.12459.144.22326.63275.22326.63275l.10379.6449.26379.81227-1.03565.31563L8.78 6.12463Z" fill="#C99E3D"/><path fill-rule="evenodd" clip-rule="evenodd" d="M10.5842 5.63268s-.0356.0161-.1003 0c.0028.02641-.0018.05308-.0132.07705-.0114.02398-.0293.04434-.0515.05884-.068-.02752-.70401.02752-.70401.02752s-.29611-.05184-.38838-.44341c-.06464-.26059.04854-.61974.01131-.856-.05664-.34795-.13589-.416-.144-.52427-.00811-.10827-.01621-.13589-.01621-.20384-.03563-.00811-.05664-.01941-.09216-.01941-.00811-.032.008-.05995-.02752-.11659.01941.00811.1521.02432.30741.17152.128.11979.128.16341.14731.18773.02421.02422.22005.192.30421.35926.08416.16725.24754.70058.28484.78794.0113.03563.0356.07125.096.15211.0938.11658.2313.30933.3866.34133l-.0004.00022Z" fill="#B58634"/><path fill-rule="evenodd" clip-rule="evenodd" d="M9.53564 4c.09803.15835.18609.32265.26368.49195.09547.21514.15211.39157.27188.53557-.0647-.18763-.17961-.55659-.24756-.68768-.07605-.13867-.23136-.288-.288-.33973V4Z" fill="#A88F33"/><path fill-rule="evenodd" clip-rule="evenodd" d="M8.43516 6.66026s-.16341.04043-.46761.20064c-.10037.05174-.19573.09536-.288.1359-.23967.10837-.49673.20853-.70067.26378.01621.01942.02421.02742.02421.02742s0 .07936.04373.12458c-.02421.02432-.34794.24438-.25237.98059.06464-.02421.14069-.05664.152-.05664.01952.00331.02432.05664.04853.05664.02421 0 .10357-.032.18773-.1408-.0032.04373-.05173.48384.20874.77995.04854-.05664.17152-.24438.17152-.24438l.0032-.05984s.01131-.20874.07936-.39968c.06805-.19093.20063-.33173.20063-.33173l.69236-.98869-.10357-.34784.00021.0001Z" fill="#E6C367"/><path fill-rule="evenodd" clip-rule="evenodd" d="M7.78804 8.11202c-.0317.0224-.06663.03984-.10358.05173-.0113-.04043-.02752-.17963.06795-.31552.11168-.16352.35595-.37547.42389-.54401.04374-.10848.02432-.38027.4127-.72822.38837-.34795.54037-.46763.54037-.46763l.62784-.31552.77179.30421-.3834 1.50295-.29772.70401-1.184-.22326-.87595.03126h.00011Z" fill="#DCBA5A"/><path fill-rule="evenodd" clip-rule="evenodd" d="m8.23999 7.70395.14731-.18443v-.13109s.16341-.04373.33973-.22336c.17633-.17963.4207-.52428.63596-.50326.21525.02432.23626.46763.24437.59232.00811.1247.03563.40769.07926.5599.04853.15211-.52428.72812-.52428.72812l-.38901.29611-.53334-1.13431Z" fill="#E9CE77"/><path fill-rule="evenodd" clip-rule="evenodd" d="M8.6958 9.23945s.11978-.18774.032-.22816c.05173-.11648.1472-.23947.1472-.23947s.06794-.16821.28799-.37536c.22005-.20715.35604-.34475.39167-.48384.02196-.09065.03391-.18344.03562-.27669.02379.01943.04924.03674.07605.05173.03563.01621.20384.15531.17963.43531-.02422.28-.128.39648-.128.39648s-.10026.10026-.17141.1521c-.07616.05174-.10357.11158-.23146.11648.01315-.01045.02792-.01867.04373-.02432 0 0-.13269-.0161-.20394.04854-.07125.06464-.22271.26378-.29876.32373-.07605.04853-.16.10357-.16.10357l-.00032-.0001Z" fill="#CDAE50"/><path fill-rule="evenodd" clip-rule="evenodd" d="M14.0761 6.0922c-.1912-.06967-.3921-.10897-.5954-.11648-.3399-.01131-.8366.00811-1.3236.01131-.5243.0032-1-.17963-1.6602-.21195-.1083-.06475-.384-.34795-1.24434.25238.05174-.0032.62464-.1327.82354.11658.2007.24758.144.66828.1166.76854-.0518.22336-.22014.54859-.28798.77676-.06784.22816-.05184.34805-.10038.50805-.04853.16001-.1553.23947-.09226.4239.08416-.05173.128-.05173.26858-.36726.14054-.31552.11164-.54048.34474-.80747.2282-.26859.608-.63595.7524-.72822.1444-.09227 1.2912-.68768 2.4919-.11968.2896-.03072.5065-.50656.5065-.50656l-.0001.0001Z" fill="#D2A83E"/><path fill-rule="evenodd" clip-rule="evenodd" d="M9.73616 5.87196c-.00119-.01216-.00388-.02413-.008-.03563-.01123-.02366-.02598-.04549-.04374-.06475 0 0-.28479-.05173-.42879-.03562-.25248.02752-.48064.33984-.58741.50006-.10677.16021-.23947.40768-.38346.53558.00157-.01246-.0013-.02508-.00811-.03563 0 0 .0081.01131-.008.02752-.01611.01621-.01621.02421-.00811.032l.02432.02421c.008 0 .23136-.10037.53557-.384.32362-.29611.5712-.44801.70069-.50006.06906-.02935.14124-.05071.21514-.06368h-.0001Z" fill="#C29637"/><path fill-rule="evenodd" clip-rule="evenodd" d="M15.2606 4.6554s-.0519.06464-.1166.13589c-.144.15211-.3317.32352-.492.49995-.152.16832-.3235.29941-.5161.51947-.1927.22005-.416.46432-.4725.53557-.0518.07126-.0922.18774-.0922.24758-.0275-.01941-.0598-.04043-.0598-.04043.0136.02541.0298.04929.0485.07126.0404.05664.1035.128.1359.17152.0398.0554.0683.11805.084.18442.0194.0032.144.02752.2994-.22816.1555-.25568.3592-.53557.3592-.53557l.3236-.48065.204-.40768.256-.45632.0389-.21685h-.0003Z" fill="#AC8132"/><path fill-rule="evenodd" clip-rule="evenodd" d="M15.5923 4.32849s-.1958.16-.2718.25601c-.0761.096-.256.34795-.256.34795l.0647-.00811.3285-.2912.128-.22817.0065-.07605.0001-.00043Z" fill="#A88F33"/><path fill-rule="evenodd" clip-rule="evenodd" d="M15.5322 17.1877s-.0032-.1327.0713-.2119c.076-.0794.2686-.1958.4563-.6328.1877-.4369.2086-.5355.2086-.5355s-.3365.288-.544.3559c.0486-.1004.0761-.1715.1004-.2233-.0275-.0243-.144-.0518-.1553-.0647.0646-.0647.1003-.2233.2314-.3285.1683-.128.4757-.348.7146-.544.239-.1961.7087-.6521.7687-.7848.0356.0518.0436.0841.0436.0841s-.2362.3075-.3591.5032c-.1085.1684-.1004.2638-.1004.2638l.2233-.096s.0647.2395-.2281.6037c.128-.0486.1796-.0195.2524-.06-.1198.0762-.2848.1797-.4402.4644-.1521.2848-.3592.6166-.7086.8236-.3399.2185-.5357.3819-.5357.3819l.0008.0009Z" fill="#A67A2E"/><path fill-rule="evenodd" clip-rule="evenodd" d="M14.6553 6.2606s-.1327.27658-.1521.49183c-.0032.05184-.0162.09227-.0162.15211-.0032.19253.0113.40778-.032.50805-.0162-.04043-.0243-.06795-.0405-.08406-.0243.06795-.068.27989-.1036.35915-.0161-.05174-.0517-.23136-.0484-.4433.0033-.21195.008-.25248.008-.29611-.008.06464-.0518.15211-.068.20384-.0242-.04363-.0517-.10027-.0841-.1472-.0195.032-.0437.07925-.0647.10357-.0033-.01941-.0113-.07125-.0162-.14399-.0032-.08416-.0081-.19254-.0032-.21526.008-.04362.0761-.21514.2201-.37215.1715-.18773.3479-.54848.3996-.66016.0517-.11167.2718-.57599.2718-.57599h.1683l-.2444.55658s-.1471.30421-.2232.416c-.0761.11178-.2363.4321-.3075.55668.0517-.06794.0955-.10357.1473-.16831.0501-.04534.1892-.24107.1892-.24107l-.0002-.00021Z" fill="#8C6228"/><path fill-rule="evenodd" clip-rule="evenodd" d="M15.5956 4.30737c-.0275.08462-.071.1632-.128.23147-.1004.11979-.3157.27989-.4207.40768-.096.12459-.288.46443-.2008.86731.032-.08736.0923-.26048.2525-.45632.1602-.19584.3317-.4207.416-.59542.084-.17642.0954-.31552.0954-.31552l.0319-.04042-.0194-.09227-.0275-.00651h.0006Z" fill="#CBA94C"/><path fill-rule="evenodd" clip-rule="evenodd" d="M18.8723 15.0405s-.0648-.1764-.0842-.3366.032-.192-.0275-.3753c-.0356-.1117-.1003-.096-.1165-.1117-.0162-.0157-.0275-.1844-.0243-.2767.0032-.0923-.0032-.212-.0194-.2638-.0242-.0194-.0405-.0356-.0761-.1553-.0404-.1198-.0598-.1796-.0792-.2151-.0195-.0356-.0762-.068-.0762-.1036 0-.0713.0647-.1084.0647-.128-.0032-.0404-.0517-.008-.0647-.0194-.0161-.0194.0405-.1359.0195-.1521-.0081-.008-.0647.0599-.0793.0405-.0163-.0195-.0357-.2121-.0648-.3398-.0274-.1246-.0566-.2152-.0598-.2524-.0032-.0356-.2234-.6635-.2767-.8156-.043-.1285-.0792-.2592-.1084-.3916-.0162-.076-.0275-.2314-.0356-.2152-.0081.0162-.0032.0954-.0162.0922-.0113-.0033-.0518-.2798-.0647-.3236-.0113-.0437-.0793-.192-.096-.2993-.0162-.1085-.0517-.3917-.076-.5842-.0244-.19253-.0357-.27179-.0357-.32.004-.11792-.0025-.23597-.0194-.35275-.032-.20394-.096-.45152-.1521-.59541-.1084-.27189-.3965-.96768-.448-1.1408 0-.04373.0567-.01941.0567-.01941s.1406.35274.2442.62453c.1004.27189.1959.51136.2202.53568.0194.02421.1715.2912.2395.72811.0679.4369.0921.83975.1326 1.10835.0195.128.0357.2638.0761.3997.0436.1473.1116.2994.2006.5324.0761.1958.1327.3592.1635.5.0356.1797.0356.3155.0566.4046.0195.0761.0485.2281.1166.448.068.22.1682.5033.2361.6796.1328.3527.192.6472.2121.8043.0177.1618.0777.7217.0614.8899l.0004-.0002Z" fill="#A88F33"/><path fill-rule="evenodd" clip-rule="evenodd" d="m15.6036 4.28797-.0081.01942s.0242.0081.0194.04053c.0004.04436-.0024.0887-.0081.13269-.008.05664-.0242.10027-.0274.1359 0 .07605.0113.16341-.096.38027-.032.05984-.0517.11157-.0679.1472-.0405.08736-.0486.10037-.0842.1408.0566-.032.2606-.16.364-.1408-.0711.04042-.1796.11979-.2475.22336.0162.0032.0841.01621.192 0 .1796-.02752.3802-.09227.5565-.07936.1927.01131.1166-.23136.1166-.23136l-.2223-.48865-.4206-.296-.0664.01611v-.00011Z" fill="#BE9C44"/><path fill-rule="evenodd" clip-rule="evenodd" d="M16.7007 7.94824s-.1877-.18773-.2638-.832c-.076-.64725-.0598-1.6-.0598-1.6l-.1521-.37216s-.032-.24757-.1117-.33973c-.0797-.09216-.2362-.24758-.3074-.32363-.0713-.07605-.1521-.17963-.2007-.19584.0242-.04043.1327-.26859.5485-.27179.4158-.0032.544.22816.5874.31232.0434.08416.2395.448.3122 1.14134.068.69248.0713.74432.06.98378-.0081.1327-.0519.44011-.128.76854-.0696.2784-.1456.58912-.2848.72981l.0002-.00064Z" fill="#A17C34"/><path fill-rule="evenodd" clip-rule="evenodd" d="M16.112 8.50007c.0626.00451.1251-.00959.1797-.04053.0598-.0032.2767.02432.4433-.18763.0113.04843.0405.17963-.0356.29611.0405-.04054.1003-.05664.1085-.06795.0032.05984.0598.24426-.1797.69247.0647-.07114.1407-.06794.2087-.07605.0033.08416.0485.36725-.0712.51946-.0792.10358-.2087.07115-.2087.07115.0018-.02261.0018-.04534 0-.06795-.0032-.04373-.0195-.08736-.008-.11648-.0626-.02858-.1196-.06805-.1684-.11658-.1408-.13269-.3236-.35915-.3365-.52746-.0162-.18774.1521-.22816.1521-.22816-.0141-.01262-.0261-.02737-.0356-.04373-.0082-.02742-.0163-.07115-.0486-.10667Z" fill="#8C6228"/><path fill-rule="evenodd" clip-rule="evenodd" d="M14.8641 6.46438s-.0081-.01131-.0517.04042c.0081-.05173.0162-.10037.0194-.1473.0206-.04346.0474-.08375.0793-.11968-.0243.04842-.0405.09216-.0405.09216s.06-.11168.1473-.17963c.0599-.04853.1359-.07115.1682-.11648.0357-.04853.0275-.05664.0357-.06475 0 0 .0793-.05173.2007-.20394.0161-.01942.0404-.04043.0566-.05984.0274-.01131.0922-.04043.1682-.07936.0794-.04363.1684-.10347.2234-.128.1084-.04854.2234-.04363.2767-.11979.0404-.01131.084-.13269.076-.23616.0599.02421.3673.21515.4726.63264.076.29611-.06.75243-.1166.97259-.0567.22016-.0647.38346-.144.48373-.1004.1328-.4239.32-.5033.41269-.0679.07606-.2717.26859-.2637.40768.0081.10358.1358.16.1635.17963.0276.01963.0274.04373.0792.032.0519-.01173.0712-.03563.0923-.03563.0242.0032.0242.00811.0355.00811.0082-.00025.0164-.00135.0243-.00331 0 0-.0081.14731-.3527.192-.0243.00331-.0485.01131-.0794.01622.0406-.01942.0648-.01942.1085-.07926-.0485-.0081-.1877-.01621-.2233-.02752.0113-.01941.0485-.07125.0792-.09546.0275-.02422-.0032-.032-.0274-.01942-.0417.02837-.0817.05914-.1198.09216-.0404.03563-.076.08416-.1408.128-.0194-.06474-.0162-.18773.06-.27669-.0196.0032-.0568.05984-.0923.04853-.0064-.05902-.0026-.11871.0113-.17642.0194-.07286.1246-.20064.1246-.20064l.508-.90784.1084-.68768-1.1634.22602v.00022Z" fill="#92723A"/><path fill-rule="evenodd" clip-rule="evenodd" d="M14.8366 6.5032s-.0275.01942.0275.05664c-.0081.01131-.0275.05174-.0518.07926-.0275.032-.0567.05184-.068.07936-.0242.05664-.0436.09546-.0436.11978 0 .02432-.0081.17963-.0761.2799-.0243.03562-.0518.09546-.0712.13589-.0405.07115-.0761.128-.0842.16-.0161.05664-.0274.21195-.0274.21195s.0356-.04374.0485-.05984c-.0195.04042-.0405.08405-.0712.11648.0194-.01622.076-.05664.1715-.1408.1327-.11158.3399-.29931.5924-.448-.0762.02752-.1409.02752-.1926.03562.0404-.04042.4045-.46762.5955-.50805.0115-.0147.0173-.03315.0162-.05184l-.1636-.01611-.3317.07115-.0484-.256-.2218.13429v.00032Z" fill="#B18E3E"/><path fill-rule="evenodd" clip-rule="evenodd" d="M15.3642 7.95954s-.0437.04363-.0841.15211c-.0312-.0325-.0578-.06898-.0794-.10848-.0598-.10027-.152-.22816-.3673-.15531-.0032-.06795-.0081-.10357 0-.15211.0357-.008.144-.09536.2524-.22325.0762-.08736.1473-.18773.1959-.31552.032-.02432.0873-.06475.16-.11168.1035-.07115.2281-.16832.2475-.27669-.0485.01941-.1521.06794-.3075.05994.06-.02752.1521-.05664.1408-.17642.0243-.01622.0437-.02752.0437-.02752-.0182-.00609-.0374-.00883-.0566-.00811-.0033-.01131-.0081-.02741-.0356-.01941s-.032.0081-.0356.01941c-.0114.00331-.0486 0-.0761.01952-.0275.01952-.1036.08405-.1327.09536.0113-.01941.0274-.04843.0274-.04843s-.0792.008-.1359.032c-.1035.03563-.2232.10038-.3446.16342.0113-.01942.0162-.032.0242-.03563.008-.00363.0275-.008.0275-.01131 0-.0033-.008-.032-.0032-.04362.0363-.07688.0791-.15051.128-.22006.0567-.07616.068-.18453.068-.18453l.2475-.12459.6958-.16.4515.02752-.0566.31232-.2667.54528-.2281.49675-.2606.30432-.2395.17472h-.0001Z" fill="#543E26"/><path fill-rule="evenodd" clip-rule="evenodd" d="M16.4921 6.60792s-.2719.33653-.348.38837c.0485-.10357.348-.7201.4563-.89162-.0242-.01942-.0566-.01942.0195-.32-.0647.152-.0874.23136-.1407.27178-.0534.04043-.06.02752-.096.02752.0068-.01231.0096-.02644.008-.04042 0 0-.2282-.02752-.3841-.02752-.1558 0-.4643.08416-.6359.1521-.1359.05664-.212.05664-.2605.09216-.0485.04043-.0761.08416-.1004.09547-.0194.01131-.1116.04043-.1327.07115-.0194.032-.0517.06794-.0517.07605 0 .00811-.0081.01952.0162.01131.008-.0032.0679-.03563.1359-.07606.0922-.05173.2038-.11157.2848-.1472.2314-.09226.3042-.07605.4077-.09546.1084-.01942.2638-.06475.3673-.06475.1035-.0032.2994 0 .3447.00811-.0194.01621-.0356.03562-.0275.10357 0 .01941-.0162.04043-.032.08736-.0484.13269-.1407.35275-.192.46443-.0712.152-.152.27989-.192.35914-.04.07926-.128.288-.2152.39968-.0871.11168-.1327.17963-.16.20395-.0273.02432-.2233.16821-.2087.22005.0356-.0113.2606-.096.4239-.27989.1633-.18389.1958-.29611.3236-.39648.1278-.10037.2282-.26859.288-.40768.0502-.12949.0388-.16992.1019-.2848l-.0004-.00032Z" fill="#806031"/><path fill-rule="evenodd" clip-rule="evenodd" d="M10.6327 9.1198s-.0356.1472-.1166.22006c-.0792.07125-.22.13269-.2361.25248-.0195.11968.1408.17962.1408.17962s-.0875.144-.0875.25234c0 .1117-.0032.1327.0081.2395-.0128.0083-.0238.0192-.032.032 0 0 .008.1036.0874.1682.0793.0647.1472.1036.1876.0874.0062.0132.0116.0267.0162.0405 0 0 .06-.1521.1004-.2848.0404-.1359.076-.1166.0921-.2994.0161-.18283.192-.49675.192-.49675l.1201-.26827-.1958-.1521-.2767.02912v.0001Z" fill="#B6903C"/><path fill-rule="evenodd" clip-rule="evenodd" d="M10.9967 9.38348c-.0403.04144-.0776.08579-.1114.1327-.0518.07125-.0922.13589-.1683.16352-.076.02762-.1245.02741-.1197.10357.0048.07616.076.10837.1164.1472.0438.04043.0794.10833.06.18453.0242-.0113.0679-.0243.1084-.1117.0404-.08734.3232-.61971.3232-.61971h-.2086v-.00011Z" fill="#685026"/><path fill-rule="evenodd" clip-rule="evenodd" d="M12.112 8.15532s.0242-.06464 0-.11157c-.0243-.04854-.1715-.06475-.2443-.11979-.0761-.05664-.1684-.096-.2444-.07114.0113-.02752.0566-.08747.0194-.10038-.0356-.0113-.1682.04854-.2038.07606-.0357.02751-.1166.05983-.1327.07935-.0161.01952-.0438.05664-.06.04043-.0162-.01131-.0242-.04043-.0517-.02432-.0275.01611-.16.12459-.1844.18773-.0245.06315-.0794.20395-.2444.36405-.165.16011-.2363.26379-.1877.32363.0485.05984.0712.01621.0793.06794.0063.05079.0035.10228-.0081.15211-.0194.08416-.0517.16341-.0081.17962.1117.03563.2202-.03199.2444-.0113.0485.04362-.0275.20064.0873.23136.1166.032.2315-.02752.2315-.02752l.4239-.22816.4078-.21515.2086-.41269-.1119-.34463-.0213-.03563h.0006Z" fill="#D4B968"/><path fill-rule="evenodd" clip-rule="evenodd" d="M11.7119 9.14077s-.0712-.10837.0162-.20395c.0875-.09557.212-.13589.2605-.19573-.0092-.0114-.0216-.01982-.0356-.02421.0322-.05765.0814-.10401.1408-.1328-.0242-.02422-.0567-.04363-.0922-.04363-.0793 0-.128.04853-.2007.04853-.0712 0-.0793-.03562-.0793-.03562s.1198-.01131.1084-.06475c-.0113-.05664-.032-.05664-.032-.05664s.2314-.096.2718-.1472c.0404-.0512.0356-.11168.0437-.13589.0274 0 .1876-.08416.2524-.04853.0647.03562.0194.13269.0194.13269s.1959-.14731.2958-.29173c.0873.00811.128-.05984.192-.05984.0793 0 .2039.10837.2281.33973.0162.13269.0405.20875.0162.44341-.0113.13269-.0081.416.032.55658.0275.11168.0922.10038.0922.10038-.0099.03403-.0296.0644-.0566.08736-.0438.04042-.0486.1473-.0438.18773.0065.02955.0146.05872.0243.08736 0 0-.0517.05984-.0647.10037-.0113.04043-.0646.06795-.1036.06795-.0389 0-.0194-.00331-.0711 0-.0517.0033-.068.0113-.1004 0-.0324-.01131-.0566-.02432-.0436-.128.0113-.10358-.3997-.34464-.3997-.34464l-.672-.23947.0015.00054Z" fill="#CCA849"/><path fill-rule="evenodd" clip-rule="evenodd" d="M10.9401 10.1634s.1472.1959.7524.1959c.288 0 .3884-.0276.448-.0438.0648-.0162.3075-.1116.5518-.39966.2201-.26048.1716-.36725.1716-.36725l-.128-.01942-.416.05664-1.231.52429-.1493.0533h.0005Z" fill="#585136"/><path fill-rule="evenodd" clip-rule="evenodd" d="M11.3915 10.2119s-.5243.1166-.5243-.21512c0-.32361.3236-.66344.4046-.72328.0841-.05994.2848-.12799.2848-.12799h.4838l.0922.24436-.0405.52745-.7006.29448v.0001Z" fill="#252211"/><path fill-rule="evenodd" clip-rule="evenodd" d="M11.8754 9.24438s-.1003-.09227-.3285.032c-.2281.12426-.4127.384-.424.61985-.0113.20867.1716.36407.4564.37217.2119.008.3398-.0162.4045-.032-.0162-.0194-.1003-.1246-.1003-.1246l-.008-.86732-.0001-.0001Z" fill="#C3B378"/><path fill-rule="evenodd" clip-rule="evenodd" d="M11.7767 9.29599s-.0242-.01941-.096.01941c-.0598.032-.1472.11659-.2151.17642-.0438.03563-.0713.05173-.096.07925-.1004.11979-.1846.31562-.1359.41268.0486.09705.2087.20875.6165.13265l-.0747-.8203.0012-.00011Z" fill="#E6D89C"/><path fill-rule="evenodd" clip-rule="evenodd" d="M11.644 9.49673s-.0647.10037-.0647.26059c0 .16341.0922.42388.4321.44328.2604.0162.4352-.37533.6245-.52744.144-.11649.2313-.11979.2313-.11979s-.1472-.16-.5403-.36726c-.3884-.20875-.8237-.23627-1.0599.08416.1116-.00811.4725-.10037.4725-.10037l.1764.05664-.2719.27029v-.0001Z" fill="#252211"/><path fill-rule="evenodd" clip-rule="evenodd" d="M12.1521 9.7087c-.0113-.02421-.0194-.05664.0275-.06464s.0679-.00331.0841.032c.0163.03531.032.06475.008.07936-.0242.01291-.0873 0-.1197-.04693l.0001.00021Zm-.0761-.22816s-.0162.01131-.0081-.0113c.0032-.02742.0244-.07606.0761-.06464.0517.01141.0405.06794.032.08416-.0086.01621-.0517.04362-.0842.032-.0041-.00106-.0079-.00306-.0111-.00586-.0032-.0028-.0056-.00631-.0072-.01024-.0016-.00394-.0022-.0082-.0019-.01242.0004-.00423.0018-.00831.004-.01191l.0004.00021Z" fill="#6F674D"/><path fill-rule="evenodd" clip-rule="evenodd" d="M7.69604 9.58401s.128.096.2767.09227c.1472-.00331.33653-.15531.42389-.25249.05173-.05664.096-.11648.144-.16341.04053-.04043.06795-.05984.08736-.08736.02752-.032.05664-.09216.07125-.11168-.03562.02752-.08736.07616-.1408.10848-.05173.032-.16341.09216-.20874.10837-.04363.01622-.49675.256-.49675.256l-.15691.04982Z" fill="#AC924C"/><path fill-rule="evenodd" clip-rule="evenodd" d="M7.8916 8.38838s.07115-.04853.20875-.07936c.13269-.032.39968-.05664.39968-.05664l.22005.096.08736.33173-.16.34475-.20384.128-.23147-.37216-.32-.39168-.00053-.00064Z" fill="#9F8E57"/><path fill-rule="evenodd" clip-rule="evenodd" d="m7.60363 8.68452-.07616.05686s.01952-.03563.03562-.14401c.01611-.10837.10038-.37216.22336-.52427.12299-.15211.11979-.14401.11979-.14401-.01132-.00206-.02294-.0017-.03411.00108-.01116.00278-.02161.0079-.03064.01503.01622-.03584.11979-.16384.22337-.22784.10357-.064.144-.08416.25237-.032s.13589.07925.21525.07605c.07937-.0032.14721-.08736.14721-.08736s.01621.05173-.04363.17152c-.05984.11979-.29611.36406-.29611.36406l-.49195.33654-.24437.13867v-.00032Z" fill="#EAC970"/><path fill-rule="evenodd" clip-rule="evenodd" d="M7.96759 8.34793s.35605.04853.46443-.05174c.0032.01131.01621.01131.01621.01942-.00087.00611-.00372.01176-.00811.0161.01179-.00188.02369-.00295.03563-.0032.01425.00424.02891.00696.04373.00811.01194-.00026.02385-.00136.03563-.00331-.00113.00805-.00386.01578-.00804.02274-.00417.00697-.00971.01302-.01628.0178.01621 0 .032.0032.032.0161 0 .01291.0032.05184-.01621.05995-.01609.00445-.03321.00328-.04854-.00331.00129.03064.00961.06057.02432.08747.032.05984.10027.128.192.10837 0 0 .04843.11648-.15541.37536-.02741.03563-.05664.08416-.09216.12459-.01403.03059-.02476.0626-.032.09547 0 0 .34475-.1327.44341-.43531.10038-.30421.11979-.60352.10038-.88341-.00331-.07936-.01622-.1359-.03563-.17643-.04853-.10037-.18453-.08416-.23947-.02752-.07936.07936-.21205.27669-.39648.41259-.18773.13589-.19573.16-.33984.22016h.00043Z" fill="#D7BC6B"/><path fill-rule="evenodd" clip-rule="evenodd" d="M7.5405 8.78485s-.06795.04043-.10358.192c-.03563.15531.032.34464.07115.40448.03915.05984.128.22336.31232.23147.04563-.00024.09074-.0096.1327-.02752.06434-.0295.1247-.06703.17963-.11168.07936-.05984.144-.11157.13589-.11648-.01941-.00811-.48864-.39648-.48864-.39648l-.17643-.19691-.06315.02134.00011-.00022Z" fill="#585136"/><path fill-rule="evenodd" clip-rule="evenodd" d="M7.98408 9.4288s.09547-.008.15211-.04363c.05664-.03563-.33175-.42069-.33175-.42069l.02752.416.15212.04832Z" fill="#453A25"/><path fill-rule="evenodd" clip-rule="evenodd" d="M7.57113 8.7556s-.04853.09226-.04853.11658c-.00811.07926.01621.32843.03562.40768.01942.08416.12459.21195.26059.21195.08405 0 .20064-.05173.20064-.06464 0-.01621-.11979-.032-.15211-.09227-.01941-.032-.02752-.11157-.032-.192-.0032-.05173-.0032-.10837.01622-.128.04373-.04853.05173-.18773.05173-.18773l.1553-.28853h-.20426l-.24437.1521-.03883.06486Z" fill="#84754B"/><path fill-rule="evenodd" clip-rule="evenodd" d="M7.51147 8.84472s.16-.21195.30421-.26059c.14421-.04864.20874-.01941.20874-.01941l-.08416.21525-.11978.13269.00811.06795s-.01952.17962.10026.30421c.11978.12458.20874.11978.26058.11978.05184 0 .20064-.04373.27669-.22336.06794-.16821.12458-.38399-.01131-.60031-.1328-.21525-.36735-.22357-.41268-.22357-.04533 0-.40127.01781-.53066.48704v.00032Z" fill="#252211"/><path fill-rule="evenodd" clip-rule="evenodd" d="M11.6197 9.56467c-.0598-.02752-.0032-.19573.0566-.24757.0599-.05184.1359-.11157.2687-.11979.0485-.0032.0954.02752.0874.05995-.0113.05984-.0955.144-.1715.20383-.1052.08256-.1732.1343-.2412.10358Z" fill="#F7F7E7"/><path fill-rule="evenodd" clip-rule="evenodd" d="M8.38349 8.64724c.04373-.0032.10038.032.11168.07936.01131.05173-.02752.15531-.11168.15531-.06795 0-.10358-.08416-.10358-.10838.00076-.01991.00633-.03934.01621-.05664.0032-.0049.01131-.06155.08737-.06965Z" fill="#F8F6DE"/><path fill-rule="evenodd" clip-rule="evenodd" d="M7.75241 8.68451s-.11168.05173-.16341.15999c-.03696.07995-.04815.16941-.032.25599.00811.04043.04853.14069.07605.17631.02752.03563.06475.05995.09227.05664.02752-.00331.08406-.07605.08406-.11967 0-.04363.0033-.22815.05664-.32852.04693-.10027-.11328-.20063-.11328-.20063l-.00033-.00011Z" fill="#D4C38B"/><path fill-rule="evenodd" clip-rule="evenodd" d="M7.76861 8.67636c-.01941.01131-.05173.02752-.04373.04853.00811.01941.07605.032.10038.07936.02752.04853.02752.10026.01941.12458.02114-.01005.04031-.02377.05664-.04054.03563-.04042.07925-.09535.11648-.09535.02432 0 .04853.01131.07125.01131.03563 0 .07115-.01131.07606-.04854.008-.04853-.06795-.09226-.11168-.08415.0081-.032.01941-.07925-.01622-.11167-.03562-.03243-.1472.02431-.17152.04053-.02432.01621-.09707.07605-.09707.07605v-.00011Z" fill="#E2D59D"/><path fill-rule="evenodd" clip-rule="evenodd" d="m10.3399 12.076.2394-.0707.068.0485s.0484.1036.1246.1165c-.0244.0518-.0875.096-.0842.1327.0033.0367.0356.0648.0356.0648s-.2152.3559.2088.7146c-.1004.0405-.2282.096-.2961.128.0484.0113.152.032.1957.0713.0437.0392.0437.0517.0842.076.0404.0244.0646.0567.0566.0712-.0275-.0162-.1198-.0647-.1359-.0194-.0161.0452-.3997.0275-.3997.0275l-.64723.1246s.02421-.0648-.04373-.1246c-.07926-.0712-.17632.0032-.2799-.0761-.13589-.1035-.1408-.2233-.18442-.2685.04362-.0276.13269-.068.34464-.096-.00811-.0163-.03563-.0648-.01942-.1084.01942-.0567.10027-.0923.07606-.16.03562-.0081.05173-.0081.1408-.1198.08416-.1117.13589-.1359.2006-.144.0648-.0081.1036 0 .2234-.1117.084-.0792.0566-.1472.0566-.1472s.055-.0178.0357-.1295l-.0001.0002Z" fill="#CBAC5A"/><path fill-rule="evenodd" clip-rule="evenodd" d="M9.63282 12.112c.0032-.0162.01621-.0243.10358-.0162.08736.0081.6407-.0517.7913-.0598.1521-.0113.6876-.0033.9482.0517.2606.055.5243.1198.6521.1521.128.0356.1683.0484.1634.0646-.0032.0162-.032.032-.0485.0276-.0161-.0032-.4401-.1327-.5711-.16-.131-.0273-.5842-.1004-.832-.096-.2314.0033-.3237-.0032-.5194.0194-.1958.0243-.51947.0566-.61654.0437-.096-.0113-.07616-.0113-.07125-.0275l.00021.0004Z" fill="#D6BC6F"/><path fill-rule="evenodd" clip-rule="evenodd" d="M10.9352 13.3803s.3317.1796.4515.3996c.0874.1634-.0517.2444-.0517.2444s.1877 0 .1634.1036c-.0113.0646-.3236.2393-.5324.3316-.2119.0923-.2038.0875-.3074.1036-.1004.0162-.3754-.032-.4321.0485-.0566.0805-.032.1635-.0162.1764.0162.0113.1473.0275.1473.0275s-.0275.0761-.2993.0842c-.27178.0081-.33983.0274-.35605.0566-.01621.0275.05174.0113.17643.032.12462.0195.29932.032.29932.032s-.0567.0486-.20385.0874c-.16832.0436-.43211.0842-.51136.1327.04042.0275.10037.0679.128.0711-.06795.0162-.16352.0519-.17963.0648.02421.0162.05664.0356.05664.0356s-.136.1634-.21525.204c-.07925.0405-.53557.2523-.69258.2119-.39157-.1036-.44011-.5324-.53557-.5647-.144-.0485-.21195.0484-.33984-.0195.05664-.0404.08746-.0646.1473-.0922-.06474-.032-.39967-.2443-.39967-.2443-.03503-.0764-.07391-.1509-.11648-.2233-.06475-.1117-.16-.2606-.23147-.3917-.1553-.288-.16341-.4206-.30421-.5841.02432-.032.10837-.0275.10837-.0275l1.17973.3884 2.09187.0606.544-.7767.2313.0276-.0001-.0001Z" fill="#DFC677"/><path fill-rule="evenodd" clip-rule="evenodd" d="M7.83667 14.5647c.01262.014.02734.026.04363.0356.04053.0275.10037.0599.1408.1084.01621-.0242.05664-.068.128 0 .07136.0679.16.0195.21514.0356.05664.0195.05984.0275.05984.0275s.032-.0275.10358-.0566c.04373-.0162.09546-.0275.1521-.0437.05174-.0113.10838-.0275.14731-.0275.03563.0242.16341.16.67637-.0404.48384-.1877.59546-.2087.67636-.1797.0081-.0194.0162-.0567.1408-.0518 0-.0517-.1036-.2281-.1036-.2281l-.57116-.1958h-.31242l-.93686.1716-.51914.2962-.04043.1493-.00032-.0006Z" fill="#C4A859"/><path fill-rule="evenodd" clip-rule="evenodd" d="M7.52429 14.2362s.01131.0874.1408.1797c.128.0921.16821.1472.16821.1472s.02432-.032.04374-.0647c.01941-.0356.03563-.076.06795-.0873.06474-.0275.21194.0242.24437.0161.02752-.008.01941-.0647.04853-.0647.06795-.0033.11157.0437.13589.0437.02432 0 .08406-.0032.09216-.0161.00811-.0129.01131-.1473.10358-.2121.10037-.0711.22336-.0404.256-.0242 0 .0242.0032.0842.06794.0874.06475.0032.07115-.0082.128.0113.05686.0194.12459-.0032.15531.0921.02752-.008.09227-.0161.07605-.1084.032-.0242.05995-.0404.128-.1358.01622-.0243.04363-.0518.06475-.0874.05664 0 .12459-.0113.21515.0679-.02752.0195-.04374.032-.05174.0518.02369.0234.04532.0489.06464.076.02432.032.04054.0713.07126.0794.06794.0194.17962-.0081.30422 0 .1198.0081.22.0517.2638.0792.0162-.008.0162-.0113.0566-.0032s.0712.0113.0275-.0404c.0243.0113.0518.0356.0761.0113.0243-.0243.0436-.0598.1116-.0679.0679-.0081.0922.0032.1198-.068.0356-.0873-.0874-.0873-.0874-.0873s.0566-.0519.1198-.1198c.076-.0712.1634-.1634.1844-.2767.0356-.2088-.1682-.2362-.1682-.2362l-.9887.3042-1.20875-.0599-1.03072.513-.00064-.0002Z" fill="#927D49"/><path fill-rule="evenodd" clip-rule="evenodd" d="M6.63593 11.3803s-.032.0404-.05174.1359c-.01973.0954-.0113.0841-.02752.1521-.01621.0679-.21536.7443-.14069.9725.07467.2282.20395.3123.2848.4967.01621.0405.032.0648.04042.1004.02752.1197.00331.212.03563.3318.01131.0404.04053.0873.08416.1359.096.1002.25248.1957.32.2636.09536.1004.23136.3044.40448.3237.09226.0113.22336-.0275.33173-.0922.096-.0599.1553-.144.256-.192.07114-.0356.1472-.0485.21514-.0647.1408-.0276.26869-.032.34475-.0162.11648.0243.39157.1084.54399.1084.11911-.0019.23755-.0182.35275-.0485.23136-.0679.51127-.1845.69577-.2363.1084-.032.1957-.0404.2848-.0598.1521-.0356.2799-.0842.3528-.1764-.0486-.0567-.1084-.144-.4321-.1408-.3673.0081-.7913.2119-1.00004.2443-.20875.0325-.29931.0599-.53237-.0243-.22848-.085-.23606-.1412-.23606-.1412s-.23989-.1678-.34026-.5956c-.10037-.4277 0-.7394.26058-1.0356.06795-.0761.05174-.144.05174-.144s.17152-.2314.12458-.448c-.05173-.2153-.38346-.1715-.38346-.1715l-1.83978.3218h-.0001Z" fill="#6E6342"/><path fill-rule="evenodd" clip-rule="evenodd" d="M6.91258 12.1003c-.01427.0269-.02098.0571-.01941.0874.0032.0436.01621.1003.1472.2282.11168.1115.08736.2361.08736.2361s.05621.0113.20874-.06c.11979-.0567.16.0437.16.0437.03487-.0183.07266-.0304.11168-.0356.03535-.0033.06956-.0142.10027-.032 0 0 .1408.144.26378.2119.11168.0599.17643.1004.23147.0599.05173-.0356.05173-.1084.04842-.1408-.01283-.0298-.02908-.058-.04842-.0841-.03563-.0517-.09227-.1117-.096-.16-.00811-.1116.08416-.2444.06464-.2767-.01952-.0323-.09216-.0404-.27179.0243-.18602.0615-.98869-.1019-.98869-.1019l.00075-.0004Z" fill="#39331F"/><path fill-rule="evenodd" clip-rule="evenodd" d="M7.33646 12.8237s-.09212-.0873-.05981-.5113c.03911-.0006.07816.0032.11643.0113 0 0 .05023.3285-.05662.5Z" fill="#292311"/><path fill-rule="evenodd" clip-rule="evenodd" d="M6.67956 11.0566c.01286-.0095.02479-.0202.03563-.032-.032.0599-.17973.2993-.05995.6764.11979.3753.4207.6552.79126.6682.37056.0131.56533-.1683.78805-.4401.08736-.1083.18773-.2443.27669-.3365.1327-.1441.23627-.1845.23627-.3236 0-.2848-.29131-.4127-.72011-.5405-.4288-.1278-.81557-.112-1.01621-.0245-.19573.0953-.27989.1957-.33173.3527l.0001-.0001Z" fill="#252211"/><path fill-rule="evenodd" clip-rule="evenodd" d="m8.05659 12.9515.032-.0162s.008-.128.05983-.1246c.05173.0081.07605.0761.07114.1004-.0032.0242-.0161.0647-.06794.0598-.06794.0016-.09535-.0194-.09535-.0194h.00032Z" fill="#3F3824"/><path fill-rule="evenodd" clip-rule="evenodd" d="M7.9126 12.4078s.032-.0113.07114.0275c.032 0 .17152-.0162.21526.0113.04373.0275.05664.0517.05664.0517s-.16342.0356-.25248 0c-.09056-.0307-.09056-.0905-.09056-.0905Z" fill="#2D2815"/><path fill-rule="evenodd" clip-rule="evenodd" d="M8.6327 12.432c0-.0081-.08735-.0679-.17961-.0875-.01621-.0032-.01952.0081-.032.0081-.0081-.0032-.0113-.0275-.0113-.0275l-.05247.0277s-.00811.0113.01941.0319c.02421.0195.06474.0357.07604.068.01131.0323.01131.0436.01621.0485.0032.0032.05984 0 .08735-.0162.02752-.0162.07935-.0427.07605-.0533l.00032.0003Z" fill="#82764F"/><path fill-rule="evenodd" clip-rule="evenodd" d="M7.81567 12.7605s.01611-.1115.12459-.1165c.11157-.0081.13269.1003.13269.1003l-.06474.0648c0-.0016-.04854-.0696-.192-.0486h-.00054Z" fill="#2D2816"/><path fill-rule="evenodd" clip-rule="evenodd" d="M8.51953 12.2799s-.05994.0647-.19252.0842c-.01131-.0163-.03563-.0486 0-.1003.03562-.0518.07605-.068.11647-.0519.01784.0029.03448.0108.04795.0229.01348.012.02323.0277.0281.0451Z" fill="#574F35"/><path fill-rule="evenodd" clip-rule="evenodd" d="M8.76374 12.3592c.00331-.0162-.008-.0194 0-.0275s.05184-.0242.05995-.0162c.0032.0033 0 .0162 0 .032s0 .032-.00811.0436c-.01131.0162-.04363.0243-.05984.0195-.01621-.0048-.01941-.0275-.01941-.032.008-.0032.02741-.0113.02741-.0194Zm.27627-.1747c0-.0081.02752-.0243.04373-.0243.02421 0 .02421.0194.02752.0243.008.0032.008-.0033.01611.0113.0081.0147.01952.0405.0113.0567-.00821.0162-.04042.0274-.04842.0242-.01131-.0081-.04694-.0809-.05024-.0922Z" fill="#82764F"/><path fill-rule="evenodd" clip-rule="evenodd" d="M8.48376 12.3965s.03563.008.08416.0485c-.01621.0113-.04053.0242-.04053.0242s-.0032-.0372-.04363-.0728v.0001Z" fill="#6E6342"/><path fill-rule="evenodd" clip-rule="evenodd" d="M8.4046 12.0405c-.00811-.008.02421-.0275.04363-.0243.01941.0032.02752.0163.04853.0195.02102.0032.02432-.0081.032-.0163.00768-.0081.03563-.0032.04043 0 .00299.0036.0057.0074.00811.0114.00034-.0062.00194-.0122.00471-.0177.00278-.0055.00665-.0104.0114-.0143.0062-.0046.01336-.0077.02093-.0091.00758-.0014.01537-.0011.0228.0009.0032.0114.01941.0518.01621.0599-.0032.0081-.05173.0195-.05994.0113.0081.0195.04373.06.04853.068.0048.008-.03563.0275-.05173.0243-.02262-.0016-.16182-.0826-.18604-.1133l.00043-.0003Zm.21195-.2686c-.00299-.0082-.00872-.0151-.01621-.0195-.01131-.0032-.04854 0-.04854.0195 0 .0194.03201.128.06795.1845.04054.0566.06795.1035.09547.1165.00864.0039.01846.0044.02746.0014.00901-.003.01654-.0093.02108-.0176.0032-.0081.01131-.068.00811-.2088-.0032-.1408-.00811-.2767-.01622-.2848-.00811-.0081-.04043-.008-.05173.0081-.01131.0161-.08417.1764-.08747.2007h.0001Z" fill="#585136"/><path fill-rule="evenodd" clip-rule="evenodd" d="M8.47254 12.6004s-.05665-.0357-.1117-.0113c-.05175.0243-.04855.1197-.04855.1197.01165.0046.02422.0062.03664.0048.01242-.0014.02431-.0058.03463-.0129.03563-.0242.08087-.0646.08898-.1002v-.0001Z" fill="#574F35"/><path fill-rule="evenodd" clip-rule="evenodd" d="M8.57924 12.7282c-.0032-.032-.032-.032-.032-.0486.00198-.0079.00656-.0149.013-.0199.00644-.005.01437-.0076.02252-.0076.01621 0 .032.0194.05184.032.01941.0113.04853.032.05173.0566.0032.0247-.032.0922-.07114.0922-.03915 0-.02752-.0728-.03563-.1052l-.00032.0005Zm.31232-.0438s-.06475.0194-.05995 0c.0048-.0194.01952-.0242.04054-.0242.01067-.0112.02503-.0181.04042-.0195.00881-.0004.01745.0025.02422.0081 0 0 .04373-.0194.05664-.0081.0129.0113.0033.0113.0113.0243.01019.0145.01687.0311.01952.0485 0 .013-.04853.0405-.08746.0357-.04523-.0097-.03723-.0567-.04523-.0648Zm.37696-.0728s.01941.0113.00331.0243c-.01131.0113-.06795.032-.11659.0356-.04853 0-.09216.008-.09216-.0081s.04043-.0485.06464-.0566c.00486-.0061.01103-.011.01804-.0144.00702-.0033.01471-.0051.02249-.005.01942 0 .09536-.0082.11648-.0114.01942-.0033.03563.008.02422.0243-.0048.0113-.04043.0113-.04043.0113Zm.11168-.4997s-.02432.0518-.05173.0518c-.02752-.0032-.02752-.0113-.02752-.0195 0-.0113.02752-.0404.02421-.0485-.008 0-.02752 0-.02421-.0194 0-.0162.02752-.0356.05173-.032.0183-.015.04108-.0236.06475-.0242.02752 0 .05173.008.05173.0242s-.032.0517-.04373.0599c-.01291.013-.02912.0214-.04523.008v-.0003Zm-.36896.9563s-.032.0033-.032.0194c0 .0081.008.0081.01941.0033.00658-.0003.01309-.0014.01942-.0033.0032.0033.0032.0195.02752.0195.01997-.0027.03921-.0093.05664-.0195.01941-.008.03562-.0162.03562-.032-.0081-.0275-.02432-.0405-.04853-.0405-.01241-.0008-.02478.002-.03563.0081 0 0-.0081-.0162-.03562 0s-.02432.0162-.01622.0243c.01451.0129.00971.0214.00971.0214l-.00032-.0007Zm-.18283.1684c0-.0082.04043-.0244.05174-.0195.0113.0032.04362.0647.04362.0712 0 .0081-.04042.0275-.05664.0275-.01621 0-.04362-.0275-.04362-.032 0-.0032.01941-.008.01941-.0113.0048-.008-.01451-.0275-.01451-.0356v-.0003Zm-.128-.2363c.00811-.0032.00811-.0113.01942-.0194.00354-.0024.00757-.0039.01179-.0045.00421-.0005.0085-.0001.01253.0013.00285-.0051.0068-.0095.01156-.0129.00476-.0034.01021-.0056.01596-.0067.01941-.0032.03562 0 .032.0081 0 .0244.01621.0405.01621.0599s-.01131.0437-.05173.0599c-.04043.0113-.09547.0113-.10358.0081-.0081-.0032-.01621-.0356-.0081-.0518.0081-.0162.03072-.0339.04373-.042h.00021Z" fill="#82764F"/><path fill-rule="evenodd" clip-rule="evenodd" d="M8.75211 13.0113s-.02754.0162-.02754.0243c-.00244.0078-.00352.016-.0032.0242 0 .0048.03565-.0032.04045-.0081.0016-.0032-.00971-.032-.00971-.0404Z" fill="#6E6342"/><path fill-rule="evenodd" clip-rule="evenodd" d="M8.51124 12.9353c.0161.0033.04362 0 .06463.0081.01621.0081.02752.0243.01131.0437-.01621.0194-.032.0485-.06794.0436-.04043-.0032-.07925-.0242-.07925-.0404-.00068-.0103.00069-.0205.00402-.0303.00333-.0097.00856-.0186.01539-.0263.01621-.0129.02421-.0048.05173.0016h.00011Z" fill="#585136"/><path fill-rule="evenodd" clip-rule="evenodd" d="M8.49184 12.9515s-.05174.0404-.06475.0599c-.01621.0194-.09547.1197-.11969.1407.00805-.0142.01721-.0277.02742-.0404-.032.0205-.05599.0513-.06795.0874-.01941.0599.10848.0922.19254.1165.08406.0244.11659.032.11659.032-.03094-.0465-.05751-.0957-.07936-.1472-.032-.076-.04854-.0841-.02752-.1197.01621-.0357.04053-.0599.04053-.0874-.0097-.0256-.01781-.0418-.01781-.0418Z" fill="#574F35"/><path fill-rule="evenodd" clip-rule="evenodd" d="M6.64719 13.0793c.01177.0022.02385.0022.03562 0 .02422-.0033.27669-.096.54048-.0793.19747.0119.3932.0441.5841.096.33173.0874.74432.2605 1.0113.3593.07115.0274.1408.076.192.0953.20395.0794.21195.0794.33173.1004.1408.0194.2848-.0275.43531-.0598.18442-.0406.49997-.06.77667-.1004.0894-.0124.1777-.0324.2637-.0599 0 0-.22.2201-.7476.2994-.21322.0323-.42992.0351-.64392.0081-.16832-.0162-.27989-.0406-.36405-.0648-.09546-.0275-.2913-.1004-.53237-.16-.16832-.0437-.35605-.076-.5712-.1165-.53077-.0972-1.10676-.2087-1.31199-.3171l.00022-.0007Z" fill="#252211"/><path fill-rule="evenodd" clip-rule="evenodd" d="M6.05169 12.0793c-.128.1084-.26379.212-.39637.3123l-.39968.3071c-.13589.1002-.26859.2038-.40458.3042-.136.1003-.27179.1957-.416.288.128-.1084.26378-.2088.39968-.3074.13589-.0987.27679-.1955.40789-.2955l.39967-.3075c.1375-.1003.27019-.2039.40939-.3009v-.0003ZM5.3446 13.212s.144-.1197.32362-.288c.22326-.2086.49675-.4757.58411-.5241l-.90784.8122.00011-.0001Z" fill="#CFB66C"/><path fill-rule="evenodd" clip-rule="evenodd" d="M5.3446 13.2119c.07126-.0711.14731-.1407.22336-.2087l.11648-.1003c.03563-.032.07616-.0679.11168-.1036.07115-.0711.1408-.1473.21195-.22.03526-.0366.07255-.0712.11168-.1036.01956-.0173.04129-.032.06464-.0437.01952-.0113.04053-.032.06795-.0356-.01611.0243-.03552.0356-.05174.0566-.01941.0162-.03562.0356-.05173.0517-.03563.0357-.07605.068-.11168.1004-.07605.0648-.15531.128-.23136.1957-.07605.0678-.1472.1408-.22336.2088-.08245.0696-.15851.1376-.23787.2027v-.0004Zm.96768-.6472s-.52746.5162-.63594.6003l.63594-.6003Z" fill="#CFB66C"/><path fill-rule="evenodd" clip-rule="evenodd" d="M6.31234 12.5647c-.04745.0549-.09833.1068-.15232.1553l-.16.1521c-.05174.0517-.10037.1036-.15531.1553-.05664.0486-.10837.096-.16832.1408l.15531-.1521c.05184-.0517.10848-.0953.16352-.1472l.1553-.1521c.05334-.0533.10518-.1052.16182-.1521Zm.02421.2799c-.04862.1357-.10591.2681-.17152.3965-.13589.2719-.33973.6116-.4288.7848l.60032-1.1813Z" fill="#CFB66C"/><path fill-rule="evenodd" clip-rule="evenodd" d="M6.33651 12.8447c0 .0598-.01621.1116-.03562.1634-.01893.0518-.0405.1025-.06464.1521-.02432.0485-.05184.1004-.07936.1473-.02752.0469-.05984.0954-.08416.144l-.16342.288c-.05664.096-.11168.1925-.17152.2848.04043-.1036.09547-.2006.14731-.2961.05664-.096.10837-.192.16-.2913.02521-.0495.04788-.1002.06795-.152.02421-.0519.04842-.1004.06794-.1473.02422-.0518.04363-.1004.06795-.1472.02741-.0503.05013-.0988.08736-.1457h.00021Z" fill="#CFB66C"/><path fill-rule="evenodd" clip-rule="evenodd" d="M6.91258 14.1715s-.16.212-.144.4805c.04363-.1407.09867-.3559.144-.4805Zm.1521.2125s-.05664.576-.10357.8592c.06635-.3274.07925-.2999.10357-.8592Zm1.05983.8932s-.23947.704-.24437.8996c.05184-.2011.1521-.6121.24437-.9001v.0005Z" fill="#DEC270"/><path fill-rule="evenodd" clip-rule="evenodd" d="M8.68457 14.128s.38837.6407.67968 1.1876c-.07883-.2752-.26016-.7799-.67968-1.1876Z" fill="#CBAF59"/><path fill-rule="evenodd" clip-rule="evenodd" d="M9.72827 15.0712c.21324.377.40553.7653.57603 1.1634-.0323-.2751-.1198-.7459-.57603-1.1634Z" fill="#E3C677"/><path fill-rule="evenodd" clip-rule="evenodd" d="M12.796 16.0159c.0647-.0404.1926-.2606.3042-.3155.1116-.0566.1958-.0679.2961-.1796.1003-.1166.128-.1877.3479-.2799.3075-.1328.096-.3043.096-.3043.0339-.0333.0701-.0641.1084-.0922.0793-.0598.1715-.1327.1635-.2606-.0113-.2151-.0518-.5274-.2282-.7087.1715-.0356.5-.0598.704-.1115.2362-.06.3446-.1441.3446-.1441s-.1358-.2314.0842-.4644c.2201-.2329.3997-.3721.5324-.6327-.1521-.0194-.384-.1003-.9758.1246.0319.015.0628.0323.0923.0517 0 0-.3641.1004-.4968.2121-.2314.1957-.2606.3559-.5113.4757-.2508.1198-.5033.0874-.7119.1844-.2087.0971-.2395.1796-.3157.2153.0163.0194-.0032.0517.0276.0792-.0194.0275-.1327.212-.2476.212.0113.0437.1084.076.1084.076s-.0712.0519-.2524.0648c.0922.096.1796.2006.4207.3527-.0194.0404-.1004.1004-.068.1764.0357.0761.128.1797.4968.2638-.1877.008-.4077.0518-.704.0113-.2961-.0356-.3446-.0566-.5275-.0113.0194.0194.0712.0194.1165.0712-.0485.0032-.3527-.0356-.4563.1004-.1084.1406-.1553.3721-.1472.5274-.0567.0275-.1117.0761-.0842.1764.0275.1004.1715.1327.2638.1958.0922.0679.1003.0921.1877.076.0922-.0194.2281-.1115.3075-.1115.0793 0 .1359.0598.1359.0598s.2152-.1036.2362-.0842c.0194.0195.0032.144.0242.1635.0214.0146.2638-.1294.3286-.17h-.0006Z" fill="#ECD592"/><path fill-rule="evenodd" clip-rule="evenodd" d="M17.5001 9.54053c-1.0113-2.61162-3.5113-3.09546-3.5113-3.09546H6.85606l.02752 2.66016h1.42048v5.94017h-1.4481v2.6553h6.93534c1.6715 0 3.0113-1.6796 3.0113-1.6796 2.1456-3.0453.6974-6.48057.6974-6.48057h.0001Zm-3.6716 4.69087s-.544.7849-1.1358.7849h-1.184l-.0281-5.90457h1.5195s.704.14721 1.1958 1.54037c0 0 .6521 1.9947-.3674 3.5793Z" fill="#fff" fill-opacity=".8"/></svg>