<svg width="24" height="24" viewBox="0 0 24 24" fill="none" xmlns="http://www.w3.org/2000/svg"><g clip-path="url(#clip0_111_752)"><path d="M13.3359 9.79845 10.8586 11.225c-.0314.0181-.0575.0441-.0754.0756-.018.0314-.0273.0671-.0269.1033v1.1969c-.0004.0354.009.0702.027.1006.0181.0304.0441.0554.0753.072l1.0375.5985c.0295.0187.0638.0287.0988.0287s.0693-.01.0989-.0287l4.2812-2.4656c.7266-.4204.7266-1.63129 0-2.0516l-3.8477-2.21563c-.1605-.09697-.3444-.14823-.532-.14823-.1875 0-.3715.05126-.532.14823L7.61641 8.85548c-.16424.09176-.30084.22593-.39553.3885-.09468.16257-.14398.34758-.14275.53572 0 1.4844.00625 2.9617 0 4.4391-.00154.1878.04729.3726.14141.5351.09412.1626.23008.2969.39375.3891l3.84691 2.2226c.1615.094.3451.1436.532.1436s.3705-.0496.532-.1436l3.8508-2.2226c.1633-.0921.2986-.2266.3917-.3893.0931-.1627.1405-.3475.1372-.5349v-1.9297l-4.5797 2.65c-.1002.0594-.2147.0908-.3312.0908-.1166 0-.231-.0314-.3313-.0908l-2.04529-1.1852c-.10165-.057-.18606-.1403-.24435-.2412-.05829-.1009-.08831-.2157-.0869-.3322V10.818c-.00051-.1147.02918-.2275.0861-.3271.05691-.0995.13904-.1824.23812-.2401.68202-.39532 1.36952-.78985 2.05152-1.18516.1004-.05908.2148-.09024.3313-.09024.1165 0 .2308.03116.3312.09024l1.0157.57968c.0131.00816.0239.01959.0312.03317.0074.01358.0111.02884.0108.04428-.0003.01545-.0047.03055-.0126.04381-.0079.01327-.0191.02425-.0326.03187Z" fill="#fff"/><path d="M12 4.91565c-1.4012 0-2.77085.41549-3.93587 1.19393-1.16502.77844-2.07304 1.88487-2.60924 3.17937-.5362 1.29455-.6765 2.71895-.40314 4.09315.27335 1.3743.94807 2.6366 1.93884 3.6273.99076.9908 2.25308 1.6655 3.62731 1.9389 1.3742.2733 2.7987.133 4.0932-.4032 1.2945-.5362 2.4009-1.4442 3.1793-2.6092.7785-1.165 1.194-2.5347 1.194-3.9359 0-.9303-.1833-1.8515-.5393-2.71105-.356-.85951-.8779-1.64049-1.5357-2.29833-.6578-.65785-1.4388-1.17968-2.2983-1.5357-.8595-.35603-1.7808-.53927-2.7111-.53927Zm1.3359 4.72969-1.0156-.57969c-.1004-.05908-.2148-.09023-.3312-.09023-.1165 0-.2309.03115-.3313.09023-.682.39531-1.3695.78985-2.05155 1.18515-.09909.0578-.18121.1406-.23813.2402-.05691.0995-.08661.2123-.08609.327v2.3625c-.00141.1165.02861.2313.0869.3322.05829.1009.1427.1842.24435.2412l2.04452 1.1852c.1003.0595.2147.0909.3313.0909.1165 0 .231-.0314.3312-.0909l4.5797-2.65v1.9297c.0037.187-.0431.3716-.1355.5342-.0924.1627-.227.2974-.3895.39l-3.8469 2.2227c-.1615.094-.3451.1435-.532.1435s-.3705-.0495-.532-.1435L7.6164 15.143c-.16424-.0918-.30084-.2259-.39552-.3885-.09469-.1626-.14399-.3476-.14276-.5357.00625-1.4774 0-2.9555 0-4.43908-.00154-.18783.04729-.37263.14141-.53517.09412-.16255.23009-.29689.39375-.38905l3.84692-2.21641c.1605-.09698.3444-.14823.532-.14823.1875 0 .3715.05125.532.14823L16.375 8.8555c.7266.42031.7266 1.6312 0 2.0516l-4.2813 2.4648c-.0295.0188-.0638.0287-.0988.0287s-.0693-.0099-.0988-.0287l-1.0375-.5984c-.0312-.0167-.0572-.0416-.0753-.0721-.018-.0304-.0274-.0652-.0271-.1006v-1.1969c-.0003-.0362.009-.0719.0269-.1033.018-.0314.0441-.0575.0755-.0756l2.4773-1.42654c.0133-.00788.0243-.01909.0319-.03251.0077-.01343.0117-.0286.0117-.04405 0-.01544-.004-.03062-.0117-.04404-.0076-.01342-.0186-.02463-.0319-.03252Z" fill="#fff"/><path d="M11.9999 2c-1.9778 0-3.91117.58649-5.55566 1.6853-1.64449 1.09882-2.92622 2.6606-3.68309 4.48787-.75688 1.82723-.95491 3.83793-.56906 5.77773s1.33826 3.7216 2.73679 5.1202c1.39852 1.3985 3.18035 2.3509 5.12012 2.7368 1.9399.3858 3.9505.1878 5.7778-.5691 1.8272-.7569 3.389-2.0386 4.4878-3.6831 1.0989-1.6445 1.6853-3.5779 1.6853-5.5557 0-2.65216-1.0535-5.1957-2.9289-7.07107C17.1957 3.05357 14.6521 2 11.9999 2Zm1.336 7.64531-1.0156-.57968c-.1004-.05908-.2148-.09024-.3313-.09024-.1165 0-.2308.03116-.3312.09024-.6821.39531-1.3696.78984-2.05161 1.18517-.09908.0577-.18121.1406-.23812.2401-.05691.0996-.08661.2124-.08609.3271v2.3625c-.00141.1165.02861.2313.0869.3322.05829.1009.1427.1842.24435.2412l2.04457 1.1852c.1002.0594.2146.0908.3312.0908.1166 0 .231-.0314.3313-.0908l4.5796-2.65v1.9297c.0038.187-.043.3716-.1354.5342-.0924.1627-.227.2974-.3896.39l-3.8468 2.2226c-.1616.094-.3452.1436-.5321.1436s-.3704-.0496-.532-.1436L7.61635 15.143c-.16424-.0918-.30084-.226-.39553-.3885-.09468-.1626-.14398-.3476-.14275-.5357.00625-1.4774 0-2.9555 0-4.43911-.00154-.18782.04729-.37262.14141-.53517.09412-.16254.23008-.29689.39375-.38905l3.84687-2.21641c.1605-.09697.3445-.14823.532-.14823.1876 0 .3715.05126.5321.14823l3.8507 2.21641c.7266.42031.7266 1.63123 0 2.05153l-4.2812 2.4649c-.0296.0187-.0638.0287-.0988.0287s-.0693-.01-.0989-.0287l-1.0375-.5985c-.0312-.0167-.0572-.0416-.0752-.072-.0181-.0304-.0274-.0652-.0271-.1006v-1.1969c-.0004-.0362.0089-.0719.0269-.1033.018-.0315.044-.0576.0754-.0756l2.4774-1.42656c.0133-.00789.0243-.0191.0319-.03252.0076-.01342.0116-.0286.0116-.04405 0-.01544-.004-.03062-.0116-.04404-.0076-.01342-.0186-.02463-.0319-.03252Z" fill="url(#paint0_linear_111_752)"/></g><defs><linearGradient id="paint0_linear_111_752" x1="-5.12662" y1="-8.55234" x2="28.782" y2="32.1383" gradientUnits="userSpaceOnUse"><stop stop-color="#273498"/><stop offset=".53" stop-color="#0074C2"/><stop offset="1" stop-color="#00ABE7"/></linearGradient><clipPath id="clip0_111_752"><path fill="#fff" d="M2 2h20v20H2z"/></clipPath></defs></svg>