<svg width="24" height="24" viewBox="0 0 24 24" fill="none" xmlns="http://www.w3.org/2000/svg"><path d="M22.0803 12c0-5.52285-4.4771-10-10-10-5.52282 0-9.99998 4.47715-9.99998 10 0 5.5228 4.47716 10 9.99998 10 5.5229 0 10-4.4772 10-10Z" fill="#5378DF"/><path d="M16.6275 8.04638c.3915-.00507.7816.04691 1.1576.15427.0539.01077.1044.03392.1474.06755.1649.0989.2829.25852.3279.44345.045.18493.0132.37989-.0884.54165-.1371.20165-.3418.22383-.5578.22383H15.824c.0919.22211.1579.45383.1965.69067.045.2581.0686.5273.1023.7966v.4607h1.4146c.1066-.004.2134.0034.3184.0222.2497.0454.3971.1795.4094.4144v.6715c-.0113.235-.1597.3701-.4094.4155-.105.0188-.2118.0262-.3184.0221h-1.433v.4578c-.0348.2682-.0573.5374-.1023.7945-.041.2402-.1097.4749-.2048.6998h1.8159c.2159 0 .4207.0221.5578.2248.1016.1621.1335.3573.0885.5426-.0449.1853-.163.3452-.328.4445-.0428.034-.0928.0581-.1464.0706-.3776.1082-.7695.1609-1.1628.1563l-.1575.0032-.3152.0059c-1.3133.0231-2.6152.0282-3.6063.0291l-.2317.0001h-.1111c-1.3307 0-3.11682-.0192-4.4659-.0464-.39195.0046-.78243-.048-1.1587-.1563-.0537-.0112-.10411-.0343-.14739-.0675-.1651-.0987-.2833-.2584-.32828-.4434-.04499-.185-.01303-.38.08876-.5417.13614-.2017.34085-.2238.55683-.2238h1.79229c-.09199-.2222-.15792-.4539-.19653-.6907-.04606-.2581-.06858-.5274-.10236-.7966v-.4648H6.82463c-.10661.0041-.21336-.0034-.31833-.0222-.24975-.0443-.39715-.1784-.40943-.4144v-.6705c.01126-.2359.15865-.37.40943-.4154.10767-.0193.21718-.0267.32652-.0222h1.43301v-.4618c.03378-.2692.0563-.5374.10236-.7955.04003-.24005.10875-.47459.20472-.69874H6.74889c-.21598 0-.42172-.02319-.55785-.22485-.10198-.16187-.13415-.35713-.08937-.54246.04478-.18533.1628-.34538.32786-.44465.04355-.03345.09433-.05657.14842-.06755.37763-.10618.76911-.15681 1.16176-.15024l.1576-.00322.31542-.0059c1.31394-.02312 2.61597-.02823 3.60707-.02905L12.1626 8c1.3307 0 3.1168.01815 4.4649.04638Zm-2.474 4.92442-3.92.0002c-.206.0014-.2044.0197-.1836.258.0078.2375.0383.4738.0911.7058.0893.4059.4082.7247.8189.8187.3679.0952.7457.1479 1.1259.1573.4378-.0004.8738-.0546 1.2979-.1614.4102-.0936.729-.4115.8189-.8167.0529-.2319.0834-.4682.0911-.7058.0174-.2178.0184-.248-.1402-.2561Zm-1.8773-3.48862c-.4357.00105-.8697.05558-1.2917.16233-.4102.09362-.729.41159-.8189.81669-.052.2321-.0824.4683-.0911.7058-.0184.2178-.0205.2511.1382.2561l3.921-.0001c.2059-.0014.2043-.0197.1835-.258-.0103-.238-.0425-.4746-.0962-.7068-.0902-.4056-.4086-.7243-.8188-.81974-.3679-.09503-.7458-.14748-1.126-.15628Z" fill="#fff"/></svg>