<svg width="24" height="24" viewBox="0 0 24 24" fill="none" xmlns="http://www.w3.org/2000/svg"><path d="M5.29275 10.0914c.19765.4225.68684 1.2576.68684 1.2576L11.6349 2 6.11548 5.85423c-.32888.21941-.59871.51638-.78567.86473-.25138.52553-.38495 1.09961-.39135 1.68213-.0064.58252.11451 1.15941.35429 1.69031Z" fill="url(#paint0_linear_8_80)"/><path d="M3.05188 13.1698c.06232.8943.31498 1.7649.74108 2.5536.42609.7887 1.01578 1.4773 1.72958 2.0196l6.10496 4.2569s-3.8196-5.5046-7.04134-10.9821c-.32617-.5786-.54544-1.21135-.64731-1.86778-.0451-.29725-.0451-.5996 0-.89685-.08401.15566-.24707.47437-.24707.47437-.32667.66624-.54915 1.37866-.65967 2.11246-.06361.7756-.05699 1.5554.01977 2.3298Z" fill="#A0A8D4"/><path d="M18.6269 13.9086c-.1976-.4225-.6868-1.2576-.6868-1.2576L12.2847 22l5.5195-3.8518c.3289-.2194.5987-.5164.7857-.8647.2517-.5259.3855-1.1004.3919-1.6834.0064-.5829-.1147-1.1603-.3549-1.6915Z" fill="url(#paint1_linear_8_80)"/><path d="M20.8678 10.8301c-.0623-.89423-.315-1.76487-.7411-2.55357-.4261-.78871-1.0158-1.47727-1.7296-2.01958L12.2921 2s3.8172 5.50463 7.0414 10.9821c.3253.5788.5438 1.2115.6449 1.8678.0451.2973.0451.5996 0 .8969.084-.1557.247-.4744.247-.4744.3267-.6662.5492-1.3787.6597-2.1124.0644-.7756.0586-1.5554-.0173-2.3299Z" fill="#A0A8D4"/><path d="M5.32983 6.71896c.18696-.34835.45678-.64532.78567-.86473L11.635 2l-5.65539 9.3515s-.49413-.8351-.68684-1.2576c-.24015-.53127-.36127-1.1086-.35486-1.69158.0064-.58297.14016-1.1575.39192-1.68336ZM3.05188 13.1699c.06232.8942.31498 1.7649.74108 2.5536.42609.7887 1.01578 1.4772 1.72958 2.0196L11.6275 22s-3.8196-5.5046-7.04134-10.9821c-.32617-.5787-.54544-1.21138-.64731-1.86781-.0451-.29725-.0451-.5996 0-.89685-.08401.15566-.24707.47437-.24707.47437-.32667.66624-.54915 1.37869-.65967 2.11239-.06361.7756-.05699 1.5554.01977 2.3299Zm15.56512.7412c-.1976-.4225-.6868-1.2576-.6868-1.2576L12.2847 22l5.5195-3.8518c.3289-.2194.5987-.5163.7857-.8647.2517-.5258.3855-1.1004.3919-1.6834.0064-.5829-.1147-1.1603-.3549-1.6915l-.0099.0025Zm2.2409-3.0785c-.0623-.89426-.315-1.7649-.7411-2.5536s-1.0157-1.47727-1.7295-2.01958L12.2921 2s3.8172 5.50463 7.0414 10.9821c.3253.5788.5438 1.2115.6449 1.8678.0451.2973.0451.5996 0 .8969.084-.1557.247-.4744.247-.4744.3267-.6662.5492-1.3787.6597-2.1124.0644-.7756.0586-1.5554-.0173-2.3299l-.0099.0025Z" fill="url(#paint2_linear_8_80)" style="mix-blend-mode:color"/><defs><linearGradient id="paint0_linear_8_80" x1="11.882" y1="2.22977" x2="4.6232" y2="10.0988" gradientUnits="userSpaceOnUse"><stop offset=".58" stop-color="#A0A8D4"/><stop offset=".73" stop-color="#8791C7"/><stop offset=".91" stop-color="#6470B4"/></linearGradient><linearGradient id="paint1_linear_8_80" x1="297.388" y1="776.089" x2="564.438" y2="568.771" gradientUnits="userSpaceOnUse"><stop offset=".58" stop-color="#A0A8D4"/><stop offset=".73" stop-color="#8791C7"/><stop offset=".91" stop-color="#6470B4"/></linearGradient><linearGradient id="paint2_linear_8_80" x1="11.9586" y1="1.90117" x2="11.9586" y2="22.0618" gradientUnits="userSpaceOnUse"><stop stop-color="#513EFF"/><stop offset=".18" stop-color="#5157FF"/><stop offset=".57" stop-color="#5298FF"/><stop offset="1" stop-color="#52E5FF"/></linearGradient></defs></svg>