<svg width="24" height="24" viewBox="0 0 24 24" fill="none" xmlns="http://www.w3.org/2000/svg"><path d="M6 12.9018c2.19965 1.1681 4.4949 2.3909 6.2677 3.337l6.2164-3.337c-2.2509 3.3438-4.1263 6.1276-6.2164 9.2085C10.1739 19.0362 7.86153 15.6441 6 12.9018Zm.23908-.9224 6.03542-3.22054 5.9568 3.19704-5.9534 3.2241-6.03882-3.2006Zm6.02862-4.25236L6 11.0265l6.2404-9.13673 6.2437 9.15723-6.2164-3.31996Z" fill="#3AB83A"/><path d="m12.2676 16.2388 6.2165-3.337c-2.2509 3.3438-6.2165 9.2085-6.2165 9.2085v-5.8715Zm.0068-7.47994 5.957 3.19704-5.9536 3.2241-.0034-6.42114Zm-.0068-1.03158-.0273-5.83751 6.2438 9.15723-6.2165-3.31972Z" fill="#0B8311"/><path d="m6.23932 11.9795 6.03578.4953 5.9568-.5158-5.9538 3.2243-6.03878-3.2038Z" fill="#0B8311"/><path d="m12.2747 12.4748 5.957-.5158-5.9536 3.2243-.0034-2.7085Z" fill="#146714"/></svg>