<svg width="24" height="24" viewBox="0 0 24 24" fill="none" xmlns="http://www.w3.org/2000/svg"><path d="M12.1253 2v7.36194c0 .03125-.0313.0625-.0625.0625-.2188.09554-.4063.19019-.6251.28483-.2812.1259-.5937.25269-.875.41073l-1.03129.4732-.84379.3795-1.0313.4742c-.28126.1267-.56252.2526-.87504.4107-.21875.0946-.46877.2214-.68753.3161-.03125 0-.03125.0312-.0625 0H6c.09375-.1581.18751-.2849.28126-.442.50002-.8536 1.0313-1.7063 1.53132-2.55995.53127-.91522 1.0938-1.83223 1.62507-2.74834.50003-.85271 1.00005-1.70543 1.50005-2.5269.375-.63306.7501-1.23219 1.0938-1.86526.0625 0 .0625-.03125.0938-.03125 0 0-.0313 0 0 0Z" fill="#8C8C8C"/><path d="M18.188 12.1737c-.4688.3161-.9688.6-1.4375.8839-1.5314.917-3.0314 1.8019-4.5628 2.718-.0312 0-.0312.0313-.0625.0313-.0312 0-.0312-.0313-.0312-.0313V9.42444c0-.03125.0312-.03125.0625-.03125.125.0625.25.12679.4063.18929.375.19019.7812.34823 1.1563.53752.3437.158.6562.3161 1 .442.3438.158.6563.3161 1.0001.4741.2812.1268.5937.2527.875.4108.2813.1267.5938.2526.875.4107.2188.0946.4376.2214.6876.3161 0-.0313 0 0 .0312 0Z" fill="#141414"/><path d="M12.1253 22c-.0312 0 0 0 0 0-.0312 0-.0312 0-.0625-.0321-.625-.884-1.2188-1.7376-1.8438-2.6225l-1.87512-2.6537c-.59377-.8527-1.2188-1.7054-1.81258-2.5911l-.46877-.6635c0-.0312-.03125-.0312-.03125-.0625.03125 0 .03125.0313.0625.0313.84379.5054 1.71883 1.0107 2.56262 1.5161.96879.6009 1.9688 1.1697 2.9376 1.7697.1563.0947.3438.1893.5001.284.0312 0 .0312.0321.0312.0634V22Z" fill="#8C8C8C"/><path d="M6 11.843c0-.0313 0-.0313 0 0 .31251-.1581.62503-.284.93754-.442l1.21881-.5688c.31251-.158.62502-.2839.93754-.442.43752-.2214.90631-.41069 1.34381-.63213.3125-.12679.625-.28483.9375-.41073.2188-.09465.4376-.1893.6563-.31609.0313 0 .0313-.03125.0625-.03125v6.4449c-.0312.0322-.0312 0-.0625 0-.0937-.0625-.1875-.0946-.25-.158l-5.719-3.4118C6.03125 11.843 6 11.843 6 11.843Zm12.0943 1.1697c0 .0312 0 .0312-.0313.0625-1.8125 2.5912-3.6251 5.1502-5.4377 7.7414-.1875.2839-.375.5366-.5625.8215v-5.0244c.4062-.2527.8125-.5053 1.2188-.7259l4.7814-2.8439c0-.0312.0313-.0312.0313-.0312Z" fill="#3C3C3B"/><path d="M12.1253 9.39317V2.03302l6.0003 10.04688c.0312.0312.0625.0625.0625.0946-.1251-.0625-.2501-.1267-.4063-.1892-.1563-.0634-.3125-.1581-.4688-.2215-.0937-.0312-.1875-.0946-.3125-.1268-.1563-.0625-.3438-.158-.5-.2205-.0938-.0322-.1875-.0947-.2813-.1268l-.6563-.284c-.125-.0634-.2187-.0946-.3437-.158-.1563-.0634-.3125-.158-.4688-.2214-.0938-.0313-.1875-.0947-.2813-.1259l-.6562-.2849c-.125-.0625-.2188-.0946-.3438-.158-.1563-.06252-.3125-.15806-.4688-.22145-.0937-.06251-.2187-.09465-.3125-.15715l-.5625-.28484v-.00089Z" fill="#343434"/></svg>