<svg width="24" height="24" viewBox="0 0 24 24" fill="none" xmlns="http://www.w3.org/2000/svg"><path d="M21.9206 9.52419c-.3163-1.18056-2.7855-3.85803-4.5833-6.06482-.0395-.05764-.091-.10609-.1509-.14204-.0599-.03595-.1269-.05856-.1963-.06629-.1775 0-.3241.17747-.2469.30864.0771.13117 1.7901 3.67284 1.4506 4.82253-.3395 1.14969-1.8982.93364-2.1451.93364-.2469 0-.0386.10031.108.2392.4634.39801.8331.89355 1.0825 1.45115.2495.5576.3726 1.1634.3604 1.7742v1.0725c2.0139-.1775 5.0772-1.3889 4.267-4.32871h.054Zm-14.02003.03086c.13889-.13889.24692-.2392.10031-.2392-.1466 0-1.8287.2392-2.15277-.93364-.32408-1.17284 1.41975-4.68364 1.48919-4.82253.00665-.03451.00629-.06999-.00104-.10436s-.0215-.06691-.04165-.0957c-.02015-.02878-.04588-.05323-.07566-.07188-.02978-.01865-.063-.03114-.0977-.0367h-.06944c-.17747 0-.31636.20833-.35494.20833-1.75926 2.18364-4.25926 4.88426-4.57562 6.06482-.7716 2.93981 2.31482 4.15121 4.29784 4.35961v-1.0726c-.005-.6179.12499-1.2294.38088-1.7918s.63151-1.06218 1.1006-1.46435Zm6.30403 3.88115c0 .0386 0 .0386-.0386.0695-.0386.0308 0 .0385-.0694.0385H9.93761v-.733c0-1.0031 1.23459-1.4892 2.19139-1.4892.9568 0 2.0756.4861 2.0756 1.4892v.625ZM12.129 9.06894c-2.15281 0-4.51392 1.24996-4.51392 3.71146v3.7422c0 2.4923 2.36111 3.6729 4.51392 3.7037.796.033 1.5879-.1298 2.3063-.4742.7184-.3444 1.3413-.8598 1.814-1.5011 0 0 0-.1003-.0385-.1389-.7716-.4166-1.1652-.6558-1.8982-1.0416-.0386 0-.0386 0-.0771.0386-.2504.3179-.5707.5738-.936.7477-.3654.174-.7659.2614-1.1705.2553-.9568 0-2.19139-.5864-2.19139-1.5895v-1.1111H15.879c.146.0021.287-.0534.3924-.1545.1054-.1011.1668-.2396.1708-.3856v-2.0602c0-2.4923-2.2222-3.70368-4.3287-3.74226" fill="#7AB200"/></svg>