<svg width="24" height="24" viewBox="0 0 24 24" fill="none" xmlns="http://www.w3.org/2000/svg"><circle cx="12" cy="12" r="10" fill="#24996E"/><path fill-rule="evenodd" clip-rule="evenodd" d="M12.2824 6.92328c.2145.16868.5903.73018.7993 1.14034.2154.42267.1624.69953-.1716.8963-.1175.06919-.2223.08132-.8102.09364-.7753.01621-1.0315-.02381-1.208-.18871-.1409-.13163-.1918-.34947-.1299-.55609.052-.17353.5009-.90489.7065-1.15087.2753-.32944.5513-.40897.8139-.23461Zm1.7351 3.52222c.1297.0585.2884.18.4177.3198.2055.222 2.1983 3.2661 2.4268 3.7072.3024.5836.097 1.0841-.5099 1.2422-.2047.0533-.7708.0613-4.352.0613-3.58115 0-4.14727-.008-4.35199-.0613-.59612-.1553-.80616-.6428-.5245-1.2175.17837-.364 2.19641-3.4588 2.41286-3.7003.22018-.2456.42351-.3712.68883-.4256.0909-.0186.9342-.0308 1.8742-.0271 1.7075.0067 1.7092.0068 1.918.1013Z" fill="#fff"/></svg>