<svg width="24" height="24" viewBox="0 0 24 24" fill="none" xmlns="http://www.w3.org/2000/svg"><mask id="mask0_11_24" style="mask-type:alpha" maskUnits="userSpaceOnUse" x="0" y="0" width="24" height="24"><path fill-rule="evenodd" clip-rule="evenodd" d="M0 0h24v24H0V0Z" fill="#fff"/></mask><g mask="url(#mask0_11_24)" fill-rule="evenodd" clip-rule="evenodd"><path d="M12 21.9996c-5.5 0-10-4.5-10-10.05.05-5.49998 4.5-9.99998 10.05-9.94998 5.5.05 9.95 4.5 9.95 10.09998-.05 5.45-4.5 9.9-10 9.9Z" fill="#0090FF"/><path d="m12.8974 10.856-.3077 1.563 2.9231.3908-.2051.7326-2.8718-.3907c-.2051.635-.3077 1.3188-.5641 1.9049-.2564.6838-.5128 1.3676-.8205 2.0026-.4103.8303-1.12822 1.4165-2.10258 1.563-.5641.0977-1.17949.0488-1.64103-.2931C7.15385 18.2315 7 18.0361 7 17.8895c0-.1953.10256-.4396.25641-.5372.10256-.0489.35897 0 .51282.0488.15385.1465.30769.3419.41026.5373.30769.3907.71795.4396 1.1282.1465.46154-.3907.71791-.928.87181-1.4653.3077-1.1723.6154-2.2957.8718-3.4679v-.1954l-2.71797-.3907.10257-.7327 2.8205.3908.359-1.5142-2.92309-.4396.10256-.7815 3.02563.39075c.1026-.29307.1539-.53729.2564-.78151.2564-.87918.5128-1.75837 1.1282-2.53988.6154-.7815 1.3334-1.26994 2.4103-1.22109.4615 0 .9231.14653 1.2308.48844.0512.04884.1538.14653.1538.24421 0 .19538 0 .4396-.1538.58613-.2052.14653-.4616.09769-.6667-.09769-.1539-.14653-.2564-.29306-.4103-.43959-.3077-.39075-.7692-.4396-1.1282-.09769-.2564.24422-.5128.58613-.6666.92803-.359 1.02573-.6154 2.10029-.9744 3.17489l2.8205.3907-.2051.7327-2.718-.3908Z" fill="#fff"/></g></svg>