<svg width="24" height="24" viewBox="0 0 24 24" fill="none" xmlns="http://www.w3.org/2000/svg"><path d="M12.0803 22c5.5229 0 10-4.4772 10-10 0-5.52285-4.4771-10-10-10-5.52282 0-9.99998 4.47715-9.99998 10 0 5.5228 4.47716 10 9.99998 10Z" fill="#00EF8B"/><path d="M16.4683 10.436h-2.824v2.824h2.824v-2.824ZM10.8223 14.318c0 .5854-.4746 1.06-1.05999 1.06-.58542 0-1.06-.4746-1.06-1.06s.47458-1.06 1.06-1.06h1.05999v-2.822H9.76231c-2.14397 0-3.882 1.738-3.882 3.882 0 2.1439 1.73803 3.882 3.882 3.882 2.14399 0 3.88199-1.7381 3.88199-3.882v-1.06h-2.822v1.06ZM14.7043 9.02401h3.176v-2.824h-3.176c-2.143.00221-3.8798 1.73895-3.882 3.88199v.354h2.822v-.354c.0011-.58463.4754-1.05799 1.06-1.05799Z" fill="#fff"/><path d="M10.8223 13.258h2.822v-2.822h-2.822v2.822Z" fill="#16FF99"/></svg>