<svg width="24" height="24" viewBox="0 0 24 24" fill="none" xmlns="http://www.w3.org/2000/svg"><path d="M12.0672 2.00006c1.9749.01324 3.9017.61098 5.5373 1.71782 1.6357 1.10684 2.907 2.67323 3.6536 4.50164.7466 1.82838.9351 3.83698.5417 5.77228-.3934 1.9354-1.3511 3.711-2.7523 5.1028-1.4011 1.3919-3.1831 2.3376-5.121 2.7181-1.938.3804-3.94524.1785-5.76861-.5803-1.82338-.7588-3.38123-2.0405-4.47712-3.6835C2.58489 15.9058 2.00004 13.9751 2 12.0001c.00897-2.66102 1.07463-5.20954 2.96257-7.0849 1.88794-1.87536 4.44352-2.92397 7.10463-2.91514Z" fill="#2B61D1"/><path d="m13.2601 17.8068-1.1467.6623-2.46338-1.4203 1.11868-.6459.028-.0163.043.0247 2.4204 1.3955ZM17.6622 8.85968v1.33292l-2.425-1.39999-.6577-.37964-.6577.37964-3.082 1.78029-.6577.3797v.7859l-1.18574-.6844-.65769-.3796-.65769.3796-1.11546.6434V8.85968l5.54798-3.20312 5.5487 3.20312Z" fill="#fff"/><path d="M17.6621 11.7092v3.5619l-3.082 1.7777h-.0039l-3.0788-1.7777v-3.5619l3.0827-1.78031 3.082 1.78031ZM10.111 13.2147v2.0466l-1.77314 1.0243-1.77249-1.0236v-2.0466l1.77315-1.0237 1.77248 1.023Z" fill="#fff"/></svg>