<svg width="24" height="24" viewBox="0 0 24 24" fill="none" xmlns="http://www.w3.org/2000/svg"><path d="M8.08867 4.201c4.30313-.00132 8.60663-.00132 12.91033 0 .0013 1.39096.0013 2.78167 0 4.17215-4.3033.00132-8.6067.00132-12.91033 0-.00132-1.39096-.00132-2.78167 0-4.17215Z" fill="#02A6C2"/><path d="M3.0054 9.94278c1.38831-.0072 2.77686-.0072 4.16566 0 .0072 1.38832.0072 2.77682 0 4.16562-1.38856.0072-2.77711.0073-4.16566.0004-.0072-1.3886-.0072-2.7773 0-4.16602Zm5.08643 0c3.10597-.0066 6.21167-.0066 9.31727 0 .0066 1.38832.0066 2.77682 0 4.16562-3.1059.0065-6.2117.0065-9.31727 0-.00648-1.3883-.00648-2.7769 0-4.16562Z" fill="#5FCADE"/><path d="M8.09574 15.6858c1.38598-.0151 2.77176-.0151 4.15726 0 .0144 1.3851.0146 2.7708.0006 4.1572-1.386.0136-2.7717.0134-4.15714-.0008-.0144-1.3849-.01464-2.7704-.00072-4.1564Z" fill="#ABEBF4"/></svg>