<svg width="24" height="24" viewBox="0 0 24 24" fill="none" xmlns="http://www.w3.org/2000/svg"><g clip-path="url(#clip0_111_756)" fill-rule="evenodd" clip-rule="evenodd" fill="#060606"><path d="M3 16.797c.24288.129.56167.3263.78937.4781.0835.057.17837.1063.26945.1632.04934.0304.0797.0456.12524.0759.02277.0152.04175.0304.06452.0418.02656.0152.04174.0227.06831.0379l2.9222 1.7989c.04174.0228.07969.0493.12524.0759l2.65277 1.6357c.0303.0189.0417.0227.0683.0417l1.2675.778c.057.0304.0797.0683.1443.0721v-9.9051l-.4023-.2315c-.038-.019-.0607-.0342-.0987-.0569l-.315-.1822c-.4478-.2353-.86526-.5237-1.31687-.759-.04555-.0228-.06073-.038-.11006-.0607l-.40228-.2315c-.09867-.0608-.54649-.3302-.62618-.3492v1.5636l1.64705.9525c.04555.0266.07591.0456.11765.0684.04559.0227.06829.0493.12519.0607v6.7059c-.28838-.1936-.59578-.3682-.89179-.5465l-.71727-.4441c-.29222-.1973-.60721-.3605-.89943-.554-.03416-.0228-.05313-.0304-.08729-.0532l-.63377-.3909c-.06831-.0379-.11765-.0683-.18217-.1138-.23149-.1556-.48197-.2922-.71726-.444-.06452-.0418-.11765-.0683-.18217-.1101-.34914-.2353-.72485-.4478-1.08159-.6641-.03036-.019-.05693-.038-.08349-.0569l-.27704-.1708V7.97344c-.05313-.03415-.10626-.06451-.16698-.09867-.06073-.03415-.10627-.06072-.16699-.09867l-.85389-.48577c-.06451-.03415-.11385-.0721-.17457-.10246V16.797ZM12.3169 12.0759v3.8065l.5047-.2846c.2315-.1215.4441-.2695.6756-.3909.0417-.0228.0569-.0304.0872-.0532.0304-.0189.0608-.0303.0911-.0455v-2.2429c.0456-.0114.0607-.019.0949-.0417.0342-.0228.0569-.0304.0911-.0494.1783-.1024.3529-.2239.5351-.315.2467-.1214.482-.2732.7173-.4136.0607-.0342.11-.0645.1745-.1025l.3568-.2011c.0379-.0228.0493-.0304.0872-.0532.1556-.0797.2999-.1859.4592-.2694l.1746-.1025c.0304-.019.0607-.0303.0911-.0455l1.1651-.6755c.2467-.1291.4744-.2847.7173-.4137l.3605-.21253c.1214-.07211.2391-.13663.3605-.21253.0645-.03795.1177-.06451.1746-.10246l.1897-.10627v6.49339c-.0531.0114-.0683.0303-.1138.0569l-.334.2049c-.0341.0228-.0607.0418-.1024.0683-.0456.0266-.0759.0494-.1139.0722-.0417.0227-.0645.0417-.1063.0645l-.3377.2011c-.3036.1746-.5882.3719-.8919.5465l-.888.5503c-.0417.0265-.0645.0379-.1063.0645-.3984.2694-.8235.4934-1.2258.7552-.0721.0493-.148.0911-.2201.1366l-1.1119.6831c-.0342.019-.0721.0418-.1063.0646-.3302.2163-.6755.4022-1.0057.6186l-.4516.277V22c.0759-.0189.1973-.11.2657-.1518.091-.0569.1783-.1024.2694-.1632.2543-.1707.5313-.3112.7856-.4819.0493-.0304.0873-.057.1328-.0835l.6717-.4137c.0456-.0266.0797-.0493.1253-.0759l3.5749-2.2011c.0494-.0304.0911-.057.1328-.0835l2.3871-1.4687c.0456-.0304.0911-.0569.1367-.0797V7.20306c-.0683.01518-.0797.03795-.1329.06831-.0493.02657-.0834.04555-.129.07211l-.7932.4592c-.2694.14422-.5199.32258-.7931.45921L16.8216 9.4839c-.0948.05313-.1707.10247-.2618.1556l-.3909.2277c-.2771.1404-.6793.3795-.9336.5389-.0455.0304-.0835.0417-.129.0721l-.8615.501c-.038.0189-.0304.0189-.0683.0417l-.2695.148c-.1594.0835-.2998.186-.4592.2695-.0379.0189-.0379.0265-.0683.0417l-.2694.148c-.1784.0873-.649.4175-.7932.4478ZM3.52751 6.55028c.05314.01139.0835.04175.13283.06832.17837.09487.33776.20872.51993.29981l1.44212.83491c.68691.41746 1.40038.78937 2.09108 1.20683l.12904.07211c.04933.02656.08349.04933.12903.0721l.78558.45541c.03415.01898.03036.01898.05692.03416.36813.22391.75522.41367 1.11955.64517l1.16891.6717c.0455.0266.0797.0494.1252.0759.1366.0835.6262.3795.6755.3795.0721 0 .4896-.2656.5959-.3301l.2049-.1215c.0683-.0417.129-.0683.1973-.11.0721-.0418.1253-.0722.1974-.1139l.3985-.2353c.0683-.0417.129-.0721.1935-.1138L14.2941 10c.038-.01898.0645-.03795.0987-.05693.0341-.02277.0569-.03415.0987-.05692l.4022-.2315c.0646-.03795.1367-.09488.2126-.11385-.0114-.04554-.019-.04175-.057-.06452l-1.2865-.74004c-.5123.26945-.9981.58444-1.5066.86148-.0418.02277-.0759.04554-.1139.07211-.0797.04934-.1518.09108-.2353.13662l-.7742-.44782c-.2694-.13662-.5161-.31499-.7855-.4554-.0608-.03416-.1215-.07211-.1746-.10247l-1.57118-.90323c-.03036-.01897-.05693-.03415-.08729-.05313-.03415-.02277-.05692-.03036-.09108-.04933L6.41177 6.63378c-.03795-.02277-.04175-.03416-.09488-.04554.04174-.06073.09108-.06452.15939-.10627.05693-.03795.11006-.05692.17078-.09108l1.74953-.94497c.03795-.02277.03795-.02657.0759-.04554.03795-.01898.05692-.02657.09108-.04934.06072-.03795.12144-.06451.18216-.09487L10.9279 4.0797c.0379-.01898.0493-.03036.0873-.05313l.888-.47439c.0494 0 .7211.39089.8767.47059.0379.01898.0645.03036.1025.05313.0455.02657.0569.03795.11.06072l2.4137 1.30171c.2125.13283.8577.47059 1.0854.58444.258.12903.5047.28463.7628.41366l1.4345.77799c.0493.02657.0645.03416.1101.06072.1707.10247.1745.01518.4516-.13662l.5123-.29222c.0911-.04934.4364-.26945.5161-.28843-.0151-.04933-.0607-.06831-.1062-.09487l-.5199-.28463c-.2619-.13283-.5238-.29602-.7856-.42125l-.5199-.28463c-.1784-.09109-.3568-.17458-.5238-.28084l-2.6224-1.41556c-.0531-.02656-.0834-.04174-.129-.07211l-1.055-.56926c-.0494-.02656-.0797-.04554-.1291-.0721-.0265-.01518-.0379-.01898-.0607-.03036l-1.3852-.75143C12.3548 2.2277 11.9488 2 11.8994 2c-.0417 0-.3339.17457-.3984.20493L8.49905 3.82922c-.04933.02277-.08728.04175-.13282.06831L6.26376 5.03226c-.04934.02656-.07211.04554-.12903.0721l-.18976.10247c-.03795.01898-.03795.02657-.06831.04175-.04174.02656-.08729.03795-.13283.06831l-.40227.21632c-.05313.02656-.0797.04933-.12904.0721l-.611.33397c-.02277.01138-.02277.00759-.04175.01897-.08728.04934-.17837.0835-.26186.14042-.04933.03036-.07969.04175-.13282.06831l-.58824.32638c-.04554.02656-.03416.00379-.04934.05692Z"/></g><defs><clipPath id="clip0_111_756"><path fill="#fff" d="M3 2h17.7989v20H3z"/></clipPath></defs></svg>