<svg width="24" height="24" viewBox="0 0 24 24" fill="none" xmlns="http://www.w3.org/2000/svg"><path d="m9.83663 11.8431-.17357-.1742c-.02918-.0294-.06643-.0494-.10701-.0576-.04059-.0082-.08269-.0041-.12095.0117-.03827.0158-.07098.0426-.09397.077-.023.0345-.03526.075-.03521.1164v2.4899c.00005.0275.00551.0547.01608.08.01056.0254.02602.0484.04549.0678.01948.0193.04258.0347.06798.0451.02541.0104.05262.0158.08009.0157h2.49034c.0415.0003.0822-.0118.1168-.0348.0346-.0229.0615-.0557.0773-.0941.0158-.0384.0198-.0807.0114-.1213-.0083-.0407-.0287-.0779-.0584-.107-.0389-.0391-.0608-.0921-.0608-.1473 0-.0552.0219-.1082.0608-.1473l2.6492-2.6564c.0194-.0193.0348-.0423.0453-.0676.0104-.0254.0158-.0525.0158-.0799s-.0054-.0545-.0158-.0798c-.0105-.0253-.0259-.0483-.0453-.0677l-.2414-.2403c-.0295-.0291-.0497-.0664-.058-.107-.0083-.0407-.0042-.0829.0116-.1212.0158-.0383.0428-.0711.0773-.0941.0345-.0229.0751-.0351.1166-.0349h2.4892c.0554 0 .1085.022.1478.0611.0392.0391.0613.0921.0615.1475v2.49c-.0001.0413-.0125.0816-.0355.116-.023.0343-.0557.061-.0939.0768-.0382.0157-.0802.0199-.1207.0118-.0405-.0081-.0778-.0279-.107-.0571l-.1682-.1675c-.019-.0199-.0419-.0357-.0672-.0466-.0252-.0108-.0525-.0163-.08-.0163-.0275 0-.0547.0055-.08.0163-.0253.0109-.0481.0267-.0671.0466l-4.4642 4.4641c-.0394.0388-.0924.0606-.1477.0606-.0552 0-.1083-.0218-.1476-.0606l-5.46421-5.4641c-.01953-.0194-.03502-.0424-.0456-.0678-.01057-.0254-.01602-.0526-.01602-.0801 0-.0275.00545-.0547.01602-.0801.01058-.0253.02607-.0484.0456-.0677l7.56521-7.56201c.0388-.03936.0605-.0924.0605-.14767s-.0217-.10832-.0605-.14768L12.148 2.06121c-.0393-.03897-.0923-.06084-.1477-.06084-.0553 0-.1084.02187-.1476.06084L2.06108 11.8539c-.03897.0392-.06084.0923-.06084.1476 0 .0554.02187.1084.06084.1477l9.79162 9.7916c.0392.039.0923.0608.1476.0608.0554 0 .1084-.0218.1477-.0608l9.7912-9.7916c.0389-.0391.0608-.0921.0608-.1473 0-.0552-.0219-.1082-.0608-.1473l-5.7606-5.76062c-.0392-.03895-.0922-.06081-.1475-.06081-.0552 0-.1083.02186-.1475.06081l-5.7498 5.74992c-.0194.0195-.0424.035-.0678.0455-.0254.0106-.0526.0161-.08009.0161-.02749 0-.05471-.0055-.08009-.0161-.02538-.0105-.04841-.026-.06777-.0455l-.00142-.0008Z" fill="#DE5959"/></svg>