<svg width="24" height="24" viewBox="0 0 24 24" fill="none" xmlns="http://www.w3.org/2000/svg"><path fill-rule="evenodd" clip-rule="evenodd" d="M16.61 9.85453c.6471.90697.9984 2.00837.9892 3.11897 0 1.0921-.3513 2.1842-.9892 3.0727l1.3496 1.0272c.8597-1.1846 1.3311-2.6284 1.3311-4.0907.0093-1.5456-.4992-3.06333-1.4327-4.28501l-.774.69768-.474.45916Z" fill="#15EBB7"/><path fill-rule="evenodd" clip-rule="evenodd" d="m19.1613 17.9833-4.5386-3.452c.3235-.4258.5084-.944.5361-1.4809.0185-.5367-.1201-1.0643-.4067-1.5177l2.1723-1.9621 2.2739-2.12865c.1479-.13885.1571-.37948.0092-.52756l-.3142-.31467c-1.6177-1.63813-3.7992-2.59139-6.0916-2.66543l.0093-1.24942c.0092-.0833 0-.16659-.0185-.24988-.0278-.0833-.0648-.15734-.1202-.22212-.0555-.06479-.1202-.11107-.2034-.14809-.0739-.03701-.1571-.05552-.2403-.05552-.0832 0-.1664.01851-.2403.05552-.074.03702-.1479.0833-.2034.14809-.0555.06478-.1017.13882-.1202.21286-.0277.08329-.037.16659-.0185.24988l-.0092 1.28645c-.5454.05552-1.0908.15733-1.6176.31467l.0092-1.60112c.0093-.08329 0-.16659-.0185-.24988-.02768-.08329-.0647-.15734-.12014-.22212-.05545-.06478-.12019-.11106-.20335-.14808C9.61265 2.01851 9.5294 2 9.44623 2c-.08316 0-.16642.01851-.24028.05553-.07395.03702-.1479.0833-.20344.14808-.05544.06478-.10167.13883-.12009.21286-.02781.0833-.03702.16659-.01851.24989l-.02772 2.04535c-1.86724.83294-3.40169 2.28597-4.3353 4.10922-.93361 1.82327-1.22941 3.91487-.82268 5.92317.40671 2.0084 1.48823 3.8223 3.05964 5.1366 1.57145 1.3141 3.54955 2.0546 5.59235 2.0916L18.9394 22c.2035 0 .3698-.1666.3698-.3702v-3.3411c0-.1202-.0554-.2313-.1479-.3054Zm-6.7016 2.3786c-1.6269-.0092-3.20761-.5553-4.49244-1.5456-1.28487-.9996-2.20923-2.397-2.62519-3.9704-.41597-1.5733-.2958-3.2485.32352-4.7478.62857-1.49931 1.72856-2.75798 3.14288-3.57242l-.00931 2.43404c-.00921.08335 0 .16661.01852.24986.02772.08335.06474.1574.12018.22214.05544.06484.12019.11107.20335.14809.07395.03703.15712.05554.24037.05554.08317 0 .16633-.01851.24028-.05554.07396-.03702.14791-.08325.20335-.14809.05544-.06474.10168-.13879.12019-.21284.02772-.08325.03702-.1666.01851-.24986l.00921-2.98938c.81348-.29616 1.67308-.43499 2.54208-.43499 1.5991 0 3.1521.52754 4.4184 1.49006.0924.07403.1017.20361.0185.2869L13.495 10.4961c-.3143-.1296-.6563-.2036-.9983-.2036-.379 0-.758.074-1.1093.2313-.3512.1574-.6563.3888-.9059.6756-.2495.2869-.4344.6293-.54531.9904-.11098.3701-.1387.7495-.08326 1.129.05554.3795.18497.7405.38827 1.0644.2034.3239.4807.5922.795.8052.3235.2035.684.3424 1.063.3979.3789.0556.7672.0277 1.1277-.0833l4.4185 3.3596c.0462.037.074.0925.074.148l-.0094 1.1847c0 .1018-.0831.1851-.1848.1851l-5.0655-.0185Zm1.0815-7.404c0 .2036-.0647.4072-.1756.583-.1202.1759-.2773.3054-.4715.3888-.1941.0832-.4067.1017-.6008.0555-.1941-.0463-.3883-.1389-.5362-.2869-.1478-.1481-.2496-.3332-.2865-.5368-.0369-.2036-.0185-.4165.0648-.6016.0831-.1943.2125-.3516.3881-.472.1757-.1111.379-.1758.5824-.1758.2773 0 .5454.1111.7395.3147.1848.185.2958.4442.2958.7311Z" fill="#0E0333"/></svg>