<svg width="24" height="24" viewBox="0 0 24 24" fill="none" xmlns="http://www.w3.org/2000/svg"><circle cx="12" cy="12" r="10" fill="#fff"/><path d="M11.9417 2c-2.63057.01537-5.14914 1.07198-7.01002 2.9409C3.07079 6.80982 2.01749 9.34051 2 11.9846c.01535 2.0998.68186 4.1426 1.9067 5.8437 1.22484 1.7011 2.94701 2.9759 4.92663 3.6467.5.1257.61667-.2513.61667-.4942v-1.7506c-2.73333.6198-3.33333-1.2481-3.33333-1.2481-.22566-.5948-.61249-1.1142-1.11667-1.4994-.875-.6282.125-.6282.125-.6282.3055.0511.59661.1672.85386.3406.25725.1733.4747.3999.63781.6645.12458.2507.2993.4728.51321.6524.21392.1796.46242.3129.72995.3915.26754.0787.54834.1009.82483.0655.27649-.0355.54272-.128.78201-.2717.08112-.5062.29709-.981.62503-1.3737-2.23337-.2513-4.47503-1.1225-4.47503-5.0258-.01886-.4824.06006-.9635.23197-1.41423.17191-.45072.43322-.86158.76803-1.20762-.172-.41911-.25068-.87097-.23052-1.32388.02015-.45292.13865-.89591.34718-1.29792 0 0 .83334-.25129 2.73334.99679.80823-.25789 1.65203-.38512 2.50003-.37694.8479-.00847 1.6918.11877 2.5.37694 1.8166-1.16431 2.6916-.92977 2.6916-.92977.3499.83132.3942 1.76065.125 2.62179.631.72712.9828 1.65694.9917 2.62184 0 3.8698-2.3583 4.741-4.6 4.8666.4699.5618.7346 1.2682.75 2.002v2.7307c0 .2429.125.6198.7417.4942 1.9769-.67 3.6972-1.9422 4.9218-3.64 1.2246-1.6977 1.8927-3.7367 1.9115-5.8337-.0583-2.65136-1.1406-5.17591-3.0179-7.03941C17.1049 3.08169 14.5799 2.02546 11.9417 2Z" fill="#000"/></svg>