<svg width="24" height="24" viewBox="0 0 24 24" fill="none" xmlns="http://www.w3.org/2000/svg"><g clip-path="url(#clip0_117_820)" fill-rule="evenodd" clip-rule="evenodd" fill="#282B2C"><path d="M3.63402 7.0351c.03046.02756.05544.04845.07858.07124.24723.24249.49233.48716.7427.72657.05615.05363.05645.09044.01625.15214-.52461.80318-.71539 1.68318-.54035 2.61595.23464 1.2511.95398 2.1628 2.1292 2.7122.69417.3244 1.43047.4077 2.18738.2941.50867-.0763.98505-.2497 1.41981-.5226.07208-.0452.11158-.0401.17037.0185.63884.6355 1.28164 1.2671 1.91974 1.9032.0705.0704.1069.0783.1828.0034.7295-.7214 1.4648-1.4372 2.1943-2.1586.0802-.0794.1305-.093.2357-.031.6379.3762 1.333.527 2.0761.493 1.4751-.0676 2.8223-1.0778 3.2794-2.4647.3462-1.05042.2177-2.04704-.3463-2.995-.0368-.06189-.0402-.1002.0164-.15363.2056-.19403.4054-.39373.6077-.59104.0189-.01831.0399-.03443.0603-.05194 2.1615 3.11331 2.4663 8.12171-1.0113 11.80931-3.6018 3.8194-9.54583 4.1168-13.51457.8384-4.03037-3.3295-4.50959-8.7957-1.90421-12.6695Z"/><path d="M18.6125 5.79992C14.7446 1.924 8.45566 2.25266 5.10007 5.64519c.01949.0216.03848.04448.0596.06518C7.37649 7.88758 9.59372 10.0644 11.8092 12.243c.0624.0613.0977.0538.1547-.0028.2861-.2845.5751-.5661.8643-.8475 1.8695-1.82054 3.7392-3.64094 5.6099-5.46024.0501-.04886.1123-.08587.1744-.13254Zm-6.7309 7.81768C9.17744 10.958 6.48048 8.30559 3.77672 5.64639c.01949-.02548.03513-.04975.05452-.07075.9753-1.0606 2.10727-1.91751 3.42859-2.52726.72118-.33284 1.47067-.58368 2.25043-.74826.89794-.18945 1.80574-.26647 2.72274-.22607 1.3373.05871 2.6169.3588 3.8398.89363 1.4705.64299 2.7119 1.58309 3.7655 2.77015.0609.06866.0259.0994-.021.14507-1.3106 1.27692-2.6206 2.55433-3.9303 3.83204-1.3069 1.27496-2.6135 2.55026-3.9205 3.82526-.0237.0231-.049.0448-.0849.0774ZM8.39698 11.7535c-.54898.4924-1.76927.6064-2.57705-.1846-.81052-.7934-.69955-1.96705-.16733-2.5772.91612.92189 1.83091 1.8425 2.74438 2.7618ZM15.4955 11.563c.9191-.9031 1.834-1.80197 2.7487-2.70088.3866.42418.5661 1.50708-.1034 2.30528-.7445.8876-1.9728.8825-2.6453.3956Z"/></g><defs><clipPath id="clip0_117_820"><path fill="#fff" d="M2 2h19.697v20H2z"/></clipPath></defs></svg>