<svg width="24" height="24" viewBox="0 0 24 24" fill="none" xmlns="http://www.w3.org/2000/svg"><g clip-path="url(#clip0_111_757)"><path d="M12 22c5.5228 0 10-4.4772 10-10 0-5.52285-4.4772-10-10-10C6.47715 2 2 6.47715 2 12c0 5.5228 4.47715 10 10 10Z" fill="#6747ED"/><path fill-rule="evenodd" clip-rule="evenodd" d="M11.8542 13.2917c-1.4792 0-2.66671-1.1875-2.66671-2.6667 0-1.47917 1.18751-2.66667 2.66671-2.66667 1.4791 0 2.6666 1.1875 2.6666 2.66667 0 1.4792-1.1875 2.6667-2.6666 2.6667Zm0-6.6667c2.2083 0 4 1.79167 4 4 0 2.2083-1.7917 4-4 4-2.20838 0-4.00004-1.7917-4.00004-4 0-2.20833 1.79166-4 4.00004-4Zm3.8125 8.2083c.2708.2709.2708.6875 0 .9375L13 18.4375c-.2708.2708-.6875.2708-.9375 0-.2708-.2708-.2708-.6875 0-.9375l2.6667-2.6667c.25-.2708.6875-.2708.9375 0Zm1.5416-7.54163c0 .375-.2916.66666-.6666.66666-.375 0-.6667-.29166-.6667-.66666 0-.375.2917-.66667.6667-.66667.3541 0 .6666.29167.6666.66667Z" fill="#fff"/></g><defs><clipPath id="clip0_111_757"><path fill="#fff" d="M2 2h20v20H2z"/></clipPath></defs></svg>