<svg width="24" height="24" viewBox="0 0 24 24" fill="none" xmlns="http://www.w3.org/2000/svg"><path d="M17.5951 2c-2.3123 0-4.1987 1.83476-4.2595 4.08382v4.55728c-.4259 0-.8519.0592-1.3387.0592s-.9128 0-1.3387.0592V6.08382C10.6582 3.83476 8.711 2 6.33782 2.05919c-2.25145 0-4.07696 1.83475-4.13781 4.02463V16.974c.06085 2.249 1.94721 4.0838 4.32036 4.0246 2.31229-.0592 4.13783-1.8348 4.13783-4.0246v-4.5573c.4259 0 .8519-.0592 1.3387-.0592s.9128 0 1.3387-.0592v4.6165c.0608 2.249 1.9472 4.0838 4.3204 4.0246 2.3123-.0592 4.1378-1.8347 4.1378-4.0246V6.08382C21.7938 3.83476 19.9074 2 17.5951 2ZM6.45952 3.6572c1.39956 0 2.49485 1.06534 2.49485 2.42662v4.79408c-1.21699.1775-2.434.5326-3.59015 1.0061-.4868.2367-.9736.4735-1.39955.8286V6.08382c0-1.30209 1.0953-2.42662 2.49485-2.42662ZM8.95437 16.974c0 1.3612-1.09529 2.4266-2.49485 2.4266-1.39955 0-2.49485-1.0654-2.49485-2.4266v-1.0654c0-.9469.79105-1.8939 2.12975-2.4266.91275-.4143 1.88636-.651 2.92081-.8286l-.06086 4.3206Zm8.64073 2.4266c-1.3995 0-2.4948-1.0654-2.4948-2.4266v-4.7941c1.217-.1775 2.4339-.5326 3.5901-1.0061.4868-.2367.9736-.4735 1.3996-.8286v6.6288c0 1.3612-1.1562 2.4266-2.4949 2.4266Zm.3651-9.76565c-.9127.41435-1.8864.65105-2.9208.82865V6.08382c0-1.36128 1.0953-2.42662 2.4948-2.42662 1.3996 0 2.4949 1.06534 2.4949 2.42662v1.06533c.0609 1.00615-.7302 1.89396-2.0689 2.4858Z" fill="url(#paint0_linear_8_93)"/><defs><linearGradient id="paint0_linear_8_93" x1="11.9969" y1="2" x2="-1.13757" y2="15.5038" gradientUnits="userSpaceOnUse"><stop stop-color="#00E8A2"/><stop offset="1" stop-color="#00ADE8"/></linearGradient></defs></svg>