<svg width="24" height="24" viewBox="0 0 24 24" fill="none" xmlns="http://www.w3.org/2000/svg"><g clip-path="url(#clip0_111_766)"><path d="m6.82595 20.5894-1.34317-2.4035c-.04192-.0773-.04192-.2054.00182-.2826l1.4908-2.6672c.04374-.0772.15126-.1413.23874-.1413h2.98156c.0857 0 .195.0659.2388.1413l1.4908 2.6691c.0437.0772.0437.2072 0 .2844l-1.4908 2.6691c-.0419.0754-.1477.1394-.2333.1413H7.5185c-.25333-.0038-.55951-.1846-.69255-.4106Zm9.68465-5.4908L13.54 9.78108c-.0583-.10548-.2078-.19401-.3262-.19401H7.27246c-.11846 0-.2679.08853-.32622.19401L3.97559 15.0986c-.05832.1055-.05832.2844 0 .3899l.87114 1.5596 1.52178-2.7237c.06925-.1243.23874-.2241.37725-.2241h3.91474c.1385 0 .308.1017.3772.2241l1.9574 3.5036c.0692.1243.0692.3258 0 .4502L11.4751 21h1.7405c.1184 0 .2679-.0885.3262-.194l2.9707-5.3175c.0565-.1074.0565-.2844-.0019-.3899Zm5.3928-3.5186-4.5599-8.15995C17.2159 3.18836 16.8988 3 16.6419 3H7.52396c-.25697 0-.57408.18836-.70348.42005L2.26245 11.58c-.12939.2316-.12939.6084 0 .8382l1.04429 1.8704L6.3357 8.86563c.08566-.15257.29342-.27689.46474-.27689h6.87986c.1713 0 .3791.12432.4647.27689l3.4409 6.15757c.0857.1526.0857.4012 0 .5538L14.5569 21h2.085c.2569 0 .574-.1884.7034-.42l4.5581-8.1599c.1294-.2317.1294-.6085 0-.8401Z" fill="url(#paint0_linear_111_766)"/></g><defs><linearGradient id="paint0_linear_111_766" x1="7.12404" y1="20.8764" x2="17.5401" y2="3.421" gradientUnits="userSpaceOnUse"><stop offset=".00202893" stop-color="#FFDC00"/><stop offset=".3333" stop-color="#E58E2F"/><stop offset=".6666" stop-color="#DB2D72"/><stop offset="1" stop-color="#F0F"/></linearGradient><clipPath id="clip0_111_766"><path fill="#fff" d="M2 3h20v18H2z"/></clipPath></defs></svg>