<svg width="24" height="24" viewBox="0 0 24 24" fill="none" xmlns="http://www.w3.org/2000/svg"><path d="M16.0559 13.0325c.0135.0012.0265.0056.0379.0128.0115.0073.021.0172.0278.029.0067.0117.0106.0249.0112.0385.0006.0135-.0021.027-.0079.0393l-3.9368 6.8083c-.0073.0118-.0175.0216-.0295.0285-.0121.0069-.0256.0107-.0395.0111H9.71236c-.01399 0-.02774-.0037-.03984-.0107-.01211-.007-.02213-.0171-.02907-.0292-.00693-.0122-.01052-.026-.01039-.04.00012-.014.00395-.0277.01109-.0397l3.93675-6.8083c.007-.012.0169-.022.0289-.0289.0119-.007.0255-.0106.0394-.0107h2.4067Zm-2.3402-1.9511c-.0139-.0004-.0275-.0043-.0395-.0112-.0121-.0069-.0222-.0166-.0296-.0284L9.64415 4.11976c-.00714-.01203-.01097-.02574-.01109-.03973-.00013-.01399.00346-.02776.01039-.03991.00694-.01215.01696-.02225.02907-.02927.0121-.00701.02585-.01069.03984-.01067h2.40674c.0139.0004.0274.00421.0395.01112.012.00691.0222.01668.0295.02846l4.0025 6.92204c.0071.012.011.0257.0111.0397.0001.014-.0035.0278-.0104.0399-.0069.0122-.017.0223-.0291.0293-.0121.007-.0258.0107-.0398.0107h-2.4067Z" fill="#E31337"/><path d="M14.1916 4.11976c-.0074-.01241-.0113-.0266-.0112-.04104 0-.01445.0041-.0286.0116-.04092.0076-.01231.0183-.02233.0312-.02896.0128-.00664.0272-.00963.0416-.00866h2.4101c.0139-.00003.0275.00362.0395.01058.0119.00695.0219.01696.0287.029l4.5886 7.92074c.007.012.0107.0257.0107.0396 0 .0139-.0037.0276-.0107.0396l-4.5886 7.9207c-.0068.0121-.0168.0221-.0287.029-.012.007-.0256.0106-.0395.0106h-2.4101c-.014.0002-.0279-.0034-.0401-.0104-.0122-.0069-.0224-.017-.0294-.0292-.0071-.0122-.0107-.026-.0106-.04.0001-.0141.0039-.0279.0111-.04l4.5608-7.8803-4.565-7.88034Zm-1.9587 7.83994c.0073.0128.0112.0273.0112.0421 0 .0148-.0039.0293-.0112.0421l-4.60968 7.9165c-.00773.0113-.0181.0205-.0302.0269-.01211.0064-.02559.0097-.03927.0097-.01369 0-.02716-.0033-.03927-.0097-.0121-.0064-.02247-.0156-.0302-.0269l-4.661-7.9199c-.00739-.0128-.01128-.0273-.01128-.0421 0-.0148.00389-.0293.01128-.0421l4.60963-7.91654c.00773-.01129.0181-.02053.0302-.02691.01211-.00638.02559-.00971.03927-.00971.01368 0 .02716.00333.03927.00971.0121.00638.02247.01562.0302.02691l4.66105 7.91994Z" fill="#E31337"/></svg>