<svg width="24" height="24" viewBox="0 0 24 24" fill="none" xmlns="http://www.w3.org/2000/svg"><g clip-path="url(#clip0_113_577)"><path d="M2.52294 5.01542c-.30286.02311-.53595.06935-.52285.10403.1208.27907.86773 1.9221.87794 1.93201.01021.00991.18375.02147.38792.02973.90516.03302 1.62147.20476 2.39562.5763.55637.26586.96811.55153 1.39687.966.63124.61098 1.04298 1.28966 1.28459 2.12031.02722.0957.04934.1816.04934.1948 0 .0182-.13782.0215-.74693.0215-.41175 0-.76565.0066-.78776.0148-.03233.0116-.1174.1899-.4713.9776-.2382.5301-.43557.9759-.43897.9908-.01191.0429.13101.0809.48831.1321.07316.0115.51213.0231 1.03107.0297l.90346.0099-.05445.1817c-.60911 2.0046-2.4994 3.4066-4.81505 3.575-.13101.0083-.30285.0165-.38282.0165h-.14462l-.44578.9957c-.38282.8505-.44237.9958-.41685 1.004.1157.0413.37432.0562.97322.0562.76564 0 1.13826-.033 1.76949-.1585 2.57767-.5136 4.71977-2.1054 5.68961-4.2323.1871-.4095.4066-1.0833.4458-1.3656l.0119-.0809h1.9345l.0068.0363c.1395.6638.2909 1.1113.553 1.6397.7877 1.5919 2.2646 2.8914 4.0936 3.6048 1.1107.4317 2.3004.639 3.4965.6093.5002-.0148.8983-.0693.8779-.1205-.017-.043-.8643-1.9304-.8694-1.9353-.0051-.005-.1804-.0116-.3931-.0199-.5972-.0231-1.0464-.0908-1.5534-.2311-.7809-.218-1.5534-.6127-2.1455-1.0948-.7452-.6094-1.2846-1.3673-1.5704-2.2078-.0323-.0958-.0647-.1965-.0698-.2263l-.0119-.0528.7282-.0049c.3999-.0033.7402-.0116.7538-.0182.0221-.0116.8932-1.9287.8932-1.9667 0-.0248-.2195-.0875-.4185-.1189-.1464-.0231-.3318-.0297-1.0719-.0347l-.8967-.0082.034-.1173c.4969-1.70741 2.0213-3.06312 3.9865-3.54365.4339-.10568.8558-.16017 1.4037-.18164.3267-.01321.3675-.01816.3879-.04458.0136-.01817.2144-.45576.4458-.97262.2841-.63244.4151-.94454.4032-.95279-.0374-.01982-.2756-.0611-.4628-.07926-.2722-.02808-1.0668-.02312-1.4173.0066-2.0042.17339-3.8112.95775-5.1655 2.23915-.8269.78272-1.4071 1.66121-1.7644 2.6751-.0919.25599-.2025.65889-.2365.85369l-.0204.1206h-1.9017l-.0068-.038c-.0051-.0198-.0238-.1139-.0442-.2097-.2808-1.35408-1.07365-2.67016-2.19319-3.63947C7.51154 5.96821 5.9224 5.27632 4.17333 5.06611c-.52575-.06225-1.20343-.08372-1.65039-.05069Z" fill="#007F88"/></g><defs><clipPath id="clip0_113_577"><path fill="#fff" d="M2 5h20v14H2z"/></clipPath></defs></svg>