<svg width="24" height="24" viewBox="0 0 24 24" fill="none" xmlns="http://www.w3.org/2000/svg"><path d="m20.1275 6.17761-1.6364 2.53676c.5007.98539.7856 2.10513.7856 3.28603 0 4.0189-3.2607 7.2804-7.2785 7.2804-1.1806 0-2.29596-.2809-3.28108-.7818l-2.53203 1.6369c1.64052 1.1727 3.64335 1.869 5.81711 1.869 5.5241 0 9.9979-4.479 9.9979-10.0005-.0041-2.17434-.6961-4.18583-1.8726-5.82679Z" fill="url(#paint0_radial_8_69)"/><path d="M11.9978 17.0089c2.4628 0 4.5104-1.7713 4.9379-4.1085-.7776-.167-1.5876-.2565-2.4181-.2565-2.4954 0-4.80351.798-6.68828 2.1499.90371 1.3356 2.43428 2.2151 4.16848 2.2151Z" fill="url(#paint1_radial_8_69)"/><path d="M14.4729 11.7317c.8752 0 1.726.0937 2.5483.2728 0-2.77697-2.2471-5.02463-5.0233-5.02463-2.7763 0-5.02337 2.24766-5.02337 5.02463 0 .2281.01628.452.04477.6719-1.26601.9609-1.86441 1.7224-1.88477 1.7468-.26867-.7574-.41522-1.5717-.41522-2.4187 0-4.01888 3.2607-7.28043 7.27859-7.28043 1.1764 0 2.2877.28095 3.2729.77772l2.5361-1.64096C16.1663 2.68814 14.1635 2 11.9979 2 6.47382 2 2.00003 6.47903 2.00003 12.0005c0 2.2232.72867 4.2754 1.95398 5.9367.47221-.8551 1.05026-1.6491 1.70972-2.3617 0 0 .98513-1.0301 1.7423-1.5473 1.98247-1.4455 4.42497-2.2965 7.06687-2.2965Z" fill="#000"/><defs><radialGradient id="paint0_radial_8_69" cx="0" cy="0" r="1" gradientUnits="userSpaceOnUse" gradientTransform="matrix(17 0 0 17 20.1282 6.16784)"><stop offset=".0986" stop-color="#26DB8D"/><stop offset=".2628" stop-color="#23D29A"/><stop offset=".5637" stop-color="#1ABBBB"/><stop offset=".886" stop-color="#0E9DE5"/></radialGradient><radialGradient id="paint1_radial_8_69" cx="0" cy="0" r="1" gradientUnits="userSpaceOnUse" gradientTransform="matrix(17 0 0 17 20.1279 6.168)"><stop offset=".0986" stop-color="#26DB8D"/><stop offset=".2628" stop-color="#23D29A"/><stop offset=".5637" stop-color="#1ABBBB"/><stop offset=".886" stop-color="#0E9DE5"/></radialGradient></defs></svg>