<svg width="24" height="24" viewBox="0 0 24 24" fill="none" xmlns="http://www.w3.org/2000/svg"><g clip-path="url(#clip0_9_14725)"><path d="M14.0063 8.15157c0-2.86975-1.3834-5.34216-2.443-6.15158 0 0-.0736-.04415-.0736.07359-.0883 5.54819-2.89919 7.06401-4.45916 9.08022-3.57616 4.6799-.25019 9.8013 3.13466 10.7432 1.8985.5298-.44151-.9419-.73584-4.0324-.3532-3.7528 4.57694-6.6078 4.57694-9.71303Z" fill="#282E5B"/><path d="M15.8606 10.05c-.0148-.0147-.0442-.0147-.0736 0l-.0147.0148c-.0589.6916-.8242 2.1927-1.7808 3.5614-3.2523 4.6505-1.398 6.8874-.3532 8.0942.6034.7064 0 0 1.5159-.7211.1177-.0589 2.9433-1.56 3.2524-4.9596.309-3.3112-1.7955-5.3863-2.546-5.9897Z" fill="#059BDC"/></g><defs><clipPath id="clip0_9_14725"><path fill="#fff" d="M5.5 2h12.9507v20H5.5z"/></clipPath></defs></svg>