<svg width="24" height="24" viewBox="0 0 24 24" fill="none" xmlns="http://www.w3.org/2000/svg"><path d="M12 22c5.5228 0 10-4.4772 10-10 0-5.52285-4.4772-10-10-10C6.47715 2 2 6.47715 2 12c0 5.5228 4.47715 10 10 10Z" fill="#292929"/><path fill-rule="evenodd" clip-rule="evenodd" d="M11.3794 13.6607c0-.2875.0012-.5744-.0007-.8613-.0006-.08.0226-.1412.0969-.1737.0688-.03.1407-.0088.2007.0612.1787.2088.3562.4188.5343.6288.0625.0731.1257.1456.1863.2212.0142.0178.0225.0397.0237.0625.0013.3031.0019.6063.0006.9088.0017.1333-.047.2624-.1363.3614-.0893.0991-.2127.1608-.3455.1729-.1328.0085-.2638-.0335-.3667-.1177-.103-.0842-.1703-.2043-.1883-.336-.0056-.0344-.005-.07-.005-.105v-.8231Zm.0019-5.6313c-.0007-.0125-.0019-.02437-.0019-.03687v-1.7075c.0006-.2625.1806-.48375.4244-.52688.0751-.01398.1525-.0112.2264.00816.074.01936.1428.05481.2015.10383.0587.04901.1058.11038.138.17973.0323.06934.0488.14494.0484.22141.0063.58187.0025 1.16437.0038 1.74625l-.0032.03c-.1212-.2075-.2887-.31125-.5175-.31063-.2262 0-.3949.1-.5199.2925Zm-.0019 7.8831c.1275.1938.2975.2925.5256.2919.2275-.0006.3931-.1044.5169-.2969v1.4463c-.0007.1419.0037.285-.0088.425-.0121.1335-.0755.2572-.1769.345-.1014.0878-.2329.1328-.3668.1256-.1321-.0088-.256-.0674-.3467-.1639-.0906-.0965-.1414-.2237-.1421-.3561-.0031-.5581-.0012-1.1162-.0012-1.675v-.1419Zm1.0425-5.5162v1.0381c0 .0988-.0313.1525-.1063.1825-.0388.016-.0817.0189-.1223.0083-.0406-.0106-.0766-.0341-.1027-.067l-.4525-.53c-.0781-.0913-.1562-.1819-.2331-.275-.0147-.0177-.0235-.0396-.025-.0625-.0012-.4463-.0019-.89317 0-1.33942-.0008-.1318.048-.25909.1366-.35658.0887-.0975.2109-.15806.3422-.16967.2468-.0275.4918.15625.5493.415.0094.04312.0125.08812.0125.1325.0013.34125.0013.68247.0013 1.02377Zm1.0818-2.11065v-1.3875c.0013-.25125.1444-.45625.3669-.52625.3375-.10687.675.14813.6769.51563.0019.34625 0 .6925 0 1.03812v1.74688c0 .25812-.155.46687-.3919.53127-.3081.0831-.6225-.1438-.6481-.46815-.0023-.03182-.0033-.06372-.0031-.09562V8.28565h-.0007ZM10.3513 14.975v1.6032c.0023.1252-.04.2473-.1193.3442-.0794.097-.1906.1626-.31388.1851-.3.0575-.59937-.1862-.60812-.4981-.0025-.0894-.00063-.1787-.00063-.2681v-2.9706c0-.2494.16-.46.3925-.52.07707-.0195.15757-.0211.23533-.0046.0778.0164.1507.0504.2133.0994.0626.049.1132.1116.1479.1831.0347.0716.0525.1501.0522.2296.0019.5387 0 1.0781 0 1.6168h.0007Zm0-5.90372v2.18692c.0023.1212-.0372.2396-.1118.3352-.0747.0957-.18.1626-.29825.1898-.07575.0161-.15413.0152-.22948-.0027-.07534-.0179-.14577-.0523-.20619-.1008-.06041-.0484-.1093-.1097-.14313-.1794-.03382-.0696-.05174-.146-.05245-.2234-.00312-.3162-.00062-.6319-.00125-.9481V6.88753c0-.2575.1675-.4725.40813-.52688.07649-.01679.15579-.01615.23201.00188.07621.01803.14741.05298.20831.10227.0608.04928.1098.11163.1433.18243.0335.0708.0506.14823.0501.22655.0019.56187 0 1.12312 0 1.685l.0007.5125Zm3.1524 5.11622v-2.375c0-.2368.1013-.4125.3125-.5112.3388-.1569.7188.0937.7313.4769v4.78c0 .2612-.1494.4687-.385.5362-.3088.0888-.6287-.1375-.655-.4631-.0024-.0333-.0034-.0667-.0031-.1v-2.345l-.0007.0012Zm3.1838-2.4162v3.7125c.0031.1237-.0372.2446-.1137.3418-.0766.0972-.1847.1647-.3057.1907-.3075.0669-.6137-.1788-.6225-.4994v-7.45c0-.24062.1206-.4325.3244-.5175.3437-.14375.7169.115.7169.49875v3.72255l.0006.0006Zm-8.33313-.0056v3.7181c0 .2625-.16249.4731-.40749.5312-.3125.075-.62563-.1712-.63438-.4993V8.05503c0-.25563.15312-.46313.3875-.52813.07689-.02021.15738-.02256.23532-.00688.07794.01568.15126.04898.21435.09735.06309.04838.11428.11054.14965.18174.03537.0712.05399.14954.05443.22904.00313.40938.00062.81938.00062 1.22938V11.7657Z" fill="#fff"/></svg>