<svg width="24" height="24" viewBox="0 0 24 24" fill="none" xmlns="http://www.w3.org/2000/svg"><path d="M22.0803 12c0-5.52285-4.4771-10-10-10-5.52283 0-9.99998 4.47715-9.99998 10 0 5.5228 4.47715 10 9.99998 10 5.5229 0 10-4.4772 10-10Z" fill="#252B3D"/><path d="M16.4077 7.5h1.1726l-4.7609 5.3669c-.1232.1331-.1267.3453-.007.482L15.559 16.5h-1.2254l-2.5389-2.9209-.1268-.1582c-.1197-.1367-.1162-.349.0071-.4821L16.4077 7.5Z" fill="#17B5CB"/><path d="M14.1699 13.3468c-.0787-.09-.1074-.2126-.0787-.3243.0214-.0612.068-.1297.111-.1765l.3223-.346 3.5558 4h-1.1316s-2.0841-2.364-2.7788-3.1532ZM7.29648 16.5H6.08031l3.72913-4.2806c.11916-.1367.11916-.3417 0-.4748L6.10835 7.5h1.17061l3.72214 4.2806c.0946.1259.1121.3093.0105.428C10.0372 13.3273 7.29648 16.5 7.29648 16.5ZM9.72443 7.5H8.58029l3.50721 4s.0107-.0073.4028-.4614c.1069-.1235.1283-.2761.0107-.3924C11.7632 9.90145 9.72443 7.5 9.72443 7.5ZM13.0503 10l2.065-2.5H14.03l-.9686 1.07032-.3815.45312c-.1297.14453-.1334.37109-.0074.52344.0963.11328.3778.45312.3778.45312ZM10.9498 13.7896 8.58029 16.5h1.19646l1.32245-1.5703.2373-.2447c.1297-.1445.126-.432 0-.5844-.0963-.1133-.3867-.311-.3867-.311Z" fill="#17B5CB"/></svg>