<svg width="24" height="24" viewBox="0 0 24 24" fill="none" xmlns="http://www.w3.org/2000/svg"><path d="M2 12C2 6.47715 6.47715 2 12 2c5.5228 0 10 4.47715 10 10 0 5.5228-4.4772 10-10 10-5.52285 0-10-4.4772-10-10Z" fill="#0484B5"/><path d="M8.2823 8.91861c0-.3579-.2783-.6362-.5964-.6362-.3181 0-.5959.2783-.5959.5964 0 .3579.2783.6362.6361.5964l1.7888 1.78929h3.2207l3.5388-3.4592 1.0735 1.07351-3.8966 3.81709 2.2266 2.3063v.04c0 .3181.2784.5965.5965.5965.3181 0 .5964-.2784.5964-.5965 0-.3182-.2784-.5965-.5964-.5965l-1.59-1.71 3.8166-3.85689-2.1869-2.18692-3.8966 3.89671H9.992L8.2823 8.91861Z" fill="#fff"/><path d="m10.6283 11.5826-2.86278 2.8629h-.04c-.318 0-.5964.2784-.5964.5964 0 .318.2784.5965.5964.5965.318 0 .5965-.2784.5965-.5965l2.66398-2.6641h2.3061l2.9822-2.86279c.318 0 .5964-.2783.5964-.5964 0-.3181-.2784-.59641-.5964-.59641-.318 0-.5965.27831-.5965.59641v.04l-2.7433 2.62399" fill="#fff"/><path d="M16.3539 12.7754c0-.318-.2784-.5964-.5964-.5964-.318 0-.5965.2784-.5965.5964 0 .318.2386.5567.5169.5965l1.63 1.71-1.0735 1.0736-3.3-3.4593h-1.8688l-3.4195 3.459-1.07349-1.0736 3.57849-3.499h-.87479l-2.7037-2.70381 1.0338-1.0338 1.94829 1.9881c0 .31811.2783.55671.5964.55671.3181 0 .5964-.2784.5964-.59651 0-.3181-.2783-.5964-.5964-.5964h-.08l-2.46469-2.505L5.38 8.91859l3.1011 3.10151L5.38 15.1214l2.2267 2.2266 3.8568-3.8568h1.0335l3.6978 3.8568 2.1471-2.1869-1.988-2.2664v-.1193Z" fill="#fff"/></svg>