<svg width="24" height="24" viewBox="0 0 24 24" fill="none" xmlns="http://www.w3.org/2000/svg"><path d="M4.37158 5.45679c.12146-.15636.25018-.30618.37891-.45672.00582-.00728.01891-.00873.02472-.016.01164-.01455.03055-.024.04219-.03855l.01163-.01454c.08946-.08509.18473-.17746.29527-.25818.36726-.29181.77906-.52263 1.21963-.68363 1.36726-.49018 2.8887-.18764 4.08217.96435 1.6654 1.59635 1.5163 4.16942.1869 5.87918-1.68145 2.5484-4.56943 6.1047-.5702 9.2902.7193.573 1.2524 1.045 3.5171 1.7141-1.4807.2793-2.8546.1928-4.38326-.2065-1.08145-.6247-2.7818-1.9607-3.35998-3.7658-.8749-2.7367 1.5389-6.8283 2.70543-8.40358 1.60141-2.1818-.98981-4.54178-2.89743-1.90616-.99781 1.37308-2.74179 5.26034-2.13598 8.14324.35418 1.6349.8269 2.8269 2.70034 4.4639-.35343-.2139-.69146-.4523-1.01163-.7134C.823974 15.3033 1.32942 8.89313 4.37158 5.45679Z" fill="url(#paint0_linear_8_108)"/><path d="M19.1897 18.5432c-.1215.1564-.2502.3062-.3789.4567-.0059.0073-.019.0088-.0248.016-.0116.0146-.0305.024-.0422.0386l-.0116.0145c-.0894.0851-.1847.1775-.2953.2582-.3672.2918-.779.5227-1.2196.6836-1.3673.4902-2.8887.1877-4.0821-.9643-1.6655-1.5964-1.5164-4.1694-.1869-5.8792 1.6807-2.5484 4.5694-6.10472.5701-9.29015-.7192-.57308-1.2523-1.04508-3.5178-1.71417 1.4815-.27927 2.8553-.19272 4.384.20655 1.0815.62472 2.7818 1.96071 3.36 3.76579.8749 2.7367-1.5389 6.82828-2.7055 8.40358-1.6014 2.1818.9899 4.5418 2.8975 1.9062.9978-1.3731 2.7418-5.2604 2.136-8.14326-.3549-1.63489-.8269-2.82688-2.7004-4.46396.3469.20945.6844.44727 1.0116.71345 4.3527 4.14542 3.848 10.55557.8059 13.99187Z" fill="url(#paint1_linear_8_108)"/><defs><linearGradient id="paint0_linear_8_108" x1="1.99996" y1="12" x2="21.5613" y2="12" gradientUnits="userSpaceOnUse"><stop stop-color="#0082FA"/><stop offset="1" stop-color="#00F2FE"/></linearGradient><linearGradient id="paint1_linear_8_108" x1="1.99998" y1="12" x2="21.5613" y2="12" gradientUnits="userSpaceOnUse"><stop stop-color="#0082FA"/><stop offset="1" stop-color="#00F2FE"/></linearGradient></defs></svg>