<svg width="24" height="24" viewBox="0 0 24 24" fill="none" xmlns="http://www.w3.org/2000/svg"><path d="M16.2269 4.85801c.5677 0 1.0291-.4842 1.0291-1.07908 0-.59487-.4614-1.07831-1.0291-1.07831-.5678.00308-1.0291.48651-1.0291 1.08139 0 .59488.4613 1.076 1.0291 1.076Zm.3036 2.80377c.2328-.00183.4555-.09913.6189-.27049s.2542-.40275.2524-.64327c0-.50265-.3899-.91384-.8713-.91384-.4815 0-.8714.40811-.8714.91384 0 .50572.3892.91376.8714.91376Zm2.3923.35738c.4792 0 .8691-.40811.8691-.91153 0-.50341-.3899-.91153-.8691-.91153-.4792 0-.8692.40812-.8692.91153 0 .50342.3907.91153.8692.91153Zm-.2873 2.39874c.4108 0 .7434-.3489.7434-.77858 0-.42963-.3326-.77857-.7434-.77857-.4107 0-.7433.34894-.7433.77857 0 .42968.3326.77858.7433.77858Zm1.9153.7778c.4138 0 .7486-.3513.7486-.784 0-.43267-.3348-.78391-.7486-.78391-.0989.00071-.1968.02154-.288.06132-.0912.03978-.1739.09772-.2434.17052s-.1245.15907-.1617.25377c-.0373.0947-.0561.1961-.0554.2983 0 .4327.3356.784.7485.784Zm-4.3224-1.1022c.1006-.0006.2002-.0216.2929-.062.0928-.04031.177-.09913.2477-.17307.0708-.07394.1267-.16155.1647-.25783.038-.09628.0572-.19934.0566-.30329v-.00154c0-.4404-.34-.79778-.7619-.79778s-.762.35662-.762.79778c0 .43809.3408.79773.762.79773Zm-.6905 1.9084c.3534 0 .6384-.2997.6384-.6679.0014-.1757-.0649-.3447-.1842-.47-.1193-.1252-.2818-.1964-.4519-.1979h-.0023c-.3535 0-.6385.2998-.6385.6679 0 .3682.285.6679.6385.6679Zm2.3959.3374c.0838-.0006.1666-.0182.2437-.0518.0772-.0337.1471-.0827.2059-.1443.0588-.0616.1053-.1345.1368-.2146.0315-.0802.0475-.1659.0469-.2524v-.0016c0-.3674-.2828-.6648-.6333-.6648-.3504 0-.6332.2974-.6332.6648-.0011.0862.0143.1717.0452.2518.031.08.0769.153.1351.2147.0582.0617.1277.111.2043.145.0767.034.1591.0521.2425.0532h.0061Zm1.9102.7748c.3534 0 .6384-.2998.6384-.6702 0-.3705-.285-.6702-.6384-.6702-.3535 0-.6385.2997-.6385.6702-.0018.1759.0642.3453.1833.471.1192.1257.2818.1973.4521.1992h.0031Zm-.9436 1.4479c.2984 0 .5395-.2544.5395-.5649 0-.3105-.2411-.5649-.5395-.5649-.2983 0-.5394.2544-.5394.5649 0 .3105.2411.5649.5394.5649Zm-1.919-.7624c.3036 0 .5521-.2598.5521-.5787 0-.319-.2463-.5788-.5521-.5788-.3058 0-.5521.2598-.5521.5788 0 .3189.2485.5787.5521.5787Zm-2.393-.3535c.1456-.0024.2845-.0638.3868-.171.1022-.1072.1595-.2515.1596-.402.0001-.1505-.057-.2949-.1591-.4023-.1021-.1073-.2409-.1689-.3866-.1714h-.0007c-.1457.0023-.2846.0637-.3868.1709-.1022.1072-.1596.2516-.1597.402-.0001.1505.0571.295.1592.4023.1021.1073.2409.1689.3865.1715h.0008Zm1.3304 1.3604c.2642 0 .4763-.2245.4763-.4973.0011-.1307-.048-.2565-.1366-.3497-.0886-.0933-.2094-.1463-.3359-.1476h-.0038c-.2641 0-.4762.2244-.4762.4973-.0014.1304.0475.2561.1358.3494.0883.0932.2089.1464.3351.1479h.0053Zm1.9183.7754c.2642 0 .4814-.2244.4814-.5026 0-.2782-.2143-.5027-.4814-.5027-.129 0-.2528.053-.3441.1473-.0913.0942-.1425.2221-.1425.3554s.0512.2612.1425.3554c.0913.0943.2151.1472.3441.1472Zm-1.0804.5819c.2091 0 .3795-.1784.3795-.3974.0006-.1046-.0391-.2052-.1102-.2797-.0712-.0745-.168-.1168-.2693-.1176-.2091 0-.3795.1783-.3795.3973-.0002.1045.0395.2049.1106.2793s.1677.1168.2689.1181Zm-1.0239.312c.0453-.0003.0902-.0098.1319-.028.0418-.0182.0797-.0447.1116-.078.0318-.0333.057-.0728.0741-.1162.0171-.0433.0257-.0897.0254-.1366v-.0009c0-.1998-.1547-.3597-.343-.3597-.0453.0003-.0902.0098-.1319.028-.0418.0182-.0797.0447-.1115.078-.0319.0333-.0571.0728-.0742.1162-.0171.0433-.0257.0898-.0254.1366v.0009c-.0016.0938.0329.1843.096.2517.0631.0675.1495.1063.2402.1079l.0068.0001Zm-.8966-1.0345c.2254 0 .4085-.1921.4085-.4273 0-.2352-.1831-.4274-.4085-.4274-.2255 0-.4085.1922-.4085.4274-.0003.1124.0425.2205.119.3005.0766.08.1806.1256.2895.1268Zm-1.3156-.9799c.2619 0 .4762-.2214.4762-.4973 0-.2759-.212-.4973-.4762-.4973-.2619 0-.4762.2214-.4762.4973-.0002.131.0497.2568.1389.3499.0892.0932.2105.1461.3373.1474Zm3.9013 6.23c.5655 0 1.0239-.4811 1.0239-1.0737 0-.5925-.4584-1.0737-1.0239-1.0737-.5655 0-1.0239.4812-1.0239 1.0737 0 .5926.4584 1.0737 1.0239 1.0737Zm-2.6006-1.3588c.471 0 .8535-.4004.8535-.8946s-.3825-.8946-.8535-.8946c-.471 0-.8535.4004-.8535.8946s.3817.8946.8535.8946Zm-1.486 1.9668c.4762 0 .8609-.4028.8609-.9031 0-.4973-.3847-.9031-.8609-.9031s-.8609.4028-.8609.9031c-.0018.2377.0879.4663.2493.6357.1615.1693.3814.2655.6115.2674h.0001Zm-.4472-3.6239c.0987-.0007.1963-.0214.2872-.0611.0909-.0397.1734-.0974.2427-.17.0693-.0726.1241-.1586.1612-.253.0372-.0945.0559-.1956.0552-.2975.0007-.1019-.018-.203-.0552-.2975-.0371-.0944-.0919-.1804-.1612-.253-.0693-.0726-.1518-.1303-.2427-.17-.0909-.0397-.1885-.0604-.2872-.0611-.0987.0007-.1963.0214-.2872.0611-.0909.0397-.1734.0974-.2427.17-.0693.0726-.1241.1586-.1612.253-.0371.0945-.0559.1956-.0552.2975.0007.4304.3356.7816.7463.7816Zm-1.4822 1.9937c.4107 0 .7433-.3489.7433-.7785 0-.4297-.3326-.7786-.7433-.7786-.4108 0-.7434.3489-.7434.7786-.002.2044.0748.4013.2133.5473.1386.146.3276.2292.5255.2312h.0046Zm-1.59761 1.3527c.41071 0 .74111-.3489.74111-.7762 0-.4297-.3326-.7763-.74111-.7763-.41075 0-.74113.3489-.74113.7763 0 .4273.33262.7762.74113.7762Zm-1.32971-1.7608c.16888-.0016.33028-.0722.44894-.1963.11865-.1241.18491-.2918.18429-.4662 0-.3651-.28276-.6625-.63323-.6625-.16842.0026-.32907.0736-.44727.1976-.11819.1239-.18445.2909-.18445.4649s.06626.341.18445.4649c.1182.124.27885.195.44727.1976Zm1.60052-1.3588c.169-.0012.3307-.0717.4494-.1959.1187-.1243.1849-.2921.1839-.4666 0-.3674-.2828-.6625-.6333-.6625-.1684.0023-.32919.073-.44761.1967-.11841.1237-.18495.2906-.18525.4646-.00029.174.06569.3412.18369.4653.118.1242.27855.1954.44697.1984h.0022Zm1.4934-1.9929c.0838-.0006.1666-.0183.2437-.0519.0772-.0337.1471-.0827.2059-.1442.0588-.0616.1053-.1346.1368-.2147s.0475-.1659.0469-.2524v-.0016c0-.3674-.2828-.6648-.6333-.6648-.0837.0006-.1665.0182-.2436.0519-.0772.0336-.1471.0826-.2059.1442-.0588.0616-.1053.1345-.1368.2146-.0315.0802-.0475.1659-.0469.2524v.0016c0 .3674.2828.6649.6332.6649Zm-2.28434.2743c.30359 0 .54989-.2567.54989-.5756 0-.319-.2463-.5757-.54989-.5757s-.54989.2567-.54989.5757c0 .3189.2463.5756.54989.5756Zm-1.59237 1.3535c.07192-.0004.14306-.0154.20935-.0442.0663-.0288.12645-.0708.17703-.1237.05058-.0528.09059-.1153.11775-.1841.02716-.0688.04094-.1425.04055-.2167v-.0016c.00139-.1498-.05489-.294-.15647-.401-.10157-.1069-.24012-.1678-.38516-.1693h-.00305c-.07192.0004-.14306.0155-.20935.0443-.0663.0288-.12645.0708-.17703.1236-.05058.0528-.09059.1154-.11775.1842-.02716.0688-.04094.1424-.04055.2167v.0015c-.00049.0744.01321.1482.04032.2171.0271.0689.06709.1316.11767.1846.05058.0529.11076.0951.17711.124.06635.0289.13756.0441.20958.0446Zm-.3661-1.5863c.12552-.0011.24555-.0534.33381-.1456.08827-.0921.13761-.2167.13721-.3463 0-.2729-.21207-.4919-.47102-.4919-.25894 0-.47101.2213-.47101.4919 0 .2728.21207.4919.47101.4919ZM7.3163 14.559c.05345-.0005.10628-.0119.15548-.0335.0492-.0216.09379-.053.13124-.0924s.06702-.086.08703-.1372c.02-.0512.03004-.106.02955-.1612 0-.2329-.18082-.4242-.4033-.4242-.22249 0-.4033.189-.4033.4242 0 .2352.18081.4243.4033.4243Zm.22174-1.1575c.19123 0 .34303-.1622.34303-.3597s-.15477-.3597-.34303-.3597c-.19123 0-.34303.1622-.34303.3597s.1518.3597.34303.3597Zm1.37286-.1937c.22547 0 .40851-.1921.40851-.4273 0-.2352-.18304-.4273-.40851-.4273-.22546 0-.40851.1921-.40851.4273-.00039.1125.04235.2206.1189.3007.07655.0801.18067.1256.28961.1266Zm1.5068-.6064c.2619 0 .4762-.2244.4762-.4973.0012-.1306-.0479-.2564-.1365-.3496-.0886-.0933-.2094-.1464-.3359-.1476h-.0038c-.2619 0-.47622.2244-.47622.4972-.00049.0648.01138.1291.03494.1892.02355.06.05828.1147.10238.1609.044.0462.0964.0829.1541.1082.0578.0252.1198.0385.1826.039h.0022Zm.3587 1.5787c.1433-.0003.2806-.0594.3817-.1642.1012-.1048.158-.2468.1578-.3949-.0001-.148-.0572-.2899-.1585-.3945-.1014-.1046-.2389-.1633-.3822-.1633-.1433 0-.2807.0587-.3821.1633-.1013.1046-.1584.2465-.1585.3945-.0002.1481.0566.2901.1577.3949.1012.1048.2385.1639.3818.1642h.0023Zm-1.84615.4204c.26192 0 .47102-.2214.47102-.495 0-.2736-.21207-.495-.47102-.495-.06224.0004-.1238.0135-.18116.0385-.05736.0249-.10939.0613-.15313.1071-.04374.0457-.07832.0999-.10178.1595-.02346.0595-.03534.1232-.03494.1875v.0024c-.00089.0641.01045.1277.03337.1873.02293.0595.05698.1138.10022.1598.04324.0459.09482.0826.1518.108.05697.0254.11823.0389.18026.0398h.00536v.0001Zm-5.20869-.734c.56254 0 1.0209-.4788 1.0209-1.0683s-.45836-1.0684-1.0209-1.0684c-.56254 0-1.02091.4796-1.02091 1.0691 0 .5895.45837 1.0676 1.02091 1.0676Zm2.31712-1.9076c.48441 0 .87432-.4112.87432-.9169 0-.5058-.39289-.9169-.87432-.9169-.23345.0016-.45671.0989-.62068.2706-.16396.1716-.2552.4035-.25363.6447v.0016c0 .5088.39288.9169.87431.9169ZM5.1346 9.60704c.48143 0 .86911-.40811.86911-.91153s-.38991-.91153-.86911-.91153c-.11491.0008-.22855.02496-.33441.07112-.10587.04616-.2019.11341-.28261.1979-.0807.0845-.1445.18459-.18776.29455-.04325.10997-.06511.22765-.06433.34635v.00161c-.00236.23929.0874.46975.24954.64069.16213.17095.38336.26837.61503.27084h.00454Zm2.23379-1.11443c.41074 0 .74633-.34894.74633-.78164 0-.43271-.33485-.78165-.74633-.78165-.41149 0-.74633.34894-.74633.78165 0 .4327.33558.78164.74633.78164Zm.91301 2.34649c.41372 0 .74856-.3513.74856-.784 0-.43269-.33484-.78393-.74856-.78393s-.74857.35124-.74857.78393c0 .4327.33485.784.74857.784Zm2.0329-.4873c.1701-.0015.3326-.0726.452-.1978.1193-.1253.1855-.29433.1842-.47002.0013-.0863-.0139-.17201-.0447-.25224-.0308-.08024-.0766-.15342-.1348-.21538-.0581-.06195-.1276-.11146-.2043-.14571-.0767-.03425-.1591-.05255-.2427-.05387-.0835-.00133-.1665.01436-.2442.04616-.0777.03181-.14851.0791-.2085.13919-.05998.06008-.10792.13178-.14107.211-.03316.07922-.05088.16441-.05216.25071v.02014c-.00196.17508.06348.34382.18193.46902.11846.1253.2802.1968.4497.1989l.0046-.0001Zm1.756.0061c.3036 0 .5499-.2567.5499-.57332 0-.31665-.2463-.57336-.5499-.57336-.1472 0-.2884.06041-.3925.16794-.1041.10752-.1625.25336-.1625.40542 0 .15207.0584.29792.1625.40542.1041.1075.2453.1679.3925.1679Zm1.451.3451c.2538 0 .4636-.2159.4636-.4842 0-.26821-.2068-.48418-.4636-.48418-.1235.001-.2417.0525-.3285.14325-.0869.09074-.1354.21333-.135.34093.0029.2652.2091.4842.4635.4842Zm.189-1.76616c.1077-.00079.2106-.04567.2862-.12478.0756-.07912.1178-.18599.1171-.29716 0-.23288-.1808-.42195-.4033-.42195-.2224 0-.4033.18907-.4033.42195-.0006.11117.0416.21804.1172.29716.0756.07911.1785.12399.2861.12478Zm-1.1161-.57797c.1232-.00031.2412-.05111.3281-.14123.0869-.09012.1357-.2122.1355-.33941-.0001-.12722-.0492-.24917-.1363-.33906-.0872-.0899-.2053-.1404-.3285-.1404-.1231 0-.2412.0505-.3284.1404-.0871.08989-.1362.21184-.1363.33906-.0002.12721.0486.24929.1355.33941.0869.09012.2049.14092.3281.14123h.0023Zm-1.4339-.35047c.1454-.00121.2844-.06193.3865-.16884.1021-.1069.159-.25127.1582-.40144 0-.31665-.2433-.57028-.5447-.57028-.3013 0-.5447.2567-.5447.57028-.0006.07429.013.14797.04.21683.027.06886.0668.13156.1173.18452.0504.05295.1105.09513.1767.12412.0662.02898.1373.04421.2092.04481h.0015Zm-1.75308.00231c.35344 0 .63848-.29974.63848-.66789s-.28504-.66789-.63848-.66789c-.35345 0-.63844.29974-.63844.66789-.0006.17586.06622.34482.18584.46997.11963.12514.28234.1963.4526.19792ZM7.04619 6.3406c.40033 0 .72252-.33818.72252-.75705s-.32443-.75705-.72252-.75705c-.40032 0-.72252.33818-.72252.75705s.32443.75705.72252.75705Zm2.03214-.45884c.35344 0 .63843-.29975.63843-.6679 0-.36814-.28499-.66789-.63843-.66789-.35345 0-.63844.29975-.63844.66789 0 .36815.28499.6679.63844.6679Zm1.75537.00845c.3035 0 .5498-.2567.5498-.57566 0-.31896-.2463-.57567-.5498-.57567-.0726.00041-.1445.01558-.2114.04465-.0669.02907-.1276.07147-.1787.12478-.0511.05332-.0915.11649-.1189.18593-.0274.06944-.0413.14378-.0409.21877v.00154c-.0006.15154.0569.29717.1599.40504.103.10788.2432.16922.39.17062Zm1.4405.34279c.2567 0 .4636-.21597.4636-.48421 0-.26823-.2069-.4842-.4636-.4842-.1243 0-.2435.05101-.3314.14182-.088.09081-.1374.21396-.1374.34238s.0494.25158.1374.34239c.0879.0908.2071.14182.3314.14182Zm1.1065.59334c.1104-.00082.216-.04684.2935-.12797.0776-.08112.1208-.19072.1202-.30474 0-.24057-.186-.43271-.4137-.43271s-.4137.19445-.4137.43271c0 .23826.186.43271.4137.43271Zm.8118.68095c.045-.0003.0894-.00974.1308-.02779.0415-.01805.079-.04434.1106-.07739.0316-.03304.0565-.07218.0735-.11519.0169-.04301.0255-.08905.0252-.13548v-.00077c.0004-.04642-.0081-.09248-.0249-.13553-.0169-.04305-.0418-.08225-.0733-.11536-.0315-.03312-.069-.0595-.1104-.07764-.0414-.01814-.0858-.02768-.1307-.02809h-.0008c-.0449.00031-.0894.00975-.1308.0278-.0414.01804-.079.04434-.1106.07738-.0315.03305-.0565.07219-.0734.1152-.017.04301-.0255.08905-.0252.13548v.00076c-.0007.04613.0074.09194.0238.13482.0165.04288.041.082.0721.11511.0311.03311.0682.05957.1092.07786.041.01829.0851.02807.1297.02876h.0054l-.0002.00007Z" fill="#000"/></svg>