<svg width="24" height="24" viewBox="0 0 24 24" fill="none" xmlns="http://www.w3.org/2000/svg"><g clip-path="url(#clip0_113_576)"><path d="M12 22c5.5228 0 10-4.4772 10-10 0-5.52285-4.4772-10-10-10C6.47715 2 2 6.47715 2 12c0 5.5228 4.47715 10 10 10Z" fill="#00D4D5"/><path d="M12.3244 5.125v3.41062l2.9612-1.70312-2.9612-1.7075Z" fill="#fff"/><path opacity=".9" d="M15.2856 6.83252v3.41058l2.9606-1.70746-2.9606-1.70312Z" fill="#fff"/><path opacity=".8" d="M12.3244 8.53564v3.41066l2.9612-1.7032-2.9612-1.70746Zm2.9612 1.70816v3.41l2.9606-1.7075-2.9606-1.7025Z" fill="#fff"/><path opacity=".8" d="M12.3244 11.9462v3.4107l2.9612-1.7032-2.9612-1.7075Z" fill="#fff"/><path d="M15.2856 13.6537v3.4107l2.9606-1.7075-2.9606-1.7032Z" fill="#fff"/><path opacity=".4" d="M4.67062 8.42065v3.41065l2.96126-1.7075-2.96126-1.70315Z" fill="#fff"/><path opacity=".2" d="M8.40625 9.68872v3.41058l2.95625-1.7031-2.95625-1.70748Z" fill="#fff"/><path opacity=".3" d="M6.21125 11.8456v3.4107l2.96063-1.7075-2.96063-1.7032Z" fill="#fff"/><path opacity=".9" d="M8.1625 14.4194V17.83l2.9563-1.7075-2.9563-1.7031Z" fill="#fff"/><path opacity=".7" d="M12.3 15.8875v3.4113l2.9562-1.7082L12.3 15.8875Z" fill="#fff"/><path opacity=".9" d="M8.89937 8.00439v3.41121l2.95623-1.70308-2.95623-1.70813Z" fill="#fff"/><path opacity=".8" d="M12.3244 5.125v3.41062L9.36312 6.8325 12.3244 5.125Z" fill="#fff"/><path opacity=".6" d="M8.89937 6.57501v3.41L5.9375 8.27751l2.96187-1.7025ZM11.8606 8.26251v3.41129L8.89937 9.96564l2.96123-1.70313Z" fill="#fff"/><path opacity=".95" d="M8.3925 9.68872v3.41058l-2.96125-1.7031L8.3925 9.68872Z" fill="#fff"/><path opacity=".6" d="M12.3244 11.9462v3.4107l-2.95628-1.7032 2.95628-1.7075Z" fill="#fff"/><path opacity=".55" d="M6.21125 12.7406v3.4106L3.25 14.4431l2.96125-1.7025Z" fill="#fff"/><path d="M18.2462 8.53564v3.41066l-2.9606-1.7032 2.9606-1.70746Z" fill="#fff"/><path opacity=".95" d="M15.2856 10.2438v3.41l-2.9612-1.7075 2.9612-1.7025Z" fill="#fff"/><path opacity=".9" d="M18.2462 11.9462v3.4107l-2.9606-1.7032 2.9606-1.7075Z" fill="#fff"/><path opacity=".7" d="M15.2856 13.6537v3.4107l-2.9612-1.7075 2.9612-1.7032Z" fill="#fff"/><path opacity=".4" d="M11.6687 15.075v3.4106l-2.96057-1.7031 2.96057-1.7075Z" fill="#fff"/><path d="M15.2856 6.83252v3.41058l-2.9612-1.70746 2.9612-1.70312Z" fill="#fff"/></g><defs><clipPath id="clip0_113_576"><path fill="#fff" d="M2 2h20v20H2z"/></clipPath></defs></svg>