<svg width="24" height="24" viewBox="0 0 24 24" fill="none" xmlns="http://www.w3.org/2000/svg"><circle cx="12" cy="12" r="10" fill="#000"/><path d="M6.0802 9.57134c.36516-.37257.93417-.45544 1.39042-.20248l4.75168 2.69984-4.76518 2.6998c-.45643.252-1.02482.1693-1.39042-.2025.0135 0 .0135-5.31864.0135-4.99466Z" fill="url(#paint0_linear_133_96)"/><path d="M17.3925 8.19433c.1302.48573-.0868.99773-.5264 1.24193l-4.6438 2.63234-4.76518-2.69984c-.45642-.252-1.02482-.16922-1.39041.20249.00642-.59147.33159-1.13341.85045-1.41741l4.37374-2.48386c.5232-.29704 1.1641-.29704 1.6874 0l4.4142 2.52435Z" fill="url(#paint1_linear_133_96)"/><path d="m7.45712 14.7684 9.40898-5.3322c.4454-.25648.5534-.76945.4319-1.24193.4995.29699.702.83696.702 1.40392v4.95421c0 .594-.2295 1.1339-.7425 1.4309l-4.3197 2.4704c-.5137.2968-1.1468.2968-1.6604 0l-4.37375-2.4704c-.5071-.2942-.82427-.8313-.83695-1.4174.3656.3717.93399.4545 1.39042.2025Z" fill="url(#paint2_linear_133_96)"/><defs><linearGradient id="paint0_linear_133_96" x1="9.20602" y1="16.2204" x2="11.5361" y2="11.4972" gradientUnits="userSpaceOnUse"><stop stop-color="#00DAD9"/><stop offset="1" stop-color="#095FA7"/></linearGradient><linearGradient id="paint1_linear_133_96" x1="5.68884" y1="7.1383" x2="6.79634" y2="12.7878" gradientUnits="userSpaceOnUse"><stop stop-color="#0BF7DF"/><stop offset="1" stop-color="#0095FF"/></linearGradient><linearGradient id="paint2_linear_133_96" x1="14.5409" y1="5.46162" x2="4.80118" y2="14.3003" gradientUnits="userSpaceOnUse"><stop stop-color="#00FCC6"/><stop offset="1" stop-color="#0095FF"/></linearGradient></defs></svg>