<svg width="24" height="24" viewBox="0 0 24 24" fill="none" xmlns="http://www.w3.org/2000/svg"><path d="m8.07 16.494-4.588.516 2.694-6.216-2.758-3.76005 6.706-.764 1.822-4.18999 3.992 5.42599 4.588-.516-2.682 6.18605 2.738 3.734-6.672.76-1.85 4.25-3.99-5.426Zm1.906-.412c-.176.086-.364.158-.558.212l-.176.048 2.586 3.516.918-2.112-.166-.022c-.904-.114-1.726-.602-2.256-1.334l-.258-.356-.09.048Zm-.9-3.188 2.086 2.886c.424.586 1.11.936 1.834.936.084 0 .168-.004.25-.014l5.444-.62-2.168-2.958c-.108-.146-.232-.278-.37-.394l-.128-.106-1.552 3.506-2.7-3.574-2.696.338Zm.09-3.51405c-.808.086-1.512.604-1.836 1.35205l-2.186 5.046 3.632-.408c.18-.02.356-.062.526-.124l.156-.058-2.248-3.104 4.432-.562 1.054-2.51805-3.53.376Zm3.43 2.54605 1.642 2.174 1.002-2.262.44-.996c.33-.746.236-1.61605-.248-2.27205l-3.254-4.42799-1.464 3.36399c-.072.166-.124.34-.156.52l-.028.164 3.798-.402-1.732 4.13805Zm3.99-3.44805.064.154c.352.842.344 1.80205-.024 2.63205l-.178.4.086.058c.164.11.318.238.46.38l.13.128 1.738-4.01005-2.276.258Zm-11.276-.616 1.384 1.888.102-.132c.55-.714 1.376-1.178 2.262-1.272l.434-.046.008-.106c.014-.218.052-.436.11-.648l.05-.18-4.35.496Z" fill="url(#paint0_linear_133_95)"/><path d="M11.0321 22c-2.88004-.278-5.46804-1.776-7.16204-4.15l1.16-.13c.192.236.396.462.606.674 1.258 1.264 2.832 2.116 4.55804 2.468l.838 1.138Z" fill="url(#paint1_linear_133_95)"/><path d="M13.4479 20.926c1.868-.302 3.566-1.176 4.916-2.532.12-.122.242-.252.364-.388l1.406-.16c-1.688 2.372-4.272 3.872-7.152 4.154l.466-1.074Z" fill="url(#paint2_linear_133_95)"/><path d="M20.42 15.2059c.384-1.022.58-2.1.58-3.206 0-.9759-.154-1.9359-.456-2.85194l.564-1.3C21.7 9.15396 22 10.55 22 11.9999c0 1.448-.3 2.842-.89 4.148l-.69-.942Z" fill="url(#paint3_linear_133_95)"/><path d="M2.896 16.162C2.302 14.852 2 13.454 2 12c0-1.462.304-2.86801.906-4.18201l.688.94C3.2 9.78999 3 10.88 3 12c0 .98.154 1.942.458 2.862l-.562 1.3Z" fill="url(#paint4_linear_133_95)"/><path d="M3.91203 6.092c1.692-2.336 4.26-3.816 7.11397-4.092l-.466 1.072c-1.86997.3-3.57197 1.176-4.92397 2.534-.102.102-.204.212-.306.324l-1.418.162Z" fill="url(#paint5_linear_133_95)"/><path d="M18.9721 6.28c-.192-.236-.396-.462-.608-.674-1.256-1.262-2.828-2.114-4.55-2.466L12.9761 2c2.878.28 5.462 1.778 7.154 4.15l-1.158.13Z" fill="url(#paint6_linear_133_95)"/><defs><linearGradient id="paint0_linear_133_95" x1="3.92195" y1="20.05" x2="19.5215" y2="4.45041" gradientUnits="userSpaceOnUse"><stop stop-color="#009DDE"/><stop offset=".5" stop-color="#694D9F"/><stop offset="1" stop-color="#ED3554"/></linearGradient><linearGradient id="paint1_linear_133_95" x1="5.62401" y1="21.7521" x2="21.2236" y2="6.15248" gradientUnits="userSpaceOnUse"><stop stop-color="#009DDE"/><stop offset=".5" stop-color="#694D9F"/><stop offset="1" stop-color="#ED3554"/></linearGradient><linearGradient id="paint2_linear_133_95" x1="10.0744" y1="26.2026" x2="25.674" y2="10.603" gradientUnits="userSpaceOnUse"><stop stop-color="#009DDE"/><stop offset=".5" stop-color="#694D9F"/><stop offset="1" stop-color="#ED3554"/></linearGradient><linearGradient id="paint3_linear_133_95" x1="8.48947" y1="24.6175" x2="24.089" y2="9.0179" gradientUnits="userSpaceOnUse"><stop stop-color="#009DDE"/><stop offset=".5" stop-color="#694D9F"/><stop offset="1" stop-color="#ED3554"/></linearGradient><linearGradient id="paint4_linear_133_95" x1="-.618552" y1="15.5095" x2="14.981" y2="-.0900762" gradientUnits="userSpaceOnUse"><stop stop-color="#009DDE"/><stop offset=".5" stop-color="#694D9F"/><stop offset="1" stop-color="#ED3554"/></linearGradient><linearGradient id="paint5_linear_133_95" x1="-2.20032" y1="13.9278" x2="13.3993" y2="-1.67184" gradientUnits="userSpaceOnUse"><stop stop-color="#009DDE"/><stop offset=".5" stop-color="#694D9F"/><stop offset="1" stop-color="#ED3554"/></linearGradient><linearGradient id="paint6_linear_133_95" x1="2.25005" y1="18.378" x2="17.8497" y2="2.77846" gradientUnits="userSpaceOnUse"><stop stop-color="#009DDE"/><stop offset=".5" stop-color="#694D9F"/><stop offset="1" stop-color="#ED3554"/></linearGradient></defs></svg>