<svg width="24" height="24" viewBox="0 0 24 24" fill="none" xmlns="http://www.w3.org/2000/svg"><circle cx="12" cy="12" r="10" fill="#000"/><path d="m19.0667 11.8-1.9667.05H17.0167l-.0333.0167h-.0167c-.0167 0-.0167.0167-.0333.0167l-1.85 1.5333-2.7667-1.5833v-1.5l2.75.25H15.15c.0167 0 .0334 0 .05-.0167h.0167l.0167-.0167 1.3166-.76663 2.1667.95003c.1333.05.2833 0 .35-.1334.0667-.1333 0-.2833-.1333-.35l-1.8167-.78329 1.1167-.63334c.1333-.06666.1666-.23333.1-.36666-.0667-.13334-.2334-.16667-.3667-.1l-2.6833 1.53333-.35-1.93333L17.1 7.53337c.1-.01666.1834-.08333.2-.16666.0334-.1.0167-.2-.05-.26667-.0666-.06667-.1666-.1-.25-.08333l-1.85.38333.7167-1.23333c.05-.08334.05-.18334 0-.26667-.05-.08333-.1333-.13333-.2333-.13333s-.1834.05-.2334.13333l-.9666 1.63333c-.0167.01667-.0167.03334-.0167.05-.05.06667-.0833.13334-.0667.21667l.4 2.21666-2.45-.21666V6.96671l1.75-1.43334c.1167-.1.1334-.26666.05-.36666-.0833-.1-.25-.13334-.35-.05l-1.4166 1.16666v-1.2c0-.13333-.1167-.25-.2667-.25s-.25.11667-.2667.25v2.98334L10 7.48337l.5834-2.1c.0333-.13333-.0334-.28333-.1834-.33333-.15-.05-.2833.03333-.3333.18333l-.50001 1.8-.78333-1.16666c-.08333-.11667-.25-.15-.36667-.06667-.11666.08333-.15.25-.06666.36667l1.1 1.63333.01666.01667.01667.01666.01667.01667.01666.01667c.01667 0 .01667.01666.03334.01666h.01666c.01667 0 .01667.01667.03334.01667l2.21667.71667v3.21669l-1.35.7833-1.18334-2.45c-.01667-.0167-.01667-.0333-.03333-.05L9.23336 10.1c-.01667-.0166-.03333-.0333-.05-.0333l-1.31667-.76666-.3-2.36667c-.01666-.1-.06666-.16666-.16666-.21666-.08334-.03334-.18334-.01667-.26667.03333-.08333.05-.11667.15-.1.25l.25 1.96667-1.11667-.65c-.13333-.06667-.28333-.01667-.35.1-.06666.11666-.03333.28333.08334.35l2.7 1.56669-1.48334 1.2833-1.48333-1.66666c-.1-.11667-.26667-.11667-.36667-.01667-.1.10003-.11666.26663-.01666.36663l1.26666 1.4H5.10003c-.15.0167-.26667.1334-.26667.2834s.11667.2666.26667.2666h1.95c.08333.0167.16666 0 .21666-.0666l1.7-1.4834 1.01667 2.1834L7.45003 14.35l-1.9-.9c-.13334-.05-.28334 0-.33334.1334-.05.1333-.01666.2833.11667.35l1.56667.75-.98334.5666c-.13333.0667-.16666.2334-.1.3667.06667.1333.23334.1667.36667.1L7.60003 14.9l1.23333-.7166.26667 1.9333-2.13334.3667c-.13333.0333-.23333.1666-.2.3.01667.1333.15.2333.28334.2166l1.81666-.3333-.71666 1.2167c-.06667.1333-.03334.2833.1.3666.13333.0667.28333.0334.36666-.1l1-1.7v-.0166l.01667-.0167c0-.0167 0-.0167.01667-.0333V16.2667l-.31667-2.4 2.75004-1.5833 1.1333.6666-1.5 2.3334V15.3167c0 .0167-.0167.0167-.0167.0333 0 .0167 0 .0334-.0166.05v.05l.0333 1.5334-1.85001 1.4833c-.11666.0833-.13333.25-.03333.3667.08333.1166.25004.1333.36664.0333l1.5334-1.2333.0333 1.3c.0167.1333.1333.25.2667.25.1333 0 .25-.1167.25-.2667l-.1-3.1167 1.8666.6-.6333 2.1334c-.0333.1-.0167.2.05.2666.0667.0667.1667.1.25.0834.0833-.0167.1667-.1.1833-.2l.5334-1.8167.7333 1.2c.05.0833.1333.1333.2333.1333s.1834-.05.2167-.1333c.05-.0833.0333-.1833 0-.2667l-.95-1.6333c-.0167-.0167-.0167-.0333-.0333-.05-.0334-.0833-.0834-.1333-.1667-.1667l-2.1333-.6833L13.6667 13.2 16.4 14.8l.1667 2.2167c.0167.1333.1333.2333.2833.2333s.25-.1333.25-.2666l-.1333-1.85.9833.5666c.0834.05.1834.05.2667 0 .0833-.05.1333-.1333.1333-.2333s-.05-.1833-.1333-.2333L16.8 14.4167l-1.2-.7 1.5-1.25L18.5334 14.1c.1.1167.2666.1167.3666.0167.1167-.1.1167-.2667.0167-.3667l-1.25-1.3833 1.4-.0333c.15 0 .2667-.1334.2667-.2667 0-.1667-.1334-.2833-.2667-.2667Z" fill="#1AEEC2"/></svg>