<svg width="24" height="24" viewBox="0 0 24 24" fill="none" xmlns="http://www.w3.org/2000/svg"><path opacity=".2" d="M5.40367 17.997 6.42196 21l6.98984-9-6.98984-9-1.06793 2.93783 4.64311 6.06057-4.59347 5.9986Z" fill="#FF564F"/><path d="M20.3033 20.9984h-3.3171l-6.99159-9L16.9862 3h3.3171l-6.8932 8.9984 6.8932 9Z" fill="#F08179"/><path d="M3.76173 3h2.65864v17.9984H3.76173V3ZM20.3059 20.9984h-3.3171l-6.99161-9L16.9888 3h3.3171l-6.8932 8.9984 6.8932 9Z" fill="#FF564F"/><path d="M20.3059 20.9984h-3.3171l-6.99161-9L16.9888 3h3.3171l-6.8932 8.9984 6.8932 9Z" fill="#FF564F"/><path d="M20.3059 20.9984h-3.3171l-6.99161-9L16.9888 3h3.3171l-6.8932 8.9984 6.8932 9Z" fill="#FF564F"/><path d="M20.3059 20.9984h-3.3171l-6.99161-9L16.9888 3h3.3171l-6.8932 8.9984 6.8932 9Z" fill="#FF564F"/></svg>