<svg width="24" height="24" viewBox="0 0 24 24" fill="none" xmlns="http://www.w3.org/2000/svg"><path d="M12 22c5.523 0 10-4.477 10-10S17.523 2 12 2 2 6.477 2 12s4.477 10 10 10Z" fill="#fff"/><path fill-rule="evenodd" clip-rule="evenodd" d="M2 12C2 6.49231 6.49231 2 12 2c5.5077 0 10 4.49231 10 10 0 5.5077-4.4923 10-10 10-5.50769 0-10-4.4923-10-10Zm13.5692-2.24613h.6154l.0615-1.75384h-4.0615v1.75384H12.8l-1.2616 1.47693h-.5231V9.75387h.7077V8.00003h-.9538v.67692h-.5231v-.67692h-.95383v.67692h-.52308v-.67692h-.98462v1.78461h.86154v4.46156h-.86154v1.7846h3.90773v-1.7846h-.7077v-1.4769h.5231l1.2615 1.4153h-.6154v1.7847h4.0308v-1.7847h-.6154l-1.9077-2.2153 1.9077-2.21543Z" fill="#000"/></svg>