<svg width="24" height="24" viewBox="0 0 24 24" fill="none" xmlns="http://www.w3.org/2000/svg"><path d="M11.3712 3.32062c1.7332-.11163 3.4958.23501 5.0528 1.01056 2.2973 1.12807 4.1245 3.16682 4.9882 5.56984.3819 1.06348.5875 2.18558.5875 3.31368v4.1891c0 .1704.0059.3467-.0352.5112-.094.423-.3937.7932-.7932.9753-.2762.1293-.5934.1469-.8872.0999-.6404-.1175-1.1339-.7168-1.1398-1.3631-.0059-1.2984 0-2.5969 0-3.9012.0117-.3702.0117-.7638-.188-1.087-.3232-.5993-1.1105-.8871-1.7391-.6286-.5347.188-.9225.7285-.9283 1.2984-.0059 1.322 0 2.6381 0 3.9541 0 .2468.0117.4994-.0588.7345-.1351.4641-.5229.8401-.987.9694-.6111.1704-1.3103-.0999-1.6216-.6639-.2116-.3408-.1939-.7521-.1881-1.1281-.0058-1.3102.0059-2.6204-.0058-3.9306-.0118-.6639-.5582-1.2632-1.2221-1.3513-.4289-.0647-.8813.0763-1.1927.3819-.282.2644-.4407.6462-.4407 1.034v3.819c-.0058.3231.0353.6522-.0881.9518-.188.5464-.74028.9459-1.32194.9283-.59341.0353-1.17507-.376-1.36308-.9342-.10576-.2761-.08226-.5699-.08226-.8636 0-1.3161.00588-2.6322 0-3.9542-.00587-.6521-.51116-1.2455-1.15157-1.363-.57578-.1234-1.2162.1703-1.50997.6933-.12338.2173-.18801.47-.18801.7167v4.2773c.00588.4172-.18801.8284-.50528 1.0928-.48178.423-1.2632.4466-1.77435.0588C2.21739 18.479 2 18.0501 2 17.6036v-4.3301c.00588-1.6393.41715-3.2726 1.19857-4.71206.64042-1.17508 1.51584-2.22676 2.56753-3.06106C7.35245 4.21367 9.33832 3.444 11.3712 3.32062Z" fill="#5442D1"/></svg>