<svg width="24" height="24" viewBox="0 0 24 24" fill="none" xmlns="http://www.w3.org/2000/svg"><path d="M21 3H3v18h18V3Z" fill="#000" stroke="#000" stroke-width=".728926" stroke-miterlimit="10"/><path d="M18.2631 8.1913c-.2127-.16773-.4664-.39682-.9286-.4541-.4337-.05727-.8755.23319-1.1741.42546-.2987.19227-.8632.75682-1.0964.92864-.2332.17182-.8304.33136-1.7918.90818S8.53902 12.9981 8.53902 12.9981l.98182.0123-4.37727 2.2541h.43772l-.63.4786s.55637.1473 1.02273-.1472v.135s5.21178-2.0537 6.21818-1.5219l-.6136.18c.0531 0 1.0431.0655 1.0431.0655.0241.205.093.4022.2019.5775.1089.1754.2551.3246.4281.437.5973.3928.6096.6096.6096.6096s-.3109.1268-.3109.2863c0 0 .4582-.139.8836-.1268.27.0103.5379.0528.7978.1268 0 0-.0328-.1718-.446-.2863-.4131-.1146-.8222-.5646-1.0227-.81-.1228-.1563-.2028-.3418-.2322-.5383-.0294-.1965-.0072-.3973.0645-.5826.1432-.3723.6423-.5768 1.6732-1.1087 1.215-.63 1.4932-1.0963 1.665-1.4604.1718-.3641.4254-1.0882.5686-1.4278.18-.43768.4009-.67087.585-.80996.1841-.13909 1.0023-.44591 1.0023-.44591s-.6259-.54409-.8264-.70363Z" fill="#fff"/></svg>