<svg width="24" height="24" viewBox="0 0 24 24" fill="none" xmlns="http://www.w3.org/2000/svg"><path fill-rule="evenodd" clip-rule="evenodd" d="m9.05802 12.0016 5.18998 5.3321 3.2761-3.365c.586-.5414 1.482-.5179 2.0393.0547.5573.5726.5813 1.4935.0533 2.0952l-4.3226 4.4416c-.2808.2821-.6561.4398-1.0467.4398-.3906 0-.766-.1577-1.0467-.4398l-6.23669-6.4087v3.8088c0 .8406-.664 1.5226-1.482 1.5226C4.66334 19.4829 4 18.8009 4 17.9603V6.03808c0-.84055.66334-1.52186 1.48201-1.52186.818 0 1.482.68131 1.482 1.52186v3.80883L13.2 3.44024C13.4805 3.15789 13.8558 3 14.2464 3c.3906 0 .7659.15789 1.0463.44024l4.3267 4.44098c.5273.60169.504 1.52187-.0533 2.09448-.5574.5726-1.4534.5968-2.0394.0547l-3.276-3.36501-5.19268 5.33621Zm5.19268-1.5239c-.6 0-1.1413.3711-1.3713.9402-.23.5699-.1027 1.2249.3213 1.6611.424.4362 1.062.5664 1.6167.3309.27-.1138.5013-.3085.6645-.5593.1631-.2508.2506-.5463.2515-.849 0-.4036-.156-.7914-.434-1.0773-.278-.286-.6554-.4466-1.0487-.4473v.0007Z" fill="#23AF91"/></svg>