<svg width="24" height="24" viewBox="0 0 24 24" fill="none" xmlns="http://www.w3.org/2000/svg"><path d="M12 22c5.5228 0 10-4.4772 10-10 0-5.52285-4.4772-10-10-10C6.47715 2 2 6.47715 2 12c0 5.5228 4.47715 10 10 10Z" fill="#0080CA"/><path d="M14.6457 13.3133c.7698 0 1.3939-.6314 1.3939-1.4102 0-.7789-.6241-1.4103-1.3939-1.4103-.7698 0-1.3938.6314-1.3938 1.4103 0 .7788.624 1.4102 1.3938 1.4102Z" fill="#fff"/><path d="m18.456 13.9864-.041-.0642-.0109-.0178c-.1529-.2402-.1993-.2907-.273-.4013-1.0198-1.57-.4369-2.5789.0218-3.0935.056-.0628.1079-.1366.1556-.1939.07-.0809.13-.1698.1789-.26484l.0082-.01366c.0926-.18505.1394-.38966.1365-.59658-.0305-.33959-.1869-.65549-.4385-.88556-.2517-.23007-.5803-.35765-.9212-.35765-.341 0-.6696.12758-.9212.35765-.2517.23007-.4081.54597-.4386.88556 0 .2263.0573.44893.1666.64709.0164.03279.0942.13649.1024.15429.0166.026.0358.0502.0573.0723.0474.0587.0985.1144.1529.1666.1354.1506.2536.3159.3522.4928.1957.401.2769.8482.2348 1.2923-.0422.4442-.2061.8681-.4737 1.2251l-.3385.486c-.0108.014-.0208.0286-.0301.0437l-.0082.0109c-.1373.2176-.208.4705-.2034.7277.0305.3396.1869.6555.4386.8855.2516.2301.5802.3577.9212.3577.3409 0 .6695-.1276.9212-.3577.2516-.23.408-.5459.4385-.8855-.0003-.2368-.0639-.4692-.1843-.673h-.0041ZM13.1768 13.9863l-.0396-.0641-.0123-.0178c-.1529-.2402-.1993-.2908-.273-.4013-1.0198-1.57-.4369-2.5789.0218-3.0936.056-.0628.1079-.1365.1557-.1938.0699-.0809.1299-.1698.1788-.26486l.0082-.01365c.0912-.18556.138-.38982.1365-.59659.0039-.20996-.0406-.418-.1302-.60794-.0896-.18994-.2218-.35664-.3863-.48716-.1645-.13051-.3569-.22131-.5623-.26534-.2053-.04402-.418-.04008-.6216.01152-.2035.0516-.3925.14946-.552.28598-.1596.13652-.2855.30801-.368.50113-.0825.19313-.1193.40268-.1076.61235.0117.20968.0716.41382.1751.59656.0164.0328.0942.1365.1024.1543.0166.026.0358.0502.0573.0723.0474.0587.0985.1144.1529.1666.1368.1505.2563.3158.3563.4928.1965.4004.2788.8472.2378 1.2913-.0409.4442-.2035.8684-.4698 1.2261-.0823.1167-.1736.2267-.2731.329l-.0232.0232c-.1518.137-.3184.2566-.4969.3563-1.42254.6785-2.57339-.2593-2.57339-.2593l-.11604-.0956c-.08615-.067-.15966-.1488-.21707-.2416-1.01979-1.57-.43686-2.5789.02185-3.0936.05597-.0628.10785-.1365.15563-.1938.06992-.0809.12995-.1698.17884-.26486l.00819-.01365c.09426-.18474.14339-.38919.14334-.59659-.03046-.33959-.1869-.65548-.43853-.88555-.25163-.23007-.58024-.35765-.92119-.35765-.34096 0-.66957.12758-.9212.35765-.25163.23007-.40807.54596-.43853.88555-.00005.22631.05725.44894.16655.6471.01638.0328.0942.1365.10239.1543.01659.026.03581.0502.05734.0723.04737.0587.09844.1144.1529.1666.13444.1508.25166.3161.34949.4928.19565.401.27687.8482.23472 1.2923-.04215.4442-.20604.8681-.47363 1.2251l-.17338.2458c-.13336.1274-.23949.2806-.312.4503-.0725.1696-.10987.3522-.10984.5367v.0314c.00483.2677.08828.5281.23996.7487.15169.2207.36491.3918.61313.4922.24822.1004.52048.1256.78291.0725.26242-.0532.50342-.1824.69301-.3714.06689-.0465.11058-.0792.17201-.1188 1.56997-1.0198 2.57884-.4369 3.09484.0218.041.0369.0847.0724.1284.1052.1908.187.4323.314.6946.3651.2623.0511.5338.0242.7809-.0776.2471-.1017.4589-.2738.6092-.4948.1502-.221.2323-.4812.2361-.7484-.0003-.2367-.0639-.4691-.1843-.673l-.0041.0095Z" fill="#fff"/></svg>