<svg width="24" height="24" viewBox="0 0 24 24" fill="none" xmlns="http://www.w3.org/2000/svg"><g clip-path="url(#clip0_133_88)"><path d="M12 22.0006c5.5228 0 10-4.4772 10-10 0-5.52287-4.4772-10.00002-10-10.00002-5.52285 0-10 4.47715-10 10.00002 0 5.5228 4.47715 10 10 10Z" fill="#000"/><path d="M6.16666 14.2255v2.865h4.35984v-.6353H6.80191v-2.2297h-.63525Zm10.95564 0v2.2297h-3.7246v.6351h4.3599v-2.8648h-.6353Zm-6.5895-4.36003v4.35983h2.8649v-.573h-2.2296V9.86547h-.6353ZM6.16666 7.00043v2.86504h.63525V7.63568h3.72459v-.63525H6.16666Zm7.23104 0v.63525h3.7246v2.22979h.6353V7.00043h-4.3599Z" fill="#fff"/></g><defs><clipPath id="clip0_133_88"><path fill="#fff" d="M2 2h20v20H2z"/></clipPath></defs></svg>