<svg width="24" height="24" viewBox="0 0 24 24" fill="none" xmlns="http://www.w3.org/2000/svg"><path d="M8.35525 2c-.09188-.00026-.18291.01767-.26788.05278-.08498.03511-.16224.0867-.22737.15183-.06513.06514-.11686.14253-.15221.22776-.03536.08523-.05366.17663-.05386.26898v2.94423c.00033.14206.0285.28265.08291.41376s.13398.25016.23418.35035c.1002.10019.21905.17956.34978.23356.13072.05401.27075.08161.41208.08121h2.10502c.1414-.0004.2815.0272.4123.08123.1308.05402.2498.13342.3501.23365.1002.10023.1799.21933.2344.3505.0545.13118.0827.27185.0831.414v3.19966c.0002.1422.0283.283.0827.4143.0543.1313.1339.2506.2342.351.1002.1004.2192.1799.35.2341.1309.0541.2711.0818.4126.0815h3.2005c.2854-.0007.5593.1125.7616.3147.2023.2022.3165.4769.3174.7636v2.1041c.0002.1422.0283.2829.0827.4142.0543.1312.1339.2504.2342.3507s.2192.1798.3501.2338c.1308.0541.271.0816.4125.0812h2.9419c.0919.0002.183-.0177.268-.0528.0851-.0352.1624-.0868.2276-.152.0652-.0652.1169-.1426.1523-.2279.0354-.0853.0537-.1768.0539-.2692V2.70287c-.0001-.09241-.0182-.1839-.0535-.26925-.0353-.08534-.0869-.16287-.152-.22814-.0651-.06528-.1423-.11702-.2273-.15228-.085-.03525-.1761-.05333-.268-.0532H8.35525Zm-.77392 13.6732V8.95923c-.00007-.14209-.028-.28279-.08219-.41403-.0542-.13124-.1336-.25046-.23366-.35085-.10006-.10038-.21883-.17996-.34951-.23419-.13068-.05422-.27071-.08203-.41209-.08183H2.70183c-.09203-.00027-.18321.01771-.26831.05291-.08511.0352-.16247.08692-.22766.15221-.06519.06528-.11693.14285-.15225.22826-.03533.08542-.05354.17699-.05361.26949v12.7195c.00067.1865.07494.3652.20651.4968.13158.1316.30971.2053.49532.205H15.6453c.0919.0003.1829-.0176.268-.0528.085-.0351.1622-.0868.2274-.152.0651-.0651.1168-.1426.1522-.2279.0353-.0853.0535-.1767.0537-.2691v-3.4682c-.0004-.1422-.0285-.2828-.083-.414-.0544-.1312-.134-.2503-.2343-.3505-.1002-.1002-.2191-.1796-.3499-.2337-.1308-.054-.2709-.0816-.4123-.0812H8.6623c-.28554.0007-.55965-.1127-.76207-.3151-.20243-.2024-.31659-.4773-.31739-.7643" fill="#0090FF"/></svg>