<svg width="24" height="24" viewBox="0 0 24 24" fill="none" xmlns="http://www.w3.org/2000/svg"><path d="M11.9688 21.9998c-5.5519-.0321-9.99984-4.4867-9.96864-10.0154 0-5.5609 4.51126-10.01549 10.03104-9.98424 5.5528.03125 10.0007 4.51799 9.9686 10.04674-.0633 5.5296-4.5424 9.9842-10.031 9.9529Zm9.0528-9.9842c0-5.02333-4.0377-9.0672-9.0528-9.0672-4.98478 0-9.02252 4.04387-9.02252 9.036 0 5.0233 4.03774 9.0672 9.05372 9.0672 4.9839 0 9.0216-4.0448 9.0216-9.036Z" fill="silver"/><path d="M19.6652 12.0156c-.0633 4.2653-3.5009 7.7092-7.7286 7.677-4.29005-.0625-7.69644-3.5385-7.63312-7.7716C4.36588 7.65569 7.80439 4.27524 12 4.30649c4.2579.03214 7.6652 3.4751 7.6652 7.70911Zm-8.17 2.7483v-.0946c.2203-.8527.4102-1.6742.6314-2.5269.0312-.0634.0945-.158.189-.1902.2203-.0946.4414-.1893.6626-.2526.5047-.1259.7892-.4108.8516-.9161.0312-.2215.1257-.442.189-.6947-.5359.2205-1.0094.4107-1.5141.6.3469-1.35895.6625-2.62238 1.0094-3.94921h-2.8704c-.1891 0-.2524.06251-.3157.25269L9.00286 11.921c-.03579.0923-.10235.1703-.18904.2214-.28448.1259-.59924.2206-.8828.3474-.06331.0312-.15783.0625-.15783.0946-.12664.4107-.25236.8527-.4102 1.3268.4414-.1893.82039-.3482 1.26179-.5053-.28448 1.1053-.56804 2.1795-.85159 3.2545H15.912c.1569 0 .2202-.0321.2523-.1902.0624-.3161.157-.6312.2524-.9161.0624-.2214.0945-.4419.1569-.6946l-5.0784-.0956Z" fill="silver"/><path d="M11.4953 14.7639c1.7032.0322 3.3752.0634 5.0784.1268-.0624.2527-.1257.4732-.1569.6947-.0955.3161-.19.6009-.2524.917-.0321.158-.0954.1893-.2524.1893H7.77323c.28448-1.1063.56804-2.1483.8516-3.2546-.4414.158-.82039.3161-1.26179.5054.12664-.4733.25236-.884.41019-1.3269 0-.0625.09452-.0946.15784-.0946.28448-.1259.59924-.2214.8828-.3482.09452-.0304.18996-.125.18996-.2206l1.32327-4.92779c.0321-.18929.0945-.25268.3157-.25268h2.8704c-.3468 1.29468-.6625 2.59114-1.0094 3.94917.5047-.2205.9782-.4107 1.5142-.6-.0634.2527-.1579.4733-.1891.6947-.0633.5063-.3469.7902-.8516.917-.2202.0625-.4423.1571-.6625.2527-.0783.0468-.1432.1118-.1891.1893-.2211.8527-.4423 1.6741-.6313 2.5268v.0634l.0009-.0009Z" fill="#fff"/></svg>