<svg width="24" height="24" viewBox="0 0 24 24" fill="none" xmlns="http://www.w3.org/2000/svg"><path d="M12 22c5.5228 0 10-4.4772 10-10 0-5.52285-4.4772-10-10-10C6.47715 2 2 6.47715 2 12c0 5.5228 4.47715 10 10 10Z" fill="url(#paint0_linear_9_14727)"/><path d="M12 4.36841c-1.5094 0-2.98488.44758-4.23989 1.28615-1.25501.83857-2.23316 2.03046-2.81078 3.42495-.57762 1.39449-.72875 2.92889-.43428 4.40929.29447 1.4804 1.0213 2.8402 2.0886 3.9075 1.06729 1.0673 2.42711 1.7942 3.90745 2.0886 1.4804.2945 3.0149.1434 4.4094-.4343 1.3945-.5776 2.5863-1.5557 3.4249-2.8107.8386-1.255 1.2862-2.7305 1.2862-4.2399 0-2.02404-.8041-3.96516-2.2353-5.39636C15.9651 5.17245 14.024 4.36841 12 4.36841Zm0 13.15789c-1.093 0-2.16147-.3241-3.07027-.9314-.9088-.6072-1.61712-1.4703-2.03539-2.4801-.41827-1.0098-.52771-2.1209-.31448-3.1929.21323-1.07205.73956-2.05674 1.51243-2.82961.77287-.77287 1.75757-1.2992 2.82961-1.51243 1.072-.21324 2.1831-.1038 3.1929.31448 1.0098.41827 1.8729 1.12659 2.4801 2.03539.6073.9088.9314 1.97727.9314 3.07027 0 1.4657-.5822 2.8713-1.6186 3.9077S13.4657 17.5263 12 17.5263Z" fill="#fff"/><defs><linearGradient id="paint0_linear_9_14727" x1="12" y1="4.13947" x2="12" y2="24.1395" gradientUnits="userSpaceOnUse"><stop stop-color="#0089F5"/><stop offset="1" stop-color="#103161"/></linearGradient></defs></svg>