<svg width="24" height="24" viewBox="0 0 24 24" fill="none" xmlns="http://www.w3.org/2000/svg"><path d="M12 22c5.5228 0 10-4.4772 10-10 0-5.52285-4.4772-10-10-10C6.47715 2 2 6.47715 2 12c0 5.5228 4.47715 10 10 10Z" fill="#00B0FF"/><path d="M17 9.53813V15.11l-1.585.925v-3.7187L12 14.36l-3.415-2.0456v3.7206L7 15.11V9.5375l5 3.0031 5-3.0031v.00063Zm-4.9812 6.94807 1.4625-.8743 1.4437.8743-2.9062 1.7638-2.90505-1.7638 1.44375-.8743 1.4619.8743h-.0006Zm2.8874-8.97245-1.4443.87437L12 7.51375l-1.4619.87437-1.44373-.87437L12 5.75l2.9062 1.76375Z" fill="#fff"/></svg>