<svg width="24" height="24" viewBox="0 0 24 24" fill="none" xmlns="http://www.w3.org/2000/svg"><path d="M12 22c5.5228 0 10-4.4772 10-10 0-5.52285-4.4772-10-10-10C6.47715 2 2 6.47715 2 12c0 5.5228 4.47715 10 10 10Z" fill="#000"/><path d="m7.42063 15.7544 4.34747 2.735h.5263l4.2775-2.735-.6663-.5256-3.8918 2.4894-4.03192-2.4894-.56125.5256Zm2.10375-6.34559 2.45442-3.71688 2.5243 3.75188.5963-.52625-2.805-4.20688s-.2456-.31562-.6313 0l-2.87497 4.3125.73625.38563Z" fill="#fff" fill-opacity=".703"/><path d="M12.0488 16.912c.14-.4913.3156-.9469.4562-1.4375.6313-1.9638 1.2619-3.9625 1.8931-5.92564.035-.105.07-.24563.105-.35.07-.21125.175-.31625.3857-.31625.0914-.00241.1807.02814.2515.08609.0708.05794.1184.13941.1341.22953.175.70125.3156 1.43747.4906 2.13877.3156 1.3325.5963 2.7.9119 4.0319.07.3156-.035.5262-.2806.5962-.2457.07-.4207-.105-.4907-.4206-.3506-1.5075-.7012-3.0156-1.0168-4.5581 0-.07-.035-.105-.07-.2107-.0291.096-.0644.1899-.1057.2813-.6656 2.0331-1.2968 4.0669-1.9631 6.1-.105.3856-.2456.7362-.3506 1.1219-.07.2456-.2106.3506-.4206.3506-.2107 0-.3507-.105-.4207-.35-.7712-2.4194-1.5431-4.8388-2.27934-7.2581-.035-.07-.035-.105-.07-.2457-.06254.3173-.13256.633-.21.9469-.28125 1.2625-.56125 2.5594-.84187 3.8219-.07.35-.35.5256-.63125.35-.175-.105-.21-.28-.175-.4906.38562-1.7532.80625-3.5063 1.19187-5.2588.07-.28124.14063-.56124.175-.84187.07063-.28.21063-.42062.42125-.42062.21063 0 .35.14062.42063.42062.80621 2.52497 1.61251 5.08437 2.38441 7.60877h.105Z" fill="#fff"/></svg>