<svg width="24" height="24" viewBox="0 0 24 24" fill="none" xmlns="http://www.w3.org/2000/svg"><path d="M21.0037 2.61087 13.1998 8.4312l1.4431-3.43392 6.3608-2.38641Z" fill="#E2761B"/><path d="m2.988 2.61087 7.7412 5.87546-1.37257-3.48905L2.988 2.61087ZM18.1958 16.1024 16.1174 19.3l4.4471 1.2287 1.2784-4.3554-3.6471-.0709Zm-16.03133.0709 1.27059 4.3554L7.88212 19.3l-2.07843-3.1976-3.63922.0709Z" fill="#E4761B"/><path d="m7.63112 10.6995-1.23921 1.8823 4.41569.1969-.1569-4.76492-3.01958 2.68572Zm8.72938 0-3.0588-2.74085-.102 4.82005 4.4079-.1969-1.2471-1.8823ZM7.8821 19.3l2.651-1.2995-2.29021-1.7957L7.8821 19.3Zm5.5765-1.2995L16.1174 19.3l-.3686-3.0952-2.2902 1.7957Z" fill="#E4761B"/><path d="m16.1174 19.3-2.6589-1.2995.2118 1.7406-.0235.7324L16.1174 19.3Zm-8.23532 0 2.47062 1.1735-.0157-.7324.1961-1.7406L7.88208 19.3Z" fill="#D7C1B3"/><path d="m10.3919 15.0549-2.21174-.6537 1.56078-.7168.65096 1.3705Zm3.2079 0 .6509-1.3705 1.5687.7168-2.2196.6537Z" fill="#233447"/><path d="m7.88211 19.3.37647-3.1976-2.4549.0709L7.88211 19.3Zm7.85879-3.1976.3765 3.1976 2.0784-3.1267-2.4549-.0709Zm1.8667-3.5206-4.4078.1969.4078 2.2762.651-1.3704 1.5686.7167 1.7804-1.8194Zm-9.42745 1.8194 1.56863-.7167.64312 1.3704.4157-2.2762-4.41568-.1969 1.78823 1.8194Z" fill="#CD6116"/><path d="m6.39191 12.5818 1.85098 3.623-.06275-1.8036-1.78823-1.8194Zm9.43529 1.8194-.0784 1.8036 1.8588-3.623-1.7804 1.8194Zm-5.0196-1.6225-.4157 2.2762.5177 2.6857.1176-3.5363-.2196-1.4256Zm2.3921 0-.2117 1.4177.0941 3.5442.5255-2.6857-.4079-2.2762Z" fill="#E4751F"/><path d="m13.6076 15.0549-.5255 2.6857.3765.2599 2.2902-1.7957.0784-1.8036-2.2196.6537Zm-5.42744-.6537.06275 1.8036 2.29019 1.7957.3765-.2599-.5177-2.6857-2.21174-.6537Z" fill="#F6851B"/><path d="m13.6468 20.4735.0235-.7324-.1961-.1733h-2.9568l-.1804.1733.0157.7324L7.88208 19.3l.86275.7089 1.74897 1.2207h3.004l1.7568-1.2207.8628-.7089-2.4706 1.1735Z" fill="#C0AD9E"/><path d="m13.4586 18.0005-.3765-.2599h-2.1725l-.3765.2599-.1961 1.7406.1804-.1733h2.9569l.196.1733-.2117-1.7406Z" fill="#161616"/><path d="m21.3331 8.80925.6667-3.21339-.9961-2.98499-7.5451 5.62343 2.9019 2.4652 4.102 1.205.9098-1.0633-.3922-.2835.6275-.57494-.4863-.37804.6275-.48043-.4157-.31504ZM1.99976 5.59586l.66666 3.21339-.42353.31504.62745.48043-.47843.37804.62745.57494-.39215.2835.90196 1.0633 4.10196-1.205 2.90197-2.4652-7.54511-5.62343-.98823 2.98499Z" fill="#763D16"/><path d="m20.4625 11.9045-4.1019-1.205 1.247 1.8823-1.8588 3.623 2.447-.0315h3.6471l-1.3804-4.2688Zm-12.83136-1.205-4.10196 1.205-1.36471 4.2688h3.63922l2.43922.0315-1.85098-3.623 1.23921-1.8823Zm5.56866 2.0792.2588-4.5444 1.1922-3.23702H9.35663L10.5331 8.2343l.2745 4.5444.0941 1.4334.0079 3.5285h2.1725l.0157-3.5285.102-1.4334Z" fill="#F6851B"/></svg>