<svg width="24" height="24" viewBox="0 0 24 24" fill="none" xmlns="http://www.w3.org/2000/svg"><path d="M22.0803 12c0-5.52285-4.4771-10-10-10-5.52283 0-9.99998 4.47715-9.99998 10 0 5.5228 4.47715 10 9.99998 10 5.5229 0 10-4.4772 10-10Z" fill="url(#paint0_linear_96_1443)"/><path d="M12.0799 16.8376c-.3841.0111-.7102-.2793-.7434-.662l-.0837-.6557c-.7967-.227-1.26286-.8166-1.38397-1.7526l-.71711-5.52408c-.15382-.02475-.30953-.03594-.46532-.03346-.23059-.00188-.46034.02787-.68284.08843v8.37771H6.59644V9.9417c0-.91377.41034-1.55906 1.15772-1.82753v-.43418c0-.5019.30517-.83889.75854-.83889s.73783.28202.81113.79666l.05577.40232c.8183.22864 1.2964.88588 1.4382 1.95261l.6629 5.32491c.3961.0764.8031.0764 1.1992 0l.6629-5.32412c.1387-1.06752.6223-1.72476 1.4382-1.95579l.0558-.40232c.0733-.51225.3617-.79666.8111-.79666s.7585.33699.7585.83889v.43418c.7474.26847 1.1578.91376 1.1578 1.82753v6.73419h-1.4087V8.2974c-.2225-.06057-.4523-.09032-.6829-.08843-.1558-.00249-.3115.00871-.4653.03346l-.7171 5.52487c-.1187.9193-.596 1.5232-1.384 1.7526l-.0789.6565c-.0256.388-.3591.683-.7474.6612Zm-.5665-1.254.0725.5649c.0158.2577.236.4548.494.4421.1246.009.2475-.0329.3407-.1161.0933-.0831.1488-.2004.1541-.3252l.0725-.5657c-.3754.0616-.7584.0616-1.1338 0Zm4.893.8453h.9068V9.9417c0-.77435-.3123-1.30891-.9068-1.55826v8.04546Zm-9.56137 0h.90913V8.38344c-.5936.24935-.90275.78391-.90275 1.55826l-.00638 6.4872Zm2.57043-8.11716.70274 5.42286c.1004.7847.4709 1.2922 1.1004 1.5136l-.6494-5.2244c-.1195-.92098-.498-1.48342-1.15374-1.71206Zm5.32974 0c-.6558.22864-1.0359.79108-1.1538 1.71286l-.6494 5.2205c.6303-.2215 1-.729 1.1004-1.5137l.7028-5.41966ZM8.00515 8.0345c.22351-.05434.45283-.0811.68285-.07967.14384-.00152.28761.007.43026.0255l-.04303-.31309c-.05498-.38399-.24461-.57837-.56253-.57837-.31791 0-.50755.22545-.50755.58793v.3577Zm7.46745-.07967c.23-.00143.4594.02533.6829.07967v-.35451c0-.36248-.1945-.58794-.5076-.58794-.3131 0-.5075.19439-.5625.57838l-.043.31308c.1426-.01849.2864-.02701.4302-.02549v-.00319Z" fill="#fff"/><defs><linearGradient id="paint0_linear_96_1443" x1="12.0803" y1="2" x2="12.0803" y2="22" gradientUnits="userSpaceOnUse"><stop stop-color="#FF5A2F"/><stop offset="1" stop-color="#9F59E3"/></linearGradient></defs></svg>