<svg width="24" height="24" viewBox="0 0 24 24" fill="none" xmlns="http://www.w3.org/2000/svg"><path d="M12 22c5.5228 0 10-4.4772 10-10 0-5.52285-4.4772-10-10-10C6.47715 2 2 6.47715 2 12c0 5.5228 4.47715 10 10 10Z" fill="#fff"></path><path d="M20.3353 17.3583h-3.9467V12L12 16.3302 7.61137 12v5.3583H3.53847C5.30655 20.1308 8.43227 22 12 22c3.5677 0 6.6935-1.838 8.4615-4.6417h-.1262Z" fill="#4C4C4C"></path><path d="M5.53312 15.0769V6.83753L12 13.2355l6.4669-6.39797v8.23937h2.9968c.347-.9987.5363-2.0598.5363-3.1834C22 6.4318 17.5205 2 12 2S2 6.4318 2 11.8935c0 1.1236.18927 2.1847.53628 3.1834h2.99684Z" fill="#FF6B01"></path></svg>