<svg width="24" height="24" viewBox="0 0 24 24" fill="none" xmlns="http://www.w3.org/2000/svg"><path fill-rule="evenodd" clip-rule="evenodd" d="M12 2c5.5217 0 10 4.4633 10 9.975H12V2Z" fill="#F0F"/><path fill-rule="evenodd" clip-rule="evenodd" d="M12 21.9501c5.5217 0 10-4.4633 10-9.9751H12v9.9751Z" fill="#FF6"/><path fill-rule="evenodd" clip-rule="evenodd" d="M12 17.4818c3.0404 0 5.5217-2.4763 5.5217-5.5068 0-3.03541-2.4813-5.50671-5.5217-5.50671-3.04045 0-5.52173 2.4713-5.52173 5.50671.00499 3.0305 2.48128 5.5068 5.52173 5.5068Z" fill="#AD8A60"/><path fill-rule="evenodd" clip-rule="evenodd" d="M16.4334 15.2551c-.1149.1498-.2347.2896-.3545.4294-.8537.9336-1.9221 1.4977-3.1653 1.7174v1.2182c.4643.0399.9187.1148 1.363.2197 1.1932.2745 2.3015.7638 3.2901 1.4228l.0349-.0249h.005c.2446-.1698.4843-.3745.7339-.5492l.0299-.02c.2447-.2097.4743-.4293.714-.644.3944-.3944.7538-.8238 1.0784-1.2781-.674-.1997-1.4978-.5642-1.1633-1.4029.3445-.8637.9935-1.5077.1698-2.3315-.065-.0549-.1249-.1048-.1898-.1548-.669-.4992-.7938-.5691-.5292-1.4228.02-.055.035-.1049.0549-.1598.045-.1298.0899-.2446.1099-.2946h-1.1383c.005 1.1034-.2946 2.2367-.9386 3.1353l-.1048.1398Z" fill="#606"/><path fill-rule="evenodd" clip-rule="evenodd" d="M12 21.9501c-5.52172 0-10-4.4683-10-9.9751h10v9.9751Z" fill="#9FF"/><path fill-rule="evenodd" clip-rule="evenodd" d="M12 17.4818c-3.05044 0-5.52173-2.4663-5.52173-5.5068H12v5.5068Z" fill="#CF934F"/><path fill-rule="evenodd" clip-rule="evenodd" d="M12 21.9501c-2.0569 0-3.96903-.6191-5.56165-1.6825.98353-.659 2.09686-1.1483 3.29007-1.4229.44438-.1048.89868-.1747 1.36298-.2196v-2.0819c.2945.0499.5991.0749.9086.0749v5.332Z" fill="#CF934F"/><path fill-rule="evenodd" clip-rule="evenodd" d="M12 17.4818c3.0504 0 5.5217-2.4663 5.5217-5.5068H12v5.5068Z" fill="#FFEEDB"/><path fill-rule="evenodd" clip-rule="evenodd" d="M12 14.5462c.1398-.0949.2346-.1498.3944-.2297.0849-.0399.1797-.0599.2796-.0599.1098 0 .2147.025.3045.0749.3745.1847.714.3645 1.0734.5642-.5042.5941-1.1682.8886-2.0469.8886L12 14.5462Z" fill="#FF1414"/><path d="M12 8.38043c.4743.02497.9036-.26959.9985-.80379.0449.88367 1.1283 1.2681 1.5027.10983-.0798.70395.679.98852 1.368.52422 1.1433.88367 1.5477 2.23661 1.6525 3.76931h1.0884c.3295-.8936 1.1033-1.308-.2546-1.9321-.1748-.07985-.05-.0349.2047-.35444.7838-1.02845.3345-1.48277-.8538-1.41787-.1198.00499.055-.1298.1398-.25961.9087-1.34798.709-2.24663-1.0883-1.7973.2146-.71893.5991-1.93211-.6291-1.84723-.4044.02496-.7189.22965-1.0434.44932.0249-.80379-.02-1.82226-1.1333-1.47778-.3695.12481-.6391.38942-.8987.67399C12.9436 3.38792 12.674 2.9386 12 2.86371v5.51672Z" fill="#fff"/><path d="M11.7803 14.2366c.1298.05.2247.1748.2247.3445.005.1198-.0449.3046-.3195.4993-.4444.2746-1.0834.3295-1.4778.0849-.36447-.1698-.58913-.4993-.44934-.9636.09486-.1997.35944-.2946.53914-.2297.1998.0749.2896.2846.045.4094.1198-.2396-.3345-.3894-.37446.025-.00998.1448.20466.3495.46926.3894.2347.035.4693-.0499.694-.2796.1048-.0998.2047-.2047.3395-.2696.0899-.0349.1897-.0449.3095-.01Z" fill="#000"/><path fill-rule="evenodd" clip-rule="evenodd" d="M2 11.975C2 6.4683 6.48327 2 12.005 2v9.975H2Z" fill="#FF0"/><path fill-rule="evenodd" clip-rule="evenodd" d="M6.48328 11.975c0-3.04041 2.47129-5.50671 5.52172-5.50671V11.975H6.48328Z" fill="#EDD491"/><path fill-rule="evenodd" clip-rule="evenodd" d="M12 21.9501c2.0569 0 3.969-.6191 5.5617-1.6825-.9886-.659-2.0969-1.1483-3.2901-1.4229-.4443-.1048-.8987-.1747-1.363-.2196v-2.0819c-.2945.0499-.5991.0749-.9086.0749v5.332Z" fill="#FFEEDB"/><path fill-rule="evenodd" clip-rule="evenodd" d="M14.2067 11.0215c.2446 0 .4393-.1997.4393-.4394 0-.2446-.1997-.4393-.4393-.4393-.2446 0-.4393.1997-.4393.4393-.005.2447.1947.4394.4393.4394Z" fill="#000"/><path fill-rule="evenodd" clip-rule="evenodd" d="M14.5562 18.9046c1.0684.2796 2.0918.7439 3.0105 1.358-1.6426 1.0934-3.5797 1.6825-5.5617 1.6825v-1.1533c.689 0 1.313-.2097 1.7723-.5442.4594-.3395.7539-.8138.7789-1.343Z" fill="#4B9100"/><path fill-rule="evenodd" clip-rule="evenodd" d="M9.7334 11.4458c-.20968 0-.37943-.1697-.37943-.3794v-.9635c0-.20974.16975-.37948.37943-.37948.20969 0 .3844.16974.3844.37948v.9635c0 .2097-.17471.3794-.3844.3794Z" fill="#1A1A1A"/><path fill-rule="evenodd" clip-rule="evenodd" d="M7.91112 8.2706c-.64903.68398-1.07339 1.56765-1.31802 2.6011-.39441-.674-.24464-2.50624.25461-3.39491-.36944-.22466-1.21318-.3345-2.661.31453C5.43983 6.05892 7.1922 5.96406 8.27058 6.1388c-.37943-.64903-.88367-.96355-2.25661-1.40789 2.21667-.74388 3.04044-.24962 4.20373.63904-.05-.88866-.1648-1.26809-.83878-2.33649C10.4673 2.95358 11.3609 3.66751 12 4.52622v3.31503c-.5941.03494-1.0534-.37444-1.2581-.83375-.1498.3994-.1248 1.11333.0649 1.53769-.91365-.11483-1.18325-.78882-1.37296-1.35297-.42936.18472-1.21318.75387-1.52272 1.07838Z" fill="red"/><path fill-rule="evenodd" clip-rule="evenodd" d="M9.44884 18.9046c-1.07339.2796-2.09186.7439-3.01049 1.358C8.08089 21.356 10.018 21.9451 12 21.9451h.005v-1.1533H12c-.689 0-1.313-.2097-1.7723-.5442-.46433-.3395-.7539-.8138-.77886-1.343Z" fill="#FFC"/></svg>