<svg width="24" height="24" viewBox="0 0 24 24" fill="none" xmlns="http://www.w3.org/2000/svg"><path d="M12.36 22.18c5.5228 0 10-4.4772 10-10 0-5.52285-4.4772-10.00001-10-10.00001-5.52286 0-10.00001 4.47716-10.00001 10.00001 0 5.5228 4.47715 10 10.00001 10Z" fill="#007896"/><path d="M13.4018 14.6979c-.2696.2741-.6379.4284-1.0223.4284-.3844 0-.7527-.1543-1.0222-.4284l-1.303-1.3172c-.16772-.1706-.39692-.2667-.63615-.2667s-.46843.0961-.63613.2667c-.56446.5743-.56446 1.4951 0 2.0694l2.57948 2.6036c.2695.2741.6378.4284 1.0222.4284.3844 0 .7527-.1543 1.0222-.4284l2.5728-2.6069c.5645-.5743.5645-1.4951 0-2.0694-.1677-.1706-.3969-.2667-.6361-.2667-.2392 0-.4684.0961-.6361.2667l-1.3047 1.3205ZM8.51242 10.1131c.25704-.26708.61059-.41972.98124-.42363.37066-.00391.72734.14123.98994.40283l1.2432 1.2556c.1632.1627.385.253.6154.2506.2305-.0023.4503-.0971.6102-.2631.5507-.5488.5589-1.43811.0183-1.99697l-2.4563-2.48378c-.2626-.26159-.6193-.40673-.98995-.40282-.37066.00391-.72421.15655-.98125.42363L6.03946 9.41249c-.5507.54886-.55885 1.43811-.01831 1.99701.16326.1627.385.253.61545.2506.23045-.0023.45031-.0971.61021-.2631l1.26561-1.2839Z" fill="#fff"/><path d="M14.2422 10.0565c.257-.26706.6106-.4197.9812-.42361.3707-.00391.7274.14123.99.40281l1.2431 1.2573c.1633.1627.385.253.6155.2506.2304-.0023.4503-.0971.6102-.2631.5507-.5488.5588-1.43812.0183-1.99699l-2.458-2.48543c-.2626-.2616-.6193-.40674-.99-.40283-.3706.00391-.7242.15655-.9812.42363l-2.5038 2.53703c-.5506.54886-.5588 1.43809-.0183 1.99699.1633.1627.385.253.6155.2506.2304-.0023.4503-.0971.6102-.2631l1.2673-1.2839Z" fill="#fff"/></svg>