<svg width="24" height="24" viewBox="0 0 24 24" fill="none" xmlns="http://www.w3.org/2000/svg"><g clip-path="url(#clip0_127_150)"><path d="M12 22c5.5228 0 10-4.4772 10-10 0-5.52285-4.4772-10-10-10C6.47715 2 2 6.47715 2 12c0 5.5228 4.47715 10 10 10Z" fill="#36A9CF"/><path fill-rule="evenodd" clip-rule="evenodd" d="M18.4438 13.5469c.11.0481.1506.1975.0913.3337-.0178.0452-.047.0849-.0848.1153-.0378.0303-.083.0503-.1309.0578l-1.3906 2.5644c.0123.0573.0094.1167-.0083.1725-.0178.0558-.0498.106-.0929.1456-.0344.0359-.0762.0639-.1225.0819-.0464.0181-.0961.0257-.1457.0225l-2.7118 1.6238c-.0211.0534-.0559.1004-.1009.1362-.045.0357-.0986.059-.1554.0675-.1337.0256-.2612-.0231-.3225-.1137l-3.1862-.2232c-.0397.0303-.08555.0512-.13432.0614-.04878.0101-.09921.0093-.1476-.0026-.1575-.0344-.26625-.16-.26-.2894L7.0788 16.5244c-.05142.0092-.1043.0061-.15429-.0092-.04998-.0152-.09563-.042-.13321-.0783-.1075-.0975-.14625-.2394-.105-.3469l-1.0125-2.3481c-.11062-.0219-.20625-.1307-.23125-.2744-.02062-.1294.02188-.2513.10125-.3163l.14938-3.55433c-.03363-.04584-.05524-.09936-.06289-.15569-.00764-.05633-.00106-.11368.01914-.16681.05-.14563.17062-.2375.28937-.23125l2.6575-2.78438c-.02312-.13125.07688-.27062.23375-.32.04868-.0166.10054-.02168.15151-.01485.05097.00683.09966.02539.14224.05423l3.8238-.695c.0493-.1125.1893-.17875.3406-.15188.1375.02375.2406.11813.265.22688l1.7662 1.0075c.049-.01565.1008-.02051.1518-.01426.051.00626.1001.02349.1439.05051.0481.02804.0893.06671.1203.11307.031.04635.0509.09917.0584.15443l.76.51124c.049-.01329.1005-.01513.1503-.00538.0499.00975.0968.03084.1372.06164.1425.1025.1938.28125.1125.4l-.005.00625 1.1144 2.175c.1062-.01438.215.06812.2537.19878.0425.1431-.0162.2887-.13.325-.1143.0375-.2412-.0488-.2831-.1913l-.0075-.0312-2.2931-1.22816c-.0365.05135-.0862.09194-.1438.1175V15.13c.0749.033.136.091.173.1641.0369.073.0473.1566.0295.2365l.9313.9488c.0477-.0202.0998-.0276.1512-.0213l1.4063-2.485c-.0243-.04-.0382-.0854-.0405-.1321-.0023-.0467.0071-.0932.0274-.1354.0593-.1362.1968-.2069.3062-.1587Zm.0025.2968c.0238-.055.0069-.1143-.0369-.1337-.0437-.0188-.0987.0094-.1225.0637-.0237.0544-.0075.1138.0369.1338.0438.0187.0981-.0094.1225-.0638Zm-1.6656 2.995c.05-.05.0587-.1237.0194-.165-.0394-.0412-.1119-.0343-.1625.015-.05.05-.0588.1244-.0194.1657.0394.0412.1125.0343.1625-.0157Zm-.3931-.1562.0068-.015-.8931-.9088c-.0534.0334-.1151.0512-.1781.0513-.0657-.0002-.1299-.0191-.1851-.0545-.0553-.0354-.0993-.0859-.1268-.1455h-1.1987c-.031.0651-.0812.1192-.1438.155l.1169 1.6919c.0462.02.0875.0487.1187.0843l2.4832-.8587Zm-2.605 1.7412 2.1668-1.2975-1.975.6825c-.013.0494-.0376.095-.0716.1331-.034.0381-.0764.0677-.124.0863l-.06.3525c.0232.0113.0446.0258.0638.0431Zm-.2032.3363c.0688-.0125.1157-.0688.1057-.1263-.01-.0562-.075-.0925-.1438-.0787-.0681.0125-.1156.0687-.1056.1256.0106.0569.075.0925.1437.0794Zm-.315-.2488c.0415-.0683.1063-.1194.1825-.1437l.0569-.3344c-.0507-.0188-.0962-.0492-.1331-.0887l-2.4863.4012 2.38.1656Zm-2.3256-2.71-.8087 2.3857 3.135-.5063-2.2182-1.925c-.0332.0213-.0697.0367-.1081.0456Zm-1.04062 2.2219.77122-2.2744c-.0508-.0352-.0913-.0833-.1175-.1393H9.14193c-.00867.0173-.01848.034-.02938.05l.78563 2.3637Zm-.09563.4594c.06875.015.13375-.0188.145-.075.0125-.0563-.03312-.1144-.10187-.13-.06875-.0144-.13375.0187-.14563.075-.01187.0575.03375.115.1025.13ZM7.24818 16.35l2.37812 1.7162-.75125-2.26c-.05417.0071-.10924.0011-.16066-.0173-.05141-.0185-.09767-.049-.13496-.0889l-1.32688.5781c.00191.024.00065.0482-.00375.0719h-.00062Zm-.2225-.3738c.03381.0149.06536.0345.09375.0582l1.36437-.5938c.0027-.0675.02436-.1329.0625-.1887l-2.11-2.1807.58938 2.905Zm-.01438.3807c.0375-.0425.025-.1163-.02687-.1638-.0525-.0469-.125-.0506-.1625-.0075-.0375.0438-.02625.1175.02625.1644s.12562.05.1625.0069h.00062Zm-1.11875-2.7082.72625 1.6832-.48687-2.3988-.19188.4088c.01558.0514.0194.1057.01118.1588-.00823.0531-.02828.1037-.05868.148Zm-.0175-2.7125-.0875 2.095.17375-.3687c-.02868-.0544-.04247-.1155-.03994-.1769.00252-.0615.02126-.1212.05432-.1731l-.10063-1.3763Zm-.125-1.65683c-.02375.0675.00188.13749.055.15687.05375.01875.115-.02.13813-.0875.02312-.0675-.00125-.1375-.055-.15687-.05375-.01875-.115.02-.13875.0875h.00062ZM6.27755 12.5c0-.0713-.05187-.1288-.11437-.1288-.06313 0-.115.0575-.115.1288 0 .0719.05187.1294.115.1294.0625 0 .11437-.0575.11437-.1294ZM6.1338 9.44624c-.0176.05309-.04686.10156-.08562.14188l.18125 2.49378 1.1125-3.51816-1.19063.80813c-.0035.02528-.00935.05018-.0175.07437Zm1.89125-2.24062L6.5038 8.79937l.77938-.52875c.01047-.07118.04129-.13781.08875-.19188.04886-.05807.11499-.09902.18875-.11687l.46437-.75625Zm.78375-.75438-.99187 1.61375c.02396.04459.03439.0952.03.14563l.73437.22562c.03836-.04112.08628-.07212.13951-.09025.05322-.01813.1101-.02283.16558-.01368.05548.00916.10784.03188.15242.06615.04458.03427.08001.07902.10312.13028h1.22937c.0228-.049.0567-.09202.099-.12565.0423-.03362.0919-.05694.1448-.0681l.6681-1.42125c-.036-.0474-.0597-.10304-.0688-.16187l-2.04247-.4525c-.04629.06728-.11423.11669-.1925.14-.05508.01762-.11356.02191-.17063.0125v-.00063Zm.03625-.40812c-.06687.02062-.1075.0825-.09125.1375.01688.05562.08438.08312.15063.0625.06687-.02063.10812-.0825.09125-.1375-.01625-.05563-.08313-.08375-.15063-.0625Zm3.90505-.4775-3.08255.56125 1.61255.35687c.0434-.05943.1049-.10326.1753-.12499.0704-.02172.1459-.0202.2153.00437l1.0794-.7975Zm.3781.06062-1.1494.85 3.1531.0875.0069-.02375-1.6712-.9525c-.0381.02788-.0815.04755-.1276.05777-.046.01022-.0937.01077-.1399.00161-.0246-.00443-.0487-.01134-.0719-.02063Zm.1487-.38687c-.0687-.0125-.1331.02375-.1425.08125-.0093.05625.0375.1125.1069.125.0688.0125.1325-.02375.1425-.08125.01-.05625-.0381-.1125-.1069-.125Zm2.0207 1.70312c-.0427-.02635-.0799-.06074-.1094-.10125l-3.2894-.09125c-.0025.01955-.0069.0388-.0131.0575l1.3275 1.53063c.0767-.01667.1568-.00683.2271.02791.0704.03474.127.09232.1604.16334h1.4106c.0344-.07334.0932-.13252.1663-.1675l.12-1.41938Zm.025 1.59875c-.0757 0-.1375.06375-.1375.14188 0 .07812.0618.14125.1375.14125.0768 0 .1393-.06313.1393-.14125 0-.07813-.0625-.14188-.1387-.14188h-.0006Zm.0618-2c-.0343.06-.0087.14125.0575.18.0657.04.1475.02313.1813-.0375.035-.06.0094-.14062-.0569-.18-.0662-.03937-.1475-.0225-.1819.0375Zm2.4469 3.32375-2.2669-2.86687-.1143 1.35562c.0606.02482.1132.06602.1519.119.0386.05297.0617.11564.0668.181l2.1625 1.21125Zm-1.4331-2.49812-.5088-.34125 1.6419 2.1375-.7987-1.42938c-.0668-.00518-.1309-.02876-.185-.06812-.1063-.07563-.1625-.19375-.15-.29875h.0006Zm.2375-.03563c-.0325.0475-.0125.11875.045.16.0569.04063.13.03563.1625-.0125.0325-.04687.0125-.11875-.0444-.15937-.0581-.04063-.1306-.03563-.1625.0125l-.0006-.00063Zm-3.4813 1.35188c0 .07625.0594.13812.135.13812.0363-.00049.0709-.01528.0963-.04115.0254-.02587.0395-.06072.0394-.09697.0003-.03637-.0138-.07138-.0392-.09738-.0254-.026-.0601-.04088-.0965-.04137-.0363.00049-.071.01537-.0964.04137-.0254.026-.0395.06101-.0392.09738h.0006Zm.0744 2.98308c-.0184.0002-.0366.004-.0535.0112s-.0322.0176-.0451.0307c-.0129.0131-.0231.0287-.03.0457-.0069.0171-.0103.0353-.0101.0537 0 .0781.0625.1419.1387.1419.0184-.0003.0365-.0041.0534-.0114.0169-.0073.0322-.0178.0451-.031.0128-.0131.0229-.0287.0297-.0458.0068-.0171.0102-.0353.0099-.0537.0003-.0184-.0031-.0366-.0099-.0536-.0068-.0171-.0169-.0326-.0298-.0457-.0128-.0132-.0281-.0236-.045-.0308-.0169-.0072-.035-.011-.0534-.0112Zm-1.8106-5.01496c0 .07813.0619.14125.1381.14125.0184-.00016.0366-.00395.0535-.01113.0169-.00719.0323-.01764.0451-.03076.0129-.01311.0231-.02864.03-.04569.0069-.01705.0103-.03528.0102-.05367 0-.07812-.0625-.14187-.1388-.14187-.0184.00024-.0365.0041-.0534.01137-.0169.00726-.0322.01778-.045.03095-.0129.01318-.023.02875-.0298.04583-.0068.01708-.0102.03533-.0099.05372Zm.1012.39813-.6337 1.34687c.0708.05207.1198.12859.1375.21473.0177.08613.0027.17576-.0419.25152l2.1125 2.61871c.0194-.008.0395-.0143.06-.0187V9.00874c-.0463-.02019-.0878-.05007-.1217-.08765-.0338-.03757-.0592-.08196-.0744-.13017-.0152-.04821-.0199-.09913-.0138-.14931.0061-.05019.0229-.09848.0493-.14162l-1.2875-1.48375c-.0578.02815-.1223.03962-.1863.03313Zm-.975 1.63375c0 .07812.0625.14125.1388.14125.0756 0 .1381-.06313.1381-.14125 0-.07813-.0625-.14188-.1381-.14188-.0372.00049-.0727.0157-.0987.04229-.026.02659-.0404.0624-.0401.09959Zm-1.84997 0c0 .07625.06.13812.135.13812.075 0 .13562-.06187.13562-.13812 0-.07688-.06062-.13875-.13562-.13875-.075 0-.135.0625-.135.13875Zm.135 6.63128c-.0183.0002-.03638.0041-.0532.0113-.01681.0072-.03204.0177-.04481.0308-.01277.0131-.02283.0286-.0296.0456-.00678.017-.01014.0352-.00989.0535 0 .0781.06125.1413.1375.1413.01838-.0002.03656-.004.05348-.0112.01692-.0072.03226-.0176.04515-.0307.01288-.0131.02306-.0287.02994-.0457.00689-.0171.01034-.0353.01018-.0537.00025-.0184-.00315-.0367-.01001-.0538-.00685-.017-.01702-.0326-.02992-.0457-.01291-.0132-.02828-.0236-.04524-.0308-.01696-.0071-.03517-.0109-.05358-.0109Zm-1.3725-7.16253c-.04563.05375-.04938.12812-.00625.16625.04187.0375.11375.02625.16-.02813.04625-.05312.04937-.1275.00687-.16562-.0425-.03875-.11375-.02625-.16062.0275ZM6.4413 12.3137c.03504.0558.05346.1204.05313.1863 0 .0687-.01875.1325-.05125.1844l2.25125 2.3262V9.00874c-.06113-.02693-.11337-.07064-.15065-.12607-.03728-.05542-.05808-.12028-.05998-.18705l-.76375-.23438c-.02372.02153-.05021.03982-.07875.05438l-1.2 3.79808Zm7.0588 2.7875c.1493 0 .2762.0969.325.2313h1.1737c.016-.0448.0411-.0859.0735-.1207.0325-.0348.0717-.0627.1153-.0818V9.00874c-.0436-.01911-.0829-.04694-.1153-.08176-.0325-.03482-.0575-.07591-.0735-.12074h-1.385c-.0162.04473-.0413.08572-.0737.12052-.0324.03479-.0716.06268-.115.08198V11.515c.0466.0331.0846.077.1107.1279.0261.0509.0396.1074.0393.1646.001.0929-.0349.1824-.0999.2488-.0649.0664-.1535.1044-.2464.1056-.046-.0005-.0915-.0101-.1338-.0282-.0423-.018-.0807-.0443-.1128-.0772-.0322-.0329-.0575-.0719-.0746-.1146-.0171-.0427-.0256-.0884-.025-.1344 0-.0438.0075-.0856.0225-.125l-2.1425-2.65501c-.0828.01905-.1698.00704-.2443-.03374-.0745-.04079-.1315-.10751-.1601-.18751H9.15443c-.01627.04478-.04144.08581-.07398.12061-.03255.0348-.0718.06266-.1154.08189V15.13c.0875.0375.15563.1112.18938.2025h1.38437c.0163-.0448.0414-.0858.074-.1206.0325-.0348.0718-.0627.1154-.0819v-2.5438c-.051-.032-.093-.0764-.1221-.1291s-.0443-.1119-.0442-.1721c-.0005-.0461.008-.0918.0251-.1346.0171-.0427.0426-.0817.0748-.1146.0322-.0329.0706-.0592.113-.0772.0424-.0181.0879-.0276.134-.028.0568.0002.1127.0142.1629.0409.0502.0266.0931.0651.1251.112.032.047.0521.101.0586.1574.0064.0565-.001.1136-.0216.1666l2.1769 2.7062c.0291-.0078.0592-.012.0894-.0125Zm.15 2.5294c-.075 0-.1375.0563-.1375.1263 0 .07.0625.1256.1375.1256.0768 0 .1393-.0563.1393-.125 0-.0688-.0625-.1269-.1387-.1269h-.0006Zm-.2882-2.175c0 .0781.0619.1413.1375.1413.0185-.0001.0367-.0038.0537-.011.017-.0071.0324-.0176.0454-.0307.0129-.0131.0231-.0287.0301-.0458.0069-.0171.0104-.0353.0102-.0538.0002-.0184-.0033-.0366-.0102-.0537-.0069-.017-.017-.0325-.0299-.0456-.0129-.0132-.0282-.0236-.0452-.0308-.0169-.0072-.0351-.011-.0534-.0111-.0371.0005-.0724.0156-.0983.0421-.0259.0264-.0402.0621-.0399.0991Zm-2.5918-3.1706c0 .0781.0625.1412.1387.1412.0763 0 .1381-.0631.1381-.1412 0-.0788-.0618-.1413-.1381-.1413-.0762 0-.1387.0625-.1387.1413Zm.0937 3.0294c-.0184.0001-.0366.0039-.0535.0111-.0169.0072-.0322.0176-.0451.0308-.0129.0131-.0231.0286-.03.0456-.0069.0171-.0103.0353-.0101.0537 0 .0781.0625.1413.1387.1413.0763 0 .1381-.0632.1381-.1413.0003-.0183-.0031-.0366-.0099-.0536-.0068-.0171-.017-.0326-.0298-.0457-.0128-.0131-.0281-.0236-.045-.0308-.0169-.0072-.035-.011-.0534-.0111Zm.135-.1844c.0746.0327.1357.0902.1728.1628.0371.0725.048.1556.031.2353l2.2456 1.9481c.0204-.0118.042-.0217.0644-.0293l-.115-1.6525c-.0713-.0234-.1333-.0689-.1771-.1297-.0438-.0609-.0671-.1341-.0667-.2091 0-.0625.0156-.1206.0438-.1706l-2.1519-2.675c-.0152.0067-.0309.0121-.0469.0162V15.13Zm4.4625.325c.0002-.0183-.0033-.0365-.0101-.0534-.0069-.017-.017-.0325-.0298-.0455-.0129-.0131-.0281-.0235-.045-.0306-.0168-.0072-.0349-.011-.0532-.0111-.0184.0001-.0366.0039-.0535.0111-.0169.0072-.0323.0176-.0452.0308-.0128.0131-.023.0286-.0299.0456-.0069.0171-.0103.0353-.0102.0537 0 .0781.0625.1413.1388.1413.0762 0 .1387-.0632.1387-.1413l-.0006-.0006Zm-9.81875-1.8881c.05625-.0094.09188-.0744.08-.1444-.0125-.0706-.06687-.12-.1225-.11-.05625.0094-.09125.075-.07937.145.01125.0706.06625.12.12187.1094ZM18.1251 9.99562c-.045.01438-.0688.07308-.0519.12998.0169.0569.0675.0913.1125.0769.0462-.0144.0687-.0731.0525-.13-.0163-.0575-.0675-.09126-.1125-.07688h-.0006Z" fill="#fff"/></g><defs><clipPath id="clip0_127_150"><path fill="#fff" d="M2 2h20v20H2z"/></clipPath></defs></svg>