<svg width="24" height="24" viewBox="0 0 24 24" fill="none" xmlns="http://www.w3.org/2000/svg"><path d="m12.0047 21.9176-.1146-.0573c-4.46784-2.6158-7.84735-6.9309-9.22207-12.08608-.21957-.81147-.38186-1.64203-.49642-2.48213-.10502-.8401-.16229-1.68976-.17184-2.53941 0-.14321-.0191-.12411.11456-.19093 1.68021-.95467 3.45589-1.65158 5.33657-2.09072.69691-.16229 1.39381-.2864 2.10026-.37232.97374-.11456 1.94754-.16229 2.93084-.1432.5537.00954 1.0979.04773 1.642.10501 2.7399.29595 5.3079 1.11696 7.7137 2.46303.0382.0191.0668.03819.105.05728.0382.0191.0573.04774.0573.09547v.1432c-.0095.49643-.0286.98331-.0668 1.47973-.0573.70645-.1528 1.40336-.2864 2.10027-.2864 1.49883-.7351 2.9404-1.3556 4.3246-.9833 2.2053-2.3294 4.1719-4.0287 5.8903-1.222 1.2411-2.5872 2.3103-4.0955 3.1982-.0573.0382-.1051.0668-.1623.105ZM2.91625 5.23956v.11456c0 .69691.04773 1.40336.13365 2.09072.07637.63008.18138 1.25061.32458 1.87114.02865.10501.05729.21003.10501.31504.8592 1.82338 2.84491 2.79718 4.81151 2.34848 1.49882-.3437 2.7208-1.4988 3.1313-2.97856.1146-.4105.1527-.83055.1718-1.25061.0096-.27685.0382-.55371.086-.83056.3246-1.68021 1.4415-3.06448 3.0167-3.7232.0859-.03819.1814-.06683.2673-.10501.0095-.00955.0286-.00955.0286-.02864-.2482-.08592-1.7279-.23867-2.6157-.25776-1.9094-.03818-3.78051.21003-5.60391.76373-1.35562.41051-2.63487.96421-3.85684 1.67067ZM16.9975 16.6765c.0478-.0287.0764-.0669.0955-.0955.3819-.4773.7446-.9738 1.0788-1.4893 1.1933-1.852 2.0334-3.8473 2.5012-6.00483.1623-.7351.2673-1.47019.3341-2.21483.0478-.50597.0669-1.01194.0669-1.52747 0-.03818 0-.06682-.0096-.105l-.1432-.08593c-.3914-.21957-.7924-.4296-1.1933-.62053-.5919-.27685-1.1838-.52506-1.8043-.72555-.7542-.23867-1.5179-.26731-2.2817-.07637-2.1862.52507-3.5895 2.67307-3.1695 4.87835.2292 1.22197.8879 2.17666 1.938 2.84486.0668.0478.1432.086.21.1337.7733.4678 1.3748 1.1074 1.8044 1.8998.4582.8305.6587 1.7279.6014 2.673.0095.1623-.0096.3342-.0287.5156Zm-4.9928 4.2673c.0381-.0191.0859-.0477.1241-.0764 1.2028-.7064 2.3102-1.5465 3.3222-2.5012.0668-.0573.1146-.1336.1527-.21.0669-.1241.1337-.2578.191-.3819.4773-.9928.5823-2.0239.2673-3.0931-.6206-2.0621-2.6063-3.2459-4.6015-2.9976-.5728.0668-1.0979.2482-1.59429.5346-.94512.5346-1.95706.7542-3.04538.6491-.5346-.0477-1.04058-.1909-1.52746-.4009-.38186-.1719-.74463-.3819-1.06922-.6397-.0191-.019-.04774-.0286-.09547-.0572.00955.0477.0191.0763.02864.0954.4296 1.0884.95466 2.1194 1.57519 3.1027.67781 1.0597 1.45109 2.043 2.32938 2.9404.8783.8974 1.8425 1.6993 2.88311 2.3962.4773.3055.926.5824 1.0597.6396Z" fill="#000"/><path d="M2.91633 5.23963c1.22198-.70645 2.50123-1.26015 3.84731-1.66111 1.83296-.54416 3.69456-.80191 5.60386-.76373.8879.0191 2.3676.16229 2.6158.25776.0096.0191-.0095.02864-.0286.02864-.0859.03818-.1814.06682-.2673.10501-1.5752.65872-2.6922 2.04298-3.0168 3.72318-.0477.27685-.0764.5537-.0859.83056-.0095.42005-.0477.84009-.1718 1.2506-.4201 1.47976-1.63252 2.63486-3.13134 2.97856-1.96661.4487-3.95232-.5251-4.81152-2.34848-.04774-.10501-.08592-.21003-.10501-.31504-.1432-.62053-.24821-1.24106-.32459-1.87114-.08592-.6969-.13365-1.39381-.13365-2.0907.00954-.04773.00954-.07637.00954-.12411Z" fill="#F7A800"/><path d="M16.9976 16.6764c.0191-.1814.0382-.3437.0477-.5155.0478-.9451-.1527-1.8425-.6014-2.6731-.4296-.7924-1.0311-1.4224-1.8043-1.8998-.0669-.0477-.1432-.0859-.2101-.1336-1.0597-.6683-1.7088-1.61339-1.9379-2.8449-.4105-2.21482.9833-4.35326 3.1694-4.87833.7733-.18138 1.5275-.16229 2.2817.07637.6205.19093 1.2124.4487 1.8043.72555.4105.19093.8019.40096 1.1934.62053.0477.02864.0859.04773.1432.08592 0 .03818.0095.06682.0095.10501 0 .50597-.0286 1.02148-.0668 1.52746-.0668.74463-.1814 1.48928-.3342 2.21481-.4677 2.15758-1.2983 4.15278-2.5012 6.00488-.3341.5155-.6969 1.0119-1.0788 1.4892-.0381.0287-.0572.0669-.1145.0955Z" fill="#67B2E8"/><path d="M12.0047 20.9438c-.1432-.0573-.5823-.3246-1.0501-.6397-1.04059-.6969-2.00481-1.4988-2.88311-2.3961-.87831-.8974-1.66114-1.8807-2.32941-2.9404-.63009-.9833-1.15516-2.0143-1.57521-3.1026-.00954-.0287-.0191-.0478-.02864-.0955.04774.0287.06683.0382.09547.0573.33413.2578.68736.4773 1.06923.6396.48689.21.99286.3532 1.52748.401 1.07878.105 2.09074-.1146 3.04541-.6492.49648-.2768 1.03108-.4582 1.59428-.5346 1.9953-.2482 3.981.9356 4.6016 2.9976.315 1.0597.2195 2.0907-.2674 3.0931-.0668.1337-.1241.2578-.1909.3819-.0382.0763-.0859.1527-.1527.21-1.012.9547-2.1194 1.7948-3.3223 2.5012-.0477.0286-.0955.0573-.1337.0764Z" fill="#00C4B3"/></svg>