<svg width="24" height="24" viewBox="0 0 24 24" fill="none" xmlns="http://www.w3.org/2000/svg"><path d="M3 4v9.0664h3.01991V4H3ZM17.9801 10.0399v9.0663H21v-9.0663h-3.0199ZM11.9336 4v5.91372l3.02 3.01988V7.01991L11.9336 4ZM9.04643 10.1726v5.9137l3.01987 3.0199v-5.9137l-3.01987-3.0199Z" fill="#424242"/><path d="M11.9336 4h3.02L21 10.0398h-3.0199L11.9336 4ZM3 13.0664h3.01991l6.04649 6.0398H9.04646L3 13.0664Z" fill="#000"/><path d="M14.9536 7.01991v5.87389L6.01993 4v9.0664l3.02655 3.0199v-5.8739l8.93362 8.8938v-9.0664l-3.0265-3.01989Z" fill="#3CC68A"/></svg>