<svg width="24" height="24" viewBox="0 0 24 24" fill="none" xmlns="http://www.w3.org/2000/svg"><path d="m7.67297 4.30645 8.82433 5.09877v5.19448L3 6.80792l4.33234-2.50147c.10645-.06387.23418-.06387.34063 0Z" fill="#3CA9E5"/><path d="m16.4974 4.19998-4.4921 2.59728 4.4921 2.59725V4.19998Z" fill="#2853C3"/><path d="m16.4973 4.19998 4.3323 2.50147c.1065.06387.1704.18096.1704.29806V17.1863l-4.5027-2.5972V4.19998Z" fill="#1A4199"/><path d="m21 17.197-4.3323 2.5014c-.1065.0639-.2342.0639-.3513 0l-8.82437-5.0987V9.39453L21 17.197Z" fill="#2853C3"/><path d="M3 6.80792V16.9948c0 .1277.06387.2448.17031.298l4.33234 2.5015V9.39457L3 6.80792Z" fill="#60BEFF"/><path d="m7.50264 19.7943 4.49196-2.5972-4.49196-2.5973v5.1945Z" fill="#3CA9E5"/></svg>