<svg width="24" height="24" viewBox="0 0 24 24" fill="none" xmlns="http://www.w3.org/2000/svg"><g clip-path="url(#clip0_135_312)"><path d="M21.2469 10.4493c-.1719-.3931-.4103-.66276-.6706-.76034-.0711-.02748-.1466-.04159-.2229-.04165-.1417.01107-.2787.05661-.3989.13267-.1202.07605-.2199.18031-.2907.30372-.0893.1282-.1638.266-.2221.411-.0362-.1909-.0811-.3799-.1345-.56664.0813-.12505.1775-.23971.2866-.34145l.0249-.02294-.0099-.03212c-.2451-.79866-.6166-1.55288-1.1004-2.23396-.8596-1.20946-2.0407-2.15405-3.4095-2.72678-1.3688-.57273-2.8707-.75071-4.3355-.51379-1.46475.23692-2.83391.87928-3.95239 1.85432-1.11848.97503-1.94158 2.24379-2.37607 3.66256l-.00918.03053.02277.02276c.02364.02347.04746.04871.07199.07535-.04866.1527-.09209.30706-.13022.46266-.003-.0051-.00636-.0102-.00953-.0152-.20787-.32411-.46868-.50269-.73442-.50269-.05208.00001-.10395.00653-.15441.01941-.27668.07147-.53184.33298-.71836.73658-.18897.4497-.28631.9326-.28631 1.4205 0 .4878.09734.9707.28631 1.4204.18581.4036.44115.6655.71783.7369.05039.013.10221.0196.15423.0196.26575 0 .52655-.1787.73442-.5029.00318-.0049.00653-.01.00953-.0152.03811.1557.0817.3106.13023.4627-.02306.026-.04708.0511-.072.0754l-.02276.0227.00917.0306c.2422.8033.61215 1.5624 1.09563 2.2482.73147 1.0404 1.70202 1.89 2.83007 2.4773 1.12806.5874 2.38067.8953 3.65247.8979 1.2718.0027 2.5256-.3001 3.6561-.8828 1.1304-.5826 2.1045-1.4282 2.8402-2.4656.4838-.6811.8553-1.4353 1.1004-2.2339l.0099-.0321-.0249-.023c-.109-.1017-.2052-.2164-.2863-.3414.0529-.186.0974-.3754.1342-.5666.0583.1446.1328.2821.222.4099.0707.1235.1705.2279.2907.304.1202.0762.2572.1218.3991.1329.0762-.0001.1517-.0143.2227-.0418.2606-.0976.4988-.3676.6705-.7604.3542-.8813.3542-1.8653 0-2.7466l-.0001-.0007Z" fill="#fff"/><path d="M15.5395 11.4405c0-.8459-.5294-1.5304-1.1823-1.5304-.6529 0-1.1823.6854-1.1823 1.5304 0 .8451.5294 1.5319 1.1823 1.5319.6529 0 1.1823-.6861 1.1823-1.5319ZM9.80313 10.4885c-.40409 0-.73195.4247-.73195.9488s.32786.9486.73195.9486c.40407 0 .73197-.4245.73197-.9486s-.3275-.9488-.73197-.9488ZM12.9673 15.9171h-.4288c-.003-.0003-.006-.0003-.009 0h-1.2176c-.0455 0-.0891.018-.1213.0502-.0321.0322-.0502.0758-.0502.1213s.0181.0891.0502.1213c.0322.0321.0758.0502.1213.0502h1.6411c.0026.0716.0006.1433-.0062.2146-.0015.0417-.011.0827-.0281.1209-.0903.0203-.183.0284-.2756.0239-.0453-.0013-.0893.0151-.1227.0457-.0334.0306-.0536.073-.0562.1183-.0019.0454.0143.0898.045.1233.0307.0336.0735.0535.1189.0556.0166 0 .0385.0012.066.0012.1343 0 .3776-.0176.4752-.133.0725-.0944.1138-.209.1181-.3279.0233-.1552.0113-.3138-.0353-.4637-.0517-.1219-.1869-.1219-.2848-.1219ZM11.819 13.9046c.1235-.0808.068-.3801-.1235-.6688-.1915-.2887-.4438-.4572-.5666-.3753-.1228.0818-.0672.3801.1235.6687.1908.2887.4447.4565.5666.3754ZM12.2369 13.9045c.1236.0812.3777-.087.5666-.3751.189-.2882.2455-.5878.1236-.6688-.122-.081-.3768.0873-.5674.3751-.1905.2879-.2449.588-.1228.6688Z" fill="#333"/><path d="M7.71408 8.91097c.00222-.00212.00431-.00438.00624-.00677l.01462-.02015c.02407-.03335-.02086.02692-.02086.02692ZM15.7026 7.64081l.0094.00406c.0011.00031.0024.00031.0035 0l-.0129-.00406Z" fill="#000"/><path d="M20.4477 9.18202c-.5528-1.76093-1.6437-3.30423-3.1194-4.41274-1.4757-1.1085-3.2618-1.72641-5.107-1.76677-1.8452-.04036-3.65659.49885-5.17933 1.54177C5.51924 5.5872 4.36184 7.08132 3.73263 8.8164l-.29892-2.89904c.15963-.07868.28624-.21134.3574-.37446.07116-.16312.08227-.34617.03136-.5167-.0509-.17053-.16054-.31753-.30948-.41494-.14894-.09742-.32756-.13895-.50419-.11725-.17664.0217-.33989.10523-.46082.2358-.12093.13057-.19173.29974-.19985.47752-.00812.17778.04697.35269.1555.49374.10852.14104.26348.23911.43741.27682l.33527 3.25583c-.73689.24458-1.27633 1.29398-1.27633 2.58938 0 1.4822.70584 2.6423 1.60578 2.6423h.003c.56298 1.7922 1.68318 3.3581 3.19761 4.4697 1.51443 1.1116 3.34403 1.7109 5.22263 1.7108 1.8786-.0002 3.7082-.5998 5.2224-1.7116 1.5143-1.1118 2.6343-2.6778 3.197-4.4702.8743-.0467 1.5507-1.1898 1.5507-2.641s-.6769-2.59396-1.5514-2.64108Zm.1491 4.74818c-.0653.0255-.1347.0386-.2047.0386-.1338-.0122-.2627-.0567-.3756-.1295-.113-.0729-.2066-.172-.2729-.2889-.1141-.1669-.2047-.3488-.2693-.5405-.2553-.7701-.2553-1.6021 0-2.3723.0646-.1922.1552-.3746.2695-.5421.0663-.1168.1599-.21586.2729-.28869.1129-.07282.2418-.11724.3756-.12947.07.00004.1394.01315.2047.03864.508.19129.9054 1.07892.9054 2.10712s-.3974 1.9158-.9054 2.1071h-.0002ZM2.49636 11.8231c0-1.0708.43039-1.98748.96841-2.12776.04612-.0118.09355-.01772.14116-.01765.25869 0 .50062.18264.69225.48311.1122.1813.19978.3766.26045.5809.10623.3506.15922.7151.15723 1.0814.00199.3663-.051.7308-.15723 1.0813-.06047.2044-.14788.3999-.25992.5813-.19146.3-.43356.4831-.69225.4831-.04761.0001-.09504-.0058-.14116-.0176-.53855-.1401-.96894-1.0574-.96894-2.1281Zm11.27944 5.6126c-1.1625.2355-2.3606.2336-3.5223-.0056l-.33811-3.748c-.03529.003-.07235.003-.10588.003-.40754-.0001-.80794-.1071-1.16125-.3102-.35331-.2032-.64718-.4954-.85232-.8476-.20513-.3521-.31435-.7519-.31676-1.1594-.00242-.4076.10206-.8086.30301-1.1632.20095-.35456.49134-.65024.84222-.85755.35088-.20731.74998-.31901 1.1575-.32395.40749-.00494.80919.09706 1.16499.2958.3558.19875.6533.48731.8628.8369.2136-.43485.5396-.80465.9442-1.07107.4047-.26641.8732-.41975 1.3571-.4441.4838-.02436.9654.08115 1.3947.30559.4294.22444.7909.55963 1.0471.97083.2562.41125.3977.88345.4099 1.36775.0122.4843-.1054.9631-.3405 1.3867-.2351.4236-.5793.7765-.9968 1.0223-.4175.2458-.8931.3754-1.3776.3755-.0706 0-.1403-.003-.2102-.0081l-.2618 3.3744Zm2.9876-8.96534c-.0594.01579-.1226.00951-.1777-.01767-.0552-.02719-.0986-.07344-.1223-.1302-.0049-.0144-.0108-.02843-.0176-.042.0007.00396.002.00781.0037.01147.0017.00495.0037.00989.0062.01483-.005-.00918-.0092-.01941-.0143-.0293-.0126-.02541-.0269-.04993-.0419-.07428-.015-.02436-.0324-.05047-.0499-.07482-.0014-.00181-.0027-.00369-.0039-.00565.0013.00124.0018.00247.0025.003.0007.00053-.0044-.00618-.0106-.01429-.0029-.00404-.0059-.00793-.0092-.01165l.0051.00759c-.0039-.0044-.0076-.00899-.0111-.01376-.0419-.04981-.087-.09695-.1348-.14117-.0274-.02611-.0558-.05107-.0852-.07482-.0034-.00315-.0069-.0061-.0106-.00882.0026.00152.0051.00323.0074.00511.0019.00124.0032.00247.0044.003-.0082-.00742-.017-.01431-.0261-.02064.001.00156.0023.00289.0039.00388-.0099-.00628-.0194-.01293-.0288-.01994-.0669-.04749-.1367-.0908-.2089-.1297-.0415-.0222-.0837-.04298-.1265-.06229-.002-.00084-.0039-.00191-.0057-.00317-.0046-.00116-.009-.00282-.0132-.00494-.0217-.00883-.0436-.01765-.066-.02612-.0945-.03479-.1911-.06396-.289-.08735-.0566-.01316-.1137-.0244-.171-.0337-.0062-.00124-.0353-.00565-.053-.00865-.0006-.00023-.0013-.00023-.0019 0h-.003c-.008 0-.0194-.00229-.0229-.00229-.0148-.00196-.0295-.00366-.0443-.00512-.2709-.02443-.5436-.01851-.8132.01765-.1411.01764-.2493-.13164-.2549-.25569.0015-.06716.0288-.13116.0763-.17868.0475-.04752.1115-.07491.1786-.07648.3323-.04275.6688-.04067 1.0006.00618.6881.09793 1.4399.48579 1.7074 1.16692.0172.06524.0081.13461-.0253.19323-.0334.05862-.0884.10183-.1533.12033Zm-6.6765-.30845c-.019.06472-.0624.11952-.12102.15282-.05865.03329-.12795.04247-.19325.02558-.09256-.02223-.18598-.04071-.28004-.0554l-.03793-.00583c-.00152-.00027-.00307-.00027-.00459 0a.01359563.01359563 0 0 0-.00441 0h-.00177l-.02876-.00388c-.03875-.00408-.07758-.00738-.11646-.00988-.14938-.011-.29945-.00852-.44838.00741l-.01059.00124h-.00353c.00494-.00106.00617-.00106-.00194 0h-.0023a.00630427.00630427 0 0 0-.00317 0H8.8254c-.00098-.00025-.00201-.00025-.003 0-.00681.00143-.01371.00249-.02064.00317-.02488.00441-.04994.00865-.07482.01377-.05417.01041-.10587.02364-.15969.03793-.05382.0143-.10482.03247-.15652.05188l-.02365.00918-.01429.00565c-.00454.0013-.0088.00345-.01253.00635.00334-.00047.00664-.00118.00988-.00212-.01764.00812-.04605.01765-.04941.02012-.08536.04071-.16747.08791-.24563.14116l-.04499.03194s.00123-.00141.00123-.00194c-.00252.00234-.00524.00447-.00812.00635-.00176.00177-.00441.003-.00617.00495-.00171.00069-.00327.00171-.00459.00299-.00106.00124-.003.00195-.00441.00318-.00141.00124-.00124.00124-.00177.00124-.00013.00034-.00013.00072 0 .00106-.03.02505-.05858.05011-.08734.07623-.05788.05316-.11223.11004-.1627.17028-.01182.01429-.02241.03-.03529.04376-.01765.02594-.03741.05294-.05417.07976-.03153.04869-.0604.09905-.08647.15087-.00565.01226-.01066.0248-.015.03759.00177-.00636.00389-.01447.00689-.02383-.00565.01942-.015.03759-.02136.05612-.01928.06452-.06273.11909-.12129.15233-.05856.03324-.1277.04258-.19298.02607-.06502-.0185-.12017-.06182-.15354-.12061-.03338-.0588-.0423-.12835-.02486-.19366.04759-.13731.11385-.2674.19693-.38663.2291-.33318.54888-.59374.92147-.75083.55464-.21026 1.16174-.23887 1.7337-.0817.0644.01968.11873.06346.15163.12221.0329.05875.0419.12793.025.19312Zm1.9411-4.24435c1.6943.00192 3.3434.54728 4.7049 1.55596 1.3615 1.00867 2.3635 2.42745 2.8588 4.04783-.1303.12249-.2431.26232-.3353.41556-.9723-2.51524-3.841-4.33823-7.229-4.33823-3.4148 0-6.30167 1.85281-7.25243 4.3984-.08842-.15798-.19749-.30349-.32433-.43267.48884-1.63032 1.48975-3.05985 2.85451-4.07688s3.02075-1.56747 4.72285-1.5698v-.00017Zm0 15.81064c-1.7021-.0022-3.3581-.5526-4.72282-1.5696-1.36472-1.0171-2.36554-2.4467-2.85418-4.077.12721-.1294.23658-.2752.32521-.4336.95058 2.547 3.83797 4.3993 7.25249 4.3993 3.388 0 6.2561-1.823 7.2289-4.3386.0922.1533.205.2931.3353.4156-.4953 1.6206-1.4975 3.0396-2.8592 4.0484-1.3617 1.0087-3.0111 1.554-4.7057 1.5557v-.0002Z" fill="#333"/></g><defs><clipPath id="clip0_135_312"><path fill="#fff" d="M2 3h20v17.6459H2z"/></clipPath></defs></svg>