<svg width="24" height="24" viewBox="0 0 24 24" fill="none" xmlns="http://www.w3.org/2000/svg"><g clip-path="url(#clip0_127_149)"><circle cx="12" cy="12" r="10" fill="#EDF0F4"/><path d="m12 5.5-5 5 5 4.7906L17 10.5l-5-5Z" fill="url(#paint0_linear_127_149)"/><path d="M9.48378 14.7547c.11012-.1474.21445-.2873.33939-.4234-1.50275.3622-2.53762 1.1206-2.53762 1.9984 0 .0327.00177.0652.00457.0975.14741-.056.30294-.1229.46816-.2041.99263-.4877 1.382-1.0087 1.7255-1.4684ZM11.0489 16.368c.3005-.4021.56-.7494 1.2936-1.1095.7335-.3602 1.167-.3535 1.669-.3458.3362.0053.6988.0108 1.1411-.0839-.5394-.2898-1.2329-.509-2.0168-.6266L12 15.2902l-.794-.7607c-.5657.381-.8556.7684-1.1188 1.12-.30055.4022-.56004.7495-1.29356 1.1096-.5145.2526-.8813.3247-1.22778.3425.27328.3625.73342.6807 1.3227.9253.13725-.0532.28159-.1162.43403-.1911.99321-.4871 1.38261-1.0081 1.72631-1.4678ZM13.6263 18.3671c1.1858-.2553 2.106-.7531 2.5009-1.3657-.3391.0619-.7249.1808-1.1841.4066-.6401.3146-1.0289.6428-1.3168.9591Z" fill="#000"/><path opacity=".5" d="M12 10.5H7l5-5v5Z" fill="url(#paint1_linear_127_149)"/><path fill-rule="evenodd" clip-rule="evenodd" d="M10.1331 18.2703s.4862.1024 1.0345.1645.8736-.0183.8736-.0183.8151-1.2903 1.6375-1.6339c0 0 .8005-.4203 1.5279-.3655l.8626.0366s.0314-.318-.1131-.7189c-.1445-.4009-.373-.4727-.373-.4727s-1.612-.0658-2.5733.5081c0 0-1.1477.7675-1.6412 1.5753 0 0-.3363.4204-.5921.5703" fill="#000"/></g><defs><linearGradient id="paint0_linear_127_149" x1="12.0398" y1="5.81829" x2="7.49923" y2="10.5552" gradientUnits="userSpaceOnUse"><stop offset=".09" stop-color="#FF6D41"/><stop offset=".5" stop-color="#FA297F"/><stop offset="1" stop-color="#FA297F"/></linearGradient><linearGradient id="paint1_linear_127_149" x1="10.7945" y1="4.54569" x2="6.1345" y2="9.20555" gradientUnits="userSpaceOnUse"><stop stop-color="#652CB4"/><stop offset=".07" stop-color="#652CB4" stop-opacity=".82"/><stop offset=".19" stop-color="#652CB4" stop-opacity=".53"/><stop offset=".3" stop-color="#652CB4" stop-opacity=".3"/><stop offset=".4" stop-color="#652CB4" stop-opacity=".14"/><stop offset=".49" stop-color="#652CB4" stop-opacity=".04"/><stop offset=".55" stop-color="#652CB4" stop-opacity=".01"/></linearGradient><clipPath id="clip0_127_149"><path fill="#fff" d="M2 2h20v20H2z"/></clipPath></defs></svg>