<svg width="24" height="24" viewBox="0 0 24 24" fill="none" xmlns="http://www.w3.org/2000/svg"><g clip-path="url(#clip0_127_153)"><path d="M11.6364 22c5.5228 0 10-4.4772 10-10 0-5.52285-4.4772-10-10-10C6.1135 2 1.63635 6.47715 1.63635 12c0 5.5228 4.47715 10 10.00005 10Z" fill="#F80000"/><path d="m14.4489 12.5262-4.185 5.7238.1543-4.6506h-.96935l.39625-4.08252 4.4275-.61001L12.8189 12.61l1.63-.0838Zm-3.4363 4.0613v-1.0938c0-.0812-.0687-.1474-.1537-.1474s-.1544.0656-.1544.1468v1.0944c0 .0812.0687.1475.1544.1475.0856 0 .1537-.0663.1537-.1475Zm-1.145-3.3037h.8813l-.0407 1.6831c-.0006.0443.0169.0875.0494.1187.0325.0313.0769.05.1231.05h.0075c.0441.0009.0867-.0155.1188-.0456.0321-.0302.0512-.0716.0531-.1156l.0406-1.9856h-.8812l.2956-3.26193c.0031-.0375-.01-.07499-.0369-.10312-.0268-.02813-.0643-.04375-.1043-.04375h-.025c-.0347-.0007-.0683.01152-.0945.03428-.0261.02277-.0428.05444-.0468.08884l-.34 3.58068Zm0-4.12505 1.63-1.34625c.0875-1.34687-.7937-1.5575-.7937-1.5575l.1325-.505c1.4537.42062 1.2337 2.02 1.2337 2.02l2.1144.88375-4.3169.505Z" fill="#fff"/></g><defs><clipPath id="clip0_127_153"><path fill="#fff" d="M1.63635 2h20v20h-20z"/></clipPath></defs></svg>