<svg width="24" height="24" viewBox="0 0 24 24" fill="none" xmlns="http://www.w3.org/2000/svg"><path fill-rule="evenodd" clip-rule="evenodd" d="m16.2301 4.10001-2.8842 2.39192-2.8843 2.39343.7061 5.25774.8325 5.6104 5.1624-5.6104L22 8.99176l-2.8858-2.49983-2.8841-2.39192Z" fill="url(#paint0_linear_133_97)"/><path fill-rule="evenodd" clip-rule="evenodd" d="M7.76916 4.10001 4.8847 6.49193 2 8.88536l4.83646 5.25774 5.16334 5.6104.8323-5.6104.7062-5.25774-2.8846-2.39343-2.88454-2.39192Z" fill="url(#paint1_linear_133_97)"/><path fill-rule="evenodd" clip-rule="evenodd" d="M12.128 4.10001 9.24342 6.49193 6.3588 8.88536l2.88462 5.25774 2.75638 5.6104 3.0127-5.6104 2.8845-5.25774-2.8845-2.39343-2.8845-2.39192Z" fill="url(#paint2_linear_133_97)"/><defs><linearGradient id="paint0_linear_133_97" x1="10.4616" y1="4.10001" x2="10.4616" y2="19.4023" gradientUnits="userSpaceOnUse"><stop stop-color="#2E65A0"/><stop offset="1" stop-color="#EED782"/></linearGradient><linearGradient id="paint1_linear_133_97" x1="2" y1="4.10001" x2="2" y2="19.4023" gradientUnits="userSpaceOnUse"><stop stop-color="#2E65A0"/><stop offset="1" stop-color="#F9E7A5"/></linearGradient><linearGradient id="paint2_linear_133_97" x1="6.3588" y1="4.10001" x2="6.3588" y2="19.4023" gradientUnits="userSpaceOnUse"><stop stop-color="#010408"/><stop offset="1" stop-color="#EED782"/></linearGradient></defs></svg>