<svg width="24" height="24" viewBox="0 0 24 24" fill="none" xmlns="http://www.w3.org/2000/svg"><path d="M19.3932 4.92863c-3.9049-3.90484-10.23642-3.90484-14.14134 0C1.34528 8.83347 1.34528 15.1665 5.2502 19.0714c3.90492 3.9048 10.2365 3.9048 14.1414 0 3.9066-3.9049 3.9066-10.23793.0016-14.14277Zm-.8566 13.28607c-3.4316 3.4316-8.99649 3.4316-12.42975 0-3.4316-3.4315-3.4316-8.99792 0-12.42944 3.43159-3.43152 8.99815-3.43152 12.42975 0 3.4316 3.43152 3.4316 8.99794 0 12.42944Z" fill="#fff"/><path d="M18.5202 5.80148c-3.4225-3.42256-8.97444-3.42256-12.397 0-3.42257 3.42256-3.42257 8.97442 0 12.39702 3.42256 3.4226 8.9728 3.4226 12.397 0 3.4226-3.4226 3.4226-8.97446 0-12.39702ZM8.62654 19.0462c-.6167-.3324-1.18352-.7463-1.68884-1.2267V6.18047c.52028-.49535 1.10705-.91922 1.74535-1.25666L16.0169 16.0742V4.95373c.6167.33245 1.1835.74635 1.6888 1.22674V17.8195c-.5203.4954-1.107.9192-1.7453 1.2567L8.62654 7.92583V19.0462Z" fill="#141521"/><path d="M17.7538 17.8998V6.22362c-.504-.48192-1.0694-.89714-1.6846-1.23065V16.1489L8.754 4.96295c-.63669.33851-1.22197.76374-1.74094 1.26067V17.8998c.50404.4819 1.06943.8972 1.68456 1.2307V7.97455L16.0129 19.1605c.6367-.3385 1.2219-.7638 1.7409-1.2607Z" fill="#fff"/></svg>