<svg width="24" height="24" viewBox="0 0 24 24" fill="none" xmlns="http://www.w3.org/2000/svg"><path fill-rule="evenodd" clip-rule="evenodd" d="M5.39724 12.1372c0 .5574-.45092 1.0095-1.00793 1.0095-.55653 0-1.00793-.4521-1.00793-1.0095 0-.5573.4514-1.0089 1.00793-1.0089.55701 0 1.00793.4516 1.00793 1.0089Zm16.01786 0c0 .5574-.4514 1.0095-1.0076 1.0095-.5568 0-1.0082-.4521-1.0082-1.0095 0-.5573.4514-1.0089 1.0082-1.0089.5562 0 1.0076.4516 1.0076 1.0089Zm-8.0089 3.9824c0 .5573-.4514 1.0094-1.0078 1.0094-.5567 0-1.0081-.4521-1.0081-1.0094 0-.5572.4514-1.009 1.0081-1.009.5564 0 1.0078.4518 1.0078 1.009Zm-4.03173-1.9637c0 .5571-.4511 1.0092-1.00805 1.0092-.5567 0-1.00781-.4521-1.00781-1.0092 0-.5576.45111-1.0092 1.00781-1.0092.55695 0 1.00805.4516 1.00805 1.0092Zm8.00893 0c0 .5571-.4513 1.0092-1.0078 1.0092-.5569 0-1.008-.4521-1.008-1.0092 0-.5576.4511-1.0092 1.008-1.0092.5565 0 1.0078.4516 1.0078 1.0092ZM5.07034 15.1926c0 .376-.30464.6817-.68066.6817-.37652 0-.68141-.3057-.68141-.6817 0-.3769.30489-.6821.68141-.6821.37602 0 .68066.3052.68066.6821Zm16.01786 0c0 .376-.305.6817-.681.6817-.3762 0-.681-.3057-.681-.6817 0-.3769.3048-.6821.681-.6821.376 0 .681.3052.681.6821Zm-8.0089 4.0361c0 .3767-.3052.6824-.6808.6824-.3758 0-.6813-.3057-.6813-.6824 0-.3764.3055-.6814.6813-.6814.3756 0 .6808.305.6808.6814Zm-4.03172-2.0176c0 .3765-.30484.6816-.68079.6816-.3762 0-.68128-.3051-.68128-.6816 0-.3769.30508-.6822.68128-.6822.37595 0 .68079.3053.68079.6822Zm8.00892 0c0 .3765-.3052.6816-.6806.6816-.3764 0-.6814-.3051-.6814-.6816 0-.3769.305-.6822.6814-.6822.3754 0 .6806.3053.6806.6822Zm-12.31305.3812c0 .1962-.15846.355-.35402.355-.19581 0-.35426-.1588-.35426-.355 0-.1957.15845-.3542.35426-.3542.19556 0 .35402.1585.35402.3542Zm16.01795 0c0 .1962-.1589.355-.3541.355-.1959 0-.3542-.1588-.3542-.355 0-.1957.1583-.3542.3542-.3542.1952 0 .3541.1585.3541.3542Zm-8.009 4.037c0 .1959-.1588.3548-.354.3548-.1957 0-.3543-.1589-.3543-.3548s.1586-.3544.3543-.3544c.1952 0 .354.1585.354.3544Zm-4.03172-2.0182c0 .1956-.1587.3546-.35426.3546-.19531 0-.35401-.159-.35401-.3546 0-.1961.1587-.3546.35401-.3546.19556 0 .35426.1585.35426.3546Zm8.00892 0c0 .1956-.1588.3546-.354.3546-.1962 0-.3542-.159-.3542-.3546 0-.1961.158-.3546.3542-.3546.1952 0 .354.1585.354.3546ZM13.7331 4.36383c0 .75336-.6099 1.36377-1.3617 1.36377-.7525 0-1.3624-.61041-1.3624-1.36377C11.009 3.61065 11.6189 3 12.3714 3c.7518 0 1.3617.61065 1.3617 1.36383Zm0 4.03682c0 .75327-.6099 1.36381-1.3617 1.36381-.7525 0-1.3624-.61054-1.3624-1.36381 0-.75302.6099-1.3638 1.3624-1.3638.7518 0 1.3617.61078 1.3617 1.3638Zm0 3.98255c0 .7529-.6099 1.3636-1.3617 1.3636-.7525 0-1.3624-.6107-1.3624-1.3636 0-.7534.6099-1.364 1.3624-1.364.7518 0 1.3617.6106 1.3617 1.364Zm8.0089-3.98255c0 .75327-.6098 1.36381-1.3619 1.36381-.7524 0-1.3622-.61054-1.3622-1.36381 0-.75302.6098-1.3638 1.3622-1.3638.7521 0 1.3619.61078 1.3619 1.3638Zm-16.01787 0c0 .75327-.60967 1.36381-1.36194 1.36381C3.60992 9.76446 3 9.15392 3 8.40065c0-.75302.60992-1.3638 1.36219-1.3638s1.36194.61078 1.36194 1.3638Zm4.03172-2.01842c0 .75316-.60973 1.3638-1.36207 1.3638-.75233 0-1.36206-.61064-1.36206-1.3638 0-.75365.60973-1.3638 1.36206-1.3638.75234 0 1.36207.61015 1.36207 1.3638Zm0 3.98217c0 .7532-.60973 1.3639-1.36207 1.3639-.75233 0-1.36206-.6107-1.36206-1.3639 0-.75298.60973-1.36367 1.36206-1.36367.75234 0 1.36207.61069 1.36207 1.36367Zm8.00895-3.98217c0 .75316-.6099 1.3638-1.3622 1.3638-.7523 0-1.3619-.61064-1.3619-1.3638 0-.75365.6096-1.3638 1.3619-1.3638.7523 0 1.3622.61015 1.3622 1.3638Zm0 3.98217c0 .7532-.6099 1.3639-1.3622 1.3639-.7523 0-1.3619-.6107-1.3619-1.3639 0-.75298.6096-1.36367 1.3619-1.36367.7523 0 1.3622.61069 1.3622 1.36367Z" fill="#000"/></svg>