<svg width="24" height="24" viewBox="0 0 24 24" fill="none" xmlns="http://www.w3.org/2000/svg"><g clip-path="url(#clip0_127_151)"><circle cx="12" cy="12" r="10" fill="#000"/><path fill-rule="evenodd" clip-rule="evenodd" d="M12.5479 10.1871c.0157.3147-.1046.6137-.2279.8952-.138.3304-.2766.6606-.4152.9907l-.0001.0003c-.1959.4666-.3918.9332-.5858 1.4004-.0209.0489-.0413.0982-.0618.1476-.0972.2347-.1951.4711-.3477.6764-.1315.1848-.3143.3271-.5259.4082-.2667.0832-.54922.1035-.82518.0593-.38534-.048-.76248-.141-1.13938-.234h-.00001c-.08849-.0219-.17698-.0437-.26555-.065-.3007-.0751-.60239-.149-.90413-.223h-.00003l-.00011-.0001c-.33275-.0815-.66556-.1631-.99717-.2463-.4201-.1005-.84397-.2085-1.23465-.3995-.16857-.0815-.31181-.207-.41447-.3633-.07928-.129-.11423-.2802-.09954-.4307.03318-.2765.13586-.5393.2473-.7928l1.02053-2.44384c.01944-.04474.03831-.08984.0572-.13497l.00001-.00001c.06018-.14379.12053-.28801.20011-.42246.08945-.16339.2083-.30898.35061-.42947.16779-.12734.36501-.20912.5735-.23846.1272-.01138.2544-.00818.38161-.00497l.07856.00185c.47436.06991.94413.16788 1.40683.29339.32725.07874.65402.15954.98072.24032l.00004.00001c.3208.07933.6416.15864.9626.23596.298.07303.5948.14794.8859.24719l.0034.00122c.1936.07077.3914.14306.5614.26595.1941.12547.318.33459.3343.56489Zm6.952 1.0606v.04c-.5271.3289-1.0565.6555-1.5863.9823l-.0003.0001c-.3429.2116-.6859.4232-1.0286.6356-.0165.0119-.0295.0281-.0375.0468.0534.0143.1072.0278.1611.0413.1812.0454.3635.0911.5338.169.2041.0906.4133.2085.5285.4064.1102.201.1377.437.0763.6573-.0279.1386-.0814.2701-.135.4015v.0001c-.0101.0249-.0203.0498-.0302.0747-.0762.182-.1525.3639-.2287.5458-.1858.443-.3716.8861-.5558 1.3313-.0127.0311-.0295.0603-.0501.0867-.061-.0013-.12-.0174-.1792-.0336-.0241-.0066-.0482-.0132-.0725-.0188-.1689-.0416-.3382-.0829-.5076-.1242l-.0006-.0002h-.0002c-.2548-.0622-.5098-.1244-.7638-.1877-.0576-.0162-.1159-.0295-.1742-.0429-.081-.0185-.1619-.0371-.2409-.0632.0026-.0599.0273-.1137.0518-.1669.0105-.0228.0209-.0454.0296-.0685l.581-1.3864c.0438-.0961.0695-.216.0069-.3096-.0783-.1336-.2354-.1841-.3744-.2222-.3252-.0834-.6518-.1628-.9784-.2422-.1866-.0453-.3731-.0907-.5593-.1367-.0211-.0045-.0419-.0104-.0629-.0164-.0518-.0147-.1039-.0294-.1587-.0223-.03.0522-.0516.1088-.0734.1658-.011.0288-.0221.0578-.0343.0864-.1162.2715-.2299.544-.3435.8164-.0995.2385-.199.477-.3002.7148-.0095.0217-.0179.0441-.0263.0665v.0001c-.0191.0511-.0383.1023-.0713.1456-.0603 0-.118-.0165-.1757-.0331-.0238-.0068-.0476-.0136-.0716-.0193-.1629-.04-.3258-.0803-.4888-.1206h-.0001l-.0001-.0001c-.2748-.068-.55-.136-.8258-.2026-.0465-.0125-.0937-.0232-.1411-.0339-.0784-.0178-.1572-.0356-.2333-.0617.0015-.0345.0091-.0685.0225-.1005l2.212-5.28718c.0076-.01772.0197-.0332.0351-.04495.0505.00328.0995.01787.1484.03244.0256.00762.0512.01524.0769.02124.2136.05083.4274.1039.6413.157v.00001c.1592.03951.3184.07904.4776.11764.0736.019.148.0364.2224.0538.1212.0283.2427.0567.3617.0923.0091.0329-.0045.0663-.0174.0979l-.0039.0095c-.0884.2005-.1724.4027-.2564.6046-.0587.1414-.1174.2825-.1775.4228l-.4514 1.0812c-.0166.0416-.0349.0826-.0533.1238-.0376.0841-.0753.1685-.0988.2582.0644-.0222.1197-.0597.1761-.098l.0017-.0012 2.9464-1.8415c.015-.0094.0296-.0197.0442-.0299l.0001-.0001c.0377-.0265.0755-.053.1197-.0643.0665-.005.1303.0123.1936.0295.0225.0062.045.0123.0675.0174.1691.0361.3366.079.5038.1218v.0001c.13.0333.2599.0665.3903.0965.15.0334.2987.0704.447.1072.1709.0425.3411.0849.5121.1213Zm-9.3487-.7147c.077.0399.1427.1186.1302.2103l.0006.0007c-.0138.1095-.0601.2097-.1059.3085-.0121.0262-.0241.0523-.0356.0785l-.69178 1.6548c-.05197.1267-.12397.2709-.26484.3165-.16384.0353-.33187-.0037-.49242-.041l-.01158-.0027-1.41183-.3458-.00455-.0012c-.11691-.0309-.2373-.0626-.34794-.1193-.07451-.0362-.13524-.1124-.13524-.1998.00627-.0761.03444-.1473.06261-.2184.14579-.343.28917-.6869.43264-1.031.11039-.2647.22083-.5296.33244-.7943.05197-.1354.12898-.2902.28237-.3339.13253-.02124.26814-.0127.39694.0249.45454.1099.90658.221 1.35862.3334.0335.0086.06732.0167.10123.0248.13843.0332.27833.0668.40403.135Z" fill="#fff"/></g><defs><clipPath id="clip0_127_151"><path fill="#fff" d="M2 2h20v20H2z"/></clipPath></defs></svg>