<svg width="24" height="24" viewBox="0 0 24 24" fill="none" xmlns="http://www.w3.org/2000/svg"><path d="M7.61619 2.97977c2.67871-1.27939 5.87721-1.31937 8.55591-.03998 3.0786 1.39933 5.3575 4.51785 5.7173 7.87621 0 .12.04.2799.08.3998.0799.9596 0 1.9591-.1999 2.8787-1.1595 5.3574-6.397 8.7558-11.7544 7.6763-2.199-.3998-4.23803-1.6392-5.67735-3.3584-2.59876-3.1185-3.07853-7.4764-1.19943-11.07471.95955-1.8791 2.55879-3.43836 4.47787-4.35792Zm1.19943 3.67825v2.15897h6.31698V6.61804c-2.119.03998-4.238.03998-6.31698.03998ZM6.61667 8.85697V15.094h2.15897c0-2.079.03998-4.198 0-6.27701-.71966 0-1.43931 0-2.15897.03998Zm8.47593 0V15.094h2.159V8.85697c-.7197-.03998-1.4393-.03998-2.159 0ZM8.81562 15.134v2.159h6.27698c.04-.7197 0-1.4394 0-2.159-2.079-.04-4.198-.04-6.27698 0Z" fill="#100C17"/></svg>