<svg width="24" height="24" viewBox="0 0 24 24" fill="none" xmlns="http://www.w3.org/2000/svg"><path d="M10.9238 10.9237c.7073.1732 1.4461.1732 2.1534 0 .1977-.8038.6116-1.53821 1.197-2.12355.5853-.58533 1.3197-.99928 2.1235-1.19695.163-.66635.1723-1.36101.0274-2.03152-.1449-.6705-.4403-1.2993-.8639-1.8389-.4235-.5396-.9642-.97588-1.5811-1.27589-.6169-.30002-1.2939-.45591-1.9799-.45591-.6859 0-1.3629.15589-1.9798.45591-.61694.30001-1.15759.73629-1.58115 1.27589-.42356.5396-.71895 1.1684-.86387 1.8389-.14491.67051-.13555 1.36517.02738 2.03152.804.19744 1.53859.6113 2.12404 1.19666.5855.58537.9994 1.31984 1.197 2.12384Z" fill="#7ABDF7"/><path d="M13.0772 13.0763c-.7073-.1733-1.4461-.1733-2.1534 0-.1977.8038-.6116 1.5382-1.19697 2.1235-.58533.5854-1.31973.9993-2.12357 1.197-.16292.6663-.17228 1.361-.02737 2.0315.14491.6705.4403 1.2993.86386 1.8389.42356.5396.96421.9759 1.58115 1.2759.6169.3 1.2939.4559 1.9799.4559.6859 0 1.3629-.1559 1.9798-.4559.6169-.3 1.1576-.7363 1.5812-1.2759.4235-.5396.7189-1.1684.8638-1.8389.1449-.6705.1356-1.3652-.0274-2.0315-.804-.1975-1.5385-.6113-2.124-1.1967-.5855-.5853-.9994-1.3199-1.197-2.1238Z" fill="#0D74F5"/><path d="M17.4745 7.47295c-.3627-.00005-.724.04353-1.0763.12979-.1974.80381-.6112 1.53819-1.1965 2.12347-.5853.58529-1.3197.99909-2.1235 1.19659-.1732.7073-.1732 1.446 0 2.1534.8038.1976 1.5382.6115 2.1235 1.1969.5853.5853.9991 1.3198 1.1965 2.1236.6218.1519 1.2688.1702 1.8981.0537.6294-.1165 1.227-.3651 1.7532-.7295.5262-.3644.9692-.8362 1.2997-1.3843.3305-.5482.5411-1.1602.6177-1.7956.0766-.6355.0176-1.28-.1731-1.891s-.5089-1.17459-.9334-1.65362c-.4245-.47902-.9458-.86257-1.5295-1.12534-.5836-.26278-1.2164-.3988-1.8564-.39909v.001Z" fill="#4494F7"/><path d="M10.9238 13.0762c.1732-.7074.1732-1.4461 0-2.1534-.8039-.1975-1.53832-.6113-2.12367-1.1966-.58536-.58526-.99928-1.31964-1.19688-2.12346-.66635-.16292-1.36102-.17228-2.03152-.02737-.6705.14491-1.2993.4403-1.8389.86386-.5396.42356-.97589.96421-1.2759 1.58107-.30001.6169-.45591 1.2939-.45591 1.9799 0 .686.1559 1.363.45591 1.9799s.7363 1.1576 1.2759 1.5811c.5396.4236 1.1684.719 1.8389.8639.6705.1449 1.36517.1355 2.03152-.0274.19741-.8041.61124-1.5387 1.19661-2.1243.58536-.5855 1.31994-.9995 2.12394-1.1972Z" fill="#005CF4"/><path d="M13.0772 10.9238c.8039-.1977 1.5383-.6116 2.1236-1.19696.5853-.58533.9993-1.31973 1.1969-2.12357-.8038.19767-1.5382.61161-2.1235 1.19695-.5854.58533-.9993 1.31968-1.197 2.12358Z" fill="#186EF9"/><path d="M13.0772 13.0762c.1975.8039.6114 1.5384 1.1968 2.1238.5854.5853 1.3198.9992 2.1237 1.1967-.1976-.8038-.6116-1.5382-1.1969-2.1235-.5853-.5854-1.3197-.9993-2.1236-1.197Z" fill="#0246F2"/><path d="M10.9238 10.9238c-.1977-.8039-.6116-1.53825-1.19697-2.12358-.58534-.58534-1.31973-.99928-2.12357-1.19695.19767.80384.61161 1.53824 1.19694 2.12357.58534.58536 1.3197.99926 2.1236 1.19696Z" fill="#0046F8"/><path d="M10.9238 13.0762c-.8039.1977-1.53826.6116-2.1236 1.197-.58533.5853-.99927 1.3197-1.19694 2.1235.80384-.1976 1.53823-.6116 2.12357-1.1969.58537-.5854.99927-1.3198 1.19697-2.1236Z" fill="#0729F1"/><path d="M10.9238 10.9237c.7073.1732 1.4461.1732 2.1534 0 .1977-.8038.6116-1.53821 1.197-2.12355.5853-.58533 1.3197-.99928 2.1235-1.19695.163-.66635.1723-1.36101.0274-2.03152-.1449-.6705-.4403-1.2993-.8639-1.8389-.4235-.5396-.9642-.97588-1.5811-1.27589-.6169-.30002-1.2939-.45591-1.9799-.45591-.6859 0-1.3629.15589-1.9798.45591-.61694.30001-1.15759.73629-1.58115 1.27589-.42356.5396-.71895 1.1684-.86387 1.8389-.14491.67051-.13555 1.36517.02738 2.03152.804.19744 1.53859.6113 2.12404 1.19666.5855.58537.9994 1.31984 1.197 2.12384Z" fill="#7ABDF7"/><path d="M13.0772 13.0763c-.7073-.1733-1.4461-.1733-2.1534 0-.1977.8038-.6116 1.5382-1.19697 2.1235-.58533.5854-1.31973.9993-2.12357 1.197-.16292.6663-.17228 1.361-.02737 2.0315.14491.6705.4403 1.2993.86386 1.8389.42356.5396.96421.9759 1.58115 1.2759.6169.3 1.2939.4559 1.9799.4559.6859 0 1.3629-.1559 1.9798-.4559.6169-.3 1.1576-.7363 1.5812-1.2759.4235-.5396.7189-1.1684.8638-1.8389.1449-.6705.1356-1.3652-.0274-2.0315-.804-.1975-1.5385-.6113-2.124-1.1967-.5855-.5853-.9994-1.3199-1.197-2.1238Z" fill="#0D74F5"/><path d="M17.4745 7.47295c-.3627-.00005-.724.04353-1.0763.12979-.1974.80381-.6112 1.53819-1.1965 2.12347-.5853.58529-1.3197.99909-2.1235 1.19659-.1732.7073-.1732 1.446 0 2.1534.8038.1976 1.5382.6115 2.1235 1.1969.5853.5853.9991 1.3198 1.1965 2.1236.6218.1519 1.2688.1702 1.8981.0537.6294-.1165 1.227-.3651 1.7532-.7295.5262-.3644.9692-.8362 1.2997-1.3843.3305-.5482.5411-1.1602.6177-1.7956.0766-.6355.0176-1.28-.1731-1.891s-.5089-1.17459-.9334-1.65362c-.4245-.47902-.9458-.86257-1.5295-1.12534-.5836-.26278-1.2164-.3988-1.8564-.39909v.001Z" fill="#4494F7"/><path d="M10.9238 13.0762c.1732-.7074.1732-1.4461 0-2.1534-.8039-.1975-1.53832-.6113-2.12367-1.1966-.58536-.58526-.99928-1.31964-1.19688-2.12346-.66635-.16292-1.36102-.17228-2.03152-.02737-.6705.14491-1.2993.4403-1.8389.86386-.5396.42356-.97589.96421-1.2759 1.58107-.30001.6169-.45591 1.2939-.45591 1.9799 0 .686.1559 1.363.45591 1.9799s.7363 1.1576 1.2759 1.5811c.5396.4236 1.1684.719 1.8389.8639.6705.1449 1.36517.1355 2.03152-.0274.19741-.8041.61124-1.5387 1.19661-2.1243.58536-.5855 1.31994-.9995 2.12394-1.1972Z" fill="#005CF4"/><path d="M13.0772 10.9238c.8039-.1977 1.5383-.6116 2.1236-1.19696.5853-.58533.9993-1.31973 1.1969-2.12357-.8038.19767-1.5382.61161-2.1235 1.19695-.5854.58533-.9993 1.31968-1.197 2.12358Z" fill="#186EF9"/><path d="M13.0772 13.0762c.1975.8039.6114 1.5384 1.1968 2.1238.5854.5853 1.3198.9992 2.1237 1.1967-.1976-.8038-.6116-1.5382-1.1969-2.1235-.5853-.5854-1.3197-.9993-2.1236-1.197Z" fill="#0246F2"/><path d="M10.9238 10.9238c-.1977-.8039-.6116-1.53825-1.19697-2.12358-.58534-.58534-1.31973-.99928-2.12357-1.19695.19767.80384.61161 1.53824 1.19694 2.12357.58534.58536 1.3197.99926 2.1236 1.19696Z" fill="#0046F8"/><path d="M10.9238 13.0762c-.8039.1977-1.53826.6116-2.1236 1.197-.58533.5853-.99927 1.3197-1.19694 2.1235.80384-.1976 1.53823-.6116 2.12357-1.1969.58537-.5854.99927-1.3198 1.19697-2.1236Z" fill="#0729F1"/></svg>