<svg width="24" height="24" viewBox="0 0 24 24" fill="none" xmlns="http://www.w3.org/2000/svg"><path d="M14.8916 8.66687H9.11385c-.24546 0-.44448.19893-.44448.44439v5.77784c0 .2454.19902.4445.44448.4445h5.77775c.2454 0 .4445-.1991.4445-.4445V9.11126c0-.24546-.1991-.44439-.4445-.44439ZM8.22222 2H2.44448C2.19903 2 2 2.19893 2 2.44448v5.77773c0 .24546.19903.44448.44448.44448h5.77774c.24554 0 .44447-.19902.44447-.44448V2.44448C8.66669 2.19893 8.46776 2 8.22222 2ZM21.5556 2h-5.7778c-.2455 0-.4445.19893-.4445.44448v5.77773c0 .24546.199.44448.4445.44448h5.7778c.2455 0 .4444-.19902.4444-.44448V2.44448C22 2.19893 21.8011 2 21.5556 2ZM8.22222 15.3332H2.44448c-.24545 0-.44448.199-.44448.4444v5.7778c0 .2455.19903.4445.44448.4445h5.77774c.24554 0 .44447-.199.44447-.4445v-5.7778c0-.2454-.19893-.4444-.44447-.4444ZM21.5556 15.3332h-5.7778c-.2455 0-.4445.199-.4445.4444v5.7778c0 .2455.199.4445.4445.4445h5.7778c.2455 0 .4444-.199.4444-.4445v-5.7778c0-.2454-.1989-.4444-.4444-.4444Z" fill="#000"/></svg>