<svg width="24" height="24" viewBox="0 0 24 24" fill="none" xmlns="http://www.w3.org/2000/svg"><circle cx="12" cy="12" r="10" fill="#E7EFF3"/><path fill-rule="evenodd" clip-rule="evenodd" d="M5.45255 10.7193c.52918-2.7956 2.84371-4.96045 5.71945-5.35066.4972-.06949 1.5502-.03207 2.1007.07483 1.315.25123 2.6406.98354 3.5547 1.9457 1.5555 1.6517 2.1702 3.90213 1.6677 6.11503-.2886 1.2775-.9408 2.4108-1.9243 3.3462-.9301.8766-1.9831 1.4218-3.2874 1.6998-.6307.1336-1.935.1336-2.5657 0-.91406-.1978-1.70517-.5292-2.48024-1.037-.50781-.3368-1.38979-1.2241-1.74258-1.7479-1.01026-1.5127-1.37374-3.282-1.04233-5.046ZM16.7365 8.10012c-.9782-1.20805-2.4802-2.02053-4.0678-2.20228-1.3149-.14432-2.5657.12295-3.76842.81249-1.10113.6254-2.09536 1.77465-2.57109 2.96665-.93544 2.31452-.41694 4.88032 1.34167 6.64422 3.11634 3.1377 8.43494 2.0205 10.04384-2.1114.3047-.7697.4009-1.3417.4009-2.2717-.0053-.6522-.0267-.866-.1443-1.3364-.2406-.98886-.604-1.71582-1.2348-2.50158Z" fill="#000"/><path fill-rule="evenodd" clip-rule="evenodd" d="M6.70874 12.3336c-.16036-.8018.2833-1.6624.97819-1.9136.26193-.0909.78577-.107 1.05838-.0321.70024.1978 1.17597.9675 1.10113 1.7907-.05879.5986-.32071 1.0209-.79645 1.2882-.25657.139-.32606.155-.79111.155-.58264 0-.79645-.0802-1.12786-.4383-.25123-.2619-.3421-.449-.42228-.8499Zm2.51226-.0214c.11225-.465-.04811-.9942-.36348-1.2241-.32072-.2245-.87129-.2298-1.18132-.0053-.37417.2619-.50246 1.0156-.25657 1.4967.40624.8071 1.58756.6307 1.80137-.2673Z" fill="#000"/><path d="M14.9191 10.4413c-1.0049.4009-1.2882 1.8816-.5291 2.7796.4115.4918 1.3844.5826 1.8174.1657l.1176-.1122.016.1496c.016.1337.0321.1444.2833.1444h.2673l.016-.8446.016-.8392h-1.502v.5345h.4543c.4918 0 .5079.0107.3689.2993-.0962.1978-.4383.3956-.6949.3956-.6147 0-.9836-.433-.9836-1.1332.0054-.7751.5025-1.2187 1.1814-1.0584.2619.0642.5291.294.5291.4597 0 .0535.0802.0748.3208.0748h.3153l-.0748-.2405c-.1657-.5612-.5773-.8446-1.2561-.8659-.2994-.0107-.4651.0107-.6629.0908ZM10.2901 11.9915v1.6036h.5345l.0107-1.0798.016-1.0851.3956 1.0851.3955 1.0851.2673-.016.2673-.016.3902-1.0691.3902-1.0691.016 1.0691.0161 1.0691.2833.016.2779.016-.0107-1.5929-.016-1.5929h-.743l-.4276 1.1867c-.2352.6575-.4437 1.176-.4597 1.1492-.0214-.0214-.2138-.5292-.4276-1.1332-.2139-.604-.417-1.1278-.4437-1.1653-.0321-.0374-.1817-.0641-.3902-.0641h-.3421v1.6036Z" fill="#000"/></svg>