<svg width="24" height="24" viewBox="0 0 24 24" fill="none" xmlns="http://www.w3.org/2000/svg"><g clip-path="url(#clip0_127_147)"><path d="M12 22c5.5228 0 10-4.4772 10-10 0-5.52285-4.4772-10-10-10C6.47715 2 2 6.47715 2 12c0 5.5228 4.47715 10 10 10Z" fill="#1A53F0"/><path d="M9.41 12.8063c-.72144.0004-1.41315.2875-1.923.7979-.50985.5104-.79608 1.2025-.79575 1.9239-.00033.7214.28582 1.4133.79553 1.9237.50971.5104 1.20126.7975 1.9226.7982.35733-.0001.71112-.0706 1.04122-.2074.3301-.1368.63-.3374.8826-.5901.2526-.2528.4529-.5528.5895-.883.1366-.3302.2068-.684.2067-1.0414.0001-.3573-.0701-.7111-.2066-1.0412-.1366-.3302-.3369-.6302-.5894-.8829-.2525-.2528-.5523-.4533-.8824-.5902-.33-.1369-.68372-.2074-1.041-.2075Zm0 4.6206c-.50297-.0004-.98522-.2004-1.3407-.5563-.35548-.3558-.55509-.8383-.55492-1.3412-.00017-.2491.04874-.4958.14391-.726.09518-.2302.23476-.4394.41079-.6157.17602-.1762.38504-.3161.61512-.4116.23007-.0955.4767-.1447.7258-.1448.24916 0 .49585.0492.726.1446.2302.0955.4392.2353.6153.4116.1761.1763.3158.3855.411.6157.0952.2303.1441.477.144.7262-.0007.5028-.2007.9849-.5561 1.3405-.3554.3557-.83737.556-1.3402.557ZM15.2188 7c-.3573.00016-.7111.0707-1.0411.20757-.33.13688-.6298.33742-.8824.59017-.2525.25275-.4527.55276-.5893.8829-.1366.33015-.2068.68396-.2066 1.04123-.0004.72143.2859 1.41353.7957 1.92393.5099.5104 1.2016.7975 1.923.7979.3574 0 .7112-.0705 1.0413-.2073.3301-.1369.63-.3374.8825-.5902.2526-.2527.4529-.5528.5896-.8829.1366-.3302.2068-.6841.2066-1.04143.0002-.35733-.07-.71119-.2066-1.04137-.1367-.33019-.337-.63023-.5896-.88298-.2525-.25276-.5524-.45329-.8825-.59013-.3301-.13683-.6839-.20731-1.0413-.20739h.0007Zm0 4.6206c-.2491-.0001-.4958-.0492-.7259-.1446-.2301-.0954-.4392-.2352-.6153-.4114-.176-.1762-.3157-.3854-.4109-.6155-.0953-.2302-.1443-.47687-.1442-.72597-.0002-.24916.0488-.4959.144-.72615.0952-.23024.2348-.43947.4109-.61574.1761-.17626.3852-.31611.6154-.41155.2301-.09544.4768-.14461.726-.14469.2491.00016.4957.04939.7258.14487.23.09548.4391.23534.6151.4116.176.17625.3156.38545.4108.61566.0951.2302.144.47689.1439.726-.0007.50267-.2006.98467-.5559 1.34037-.3553.3556-.837.556-1.3397.5571ZM9.41 7c-.62786.00083-1.23616.21855-1.72196.61632-.48579.39776-.81925.95115-.94393 1.56651-.12469.61536-.03296 1.25487.25968 1.81037.29263.5555.7682.9929 1.34621 1.2381.57846.2444 1.2237.2811 1.8261.1038.6025-.1772 1.125-.5576 1.4789-1.0764.3543-.519.5182-1.1446.4641-1.7707-.0541-.6261-.3229-1.21427-.761-1.66487h.7707V7H9.41Zm1.8963 2.72187c0 .24911-.0489.49583-.1442.72593-.0952.2302-.2349.4394-.411.6156-.1761.1762-.3851.3159-.6152.4113-.23015.0954-.4768.1446-.7259.1447-.50297-.0004-.98522-.2004-1.3407-.5563-.35548-.3558-.55509-.8383-.55492-1.34123-.00017-.50297.19944-.98542.55492-1.34125.35548-.35583.83773-.55591 1.3407-.55624.50294.00082.985.20102 1.3406.55671.3556.35569.5556.83785.5563 1.34078h-.0006Z" fill="#fff"/></g><defs><clipPath id="clip0_127_147"><path fill="#fff" d="M2 2h20v20H2z"/></clipPath></defs></svg>