<svg width="24" height="24" viewBox="0 0 24 24" fill="none" xmlns="http://www.w3.org/2000/svg"><path d="m6.45944 13.2722.52822-3.97827-4.5891-3.18592L6.5915 7.52779l.99003-1.51863 3.61527-2.24494 7.9728 4.39064.4127 6.70194-3.5496 4.9355-2.806.4294 1.4526-2.6577v-2.5585l-1.0564-1.9974-1.0731-.7097-1.6507 1.7001v1.7993l-1.28731 1.2048-1.63447.198-.7263.4128-1.1885-.3796-.49501-1.7827.89156-1.2545v-.9244h.00037Z" fill="#fff"/><path d="M13.7881 6.07518c-.8745-.18148-1.8321-.13205-1.8321-.13205s-.3136 1.4526-2.26157 1.83217c.01661 0 2.57507.87496 4.09367-1.70012Zm.7924 13.17232c1.0564-.8252 1.8487-1.9642 2.2121-3.2516.0166-.0494.1649-.132.2641-.1981.1649-.0992.3301-.1814.363-.3135.0664-.3872.0996-.7794.0992-1.1723 0-.1483-.1487-.2969-.2973-.4456-.1155-.0988-.2309-.2147-.2309-.2973-.1653-1.5016-.8584-2.9052-1.9643-3.92843l-.1158.11545c1.0731 1.00698 1.7665 2.37698 1.9148 3.82958.0166.1321.1487.2641.2807.3962.1155.0992.2475.2479.2475.3139 0 .3796-.0328.7591-.0988 1.1387-.0166.066-.1653.132-.2807.1981-.1649.0826-.3136.1652-.3468.2973-.3961 1.4028-1.3039 2.6245-2.509 3.4168.215-.4622.8915-1.9642 1.2545-2.7237l-.066-2.443-2.0963-2.0303-1.1885.1653-1.3039 2.1129s.6108.7757-.2476 1.6835c-.84209.8912-1.50237 1.0892-1.50237 1.0892l-.61047-.3301c.1811-.2309.54444-.5773.82516-.8086.47879-.3961.95758-.4293.95758-.8583.0162-.8916-.94098-.6437-.94098-.6437l-.34674.3298-.14866 1.2217-.7263.9078-.08225-.0166-1.1885-.2642s.7263-.3795.84138-.8085c.11583-.4128-.23091-1.7828-.24713-1.8654.01622.0166.34636.2973.49502.7595.26411-.7263.61085-1.4198.7097-1.4858.09923-.066 1.43638-.7757 1.43638-.7757l-.44597 1.1719.33014-.1815.79231-1.948s.7761-.3796 1.3538-.3796c1.0398-.0166 2.575-1.28769 1.8816-3.56546.1981.08263 3.6315 1.79935 4.2257 5.16676.446 2.5913-1.0232 5.0181-3.4994 6.4213v-.0004Z" fill="#94A6C3"/><path d="M10.652 6.43816c.3796-.44521.2309-1.10549.2309-1.10549L9.77742 6.96638c-.0166 0 .39618.0166.87458-.52822ZM6.93786 15.3689l.13206-.6603s-.54482.9572-.59425 1.0893c-.04943.1486.0332.4123.24751.3961.21506-.0166.47917-.3301.47917-.5614 0-.2969-.26411-.2641-.26411-.2641l-.00038.0004Z" fill="#1B314F"/><path d="M16.7431 4.87011s.8251.0332 1.6835.13205c-1.9314-1.51826-3.7636-1.96423-5.249-1.96423-2.0469 0-3.43344.84176-3.51644.89119l.64404-1.02324s-2.57507-.24751-3.48285 2.47584c-.23128-.57727-.44559-1.4194-.44559-1.4194s-1.33715 1.1719-.71008 3.1199c-1.53486-.56143-3.72999-1.33716-3.813-1.35376-.11545-.0166-.14865.03321-.14865.03321s-.03283.04904.06602.13205c.18186.14828 3.6485 2.70713 4.40763 3.20215-.16526.59425-.16526.87496 0 1.15563.2309.3796.24751.5773.2143.8584-.03282.2803-.33013 2.7071-.39616 3.0041-.06603.2973-.75913 1.3537-.72631 1.6673.03321.3135.4622 1.6506.84214 1.7993.28033.0989.97343.3132 1.436.3132.16488 0 .31354-.0329.37957-.0989.28071-.2475.36334-.2969.56142-.2969h.04905c.08301 0 .18186.0166.29731.0166.26411 0 .61123-.0498.85836-.2807.36334-.3634.99044-.8584 1.18854-1.0897.1291-.1638.2236-.3521.2776-.5536.0539-.2015.0663-.4119.0363-.6183-.0498-.3961.1649-.7429.4124-1.0892.2956-.3864.5928-.7717.8915-1.1557 1.1391.8583 1.8488 2.1623 1.8488 3.6149 0 2.5751-2.2449 4.6551-5.0181 4.6551-.4226.0006-.84375-.0494-1.25453-.1486 1.27113.4456 2.34383.5942 3.21873.5942 1.8654 0 2.8558-.6769 2.8558-.6769s-.3467.446-.9078.9576h.0162c3.0871-.4293 4.5891-2.9712 4.5891-2.9712s-.1154.8251-.2641 1.3866c4.1104-3.0867 3.4169-6.9495 3.4003-7.0816.0332.0494.4459.5448.6602.809.6603-6.80088-4.9022-8.99639-4.9022-8.99639ZM10.4207 15.7318c-.0661.0823-.3464.3302-.54448.5116-.19808.1815-.41277.363-.57802.5283-.06603.066-.19809.0988-.39617.0988h-.49464c.24751-.3301.97381-1.0892 1.22132-1.2545.29731-.1981.44599-.3962.26411-.7425-.1811-.3471-.66028-.2641-.66028-.2641s.28072-.1159.52823-.1159c-.31316-.0822-.70933 0-.89119.1819-.19808.1811-.16526.8251-.24751 1.2375-.083.4294-.36334.6441-.79233 1.0402-.23128.2147-.39616.2808-.52822.2808-.28577-.05-.5673-.1218-.84213-.2147-.16488-.2147-.41239-.9244-.47842-1.2213.04905-.1653.24751-.512.34636-.7101.19808-.3796.31392-.5943.34712-.7924.06565-.2803.28033-2.0136.36296-2.7399.21431.2807.51162.7429.44522 1.0398.47917-.6768.13205-1.3371-.03283-1.6012-.14828-.2641-.34636-.7924-.1811-1.35341.16488-.56142.75912-2.11288.75912-2.11288s.19809.34674.47842.28071c.28071-.06603 2.54226-3.46664 2.54226-3.46664s.6108 1.33716-.0332 2.31097c-.6603.97381-1.30396 1.15567-1.30396 1.15567s.90776.16488 1.74996-.44597c.3463.80893.6765 1.65069.6931 1.76652-.0495.11545-.7097 1.70013-.7758 1.79893-.0332.0332-.2641.0993-.4293.1321-.2804.083-.4453.132-.5117.1819-.1154.0988-.64363 1.5514-.89114 2.2611-.29731.083-.59425.2479-.80893.578.11545-.083.47879-.132.7429-.1652.23091-.0166.94057.3633 1.12247 1.073v.0328c.0328.2642-.0498.512-.1819.7101h-.0003Zm-1.5515.1981c.14866-.2151.13206-.578.14866-.6935.01622-.1154.04905-.3301.18111-.3629.13205-.0332.44596.0162.44596.2475 0 .2147-.2309.2641-.39616.4127-.11546.1155-.34674.363-.37957.3962Zm6.5862-3.1531c.1652-.8414.1814-1.5681.132-2.1619.6437.858 1.0399 1.8978 1.1557 2.9708.0162.1321.1483.2642.2803.3962.1158.0992.2479.2313.2479.3135 0 .38-.0332.7595-.0992 1.1395-.0166.049-.1649.132-.2807.1977-.1649.0826-.3132.1653-.3464.2973-.3654 1.2683-1.1294 2.3852-2.1789 3.1856 1.5348-1.6009 2.2778-4.242 1.0893-6.3387Zm-1.0399 6.4873c1.0731-.8251 1.8982-1.9808 2.2616-3.2848.0162-.0494.1648-.132.2641-.198.1648-.0827.3301-.1815.3629-.3136.0665-.3872.0997-.7794.0993-1.1723 0-.1482-.1487-.2969-.2974-.4452-.0826-.0992-.2146-.215-.2146-.2973-.1346-1.2002-.6036-2.3384-1.3534-3.2851-.3302-1.98086-1.6507-2.59133-1.6839-2.60794.0332.04943.8916 1.28735.2973 2.73994-.6108 1.4692-2.1789 1.2383-2.311 1.2545-.132 0-.6436.6603-1.2877 1.882-.0822-.0332-.429-.1154-.82514-.0494.29694-.8255.74294-1.9974.82514-2.0967.0332-.0328.2807-.0988.446-.1482.3131-.0831.4622-.1321.5116-.1981.0328-.0498.1981-.4294.363-.8256.1486 0 .5282-.0328.5614-.0494.0328-.0332.3467-.84175.3467-.94098 0-.08263-.644-1.68351-.8915-2.29436.1154-.13205.2313-.29731.3467-.47879 3.384.36334 6.0251 3.23535 6.0251 6.71823 0 2.6743-1.5684 5.0018-3.8462 6.0911Z" fill="#1B314F"/><path d="M10.0245 10.3508c.3139-.36335.1486-1.04022-.42902-1.15568.14865-.34711.36296-1.04021.36296-1.04021S8.27493 10.796 8.12627 10.8458c-.14866.0491-.29694-.5282-.29694-.5282-.31391 1.2047.52822 1.3696.62708.9904.46219-.1158 1.25452-.6112 1.56809-.9576v.0004Z" fill="#1B314F"/><path d="m8.58841 10.9945.85836-1.46923s.49539.24751.24788.64363c-.31391.4622-1.10624.8256-1.10624.8256Z" fill="#FFD923"/><path d="M19.2023 17.7949c-.2475.3305-.5283.6769-.8584 1.0074 2.1295-4.0937.0992-7.841.0166-7.9897.1487.1487.2973.3139.4294.4622 1.6337 1.8159 1.8321 4.5397.4124 6.5205v-.0004Zm1.9808-5.2656c-.7425-1.997-1.7994-3.69752-4.1265-5.23237-2.245-1.48581-4.6552-1.37036-4.7872-1.35376h-.0329c.0803-.02967.1632-.05178.2476-.06603.5116-.16488 1.1718-.29693 1.8321-.37956 1.7499-.24751 3.5161.34674 4.7212 1.61749l.0328.0332c1.3704 1.4526 2.0801 3.26813 2.1129 5.38103Zm-4.6548-8.17079c-2.4596-.46219-4.0442-.23091-5.1833.19808-.0328-.13205-.1483-.39616-.2475-.61085-.3468.41277-.7097.90817-.941 1.2217-.62709.42899-.8912.84176-.8912.84176.36297-1.23792 1.4194-2.16231 2.7071-2.39359.3924-.06846.7902-.10154 1.1885-.09886 1.1391.0166 2.2778.29694 3.3674.84176ZM7.43313 7.52783c-1.93177-.06602-1.28772-2.31096-1.25452-2.44302 0 .0166.13206 1.76615 1.25452 2.44302Zm1.8982-4.0439c-1.48581.89118-1.18849 3.02066-1.18849 3.02066-1.41978-2.16268 1.07304-2.97124 1.18849-3.02104v.00038Z" fill="#D82122"/><path d="M6.88828 8.12203c.09885.08263.19808.23091.08263.4456-.06603.11545-.16526.09923-.31391.0332-.19809-.09923-1.38658-.79233-2.45925-1.50241 1.22132.42937 2.45925.89156 2.65733.99041l.0332.0332Z" fill="#fff"/></svg>