<svg width="24" height="24" viewBox="0 0 24 24" fill="none" xmlns="http://www.w3.org/2000/svg"><mask id="mask0_9_15072" style="mask-type:alpha" maskUnits="userSpaceOnUse" x="2" y="2" width="20" height="21"><path d="M12 22.0084c5.5228 0 10-4.4771 10-10 0-5.52282-4.4772-9.99998-10-9.99998-5.52285 0-10 4.47716-10 9.99998 0 5.5229 4.47715 10 10 10Z" fill="#fff"/></mask><g mask="url(#mask0_9_15072)"><path d="M11.8946 21.6731c5.2988 0 9.5943-4.2955 9.5943-9.5943 0-5.29878-4.2955-9.5943-9.5943-9.5943-5.29879 0-9.59431 4.29552-9.59431 9.5943 0 5.2988 4.29552 9.5943 9.59431 9.5943Z" stroke="#5C4EFF" stroke-width=".243016"/><path d="M11.8945 20.2466c4.5109 0 8.1678-3.6568 8.1678-8.1677 0-4.51095-3.6569-8.16777-8.1678-8.16777-4.51088 0-8.16769 3.65682-8.16769 8.16777 0 4.5109 3.65681 8.1677 8.16769 8.1677Z" stroke="#5C4EFF" stroke-width=".243016"/><path d="M11.958 18.8229c3.8001 0 6.8808-3.0807 6.8808-6.8809 0-3.80013-3.0807-6.88078-6.8808-6.88078-3.8002 0-6.88085 3.08065-6.88085 6.88078 0 3.8002 3.08065 6.8809 6.88085 6.8809Z" stroke="#5C4EFF" stroke-width=".243016"/><mask id="mask1_9_15072" style="mask-type:alpha" maskUnits="userSpaceOnUse" x="5" y="4" width="12" height="15"><path d="m16.1007 6.0029-.1566-.0956c-3.3807-2.06509-7.79569-.99812-9.86028 2.3826-2.06559 3.3807-.99812 7.7957 2.3826 9.8608l.15653.0956L16.1007 6.0029Z" fill="#fff"/></mask><g mask="url(#mask1_9_15072)"><path d="M8.49374 17.9979c-3.28959-2.0091-4.32758-6.3046-2.31843-9.59419 2.00915-3.28958 6.30459-4.32758 9.59419-2.31842 3.2896 2.00915 4.3276 6.30461 2.3184 9.59421-2.0091 3.2896-6.3046 4.3276-9.59416 2.3184Z" stroke="#5C4EFF" stroke-width=".46659"/></g><mask id="mask2_9_15072" style="mask-type:alpha" maskUnits="userSpaceOnUse" x="3" y="7" width="17" height="14"><path d="m19.3626 16.0791-.1075.1862c-2.3252 4.0272-7.4748 5.4072-11.5019 3.0821-4.02665-2.3252-5.40618-7.4748-3.08054-11.50191l.106-.18625L19.3621 16.0791h.0005Z" fill="#fff"/></mask><g mask="url(#mask2_9_15072)"><path d="M4.78585 7.98769C2.5237 11.9059 3.86616 16.916 7.78433 19.1782c3.91817 2.2621 8.92827.9197 11.19047-2.9985 2.2622-3.9182.9197-8.92834-2.9985-11.19049-3.9181-2.26216-8.92829-.91969-11.19045 2.99848Z" stroke="#5C4EFF" stroke-width=".46659"/></g><mask id="mask3_9_15072" style="mask-type:alpha" maskUnits="userSpaceOnUse" x="5" y="1" width="18" height="18"><path d="m5.03314 4.84079.84209-.84208c3.32375-3.323759 8.71307-3.323759 12.03687 0l1.9893 1.98979c3.3237 3.32376 3.3237 8.7131 0 12.0369l-.8421.842L5.03364 4.84079h-.0005Z" fill="#fff"/></mask><g mask="url(#mask3_9_15072)"><path d="M18.7539 18.9162c3.7888-3.7888 3.7888-9.93162 0-13.72041-3.7888-3.78879-9.93162-3.78879-13.72041 0-3.78879 3.78879-3.78879 9.93161 0 13.72041s9.93161 3.7888 13.72041 0Z" stroke="#5C4EFF" stroke-width=".46659"/></g><path d="M7.7731 9.55631c-1.35431 2.34579-.5506 5.34519 1.79514 6.69949 2.34576 1.3544 5.34526.5507 6.69956-1.7951 1.3543-2.3457.5506-5.34521-1.7952-6.69952-2.3457-1.35431-5.34518-.5506-6.6995 1.79513Z" fill="url(#paint0_linear_9_15072)"/></g><defs><linearGradient id="paint0_linear_9_15072" x1="10.5982" y1="7.25128" x2="16.2604" y2="13.4833" gradientUnits="userSpaceOnUse"><stop stop-color="#8479FF"/><stop offset=".96354" stop-color="#1F1F61"/></linearGradient></defs></svg>