<svg width="24" height="24" viewBox="0 0 24 24" fill="none" xmlns="http://www.w3.org/2000/svg"><path d="M12 2c5.5228 0 10 4.47715 10 10 0 5.5229-4.4772 10-10 10-5.52286 0-10-4.4771-10-10C2 6.47715 6.47714 2 12 2Z" fill="#1A82FF"/><path d="M15.8506 16.3323c-.9107 1.1158-2.1917 1.6737-3.8429 1.6737-1.651 0-2.93221-.5579-3.84344-1.6737-.91142-1.1165-1.36693-2.5595-1.36653-4.3292.0004-1.7698.45571-3.21271 1.36593-4.32875C9.07449 6.55791 10.3556 5.9998 12.0072 6c1.6515.0002 2.9325.55831 3.8428 1.67435.9109 1.11584 1.3664 2.55875 1.3666 4.32875.0002 1.7699-.4552 3.213-1.366 4.3292Z" fill="#fff"/><path d="M11.9884 15.6727c.4347 0 .8041-.1184 1.1086-.3552.3044-.2369.5249-.5582.6613-.9637.1363-.4058.2325-.7948.2886-1.167.0561-.3721.0839-.7667.0835-1.1838 0-.5134-.031-.9729-.0931-1.3785l-3.7449 3.9024c.3463.7635.9116 1.1455 1.696 1.1458ZM12.0256 8.33328c-.4346 0-.8042.11844-1.1085.35532-.3045.23687-.5249.55811-.6614.96373-.1371.40577-.2333.79477-.28858 1.16697-.05612.3722-.08397.7667-.08357 1.1837 0 .2748.00882.5341.02645.778l3.5717-3.72146c-.3468-.48397-.8322-.72606-1.4561-.72626Z" fill="#1A82FF"/><path d="m7.08859 15.723-.45993-.4413 3.48754-3.6354.46.4412-3.48761 3.6355Zm6.57111-3.7936-.4599-.4412 3.4876-3.63551.4599.44128-3.4876 3.63543Z" fill="#1A82FF"/></svg>