<svg width="24" height="24" viewBox="0 0 24 24" fill="none" xmlns="http://www.w3.org/2000/svg"><path fill-rule="evenodd" clip-rule="evenodd" d="M11.993 20.883c-2.77561-.0021-5.01109-.6682-6.57331-1.8644C3.83875 17.8079 3 16.09 3 14.146c0-1.873.83697-3.2237 1.78387-4.1367.74189-.71547 1.56073-1.17362 2.13089-1.43745-.15688-.47915-.30153-.96221-.43378-1.44873-.19253-.71604-.3815-1.55598-.3815-2.1716 0-.72852.15896-1.46031.5874-2.02898.4525-.60047 1.13378-.92224 1.95322-.92224.64057 0 1.18429.23769 1.6104.64741.4067.39159.6774.91213.8645 1.45437.3287.95313.4567 2.1505.4924 3.34549h.7852c.0357-1.19499.1637-2.39236.4924-3.34549.1871-.54224.4578-1.06278.8646-1.45437C14.1756 2.23769 14.7193 2 15.3599 2c.8194 0 1.5007.32207 1.9532.92254.4285.56867.5874 1.30046.5874 2.02928 0 .61532-.1889 1.45526-.3815 2.1713-.1322.48652-.2769.96959-.4338 1.44873.5702.26383 1.389.72198 2.1309 1.43745C20.163 10.9223 21 12.273 21 14.146c0 1.944-.8387 3.6619-2.4197 4.8726-1.5619 1.1962-3.7977 1.8623-6.5733 1.8644h-.014Z" fill="#633001"/><path d="M8.6401 2.69315c-1.20034 0-1.75297.90471-1.75297 2.15585 0 .99444.64177 2.98599.9056 3.76145.05913.17441-.03387.36545-.20382.43319-.96205.38328-3.80126 1.78626-3.80126 4.99986 0 3.385 2.88526 5.9372 8.20595 5.9413h.0128c5.3207-.0041 8.206-2.5563 8.206-5.9413 0-3.2136-2.8393-4.61688-3.8013-4.99986-.0827-.03269-.1499-.09571-.1878-.1762-.0378-.0805-.0436-.17241-.016-.25699.2635-.77546.9056-2.76701.9056-3.76145 0-1.25114-.5527-2.15585-1.753-2.15585-1.728 0-2.1588 2.47257-2.1897 5.12639-.0003.0847-.034.16586-.0937.22592s-.1407.09418-.2254.09496h-1.7025c-.1753 0-.317-.1438-.3191-.32088-.0306-2.65382-.4614-5.12639-2.1894-5.12639Z" fill="#D1884F"/><path d="M12.0064 18.9004c-3.90942 0-8.21221-2.114-8.21875-4.8507v.0128c0 3.388 2.89002 5.9414 8.21875 5.9414 5.3287 0 8.2184-2.5534 8.2184-5.9414v-.0128c-.0065 2.7364-4.309 4.8507-8.2184 4.8507Z" fill="#FEDC90"/><path d="M9.8342 13.2092c0 .924-.4323 1.4053-.96562 1.4053-.53302 0-.96532-.4813-.96532-1.4053 0-.924.4323-1.4054.96562-1.4054.53302 0 .96532.4814.96532 1.4054Zm6.275 0c0 .924-.4323 1.4053-.9656 1.4053-.533 0-.965-.4813-.965-1.4053 0-.924.432-1.4054.9653-1.4054.533 0 .9656.4814.9656 1.4054h-.0003Z" fill="#633001"/></svg>