<svg width="24" height="24" viewBox="0 0 24 24" fill="none" xmlns="http://www.w3.org/2000/svg"><g clip-path="url(#clip0_127_154)"><path d="M12 22c5.523 0 10-4.477 10-10S17.523 2 12 2 2 6.477 2 12s4.477 10 10 10Z" fill="#EDF0F4"/><path d="M8.37438 14.3642v1.3948h1.39487v-.3555h1.94185v3.0906c-3.22732-.1915-5.88031-2.8445-6.04441-6.0718h3.09059v1.9145l-.3829.0274ZM14.3368 15.4035v.3555h1.3948v-1.3949h-.3555v-1.9145h3.0906c-.1641 3.2274-2.8445 5.853-6.0718 6.0445v-3.0906h1.9419Z" fill="#005CC7"/><path d="M11.7111 8.81199h2.653v-.41026h1.4222V9.9607h-1.3948v-.4376h-2.653v2.8991l3.0085.0274v1.9145h-.3555v.3282H9.76925v-.3555h-.3282V9.7966h.35555V8.40173H8.40173V9.7966h.35556v1.9145h-3.0906c.1641-3.25467 2.84444-5.88031 6.04441-6.04441v3.1453Z" fill="#005CC7"/></g><defs><clipPath id="clip0_127_154"><path fill="#fff" d="M2 2h20v20H2z"/></clipPath></defs></svg>