<svg width="24" height="24" viewBox="0 0 24 24" fill="none" xmlns="http://www.w3.org/2000/svg"><g clip-path="url(#clip0_127_152)"><path d="M11.4245 2.17569c.6442-.28463 1.1036.31861 1.5008.72182.7087.61192 1.3843 1.26238 2.0237 1.94851.3669.40625.2183 1.14969-.2805 1.37589-.3835.21241-.8519.05234-1.1459-.24345-.7717-.75063-1.5099-1.5391-2.3118-2.25636-.4972-.41245-.3956-1.30854.2137-1.54672v.00031Zm7.0276 2.08078c.4367-.23858 1.1354-.04464 1.2568.48324.1849.46945-.1122.93414-.4382 1.24666-.714.71564-1.4086 1.45126-2.1026 2.18698-.2531.31101-.6988.39409-1.0565.22631-.5169-.21707-.6564-1.00504-.2668-1.40368.8763-.90492 1.6494-1.91919 2.6074-2.73951h-.0001Zm-13.95422.14627c.45485-.27855 1.01719-.09393 1.35375.28473.75684.77559 1.53746 1.52521 2.3026 2.28862.50629.47554.15315 1.4821-.55325 1.48524-.59121.09241-.90499-.5018-1.3007-.8265-.6935-.58327-1.32897-1.23246-1.95814-1.88694-.35624-.37247-.24975-1.05575.15614-1.34515h-.0004ZM5.085 8.98769c.76243-.29863 1.50679.67719 1.03127 1.34961-.56244.745-1.29461 1.3436-1.9081 2.0471-.36233.3786-.7003.9603-1.30369.8865-.7064-.0277-1.06114-1.0245-.54726-1.5083.92778-.9019 1.66444-2.04243 2.72868-2.77501l-.0009.0001Zm15.4606 2.15771c.5245-.3479 1.3158.0476 1.3326.6897.0772.6033-.5124.9219-.8369 1.3267-.5714.6987-1.1988 1.3498-1.8463 1.9762-.4729.454-1.3568.1353-1.4417-.5217-.1107-.6788.5169-1.1005.9126-1.5344.6549-.6173 1.2081-1.3452 1.8796-1.9362l.0001-.0003ZM7.07381 15.9181c.50949-.3094 1.28252.0584 1.2946.6863.09401.6064-.4957.9281-.81858 1.3329-.57003.6999-1.20519 1.342-1.84635 1.9762-.41688.4278-1.3052.2215-1.42348-.3925-.2017-.5925.29411-1.0712.67153-1.4432.73227-.6957 1.36863-1.4912 2.12228-2.1592v-.0005Zm9.05309-.0232c.282-.0984.6393-.1061.8776.1002.8823.8511 1.8206 1.6421 2.6498 2.5502.2562.2632.279.7049.1092 1.0219-.2397.5694-1.0612.5832-1.4599.18-.8049-.7709-1.5784-1.5806-2.3876-2.3487-.4895-.3862-.3745-1.2805.2108-1.5037l.0001.0001Zm-6.79285 2.1763c.41958-.2309.91255-.0123 1.21425.3124.761.7665 1.5219 1.5329 2.3118 2.2686.5195.5017.1683 1.5192-.5639 1.5268-.5911.071-.8991-.5249-1.2961-.8511-.6893-.5803-1.32949-1.2191-1.94807-1.8766-.37293-.4048-.22138-1.1573.28192-1.3805l.0001.0004ZM7.9844 2.94975c.00004.35598-.21112.67692-.535.81316-.32389.13625-.69671.06096-.94461-.19075-.24789-.25171-.32204-.63027-.18786-.95914s.45026-.54327.80083-.54323c.47863 0 .86664.39397.86664.87996Zm2.5263 2.34046c0 .48598-.388.87995-.86663.87997-.47861.00002-.86663-.39392-.86666-.8799-.00004-.48598.38791-.87998.86653-.88004.22986-.00002.45036.09268.61286.2577.1626.16503.2539.38887.2539.62227ZM3.74374 7.44027c.00008.35597-.21104.67694-.53491.81322-.32387.13628-.6967.06104-.94463-.19064-.24792-.25169-.32211-.63023-.18797-.95912.13414-.32888.4502-.54333.80077-.54333.22985-.00002.45029.09266.61284.25767.16254.16501.25387.38882.2539.6222ZM17.502 2.87997c0 .35595-.2112.67684-.5351.81302-.3239.13618-.6967.06082-.9445-.19094-.2478-.25175-.3219-.63031-.1876-.95911.1343-.32881.4504-.5431.8009-.54294.2299-.00003.4503.09268.6129.25771.1625.16503.2538.38887.2538.62226h-.0004Zm4.4884 4.33957c0 .48599-.388.87997-.8666.87997-.4787 0-.8667-.39398-.8667-.87997 0-.48599.388-.87996.8667-.87996.4786 0 .8666.39397.8666.87996Zm-2.3686 2.52842c0 .48604-.3879.88004-.8666.88004-.4786.0001-.8666-.3938-.8667-.87984-.0001-.48599.3879-.88001.8665-.88006.2299-.00003.4503.09265.6129.25766.1625.16501.2538.38882.2539.6222Zm2.3646 7.10674c0 .486-.388.88-.8666.88s-.8666-.3939-.8667-.8799c0-.486.388-.88.8666-.88.2298-.0001.4503.0926.6128.2577.1626.165.2539.3888.2539.6222Zm-6.7592 2.1461c0 .356-.2111.6769-.535.8132-.3239.1362-.6967.061-.9446-.1907-.2479-.2517-.3221-.6302-.1879-.9591.1341-.3289.4502-.5433.8007-.5433.2299-.0001.4503.0926.6129.2577.1625.165.2539.3888.2539.6222Zm2.4935 2.4066c0 .356-.2111.677-.5349.8133-.3239.1362-.6967.061-.9447-.1907-.2479-.2517-.3221-.6302-.1879-.9591.1341-.3289.4502-.5433.8007-.5433.2299-.0001.4503.0926.6129.2576.1625.165.2538.3889.2539.6222Zm-9.49135 0c.00004.356-.21111.6769-.535.8132-.32388.1362-.69671.0609-.9446-.1908-.2479-.2517-.32205-.6302-.18787-.9591.13418-.3289.45026-.5433.80084-.5432.47863 0 .86663.3939.86663.8799Zm-2.11378-6.892c.00004.356-.21112.6769-.53501.8132-.32388.1362-.6967.0609-.9446-.1908s-.32204-.6303-.18786-.9591c.13417-.3289.45025-.5433.80083-.5433.47863 0 .86664.394.86664.88Zm-2.37183 2.5574c.00004.356-.21111.6769-.53498.8132-.32387.1362-.69669.061-.94459-.1907-.24791-.2517-.32208-.6303-.18793-.9591.13415-.3289.45019-.5433.80076-.5433.22987-.0001.45033.0926.61287.2577.16255.165.25387.3888.25387.6222Z" fill="#03E8B0"/></g><defs><clipPath id="clip0_127_152"><path fill="#fff" d="M2 2h20v20.3077H2z"/></clipPath></defs></svg>