<svg width="24" height="24" viewBox="0 0 24 24" fill="none" xmlns="http://www.w3.org/2000/svg"><path fill-rule="evenodd" clip-rule="evenodd" d="M7.55867 4.97502c.3825-.43563.73108-.80742 1.06409-1.11874-5.62842-.18253-3.99004 3.91501-5.82411 8.07922-2.112044 4.7957.24851 6.6233 3.76599 7.1928-.48757-.5795-.88562-1.2425-1.18862-1.9581C3.09553 14.2788 4.0134 9.01097 7.55867 4.97502Z" fill="#B3D234"/><path fill-rule="evenodd" clip-rule="evenodd" d="M21.102 10.0827c-.5237 1.4855-1.4849 3.1524-2.8437 4.7929-1.0591 1.2784-2.2366 2.2851-3.4519 3.0141-1.4048.9166-3.1477 1.4575-5.09633 1.4575-1.09077 0-2.1632-.061-3.14556-.22.58041.6892 1.28591 1.2615 2.10649 1.6607 5.0886 2.4782 5.4099-2.1255 10.7937-4.4615 3.0233-1.3119 3.0344-3.8764 1.6373-6.2437Z" fill="#0095D9"/><path fill-rule="evenodd" clip-rule="evenodd" d="M14.8047 5.29186c.7506.13774 1.4627.38635 2.1004.74918 1.709.97371 3.2656 2.46368 4.1968 4.04156.9168-2.60031.4898-4.6446-1.516-5.01471-2.2044-.40595-3.9278-.53641-5.584-1.70106-2.0397-1.43453-3.8277-.96139-5.37931.48882.10952.00336.22127.0084.33635.01512 2.15266.12766 4.20686.54984 5.84576 1.42109Z" fill="#EEE809"/><path fill-rule="evenodd" clip-rule="evenodd" d="M7.55869 4.975c-3.54528 4.03595-4.46315 9.3037-2.18265 12.1952-1.02406-2.4206-.9529-5.4397.49034-7.85018 1.92136-3.20949 5.77522-4.60875 8.93852-4.02699-1.6389-.8718-3.6932-1.29343-5.84522-1.42165-.11564-.00672-.22739-.0112-.33691-.01512-.33301.31132-.68159.68311-1.06408 1.11874Z" fill="#51B849"/><path fill-rule="evenodd" clip-rule="evenodd" d="M16.905 6.04133c-.6377-.3634-1.3498-.61144-2.1004-.74919 2.1582 1.14729 3.5942 3.07512 3.5781 6.14576-.0144 2.6641-1.381 5.0186-3.5764 6.452 1.2153-.729 2.3933-1.7357 3.4519-3.0141 1.3593-1.6405 2.3199-3.3074 2.8436-4.7929-.9312-1.5779-2.4878-3.06842-4.1968-4.04157Z" fill="#00845D"/><path fill-rule="evenodd" clip-rule="evenodd" d="M14.4497 16.43c-2.4368 1.5768-5.68572.8735-7.25738-1.5711-1.57166-2.4447-.79445-5.59259 1.56555-7.28245C11.397 5.68726 14.7816 6.43252 16.0152 9.14761c1.2031 2.64729.8706 5.70569-1.5655 7.28239Zm.3552-11.13805c-3.1633-.5812-7.01716.81749-8.93851 4.02699-1.44324 2.41046-1.51496 5.43016-.49035 7.85016.30299.7156.70049 1.3791 1.18862 1.9586.98235.1591 2.05478.2195 3.14499.2195 1.94915 0 3.69205-.5409 5.09635-1.4575 2.196-1.4328 3.5625-3.7879 3.5764-6.452.0167-3.07063-1.4199-4.99846-3.5775-6.14575Z" fill="#005121"/></svg>