<svg width="24" height="24" viewBox="0 0 24 24" fill="none" xmlns="http://www.w3.org/2000/svg"><path d="M12 22c5.5228 0 10-4.4772 10-10 0-5.52285-4.4772-10-10-10C6.47715 2 2 6.47715 2 12c0 5.5228 4.47715 10 10 10Z" fill="url(#paint0_linear_133_94)"/><path d="M19.1589 12.1218h-1.7628c0-3.59258-2.9226-6.5048-6.528-6.5048-3.56071 0-6.45564 2.84093-6.52649 6.372-.0733 3.65 3.36324 6.8195 7.02669 6.8195h.4608c3.2298 0 7.5587-2.5193 8.235-5.589.1249-.5658-.3236-1.0977-.9052-1.0977Zm-10.91048.1601c0 .4804-.39434.8733-.87648.8733s-.87646-.3931-.87646-.8733V10.869c0-.4804.39432-.87337.87646-.87337s.87648.39297.87648.87337v1.4129Zm3.04338 0c0 .4804-.3943.8733-.8764.8733-.48216 0-.87645-.3931-.87645-.8733V10.869c0-.4804.39447-.87337.87645-.87337.4821 0 .8764.39297.8764.87337v1.4129Z" fill="url(#paint1_linear_133_94)"/><defs><linearGradient id="paint0_linear_133_94" x1="12" y1="2" x2="12" y2="22" gradientUnits="userSpaceOnUse"><stop stop-color="#534BB1"/><stop offset="1" stop-color="#551BF9"/></linearGradient><linearGradient id="paint1_linear_133_94" x1="12.2128" y1="5.617" x2="12.2128" y2="18.8085" gradientUnits="userSpaceOnUse"><stop stop-color="#fff"/><stop offset="1" stop-color="#fff" stop-opacity=".82"/></linearGradient></defs></svg>