<svg width="24" height="24" viewBox="0 0 24 24" fill="none" xmlns="http://www.w3.org/2000/svg"><path d="M20.7365 8.32931c-.0239-.22755-.0599-.44311-.1078-.67066-.0479-.22754-.1197-.44311-.1916-.67065-.0838-.22755-.1796-.45509-.2874-.67066-.012-.02395-.024-.05988-.0479-.08383-.1078-.20359-.2156-.39521-.3473-.57485-.0958-.15568-.2036-.29939-.3234-.44311-.0598-.08383-.1317-.15568-.1916-.22754-.1437-.16766-.2994-.32335-.467-.46706-.0719-.07186-.1557-.13174-.2276-.19162-.1437-.11976-.2874-.22754-.4311-.32335-.1916-.13173-.3832-.23952-.5868-.3473-.024-.01198-.0599-.02395-.0839-.03593-.2155-.10778-.4431-.20359-.6586-.28742-.2156-.07186-.4432-.14371-.6587-.19162C15.6946 3.0479 15.2396 3 14.7965 3H5.15583c-.35927 0-.70658.11976-.994.33533-.13173.0958-.23952.20359-.33532.33532-.21557.28743-.33533.63473-.33533.99401V16.6526c0 .1078 0 .2275.01198.3353.01197.2276.0479.4431.0958.6707.04791.2275.11976.4551.21557.6706.09581.2276.20359.4432.33533.6467 0 .012.01197.012.01197.024.15569.2395.32335.4671.52694.6707.03593.0479.08383.0838.11976.1197.20359.1916.41916.3713.65868.527.01197 0 .01197.0119.02395.0119.20359.1318.41916.2395.63472.3354.21557.0958.44311.1676.65868.2155.21557.0479.44311.0839.65868.1078v.012h5.68856v-.012c.0958-.012.1796-.0718.2395-.1437.0599-.0719.0958-.1677.0958-.2635 0-.0958-.0359-.1796-.0958-.2515-.0359-.0479-.0958-.0958-.1557-.1197-.0239-.012-.0598-.036-.0838-.0479-.1078-.0599-.2275-.1318-.3353-.2036-.1198-.0719-.2276-.1557-.3354-.2276-.0359-.0239-.0598-.0479-.0838-.0718-.0838-.0599-.1676-.1318-.2395-.1916-.0719-.0599-.1437-.1198-.2156-.1917l-.4551-.455c-.1437-.1557-.2754-.3234-.3952-.4911-.0958-.1317-.1796-.2515-.2634-.3832-.0599-.0958-.1078-.1796-.1677-.2754-.1198-.2156-.2275-.4312-.3233-.6707-.0599-.1557-.1198-.3114-.1677-.4671-.024-.0718-.0479-.1317-.0599-.2035-.0359-.1078-.0599-.2276-.0838-.3354-.02397-.1078-.04792-.2275-.07187-.3353-.03593-.2156-.07186-.4431-.08383-.6707-.01198-.0838-.01198-.1676-.01198-.2395 0-.0958-.01197-.1796-.01197-.2754v-2.1437H7.6109c-.09581 0-.19162-.0359-.26347-.0958-.07186-.0599-.11976-.1437-.14371-.2395-.01198-.048-.01198-.1078 0-.1677.01197-.0479.03593-.1078.05988-.1437l.01197-.024.20359-.2874.11976-.1677.14371-.2036.39521-.5748.08383-.1078.46706-.67064.13174-.19161.67065-.95808.13173-.19162.2036-.28742.26345-.38323.0719-.09581.6586-.95807.2036-.28743.1318-.19161c.0359-.05988.0838-.09581.1437-.13174.0599-.03593.1197-.0479.1916-.0479.0599 0 .1317.01197.1916.0479.0599.03593.1078.07186.1437.13174l.1318.19161.2035.28743.2635.38323.0719.0958.3353.47904.0719.09581.2275.40718.2036.28743.1317.19161.6707.95808.1317.19162.4671.67068.0599.0958.6586.9581.2036.2874.012.0239c.0359.0479.0599.0958.0599.1437.012.0479.012.1078 0 .1677-.012.0719-.0479.1437-.0958.1916-.0479.0599-.1078.0958-.1797.1198-.0359.012-.0838.012-.1197.012h-2.2036v1.9999c0 .2276.0479.4551.1437.6707.0479.1198.1198.2275.1916.3353.1677.2276.4072.4192.6587.527.2036.0958.4311.1437.6587.1437h.0838c.1916 0 .3832-.012.5749-.0359.2275-.024.4431-.0599.6586-.1078.2156-.0479.4312-.1078.6348-.1797h.0239v-.0119c.2275-.0839.4551-.1797.6587-.2875.2275-.1078.4431-.2395.6467-.3712h.012v-.012c.2395-.1557.455-.3353.6586-.515.0479-.0479.0958-.0838.1437-.1317.1797-.1796.3593-.3593.515-.5629.024-.0359.0599-.0718.0838-.1078.1677-.2155.3114-.4311.4431-.6706.048-.0838.0959-.1677.1318-.2515.0718-.1317.1317-.2755.1916-.4192.0479-.1078.0838-.2155.1317-.3353.036-.1078.0719-.2156.1078-.3353.0599-.2156.1078-.4431.1557-.6707.0359-.2155.0599-.4431.0719-.6706h.0119V9.01194c.0479-.23952.036-.46707.012-.68263Z" fill="#3749E7"/></svg>