<svg width="24" height="24" viewBox="0 0 24 24" fill="none" xmlns="http://www.w3.org/2000/svg"><path d="M12 22c5.5228 0 10-4.4772 10-10 0-5.52285-4.4772-10-10-10C6.47715 2 2 6.47715 2 12c0 5.5228 4.47715 10 10 10Z" fill="#ED79AA"/><path opacity=".5" fill-rule="evenodd" clip-rule="evenodd" d="M16.6575 7.58063 15.4888 8.7575c-.4211-.42588-.9226-.76391-1.4753-.99447-.5528-.23057-1.1458-.34907-1.7447-.34865-2.44691 0-4.44379 1.94375-4.54879 4.38122h-.005v4.4513C6.64949 15.0896 6.05942 13.5731 6.06251 12c0-3.45187 2.77875-6.25 6.20629-6.25.8163-.00058 1.6245.16094 2.3779.47519.7534.31425 1.4369.77497 2.0108 1.35544Zm0 8.83877c-1.1345 1.1478-2.6738 1.805-4.2875 1.8306v-1.665c1.1744-.0254 2.2928-.5066 3.1188-1.3419l1.1687 1.1763Z" fill="#fff"/><path fill-rule="evenodd" clip-rule="evenodd" d="M9.30072 17.49v-5.6937h.00438c.0875-1.6282 1.4262-2.9213 3.065-2.9213 1.695 0 3.0694 1.3838 3.0694 3.0913 0 1.7068-1.3744 3.0906-3.0688 3.0906-.5459.0009-1.082-.1453-1.5519-.4231v3.4443c-.5298-.1275-1.04036-.3251-1.51808-.5875V17.49Zm3.06938-3.9613c.2045-.0006.4069-.0415.5956-.1204.1886-.0789.3599-.1942.504-.3393.1441-.1451.2583-.3172.3359-.5064.0776-.1892.1171-.3918.1164-.5963 0-.8632-.695-1.5625-1.5519-1.5625-.2045.0007-.4068.0417-.5954.1206-.1886.0789-.3598.1942-.5038.3393-.1441.1451-.2581.3172-.3357.5063-.0776.1892-.1171.3918-.1164.5963 0 .8625.6944 1.5624 1.5513 1.5624Z" fill="#fff"/></svg>