<svg width="24" height="24" viewBox="0 0 24 24" fill="none" xmlns="http://www.w3.org/2000/svg"><path d="M11.9918 2.20795 3.99985 3.87847V14.9559c0 1.6218 1.66161 3.1545 3.46101 4.3466 1.41006.9244 2.88554 1.7354 4.40934 2.4409l.1297.049.1296-.049C12.4537 21.6218 20 18.4105 20 14.9559V3.87847l-8.0082-1.67052Zm7.3599 12.74795c0 2.4165-5.1956 4.971-7.3599 5.8225l-.1053-.0405-.0406-.0163-.0729-.0324-.0405-.0162-.073-.0325-.0243-.0081-.0892-.0405-.0243-.0081-.0972-.0406-.0163-.0081-.1053-.0406h-.008l-.1216-.0489h-.0081c-1.078-.4785-2.48024-1.184-3.71228-2.0111l-.1459-.0973-.1459-.1055-.13777-.0973-.00813-.0082-.12965-.0973-.00813-.0081-.12984-.0966-.00813-.0081-.12964-.0973-.01626-.0082-.12162-.0892-.01625-.0081-.11349-.0892-.01626-.0163-.10536-.0892-.01625-.0162-.09724-.0892-.02428-.0163-.08921-.0892-.02428-.0243-.08921-.0892-.02428-.0243-.08921-.081-.02428-.0243-.08108-.0811-.02429-.0324-.07295-.0811-.02428-.0324-.07295-.0811-.02429-.0324-.06482-.0811-.03241-.0324-.0567-.0729-.03241-.0406-.0567-.0729-.03241-.0406-.04896-.0729-.02428-.0406-.04896-.0729-.02429-.049c-.01625-.0242-.02428-.0489-.04054-.0649l-.03241-.0489c-.01399-.0199-.02492-.0418-.03241-.065l-.02428-.0489c-.00813-.0243-.02429-.0406-.03242-.0649-.00641-.0171-.01455-.0336-.02428-.049-.00943-.0211-.01754-.0428-.02428-.0649-.00813-.0243-.01626-.0324-.02429-.0568-.0066-.0196-.01472-.0385-.02428-.0568-.00912-.0177-.01465-.037-.01626-.0568 0-.0163-.01625-.0405-.01625-.0568-.00161-.0198-.00714-.0391-.01626-.0568-.00812-.0163-.00812-.0324-.01625-.0568-.00813-.0244-.00813-.0405-.01626-.0649-.00607-.0156-.00884-.0323-.00812-.049 0-.0162-.00813-.0405-.00813-.0649 0-.0244-.00813-.0324-.00813-.049-.00237-.0249-.00783-.0494-.01625-.0729-.00813-.0243 0-.0243 0-.0405V4.4705l7.31993-1.17563h.0649L19.344 4.4705l.0082 10.4855-.0005-.0001Z" fill="#5E4778"/><path d="m11.992 4.10599-5.54401.89205-1.14303.17841v9.49595c0 2.1976 4.72544 4.525 6.68704 5.2954 1.1428-.446 3.2179-1.4191 4.7498-2.5868.1135-.0892.2351-.1784.3405-.2676.5268-.4298.9645-.884 1.2483-1.3461.2189-.3569.3485-.7218.3485-1.087V5.17645L11.992 4.10599ZM8.76598 9.14181h3.89872v.81097H8.76598v-.81097Zm7.60302.3812c0 1.92189-1.3374 3.16279-3.1855 3.16279h-2.5613v4.0547H9.60898v-4.9712H13.046c1.378 0 2.2777-.8353 2.2777-2.24629 0-1.39477-.8997-2.20574-2.2615-2.20574H11.992l-2.56133.00813v-.92447h3.74453c1.8562 0 3.1936 1.20021 3.1936 3.12208" fill="#5E4778"/><path d="M11.992 2.20795v1.08692h.0325l7.3197 1.17563v10.4769c0 2.4166-5.1955 4.9711-7.3598 5.8226v1.0137l.1297-.049c.3242-.1216 7.8704-3.3329 7.8704-6.7876V3.87847L11.992 2.20795Z" fill="#5E4778"/><path d="M13.175 12.6776h-2.553v.4783c.434.3468.8948.6586 1.378.9327 1.6129.9245 3.6879 1.5489 6.3385 1.6705.2188-.3568.3485-.7217.3485-1.0869V5.17646L12 4.10599l-5.55215.89206c.25939 2.08414 1.02944 4.96291 3.16117 7.22545v-.4541H13.046c1.378 0 2.2777-.8353 2.2777-2.24634 0-1.39478-.8997-2.20576-2.2615-2.20576h-1.0704l-2.56129.00813v-.92447H13.175c1.8481 0 3.1855 1.20834 3.1855 3.11388 0 1.92186-1.3293 3.16286-3.1855 3.16286v-.0001Zm-1.1832-3.53574h.6642v.81098H8.76583v-.81098h3.22597Z" fill="#5E4778"/><path d="m11.8947 20.7379-.0406-.0163-.0729-.0243-.0405-.0162-.073-.0324-.0243-.0082-.0892-.0405-.0243-.0081-.0972-.0406-.0163-.0081-.1053-.0489h-.0161l-.1216-.049h-.0081c-1.0699-.4784-2.47226-1.184-3.70431-2.0192l-.14591-.0974-.1459-.1135-.13778-.0973-.00812-.0081-.12965-.0973-.00813-.0082-.12965-.0973-.00812-.0081-.12965-.0974-.01626-.0081-.12162-.0892-.01625-.0081-.11349-.0892-.01616-.0156-.10536-.0892-.01626-.0163-.09723-.0892-.02429-.0162-.08921-.0892-.02428-.0243-.08921-.0892-.02428-.0243-.08921-.0811-.02428-.0243-.08108-.081-.02429-.0325-.07295-.081-.02428-.0324-.07295-.0811-.02429-.0324-.07295-.065-.03241-.0324-.0567-.0729-.03241-.0406-.0567-.0729-.03241-.0406-.04896-.0729-.02429-.0405-.04896-.073-.02428-.0405c-.01626-.0243-.02429-.049-.04054-.065l-.03241-.0489-.03242-.0649-.02428-.049c-.00813-.0243-.02428-.0405-.03241-.0649-.00642-.0171-.01456-.0335-.02429-.049-.00943-.0211-.01754-.0428-.02428-.0649-.00813-.0243-.01626-.0324-.02429-.0568-.0066-.0195-.01472-.0385-.02428-.0568-.01017-.0172-.01576-.0368-.01625-.0568 0-.0243-.01626-.0489-.01626-.0649-.00161-.0198-.00714-.0391-.01625-.0568-.00813-.0163-.00813-.0324-.01626-.0568-.00813-.0244-.00813-.0405-.01625-.0649-.00608-.0156-.00885-.0323-.00813-.049 0-.0162-.00813-.0405-.00813-.0649 0-.0244-.00813-.0324-.00813-.049-.00236-.0249-.00782-.0494-.01625-.0729-.00813-.0243 0-.0243 0-.0405V4.4705l7.31983-1.17563h.0324V2.20795L3.99985 3.87847V14.9559c0 1.6218 1.66163 3.1545 3.46104 4.3466 1.41007.9244 2.88551 1.7354 4.40941 2.4409l.1296.049v-1.014l-.1053-.0405" fill="#3D3144"/><path d="M11.992 14.0884c-.4832-.2741-.9439-.586-1.378-.9327v3.5839H9.60105v-4.5164C7.46911 9.95258 6.70719 7.07372 6.44799 4.9978l-1.14303.17841v9.49609c0 2.1976 4.72544 4.525 6.68704 5.2954 1.1428-.446 3.2179-1.4192 4.7498-2.5869.1135-.0892.2351-.1784.3405-.2676.5268-.4298.9645-.8839 1.2483-1.3461-2.6505-.1379-4.7174-.7623-6.3385-1.6786" fill="#3D3144"/></svg>