<svg width="24" height="24" viewBox="0 0 24 24" fill="none" xmlns="http://www.w3.org/2000/svg"><path d="M12.1195 3c-1.8065.0071-3.53691.72786-4.81428 2.00523C6.02785 6.2826 5.30709 8.01305 5.29999 9.81952c.00015.75278.1215 1.50058.35939 2.21478.08567.234.25772.4264.4808.5375.22309.1111.48026.1326.71868.06.23041-.0882.41857-.2609.52623-.4828.10765-.222.12671-.4767.0533-.7122-.20203-.5564-.29211-1.1473-.26506-1.73858.02877-.95345.33412-1.87798.87889-2.66101.54476-.78303 1.30544-1.39079 2.18938-1.74927.884-.35848 1.8531-.45222 2.7894-.26981.9363.18241 1.7993.6331 2.4841 1.29721.6847.6641 1.1616 1.51296 1.3726 2.44322.211.93027.1469 1.90184-.1843 2.79634-.3313.8945-.9155 1.6734-1.6815 2.2419-.766.5685-1.6807.902-2.6328.9599 0 0-.9569.0584-1.4331.1168-.1754.0254-.3494.0598-.5212.1033-.0058.006-.0128.0108-.0205.014-.0077.0032-.016.0049-.0244.0049-.0083 0-.0166-.0017-.0243-.0049-.0078-.0032-.0148-.008-.0206-.014-.0084-.0109-.0129-.0243-.0129-.0382 0-.0138.0045-.0272.0129-.0381l.1482-.8087.8985-4.0432c.0519-.24243.0052-.49555-.1296-.70365s-.3467-.35412-.5892-.40595c-.2424-.05183-.4955-.00522-.70364.12958-.2081.1348-.35412.34675-.40595.58921 0 0-2.1384 9.89681-2.1384 9.98671-.02943.1156-.03552.236-.01792.3541.0176.118.05855.2314.12044.3334.0619.1021.14351.1907.24006.2609.09656.0702.20612.1204.3223.1477h.04942c.11627.0301.23739.0365.3562.019.1188-.0176.23288-.0588.33549-.1212.10261-.0624.19167-.1448.26191-.2422.07024-.0974.12024-.2079.14704-.3249-.0017-.015-.0017-.03 0-.045.02696-.1168.29651-1.4331.29651-1.4331.09975-.4852.34565-.9282.70464-1.2695.359-.3413.8139-.5646 1.3035-.6397.2066-.0315 1.0737-.0899 1.0737-.0899 1.7249-.172 3.3195-.9949 4.4591-2.3011 1.1397-1.3063 1.7387-2.9978 1.6751-4.73011-.0635-1.73235-.7848-3.37538-2.0171-4.59464C15.503 3.74899 13.8524 3.04515 12.1195 3Z" fill="#1E1E1E"/><path d="M12.5328 18.7227c-.1476-.0308-.2998-.0318-.4478-.0031-.148.0287-.2888.0865-.4142.1701-.1254.0836-.2329.1914-.3163.3169-.0834.1256-.141.2665-.1694.4145-.0317.1455-.0345.2957-.008.4422.0264.1465.0815.2864.162.4115.0805.1252.185.2333.3073.3181.1224.0847.2602.1446.4057.176h.0315c.1434.0346.2922.0404.4379.017.1456-.0233.2852-.0754.4106-.1531.1254-.0778.2341-.1796.3198-.2997.0857-.1201.1467-.256.1794-.3998v-.0629c.0512-.297-.0134-.6023-.1805-.853-.1672-.2507-.4242-.4278-.718-.4947Z" fill="#E6007A"/></svg>