<svg width="24" height="24" viewBox="0 0 24 24" fill="none" xmlns="http://www.w3.org/2000/svg"><g clip-path="url(#clip0_9_14737)"><path d="M2 3.37556V20.6243c0 .7598.61588 1.3756 1.37561 1.3756H20.6244c.7597 0 1.3756-.6158 1.3756-1.3756V3.37556c0-.75974-.6159-1.37562-1.3756-1.37562H3.37561C2.61588 1.99994 2 2.61582 2 3.37556Z" fill="url(#paint0_linear_9_14737)"/><path d="M4.49968 6.98105h3.14251l3.65171 5.35305-1.75979.3913-1.46353-.3913-3.5709-5.35305Z" fill="url(#paint1_linear_9_14737)"/><path d="M4.33502 17.6867h3.14252l3.81636-5.3526H8.07057l-3.73555 5.3526Z" fill="url(#paint2_linear_9_14737)"/><path d="M9.11336 6.98105h3.14304l3.6512 5.35305-1.7268.4131-1.5001-.4131-3.56734-5.35305Z" fill="url(#paint3_linear_9_14737)"/><path d="M16.3395 6.98105h3.1431l-2.8615 4.31745-1.6135-2.36354 1.3319-1.95391Z" fill="url(#paint4_linear_9_14737)"/><path d="M13.6757 6.98105h1.2109l-.596.89997-.6149-.89997Z" fill="url(#paint5_linear_9_14737)"/><path d="M16.5225 17.6867h3.143l-3.0333-4.3682-1.6246 2.2572 1.5149 2.111Z" fill="url(#paint6_linear_9_14737)"/><path d="M13.4892 17.6867h1.5769l-.7791-1.1083-.7978 1.1083Z" fill="url(#paint7_linear_9_14737)"/><path d="M8.94872 17.6867h3.10998l3.8489-5.3526h-3.2269l-3.73198 5.3526Z" fill="url(#paint8_linear_9_14737)"/></g><defs><linearGradient id="paint0_linear_9_14737" x1="11.9997" y1="21.9999" x2="11.9997" y2="1.99994" gradientUnits="userSpaceOnUse"><stop stop-color="#D1D5D8"/><stop offset="1" stop-color="#FDFCFD"/></linearGradient><linearGradient id="paint1_linear_9_14737" x1="5.47795" y1="6.2527" x2="8.56811" y2="12.0688" gradientUnits="userSpaceOnUse"><stop stop-color="#73A2A8"/><stop offset="1" stop-color="#71B5BF"/></linearGradient><linearGradient id="paint2_linear_9_14737" x1="5.33918" y1="17.0282" x2="8.38913" y2="11.4052" gradientUnits="userSpaceOnUse"><stop stop-color="#699699"/><stop offset="1" stop-color="#73A4A6"/></linearGradient><linearGradient id="paint3_linear_9_14737" x1="10.0723" y1="6.46705" x2="12.953" y2="11.8682" gradientUnits="userSpaceOnUse"><stop stop-color="#005661"/><stop offset="1" stop-color="#048293"/></linearGradient><linearGradient id="paint4_linear_9_14737" x1="16.0329" y1="10.6079" x2="16.0329" y2="6.41038" gradientUnits="userSpaceOnUse"><stop stop-color="#676F74"/><stop offset="1" stop-color="#3B444A"/></linearGradient><linearGradient id="paint5_linear_9_14737" x1="13.1515" y1="6.41039" x2="13.1515" y2="7.28545" gradientUnits="userSpaceOnUse"><stop stop-color="#93989C"/><stop offset="1" stop-color="#AAAFB2"/></linearGradient><linearGradient id="paint6_linear_9_14737" x1="16.4813" y1="16.3386" x2="14.7556" y2="13.717" gradientUnits="userSpaceOnUse"><stop stop-color="#3B444A"/><stop offset="1" stop-color="#3B444A"/></linearGradient><linearGradient id="paint7_linear_9_14737" x1="13.148" y1="16.8187" x2="13.148" y2="15.7409" gradientUnits="userSpaceOnUse"><stop stop-color="#858B8F"/><stop offset="1" stop-color="#868D90"/></linearGradient><linearGradient id="paint8_linear_9_14737" x1="9.90393" y1="16.8921" x2="12.795" y2="11.5426" gradientUnits="userSpaceOnUse"><stop stop-color="#08575C"/><stop offset="1" stop-color="#096166"/></linearGradient><clipPath id="clip0_9_14737"><path fill="#fff" d="M2 2h20v20H2z"/></clipPath></defs></svg>