<svg width="24" height="24" viewBox="0 0 24 24" fill="none" xmlns="http://www.w3.org/2000/svg"><path d="M16.583 8.91377c-.3321-.19573-.7638-.19573-1.1291 0l-2.5905 1.50063-1.7601.9787-2.59039 1.5005c-.3321.1957-.76384.1957-1.12915 0l-2.05904-1.1744c-.3321-.1957-.56457-.5545-.56457-.946V8.45706c0-.39146.19926-.7503.56457-.94603l2.02583-1.14176c.3321-.19573.76384-.19573 1.12915 0l2.0258 1.14176c.3321.19573.5646.55457.5646.94603v1.50061l1.7601-1.01128v-1.5006c0-.39146-.1992-.7503-.5645-.94603L8.51291 4.34672c-.3321-.19573-.76384-.19573-1.12915 0L3.56458 6.49976C3.19926 6.69549 3 7.05433 3 7.44579v4.33871c0 .3914.19926.7503.56458.946l3.81918 2.1531c.3321.1957.76384.1957 1.12915 0l2.59039-1.468 1.7601-1.0113 2.5905-1.468c.3321-.1957.7638-.1957 1.1291 0l2.0258 1.1418c.3321.1957.5646.5546.5646.946v2.3161c0 .3916-.1992.7504-.5646.9461l-2.0258 1.1744c-.3321.1957-.7638.1957-1.1291 0l-2.0258-1.1418c-.3322-.1957-.5647-.5546-.5647-.946v-1.5006l-1.7601 1.0113v1.5005c0 .3915.1993.7504.5646.9461l3.8192 2.153c.3321.1957.7638.1957 1.1291 0l3.8192-2.153c.3321-.1957.5646-.5546.5646-.9461v-4.3387c0-.3914-.1993-.7502-.5646-.9459L16.583 8.91377Z" fill="#8247E5"/></svg>