<svg width="24" height="24" viewBox="0 0 24 24" fill="none" xmlns="http://www.w3.org/2000/svg"><path d="m19.2789 8.07046-.86-.62875 2.0114-1.02112-1.1514 1.64987Z" fill="#3F4B80"/><path d="m14.1657 6 2.5049 1.29531.3008 2.08951L14.1657 6Z" fill="#313A62"/><path d="m16.9714 9.38482-.3995 1.77748L14.1657 6l2.8057 3.38482Z" fill="#3F4B80"/><path d="M16.5719 11.1623 12.737 6.2931l1.4334-.28364 2.4015 5.15284Z" fill="#4B5897"/><path d="m16.5719 11.1627-4.1592-1.63572.3243-3.23354 3.8349 4.86926Z" fill="#5161A4"/><path d="m12.7369 6.29344-.3243 3.23354-4.28607.60512 4.61037-3.83866ZM16.5719 11.162l-4.5869 1.2527.4277-2.88839 4.1592 1.63569Z" fill="#4B5897"/><path d="m11.985 12.4151 4.5869-1.2528-2.0678.9692-2.5191.2836Z" fill="#3F4B80"/><path d="m9.45192 12.8495 2.53318-.435.0423.8699-2.57548-.4349Z" fill="#3F4B80"/><path d="m12.0273 13.2854-.0423-.8699 2.5191-.2836-2.4768 1.1535Z" fill="#313A62"/><path d="m8.12653 10.1314 4.28617-.60509-.4277 2.88839-3.85847-2.2833Z" fill="#3F4B80"/><path d="m8.12653 10.1323 3.85847 2.2833-2.53316.435-1.32531-2.7183Z" fill="#4B5897"/><path d="m8.12653 10.1323 1.32531 2.7183-1.27832.9407-.04699-3.659Z" fill="#313A62"/><path d="m5.95059 10.8641.51226 3.0965-1.4099-2.1321.89764-.9644Z" fill="#5161A4"/><path d="m3.4269 11.8478 1.62609-.0189.0094.9975-1.63549-.9786Z" fill="#313A62"/><path d="m3.55849 12.5239-.13159-.676 1.63549.9786-1.5039-.3026Z" fill="#3F4B80"/><path d="m3.55843 12.5239-.93054.8273.79895-1.5033.13159.676Z" fill="#4B5897"/><path d="m2.62792 13.3508-.06579.5011L1.5 13.677l1.12792-.3262Z" fill="#313A62"/><path d="m2.62797 13.3513.93054-.8273-.99634 1.3284.0658-.5011Z" fill="#5161A4"/><path d="m5.05295 11.8289 1.4099 2.1321-1.4005.2789-.0094-2.411ZM5.46649 15.8281l-1.01984 2.1226-.15039-1.6357 1.17023-.4869Z" fill="#3F4B80"/><path d="m4.29634 16.3152.15039 1.6357-.58746.2836.43707-1.9193Z" fill="#1F243E"/><path d="m4.44665 17.9513.15509.7989-1.21253.2506 1.05744-1.0495Z" fill="#3F4B80"/><path d="m3.85918 18.235.58747-.2837-1.05744 1.0495.46997-.7658ZM5.06231 14.2405l1.40051-.2789-2.16656 2.3542.76605-2.0753Z" fill="#313A62"/><path d="m6.46282 13.9616.95404 1.092-3.1206 1.2622 2.16656-2.3542ZM5.95055 10.8651l2.17595-.7328-1.66369 3.8292-.51226-3.0964Z" fill="#4B5897"/><path d="m6.46292 13.9615 1.6637-3.8292.04699 3.659-1.71069.1702Z" fill="#3F4B80"/><path d="m7.41696 15.0527-.95404-1.0921 1.71069-.1701-.75665 1.2622Z" fill="#313A62"/><path d="m14.5041 12.1318 2.0162-.0141-1.2877 1.976-.7285-1.9619Z" fill="#4B5897"/><path d="m14.5041 12.1315 2.0679-.9692-.0517.955-2.0162.0142Z" fill="#5161A4"/><path d="m14.1092 13.881.3948-1.7491.7285 1.9618-1.1233-.2127Z" fill="#3F4B80"/><path d="m13.6252 14.7978.484-.9171 1.1232.2127-1.6072.7044Z" fill="#4B5897"/><path d="m12.6478 15.4549.3054-1.5033 1.1561-.0709-1.4615 1.5742Z" fill="#3F4B80"/><path d="m12.6478 15.4549 1.4615-1.5742-.484.9171-.9775.6571Z" fill="#313A62"/><path d="m18.4189 7.44235 1.9174-1.35203.094.33091-2.0114 1.02112Z" fill="#495692"/><path d="m20.3363 6.08983 1.5697-.08037-1.4757.41128-.094-.33091Z" fill="#5D6CAC"/><path d="m19.3306 9.17732-.8742-.61929 2.9561.00473-2.0819.61456Z" fill="#4F60A3"/><path d="m18.4564 8.55742 2.5426-.33092.4135.33565-2.9561-.00473Z" fill="#495692"/><path d="m20.999 8.22706 1.1655-1.02584-.7519 1.36149-.4136-.33565Z" fill="#3F4B80"/><path d="m21.4126 8.56271.752-1.36149.2491.11818-1.0011 1.24331Z" fill="#4F60A3"/><path d="m22.1646 7.2005.2068-.59093.0423.70911-.2491-.11818ZM16.9714 9.38487l.282 2.48663-.6815-.7091.3995-1.77753Z" fill="#313A62"/><path d="m17.2535 11.8716-.282-2.48661 2.3592-.208-2.0772 2.69461Z" fill="#3F4B80"/><path d="m19.3305 9.17655-2.3592.208-.3008-2.08951 2.66 1.88151Z" fill="#4B5897"/><path d="m19.2789 8.07091.3806.3451-1.2031.14182.8225-.48692Z" fill="#313A62"/><path d="m16.6705 7.29504 2.6083.7753-.8224.48692-1.7859-1.26222Z" fill="#3F4B80"/><path d="m16.6705 7.29504 1.7483.14655.86.62875-2.6083-.7753Z" fill="#313A62"/><path d="m19.2226 13.1102.1081-3.93321.9399.77056-1.048 3.16265Z" fill="#3F4B80"/><path d="m19.2225 13.1102.1081-3.93321-2.0773 2.69461 1.9692 1.2386Z" fill="#495692"/><path d="m20.2705 9.94764-.3008-.9833-.6392.21273.94.77057Z" fill="#313A62"/><path d="m20.3975 12.5659-1.1749.5436 1.048-3.1626.1269 2.619Z" fill="#313A62"/></svg>