<svg width="24" height="24" viewBox="0 0 24 24" fill="none" xmlns="http://www.w3.org/2000/svg"><g clip-path="url(#clip0_125_708)"><path d="M20.7302 3.1937H3.26984V20.654H20.7302V3.1937Z" fill="#fff"/><path d="M9.1872 14.3116h1.8667c.5338-.0008 1.0607-.1201 1.5428-.3492.4568-.2248.8646-.5377 1.2-.9207.3333-.3965.5915-.8505.7619-1.3396.1854-.4955.28-1.0203.2794-1.5492.0017-.51445-.0998-1.02396-.2984-1.49846-.1936-.47999-.4662-.92422-.8064-1.31429-.3433-.39177-.7595-.71308-1.2254-.94603-.4788-.24682-1.0105-.37322-1.5492-.36825H6.04434V17.956h3.17461l-.03175-3.6444Zm0-5.40319h1.5873c.2217.01412.429.11439.5778.27936.2273.28472.3344.64698.2984 1.00953.0384.347-.0595.6953-.273.9714-.0631.0828-.1435.1507-.2357.1989-.0921.0483-.1937.0758-.2977.0805H9.1872V8.90841Z" fill="#2D8EFF"/><path d="M2 3.14921V20.8508c0 .3048.12108.5971.33659.8126.21552.2155.50783.3366.81262.3366H20.8508c.3048 0 .5971-.1211.8126-.3366.2155-.2155.3366-.5078.3366-.8126V3.14921c0-.30479-.1211-.5971-.3366-.81262C21.4479 2.12108 21.1556 2 20.8508 2H3.14921c-.30479 0-.5971.12108-.81262.33659C2.12108 2.55211 2 2.84442 2 3.14921ZM18.5079 19.6571H5.47937c-.30479 0-.5971-.121-.81262-.3366-.21551-.2155-.33659-.5078-.33659-.8126V5.47937c0-.30479.12108-.5971.33659-.81262.21552-.21551.50783-.33659.81262-.33659H18.5079c.3048 0 .5971.12108.8126.33659.2156.21552.3366.50783.3366.81262V18.5079c-.0033.3026-.1259.5917-.341.8045-.2152.2127-.5056.3321-.8082.332v.0127Z" fill="#2D8EFF"/><path d="M17.9492 15.7136h-7.3588v2.2604h7.3588v-2.2604Z" fill="#2D8EFF"/></g><defs><clipPath id="clip0_125_708"><path fill="#fff" d="M2 2h20v20H2z"/></clipPath></defs></svg>