<svg width="24" height="24" viewBox="0 0 24 24" fill="none" xmlns="http://www.w3.org/2000/svg"><path d="M12 22c5.5228 0 10-4.4772 10-10 0-5.52285-4.4772-10-10-10C6.47715 2 2 6.47715 2 12c0 5.5228 4.47715 10 10 10Z" fill="#96B73D"/><path d="M9.24612 12.0657c.05375.1612.13313.3125.23563.4487l-1.55813-1.5737c-.16236-.1638-.25346-.3851-.25346-.6157 0-.2306.0911-.45183.25346-.61559l1.96563-1.96687c.04062-.03.07937-.0625.11685-.09625l.0569-.05 1.5919-1.59313c.08-.0804.1752-.14416.28-.1876.1048-.04345.2172-.06573.3307-.06556.1134.00018.2257.0228.3304.06657.1047.04377.1997.10782.2795.18847l5.2144 5.25186c.1188.1689.1745.3742.1572.58-.0172.2057-.1063.3989-.2516.5456-.1434.1447-.3322.2357-.5347.2579-.2025.0222-.4065-.0258-.5778-.136l-4.6063-4.64999-.005-.00625-.015-.01625-2.46433 2.46499-.0375.0313c-.00142.0017-.00288.0033-.00437.005l2.435 2.4543c.1072.1084.1842.2429.2234.3901.0392.1473.0393.3023.0001.4496s-.1161.2818-.2233.3902-.2408.1868-.3877.2276c-.1468.0396-.3015.0395-.4482-.0001-.1468-.0396-.2805-.1174-.3874-.2255l-1.24753-1.2562c-.01812-.0163-.03625-.0375-.05875-.06l-.0575-.0575c-.04181-.0471-.08083-.0966-.11687-.1482l.02812.0332-.01875-.0244c-.10469-.1328-.18741-.2816-.245-.4406Zm5.09128 1.6081-2.4382-2.4556c-.1623-.1638-.2534-.3851-.2534-.6157 0-.2306.0911-.4518.2534-.61559.0803-.08049.1756-.1443.2806-.18777.105-.04347.2176-.06573.3312-.0655.1137.00024.2261.02295.3309.06685.1049.0439.2.1081.2798.18892l1.2482 1.25629c.0175.0156.0356.0375.0587.0593l.0569.0575c.0325.0363.0625.075.09.1144l.0137.0169c-.0175-.0251-.0354-.0499-.0537-.0744l1.6312 1.6419c.1626.1639.2539.3854.2539.6162 0 .2309-.0913.4524-.2539.6163l-1.9668 1.9675c-.0412.0294-.0808.0609-.1188.0944l-1.64 1.64c-.0799.0806-.175.1446-.2798.1882-.1049.0437-.2173.0662-.3308.0662-.1135 0-.226-.0225-.3308-.0662-.1048-.0436-.1999-.1076-.2798-.1882l-5.29815-5.3419c-.12909-.1752-.18872-.3919-.16736-.6085.02135-.2165.12217-.4174.28298-.564.16031-.1458.36953-.2261.58622-.2249.21669.0011.42505.0836.58378.2311l4.61503 4.6594.0156.0188 2.4594-2.4588.0362-.0294c.0013-.0012.0025-.0025.0038-.0037Z" fill="#fff"/></svg>