<svg width="24" height="24" viewBox="0 0 24 24" fill="none" xmlns="http://www.w3.org/2000/svg"><g clip-path="url(#clip0_96_1452)"><path d="M20.5788 6.79096c.2314.13347.4212.46089.4212.72819v9.37925c0 .2673-.1898.5947-.4212.7282l-8.1576 4.6911c-.2314.1332-.6107.1332-.8424 0l-8.15724-4.6911C3.18945 17.4931 3 17.1657 3 16.8984V7.51915c0-.2673.18945-.59472.42156-.72819L11.5788 2.0998c.2317-.13311.611-.13311.8424 0l8.158 4.69116h-.0004Z" fill="#4231C8"/><path d="M17.1687 8.74648c.2302-.135.2295-.35613-.0015-.49077l-4.8594-2.82519c-.2314-.13419-.6096-.13419-.8405 0L6.60782 8.25607c-.23103.135-.42003.46278-.42003.73017v5.75546c0 .2673.19359.5884.42993.7131l.80037.423c.23634.1247.42993.0084.42993-.259V9.96283c0-.2673.18828-.37503.41859-.23967L11.469 11.6069c.2299.135.6069.135.8375 0l4.8622-2.86042Z" fill="#fff"/><path d="M14.2712 8.26328c.2307.13419.2314.35541.0016.49077L12.306 9.91028c-.2307.13612-.6076.13612-.8379 0L9.50222 8.75369c-.23067-.135-.23067-.35622.00117-.49041l1.96391-1.14183c.2306-.13428.6086-.13428.8405 0l1.9634 1.14183Z" fill="#4231C8"/></g><defs><clipPath id="clip0_96_1452"><path fill="#fff" d="M3 2h18v20.4176H3z"/></clipPath></defs></svg>