<svg width="24" height="24" viewBox="0 0 24 24" fill="none" xmlns="http://www.w3.org/2000/svg"><path d="M22.3067 11.4525c-.0364-.6775-.1403-1.3372-.3053-1.97222-.0983-.37972-.2186-.75056-.3594-1.11111-.7072-1.81473-1.9295-3.37223-3.487-4.49223-1.0208-.73472-2.1858-1.28138-3.4444-1.58972C13.945 2.09944 13.1451 2 12.3217 2c-.8233 0-1.6233.09944-2.38887.28722-1.25861.30834-2.42361.85528-3.44445 1.58972-1.5575 1.12028-2.77972 2.6775-3.48694 4.49223-.14056.36055-.26111.73139-.35945 1.11111-.165.63502-.26889 1.29472-.30527 1.97222-.01.1814-.015.3639-.015.5475 0 .1892.00527.3769.01583.5636.03639.6578.13639 1.2989.29417 1.9167.09694.3794.21555.7503.35472 1.1111.70472 1.8317 1.93305 3.4033 3.50194 4.5317 1.02084.7344 2.18584 1.2813 3.44445 1.5897.76557.1878 1.56557.2872 2.38887.2872.8234 0 1.6233-.0994 2.3889-.2872 1.2586-.3084 2.4236-.855 3.4444-1.5897 1.5689-1.1284 2.7973-2.7 3.5023-4.5317.1391-.3608.2575-.7317.3544-1.1111.1578-.6178.2578-1.2589.2942-1.9167.0105-.1867.0158-.3744.0158-.5636 0-.1836-.005-.3661-.015-.5475Z" fill="#3671FF"/><path d="m9.23785 11.5089 2.59275-2.5928c.217-.21695.217-.56861 0-.78556-.2169-.21694-.5686-.21694-.7855 0L8.45229 10.7233c-.21694.217-.21694.5686 0 .7856.21694.2169.56861.2169.78556 0ZM15.3661 12.4517l-2.5927 2.5928c-.217.2169-.217.5686 0 .7855.2169.217.5686.217.7855 0l2.5928-2.5928c.2169-.2169.2169-.5686 0-.7855-.2167-.217-.5686-.217-.7856 0ZM15.6609 7.87528 8.19698 15.3392c-.21694.2169-.21694.5686 0 .7855.21694.217.56861.217.78556 0l7.46386-7.46387c.217-.21694.217-.56861 0-.78555-.2169-.21695-.5686-.21695-.7855 0Z" fill="#fff"/></svg>