<svg width="24" height="24" viewBox="0 0 24 24" fill="none" xmlns="http://www.w3.org/2000/svg"><path d="M8.35508 19.7664h5.01872l4.0561-2.944 1.5514-4.7663-1.5514-4.76638-4.0561-2.94392H8.35508L4.29901 7.27103l-1.5514 4.76637 1.5514 4.7663 4.05607 2.9627Zm5.10282.271H8.26162l-.03738-.0281-4.16822-3.028-1.59813-4.9346 1.60747-4.9439 4.19626-3.04672h5.19628l4.2056 3.05607 1.6075 4.94395L17.6635 17l-4.2056 3.0374Z" fill="#2EA6DF"/><path d="M8.84115 4.18688c0 .33644-.27103.59813-.59814.59813-.33644 0-.59813-.27103-.59813-.59813 0-.32711.27103-.59813.59813-.59813.32711 0 .59814.27102.59814.59813Zm5.15885 0c0 .33644-.271.59813-.5981.59813-.3365 0-.5981-.27103-.5981-.59813 0-.32711.271-.59813.5981-.59813.3271 0 .5981.27102.5981.59813ZM8.87853 19.813c0 .3365-.27103.5982-.59813.5982-.33645 0-.59813-.271-.59813-.5982 0-.3271.27102-.5981.59813-.5981.3271-.0093.59813.2617.59813.5981Zm-4.13084-2.9065c0 .3365-.27103.5981-.59813.5981-.32711 0-.59813-.271-.59813-.5981 0-.3364.27102-.5981.59813-.5981.3271 0 .59813.2617.59813.5981Zm-1.54206-4.8598c0 .3364-.27103.5981-.59813.5981-.33645 0-.59813-.271-.59813-.5981 0-.3365.27103-.5981.59813-.5981.3271-.0094.59813.2616.59813.5981Zm1.54206-4.84113c0 .33645-.27103.59813-.59813.59813-.32711 0-.59813-.27103-.59813-.59813 0-.33645.27102-.59813.59813-.59813.3271 0 .59813.26168.59813.59813ZM18.514 12.0373c0 .3365.2711.5982.5982.5982.3271 0 .5981-.2711.5981-.5982 0-.3271-.271-.5981-.5981-.5981-.3271 0-.5982.2617-.5982.5981Zm-1.542-4.84108c0 .33645.271.59813.5981.59813.3365 0 .5981-.27102.5981-.59813 0-.33645-.271-.59813-.5981-.59813-.3364 0-.5981.26168-.5981.59813ZM14.0468 19.813c0 .3365-.2711.5982-.5982.5982-.3271 0-.5981-.271-.5981-.5982 0-.3271.271-.5981.5981-.5981.3271 0 .5982.2617.5982.5981Z" fill="#2EA6DF"/><path d="m7.68228 15.5888.04673.0186 3.35519 1.1309 3.7943-1.1402 2.5608 1.0935V7.40184L14.8785 8.4953l-3.7943-1.14019-3.40192 1.13084-.04673-.00935-3.34579-1.08411v9.28971l3.39252-1.0934Zm10.02802 1.4953-2.8504-1.215-3.7757 1.1402-3.39257-1.1402-3.66355 1.1869V7.01866l3.66355 1.18692 3.39257-1.14019.0373.00935 3.7384 1.12149 2.8504-1.21495V17.0841Z" fill="#2EA6DF"/><path d="M2.59818 12.2972v-.3871l16.52332-.0129v.3742l-16.52332.0258Z" fill="#2EA6DF"/><path d="m11.2336 7.22426 1.9719 4.43924 1.5047-3.32709-1.3551-3.86916-2.1215 2.75701Zm-3.41123 1.1028 1.3271 3.34584 1.76633-4.4393-2.57941-2.73831-.51402 3.83177ZM4.33639 12.0467l3.28972 3.4392 1.36448-3.4392-1.36448-3.44861-3.28972 3.44861Zm4.96261 0 1.785 4.4673L13.056 12l-1.972-4.43929-1.785 4.48599Zm-1.47663 3.7009.5514 3.7664 2.54203-2.6729-1.76633-4.4206-1.3271 3.3271Zm3.41123 1.1028 2.1589 2.6823 1.3177-3.7944-1.5047-3.3925-1.9719 4.5046Zm-3.04675 3.2617-.63551-4.3177-3.58879-3.7477 3.58879-3.76637.58878-4.40187 2.92528 3.11215 2.3831-3.09345 1.5608 4.45794L13.3551 12l1.6542 3.7196-1.514 4.3645-2.4299-3.0094-2.87855 3.0374Z" fill="#2EA6DF"/><path d="m14.9721 15.813-.2243-.1682 2.6542-3.5982-2.6542-3.61678.2243-.16822 2.7663 3.785-2.7663 3.7664ZM7.03748 8.34571c0 .33645.27102.59813.59813.59813.33644 0 .59813-.27103.59813-.59813 0-.3271-.27103-.59813-.59813-.59813-.32711 0-.59813.26168-.59813.59813Zm3.43922-1.14019c0 .33645.2711.59813.5982.59813.3364 0 .5981-.27103.5981-.59813 0-.33645-.271-.59813-.5981-.59813-.3365 0-.5982.26168-.5982.59813Z" fill="#2EA6DF"/><path d="M15.2898 7.9252c-.2336-.23364-.6168-.23364-.8505 0-.2336.23365-.2336.61683 0 .85047.2337.23365.6169.23365.8505 0 .2336-.24299.2336-.61682 0-.85047ZM4.74774 12c0-.3365-.27102-.5982-.59813-.5982-.3271 0-.59813.2711-.59813.5982 0 .3364.27103.5981.59813.5981.32711 0 .59813-.2617.59813-.5981Zm4.88786 0c0-.3365-.27103-.5982-.59813-.5982-.33645 0-.59814.2711-.59814.5982 0 .3364.27103.5981.59814.5981.3271 0 .59813-.2617.59813-.5981Zm4.0841 0c0-.3365-.271-.5982-.5981-.5982-.3365 0-.5982.2711-.5982.5982 0 .3364.2711.5981.5982.5981.3271 0 .5981-.2617.5981-.5981Zm4.4486.0467c0-.3365-.271-.5981-.5981-.5981-.3271 0-.5982.271-.5982.5981 0 .3364.2711.5981.5982.5981.3271 0 .5981-.271.5981-.5981Zm-2.7103 3.6822c0-.3364-.271-.5981-.5981-.5981-.3365 0-.5981.271-.5981.5981 0 .3271.271.5982.5981.5982.3364 0 .5981-.2617.5981-.5982Zm6.5327 3.0281c0-.4673-.3831-.8505-.8504-.8505-.4673 0-.8505.3832-.8505.8505 0 .4673.3832.8504.8505.8504.4673 0 .8504-.3831.8504-.8504Zm-11.1495-2.4299c-.3084.1308-.4486.486-.3178.785.1309.3084.486.4486.7851.3178.3084-.1309.4486-.486.3178-.7851-.1309-.299-.4767-.4392-.7851-.3177Zm-3.43925-1.1496c-.30841.1309-.4486.486-.31776.7851.13084.3084.48599.4486.78505.3177.30841-.1308.4486-.4859.31776-.785-.13084-.3084-.47664-.4486-.78505-.3178Z" fill="#2EA6DF"/><path d="m21.0748 18.8785-3.5982-1.8599.1309-.2429 3.5981 1.8598-.1308.243Z" fill="#2EA6DF"/></svg>