<svg width="24" height="24" viewBox="0 0 24 24" fill="none" xmlns="http://www.w3.org/2000/svg"><path d="M19.3138 11.9997c.0009-1.4123-.4096-2.79427-1.1813-3.97713l2.8685-2.86815L18.8457 3l-2.8653 2.86816c-1.1832-.77153-2.5653-1.18232-3.9779-1.18232-1.4126 0-2.79462.41079-3.97783 1.18232L5.15305 3 2.99902 5.15442 5.8675 8.02257C5.09601 9.2056 4.68525 10.5874 4.68525 11.9997c0 1.4123.41076 2.7941 1.18225 3.9771l-2.86848 2.8694L5.15368 21l2.86847-2.8682c1.18314.7715 2.56515 1.1822 3.97755 1.1822 1.4124 0 2.7944-.4107 3.9775-1.1822L18.8463 21l2.1547-2.1538-2.8691-2.8663c.7724-1.1835 1.1831-2.5664 1.1819-3.9796v-.0006Zm-11.5807 0c-.0009-.6363.14059-1.2647.41402-1.8393.27346-.5745.672-1.08062 1.16641-1.4812.49438-.40061 1.07217-.68554 1.69097-.83395.6188-.14845 1.263-.15656 1.8853-.02382.6224.13277 1.2072.40301 1.7115.79101.5044.38799.9155.88387 1.2034 1.45136.2879.5674.4452 1.1921.4603 1.8282.0152.6361-.1121 1.2675-.3726 1.8481l-2.8151-2.8179-2.1553 2.155 2.8151 2.8148c-.6491.2917-1.3611.4161-2.0707.3617-.7097-.0543-1.3944-.2856-1.99154-.6728-.59718-.3871-1.08777-.9177-1.42697-1.5433-.33924-.6256-.5162-1.3263-.51479-2.0379Z" fill="#4CBBFD"/></svg>