<svg width="24" height="24" viewBox="0 0 24 24" fill="none" xmlns="http://www.w3.org/2000/svg"><g clip-path="url(#clip0_111_759)" fill="#000"><path d="m6.68747 3.18706 5.07983 5.95171 3.4097-2.00573S11.0632 1.6316 9.96622 2.02046c-1.03151.39296-3.27875 1.1666-3.27875 1.1666ZM15.3039 7.13303s.7737-1.35898 1.1584-3.17232c0 0 3.86 1.55137 2.3783 5.43593l-3.5367-2.26361Z"/><path d="m18.8406 9.40074.3233 4.07696 1.4777-.1924s.3848-.131.3234-.8391c-.0655-.7778-.1924-2.3946-.1924-2.3946s.0655-.38889-.835-.51578c-1.097-.20057-1.097-.13508-1.097-.13508ZM19.1599 13.4777l-2.9595 2.3946 1.3508 2.6525s.3234 1.0356 1.2853-.131c.9005-1.1666 1.2853-1.359 1.2198-2.0712-.0573-.7123-.2538-2.3946-.8964-2.8449ZM16.139 15.8682l-4.0524-1.8133-3.53665 7.1838s-.25788.5157.64265.5812c.9005.131 2.3782.4544 3.1519-.3234.7736-.7081 3.7945-5.6283 3.7945-5.6283ZM12.0866 13.9935l-.3848-4.78925-8.74743.58535s-.51576.0655-.45027 1.0356c.06549 1.2935.19239 2.718.19239 2.718s-.0655.5812 1.09292.6467c1.15841.0614 8.17029.0614 8.29719-.1964Z"/></g><defs><clipPath id="clip0_111_759"><path fill="#fff" d="M2.5 2h18.4732v20H2.5z"/></clipPath></defs></svg>