<svg width="24" height="24" viewBox="0 0 24 24" fill="none" xmlns="http://www.w3.org/2000/svg"><path fill-rule="evenodd" clip-rule="evenodd" d="M2 12.5c0-5.52313 4.47687-10 10-10 5.5231 0 10 4.47687 10 10 0 5.5231-4.4769 10-10 10-5.52313 0-10-4.4769-10-10Zm14.7069 2.0416c-.0026-.521.4219-.9448.948-.9481h.0026c.5262.0042.9498.4296.9456.9498.0017.5193-.422.943-.9482.9464-.5261-.0025-.9506-.4264-.948-.9464v-.0017Zm.6813-2.0343c.4531-.2615.6094-.8415.3477-1.2945-.2616-.4529-.8418-.6092-1.2948-.3476-.4515.2599-.6078.8357-.3511 1.2886l.0058.0084c.2616.4521.8393.6067 1.2915.3451 0 .0005.0002.0007.0005.0007.0002 0 .0004-.0002.0004-.0007ZM6.29552 11.2147c.26263-.4531.84311-.6069 1.29645-.3444.45167.2617.60557.8402.34461 1.2924v.0033c-.26264.4531-.84311.6069-1.29646.3444-.45334-.2624-.60724-.8426-.3446-1.2957Zm2.85003-.6061c.52427-.0008.94885-.4264.94795-.94981 0-.16386-.0427-.3244-.12389-.46653-.25708-.454-.83495-.61452-1.29048-.35701-.00021 0-.00037.00005-.0005.00013l-.00015.00011-.00019.00018c-.0002.00021-.00042.00042-.00083.00042l-.01592.00919c-.45052.26755-.59874.84945-.33077 1.29932.17083.2867.47983.4632.81478.464Zm1.89815-1.72135c0-.52339.4248-.94811.9481-.94811.5234 0 .9481.42472.9481.94811s-.4247.94812-.9481.94812c-.5233 0-.9481-.42473-.9481-.94812ZM8.96715 13.5942c-.52338 0-.94811.4247-.94811.9481 0 .5233.42473.9481.94811.9481s.94815-.4248.94815-.9481c0-.5234-.42477-.9481-.94815-.9481Zm3.66165-1.6395c0-.5235.4248-.9482.9481-.9482.5235 0 .9482.4247.9482.9482 0 .5233-.4247.9481-.9482.9481-.5233 0-.9481-.4248-.9481-.9481Zm1.7405-1.4387.0122.0068c.4885.2428 1.0845.0507 1.3318-.4288.2281-.44247.0804-.98283-.3435-1.25384-.4867-.24615-1.0845-.05918-1.3353.41853-.2324.44167-.0882.98371.3348 1.25731Zm-8.9724 4.0083c.0109-.5232.44346-.9392.96655-.9308.51472.0101.928.4302.92967.9451.00168.5241-.42165.9493-.94559.951-.52394.0016-.94895-.4218-.95063-.946v-.0193Zm9.5873-.933c-.5234 0-.9481.4248-.9481.9481 0 .5234.4247.9481.9481.9481.5233 0 .9481-.4247.9481-.9481 0-.5233-.4248-.9481-.9481-.9481Zm-3.7452-2.1611c.2888.4359.1703 1.0239-.2655 1.3129-.0334.0225-.0684.0434-.1052.061-.4684.2321-1.03691.0409-1.26901-.4277-.23203-.4685-.04086-1.0373.42751-1.2695l.0058-.0033c.4266-.2097.9434-.0701 1.2064.3266Z" fill="#2C56DD"/></svg>