<svg width="24" height="24" viewBox="0 0 24 24" fill="none" xmlns="http://www.w3.org/2000/svg"><g clip-path="url(#clip0_117_828)"><path d="M10.2775 18.2283 5 22.0004 8.35035 6.65213 10.2775 18.2283Zm.1068-.0354 3.2139.0413L8.47487 6.71116 10.3843 18.1929Zm3.5164-.2539 2.4608-9.07908-.931-1.13341L13.9007 17.939Zm-1.186-14.23256L8.66463 6.4219l5.91797-1.90673-1.8679-.80873Zm-.51 0-2.51422.08264-.36764 1.04486 2.88186-1.1275Z" fill="#384182"/><path d="m15.2525 7.37827-6.48129-.88548L14.6121 4.6628l.6404 2.71547Zm-1.5358-3.41204.3558-.96223-1.8679-.80873 1.5121 1.77096Zm.5396-1.05668.421 1.51122 2.4905-.65525-2.9115-.85597Z" fill="#F79534"/><path d="M13.7407 18.1747 8.5462 6.60449l6.7719.94451-1.5774 10.6257ZM12.5192 3.70602 9.31708 4.95159 8.5462 6.36836l3.973-2.66234Zm-1.9865-.94451-.80053.87958 2.65653-.06494-1.856-.81464Zm1.3994-.68477-1.269.58442 2.8938 1.26918-1.6248-1.8536ZM13.379 2h-1.3639l2.1111.81464L13.379 2Zm.7887 1.08028-.3262.96813.6523.31287-.3261-1.281Z" fill="#F0513A"/></g><defs><clipPath id="clip0_117_828"><path fill="#fff" d="M5 2h12.1739v20H5z"/></clipPath></defs></svg>