<svg width="24" height="24" viewBox="0 0 24 24" fill="none" xmlns="http://www.w3.org/2000/svg"><path d="M18.1301 6.9425c-.3749-2.10415-2.1859-3.55042-4.8676-3.88727-.4348-.05461-1.3311-.07252-1.822-.03645-2.37195.17435-4.64131 1.16777-6.14123 2.6884C4.1952 6.82645 3.71808 8.1627 4.1688 8.87335c.19856.31314.48982.44481.98422.44481.32418 0 .56075-.07705.8071-.26288.32921-.24836.52756-.52561 1.175-1.64242.73001-1.25932 1.48852-1.89586 2.74627-2.3047.77191-.25091 1.66201-.35108 2.55961-.28801.8046.05653 1.2406.16048 1.76.41954.3367.16791.5088.29066.7506.53534.6801.68793.8648 1.77481.4905 2.88585-.2547.75621-.7124 1.45892-1.3521 2.07602-.9751.9406-2.224 1.4785-3.3477 1.4418l-.3439-.0113.3382-.7256c.7322-1.57106 1.1349-2.6255 1.1705-3.06574.0179-.21984.0092-.27661-.0684-.44601-.0729-.1592-.1171-.2078-.246-.2702-.3477-.16834-.6581-.05362-1.1281.41688-.3726.37295-.59967.6588-1.01435 1.27682-.57032.85005-1.01151 1.61115-2.2671 3.91115-.34007.6229-1.01034 1.8493-1.48948 2.7254-1.07317 1.9621-1.19103 2.1958-1.25987 2.4984-.11157.4906-.05285.975.15265 1.2587.33105.4569 1.06386.5659 1.60398.2384.24493-.1485.6256-.5495.8757-.9224.4172-.6221.94709-1.8828 1.73063-4.1173.13793-.3933.32382-.8603.35553-.8931.01384-.0143.11723.2485.22979.584.76992 2.2946 1.72922 3.9073 2.80142 4.7096.5656.4231 1.0838.5989 1.7589.5966 1.4438-.0049 3.0078-.7591 4.4489-2.1454.5085-.4892.7699-.9875.7396-1.4098-.0413-.5757-.6801-.7155-1.1448-.2504-.0767.0767-.2614.2752-.4104.4411-.3449.3838-.7873.7169-1.3041.9819-.7368.3777-1.1723.4785-1.9785.458-.4458-.0113-.5388-.0239-.6769-.0917-.7391-.363-1.5648-1.6852-2.0036-3.2087-.0676-.2348-.132-.493-.1431-.5739l-.0202-.147.2078-.0405c1.3445-.2616 3.0702-1.0724 4.2075-1.9766.3674-.2922.9506-.8711 1.2017-1.193.5536-.7097.9223-1.47907 1.0622-2.21595.071-.37462.0719-1.234.0016-1.62855Z" fill="#681BFF"/></svg>