<svg width="24" height="24" viewBox="0 0 24 24" fill="none" xmlns="http://www.w3.org/2000/svg"><path d="m14.8696 10.5142-4.5574 3.2185v-1.2616c-.0686-.0515-.3141-.1236-.74667 0-.54071.1545-2.47181.8754-3.11551 3.2185-.51496 1.8744.36906 3.7163.87544 4.4029H19.0408c-.5064-1.1844-1.5809-3.6614-1.8281-4.0939-.2472-.4326-.103-.7639 0-.8755.8153-.6523 2.2709-2.8168 1.5706-6.25673C18.083 5.42644 14.9383 4.18882 13.4535 4H5.03389v6.6687c.38622-.3261 1.41098-1.05564 2.42031-1.36462 1.00932-.30897 2.37739-.35188 2.9353-.33472V7.57897l4.4801 2.93523Z" fill="url(#paint0_linear_125_709)"/><defs><linearGradient id="paint0_linear_125_709" x1="5.03389" y1="4" x2="5.03389" y2="20.0925" gradientUnits="userSpaceOnUse"><stop stop-color="#E34D67"/><stop offset="1" stop-color="#7746F4"/></linearGradient></defs></svg>