<svg width="24" height="24" viewBox="0 0 24 24" fill="none" xmlns="http://www.w3.org/2000/svg"><path d="M12 22c5.5228 0 10-4.4772 10-10 0-5.52285-4.4772-10-10-10C6.47715 2 2 6.47715 2 12c0 5.5228 4.47715 10 10 10Z" fill="url(#paint0_linear_27_1013)"/><path d="m7.62503 7.8125 1.0625-.5625.125.25 3.87497-2.25-.25-.1875-.3125-.1875L12 4.8125 5.62503 8.5v.125l1.8125-1 .1875.1875Zm0 2.375L10.6875 8.375l.125.25 3.9375-2.25-.3125-.1875-.3125-.125L14 6l-8.37497 4.8125v.125l1.8125-1 .1875.25Zm0 1.125L11.6875 9l.125.1875 3.9375-2.25-.3125-.125-.3125-.1875L15 6.5625l-9.37497 5.375v.1875l1.8125-1.0625.1875.25Zm0 1.125 5.06247-2.875.125.1875L16.75 7.5625l-.3125-.1875-.3125-.1875L16 7.125l-10.37497 6v.125l1.8125-1 .1875.1875Zm0 1.1875 6.06247-3.5.125.25 3.9375-2.25-.3125-.1875-.25-.125L17 7.6875 5.62503 14.25v.1875l1.8125-1.0625.1875.25ZM18.125 8.375 18 8.25 5.62503 15.4375v.125l1.8125-1 .1875.25L13.6875 11.25l.125.25 4.5625-2.5625V8.5l-.25-.125ZM6.43753 16.3125l1-.625.125.25 6.12497-3.5.125.25 4.5625-2.625V9.25L6.25003 16.1875l.1875.125Zm7.24997-2.6875.125.25 4.5625-2.6875v-.8125L7.25003 16.8125l.1875.0625 1-.625.1875.25 5.06247-2.875Zm-5.24997 3.8125 1.0625-.5625.125.25 4.06247-2.375.125.25 4.5625-2.625v-.8125L8.25003 17.375l.1875.0625Zm1 .5625L10.5 17.4375l.125.25 3.0625-1.75.125.25 4.5625-2.625v-.875l-9.12497 5.25.1875.0625Zm.81247.5.1875.125L11.5 18l.125.25 2.0625-1.1875.125.25 4.5625-2.625v-.8125L10.25 18.5Zm1.1875.6875 1-.625.1875.25 1.0625-.5625.125.25 4.5625-2.625V15l-7.0625 4.125.125.0625ZM13.75 5.8125l-.3125-.1875-.3125-.125L13 5.375l-7.37497 4.25v.1875L7.43753 8.75l.1875.25 2.0625-1.1875.125.25 3.93747-2.25Z" fill="#fff"/><defs><linearGradient id="paint0_linear_27_1013" x1="2" y1="12" x2="22" y2="12" gradientUnits="userSpaceOnUse"><stop stop-color="#001C3A"/><stop offset=".6" stop-color="#001E3D"/><stop offset=".7" stop-color="#001F3F"/><stop offset="1" stop-color="#002042"/></linearGradient></defs></svg>