<svg width="24" height="24" viewBox="0 0 24 24" fill="none" xmlns="http://www.w3.org/2000/svg"><path d="m15.2114 13.1146 4.5599-4.50298c.1694-.1672.3037-.36597.3952-.58485.0915-.21888.1383-.45354.1377-.69043l.0078-3.63964c-.0005-.18672-.0733-.36614-.2034-.50119l-8.7478 8.64639c-.17.1669-.305.3656-.3971.5845-.0921.2188-.1395.4536-.1395.6908 0 .2371.0474.4719.1395.6908.0921.2189.2271.4175.3971.5844l6.1679 6.0908c.169.1666.3695.2986.5901.3885.2206.0898.4569.1358.6953.1352.2385-.0006.4746-.0477.6947-.1387.2201-.0909.42-.2239.5882-.3914.1682-.1675.3015-.3661.3922-.5846.0907-.2185.1371-.4526.1365-.6888-.0006-.2363-.0482-.4701-.14-.6881-.0918-.2181-.2261-.416-.3952-.5827l-4.8791-4.818Z" fill="#008C62"/><path d="M19.5988 3.00017H5.85854c-1.11101 0-1.93107.83148-1.93107 1.96648V19.1669c-.00311.2413.04258.4807.1344.7042.09182.2235.2279.4266.4002.5971.17231.1706.37736.3053.60305.3961.22569.0907.46746.1359.71103.1326.24376.0041.48586-.0404.71189-.1309.22602-.0905.43135-.2251.60373-.3959.17239-.1707.30831-.3741.39967-.598.09136-.2239.13629-.4638.13211-.7052V6.50336H16.764l3.3472-3.29914c-.0671-.06658-.147-.11899-.2351-.15406-.0881-.03507-.1824-.05208-.2773-.04999Z" fill="#00E6A0"/></svg>