<svg width="24" height="24" viewBox="0 0 24 24" fill="none" xmlns="http://www.w3.org/2000/svg"><g clip-path="url(#clip0_125_712)"><path d="M12 2c5.5229 0 10 4.47714 10 10 0 5.5229-4.4771 10-10 10-5.52286 0-10-4.4771-10-10C2 6.47714 6.47714 2 12 2Z" fill="#000"/><path d="M7.19719 10.1634c0 .0749.07486.1497.14971.1497h1.81886v.9246H7.3469c-.07485 0-.14971.0748-.14971.1497v1.5246c0 .0748.07486.1497.14971.1497h1.81886v3.6491c0 .0749.04971.1252.12457.1252h1.74457c.0749 0 .1246-.0497.1246-.1252v-3.448c0-.0748.0497-.1251.1245-.1251h1.396c.0498 0 .0995.0251.1246.0748l1.5452 3.5743c.0251.0497.0748.0749.1245.0749h1.8692c.0994 0 .1497-.1.1245-.1749l-1.5451-3.4994c-.0251-.0749 0-.1497.0749-.1749.7474-.2748 1.2211-.9497 1.2211-1.8497V8.91312c0-1.14972-.9469-2.09943-2.0937-2.09943H9.29033c-.07486 0-.12457.05029-.12457.12514v1.54972H7.3469c-.07485 0-.14971.07485-.14971.14971v1.52514Z" fill="#fff"/><path d="M11.1595 8.83826c0-.07485.0497-.12514.1246-.12514h2.3428c.324 0 .5983.27486.5983.6v1.34968c0 .3252-.2743.6-.5983.6h-2.3428c-.0749 0-.1246-.0503-.1246-.1251V8.83826Z" fill="#000"/></g><defs><clipPath id="clip0_125_712"><path fill="#fff" d="M2 2h20v20H2z"/></clipPath></defs></svg>