<svg width="24" height="24" viewBox="0 0 24 24" fill="none" xmlns="http://www.w3.org/2000/svg"><path d="M12 22c5.5228 0 10-4.4772 10-10 0-5.52285-4.4772-10-10-10C6.47715 2 2 6.47715 2 12c0 5.5228 4.47715 10 10 10Z" fill="#3555F9"/><path d="M10.975 6.14184c.5313-.09875 1.075-.0875 1.6125-.06062.62.0725 1.2413.2025 1.8113.45875 1.1384.4757 2.1033 1.28945 2.7644 2.33125.2456.35812.4106.75937.5762 1.15748.1538-.24498.2913-.49998.425-.75623.0575-.12063.1781-.21375.3188-.2075.0935-.0073.1863.02176.2589.08114.0727.05937.1196.14448.1311.23761.0156.15-.0788.27937-.1407.40937-.195.39371-.4468.75751-.7075 1.11251-.0481.0512-.0281.1225-.0225.185.29 1.7106-.2618 3.5312-1.4375 4.82-.6777.7533-1.5318 1.3267-2.4856 1.6687-1.0987.3844-2.3087.4713-3.445.2025-1.64749-.3568-3.10498-1.4431-3.93373-2.8843-.18125-.2919-.29688-.6163-.44-.9263-.15625.2406-.28875.4938-.42188.7463-.03128.0625-.07835.1159-.13655.1547-.05821.0388-.12553.0617-.19532.0665-.23813 0-.45438-.2562-.35875-.4844.205-.4712.48562-.9075.8-1.315.0675-.0706.05812-.1706.04562-.2587-.11673-.7521-.08274-1.5199.1-2.2588.48125-2.07746 2.20625-3.81246 4.29691-4.35308.1937-.04563.3875-.09375.5843-.12688ZM9.49879 7.39809c-1.10812.5825-2 1.55688-2.4625 2.70751-.2675.695-.40375 1.4425-.3625 2.1862.11736-.0881.22924-.1832.335-.285.62188-.555 1.35-.985 2.11125-1.3275 1.41436-.6431 2.97186-.91996 4.51936-.99496-.5231-.5425-1.0906-1.04312-1.6137-1.58562.165-.18125.3437-.34875.5225-.51625.2031.18375.3906.38312.5893.57125.6438.64062 1.3069 1.2625 1.94 1.91188-.675.6731-1.3675 1.3294-2.0425 2.0025-.0569.0535-.1165.104-.1787.1512-.17-.1712-.3675-.3212-.5038-.5218.415-.435.8875-.8163 1.2857-1.2669-.7138.01-1.4238.1112-2.1225.25-.5644.1006-1.1069.2912-1.64878.4731-1.135.425-2.18188 1.1025-2.98 2.0088-.0475.0468-.04063.1162-.02813.175.09438.405.2725.7837.4675 1.15.64375 1.1606 1.75625 2.0575 3.03441 2.4625.7475.23 1.545.3187 2.3225.2106 1.0868-.1365 2.1059-.6022 2.9206-1.3344 1.1656-1.0275 1.8194-2.5931 1.7187-4.13-.1231.0956-.2331.2044-.3481.3081-.7818.6726-1.681 1.1951-2.6525 1.5413-1.2625.4687-2.6075.7112-3.9544.7494.1175.1537.2625.2825.3994.4193.4031.3925.8006.79 1.21 1.1763-.1575.1856-.3412.3475-.515.5175-.1744-.1419-.325-.3069-.4875-.4625-.6087-.59-1.21123-1.1875-1.81873-1.78-.08412-.0765-.16149-.1602-.23125-.25.26312-.2825.56562-.5263.835-.8025.46248-.4469.91248-.9069 1.38058-1.3481.175.17.3588.3325.5144.5206-.4162.4312-.8594.8369-1.2812 1.2625.4625.0231.9187-.0563 1.3775-.1.3312-.035.6568-.11.9837-.1781 1.6781-.3875 3.3125-1.1844 4.4388-2.4975-.4313-1.86503-2.0169-3.40003-3.9038-3.83378-1.2569-.31938-2.6275-.1375-3.77061.45937Z" fill="#fff"/></svg>