<svg width="24" height="24" viewBox="0 0 24 24" fill="none" xmlns="http://www.w3.org/2000/svg"><path d="M9.23633 6.09086c.72802 0 1.31817-.59017 1.31817-1.31818 0-.72801-.59015-1.31818-1.31817-1.31818-.72801 0-1.31818.59017-1.31818 1.31818 0 .72801.59017 1.31818 1.31818 1.31818Z" fill="#8352A1"/><path d="M15.1453 20.4546c.728 0 1.3182-.5902 1.3182-1.3182 0-.728-.5902-1.3182-1.3182-1.3182-.728 0-1.3182.5902-1.3182 1.3182 0 .728.5902 1.3182 1.3182 1.3182Z" fill="#3E99D3"/><path d="M14.5596 3.77231 8.45194 8.49112c-.53477.41318-.63335 1.18165-.22018 1.71638.41317.5348 1.18164.6334 1.71642.2202l6.10762-4.71879c.5348-.41317.6334-1.18164.2202-1.71641-.4132-.53478-1.1816-.63336-1.7164-.22019Z" fill="#E53C54"/><path d="M14.5591 8.59047 8.45142 13.3093c-.53477.4132-.63335 1.1816-.22018 1.7164.41318.5348 1.18164.6334 1.71642.2202l6.10764-4.7188c.5348-.4132.6333-1.18167.2202-1.71644-.4132-.53478-1.1817-.63336-1.7164-.22019Z" fill="#F49352"/><path d="m8.36106 18.3098 6.10764-4.7188c.5348-.4132 1.3032-.3146 1.7164.2201.4132.5348.3146 1.3033-.2202 1.7165l-6.1076 4.7188c-.53478.4131-1.30325.3146-1.71642-.2202-.41317-.5348-.3146-1.3033.22018-1.7164Z" fill="#3EBB90"/></svg>