<svg width="24" height="24" viewBox="0 0 24 24" fill="none" xmlns="http://www.w3.org/2000/svg"><g clip-path="url(#clip0_113_575)"><path d="M12 21.6722c5.3418 0 9.6722-4.3304 9.6722-9.6722 0-5.34173-4.3304-9.67209-9.6722-9.67209-5.34173 0-9.67209 4.33036-9.67209 9.67209 0 5.3418 4.33036 9.6722 9.67209 9.6722Z" fill="#1B1B1B" stroke="#fff" stroke-width=".655738"/><path fill-rule="evenodd" clip-rule="evenodd" d="M14.8361 9.16393c.1311.13115.3442.11475.4426-.03279.0983-.11475.0819-.29508-.0328-.39344-1.082-1.03279-2.0492-1.55738-3.6557-1.47541-1.68857.08197-3.18037.96721-3.08201 2.83611.08196 1.6557 1.68851 2.2623 3.09831 2.8032 1.082.4099 2.0328.7705 2.082 1.541.0492.8525-.8197 1.3607-1.5738 1.4099-1.4262.0819-2.26225-.4263-3.19668-1.3279-.11475-.1148-.29508-.1148-.40983-.0164-.13115.1147-.13115.3115-.0164.4426C9.54097 16 10.6229 16.5246 12.1967 16.4426c1.5738-.1147 3.5082-1 3.4098-2.8688-.0819-1.623-1.6229-2.2295-3.0163-2.7541-1.1476-.4427-2.2132-.85249-2.2623-1.78692-.0328-.67213.7705-1.16393 1.3442-1.19672 1.3935-.06557 2.2623.42623 3.164 1.32787Zm.1803 4.44267c0 .7213-.3935 1.3442-.9836 1.7049L14 15.2951c.2131-.2951.2459-.6722.2459-1.0328 0-1.0656-1.1639-1.4754-2.3935-1.918-1.3606-.4918-2.78684-1-2.78684-2.44267 0-.65573.29509-1.36065.86886-1.68852l.01639.03279c-.14754.31147-.21311.65573-.21311 1 0 1.1803 1.2951 1.6557 2.6066 2.1475 1.3442.4918 2.6721.9836 2.6721 2.2132Z" fill="#fff"/><path d="M11.918 19.7049c4.2951 0 7.7869-3.4918 7.7869-7.7869 0-4.29505-3.4918-7.78685-7.7869-7.78685-4.29505 0-7.78686 3.4918-7.78686 7.78685 0 4.2951 3.49181 7.7869 7.78686 7.7869Z" stroke="#fff" stroke-width=".327869" stroke-linecap="round"/></g><defs><clipPath id="clip0_113_575"><path fill="#fff" d="M2 2h20v20H2z"/></clipPath></defs></svg>