<svg width="24" height="24" viewBox="0 0 24 24" fill="none" xmlns="http://www.w3.org/2000/svg"><path fill-rule="evenodd" clip-rule="evenodd" d="M7.00539 12.8778c0 2.7328 2.21919 4.952 4.95201 4.952 2.7327 0 4.9519-2.2192 4.9519-4.9583 0-2.6567-4.5588-7.34869-4.7554-7.54525l-.2409-.24094-.2346.24728c-.1902.19656-4.67301 4.88851-4.67301 7.54521Zm2.87863-4.41302c.81788-1.0779 1.64218-1.99727 2.03528-2.42209.3995.42482 1.2428 1.35053 2.0734 2.42209 1.4773 1.91482 2.2572 3.43652 2.2572 4.40662 0 2.3651-1.9275 4.2926-4.2925 4.2926-2.36505 0-4.29257-1.9275-4.29257-4.2926 0-.9701.76721-2.4918 2.21919-4.40662Z" fill="url(#paint0_linear_125_713)"/><path d="M11.9573 19.4149c-3.60779 0-6.53712-2.9356-6.53712-6.5371 0-3.52531 4.92022-8.44556 5.12952-8.64846.1268-.12681.3424-.12681.4692 0 .1268.12681.1268.34239 0 .4692-.0508.05072-4.93296 4.93294-4.93296 8.17926 0 3.24 2.63766 5.8777 5.87766 5.8777 3.24 0 5.8777-2.6377 5.8777-5.8777 0-1.3315-.8623-3.17024-2.4982-5.33236-1.2554-1.65488-2.5172-2.91031-2.5299-2.92299-.1331-.12681-.1331-.33604 0-.4692.1269-.13315.3361-.13315.4692 0 .2156.20924 5.2246 5.1929 5.2246 8.72455-.0126 3.6015-2.942 6.5371-6.5497 6.5371Z" fill="url(#paint1_linear_125_713)"/><path d="M11.9574 21C7.56972 21 4 17.4303 4 13.0426c0-1.8134.91304-4.04523 2.70741-6.62583 1.32517-1.90216 2.62498-3.25903 2.68204-3.3161.12682-.13315.33605-.13315.4692-.00634.13316.12681.13316.33605.00635.4692-.01269.01268-1.32518 1.38224-2.61865 3.24001-1.69292 2.42843-2.58693 4.58416-2.58693 6.23906 0 4.0199 3.27171 7.298 7.29798 7.298 4.0262 0 7.2979-3.2717 7.2979-7.298 0-1.6549-.9003-3.81063-2.6059-6.23906-1.3062-1.85777-2.6314-3.22733-2.644-3.24001-.1268-.13315-.1268-.34239.0063-.4692.1332-.12681.3424-.12681.4692.00634.2219.22826 5.4338 5.64308 5.4338 9.94193 0 4.3877-3.5697 7.9574-7.9573 7.9574Z" fill="url(#paint2_linear_125_713)"/><defs><linearGradient id="paint0_linear_125_713" x1="16.9093" y1="17.829" x2="16.9093" y2="5.08453" gradientUnits="userSpaceOnUse"><stop stop-color="#05AAC5"/><stop offset="1" stop-color="#71E0EC"/></linearGradient><linearGradient id="paint1_linear_125_713" x1="18.507" y1="19.4141" x2="18.507" y2="4.05262" gradientUnits="userSpaceOnUse"><stop stop-color="#05AAC5"/><stop offset="1" stop-color="#71E0EC"/></linearGradient><linearGradient id="paint2_linear_125_713" x1="19.9147" y1="20.9992" x2="19.9147" y2="2.99922" gradientUnits="userSpaceOnUse"><stop stop-color="#05AAC5"/><stop offset="1" stop-color="#71E0EC"/></linearGradient></defs></svg>