<svg width="24" height="24" viewBox="0 0 24 24" fill="none" xmlns="http://www.w3.org/2000/svg"><path d="M12 22c5.5228 0 10-4.4772 10-10 0-5.52285-4.4772-10-10-10C6.47715 2 2 6.47715 2 12c0 5.5228 4.47715 10 10 10Z" fill="#F00500"/><path d="M15.8175 12.6387c-.0062.035-.1081.1388-.2106.215-.3.2194-.8369.4238-1.3825.5219-.3106.0563-.6213.065-.715.0194-.0606-.0306-.0694-.0544-.0475-.1325.0456-.1625.1937-.3413.4237-.5088.1175-.0843.5938-.3737.815-.4956.365-.2.6607-.3187.8607-.3475.0631-.0087.1393-.0112.1625 0 .04.015.0831.1306.1.2694.0093.0737.005.4-.0063.4587Zm-5.1206.7194c-.0125.0263-.0781.0544-.1519.065-.0744.0113-.3.0044-.4281-.0106-.46126-.0613-.95001-.2025-1.30626-.3763-.2-.0975-.34375-.1956-.45-.3018l-.06125-.0632-.00625-.0825c-.01125-.1437-.00875-.3693.00875-.45.0113-.0671.03414-.1318.0675-.1912.01687-.0219.01687-.0219.09562-.0219.09563 0 .17563.015.30625.0563.2675.0831.665.2831 1.15.5743.40004.2388.55004.3563.66504.5169.0781.1.13.2413.1106.285Zm3.0781 3.0256c0 .0063-.0262.1107-.0587.2344-.021.0759-.0406.1522-.0588.2288-.0244.0018-.0456.0043-.07.0018h-.0687l-.0963.2263c-.0519.1237-.1.2387-.1062.2562l-.0132.0307-.0456-.0744-.0456-.0738v-.6018l-.0175.0043c-.0375.0088-.3.0438-.415.0544-.4755.0475-.9551.0372-1.4281-.0306-.0476-.0082-.0956-.0141-.1438-.0175-.0019.0025 0 .1412.0044.3131l.0062.3088-.0362.0562c-.02.0306-.0394.0563-.0394.0588-.0062.0062-.0281-.0282-.0781-.1282-.0538-.1049-.0947-.2159-.1219-.3306l-.015-.0625-.0675.0038-.0675.0068-.0175-.0806c-.0095-.0489-.0174-.0981-.0237-.1475l-.0063-.0694-.0562-.05-.0719-.0612c-.0113-.0088-.0156-.0238-.0156-.0369v-.0262l.2718.0025.2719.0018.0081.0282.0088.0287.0937.0044.365.0106.2719.0063.0694-.1082.0719-.1087h.0912l-.0019-.2263-.0025-.2262-.1193-.0519c-.385-.1694-.6107-.3625-.6957-.5975-.0175-.0481-.0175-.0656-.0218-.2825-.0019-.2156-.0019-.235.0131-.2831.0147-.0532.0431-.1017.0823-.1405.0393-.0388.088-.0667.1414-.0808.0375-.0112.135-.0112.6482-.0112l.6037.0025.0675.0325c.0651.0267.1213.0711.1625.1281.0525.0694.0681.1238.0681.2563 0 .1893-.0131.3525-.0325.4175-.0288.0894-.0714.1737-.1262.25-.1088.1393-.3063.2781-.4875.3412l-.0519.0194.0025.2287.0019.2282.0481.0043.0475.0044.0656.0975.0625.0981h.2919c.1606 0 .3019.0019.315.0038.0219.005.0263.0025.0475-.0344l.0263-.0394h.25c.1875-.0087.2437-.0043.2437.0025Z" fill="#000"/><path d="M12.6269 17.0075c-.0413.0238-.0694.0344-.0756.0306-.0063-.0025-.0375-.0287-.07-.0525l-.0588-.0475-.0606.065c-.1325.1438-.1375.15-.1763.1519-.0606.0063-.0737-.0044-.1475-.115-.0393-.0562-.0693-.1044-.0693-.1044s-.0288-.0043-.0613-.0062l-.0606-.0063-.0281.0582-.0288.0587-.05-.015c-.0392-.0129-.0776-.0282-.115-.0456l-.065-.0325v-.1244l.5781.0025.5782.0019.0018.0587c.0025.0694.0044.0675-.0912.1219Z" fill="#000"/><path d="M18.0606 14.3561c-.0019-.0093-.0019-.025-.0037-.0481-.607-.0575-1.2194.0057-1.8018.1859-.5825.1802-1.1235.4739-1.592.8641 0 0-.445-2.0437-2.5312-2.0437-2.0875 0-2.86065 2.0437-2.86065 2.0437-1.16938-1.2587-2.73438-1.1675-3.3-1.085l-.00188.0413c-.0175.315-.00875.465.04375.6625.1625.62.665 1.3025 1.45188 1.9718 1.28875 1.0957 3.0362 1.8863 4.36 1.9782 1.38.0937 3.4169-.7132 4.7731-1.8913.2125-.1887.4125-.3887.6-.6019.1344-.1562.3344-.4262.3194-.4262-.0044 0 0-.0044.0087-.0088.0063-.0043.0125-.0106.0088-.015-.0025-.0025.0019-.0087.0087-.0106.0063-.0025.0107-.0062.0088-.0112-.0025-.0044 0-.0088.0087-.0107.0063-.0025.0088-.0087.0063-.0131-.0025-.0044 0-.0087.0044-.0087.0043 0 .0087-.0063.0087-.0107 0-.0043.0044-.0112.0088-.0112.0043 0 .0087-.0044.0087-.0088.0072-.0178.0167-.0346.0281-.05.0325-.05.1625-.2825.1807-.3212.1237-.2806.2018-.5306.2387-.7806.0131-.1194.0238-.3388.015-.3913v.0006Zm-5.4337 2.6513c-.0413.0237-.0694.0344-.0757.0306-.0062-.0025-.0375-.0287-.07-.0525l-.0587-.0475-.0606.065c-.1325.1438-.1375.15-.1763.1519-.0606.0062-.0737-.0044-.1475-.115-.0394-.0563-.0694-.1044-.0694-.1044s-.0287-.0044-.0612-.0062l-.0606-.0063-.0282.0581-.0287.0588-.05-.015c-.0392-.013-.0776-.0282-.115-.0456l-.065-.0325v-.1244l.5781.0025.5781.0019.0019.0587c.0025.0694.0044.0675-.0912.1219Zm1.0875-.3913c-.021.0758-.0408.1518-.0594.2282-.0238.0018-.0456.0043-.0694.0018h-.0694l-.0937.2288c-.0519.1237-.1.2387-.1063.2562l-.0131.0307-.0456-.0744-.0456-.0738v-.6018l-.0175.0043c-.0375.0088-.3.0438-.415.0544-.4756.0474-.9551.0371-1.4282-.0306-.0476-.0082-.0955-.0141-.1437-.0175-.0019.0025 0 .1412.0044.3131l.0062.3088-.0362.0562c-.02.0306-.0394.0563-.0394.0588-.0063.0062-.0281-.0282-.0781-.1282-.0538-.1049-.0947-.2159-.1219-.3306l-.015-.0625-.0675.0044-.0675.0062-.0175-.0806c-.0095-.0489-.0175-.0981-.0238-.1475l-.0062-.0694-.0563-.05c-.0234-.0209-.0474-.0414-.0718-.0612-.0113-.0088-.0157-.0238-.0157-.0369v-.0262l.2719.0025.2719.0018.0081.0282.0088.0287.0937.0044.365.0106.2719.0063.0694-.1082.0718-.1087h.0913l-.0019-.2263-.0025-.2262-.1194-.0519c-.385-.1694-.6106-.3625-.6956-.5975-.0175-.0481-.0175-.0656-.0219-.2825-.0018-.2156-.0018-.235.0132-.2831.0147-.0532.043-.1017.0823-.1405.0393-.0388.088-.0667.1414-.0808.0375-.0112.135-.0112.6481-.0112l.6038.0025.0675.0325c.065.0267.1213.0711.1625.1281.0525.0694.0681.1238.0681.2563 0 .1893-.0131.3525-.0325.4175-.0288.0894-.0714.1737-.1262.25-.1088.1393-.3063.2781-.4875.3412l-.0519.0194.0025.2287.0019.2282.0481.0043.0475.0044.0656.0975.0625.0981h.2919c.1606 0 .3019.0019.315.0038.0219.005.0262.0025.0475-.0344l.0262-.0394h.25c.1938 0 .25.0025.25.0088-.0062-.0019-.035.1044-.0675.2262h.0007Z" fill="#fff"/><path d="M18.0437 14.1344c-.0044-.101-.011-.2019-.02-.3025-.0937-.9869-.3456-1.7932-.8237-2.6475-.0179-.0293-.0338-.0598-.0475-.0913-.0044-.0062-.0063-.0125-.0088-.0169.0675-.2025.3438-1.0481.5625-2.01495.2982-1.3125.4875-2.8475-.0906-3.30813 0 0-1-.07375-2.3387 1.23875-.3632.3625-.6957.75625-.9913 1.17563l-.0937-.03c-.538-.17615-1.0959-.28428-1.6607-.32188-.1693-.0125-.8018-.0125-1.0081 0-.6237.04125-1.1025.135-1.64561.32375-.01998.00791-.0402.0152-.06062.02188-.30638-.41842-.64895-.80909-1.02375-1.1675-1.39375-1.31875-2.43063-1.2425-2.43063-1.2425-.6125.47562-.40375 2.08-.0875 3.43625.15705.66547.34433 1.3234.56125 1.9719-.00705.0162-.01498.0321-.02375.0475-.50625 1.0262-.78062 2.015-.84562 3.0668.56687-.0825 2.13-.1762 3.30125 1.0844 0 0 .77378-2.0431 2.86058-2.0431 2.0863 0 2.5319 2.0437 2.5319 2.0437.4687-.3896 1.0097-.6829 1.5919-.8631.5823-.1801 1.1944-.2437 1.8012-.1869l-.0106-.1743h.0006Zm-10.79621-3.795s-.8125-2.03253-.60437-3.19378c.035-.195.1-.36687.2025-.49687 0 0 .92125.09125 2.40812 1.74312 0 0-.2825.13688-.66062.42813 0 0-.0025.00187-.00438.00187-.54177.41353-.9974.92904-1.34125 1.51753Zm3.45001 3.0187c-.0138.0263-.0788.0544-.1525.065-.0744.0113-.3.0044-.4281-.0106-.46128-.0613-.95003-.2025-1.30628-.3763-.2-.0975-.34375-.1956-.45-.3018l-.06125-.0632-.00625-.0825c-.01125-.1437-.00875-.3693.00875-.45.01129-.0671.03412-.1318.0675-.1912.01687-.0219.01687-.0219.09562-.0219.09563 0 .17563.015.30625.0563.2675.0831.665.2831 1.15.5743.39996.2388.54996.3563.66496.5169.0782.1.13.2413.1107.285h.0006Zm5.12-.7194c-.0063.035-.1081.1388-.2106.215-.3.2194-.8369.4238-1.3825.5219-.3107.0563-.6213.065-.715.0194-.0607-.0306-.0694-.0544-.0475-.1325.0456-.1625.1937-.3413.4237-.5088.1175-.085.5938-.3737.815-.4956.365-.2.6606-.3187.8606-.3475.0632-.0087.1394-.0112.1632 0 .0393.015.0825.1306.1.2694.0087.0737.0043.4-.0063.4587h-.0006ZM15.4569 8.82l-.0044-.0025c-.1989-.16263-.4128-.30599-.6388-.42813 1.4369-1.65187 2.325-1.74312 2.325-1.74312.0982.1325.1613.30187.1963.4975.2019 1.16062-.5825 3.19495-.5825 3.19495-.3293-.58546-.7693-1.10129-1.2956-1.5187Z" fill="#FFA409"/><path d="M17.3375 7.14376c-.17-.02125-.9719-.02563-1.8806 1.67625l-.0044-.0025c-.1989-.16263-.4127-.30599-.6387-.42813 1.4368-1.65187 2.325-1.74312 2.325-1.74312.1.1325.1637.30187.1981.4975h.0006Z" fill="#FF9300"/><path d="M16.7544 10.3393c-.3293-.58625-.7701-1.1024-1.2975-1.51942.9087-1.70187 1.7087-1.6975 1.88-1.67625.2025 1.16313-.5825 3.19567-.5825 3.19567Zm.615-3.18942-.0325-.00625.0325.00625Z" fill="#FF8300"/><path d="M9.25377 8.38938s-.2825.1375-.66063.42813c0 0-.0025.0025-.00437.0025-.94125-1.70438-1.77-1.6975-1.9475-1.67625.03437-.19563.1-.36688.20187-.4975.0025 0 .92375.09125 2.41063 1.74375v-.00063Z" fill="#FF9300"/><path d="M8.59064 8.81988c-.54285.41342-.99919.92944-1.34313 1.51872 0 0-.8125-2.03184-.60438-3.19497.17625-.02125 1.00625-.02562 1.94751 1.67625Z" fill="#FF8300"/><path d="m6.64376 7.14375-.035.00625.03438-.00625h.00062Z" fill="#FF8300"/><path d="M14.555 11.4674s-.6956.0431-.6088-.5c.0875-.5438.6307-.6088.7825-.5875.1525.0219.7607.2394.6525.6962-.1087.4563-.2612.3688-.3481.3913-.0869.0212-.4781 0-.4781 0Zm-5.13001 0s-.695.0431-.60813-.5c.0875-.5438.63-.6088.7825-.5875.15188.0219.76064.2394.65184.6962-.1087.4563-.26059.3688-.34746.3913-.0875.0212-.47813 0-.47813 0h-.00062Z" fill="#fff"/></svg>