<svg width="24" height="24" viewBox="0 0 24 24" fill="none" xmlns="http://www.w3.org/2000/svg"><path d="M5.92524 15.3056c.11015-.1053.25948-.1644.41517-.1644H20.7058c.2616 0 .3926.3028.2075.4798l-2.8385 2.7145c-.1102.1053-.2595.1645-.4152.1645H3.29425c-.26167 0-.39267-.3029-.20758-.4799l2.83857-2.7145Z" fill="url(#paint0_linear_8_109)"/><path d="M5.92524 5.1645c.11014-.10534.25947-.16451.41517-.1645H20.7058c.2616 0 .3926.30286.2075.4799l-2.8385 2.71448c-.1102.10531-.2595.16447-.4152.16447H3.29425c-.26167 0-.39267-.30286-.20758-.47987L5.92524 5.1645Z" fill="url(#paint1_linear_8_109)"/><path d="M18.0748 10.2028c-.1102-.1054-.2595-.1645-.4152-.1645H3.29425c-.26167 0-.39267.3028-.20758.4799l2.83857 2.7144c.11014.1054.25947.1645.41517.1645H20.7058c.2616 0 .3926-.3028.2075-.4799l-2.8385-2.7144Z" fill="url(#paint2_linear_8_109)"/><defs><linearGradient id="paint0_linear_8_109" x1="15.1691" y1="1.2969" x2="5.89575" y2="19.8561" gradientUnits="userSpaceOnUse"><stop stop-color="#00FFA3"/><stop offset="1" stop-color="#DC1FFF"/></linearGradient><linearGradient id="paint1_linear_8_109" x1="15.1691" y1="1.2969" x2="5.89575" y2="19.8561" gradientUnits="userSpaceOnUse"><stop stop-color="#00FFA3"/><stop offset="1" stop-color="#DC1FFF"/></linearGradient><linearGradient id="paint2_linear_8_109" x1="15.1691" y1="1.2969" x2="5.89575" y2="19.8561" gradientUnits="userSpaceOnUse"><stop stop-color="#00FFA3"/><stop offset="1" stop-color="#DC1FFF"/></linearGradient></defs></svg>