<svg width="24" height="24" viewBox="0 0 24 24" fill="none" xmlns="http://www.w3.org/2000/svg"><path d="M12 22c5.5228 0 10-4.4772 10-10 0-5.52285-4.4772-10-10-10C6.47715 2 2 6.47715 2 12c0 5.5228 4.47715 10 10 10Z" fill="#5546FF"/><path d="M16.0802 17.2692 13.9275 13.89h3.0914v-1.2766H6.88118V13.89h3.09136l-2.15269 3.3792h1.60201L11.95 13.3017l2.5282 3.9675h1.602Zm.9387-5.8949v-1.2766h-3.0288l2.1276-3.34164h-1.6145L11.95 10.7861 9.39682 6.75606H7.78231l2.12766 3.34164H6.88118v1.2891l10.13772-.0125Z" fill="#fff"/></svg>