<svg width="24" height="24" viewBox="0 0 24 24" fill="none" xmlns="http://www.w3.org/2000/svg"><path d="M12 22c5.5228 0 10-4.4772 10-10 0-5.52285-4.4772-10-10-10C6.47715 2 2 6.47715 2 12c0 5.5228 4.47715 10 10 10Z" fill="#01AEF0"/><path fill-rule="evenodd" clip-rule="evenodd" d="M15.1681 13.8062c-.0081 1.2962-.7569 2.4-1.9513 2.8531-.28.1063-.5712.1844-.8612.2569-.1731.0437-.2675.1294-.2813.3187-.0175.2388-.0418.4769-.075.7125-.04.2788-.1356.3425-.3918.2813-.4413-.105-.4888-.1763-.43-.6394.005-.0394.0106-.0787.015-.1187.0437-.3794-.01-.4338-.3732-.4157-.1631.0082-.2312.0888-.2468.2488-.0213.23-.0438.4606-.0813.6875-.0375.2325-.135.29-.3587.2412-.47754-.1031-.51254-.1562-.45004-.6612.07875-.6269.07687-.62-.50188-.7944-.25625-.0775-.505-.185-.75562-.2844-.1525-.06-.2025-.1737-.16125-.3431.0525-.2156.08875-.4362.13375-.6544.0775-.3718.2575-.4843.60125-.3493.60875.2393 1.23379.3868 1.88439.4025.5869.0143 1.1675-.0244 1.7031-.3125.3538-.1907.6138-.47.7444-.8707.1937-.595.02-1.0762-.5375-1.3156-.4594-.1969-.9525-.3062-1.4156-.495-.4113-.1675-.8388-.335-1.1938-.5981-.79812-.59-.93749-1.4625-.76249-2.39438.19875-1.05063.84189-1.73188 1.79629-2.09375.2543-.09563.3693-.22938.3737-.515.0038-.30938.0531-.61875.0906-.92688.0288-.23687.1213-.30312.3425-.26687.47.07687.5263.15125.48.63937-.0181.19063-.0337.38125-.0562.57063-.0188.15937.0319.2325.1987.2375.3807.01125.3969.00437.4419-.38938.0288-.25312.05-.50687.0844-.75937.0375-.28.1281-.34375.3862-.29125.4344.08937.4825.15562.44.60812-.0187.19813-.0281.39813-.0625.59375-.0393.225.0294.32938.2532.38125.4256.09875.8468.22375 1.265.35375.3143.0975.3268.13313.2662.46-.0356.19563-.0712.39188-.1175.585-.0862.36375-.2675.47188-.6137.35563-.5925-.2-1.1875-.38063-1.8157-.4075-.55-.02313-1.0925-.015-1.57.33062-.6725.48625-.6762 1.47496.0388 1.89126.455.265.9806.4 1.4737.595.3007.1187.6094.2212.8982.365.7737.3862 1.1618 1.0319 1.1531 1.9281" fill="#fff"/></svg>