<svg width="24" height="24" viewBox="0 0 24 24" fill="none" xmlns="http://www.w3.org/2000/svg"><path d="M12 22c5.5228 0 10-4.4772 10-10 0-5.52285-4.4772-10-10-10C6.47715 2 2 6.47715 2 12c0 5.5228 4.47715 10 10 10Z" fill="#5B6DEE"/><path d="M10.3125 11.3868c-.34869-.0018-.69681.0283-1.04.09.2825-2.61254 2.46-4.59129 5.0525-4.59129 1.5875 0 2.675.7775 2.675 2.38625 0 1.60934-1.3056 2.38684-3.21 2.38684-1.4063 0-2.0712-.2712-3.4775-.2712v-.0006Zm-.1025.9531c-1.90438 0-3.21.7781-3.21 2.3869 0 1.6087 1.0875 2.3862 2.675 2.3862 2.5925 0 4.77-1.9781 5.0525-4.5912-.3432.0616-.6913.0918-1.04.09-1.4062 0-2.0719-.2719-3.4775-.2719Z" fill="#fff"/></svg>