<svg width="24" height="24" viewBox="0 0 24 24" fill="none" xmlns="http://www.w3.org/2000/svg"><path d="M12.002 2C6.47807 2 2 6.47807 2 12.002c0 5.524 4.47807 10.0021 10.002 10.0021 5.524 0 10.0021-4.4781 10.0021-10.0021C22.0041 6.47807 17.526 2 12.002 2ZM9.50068 15.4579l-.09478.0948c-.19631.1963-.40617.3824-.6228.5551l-.25047.1963c-.01693.0135-.03723.0203-.05754.0203-.01693 0-.03385-.0034-.04739-.0135-.03385-.0204-.05077-.0576-.04062-.0982l.09816-.4434c.10831-.4806.08462-.985-.06769-1.4555l-.05416-.1624c-.06093-.1896-.13539-.3757-.21324-.5585l-1.15421-2.7248-.12524-.3723c-.03723-.1151-.06431-.2335-.07785-.3554l-.02031-.18616c-.05754-.52464.12185-1.03913.49418-1.41146l.09477-.09477c.19632-.19632.40618-.38248.6228-.5551l.25048-.19632c.03046-.0237.07108-.02708.10493-.00677.03384.02031.05077.05754.04061.09816l-.09815.4434c-.10832.48064-.08462.98497.06769 1.45546l.05416.16247c.06092.18959.13539.37569.21324.55849l1.15759 2.7247.12524.3724c.03723.1151.06431.2335.07785.3554l.02031.1861c.05416.5213-.12524 1.0392-.49756 1.4115Zm3.90602.8936-.1218.1218c-.2471.2471-.5111.4841-.7853.6973l-.3249.2572c-.017.0136-.0407.0203-.061.0203-.0169 0-.0372-.0067-.0541-.0169-.0373-.0237-.0542-.0643-.044-.1049l.1286-.572c.1354-.6093.1049-1.2456-.088-1.838l-.0677-.2064c-.0779-.2404-.1692-.4773-.2708-.7075l-1.4588-3.4355-.1557-.4671c-.0474-.14218-.0813-.29449-.0982-.44342l-.02707-.23694c-.07447-.65665.15227-1.29975.61607-1.77024l.1218-.12185c.2471-.24709.5111-.48403.7853-.69727l.3249-.25724c.0339-.02708.0779-.03046.1151-.00677.0372.02369.0542.06431.044.10493l-.1286.57203c-.1354.60926-.1049 1.2456.088 1.83793l.0677.20648c.0778.23693.1692.47725.2708.70741l1.4588 3.43895.1557.4671c.0474.1422.0812.2945.0982.4434l.027.2369c.0745.6567-.1523 1.3032-.616 1.7703Zm3.3306-.8936-.0947.0948c-.1964.1963-.4062.3824-.6228.5551l-.2505.1963c-.0169.0135-.0372.0203-.0575.0203-.017 0-.0339-.0034-.0474-.0135-.0339-.0204-.0508-.0576-.0407-.0982l.0982-.4434c.1083-.4806.0846-.985-.0677-1.4555l-.0541-.1624c-.061-.1896-.1354-.3757-.2133-.5585l-1.1576-2.7248-.1252-.3723c-.0373-.1151-.0643-.2335-.0779-.3554l-.0203-.18616c-.0575-.52464.1219-1.03913.4942-1.41146l.0948-.09477c.1963-.19632.4061-.38248.6228-.5551l.2504-.19632c.0305-.0237.0711-.02708.105-.00677.0338.02031.0507.05754.0406.09816l-.0982.4434c-.1083.48064-.0846.98497.0677 1.45546l.0542.16247c.0609.18959.1354.37569.2132.55849l1.1576 2.7247.1253.3724c.0372.1151.0643.2335.0778.3554l.0203.1861c.0576.5213-.1218 1.0392-.4942 1.4115Z" fill="#171FC9"/></svg>