<svg width="24" height="24" viewBox="0 0 24 24" fill="none" xmlns="http://www.w3.org/2000/svg"><path d="M19.1772 5.81433 16.769 7.04128 5.14013 12.9644c-.03933-.2999-.05911-.602-.05924-.9045.00159-1.2069.31846-2.39245.91921-3.4392.60076-1.04675 1.46455-1.9184 2.50583-2.5286 1.04128-.61019 2.22387-.93777 3.43077-.95028 1.2068-.0125 2.396.29049 3.4497.87898l1.3784-.70232.2056-.10492c-1.2627-.9165-2.7542-1.46602-4.3097-1.58784-1.5555-.12182-3.11441.1888-4.5044.89755-1.38999.70874-2.55696 1.788-3.37193 3.11849-.81497 1.3305-1.2462 2.86044-1.24604 4.42064 0 .2155.00818.4302.02454.644.02291.3027-.04424.6055-.19299.8702-.14876.2647-.37249.4795-.64302.6173L2 14.5645v1.7288l2.13996-1.0907.69301-.3537.68285-.3478L17.7751 8.25468l1.3775-.70147L22 6.10203V4.37416l-2.8228 1.44017ZM22 7.8316 6.21222 15.8702l-1.37756.7031L2 18.0178v1.727l2.8152-1.4343 2.40819-1.2269L18.8641 11.152c.0394.3019.0591.606.0592.9104-.0007 1.2083-.3175 2.3954-.9188 3.4434-.6014 1.0481-1.4664 1.9206-2.5091 2.531-1.0428.6104-2.2271.9374-3.4354.9486-1.2082.0112-2.39836-.2938-3.45228-.8847l-.08462.0448-1.49433.7616c1.26242.9165 2.75363 1.4662 4.30893 1.5883 1.5552.1221 3.1139-.1881 4.5039-.8964 1.39-.7082 2.5572-1.787 3.3725-3.117.8153-1.33 1.2471-2.8595 1.2476-4.4196 0-.2174-.0085-.4349-.0246-.6498-.0228-.3027.0442-.6054.1928-.87.1486-.2647.3721-.4795.6424-.61759L22 9.55439V7.8316Z" fill="#000"/></svg>