<svg width="24" height="24" viewBox="0 0 24 24" fill="none" xmlns="http://www.w3.org/2000/svg"><path d="M6.12681 4.05593 21.6632 14.6641l-3.8423 5.68L2.28447 9.65239l3.84234-5.59646Z" fill="url(#paint0_linear_9_14736)"/><path d="M21.6632 14.6641c-1.3364 1.9212-5.847 1.1694-10.107-1.8376-4.34351-2.92357-6.68233-6.84945-5.42939-8.77062C7.46328 2.13471 11.9739 2.88647 16.2338 5.89352c4.3436 2.84 6.6824 6.84938 5.4294 8.77058Z" fill="url(#paint1_linear_9_14736)"/><path d="M17.8209 20.2605c-1.3365 1.9212-5.847 1.1694-10.10703-1.8376-4.25999-3.0071-6.68234-6.8494-5.34587-8.85411 1.33646-1.92117 5.84704-1.16941 10.107 1.83761 4.26 3.0071 6.5988 6.933 5.3459 8.8541Z" fill="url(#paint2_linear_9_14736)"/><path d="m21.6632 14.6641-3.8423 5.68c-1.3365 1.9212-5.847 1.0859-10.10704-1.8376-.83529-.5847-1.58705-1.1694-2.33881-1.8377.5847-.0835 1.33646-.4176 2.08823-1.2529 1.33646-1.42 2.0047-1.7541 2.58942-1.6706.5847 0 1.2529.5847 2.3388 2.0047 1.0859 1.42 2.5894 1.8376 3.5082 1.0859.0836-.0836.1671-.0836.2506-.1671.7518-.5847 1.0024-.8353 2.4224-3.5082.3341-.6682 1.5035-1.7541 3.0905-1.2529.4177 1.0858.4177 2.0047 0 2.7564Z" fill="#0E0F23"/><path fill-rule="evenodd" clip-rule="evenodd" d="M21.0785 14.33c-1.1694 1.6706-5.2623.8353-9.1882-1.9212-4.00938-2.75643-6.3482-6.26466-5.17879-7.93525 1.16941-1.67058 5.26239-.83529 9.18819 1.92118 3.9259 2.75646 6.2647 6.26467 5.1788 7.93527Zm-3.6752-2.5059c-.5848.8353-2.5895.4177-4.5942-.9188-1.9211-1.33646-3.09053-3.09058-2.5058-3.92587.5847-.83529 2.5894-.41765 4.5941.91882 1.9211 1.33647 3.0906 3.09055 2.5059 3.92585Z" fill="#fff"/><path d="M5.79269 5.97709c0-.08353-.08353-.16706-.16706-.08353-.08352.08353-.16705.08353-.16705.16706.08353.25059.16705.41765.16705.58471 0 .08352.08353.16705.16706.08352.08353 0 .16706-.08352.08353-.16705 0-.16706 0-.33412-.08353-.58471ZM6.21034 7.31352c0-.08353-.08353-.16706-.16706-.08353s-.08353.08353-.08353.16706c.91882 2.08823 2.83999 4.34355 5.34585 6.01415.0836.0835.1671 0 .2506 0 .0835-.0836 0-.1671 0-.2506C8.9668 11.49 7.12916 9.31822 6.21034 7.31352ZM16.3174 15.4994c-.0836 0-.1671 0-.1671.0836 0 .0835 0 .167.0835.167.2506.0835.5847.1671.8353.2506.0836 0 .1671 0 .1671-.0835 0-.0836 0-.1671-.0835-.1671-.2506-.0835-.5847-.167-.8353-.2506ZM17.8209 15.8335c-.0835 0-.1671.0835-.1671.167 0 .0836.0836.1671.1671.1671.6682.0835 1.42.1671 2.0047.0835.0835 0 .1671-.0835.1671-.167 0-.0836-.0836-.1671-.1671-.1671-.6682.0835-1.3365 0-2.0047-.0835Z" fill="#fff"/><defs><linearGradient id="paint0_linear_9_14736" x1="9.17079" y1="2.54764" x2="12.2518" y2="13.1276" gradientUnits="userSpaceOnUse"><stop stop-color="#03B8FF"/><stop offset="1" stop-color="#FA52A0"/></linearGradient><linearGradient id="paint1_linear_9_14736" x1="11.7081" y1="1.80861" x2="14.7892" y2="12.3887" gradientUnits="userSpaceOnUse"><stop stop-color="#03B8FF"/><stop offset="1" stop-color="#FA52A0"/></linearGradient><linearGradient id="paint2_linear_9_14736" x1="6.64135" y1="3.28413" x2="9.72249" y2="13.8642" gradientUnits="userSpaceOnUse"><stop stop-color="#03B8FF"/><stop offset="1" stop-color="#FA52A0"/></linearGradient></defs></svg>