<svg width="24" height="24" viewBox="0 0 24 24" fill="none" xmlns="http://www.w3.org/2000/svg"><path fill-rule="evenodd" clip-rule="evenodd" d="M7.44717 10.2455c-.16645-.1653-.26007-.39016-.26007-.62474 0-.23459.09362-.45947.26007-.62477l4.96653-4.97702c.3485-.34162.9062-.34162 1.2548 0 .3416.34851.3416.90628 0 1.2548L8.6967 10.2455c-.16529.1665-.39018.2601-.62476.2601-.23459 0-.45947-.0936-.62477-.2601ZM16.4204 13.625c.1668.1662.2606.392.2606.6274 0 .2355-.0938.4612-.2606.6274l-4.9664 4.9718c-.2211.2344-.552.3302-.8641.2503-.3121-.0799-.5562-.323-.63741-.6348-.08123-.3117.01323-.643.24671-.865l4.9717-4.9771c.3456-.3438.904-.3438 1.2495 0Zm-9.29496 1.0545c-.34161-.3485-.34161-.9063 0-1.2548l3.16336-3.1634c.1653-.1664.3902-.26.6248-.26.2346 0 .4594.0936.6247.26.3417.3486.3417.9063 0 1.2548l-3.16333 3.1634c-.34554.3438-.90398.3438-1.24953 0Z" fill="#242328"/><path fill-rule="evenodd" clip-rule="evenodd" d="M16.7421 9.18592c.3438.34555.3438.90398 0 1.24948l-3.1634 3.1634c-.222.2335-.5533.3279-.8651.2467-.3117-.0812-.5548-.3253-.6347-.6374-.0799-.3121.0159-.643.2503-.8641l3.1634-3.16335c.1653-.16646.3901-.26007.6247-.26007.2346 0 .4595.09361.6248.26007" fill="#A573FF"/></svg>