<svg width="24" height="24" viewBox="0 0 24 24" fill="none" xmlns="http://www.w3.org/2000/svg"><path d="M17.373 8.55587c-2.9055 0-5.3012 2.33203-7.46757 4.26903-.62442-.548-1.3253-1.2234-1.86052-1.8605-.05097-.0638-.12743-.0765-.16566-.051-.05097.0382-.06372.1147-.01274.1656.49698.6117 1.15964 1.3508 1.78406 1.9753-1.15964 1.0959-2.93096 2.4212-4.35821 2.4212-2.87998 0-2.89272-3.9887-.36955-4.7405.11469-.0255.11469-.1657 0-.1275-3.30051.8156-3.12211 5.4669.43327 5.4669 1.69486 0 3.24954-1.1341 4.81692-2.4722 1.6949 1.5292 3.8358 2.778 6.5883 2.778 6.9833 0 6.7795-7.82433.6117-7.82433Zm-.6627 7.22543c-2.2045-.0127-4.3454-.9812-6.2187-2.4467 2.1282-1.8478 4.2818-3.96316 6.8177-3.96316 4.9444 0 5.0718 6.44806-.599 6.40986Z" fill="#333"/><path d="M6.42654 10.9134c.39413 0 .71363-.3195.71363-.7136 0-.39414-.3195-.71364-.71363-.71364s-.71363.3195-.71363.71364c0 .3941.3195.7136.71363.7136Z" fill="#333"/></svg>