<svg width="24" height="24" viewBox="0 0 24 24" fill="none" xmlns="http://www.w3.org/2000/svg"><path d="M11.9973 3.02409c3.0855 0 5.9962.94011 8.6779 2.47683l.1989.09039-.0603.21092c-.006 3.0192-.8256 5.97817-2.3683 8.56947-1.4946 2.6516-3.6701 4.8632-6.3036 6.4l-.1446.1024-.1567-.1085c-2.66363-1.5427-4.68245-3.7182-6.21314-6.3879-1.53069-2.6636-2.45272-5.62859-2.45272-8.70805l-.02411-.14463.10245-.08437c2.66967-1.53671 5.65271-2.43464 8.73822-2.43464" fill="#8D33E5"/><path d="M20.7716 5.41656c-2.6636-1.54877-5.6888-2.37438-8.7743-2.38643V20.7717l.1988.1205c2.6577-1.5488 4.8573-3.7665 6.3819-6.4301 1.5488-2.6516 2.3684-5.65874 2.3744-8.72615v-.21694l-.1808-.10245Z" fill="#7000DF"/><path d="M20.9826 5.6998v-.23503l-.1989-.1145C18.108 3.81356 15.0768 3 11.9913 3c-3.08549 0-6.11674.81356-8.7864 2.35027L3 5.46477v.23503c.01205 3.08548.82561 6.1107 2.36835 8.7743 1.54274 2.6697 3.76043 4.8814 6.43015 6.4241l.1988.1145.1989-.1145c2.6697-1.5367 4.8873-3.7544 6.4301-6.418 1.5488-2.6697 2.3683-5.69492 2.3744-8.7804h-.0181Zm-8.9973 14.421C6.80865 17.0956 3.49416 11.684 3.458 5.68775c2.60941-1.4644 5.54423-2.23577 8.5393-2.23577 2.9951 0 5.9299.77137 8.5393 2.23577-.0301 6.00825-3.3506 11.40785-8.5393 14.42705l-.012.006Z" fill="#7000DF"/><path d="M11.9973 20.1148C6.80865 17.0956 3.49416 11.684 3.458 5.68775c2.60941-1.4644 5.55026-2.23577 8.5393-2.23577V3c-3.08546 0-6.12274.80753-8.79843 2.35027L3 5.46477v.23503c.00603 3.08548.82561 6.1107 2.36835 8.7743 1.54274 2.6697 3.76043 4.8814 6.43015 6.4241l.1988.1145v-.8979Z" fill="#8D33E5"/><path d="M17.65 8.6045c0-.06629-.012-.13861-.0361-.19887-.1989-.57853-.5002-1.1209-.8799-1.59698-.0904-.12655-.1988-.24105-.2953-.36158l-.0783-.0904c-.0301-.03615-.0723-.06629-.1145-.09039-.0844-.04821-.1748-.07232-.2712-.07232-.0482.00603-.0904.01205-.1386.03013-.0241.00603-.0422.01206-.0603.02411 0 0-3.2723 1.77174-3.7845 2.0369-.5062-.26516-3.76044-2.04895-3.83878-2.05498-.04219-.01808-.0904-.02411-.13861-.03013-.09642 0-.19284.0241-.27118.07231-.04219.02411-.07834.05424-.10848.0904l-.07834.09039c-.10245.1145-.19887.22901-.29529.36158-.36158.46403-.65687.97627-.86779 1.52467-.04219.08437-.06026.17476-.06026.26516 0 .09039.01807.18681.05423.26516.03616.08436.09642.15668.16874.21694.01205.01206.02411.02411.04218.03014l.04219.03013.06026.04218.51827.3194 1.02447.63875 1.02448.6449.84971.5122.0121 3.5977V15.6131c.006.0663.0241.1386.0482.1989.0542.1205.1325.223.235.3013.1024.0784.223.1326.3495.1627.1266.0302.2592.0603.3917.0784.5545.0783 1.1089.0783 1.6633 0 .1989-.0302.2471-.0422.3797-.0723.1325-.0302.2531-.0844.3555-.1688.1025-.0783.1868-.1808.235-.3013.0241-.0663.0422-.1326.0483-.1989v-.1145s.0421-3.2482.0301-4.1883l.8437-.5122 1.0486-.6509 1.0305-.64478.5122-.31939c.1085-.05424.1989-.13258.2591-.23503.0603-.10848.0965-.22298.0904-.3435Z" fill="#3F017F"/><path d="M10.5088 11.0993c0-.3013-.0663-.6026-.1989-.8798-.1326-.27119-.32541-.51224-.56044-.69906-.67495-.53635-1.72353-.72919-2.74198-.51224-.06629.01205-.25311-.10245-.3194-.1145 0 0-.01808-.01205.01808.01808.03616.03013.03013.06026.03616.06629l3.76048 2.15743v-.0362h.006Z" fill="#F4A900"/><path d="M13.7992 8.73705c.8015-.31337 1.4946-1.1209 1.8139-2.10922.0242-.07231.1507-.09039.1989-.1386.0181-.01205-.0422-.07834-.0241-.0904l-3.7966 2.18756.0482.02411c.2652.15066.5545.24708.8618.26516.3013.0241.6087-.02411.8919-.13861h.006Z" fill="#78B6E4"/><path d="M13.4195 11.2019c-.2591.1506-.4821.3615-.6508.6146-.1687.2532-.2712.5364-.3134.8377-.1205.8497.2351 1.8501.9341 2.6094.0543.0542.0482.1627.0603.235 0 .0181.0241.0181.0422.0302l.018-4.3691-.0904.0422Z" fill="#20B5AC"/><path d="M12.6361 12.8108c.0542-.3013.1747-.5785.3495-.8256.1748-.247.4098-.4459.6749-.5905l-.1566-.2411-.0844.0542c-.2591.1507-.4821.3616-.6509.6147-.1687.2531-.2711.5364-.3133.8377-.1025.7412.1567 1.609.699 2.3262-.4037-.6509-.5906-1.4102-.5182-2.1756ZM13.8354 8.51404c-.2833.10245-.5906.13861-.8919.10848-.3013-.03014-.5906-.13258-.8497-.2953l-.1386.25311.0843.05424c.2592.15066.5545.24105.8558.25913.3013.02411.6026-.02411.8798-.13861.7955-.36158 1.4343-.99434 1.8019-1.78982 0-.01205-.0542-.07834-.1085.04219-.3616.66892-.9341 1.19924-1.6331 1.50658ZM9.53253 9.65306c.22297.18079.40376.41584.51827.68094.1145.2652.1627.5545.1446.8437l.2893.0904.0904-.0964c.0181-.6026-.2471-1.36798-.72318-1.75969-.55442-.47005-1.72353-.62674-2.50695-.50621-.03014 0-.04219.04821.16271.04218.73521-.01205 1.45234.23503 2.02485.70508Z" fill="#3F017F"/><path d="M11.9973 16.0289c-.4038 0-.8075-.0542-1.1992-.1566-.0844-.0242-.1567-.0724-.2049-.1387-.0543-.0662-.0844-.1506-.0844-.235v-4.3992c0-.3013-.0663-.6026-.1928-.8738-.1266-.27121-.31945-.51226-.55447-.69908-.67495-.53635-1.72354-.72919-2.74199-.51224-.04821.01205-.10244.01205-.15668.00603-.05424-.00603-.10245-.03014-.14463-.05424-.0904-.05424-.15669-.14463-.18079-.24708-.01808-.07834-.01206-.15669.01808-.229.12655-.36158.28926-.71714.47608-1.05461.19887-.34953.43992-.67495.72918-.95819.06027-.06026.14464-.09642.229-.10847.08437-.01205.17477.00602.24708.04821l3.70624 2.13332.0964.06027c.2651.15065.5544.24707.8617.26515.3014.02411.6087-.0241.8859-.14463.8015-.31337 1.4946-1.1209 1.8139-2.10922.0181-.04821.0422-.09642.0724-.1386.0361-.04219.0783-.07232.1265-.09642.0482-.02411.0964-.04219.1507-.04821.0542-.00603.1084 0 .1567.01808.0723.0241.1386.06629.1868.12655.2531.29529.4761.60866.6749.94613.2049.34953.3616.72316.4641 1.11488.018.08436.012.17476-.0181.2531-.0362.07834-.0904.14463-.1688.18682l-3.7303 2.15145-.1024.0602c-.2591.1507-.4821.3616-.6448.6147-.1627.2531-.2772.5363-.3134.8316-.1205.8497.235 1.8501.9341 2.6094.0482.0543.0844.1206.0964.1869.0121.0723.0121.1446-.012.2109-.0242.0663-.0663.1265-.1206.1747-.0602.0483-.1265.0784-.1988.0904-.3857.0724-.7714.1085-1.1571.1145Z" fill="#fff"/></svg>