<svg width="24" height="24" viewBox="0 0 24 24" fill="none" xmlns="http://www.w3.org/2000/svg"><g clip-path="url(#clip0_117_821)"><path d="M11.9989 21.9978c5.5223 0 9.9989-4.4766 9.9989-9.9989C21.9978 6.47667 17.5212 2 11.9989 2 6.47667 2 2 6.47667 2 11.9989c0 5.5223 4.47667 9.9989 9.9989 9.9989Z" fill="url(#paint0_linear_117_821)"/><path d="M8.70522 9.51292c-.07993-.09922-.20119-.15434-.33073-.15434h-2.6706c-.02205 0-.04134-.00827-.05788-.02205-.01378-.01378-.02205-.03031-.02205-.04961V7.48723c0-.01929.00827-.03583.02205-.04961.01654-.01653.03583-.0248.05788-.02205h2.82219c.71105 0 1.32565.29214 1.84382.87367l.6862.83783-1.33666 1.62883-1.01422-1.24298Zm4.93328-1.23195c.5154-.57601 1.1328-.8654 1.8521-.8654h2.8139c.0193-.00275.0386.00552.0524.01654.0138.01378.0193.03307.0165.05512v1.79969c0 .0193-.0055.03583-.0165.04961-.0138.01654-.0331.02481-.0524.02205h-2.6706c-.1268-.00275-.248.05512-.3307.15434l-1.9678 2.39498 1.9761 2.4116c.0799.0909.1984.146.3197.1433h2.6706c.0193-.0028.0413.0082.0523.022.011.0166.0193.0386.0166.0579v1.7997c0 .0193-.0056.0358-.0166.0496-.0138.0165-.033.0248-.0523.022h-2.8112c-.7193 0-1.3312-.2921-1.8438-.8736l-1.6371-1.9981-1.6371 1.9981c-.51536.5815-1.13271.8736-1.85204.8736H5.70389c-.01929.0028-.04134-.0082-.05237-.022-.01378-.0165-.01929-.0386-.01653-.0579v-1.7997c0-.0193.00551-.0358.01653-.0496.01378-.0165.03308-.0248.05237-.022h2.6706c.12678 0 .24805-.0579.33073-.1544l1.93198-2.3591 3.0013-3.66833Z" fill="#00D1FF"/></g><defs><linearGradient id="paint0_linear_117_821" x1="12.0003" y1="1.99994" x2="12.0003" y2="7.29154" gradientUnits="userSpaceOnUse"><stop stop-color="#090220"/><stop offset="1" stop-color="#170659"/></linearGradient><clipPath id="clip0_117_821"><path fill="#fff" d="M2 2h20v20H2z"/></clipPath></defs></svg>