<svg width="24" height="24" viewBox="0 0 24 24" fill="none" xmlns="http://www.w3.org/2000/svg"><g clip-path="url(#clip0_117_819)" fill-rule="evenodd" clip-rule="evenodd" fill="#008DD0"><path d="M19.9829 9.20162c-.9828-.93324-2.3705-1.71065-4.1712-2.20426h-.0104c-4.2847-1.17004-5.81129 1.59748-2.3419 3.34204 3.9387 1.978 4.486 5.2173 2.263 7.2431-.5664.5154-2.4069 1.48-4.1 1.7115-2.68883.3744-5.67255-.1993-8.09768-.9724 1.31902 1.0284 2.82638 1.7867 4.43654 2.2321 3.78084 1.0447 8.34744.2751 11.37364-2.3653 3.0479-2.663 3.3394-6.4378.648-8.98678Zm-4.1694-2.20339.039.01132-.039-.01132Z"/><path d="M7.57507 2.95874c2.08679-.85371 4.36023-1.14308 6.59323-.83924 2.2331.30384 4.3476 1.19026 6.1327 2.57079-4.5277-1.44513-8.0405-1.31977-10.34503-.38914l-.03383.01393c-2.8458 1.16829-3.83199 3.55972-2.5934 5.72222.667 1.1657 1.84314 2.0371 3.03576 2.6352 3.1537 1.5853 2.184 4.0133-1.23079 3.5693-.37899-.0508-.75401-.1278-1.12236-.2307C1.3058 14.1733.324818 8.45808 4.48987 4.82349c.91944-.78736 1.96179-1.41737 3.0852-1.86475Z"/></g><defs><clipPath id="clip0_117_819"><path fill="#fff" d="M2 2h19.8261v19H2z"/></clipPath></defs></svg>