<svg width="24" height="24" viewBox="0 0 24 24" fill="none" xmlns="http://www.w3.org/2000/svg"><circle cx="12" cy="12" r="10" fill="#302C2C"/><path fill-rule="evenodd" clip-rule="evenodd" d="M18.7767 11.8915c-.0345-.07-.0802-.134-.1352-.1893-1.1959-1.359-3.6298-4.03554-3.6298-4.03554L11.92 11.0599 8.78882 7.69884S6.32658 10.3987 5.11999 11.7723c-.15719.1552-.15719.4353-.01635.6006.62688.7168 3.70592 4.1239 3.70592 4.1239l3.10604-3.4159L15.0004 16.5l3.7203-4.1302s.0786-.082.0956-.1369c.0365-.1136.0101-.2373-.0396-.3414Zm-11.94146.378c-.1006-.1193-.06665-.3067.02704-.4196.3936-.4499 1.96865-2.14525 1.96865-2.14525l2.19437 2.33765-2.19814 2.4128s-1.34555-1.4411-1.99192-2.1856Zm9.89166.3035c.0608-.0693.1147-.1443.161-.224l-.0006-.0007c.0685-.1394.1018-.3072.0496-.458-.0199-.0624-.0612-.112-.102-.1608-.0095-.0114-.019-.0227-.0281-.0342-.5716-.6972-1.819-1.9938-1.819-1.9938l-2.1655 2.3818 2.2007 2.3478 1.7039-1.8581Z" fill="#fff"/></svg>