<svg width="24" height="24" viewBox="0 0 24 24" fill="none" xmlns="http://www.w3.org/2000/svg"><path d="M21.9817 19.7166v-.01c.0004-.0044.0004-.0088 0-.0132L12.2221 3.63568l-.0132-.0199c-.0182-.02801-.0417-.05217-.0692-.07109-.0275-.01892-.0584-.03223-.0911-.03916-.0326-.00693-.0663-.00735-.0991-.00123-.0329.00612-.0641.01865-.0921.03688-.0298.01858-.0557.0428-.0763.07129l-.0132.02155c-.6543 1.0809-1.313 2.15904-1.97614 3.23442-.06547.09416-.10055.2061-.10055.32079 0 .11468.03508.22662.10055.32079.87644 1.42573 1.75014 2.85198 2.62104 4.27888.0711.1018.1092.2231.1092.3473s-.0381.2454-.1092.3473c-1.4357 2.3607-2.95261 4.8425-4.40155 7.2132-.03181.0598-.03868.1298-.01911.1947.01956.0649.06397.1195.12356.1518.03668.0197.07771.03.11936.0298h4.20924c.0462.0003.0917-.012.1314-.0357.0398-.0237.0723-.0578.094-.0986l.1443-.242 1.9512-3.2062c.016-.0296.0376-.0557.0638-.0768.0261-.0211.0561-.0368.0883-.0462.0323-.0094.0661-.0123.0994-.0086.0334.0038.0657.0141.095.0304.0355.0187.0657.0461.0879.0796l1.933 3.1499.1791.2934c.0221.04.0545.0734.0938.0967.0394.0233.0842.0357.13.0359h.1177c.0198.0017.0398.0017.0596 0h4.0319c.0674 0 .1321-.0266.1799-.0742.0478-.0475.0749-.112.0754-.1794-.0024-.0257-.0085-.0508-.0183-.0746Z" fill="#000"/><path d="m10.7616 12.6426.1409-.2321c.0582-.0834.0893-.1826.0893-.2843 0-.1017-.0311-.2009-.0893-.2843l-.8654-1.4025-.99465-1.60313c-.01747-.02869-.04047-.05363-.06767-.07336-.02719-.01973-.05803-.03386-.09073-.04157-.03269-.00771-.0666-.00885-.09974-.00335-.03314.0055-.06486.01753-.09332.03539-.03826.02282-.06973.05544-.09118.09449L2.02985 19.6983c-.03173.0596-.03855.1294-.01898.194.01958.0646.06395.1189.12343.1509.03676.0212.07858.0321.12102.0315h3.85941c.04577-.0001.09069-.0124.13007-.0357.03937-.0233.07175-.0568.09374-.097l.14755-.2453c.00665-.009.01274-.0184.01823-.0282l.16579-.2653c1.37433-2.2795 2.69065-4.4562 4.06829-6.7241.0085-.0116.0163-.0238.0232-.0365Z" fill="#000"/></svg>