<svg width="24" height="24" viewBox="0 0 24 24" fill="none" xmlns="http://www.w3.org/2000/svg"><path fill-rule="evenodd" clip-rule="evenodd" d="M10.8364 17.9417c.5307 2.0244 2.4354 3.5692 3.3969 3.5059.0335-.0023 3.6485-.6969 5.6271-4.1052 1.5403-2.6519 1.0157-5.2124-1.0789-5.268-.7533.0564-8.9569 2.0099-7.9451 5.8673Zm1.8193-15.24207c-1.3641 0-2.65878.29279-3.82995.81509-.20492.08589-.40454.18392-.59779.29356-.13267.07091-.26535.14106-.39344.21731l.0305.00991c-.38811.26916-.72208.58254-.99581.94548C4.1601 8.56772 13.2398 11.1747 18.0938 11.1838c2.234 1.6066 2.8608-4.52459.6786-6.22645-1.7026-1.46107-3.8732-2.26226-6.1167-2.25772Z" fill="#0E3CA5"/><path fill-rule="evenodd" clip-rule="evenodd" d="M9.2435 4.80261C8.0159 6.60589 3.92593 7.87695 3.25342 7.6787l-.00305-.00762.08387-.16241c.70268-1.31849 1.70056-2.45676 2.91574-3.32596.25162-.18071.51239-.34922.78155-.50629.5711-.32406 1.15822-.34388 1.35113-.35151 1.82084.03355.86999 1.46321.86008 1.4777" fill="#5493F7"/><mask id="mask0_8_101" style="mask-type:alpha" maskUnits="userSpaceOnUse" x="2" y="8" width="7" height="14"><path d="M2 8.94942h6.25009V21.4488H2V8.94942Z" fill="#fff"/></mask><g mask="url(#mask0_8_101)"><path fill-rule="evenodd" clip-rule="evenodd" d="M8.21348 18.3158c.0915.5924-.00229 2.934-.12581 3.1315-.10523.0061-.32635.0198-.96455-.334-1.23833-.6976-2.31657-1.6473-3.16508-2.7876-.62071-.8353-1.10696-1.7625-1.44109-2.748-.34397-1.0195-.5186-2.0884-.51697-3.1643-.0019-1.1828.20938-2.3562.62372-3.46398h.00152c.73199.95997 1.57835 1.82848 2.29737 2.79828.68547.9226 1.62791 2.427 1.81929 2.7488 1.191 1.9954 1.38086 3.2268 1.4716 3.8193Z" fill="#5493F7"/></g><path fill-rule="evenodd" clip-rule="evenodd" d="M22 12.5243c0 1.2802-.244 2.504-.6854 3.6264-1.159 1.2504-8.976-1.827-9.053-1.8605-1.069-.4697-4.32332-1.9001-4.61688-4.1464C7.22231 6.91238 13.7583 4.66 16.6306 4.5746c.3439.00381 1.3923.01601 2.0031.51468 1.059.92723 1.9074 2.07039 2.488 3.35266s.8801 2.67396.8783 4.08156v.0008Zm-6.8356 7.9931c.4674-1.6546 4.5543-3.3504 5.4563-3.4419.1113-.0114.1586.0671.1098.1571-.9409 1.711-2.334 3.1201-4.0198 4.0336-.8525.4132-1.7903.1121-1.5463-.7488Z" fill="#5493F7"/></svg>