<svg width="24" height="24" viewBox="0 0 24 24" fill="none" xmlns="http://www.w3.org/2000/svg"><path fill-rule="evenodd" clip-rule="evenodd" d="M5.66461 3.38854 2.01636 11.0501c-.01459.0278-.01961.0596-.0143.0905.00532.0309.02069.0592.04372.0805l9.84822 9.4416c.0283.0255.0651.0397.1033.0397.0381 0 .0749-.0142.1032-.0397l9.8541-9.4416c.0228-.0215.038-.0497.0433-.0806.0053-.0308.0004-.0625-.0139-.0904l-3.6482-7.66156c-.0097-.02664-.0276-.04955-.051-.06546-.0235-.0159-.0514-.02399-.0798-.02311H5.79404c-.02796.00076-.05513.00951-.07829.0252-.02317.0157-.04136.03768-.05244.06337h.0013Z" fill="url(#paint0_linear_13_351)"/><path fill-rule="evenodd" clip-rule="evenodd" d="M13.2677 11.834c-.0706.0059-.436.0294-1.2495.0294-.6482 0-1.1081-.0177-1.2731-.0294-2.50463-.1118-4.37289-.5481-4.37289-1.0668 0-.5187 1.86826-.96065 4.37289-1.07243V11.398c.1634.0117.6308.0412 1.2789.0412.7779 0 1.1669-.0353 1.2378-.0412V9.69477c2.4987.11178 4.367.54813 4.367 1.06653s-1.863.9609-4.3611 1.0727Zm0-2.31017V7.99714h3.4891v-2.3278H7.25633v2.3278h3.48877v1.52669c-2.83475.13074-4.96807.68937-4.96807 1.36717 0 .6779 2.13332 1.2319 4.96807 1.3672v4.886h2.5226v-4.886c2.8288-.1307 4.9566-.6896 4.9566-1.3613s-2.1278-1.24364-4.9566-1.37274v-.00033Z" fill="#fff"/><defs><linearGradient id="paint0_linear_13_351" x1="1.6835" y1="11.6957" x2="21.0819" y2="11.6957" gradientUnits="userSpaceOnUse"><stop stop-color="#D8B35D"/><stop offset="1" stop-color="#F5E7BF"/></linearGradient></defs></svg>