<svg width="24" height="24" viewBox="0 0 24 24" fill="none" xmlns="http://www.w3.org/2000/svg"><path d="M13.7322 21.9c-1.436 0-2.48-.344-3.14-1.032-.65601-.688-.98401-1.428-.98401-2.224 0-.292.05601-.536.172-.732.112-.196.27601-.36.46801-.468.2-.116.444-.172.732-.172.292 0 .536.056.732.172.2.116.356.272.468.468.116.2.172.444.172.732 0 .352-.084.636-.252.86-.168.22-.368.368-.596.436.2.276.512.468.94.584.428.124.856.184 1.284.184.596 0 1.132-.16 1.616-.48.48-.32.836-.796 1.064-1.42.228-.628.344-1.336.344-2.132 0-.864-.128-1.6-.38-2.212-.244-.62-.608-1.076-1.088-1.376-.468-.292-1.008-.448-1.556-.448-.368 0-.824.152-1.376.46l-1.008.504V13.1l4.536-6.048H9.60819v6.276c0 .52.11601.948.344 1.284.22801.336.58001.504 1.05601.504.368 0 .716-.124 1.052-.368.34-.248.632-.548.872-.892.032-.068.068-.12.116-.148.04-.036.096-.056.148-.056.084 0 .184.04.296.128.108.12.16.264.16.424-.012.108-.032.216-.056.32-.26.58-.62 1.024-1.076 1.328-.448.3-.972.46-1.512.46-1.36001 0-2.30001-.268-2.82001-.8-.51999-.536-.77999-1.26-.77999-2.176v-6.28h-3.208V5.888h3.208v-2.66l-.732-.732V1.9h2.132l.79999.412v3.572l8.29201-.02.824.824-5.084 5.084c.308-.124.632-.2.964-.228.548 0 1.168.176 1.856.528.696.344 1.228.816 1.604 1.42.376.596.616 1.168.72 1.72.116.552.172 1.04.172 1.468 0 .976-.208 1.888-.62 2.728-.412.84-1.04 1.464-1.88 1.88-.84.404-1.748.612-2.724.612Z" fill="#2C7DF7"/></svg>