<svg width="24" height="24" viewBox="0 0 24 24" fill="none" xmlns="http://www.w3.org/2000/svg"><path d="M2 2h20v20H2V2Z" fill="#1B1F2B"/><path d="M8.70015 6.30029h6.59995V17.7003H8.70015V6.30029Z" fill="#1B1F2B"/><path fill-rule="evenodd" clip-rule="evenodd" d="m8.07146 6.30018.62868-.62868h6.59996l.6287.62868V17.7002l-.6287.6287H8.70014l-.62868-.6287V6.30018Zm1.25736.62868V17.0715h5.34268V6.92886H9.32882Z" fill="url(#paint0_linear_111_754)"/><path d="M14.0001 13.8h-1.3667v1.4319h-1.2333V13.8h-1.3667v-1.2332h3.9667V13.8Zm0-3.5334h-1.3667V8.83469h-1.2333v1.43191h-1.3667v1.2332h3.9667v-1.2332Z" fill="url(#paint1_linear_111_754)"/><defs><linearGradient id="paint0_linear_111_754" x1="7.18559" y1="7.18563" x2="16.8142" y2="16.8143" gradientUnits="userSpaceOnUse"><stop stop-color="#2AB8E6"/><stop offset=".53" stop-color="#29CAD2"/><stop offset="1" stop-color="#2EE4BE"/></linearGradient><linearGradient id="paint1_linear_111_754" x1="706.393" y1="1134.17" x2="1179.88" y2="1427.77" gradientUnits="userSpaceOnUse"><stop stop-color="#2AB8E6"/><stop offset=".53" stop-color="#29CAD2"/><stop offset="1" stop-color="#2EE4BE"/></linearGradient></defs></svg>