<svg width="24" height="24" viewBox="0 0 24 24" fill="none" xmlns="http://www.w3.org/2000/svg"><path d="M12 2c5.522 0 10 4.478 10 10s-4.478 10-10 10S2 17.522 2 12 6.478 2 12 2Z" fill="url(#paint0_linear_120_1076)"/><path d="M15.84 8.94001c-.126.15-.118.482-.32.38 0 0-1.406-.538-.54-2.12.234-.366.476-.39.44-1.28.216.328.924.986.98 2.02.056.69-.356.782-.56 1Z" fill="#fff"/><path d="M14.72 11.4c.346-.116.906-.3.94-1.48001.534.81801 2.346 1.96601 1.48 5.48001-.352 1.37-1.664 2.036-2.9 2.54-.772.328-1.56.876-1.88 1.7 0 0-5.84199-.738-5.65999-6.54.146-3.01 2.966-4.16001 4.15999-6.36001.636-1.388.42-2.78.42-2.78s3.72 2.314 2.04 5.88C12.774 11.1 14.078 11.526 14.72 11.4Z" fill="#fff"/><path d="M8.98001 12.44v1.94H11.04v2.06h1.94v-2.06h2.06v-1.94H8.98001Z" fill="url(#paint1_linear_120_1076)"/><defs><linearGradient id="paint0_linear_120_1076" x1="2" y1="12" x2="22" y2="12" gradientUnits="userSpaceOnUse"><stop stop-color="#FFA50D"/><stop offset="1" stop-color="#FE5413"/></linearGradient><linearGradient id="paint1_linear_120_1076" x1="8.98001" y1="14.44" x2="15.04" y2="14.44" gradientUnits="userSpaceOnUse"><stop stop-color="#FFA50D"/><stop offset="1" stop-color="#FE5413"/></linearGradient></defs></svg>