<svg width="24" height="24" viewBox="0 0 24 24" fill="none" xmlns="http://www.w3.org/2000/svg"><g clip-path="url(#clip0_113_582)"><path d="M12 22C6.5 22 2 17.5 2 12S6.5 2 12 2s10 4.5 10 10-4.5 10-10 10Z" fill="#002868"/><path d="M17.04 18H6.96c-.528 0-.96-.432-.96-.96V6.96c0-.528.432-.96.96-.96h10.08c.528 0 .96.432.96.96v10.08c0 .528-.432.96-.96.96Z" fill="#fff"/><path d="M8.34159 16.792c-.0316 0-.05719-.0288-.05719-.0604v-1.6124c0-.0316-.02561-.0604-.05721-.0604h-.5692c-.032 0-.06039-.0256-.06039-.0572V14.69c0-.0316.02879-.0604.06039-.0604h1.752c.0316 0 .0604.0284.0604.0604v.3116c0 .0316-.0288.0572-.0604.0572H8.844c-.0316 0-.06041.0284-.06041.0604v1.6124c0 .0316-.02559.0604-.05719.0604h-.38481ZM11.2192 14.69c0-.0316.0256-.0604.0572-.0604h.3816c.0316 0 .0604.0284.0604.0604v1.1004c0 .652-.3688 1.0304-.954 1.0304-.582 0-.9476-.3784-.9476-1.0304V14.69c0-.0316.0256-.0604.0572-.0604h.3816c.0316 0 .0604.0284.0604.0604v1.116c0 .3212.1652.55.4516.55s.4516-.2288.4516-.55V14.69ZM13.4708 15.3356c-.0508 0-.0668-.0192-.086-.0572-.0668-.156-.2132-.2544-.4356-.2544-.2004 0-.3688.07-.3688.2036 0 .1464.156.2068.4992.248.5216.0604.8204.2196.8204.6328 0 .4644-.4072.7092-.9284.7092-.4516 0-.8396-.2196-.9-.6804-.0064-.0444.016-.0604.0604-.0604h.35c.0444 0 .07.0192.0828.054.0476.1528.21.2704.4452.2704.2068 0 .388-.0764.388-.2384 0-.194-.1908-.2288-.5724-.2768-.4388-.0572-.744-.1844-.744-.5884s.3468-.6932.8904-.6932c.4896 0 .83.264.9.6584.0096.0444-.0032.0732-.0508.0732h-.3504v-.0004ZM14.3324 16.792c-.0316 0-.0572-.0288-.0572-.0604V14.69c0-.0316.0256-.0604.0572-.0604h.8648c.6424 0 1.1416.442 1.1416 1.0876 0 .636-.4928 1.0748-1.1416 1.0748h-.8648Zm.8648-.4296c.3468 0 .6168-.2736.6168-.652s-.2704-.652-.62-.652h-.3592c-.0316 0-.0572.0284-.0572.0604v1.186c0 .0316.0256.0572.0572.0572h.3624v.0004ZM17.68 13.44H6.32c-.088 0-.16-.072-.16-.16V6.96c0-.44.36-.8.8-.8h10.08c.44 0 .8.36.8.8v6.32c0 .088-.072.16-.16.16Z" fill="#002868"/><path d="M12.5892 12.1424h-1.04c-.066 0-.12-.054-.12-.12v-4.4c0-.066.054-.12.12-.12h1.04c.066 0 .12.054.12.12v4.4c0 .066-.054.12-.12.12Z" fill="#fff"/><path d="M14.36 8.7824H9.63999c-.066 0-.12-.054-.12-.12v-1.04c0-.066.054-.12.12-.12H14.36c.066 0 .12.054.12.12v1.04c0 .066-.054.12-.12.12Z" fill="#fff"/></g><defs><clipPath id="clip0_113_582"><path fill="#fff" d="M2 2h20v20H2z"/></clipPath></defs></svg>