<svg width="24" height="24" viewBox="0 0 24 24" fill="none" xmlns="http://www.w3.org/2000/svg"><path d="M12.1007 22c5.459 0 9.8844-4.4772 9.8844-10 0-5.52285-4.4254-10-9.8844-10-5.45908 0-9.88451 4.47715-9.88451 10 0 5.5228 4.42543 10 9.88451 10Z" fill="#5E464D"/><path d="M8.99219 20.8672c.40435.1381 1.76231.5796 1.82001.1479.0314-.237-.6853-.4798-1.65553-.9938-1.37993-.7293-2.64233-1.662-3.74486-2.7667-1.60927-1.578-2.53462-3.7247-2.57685-5.9781-.08224-3.02528 1.10045-5.47094 3.04582-7.04917-1.17467.90666-2.13225 2.06397-2.80296 3.38761-.67071 1.32363-1.03765 2.78026-1.07407 4.26366-.05777 2.1882.55414 4.0317 1.70354 5.7098.35692.461.77413.872 1.24046 1.2219 1.10143.8331 2.71196 1.6036 4.04444 2.056" fill="#fff"/><path d="M22.1212 9.70805c-.6128-2.88232-2.5181-4.90014-5.0665-6.32563C19 4.76973 21.7463 7.7196 20.1289 10.3219c-1.3707 2.0844-4.7044 1.6761-6.5254.6853-2.1656-1.17481-4.87858-3.81824-2.2028-6.40293 1.7319-1.67222 7.2449.20266 6.2747 2.70217-.5659 1.45389-2.7688 1.1308-3.7596.42001-.7303-.52477-1.3452-1.42647-1.0201-2.35755.1047-.29861.09-.76169-.3319-.42099-.3143.25456-.4729.67359-.5277 1.06325-.4612 3.25925 5.3456 5.78614 7.0677 2.63266.8949-1.63697-.5541-4.0141-2.3781-4.98727-1.3707-.73429-2.7981-1.25025-4.5457-1.12493-2.79618.19581-5.14296 1.94831-5.43667 4.80517-.29372 2.83921 1.60466 5.39451 3.83987 6.92281 2.3497 1.6057 5.5081 2.664 8.3982 1.7065 2.5906-.8586 3.6607-3.832 3.1398-6.25903" fill="#fff"/><path d="M18.4753 7.50029c.278-1.86802-1.4108-3.15057-2.9705-3.73311-1.8386-.68533-4.2676-.38574-5.60697 1.13668-.97905 1.11807-.91541 2.74133-.41022 4.05522.76369 1.98452 2.48779 3.41882 4.49479 4.03862 1.4255.4405 3.1506.6324 4.5957.1674 2.1079-.6785 2.7942-2.8765 2.3585-4.89038-.0933-.43537-.2365-.85851-.4269-1.26101-.2663-.55904-1.0769-1.69082.0421-.31232.1178.15363.2264.31415.3251.48071.2318.38087.4157.78898.5473 1.215.6128 1.8798.1321 4.0728-1.5665 5.2076-1.3031.8684-2.9597.9722-4.4713.7548-2.0267-.2937-3.9368-1.2728-5.2644-2.848-1.21203-1.4363-2.03933-3.49916-1.54099-5.38481.36518-1.37948 1.48519-2.40944 2.82649-2.83924 1.6967-.54925 3.5638-.29372 5.0911.5982.7656.44546 1.4685 1.06226 1.8553 1.87096.1771.36431.2723.76297.279 1.168.0039.16405-.0089.32807-.0382.48953-.0108.05874-.1351.2242-.1175.08811" fill="#3FE0C5"/></svg>