<svg width="24" height="24" viewBox="0 0 24 24" fill="none" xmlns="http://www.w3.org/2000/svg"><path d="M14.5389 14.25h-.761c-.1409 0-.2607-.1128-.2607-.2607v-2.0011l-1.3317.8314c-.1127.0705-.2536.0705-.3664 0l-1.3246-.8314v2.0011c0 .1409-.1127.2607-.2607.2607h-.75392c-.14092 0-.2607-.1128-.2607-.2607v-3.8612c0-.19025.15501-.34526.34525-.34526.07046 0 .13387.02114.19024.06341l2.09973 1.44445c.0845.0634.2043.0634.2888 0l2.0997-1.44445c.155-.10568.3735-.06341.4792.0916.0422.05637.0563.12685.0634.19025v3.8612c.007.1409-.1057.2607-.2466.2607ZM8.08481 14.243H3.36402c-.19024 0-.34525-.1551-.34525-.3453v-3.8823c.00704-.14797.11978-.26071.26774-.26071h.76097c.14092 0 .2607.11274.2607.26071v2.9522h2.86065v-2.9522c0-.14093.11274-.26071.2607-.26071h.73983c.14092 0 .2607.11274.2607.26071v3.8823c0 .1902-.15501.3453-.34525.3453ZM15.934 9.75468h4.7208c.1902 0 .3452.15501.3452.34522v3.8824c0 .1409-.1127.2607-.2536.2607h-.761c-.1409 0-.2607-.1128-.2607-.2607v-2.7832c0-.0916-.0775-.1691-.1691-.1691h-2.5154c-.0916 0-.1691.0775-.1691.1691v2.7832c0 .1409-.1127.2607-.2607.2607h-.761c-.1409 0-.2607-.1128-.2607-.2607v-3.8824c0-.19021.1551-.34522.3453-.34522Z" fill="#FF4A4A"/><path d="M17.9139 11.8473h.7539c.141 0 .2607.1127.2607.2607v.768c0 .1409-.1127.2607-.2607.2607h-.7539c-.1409 0-.2607-.1128-.2607-.2607v-.7751c0-.1409.1198-.2536.2607-.2536Z" fill="#FF4A4A"/></svg>