<svg width="24" height="24" viewBox="0 0 24 24" fill="none" xmlns="http://www.w3.org/2000/svg"><path d="M12 22c5.5228 0 10-4.4772 10-10 0-5.52285-4.4772-10-10-10C6.47715 2 2 6.47715 2 12c0 5.5228 4.47715 10 10 10Z" fill="#FF007A"/><path d="M9.65352 5.17697c-.17813-.0275-.18563-.03125-.10188-.04375.16063-.025.54066.00938.80246.07125.6107.14563 1.1663.5175 1.76 1.17813l.1575.175.225-.03563c.95-.15312 1.9169-.03125 2.725.34188.2225.1025.5732.30687.6169.36.0144.01625.04.12437.0569.23937.06.39813.03.70313-.0913.93125-.0662.12375-.07.1625-.0256.26875.0211.04389.054.08098.0951.10705.0411.02608.0887.04009.1374.04045.2013 0 .4175-.325.5175-.77687l.04-.17938.0788.08938c.4325.49.7718 1.15812.83 1.63312l.0156.12437-.0731-.11249c-.125-.19375-.25-.32625-.4113-.43313-.29-.19187-.5969-.25687-1.4094-.3-.7337-.03875-1.1493-.10125-1.5606-.23562-.7006-.22813-1.0537-.5325-1.8862-1.62438-.3694-.485-.5982-.75312-.825-.96875-.5169-.49125-1.0244-.74875-1.67378-.85Z" fill="#fff"/><path d="M16.0484 6.62625c.0187-.325.0625-.53938.1512-.735.035-.0775.0681-.14125.0731-.14125-.0055.04387-.0171.08677-.0343.1275-.0644.19-.075.45-.0307.75187.0563.38376.0888.43876.4938.85313.1906.19437.4119.43937.4919.545l.1456.19125-.1456-.13687c-.1782-.16688-.5882-.49375-.6788-.54-.0606-.03125-.07-.03063-.1075.00625-.0344.035-.0419.08624-.0462.33062-.0075.38-.0594.625-.185.86875-.0675.13125-.0782.10375-.0169-.04562.0456-.11126.05-.16001.05-.52813 0-.74-.0881-.9175-.6038-1.2225-.1551-.09003-.3145-.17262-.4775-.2475-.0805-.0323-.1586-.07032-.2337-.11375.0144-.01438.5169.13187.7187.21.3013.11562.3507.13062.3875.11625.0244-.00937.0363-.08063.0482-.29ZM10.044 7.89187c-.36189-.49812-.58564-1.2625-.53752-1.83374l.01501-.17688.0825.015c.155.02812.42191.1275.54691.20375.3425.20813.4912.4825.6418 1.18625.0444.20625.1025.43938.1294.51875.0425.12687.205.42375.3375.61688.095.13875.0313.20437-.1787.18562-.3213-.02938-.7563-.32938-1.0369-.71563Zm5.5656 3.70943c-1.6919-.6813-2.2875-1.2725-2.2875-2.27005 0-.14688.005-.26688.0106-.26688.0063 0 .0719.04813.1457.10751.3431.275.7275.3925 1.7906.5475.6256.09187.9781.16562 1.3031.27312 1.0325.3425 1.6713 1.0375 1.8238 1.9837.0437.2751.0181.7907-.0538 1.0626-.0562.215-.2294.6018-.275.6168-.0125.0038-.025-.0443-.0287-.1112-.0175-.355-.1969-.7013-.4988-.9607-.3431-.2943-.8031-.5293-1.93-.9824Zm-1.1875.2824c-.02-.1207-.0473-.2401-.0819-.3574l-.0437-.1288.0806.09c.1106.125.1988.2838.2725.4963.0569.1618.0631.21.0625.4731 0 .2587-.0069.3125-.0594.4587-.073.2145-.1952.4088-.3568.5675-.3094.315-.7063.4888-1.28.5613-.1.0125-.39.0337-.6457.0469-.6437.0337-1.0668.1025-1.4475.2362-.0343.0154-.0712.0243-.1087.0263-.015-.0157.2437-.17.4581-.2732.3019-.1456.6019-.225 1.275-.3368.3325-.0557.6763-.1225.7631-.1494.8238-.2525 1.2475-.9038 1.1119-1.7107Z" fill="#fff"/><path d="M14.7912 13.4694c-.225-.4832-.2762-.95-.1531-1.385.0131-.0463.0344-.0844.0469-.0844.0423.0153.0821.0368.1181.0637.1038.07.3113.1876.8644.4888.6906.3769 1.0844.6687 1.3525 1.0012.2344.2919.3794.6244.4494 1.0294.0393.2294.0162.7813-.0425 1.0125-.1856.7288-.6175 1.3013-1.2325 1.635-.0581.0336-.1182.0635-.18.0894-.0088 0 .0237-.0831.0731-.1856.2063-.4325.2306-.8538.0738-1.3225-.0957-.2869-.2913-.6375-.6857-1.2288-.4587-.6875-.5712-.8712-.6844-1.1137Zm-6.35433 2.6069c.62813-.53 1.40875-.9063 2.12063-1.0219.3062-.05.8175-.03 1.1013.0425.4549.1162.8625.3775 1.0743.6881.2063.3037.2956.5687.3875 1.1575.0375.2325.0769.4656.0888.5187.0687.305.2044.5494.3719.6719.2656.1944.7237.2063 1.1737.0313.047-.0216.0966-.0371.1475-.0463.0163.0163-.21.1681-.37.2481-.1888.1011-.4003.1523-.6144.1488-.4125 0-.755-.2094-1.0406-.6375-.0563-.0844-.1825-.3363-.2813-.5606-.3012-.6875-.45-.8975-.8-1.1269-.3056-.2-.6987-.2356-.9943-.0906-.3888.1906-.4969.6875-.2188 1.0018.1106.125.3169.2332.4856.2538.0737.0098.1485.0036.2195-.0181.0711-.0216.1366-.0583.1923-.1075.0556-.0492.1-.1097.1302-.1775.0303-.0679.0456-.1414.0449-.2156 0-.2076-.08-.3251-.28-.4157-.2731-.1231-.5669.0206-.5656.2775.0006.1094.0481.1781.1581.2281.0707.0313.0719.0344.0144.0226-.2506-.0526-.3094-.3544-.1075-.555.2419-.2413.7425-.1351.9144.1937.0725.1381.0806.4138.0175.58-.1407.3719-.5519.5669-.9688.4606-.2837-.0725-.3994-.1506-.7412-.5031-.5944-.6125-.82502-.7313-1.68252-.865L8.25 16.2344l.18687-.1581Z" fill="#fff"/><path fill-rule="evenodd" clip-rule="evenodd" d="m5.75 3.9775.06.07312c2.3175 2.8375 3.515 4.31 3.59125 4.415.125.17375.07812.32938-.13688.45188-.11937.06812-.36562.13687-.48812.13687-.13938 0-.29625-.06687-.41063-.175-.08062-.07687-.40625-.56312-1.15812-1.72999-.35209-.55151-.70877-1.10007-1.07-1.64563-.03063-.02875-.03-.02813 1.01125 1.835.65375 1.17.875 1.58313.875 1.63875 0 .1125-.03125.17125-.17.32625-.23125.25812-.33438.54812-.40938 1.14815-.08375.6731-.31874 1.1481-.97124 1.9612-.38125.4763-.44376.5638-.54063.7556-.12125.2413-.15438.3769-.16813.6819-.01437.3225.01376.5313.11251.8394.08625.27.17624.4487.40624.805.19875.3081.31313.5369.31313.6262 0 .0713.01375.0713.32187.0019.73688-.1662 1.335-.4594 1.67188-.8181.20812-.2219.25687-.3444.25875-.6488.00063-.1987-.00625-.2406-.06-.355-.0875-.1862-.24688-.3412-.59813-.5812-.46062-.315-.65687-.5687-.71124-.9169-.045-.2856.00687-.4875.26187-1.0212.26312-.5525.32875-.7875.37312-1.3444.02813-.36.0675-.50187.17125-.61562.10751-.11875.20501-.15938.47188-.19563.435-.05938.71187-.17187.93937-.38125.1975-.1825.28-.35812.2925-.62187l.01-.2-.11062-.12876c-.15875-.18499-1.47188-1.63375-3.94-4.34749L5.8825 3.875l-.1325.1025Zm1.07125 10.2387c.0436-.0772.05662-.1679.03648-.2543-.02014-.0863-.07197-.162-.14523-.2119-.1425-.095-.36438-.05-.36438.0738 0 .0374.02063.0649.06751.0893.07937.0406.08499.0869.02312.18-.06313.095-.05812.1788.01437.2356.11625.0913.28063.0407.36813-.1125Zm3.45245-4.48495c-.2043.0625-.40245.27935-.46433.50625-.0375.1381-.01625.3812.04.4562.09063.1213.17873.1532.41623.1513.465-.0031.8688-.2025.9163-.4519.0387-.2044-.1394-.48748-.3838-.61248-.1262-.06374-.3944-.08937-.5244-.04937Zm.5438.42495c.0719-.1018.04-.21245-.0813-.2862-.2325-.14187-.5837-.025-.5837.195 0 .1088.1831.2281.3506.2281.1125 0 .265-.0668.3144-.1369Z" fill="#fff"/></svg>