<svg width="24" height="24" viewBox="0 0 24 24" fill="none" xmlns="http://www.w3.org/2000/svg"><path d="M12 22c5.5228 0 10-4.4772 10-10 0-5.52285-4.4772-10-10-10C6.47715 2 2 6.47715 2 12c0 5.5228 4.47715 10 10 10Z" fill="#093687"/><path d="m11.3898 15.5839 1.7839-5.4198.8591.2796-.6139-2.02868h5.3096c.9634 0 1.4647.86077 1.1184 1.91928l-.3364 1.0241c-.0044.0132-.0091.026-.0143.0399l-.0144.0376c-.0928.252-.2209.4895-.3807.7054-.5052.687-1.2745 1.1327-1.9595 1.1367h-2.6658l-.7565 2.3047-2.3295.0012Zm3.4794-3.5026h1.4144c.3539 0 .7453-.3163.8723-.7049l.3475-1.0573c.1278-.38906-.0563-.705-.4094-.705h-1.4147l-.8101 2.4672Zm-9.60215 3.5022c-.06044-.0021-.12071-.0075-.18054-.0164-.10018-.012-.19851-.0363-.29278-.0723-.18733-.0707-.35349-.1661-.47931-.3263-.07596-.0975-.13621-.2062-.17854-.3223-.02187-.059-.03962-.1195-.05312-.181-.0683-.3103-.03995-.6219.04553-.9254.00719-.0264.04234-.1402.04234-.1402l1.70395-5.18338H8.2232L6.49369 13.681c-.09427.288-.02117.5441.18533.6523.0664.0363.14124.0544.21689.0523h1.16112l1.96037-5.96938h2.6562l-1.9464 2.02868 1.0509-.2796-1.78465 5.4186-4.7264-.0004Z" fill="#fff"/></svg>