<svg width="24" height="24" viewBox="0 0 24 24" fill="none" xmlns="http://www.w3.org/2000/svg"><path d="M14.039 20.5984c-.6229.178-1.2458.2893-1.8465.2893h-.089c-.6006 0-1.2458-.089-1.8687-.2893-.28923-.0889-.60069.089-.68967.3782-.08899.2893.08898.6007.37819.6897.73418.2225 1.46828.3337 2.18018.3337h.089c.7119 0 1.4461-.1112 2.158-.3337.2892-.089.4671-.4004.3782-.6897-.089-.2892-.4005-.4671-.6897-.3782Zm4.8498-13.68183v-.02224C17.9322 3.95773 15.2403 2 12.148 2 9.03345 2 6.31932 3.97998 5.38495 6.91657v.02225c-.62292 1.8465-.40045 4.31588.60066 6.60738 1.37931 3.1368 3.89322 5.3392 6.11789 5.3392h.0445c2.2247 0 4.7386-2.1802 6.1179-5.3392 1.0456-2.3137 1.2681-4.78313.6229-6.62963Zm-3.248-2.69188c-1.1346-.04449-2.3582.44494-3.4928 1.40156-1.1568-.95662-2.38041-1.44605-3.49275-1.40156 1.00111-.7119 2.20245-1.11234 3.49275-1.11234 1.2903 0 2.4917.40044 3.4928 1.11234ZM13.0601 17.5506c-.2892.1335-.6006.2002-.9121.2002-.3337 0-.6451-.0667-.9121-.2002-1.891-.8676-2.29144-4.3826-.8454-7.67518.4672-1.04561 1.0679-1.97998 1.7575-2.73638.6897.7564 1.2903 1.69077 1.7575 2.73638 1.4238 3.29258 1.0456 6.80758-.8454 7.67518Zm-6.05113-4.4494c-.91212-2.0689-1.11234-4.24914-.57842-5.82868.28921-.84538.77865-1.44605 1.40156-1.73526.97887-.44494 2.26919-.13348 3.49279.86763-.7787.84539-1.44607 1.89099-1.95775 3.04783-.97887 2.20248-1.17909 4.49388-.73415 6.25138-.62291-.7341-1.20133-1.624-1.62403-2.6029Zm10.25583 0c-.4449.9789-1.0011 1.8688-1.624 2.6029.4449-1.7575.2225-4.0489-.7342-6.25138-.5116-1.15684-1.1791-2.20244-1.9577-3.04783 1.2236-.97886 2.4917-1.31257 3.4928-.86763.6229.28921 1.1123.88988 1.4015 1.73526.5562 1.57954.3337 3.75978-.5784 5.82868Z" fill="#49CC68"/></svg>