<svg width="24" height="24" viewBox="0 0 24 24" fill="none" xmlns="http://www.w3.org/2000/svg"><path d="M20.9865 13.2797c-.0521-.4146-.191-.6841-.2779-.85-.5385-1.0158-1.8065-3.15111-2.0324-3.545-.0694-.10366-.1563-.26951-.2258-.49755-.0868-.24877-.1216-.49755-.1389-.55974-.0174-.10366-.0174-.10366-.0348-.18658 0-.04146-.0521-.3317-.1737-.58048-.1042-.22804-.2258-.37316-.3127-.49755-.7295-.82924-1.7365-1.43476-1.9628-2.13531-.0298-.09209-.0724-.19114-.1257-.29344-.0058-.01127-.065-1.66992-.0711-1.68126-.3609-.66901-1.1058.18924-1.714.29547-1.8934.3317-3.0943 1.63502-4.74448 2.92036-.11093.09165-.57531.66534-1.36135 1.39173-.52403.48426-1.25214 1.6553-2.18433 3.51315l-.37658 1.66-.62906 2.1059c.01662.1231.04812.5039.0945 1.1423.1206 1.6601.92319 3.4864 1.13164 4.3571.55586-.2073 5.17196.8371 7.29116 1.231.3371.0596.7303.0924 1.1788.0619.1272-.0086-1.5878-3.3603-5.14478-10.0549 4.00808 6.6169 6.05828 9.9134 6.15058 9.8896.5732-.1478 1.2118-.4015 1.9149-.8088-.3243-.0967-1.9596-2.314-4.906-6.6518-.3273-.5813-.4909-1.1441-.4909-1.6883 0-.6123.2349-1.2931.7047-2.0424.0197.4603.0685.8371.1464 1.1303.1169.4397 1.5741 2.2296 2.0238 2.395.7273.2676.425-.1885 1.5368.2054.2084.0622.4516.1658.7122.4146.33.311.6721.7034.6721.7034.0521.1037.0695.1451.1216.2695.0695.1451.5183.7498.7094.9156.1911.1659.3648.2488.4864.2903.1042.0414.191.0622.2084.0622.2432.0622.4517.0414.5559.0414.1188-.0202.6248-.5464.7221-.6206.0758-.0577-5.479-4.4861-5.4641-4.5054.0219-.0284.6346-.5145 1.276.4371 2.0883 3.0983 4.1631 4.1098 4.1881 4.0683.0791-.1314.1344-.2491.1638-.3123.1563-.3317.2084-.6219.2953-1.0987.0868-.3317.1216-.5805.0868-.8915Zm-4.3092-8.12288c.0466.02722.047-.05832.0179-.16396-.0292-.10564-.1035-1.70738-.1096-1.71872-.1661-.30786-.4212-.37147-.6915-.17545-.0268.01947-.0185.3606.025 1.0234.27.55245.5228.89736.7582 1.03473Zm.425 3.64232-.9921-.51672c-.1961-.17835-.3187-.4756-.3187-.80257V7.0637c0-.17835.3364-.34122.4139-.19259l1.0569 1.76801c.1716.26753.0936.26753-.16.16002Zm3.6053 4.87156c-.0349.2394-.0152.1322-.0305.2077-.0306.1322-.0861.421-.1167.5343-.0472.1062-.1295.1062-.1523.0148 0-.0377-.1033-.3827-.1644-.5337-.0458-.1133.1053-.5058.2122-.5813.115-.0694.2867.1188.2517.3582Z" fill="#222"/><path d="M9.43127 10.8782s-.92239-.771-3.20438.356c-1.47448.7282-1.9523 2.2754-2.92285 3.5915-.97051 1.3159-1.49512 1.2593-1.49512 1.2593s2.13226.8083 4.09169-.3235c1.95935-1.1319 2.80899-4.8833 2.80899-4.8833h.72167Z" fill="#222"/><path fill-rule="evenodd" clip-rule="evenodd" d="M1.80893 16.085c.46238.0685 1.09016.0456 1.88334-.0686 1.18976-.1713 1.67014-.4592 1.88538-.5017.1435-.0282.36357-.0282.66023 0-.28289.2179-.57879.3851-.88771.5017-.46339.1749-.70802.2653-1.2204.3227-.51238.0574-.82153.0374-1.44207-.0333-.41369-.0471-.70661-.1207-.87877-.2208Z" fill="#414141"/><path d="M7.68245 9.25971C6.00091 9.6169 4.98037 10.8833 3.57 11.8528c-1.41028.9693-1.89403.8193-1.89403.8193s1.75646 1.1171 4.05055.4985c2.29405-.6187 4.55828-4.46357 1.95593-3.91089Z" fill="#222"/><path fill-rule="evenodd" clip-rule="evenodd" d="M1.67598 12.6721c.43304.1569.81729.2536 1.15277.2903.50321.0551.69168-.0677 1.06438.0725.24847.0934.36794.2033.35842.3297-.17572.0079-.40515-.0081-.68829-.048-.42472-.0599-.43661-.0701-.77477-.1584-.33816-.0882-.30083-.0766-.59172-.1981-.19392-.0811-.36752-.1771-.52079-.288Z" fill="#414141"/><path d="M9.49075 7.16658c-1.75832.02447-3.24251 1.17111-4.98343 1.91392-1.74077.74269-2.1462.4772-2.1462.4772s1.24459 1.5812 3.69561 1.4063c2.451-.1751 6.15517-3.83515 3.43402-3.79742Z" fill="#222"/><path fill-rule="evenodd" clip-rule="evenodd" d="M2.36115 9.5577c.32099.12381.62672.24235.91718.3556.43568.1699.58752.17.82101.3916.15566.1478.39059.3457.70479.5938-.43746-.078-.76052-.1655-.96917-.2627-.31297-.1457-.34413-.168-.60208-.3311-.25795-.1631-.37092-.2631-.57097-.43712-.13337-.11602-.23362-.21938-.30076-.31008ZM14.3685 21.1433c-.4166-.9228-.8408-1.7998-1.2727-2.631-.4319-.8312-1.1974-2.2872-2.2966-4.3681l-1.62697-3.0674 1.82267 9.5742 2.5517.4923h.8219ZM17.2377 20.1576c-.6916-.8321-1.6587-2.1072-2.9013-3.8254-1.2426-1.7181-1.9051-2.6623-1.9875-2.8324l-.2031-.4675c-.1014-.2336-.1799-.4765-.2343-.7253l-.003-.014c-.0521-.2384-.0641-.4839-.0355-.7263.0287-.2427.0935-.4797.1924-.7032l.4895-1.10629L11.42 11.5719l3.9028 9.3945c.1946-.0301.5113-.1384.9501-.3249.4387-.1865.7603-.3478.9648-.4839Z" fill="#414141"/><path fill-rule="evenodd" clip-rule="evenodd" d="M12.5455 9.7751c.0042.20466.1056.4559.3041.7537.2978.4468 1.3751 1.8343 1.7608 2.2045.2571.2468.6463.4581 1.1675.6337-.1268-.0209-.2066-.0313-.2396-.0313-.0791 0-.1664.0181-.273.0348-.2333.0366-.2823.0186-.5496-.0701-.2672-.0886-.8018-.7067-1.3493-1.335s-.6185-.767-.6979-1.0733c-.053-.2042-.094-.5765-.123-1.117ZM17.5872 13.2106l-2.768-2.1827.4955.1555 2.2725 2.0272ZM16.6308 5.12454l-.6148-2.09825c-.0323.01248-.0648.02759-.0975.04534-.0327.01775-.0582.0225-.0763.01424-.0076.13358-.0076.29597 0 .48715.0076.19118.0215.38071.0419.5686.0877.19337.2116.39757.3717.61262.1602.21504.2852.33848.375.3703ZM15.7703 6.2545l1.7211 2.79166-1.45-2.63027-.2711-.16139ZM20.1393 13.6989c.1796.2995.29.5054.331.6178.041.1125.041.2167 0 .3128" fill="#414141"/><path d="M15.5334 5.30967c.6574.34181.941.2521 1.4769.28817.6239.04199 1.1986.41673 1.1986.41673s-.493-.10725-.8798-.08983c-1.0598.04771-1.8064.38173-2.8533.14404-1.5295-.3473-.0006-1.30931 1.0576-.75911Z" fill="#222"/><path d="M15.0038 5.97923c.6575-.34181.941-.2521 1.477-.28818.6238-.04199 1.1985-.41672 1.1985-.41672s-.493.10724-.8798.08983c-1.0598-.04771-1.8063-.38174-2.8533-.14405-1.5294.3473-.0006 1.30932 1.0576.75912Z" fill="#222"/><path d="M16.5259 6.33377c.4983.37928 1.5732 0 1.5732 0s-.4517-.08476-.7323-.3527c-.2876-.27467-.8676-.27435-1.0903-.53901-.3724-.4427-.1787.56587.2494.89171Z" fill="#222"/></svg>