<svg width="24" height="24" viewBox="0 0 24 24" fill="none" xmlns="http://www.w3.org/2000/svg"><path d="M10.6971 20.1891 2.54068 3.57885c-.02984-.06127-.04364-.1291-.04011-.19715.00353-.06805.02428-.13409.0603-.19194.03602-.05784.08614-.1056.14565-.13879.05952-.03319.12648-.05072.19463-.05097h2.81792c.07433-.00016.14728.02012.21086.05864.06357.03852.11533.09378.1496.15974L12.0337 15.2689c.1187.2434.3033.4485.5329.592.2296.1435.4949.2196.7656.2196.2707 0 .536-.0761.7656-.2196.2296-.1435.4142-.3486.5329-.592l5.9489-12.04262c.0343-.06597.086-.12123.1496-.15975.0636-.03852.1365-.0588.2109-.05864h.3525c.048-.00343.096.00636.1388.0283.0428.02195.0788.05521.104.09617.0253.04096.0388.08805.0391.13615.0003.0481-.0125.09538-.0372.13668L13.2967 20.1891c-.1191.2432-.304.4482-.5338.5915-.2298.1434-.4952.2194-.766.2194-.2708 0-.5362-.076-.766-.2194-.2298-.1433-.4147-.3483-.5338-.5915Z" fill="url(#paint0_linear_8_77)"/><defs><linearGradient id="paint0_linear_8_77" x1="2.49858" y1="11.9984" x2="21.5689" y2="11.9984" gradientUnits="userSpaceOnUse"><stop stop-color="#9D4ABE"/><stop offset=".03" stop-color="#9055C4"/><stop offset=".15" stop-color="#6B74D6"/><stop offset=".26" stop-color="#4C8FE5"/><stop offset=".39" stop-color="#34A3F0"/><stop offset=".52" stop-color="#22B2F9"/><stop offset=".66" stop-color="#18BAFD"/><stop offset=".83" stop-color="#15BDFF"/><stop offset="1" stop-color="#28BAD5"/></linearGradient></defs></svg>