<svg width="24" height="24" viewBox="0 0 24 24" fill="none" xmlns="http://www.w3.org/2000/svg"><path d="M22.1606 12.0402C22.1606 6.49513 17.6655 2 12.1205 2 6.57546 2 2.08032 6.49513 2.08032 12.0402c0 5.545 4.49514 10.0401 10.04018 10.0401 5.545 0 10.0401-4.4951 10.0401-10.0401Z" fill="#000"/><path d="M9.61046 7.42168H8.10443v7.60182h1.50603V7.42168ZM15.6346 7.42169h-1.5061v5.57471h1.5061V7.42169ZM17.1406 12.9964h-1.506v1.5203h1.506v-1.5203ZM14.1285 15.0235h-1.506v1.5204h1.506v-1.5204ZM11.1165 15.0235H9.61044v1.5204h1.50606v-1.5204ZM12.6225 16.5439h-1.506v1.5204h1.506v-1.5204Z" fill="#fff"/></svg>