<svg width="24" height="24" viewBox="0 0 24 24" fill="none" xmlns="http://www.w3.org/2000/svg"><path d="M8.62363 4.20627H4.32836c-.09661 0-.16001.10098-.11804.188L12.0595 20.6669c.048.0996.1902.0986.2369-.0016l2.0525-4.4116c.0165-.0352.0163-.0761-.0003-.1113L8.74212 4.28133c-.02166-.04583-.0678-.07506-.11849-.07506ZM14.9768 14.4754l-2.0823-4.3483c-.017-.0355-.0171-.0767-.0004-.1123l2.6904-5.73317c.0216-.046.0678-.07538.1187-.07538h4.1655c.0962 0 .1597.1002.1185.18715l-4.7738 10.0814c-.0472.0998-.189.1001-.2366.0006Z" fill="#000"/></svg>