<svg width="24" height="24" viewBox="0 0 24 24" fill="none" xmlns="http://www.w3.org/2000/svg"><circle cx="12" cy="12" r="10" fill="#EDF0F4"/><path fill-rule="evenodd" clip-rule="evenodd" d="M12 2.47616c5.2563 0 9.5238 4.26748 9.5238 9.52384 0 5.2563-4.2675 9.5238-9.5238 9.5238-5.25636 0-9.52384-4.2675-9.52384-9.5238 0-5.25636 4.26748-9.52384 9.52384-9.52384Zm-4.66923 3.4451c.35966-.30796.86429-.56095 1.303-.38281.78886.32033 2.90833 4.59335 2.90833 4.59335s2.9647-4.21185 4.0295-4.59592c.3632-.13104.8613.09943 1.2411.38339 1.3331.99663 1.4708 2.38707 1.3556 2.77281-.1449.48496-7.509 9.82872-7.509 9.82872-.2202-.0899-4.58351-8.1883-4.81996-9.57399-.22597-1.32424.54283-2.224 1.49143-3.02555Z" fill="#3165D4"/></svg>