<svg width="24" height="24" viewBox="0 0 24 24" fill="none" xmlns="http://www.w3.org/2000/svg"><path d="m6.42935 17.3303.59672.5967c.93712-.4846 1.9984-.7609 3.12773-.7609 2.0705 0 3.9247.9251 5.1742 2.3828l2.3869-2.3868c-1.5098-1.2375-3.4401-1.9784-5.5427-1.9784-2.1986.004-4.205.813-5.74285 2.1466Z" fill="#000"/><path d="m8.85628 19.7575 1.65402 1.654c.8169.8169 2.1425.8169 2.9595 0l1.666-1.6701c-.849-.7048-1.9423-1.1293-3.1317-1.1293-1.1975 0-2.2988.4325-3.14782 1.1454ZM10.362 9.1646c4.2331 0 8.0537 1.7541 10.777 4.5735l.2483-.2483c.8169-.817.8169-2.1426 0-2.9596l-7.9175-7.91746c-.817-.81699-2.1426-.81699-2.9596 0L2.58871 10.5302c-.3324.3324-.52864.7529-.58871 1.1855 2.38686-1.61 5.26632-2.5511 8.362-2.5511Z" fill="#000"/><path d="M12.1722 11.1388c-3.31996 0-6.34759 1.2415-8.65436 3.2799l.62074.6208c1.71406-1.2015 3.80056-1.9063 6.05522-1.9063 3.1678 0 6.0113 1.3977 7.9456 3.6043l2.491-2.491c-2.2788-1.9343-5.2343-3.1077-8.4582-3.1077Z" fill="#000"/></svg>