<svg width="24" height="24" viewBox="0 0 24 24" fill="none" xmlns="http://www.w3.org/2000/svg"><path d="M12 22c5.5228 0 10-4.4772 10-10 0-5.52285-4.4772-10-10-10C6.47715 2 2 6.47715 2 12c0 5.5228 4.47715 10 10 10Z" fill="#1E1E1E"/><path d="m6.79638 5.32428 8.29482.15665c1.9965.03916 2.6389 2.60433.8783 3.51291L7.081 13.5916c-.41881.2154-.92707-.0744-.92707-.5326V5.9313c0-.34072.28869-.61486.64245-.60702ZM17.1036 18.6678l-8.86806-.1619c-2.19857-.0386-2.88611-2.9649-.93226-3.9673l9.70322-4.98126c.3768-.19277.8235.07711.8235.49736v7.9037c0 .3971-.3301.7171-.7264.7094Z" fill="#fff"/><path d="M14.7904 16.4514c.619 0 1.1209-.5018 1.1209-1.1209 0-.619-.5019-1.1209-1.1209-1.1209-.6191 0-1.1209.5019-1.1209 1.1209 0 .6191.5018 1.1209 1.1209 1.1209Z" fill="#00F97D"/></svg>