<svg width="24" height="24" viewBox="0 0 24 24" fill="none" xmlns="http://www.w3.org/2000/svg"><path d="m21.445 22-9.4851-2.2854v-1.0862l9.4851 2.2975V22ZM21.445 19.7143l-9.4851-2.2854v-1.0862l9.4851 2.2975v1.0741ZM21.445 17.3886l-9.4851-2.2895v-1.0862l9.4851 2.3016v1.0741ZM11.9278 9.98709 2.44278 7.70163V6.61544l9.48502 2.29757v1.07408ZM11.9278 7.70162 2.44278 5.41213V4.32997l9.48502 2.29756v1.07409ZM11.9278 5.37165 2.44275 3.0862V2l9.48505 2.29757v1.07408Z" fill="#56B3ED"/><path d="m2.41815 14.6146.01212-1.2396L21.4528 4.22511v1.23156L2.41815 14.6146ZM2.41815 17.2272l.01212-1.2396L21.4528 6.8377v1.22753L2.41815 17.2272ZM2.41815 19.787l.01212-1.2436L21.4528 9.39347V10.625L2.41815 19.787Z" fill="#6835CF"/></svg>