<svg width="24" height="24" viewBox="0 0 24 24" fill="none" xmlns="http://www.w3.org/2000/svg"><g clip-path="url(#clip0_113_580)" fill-rule="evenodd" clip-rule="evenodd"><path d="M22 12c0-1.3-.26-2.62-.76-3.82-.5-1.2-1.24-2.32-2.16-3.26-.94-.92-2.04-1.66-3.26-2.16C14.6 2.26 13.3 2 12 2c-1.3 0-2.62.26-3.82.76-1.2.5-2.32 1.24-3.26 2.16-.92.94-1.66 2.04-2.16 3.26C2.26 9.4 2 10.7 2 12c0 1.3.26 2.62.76 3.82.5 1.2 1.24 2.32 2.16 3.26.92.92 2.04 1.66 3.24 2.16 1.2.5 2.54.76 3.84.76 1.3 0 2.62-.26 3.82-.76 1.2-.5 2.32-1.24 3.26-2.16.92-.92 1.66-2.04 2.16-3.24.5-1.2.76-2.54.76-3.84Z" fill="url(#paint0_linear_113_580)"/><path d="M11.48 7.48001h1.04V16.52h-1.04V7.48001Z" fill="#fff"/><path d="M10.9 11.74v-1.08c-.82-.4-1.40002-1.26002-1.40002-2.24002 0-1.38 1.12002-2.5 2.50002-2.5 1.56 0 2.68 1.12 2.68 2.5 0 .34-.08.68-.24 1.08l-.44-1.44-.88.28.78 2.98002 3.04-1.12-.38-.88002-1.14.38c.2-.44.24-.78.24-1.3 0-1.94-1.56-3.5-3.68-3.5-1.94 0-3.50002 1.56-3.50002 3.5.02 1.56 1.02 2.88002 2.42002 3.34002ZM13.1 12.26v1.08c.82.4 1.4 1.26 1.4 2.24 0 1.38-1.12 2.5-2.5 2.5-1.56 0-2.68-1.12-2.68-2.5 0-.34.08-.68.24-1.08l.44 1.44.88-.28-.78-2.98-3.04 1.12.38.88 1.14-.38c-.2.44-.24.78-.24 1.3 0 1.94 1.56 3.5 3.68 3.5 1.94 0 3.5-1.56 3.5-3.5-.02-1.56-1.02-2.88-2.42-3.34Z" fill="#fff"/></g><defs><linearGradient id="paint0_linear_113_580" x1="2" y1="2" x2="22" y2="22" gradientUnits="userSpaceOnUse"><stop stop-color="#0077FC"/><stop offset="1" stop-color="#095EB5"/></linearGradient><clipPath id="clip0_113_580"><path fill="#fff" d="M2 2h20v20H2z"/></clipPath></defs></svg>