<svg width="24" height="24" viewBox="0 0 24 24" fill="none" xmlns="http://www.w3.org/2000/svg"><path d="M14.6854 7.1852c1.9355 0 2.5062 2.25807 1.9355 3.3747-.5707 1.1166-1.8662 2.4102-2.8122 3.2589-.8603.7609-2.1009 1.5054-3.6642-.0579-.0722-.0591-.15509-.1316-.24282-.2108l1.15132-1.1924c.0149.0124.0335.0312.0472.0418.6991.6991 1.0603.7058 1.7606.0054.5232-.5189 1.5482-1.6262 1.9932-2.1594.4324-.51788.6738-1.62807-1.2695-1.62807h-3.065c-1.29446 0-1.96315.67696-1.28514 1.62807.04585.0579.09715.1223.1472.1854l-1.22493 1.2738c-.29388-.3631-.53122-.7001-.6424-.9463-.79411-1.56326-.12407-3.5732 1.71217-3.5732h5.459Zm-5.35428 9.7773c-1.93548 0-2.50617-2.2581-1.93548-3.3748.57069-1.1165 1.86618-2.4101 2.81216-3.2588.8603-.76092 2.1009-1.50541 3.6642.0579.0722.059.1551.1316.2428.2107L12.9635 11.79c-.0149-.0124-.0335-.0312-.0472-.0419-.6991-.699-1.0603-.7057-1.7606-.0053-.5232.5189-1.54818 1.6262-1.99324 2.1593-.43239.518-.67371 1.6282 1.26954 1.6282h3.065c1.2945 0 1.9631-.677 1.2851-1.6282-.0458-.0579-.0971-.1222-.1472-.1853l1.225-1.2738c.2938.3631.5312.7001.6424.9462.7941 1.5633.124 3.5733-1.7122 3.5733H9.33112Z" fill="#E91C41"/><path d="M12 20.3871c-4.632 0-8.38708-3.755-8.38708-8.3872C3.61292 7.36792 7.368 3.61282 12 3.61282s8.3871 3.7551 8.3871 8.38708c0 4.6322-3.7551 8.3872-8.3871 8.3872Zm0-18.38711c-5.52284 0-10 4.47708-10 9.99991C2 17.5228 6.47716 22 12 22c5.5228 0 10-4.4772 10-10.0001 0-5.52283-4.4772-9.99991-10-9.99991Z" fill="#E91C41"/></svg>