<svg width="24" height="24" viewBox="0 0 24 24" fill="none" xmlns="http://www.w3.org/2000/svg"><path d="M22 12.0218c-.0022 5.5532-4.4484 9.982-10.0173 9.9782C6.44302 21.9962 1.99695 17.5303 2 11.9728c.00304-5.52897 4.50749-9.98097 10.0903-9.97279C17.5576 2.00802 22.0022 6.50294 22 12.0218Zm-2.2025-.1382c-.0956-2.12121-.8016-3.98089-2.3258-5.46888-1.9875-1.94021-4.3789-2.49991-7.0454-2.06135-3.00119.49362-6.2873 3.43087-6.21625 7.78153.06834 4.1846 3.49469 7.648 7.79995 7.6283 4.3977-.0201 7.8567-3.5979 7.7875-7.8796Z" fill="#030302"/><path d="M19.797 11.8837c.0698 4.2815-3.3892 7.8593-7.7869 7.8794-4.3053.0196-7.73165-3.4437-7.79999-7.6283-.07105-4.35066 3.21508-7.28791 6.21629-7.78153 2.6665-.43856 5.0579.12114 7.0453 2.06135 1.5243 1.48799 2.2303 3.34767 2.3253 5.46908Z" fill="#DEA038"/><path d="M10.9196 16.7679H8.30983c-.16902-1.0073-.04902-1.8779.62492-2.6925 1.18415-1.4313 2.15305-3.0357 3.45905-4.49334H8.59929V7.24403h2.30401V5.51255h2.1323v1.72226h2.5584c.0119.95271.1076 1.80912-.5667 2.63431-1.1744 1.43718-2.1515 3.03598-3.4153 4.53378h4.1331v2.3464h-2.6879v1.6795h-2.1377c.0001-.5357.0001-1.0708.0001-1.6609Z" fill="#030302"/></svg>