<svg width="24" height="24" viewBox="0 0 24 24" fill="none" xmlns="http://www.w3.org/2000/svg"><path d="M10.1398 4c.1241 0 .1792.06895.2482.131l7.6945 7.3222c.7814.717 1.5559 1.4525 2.3235 2.2063.0271.016.0502.0381.0676.0644.0173.0263.0284.0562.0324.0875.004.0313.0008.063-.0094.0929-.0102.0298-.027.0569-.0492.0793-.1586.2344-.3103.4757-.4482.7239-.1379.2482-.1448.1448-.262 0-1.1169-1.0756-2.2477-2.1443-3.3715-3.2129-2.3902-2.2753-4.7804-4.54596-7.17052-6.81202-.18616-.17237-.15858-.262 0-.393.28684-.17141.61095-.27077.94462-.28958ZM7.74729 9.13657l.131.11031 9.65261 9.15622c.1103.1103.1379.193.0483.324-.1586.2413-.3034.4827-.4482.7309-.1448.2482-.1379.1585-.262.0344-.9515-.917-1.9167-1.834-2.882-2.7578l-6.95677-6.5845c-.22752-.21374-.22752-.21374 0-.41369l.59985-.50332.11721-.09652ZM4.31371 17.6791c-.24569.0025-.49088-.023-.73084-.0758-.31197-.0796-.6015-.2298-.84626-.439-.24476-.2092-.43822-.4718-.56545-.7676-.12724-.2958-.18486-.6168-.16842-.9384.01644-.3215.1065-.635.26324-.9163.30657-.4968.68797-.9433 1.13074-1.3238.32405-.3447.33094-.3447.68947 0l3.51631 3.3371c.04826.0482.21373.1034 0 .193-1.01884.5375-2.13937.8547-3.28879.9308ZM19.096 16.1899l-.1379.2275c-.1241.2068-.262.4068-.3723.6274-.1103.2206-.1655.1586-.2965.0345L9.10555 8.33678c-.15858-.14479-.12411-.19305 0-.33784.18077-.17651.3795-.33364.59294-.46884.15858-.09653.22753-.11721.35851 0l3.8886 3.7094 5.0056 4.7366c.0552.0759.1379.1103.1448.2138ZM12.7253 4.05516c.7759.09707 1.5347.30126 2.2545.60673.2946.19255.5614.42453.7929.68948 2.0685 1.93741 4.0748 3.88172 6.1226 5.81913.1103.1103.1447.1793.0482.3172-.1655.2413-.3102.4964-.455.7515-.0759.1379-.1241.1448-.2414 0L17.393 8.62636l-4.6333-4.41262c-.0452-.031-.0811-.07396-.1034-.12411-.0138-.04826.0414-.02068.069-.03447ZM10.6362 15.6383c0 .0758-.0483.062-.0828.0689-.4395.0149-.87417.0962-1.28928.2414-.08273 0-.11721 0-.16547-.069l-4.19199-3.9851c-.10342-.0966-.10342-.1517 0-.2414.22753-.1999.44816-.4067.68947-.6136.08274-.0827.1379-.1034.23442 0l4.75045 4.5298.0552.069Z" fill="#0374F2"/></svg>