<svg width="24" height="24" viewBox="0 0 24 24" fill="none" xmlns="http://www.w3.org/2000/svg"><path d="M10.7365 2.07277c-1.65096.1992-3.32294.88069-4.73284 1.92913-.41931.30929-1.52522 1.34201-1.61432 1.50976-.05242.09961-.06814.07339 1.11639 1.64606 1.07971 1.44161 1.07447 1.43637 1.1426 1.33153.456-.75488 1.43088-1.64606 2.37955-2.16504l.25683-.14154.42454.41938c.79145.78633 1.20555 1.15329 1.26315 1.11135.0262-.02621 1.0692-.77061 2.3062-1.66179 1.2422-.88593 2.5892-1.85574 2.998-2.14931.5503-.38792.7285-.54519.6814-.58713-.1206-.09436-.9015-.46656-1.3942-.66052-1.4309-.56616-3.2129-.78109-4.8273-.58188Zm6.7561 2.92515c-1.2108.88594-2.0336 1.52549-2.0389 1.56743 0 .01573.152.14154.3355.2726.6813.48752 1.3312 1.22143 1.8134 2.06543l.2254.38793-.2306.24114c-.1258.1363-.4927.51895-.8176.84925l-.5871.6028.7286.9699c2.7988 3.7115 3.7056 4.8962 3.7527 4.9119.0315.0105.1678-.1992.2988-.4665 1.9288-3.916 1.0902-8.58156-2.086-11.63777-.2307-.22542-.4403-.4089-.4718-.4089-.0262 0-.4455.28832-.9224.64479Zm-14.42931 2.532c-1.19502 2.42191-1.38894 5.07448-.55034 7.59598.35641 1.0747.86482 2.034 1.57239 2.9723.31972.4247 1.41515 1.5622 1.49901 1.5622.06814-.0052 2.9194-2.1703 2.93513-2.2279.00524-.0315-.11007-.1363-.26207-.2359-.34068-.2307-1.10067-.9803-1.37846-1.363-.28303-.3879-.64992-1.0117-.64992-1.1061 0-.0419.36689-.4404.8124-.8859.44551-.4456.8124-.8336.8124-.8545 0-.0262-.63944-.886-1.42563-1.9134-2.80933-3.68532-3.08712-4.04703-3.10285-4.04703-.01048 0-.12579.22541-.26206.50325ZM17.2148 15.7025c-.435.6606-1.389 1.5098-2.1437 1.9135l-.3407.1782-.87-.8283-.8701-.8282-.6918.5137c-.3827.2883-1.7402 1.3001-3.01903 2.2594l-2.32714 1.7404.64468.3145c2.52629 1.2215 5.26749 1.363 7.83049.4142 1.064-.3932 2.0336-.9436 2.9089-1.6513.4036-.325 1.3103-1.2372 1.3103-1.3158 0-.0682-2.1751-2.9986-2.2223-2.9986-.0104 0-.1048.1311-.2096.2883Z" fill="#000"/></svg>