<svg width="24" height="24" viewBox="0 0 24 24" fill="none" xmlns="http://www.w3.org/2000/svg"><path d="M12 22c5.5228 0 10-4.4772 10-10 0-5.52285-4.4772-10-10-10C6.47715 2 2 6.47715 2 12c0 5.5228 4.47715 10 10 10Z" fill="#fff"/><path d="m17.4003 7.41266-.76-.76-1.656 1.65599-1.56-1.55999-.76-.76-.684.684-5.98399 5.98404.76.76 1.56 1.56-1.704 1.704.76.76 1.696-1.696c.84.752 1.94799 1.212 3.16799 1.212 2.624 0 4.748-2.124 4.748-4.748 0-1.216-.456-2.32805-1.212-3.16805l1.628-1.62799ZM7.44031 12.7287l5.29999-5.30005 1.56 1.56-5.29599 5.30005-1.564-1.56Zm8.46799-.6c0 2.084-1.688 3.772-3.772 3.772-.904 0-1.732-.316-2.37999-.848l5.30399-5.30405c.532.64805.848 1.48005.848 2.38005Z" fill="#000"/></svg>