<svg width="24" height="24" viewBox="0 0 24 24" fill="none" xmlns="http://www.w3.org/2000/svg"><path d="M15.868 20.8524c-.1122.0991-.2014.0048-.2925-.0389-1.846-.8852-3.6907-1.773-5.5369-2.6578-1.36551-.6544-2.7314-1.3081-4.10094-1.954-.16528-.0779-.23818-.1657-.23534-.3556.01084-.7258.00778-1.4518.0022-2.1777-.0012-.156.03402-.246.19244-.3225 2.15835-1.0426 4.31184-2.0954 6.46614-3.1465.0726-.0354.1899-.0504.1905-.1384.0007-.09044-.1196-.10304-.1911-.13742-2.1449-1.03186-4.29019-2.06285-6.43854-3.08744-.15679-.07477-.22412-.15799-.22156-.33795.01029-.72577.00245-1.45179.00686-2.17768.00054-.0869-.05606-.21272.10067-.24037.00529.08217.07048.10475.13095.1334.24762.11735.49535.23444.74212.35355 1.34917.65117 2.69688 1.30529 4.0473 1.95379 1.6805.80706 3.3632 1.60965 5.045 2.41416.0002.76089-.0007 1.52176.0017 2.28266.0004.0955-.0318.201.0546.2813-.477.3052-.993.5365-1.4965.7914-1.7223.8721-3.445 1.7434-5.16727 2.6156-.05078.0257-.1252.0403-.12942.1055-.00491.0758.07806.0711.1266.0945 1.55159.7486 3.10279 1.4981 4.65559 2.2441.6528.3135 1.3092.6195 1.964.9288-.0028.7994-.0058 1.5989-.0082 2.3984-.0002.0735-.0148.1565.0916.1751Z" fill="#4DC0BE"/><path d="M15.7752 8.93498c-1.6818-.80451-3.3645-1.6071-5.045-2.41416-1.35045-.64851-2.69816-1.30263-4.04731-1.95377-.24677-.1191-.49451-.2362-.74212-.35355-.06047-.02866-.12566-.05123-.13096-.1334.79865-.35108 1.59798-.70073 2.39541-1.05463.14551-.06458.25869.0073.37725.0644 1.07219.51644 2.14263 1.03653 3.21593 1.55065 2.1379 1.02407 4.2773 2.045 6.4159 3.06766.022.01055.0412.02717.0617.04096.016.09852-.05.1203-.1248.15194-.2223.09405-.4385.20247-.66.29836-.5712.24716-1.1439.4906-1.716.73554Z" fill="#077A8D"/><path d="M15.8679 20.8523c-.1063-.0186-.0917-.1016-.0915-.175.0024-.7995.0054-1.599.0082-2.3985.0024-.0141.0098-.0248.0222-.0319.0414-.0783.0229-.163.023-.2449.0013-1.1801.0024-2.3603.0004-3.5404-.0009-.5232-.009-1.0464-.0138-1.5695.0841-.1448.2463-.1579.3781-.2175.6596-.2979 1.3236-.5859 1.9826-.885.161-.0731.2113-.0551.211.1351-.0043 2.5423-.0029 5.0846-.0001 7.6269.0001.1319-.0358.2033-.1693.2608-.7869.3389-1.5678.6917-2.3508 1.0399Z" fill="#2E8D94"/><path d="M15.7751 8.93494c.5721-.24494 1.1449-.48838 1.716-.73555.2216-.09588.4378-.20431.6601-.29836.0747-.03164.1407-.05341.1248-.15194.1227.03096.1091.13125.1092.2212.001.74191-.0032 1.48387.004 2.22571.0014.1454-.065.2028-.1838.2547-.7926.3463-1.5829.6981-2.374 1.0482-.0864-.0803-.0542-.1858-.0545-.2813-.0025-.7609-.0016-1.52179-.0018-2.28266Z" fill="#2F8D94"/></svg>